<svg fill="none" viewBox="0 0 36 36" xmlns="http://www.w3.org/2000/svg"><path d="m17.1605 17.1603h-8.5734c-2.27381 0-4.4545-.9033-6.06233-2.5111-1.607829-1.6078-2.5110981-3.7885-2.5110981-6.06234 0-2.27382.9032691-4.4545 2.5110981-6.06233 1.60783-1.607833 3.78852-2.5111023 6.06233-2.5111023 2.2738 0 4.4545.9032693 6.0623 2.5111023 1.6079 1.60783 2.5111 3.78851 2.5111 6.06233z" fill="#9cdff0"/><g fill="#0088b0"><path d="m18.8408 17.1603h8.5735c2.2738 0 4.4545-.9033 6.0623-2.5111s2.5111-3.7885 2.5111-6.06234c0-2.27382-.9033-4.4545-2.5111-6.06233-1.6078-1.607833-3.7885-2.5111023-6.0623-2.5111023-2.2739 0-4.4546.9032693-6.0624 2.5111023-1.6078 1.60783-2.5111 3.78851-2.5111 6.06233z"/><path d="m17.1605 18.8414h-8.5734c-2.27381 0-4.4545.9033-6.06233 2.5111-1.607829 1.6079-2.5110981 3.7885-2.5110981 6.0624 0 2.2738.9032691 4.4545 2.5110981 6.0623 1.60783 1.6078 3.78852 2.5111 6.06233 2.5111 2.2738 0 4.4545-.9033 6.0623-2.5111 1.6079-1.6078 2.5111-3.7885 2.5111-6.0623z"/><path d="m18.8408 18.8414h8.5735c2.2738 0 4.4545.9033 6.0623 2.5111 1.6078 1.6079 2.5111 3.7885 2.5111 6.0624 0 2.2738-.9033 4.4545-2.5111 6.0623s-3.7885 2.5111-6.0623 2.5111c-2.2739 0-4.4546-.9033-6.0624-2.5111s-2.5111-3.7885-2.5111-6.0623z"/></g></svg>