<?xml version="1.0" encoding="utf-8"?>
<!-- Generator: Adobe Illustrator 25.4.1, SVG Export Plug-In . SVG Version: 6.00 Build 0)  -->
<svg version="1.1" id="e3553d74-0590-491b-b28e-952d4d1eac83"
	 xmlns="http://www.w3.org/2000/svg" xmlns:xlink="http://www.w3.org/1999/xlink" x="0px" y="0px" viewBox="0 0 1713.5 897.8"
	 style="enable-background:new 0 0 1713.5 897.8;" xml:space="preserve">
<style type="text/css">
	.st0{opacity:0.43;fill:#FBB009;}
	.st1{fill:#FBB009;}
	.st2{opacity:0.1;}
	.st3{fill:#FFFFFF;}
	.st4{fill:#3F3D56;}
	.st5{fill:#2F2E41;}
	.st6{fill:#CCCCCC;}
	.st7{fill:#000404;}
</style>
<path class="st0" d="M1150.1,492.9c40.4,185.1-212.4,343-474.4,343s-474.4-153.6-474.4-343s311.5-521.9,447-297.7
	C800.9,447.3,1117,341.1,1150.1,492.9z"/>
<path class="st0" d="M84.4,481.9C84.4,683.6,272,847,503.3,847s433.2-164,418.9-365.1c-30.9-433.3-213.6-271.6-408.3,3.1
	C381.1,672.4,84.4,280.3,84.4,481.9z"/>
<g>
	<path class="st1" d="M1508,149.8c-46.6-7.4-99.7-11.4-155-11.4c-50.6,0-99.4,3.3-143,9.6c0-0.7,0-1.3,0-2
		c2.4-82.3,71.1-147,153.4-144.5c79.5,2.4,143.2,66.8,144.5,146.3C1508,148.5,1508,149.2,1508,149.8z"/>
	<g class="st2">
		<path class="st3" d="M1378.6,1.4c-81.6-11-156.6,46.2-167.7,127.8c-0.7,5.1-1.1,10.3-1.3,15.5c0,0.7,0,1.3,0,2
			c13-1.9,26.4-3.5,40.2-4.8C1253.2,70.1,1307.4,11,1378.6,1.4z"/>
	</g>
	<path class="st4" d="M1573.2,161.6c-21.5-5.8-43.2-10.4-65.2-13.8c-36-5.6-72.3-9.1-108.7-10.4c-15.2-0.6-30.6-0.9-46.2-0.9
		c-12.4,0-24.7,0.2-36.8,0.6c-35.5,1-71,4-106.2,9c-26.1,3.6-51.9,8.8-77.2,15.7c-59.2,16.4-91.8,38.3-91.8,61.8
		s32.6,45.4,91.8,61.8c41.6,11.5,93,19.4,148.9,23c23.1,1.5,47,2.3,71.3,2.3c24.4,0,48.3-0.8,71.5-2.3c50.9-3.3,98-10.1,137.4-20
		c0.2-0.1,0.4-0.1,0.6-0.2c2.7-0.7,5.3-1.4,7.9-2c0.9-0.3,1.8-0.5,2.8-0.8c0.1,0,0.1,0,0.2,0c0.9-0.2,1.8-0.5,2.6-0.7
		c1.7-0.5,3.5-1,5.1-1.5c0.1,0,0.1,0,0.2-0.1c1.5-0.4,2.9-0.9,4.3-1.3c1.2-0.4,2.3-0.7,3.5-1.1c0.8-0.3,1.7-0.5,2.5-0.8
		c0.6-0.2,1.2-0.4,1.8-0.6c0.8-0.3,1.6-0.5,2.4-0.8c0.3-0.1,0.7-0.2,1-0.3c0.8-0.2,1.5-0.5,2.2-0.8c0.8-0.3,1.6-0.6,2.4-0.9
		c0.7-0.2,1.3-0.5,1.9-0.7c0.5-0.2,1.1-0.4,1.6-0.6c1.5-0.5,2.9-1.1,4.3-1.7c0.7-0.3,1.4-0.6,2.1-0.9c0.7-0.3,1.4-0.6,2.1-0.9
		c1.1-0.5,2.2-0.9,3.3-1.4c0.5-0.2,1.1-0.5,1.6-0.7c0.4-0.2,0.8-0.4,1.2-0.5c0.3-0.1,0.6-0.2,0.8-0.4c1-0.5,2-0.9,3-1.4
		c3.8-1.8,7.3-3.6,10.5-5.5c20.5-11.7,31.2-24.7,31.2-38.2C1665,200,1632.4,178,1573.2,161.6z M1572.6,283.3
		c-41.7,11.5-93.2,19.4-149.3,23c-22.8,1.5-46.4,2.2-70.4,2.2c-23.9,0-47.4-0.7-70.1-2.2c-56.2-3.6-107.7-11.4-149.5-23
		c-58.3-16.1-90.4-37.4-90.4-59.8c0-2,0.3-4,0.7-5.9c5.1-20.3,36.5-39.3,89.6-54c25.2-6.8,50.8-12,76.7-15.6c35.4-5,71.1-8,106.8-9
		c11.9-0.4,24-0.6,36.2-0.6c15.4,0,30.6,0.3,45.6,0.9c36.6,1.4,73.1,4.9,109.4,10.5c21.8,3.4,43.4,8,64.6,13.7
		c53.1,14.7,84.5,33.7,89.6,53.9c0.5,1.9,0.7,3.9,0.8,5.9C1663,245.9,1630.9,267.1,1572.6,283.3L1572.6,283.3z"/>
	<path class="st4" d="M1664.4,224.3c0,13.4-11,26-30.7,37.3c-3.3,1.9-6.8,3.7-10.5,5.5c-1,0.5-2,0.9-3,1.4c-0.3,0.1-0.6,0.3-0.8,0.4
		c-0.4,0.2-0.8,0.4-1.2,0.5c-0.5,0.2-1,0.5-1.6,0.7c-1.1,0.5-2.2,0.9-3.3,1.4c-0.7,0.3-1.4,0.6-2.1,0.9c-0.7,0.3-1.4,0.6-2.1,0.9
		c-1.4,0.6-2.9,1.1-4.3,1.7c-0.5,0.2-1.1,0.4-1.6,0.6c-0.6,0.2-1.3,0.5-1.9,0.7c-0.8,0.3-1.6,0.6-2.4,0.9c-0.7,0.3-1.5,0.5-2.2,0.8
		c-0.3,0.1-0.6,0.2-1,0.3c-0.8,0.3-1.6,0.5-2.4,0.8c-0.6,0.2-1.2,0.4-1.8,0.6c-0.8,0.3-1.7,0.5-2.5,0.8c-1.1,0.4-2.3,0.7-3.5,1.1
		c-1.4,0.4-2.9,0.9-4.3,1.3c-0.1,0-0.1,0-0.2,0.1c-1.7,0.5-3.4,1-5.1,1.5c-0.9,0.2-1.7,0.5-2.6,0.7c-0.1,0-0.1,0-0.2,0
		c-0.9,0.2-1.8,0.5-2.8,0.8c-2.6,0.7-5.2,1.4-7.9,2c-0.2,0-0.4,0.1-0.6,0.2c-38.4,9.6-85.4,16.6-137.5,19.9
		c-22.8,1.5-46.6,2.2-71,2.2c-24.6,0-48.6-0.8-71.6-2.3c-137.2-9-239.4-43-239.4-83.7c0-2.5,0.4-4.9,1.1-7.3
		c0.1,0.2,0.1,0.3,0.2,0.5c14.3,37.5,115.5,67.8,246.9,75.2c20.1,1.1,41,1.7,62.3,1.7c21.4,0,42.4-0.6,62.6-1.7
		c131.3-7.4,232.5-37.7,246.7-75.2c0.2-0.6,0.5-1.2,0.6-1.8C1663.9,218.5,1664.4,221.4,1664.4,224.3z"/>
	<path class="st4" d="M1203.7,260.6c-16.6,0-34.3-3.6-34.3-10.2c0-6.6,17.7-10.2,34.3-10.2c16.6,0,34.3,3.6,34.3,10.2
		C1238,257,1220.3,260.6,1203.7,260.6z M1203.7,242.1c-19.1,0-32.3,4.3-32.3,8.2s13.3,8.2,32.3,8.2s32.3-4.3,32.3-8.2
		S1222.7,242.1,1203.7,242.1z"/>
	<path class="st4" d="M1572.7,213.6c-16.6,0-34.3-3.6-34.3-10.2s17.7-10.2,34.3-10.2c16.6,0,34.3,3.6,34.3,10.2
		S1589.3,213.6,1572.7,213.6z M1572.7,195.1c-19.1,0-32.3,4.3-32.3,8.2s13.3,8.2,32.3,8.2s32.3-4.3,32.3-8.2
		S1591.7,195.1,1572.7,195.1z"/>
	<path class="st4" d="M1501.7,260.6c-16.6,0-34.3-3.6-34.3-10.2c0-6.6,17.7-10.2,34.3-10.2c16.6,0,34.3,3.6,34.3,10.2
		C1536,257,1518.3,260.6,1501.7,260.6z M1501.7,242.1c-19.1,0-32.3,4.3-32.3,8.2s13.3,8.2,32.3,8.2s32.3-4.3,32.3-8.2
		S1520.7,242.1,1501.7,242.1z"/>
	<path class="st4" d="M1352.7,282.6c-16.6,0-34.3-3.6-34.3-10.2s17.7-10.2,34.3-10.2c16.6,0,34.3,3.6,34.3,10.2
		S1369.3,282.6,1352.7,282.6z M1352.7,264.1c-19.1,0-32.3,4.3-32.3,8.2s13.3,8.2,32.3,8.2s32.3-4.3,32.3-8.2
		S1371.7,264.1,1352.7,264.1z"/>
	<circle class="st5" cx="1378" cy="450.7" r="42"/>
	
		<rect x="1343.2" y="482.8" transform="matrix(0.8941 -0.4478 0.4478 0.8941 -75.6357 658.3512)" class="st5" width="22.9" height="12.8"/>
	
		<ellipse transform="matrix(0.5505 -0.8349 0.8349 0.5505 191.3144 1341.2263)" class="st5" cx="1341.1" cy="493" rx="4" ry="10.6"/>
	
		<rect x="1394.9" y="477.7" transform="matrix(0.4478 -0.8941 0.8941 0.4478 336.4743 1523.109)" class="st5" width="12.8" height="22.9"/>
	<ellipse transform="matrix(0.8349 -0.5505 0.5505 0.8349 -37.7052 860.2431)" class="st5" cx="1414.9" cy="493" rx="10.6" ry="4"/>
	<circle class="st3" cx="1375" cy="440.4" r="14.4"/>
	
		<ellipse transform="matrix(0.7071 -0.7071 0.7071 0.7071 95.6733 1099.5728)" class="st4" cx="1375.1" cy="434.3" rx="4.8" ry="4.8"/>
	<path class="st1" d="M1411.1,405c0.6-15.6-12.8-28.7-29.9-29.4c-17.2-0.7-31.6,11.3-32.2,26.9s11.3,19.1,28.5,19.8
		S1410.5,420.6,1411.1,405z"/>
	
		<ellipse transform="matrix(0.7588 -0.6514 0.6514 0.7588 45.4278 1036.2233)" class="st5" cx="1421.7" cy="456.8" rx="6.6" ry="21"/>
	
		<ellipse transform="matrix(0.6514 -0.7588 0.7588 0.6514 118.6291 1171.7507)" class="st5" cx="1334.4" cy="456.8" rx="21" ry="6.6"/>
	<path class="st3" d="M1389.5,467.3c0.9,5.2-2.5,10.2-7.7,11.1c-5.2,0.9-10.2-2.5-11.1-7.7l0,0l0,0c-0.9-5.2,3.1-7,8.3-8
		S1388.6,462.1,1389.5,467.3z"/>
	<path class="st6" d="M1307,495.4c-1.1,0-2-0.9-2-2v-118c0-1.1,0.9-2,2-2c1.1,0,2,0.9,2,2v118C1309,494.5,1308.1,495.4,1307,495.4z"
		/>
	<path class="st6" d="M1277,601.4c-1.1,0-2-0.9-2-2v-86c0-1.1,0.9-2,2-2c1.1,0,2,0.9,2,2v86C1279,600.5,1278.1,601.4,1277,601.4z"/>
	<path class="st6" d="M1354,530.4c-1.1,0-2-0.9-2-2v-118c0-1.1,0.9-2,2-2c1.1,0,2,0.9,2,2v118C1356,529.5,1355.1,530.4,1354,530.4z"
		/>
	<path class="st6" d="M1325,615.4c-1.1,0-2-0.9-2-2v-48c0-1.1,0.9-2,2-2c1.1,0,2,0.9,2,2v48C1327,614.5,1326.1,615.4,1325,615.4z"/>
	<path class="st6" d="M1366,369.4c-1.1,0-2-0.9-2-2v-48c0-1.1,0.9-2,2-2c1.1,0,2,0.9,2,2v48C1368,368.5,1367.1,369.4,1366,369.4z"/>
	<path class="st6" d="M1266,390.4c-1.1,0-2-0.9-2-2v-48c0-1.1,0.9-2,2-2c1.1,0,2,0.9,2,2v48C1268,389.5,1267.1,390.4,1266,390.4z"/>
	<path class="st6" d="M1440,395.4c-1.1,0-2-0.9-2-2v-48c0-1.1,0.9-2,2-2c1.1,0,2,0.9,2,2v48C1442,394.5,1441.1,395.4,1440,395.4z"/>
	<path class="st6" d="M1436,545.4c-1.1,0-2-0.9-2-2v-58c0-1.1,0.9-2,2-2c1.1,0,2,0.9,2,2v58C1438,544.5,1437.1,545.4,1436,545.4z"/>
	<path class="st6" d="M1396,596.4c-1.1,0-2-0.9-2-2v-86c0-1.1,0.9-2,2-2c1.1,0,2,0.9,2,2v86C1398,595.5,1397.1,596.4,1396,596.4z"/>
	<path class="st6" d="M1404,449.4c-1.1,0-2-0.9-2-2v-118c0-1.1,0.9-2,2-2c1.1,0,2,0.9,2,2v118C1406,448.5,1405.1,449.4,1404,449.4z"
		/>
	
		<ellipse transform="matrix(0.7667 -0.642 0.642 0.7667 -57.6271 1209.4015)" class="st5" cx="1635.4" cy="684" rx="6.8" ry="21.5"/>
	<circle class="st5" cx="1589.6" cy="676.5" r="43.1"/>
	<rect x="1594.7" y="710.3" class="st5" width="13.1" height="23.4"/>
	<rect x="1568.5" y="710.3" class="st5" width="13.1" height="23.4"/>
	<ellipse class="st5" cx="1596.9" cy="734" rx="10.9" ry="4.1"/>
	<ellipse class="st5" cx="1570.7" cy="733.5" rx="10.9" ry="4.1"/>
	<path class="st6" d="M1576,622.4c3.8-15.5,20.8-24.6,37.9-20.4c17.1,4.2,27.8,20.2,24,35.7s-16.6,15.5-33.7,11.3
		S1572.2,637.9,1576,622.4z"/>
	
		<ellipse transform="matrix(0.4285 -0.9035 0.9035 0.4285 287.4701 1767.5795)" class="st5" cx="1541.1" cy="656.5" rx="6.8" ry="21.5"/>
	<circle class="st3" cx="1583.1" cy="667.4" r="14.4"/>
	<circle class="st4" cx="1577.2" cy="662.3" r="4.8"/>
	<circle class="st3" cx="1583" cy="697.4" r="6"/>
	<path class="st4" d="M1712.5,738.4h-236c-0.6,0-1-0.4-1-1s0.4-1,1-1h236c0.6,0,1,0.4,1,1S1713.1,738.4,1712.5,738.4z"/>
	<path class="st4" d="M1132.7,213.6c-16.6,0-34.3-3.6-34.3-10.2s17.7-10.2,34.3-10.2s34.3,3.6,34.3,10.2S1149.3,213.6,1132.7,213.6z
		 M1132.7,195.1c-19.1,0-32.3,4.3-32.3,8.2s13.3,8.2,32.3,8.2s32.3-4.3,32.3-8.2S1151.7,195.1,1132.7,195.1z"/>
</g>
<path class="st4" d="M839.2,738.3H141.5c-0.6,0-1-0.4-1-1s0.4-1,1-1h697.7c0.6,0,1,0.4,1,1S839.8,738.3,839.2,738.3z"/>
<ellipse class="st1" cx="421.1" cy="569.6" rx="82.6" ry="133.9"/>
<g>
	<g>
		<path d="M35.1,667.9c-6.8,0-12.7-2.5-17.8-7.4c-5.1-4.9-7.6-10.9-7.6-18c0-17.3,4.9-32.7,14.8-46.3l123-175.3
			c9.9-14.2,23.6-21.3,41.2-21.3h10.2c7.1,0,13.3,2.6,18.5,7.9c5.2,5.2,7.9,11.4,7.9,18.5v186.9c0,2.8,1.2,4.2,3.7,4.2h22.2
			c7.1,0,13.1,2.5,18,7.4c4.9,4.9,7.4,10.9,7.4,18c0,7.1-2.5,13.1-7.4,18c-4.9,4.9-10.9,7.4-18,7.4h-22.2c-2.5,0-3.7,1.4-3.7,4.2
			V711c0,7.1-2.6,13.3-7.9,18.5c-5.2,5.2-11.4,7.9-18.5,7.9h-10.2c-7.1,0-13.3-2.6-18.5-7.9c-5.2-5.2-7.9-11.4-7.9-18.5v-38.9
			c0-2.8-1.2-4.2-3.7-4.2H35.1z M70.2,615.7c0,0.3-0.1,0.5-0.2,0.5c-0.2,0-0.2,0.2-0.2,0.5c0,0.3,0.2,0.5,0.5,0.5h88.3
			c2.5,0,3.7-1.4,3.7-4.2V484.8c0-0.3-0.2-0.5-0.5-0.5h-0.5L70.2,615.7z"/>
		<path d="M526.5,700.8c-21.4,27.4-53.9,41.2-97.4,41.2s-75.9-13.7-97.4-41.2c-21.4-27.4-32.1-71.5-32.1-132.3
			c0-60.7,10.7-104.8,32.1-132.3c21.4-27.4,53.9-41.2,97.4-41.2s75.9,13.7,97.4,41.2c21.4,27.4,32.1,71.5,32.1,132.3
			C558.7,629.2,548,673.3,526.5,700.8z M477.3,473.2c-10.5-18.5-26.5-27.8-48.1-27.8c-21.6,0-37.6,9.3-48.1,27.8
			c-10.5,18.5-15.7,50.3-15.7,95.3c0,45,5.2,76.8,15.7,95.3c10.5,18.5,26.5,27.8,48.1,27.8c21.6,0,37.6-9.3,48.1-27.8
			c10.5-18.5,15.7-50.3,15.7-95.3C493,523.5,487.7,491.7,477.3,473.2z"/>
		<path d="M608.6,667.9c-6.8,0-12.7-2.5-17.8-7.4c-5.1-4.9-7.6-10.9-7.6-18c0-17.3,4.9-32.7,14.8-46.3l123-175.3
			c9.9-14.2,23.6-21.3,41.2-21.3h10.2c7.1,0,13.3,2.6,18.5,7.9c5.2,5.2,7.9,11.4,7.9,18.5v186.9c0,2.8,1.2,4.2,3.7,4.2h22.2
			c7.1,0,13.1,2.5,18,7.4c4.9,4.9,7.4,10.9,7.4,18c0,7.1-2.5,13.1-7.4,18c-4.9,4.9-10.9,7.4-18,7.4h-22.2c-2.5,0-3.7,1.4-3.7,4.2
			V711c0,7.1-2.6,13.3-7.9,18.5c-5.2,5.2-11.4,7.9-18.5,7.9h-10.2c-7.1,0-13.3-2.6-18.5-7.9c-5.2-5.2-7.9-11.4-7.9-18.5v-38.9
			c0-2.8-1.2-4.2-3.7-4.2H608.6z M643.8,615.7c0,0.3-0.1,0.5-0.2,0.5c-0.2,0-0.2,0.2-0.2,0.5c0,0.3,0.2,0.5,0.5,0.5h88.3
			c2.5,0,3.7-1.4,3.7-4.2V484.8c0-0.3-0.2-0.5-0.5-0.5h-0.5L643.8,615.7z"/>
	</g>
</g>
<path class="st7" d="M438.6,570.8l28.1-28.1c2.7-2.7,2.7-7.2,0-9.9c-2.7-2.7-7.2-2.7-9.9,0l-28.1,28.1l-28.1-28.1
	c-2.7-2.7-7.2-2.7-9.9,0c-2.7,2.7-2.7,7.2,0,9.9l28.1,28.1l-28.1,28.1c-2.7,2.7-2.7,7.2,0,9.9c1.4,1.4,3.2,2,4.9,2s3.6-0.7,4.9-2
	l28.1-28.1l28.1,28.1c1.4,1.4,3.2,2,4.9,2c1.8,0,3.6-0.7,4.9-2c2.7-2.7,2.7-7.2,0-9.9L438.6,570.8z"/>
</svg>
