<svg width="184" height="38" viewBox="0 0 184 38" fill="none" xmlns="http://www.w3.org/2000/svg">
<path d="M2.08813 27.6363C2.08813 27.406 2.08813 26.9454 2.08813 26.7151C2.08813 26.4848 2.08813 26.0241 2.08813 25.7938C2.08813 25.5635 2.08813 25.1029 2.08813 24.8726C2.08813 24.6423 2.08813 24.1817 2.08813 23.9514C2.32017 23.9514 2.78423 23.9514 3.01626 23.9514C3.24829 23.9514 3.71235 23.9514 3.94438 23.9514C4.17641 23.9514 4.64047 23.9514 4.8725 23.9514C5.10453 23.9514 5.56859 23.9514 5.80062 23.9514C5.80062 24.1817 5.80062 24.6423 5.80062 24.8726C5.80062 25.1029 5.80062 25.5635 5.80062 25.7938C5.80062 26.0241 5.80062 26.4848 5.80062 26.7151C5.80062 26.9454 5.80062 27.406 5.80062 27.6363C5.56859 27.6363 5.10453 27.6363 4.8725 27.6363C4.64047 27.6363 4.17641 27.6363 3.94438 27.6363C3.71235 27.6363 3.24829 27.6363 3.01626 27.6363C2.78423 27.8666 2.32017 27.8666 2.08813 27.6363Z" fill="#FEF9F3"/>
<path d="M19.2586 16.8126C19.2586 15.6611 19.0265 14.7399 18.3304 14.2793C17.6343 13.5883 16.7062 13.358 15.314 13.358C14.6179 13.358 13.9219 13.358 13.2258 13.5883C12.5297 13.8186 12.0656 13.8186 11.3695 14.0489C10.9055 13.358 10.6734 12.4368 10.6734 11.5156C11.3695 11.2853 12.2976 11.055 13.2258 11.055C14.1539 10.8247 15.082 10.8247 15.7781 10.8247C17.8664 10.8247 19.4906 11.2853 20.6507 12.2065C21.8109 13.1277 22.2749 14.7399 22.2749 16.8126V27.1762C21.5789 27.4065 20.6507 27.6368 19.4906 27.6368C18.5625 28.0974 17.4023 28.0974 16.2422 28.0974C15.082 28.0974 14.1539 28.0974 13.4578 27.8671C12.7617 27.6368 11.8336 27.4065 11.3695 26.9459C10.6734 26.4853 10.2094 26.0247 9.97734 25.3338C9.51328 24.6429 9.28125 23.7217 9.28125 22.8005C9.28125 21.8792 9.51328 20.958 9.74531 20.2671C10.4414 19.5762 10.9055 19.1156 11.6016 18.655C12.2976 18.1944 12.9937 17.9641 13.9219 17.7338C14.85 17.5035 15.5461 17.5035 16.4742 17.5035C17.1703 17.5035 17.6343 17.5035 18.0984 17.5035C18.5625 17.5035 19.0265 17.5035 19.2586 17.5035V16.8126ZM19.2586 20.0368C19.0265 20.0368 18.5625 20.0368 18.0984 19.8065C17.6343 19.5762 17.1703 19.8065 16.9383 19.8065C15.5461 19.8065 14.6179 20.0368 13.9219 20.4974C13.2258 20.958 12.7617 21.6489 12.7617 22.8005C12.7617 23.4914 12.9937 23.952 13.2258 24.4126C13.4578 24.8732 13.6898 25.1035 14.1539 25.3338C14.1539 25.3338 14.6179 25.3338 15.082 25.5641C15.5461 25.7944 16.0101 25.5641 16.2422 25.5641C16.7062 25.5641 17.1703 25.5641 17.8664 25.5641C18.3304 25.5641 18.7945 25.3338 19.2586 25.3338V20.0368Z" fill="#FEF9F3"/>
<path d="M27.1479 11.2853C27.38 11.2853 27.612 11.2853 27.844 11.2853C28.0761 11.2853 28.3081 11.2853 28.5401 11.2853C28.7722 11.2853 29.0042 11.2853 29.2362 11.2853C29.4683 11.2853 29.7003 11.2853 29.9323 11.2853C29.9323 11.5156 30.1643 11.9762 30.1643 12.4368C30.1643 12.8974 30.1643 13.358 30.1643 13.8186C30.3964 13.358 30.6284 13.1277 31.0925 12.6671C31.3245 12.2065 31.7886 11.9762 32.2526 11.7459C32.7167 11.5156 33.1807 11.2853 33.6448 11.055C34.1089 10.8247 34.8049 10.8247 35.501 10.8247C37.3573 10.8247 38.7495 11.2853 39.6776 12.4368C40.6057 13.5883 41.0698 15.2005 41.0698 17.2732V27.6368C40.8377 27.6368 40.6057 27.6368 40.1416 27.6368C39.6776 27.6368 39.6776 27.6368 39.2135 27.6368C38.9815 27.6368 38.7495 27.6368 38.5174 27.6368C38.2854 27.6368 38.0534 27.6368 37.8213 27.6368V18.1944C37.8213 16.5823 37.5893 15.4308 37.1252 14.7399C36.6612 14.0489 35.9651 13.5883 34.8049 13.5883C34.1089 13.5883 33.6448 13.5883 33.1807 13.8186C32.7167 14.0489 32.2526 14.2793 31.7886 14.7399C31.3245 15.2005 31.0925 15.8914 30.8604 16.5823C30.6284 17.2732 30.3964 18.1944 30.3964 19.1156V27.6368C30.1643 27.6368 29.9323 27.6368 29.7003 27.6368C29.4683 27.6368 29.2362 27.6368 29.0042 27.6368C28.7722 27.6368 28.5401 27.6368 28.3081 27.6368C28.0761 27.6368 27.844 27.6368 27.38 27.6368V11.2853H27.1479Z" fill="#FEF9F3"/>
<path d="M43.8538 11.2856C44.0858 11.2856 44.5498 11.2856 44.7819 11.2856C45.0139 11.2856 45.2459 11.2856 45.478 11.2856C45.71 11.2856 46.1741 11.2856 46.4061 11.2856C46.6381 11.2856 47.1022 11.2856 47.3342 11.2856L50.5826 24.8735L54.2951 11.2856C54.5272 11.2856 54.7592 11.2856 54.9912 11.2856C55.2233 11.2856 55.4553 11.2856 55.9193 11.2856C56.1514 11.2856 56.6154 11.2856 56.8475 11.2856C57.0795 11.2856 57.3115 11.2856 57.5436 11.2856L61.256 24.6432L64.5045 11.2856C64.7365 11.2856 64.9685 11.2856 65.2006 11.2856C65.4326 11.2856 65.6646 11.2856 65.8966 11.2856C66.1287 11.2856 66.3607 11.2856 66.5927 11.2856C66.8248 11.2856 67.2888 11.2856 67.5209 11.2856L62.6482 27.6372C62.4162 27.6372 62.1842 27.6372 61.7201 27.6372C61.256 27.6372 61.256 27.6372 61.024 27.6372C60.792 27.6372 60.5599 27.6372 60.3279 27.6372C60.0959 27.6372 59.8639 27.6372 59.3998 27.6372L55.9193 15.2008L52.2069 27.6372C51.9748 27.6372 51.5108 27.6372 51.2787 27.6372C51.0467 27.6372 50.8147 27.6372 50.5826 27.6372C50.3506 27.6372 50.1186 27.6372 49.8866 27.6372C49.6545 27.6372 49.4225 27.6372 49.1905 27.6372L43.8538 11.2856Z" fill="#FEF9F3"/>
<path d="M72.8574 20.2671C72.8574 22.1096 73.3215 23.4914 74.2496 24.1823C75.1777 25.1035 76.5699 25.3338 78.1941 25.3338C79.8183 25.3338 81.2105 25.1035 82.6027 24.6429C82.8347 24.8732 82.8347 25.3338 83.0667 25.7944C83.0667 26.255 83.2988 26.7156 83.2988 27.1762C82.6027 27.4065 81.9066 27.6368 80.9785 27.8671C80.0503 28.0974 79.1222 28.0974 78.1941 28.0974C76.5699 28.0974 75.4097 27.8671 74.2496 27.4065C73.0894 26.9459 72.1613 26.4853 71.4652 25.5641C70.7691 24.8732 70.3051 23.952 69.841 22.8005C69.609 21.6489 69.377 20.4974 69.377 19.3459C69.377 18.1944 69.609 17.0429 69.841 15.8914C70.073 14.7399 70.5371 13.8186 71.2332 13.1277C71.9293 12.6671 72.8574 11.9762 73.7855 11.5156C74.7136 11.055 75.8738 10.8247 77.266 10.8247C78.4261 10.8247 79.3542 11.055 80.2824 11.5156C81.2105 11.9762 81.9066 12.4368 82.3706 13.1277C82.8347 13.8186 83.2988 14.5096 83.7628 15.4308C83.9949 16.352 84.2269 17.2732 84.2269 18.4247C84.2269 18.655 84.2269 19.1156 84.2269 19.3459C84.2269 19.5762 84.2269 20.0368 84.2269 20.2671H72.8574ZM81.2105 17.7338C81.2105 17.0429 81.2105 16.5823 80.9785 16.1217C80.7464 15.6611 80.5144 15.2005 80.2824 14.7399C80.0503 14.2793 79.5863 14.0489 79.1222 13.8186C78.6582 13.5883 77.9621 13.358 77.498 13.358C76.1058 13.358 75.1777 13.8186 74.4816 14.5096C73.7855 15.2005 73.3215 16.352 73.0894 17.7338H81.2105Z" fill="#FEF9F3"/>
<path d="M100.005 4.14502C100.237 4.14502 100.469 4.14502 100.701 4.14502C100.933 4.14502 101.165 4.14502 101.397 4.14502C101.629 4.14502 101.861 4.14502 102.093 4.14502C102.325 4.14502 102.557 4.14502 102.789 4.14502V27.4056C101.861 27.6359 100.933 27.8662 100.005 28.0965C99.0769 28.3268 97.9167 28.3268 96.5246 28.3268C95.3644 28.3268 94.2043 28.0965 93.2761 27.8662C92.348 27.6359 91.4199 27.1753 90.4918 26.4844C89.5637 25.7935 89.0996 24.8723 88.6355 23.9511C88.1715 23.0299 87.9395 21.648 87.9395 20.0359C87.9395 18.6541 88.1715 17.5026 88.6355 16.3511C89.0996 15.1996 89.5637 14.2784 90.2598 13.5874C90.9558 12.8965 91.884 12.2056 92.8121 11.745C93.7402 11.2844 94.9004 11.0541 96.2925 11.0541C96.7566 11.0541 97.4527 11.0541 97.9168 11.2844C98.3808 11.2844 99.0769 11.5147 99.541 11.5147V4.14502H100.005ZM100.005 14.048C99.541 13.8177 99.0769 13.8177 98.6128 13.5874C98.1488 13.3571 97.4527 13.3571 96.9886 13.3571C96.0605 13.3571 95.3644 13.5874 94.6683 13.8177C93.9722 14.048 93.5082 14.5087 93.0441 15.1996C92.5801 15.6602 92.348 16.3511 92.116 17.2723C91.884 17.9632 91.884 18.8844 91.884 19.8056C91.884 21.8784 92.348 23.2602 93.2761 24.1814C94.2043 25.1026 95.5965 25.5632 97.2207 25.5632C97.6847 25.5632 98.3808 25.5632 98.8449 25.5632C99.3089 25.5632 99.773 25.3329 100.005 25.3329V14.048Z" fill="#FEF9F3"/>
<path d="M110.678 20.2657C110.678 22.1082 111.142 23.49 112.07 24.1809C112.998 25.1021 114.391 25.3324 116.015 25.3324C117.639 25.3324 119.031 25.1021 120.423 24.6415C120.655 24.8718 120.655 25.3324 120.888 25.793C120.888 26.2536 121.12 26.7142 121.12 27.1748C120.423 27.4051 119.727 27.6354 118.799 27.8657C117.871 28.096 116.943 28.096 116.015 28.096C114.391 28.096 113.231 27.8657 112.07 27.4051C110.91 26.9445 109.982 26.4839 109.286 25.5627C108.59 24.8718 108.126 23.9506 107.662 22.7991C107.43 21.6476 107.198 20.496 107.198 19.3445C107.198 18.193 107.43 17.0415 107.662 15.89C107.894 14.7385 108.358 13.8173 109.054 13.1263C109.75 12.4354 110.446 11.7445 111.606 11.2839C112.534 10.8233 113.695 10.593 115.087 10.593C116.247 10.593 117.175 10.8233 118.103 11.2839C119.031 11.7445 119.727 12.2051 120.191 12.896C120.655 13.587 121.12 14.2779 121.584 15.1991C121.816 16.1203 122.048 17.0415 122.048 18.193C122.048 18.4233 122.048 18.8839 122.048 19.1142C122.048 19.3445 122.048 19.8051 122.048 20.0354H110.678V20.2657ZM119.031 17.7324C119.031 17.0415 119.031 16.5809 118.799 16.1203C118.567 15.6597 118.335 15.1991 118.103 14.7385C117.871 14.2779 117.407 14.0476 116.943 13.8173C116.479 13.587 115.783 13.3567 115.319 13.3567C113.927 13.3567 112.999 13.8173 112.302 14.5082C111.606 15.1991 111.142 16.3506 110.91 17.7324H119.031Z" fill="#FEF9F3"/>
<path d="M125.993 24.6415C126.689 24.8718 127.153 25.1021 127.849 25.1021C128.545 25.3324 129.241 25.3324 129.937 25.3324C130.401 25.3324 130.865 25.3324 131.329 25.1021C131.793 24.8718 132.258 24.8718 132.49 24.6415C132.722 24.4112 133.186 24.1809 133.418 23.9506C133.65 23.7203 133.65 23.2597 133.65 22.7991C133.65 22.3385 133.65 22.1082 133.418 21.6476C133.186 21.4173 132.954 21.187 132.722 20.9567C132.722 20.9567 132.258 20.9567 132.026 20.7264C131.561 20.496 131.329 20.4961 130.865 20.2657L129.705 19.8051C128.313 19.3445 127.385 18.6536 126.689 17.9627C125.993 17.2718 125.761 16.3506 125.761 15.4294C125.761 14.0476 126.225 12.896 127.385 11.9748C128.545 11.0536 129.937 10.593 132.026 10.593C132.954 10.593 133.65 10.593 134.578 10.8233C135.506 11.0536 136.202 11.2839 136.666 11.2839C136.666 11.7445 136.434 12.2051 136.434 12.6657C136.202 13.1264 136.202 13.587 135.97 13.8173C135.274 13.8173 134.81 13.8173 134.114 13.587C133.418 13.3567 132.722 13.3567 132.026 13.3567C131.329 13.3567 130.401 13.587 129.937 13.8173C129.241 14.0476 129.009 14.5082 129.009 15.1991C129.009 15.6597 129.009 15.89 129.241 16.1203C129.473 16.3506 129.705 16.5809 129.937 16.8112C130.169 17.0415 130.401 17.0415 130.865 17.2718C131.097 17.5021 131.561 17.5021 132.026 17.7324L133.418 18.193C133.882 18.4233 134.346 18.6536 134.81 18.8839C135.274 19.1142 135.738 19.3445 135.97 19.8051C136.202 20.2657 136.666 20.496 136.666 21.187C136.898 21.6476 136.898 22.3385 136.898 23.0294C136.898 23.7203 136.666 24.6415 136.434 25.1021C136.202 25.5627 135.738 26.2536 135.042 26.7142C134.346 27.1748 133.65 27.6354 132.954 27.8657C132.025 28.0961 131.097 28.3264 130.169 28.3264C129.241 28.3264 128.313 28.3264 127.385 28.0961C126.457 27.8657 125.993 27.6354 125.297 27.4051C125.297 26.9445 125.529 26.4839 125.529 26.0233C125.761 25.5627 125.761 25.1021 125.993 24.6415Z" fill="#FEF9F3"/>
<path d="M142.002 13.5876H139.914C139.914 13.3573 139.914 13.127 139.914 12.8967C139.914 12.6664 139.914 12.4361 139.914 12.2058C139.914 11.9755 139.914 11.7452 139.914 11.5149C139.914 11.2846 139.914 11.0543 139.914 10.824H145.251V27.6361C145.019 27.6361 144.787 27.6361 144.555 27.6361C144.323 27.6361 144.091 27.6361 143.859 27.6361C143.627 27.6361 143.395 27.6361 143.162 27.6361C142.93 27.6361 142.698 27.6361 142.466 27.6361V13.5876H142.002ZM141.306 7.59973C141.306 7.36943 141.306 7.13913 141.306 6.67852C141.306 6.44822 141.306 6.21791 141.306 5.98761C141.306 5.75731 141.306 5.527 141.306 5.0664C141.306 4.83609 141.306 4.60579 141.306 4.37549C141.538 4.37549 142.002 4.37549 142.234 4.37549C142.466 4.37549 142.93 4.37549 143.162 4.37549C143.395 4.37549 143.627 4.37549 144.091 4.37549C144.323 4.37549 144.787 4.37549 145.019 4.37549C145.019 4.60579 145.019 4.83609 145.019 5.0664C145.019 5.2967 145.019 5.527 145.019 5.98761C145.019 6.21791 145.019 6.44822 145.019 6.67852C145.019 6.90882 145.019 7.36943 145.019 7.59973C144.787 7.59973 144.555 7.59973 144.091 7.59973C143.859 7.59973 143.395 7.59973 143.162 7.59973C142.93 7.59973 142.698 7.59973 142.234 7.59973C142.002 7.59973 141.77 7.59973 141.306 7.59973Z" fill="#FEF9F3"/>
<path d="M159.405 25.5631C161.261 25.5631 162.653 26.0237 163.581 26.7146C164.509 27.4056 164.973 28.5571 164.973 29.9389C164.973 30.8601 164.741 31.551 164.277 32.2419C163.813 32.9328 163.117 33.6237 162.421 34.0843C161.725 34.5449 160.565 35.0055 159.637 35.2359C158.477 35.4662 157.316 35.6965 156.156 35.6965C153.836 35.6965 152.212 35.2359 151.052 34.7752C149.891 34.3146 149.195 32.9328 149.195 31.551C149.195 30.6298 149.427 29.9389 149.891 29.248C150.355 28.5571 151.052 28.0965 151.748 27.6359C151.284 27.4055 151.052 26.9449 150.587 26.4843C150.123 26.0237 150.123 25.5631 150.123 24.8722C150.123 24.1813 150.355 23.4904 150.587 22.7995C150.82 22.1086 151.516 21.648 151.98 21.1874C151.284 20.7268 150.82 20.0359 150.355 19.3449C149.891 18.654 149.659 17.7328 149.659 16.5813C149.659 15.6601 149.891 14.9692 150.123 14.2783C150.355 13.5874 150.82 12.8965 151.516 12.4359C151.98 11.9752 152.908 11.5146 153.604 11.2843C154.532 11.054 155.46 10.8237 156.388 10.8237C157.316 10.8237 158.244 11.054 158.941 11.2843C159.637 11.5146 160.333 11.9752 161.029 12.4359C161.493 12.2055 161.957 11.7449 162.885 11.5146C163.581 11.2843 164.509 11.2843 165.205 11.2843C165.205 11.7449 165.437 12.2055 165.437 12.6662C165.437 12.8965 165.437 13.1268 165.437 13.3571C165.437 13.5874 165.437 13.8177 165.437 14.048H162.421C162.653 14.5086 162.885 14.7389 162.885 15.1995C163.117 15.6601 163.117 16.1207 163.117 16.5813C163.117 17.5025 162.885 18.1934 162.653 18.8843C162.421 19.8055 161.957 20.2662 161.261 20.7268C160.565 21.1874 159.869 21.648 159.173 21.8783C158.244 22.1086 157.548 22.3389 156.388 22.3389C155.46 22.3389 154.764 22.3389 154.068 22.1086C153.836 22.3389 153.372 22.5692 153.14 22.7995C152.908 23.2601 152.676 23.4904 152.676 23.951C152.676 24.4116 152.908 24.6419 153.14 24.8722C153.372 25.1025 154.068 25.3328 154.996 25.3328L159.405 25.5631ZM154.996 28.0965C154.068 28.0965 153.372 28.3268 152.908 28.7874C152.444 29.248 152.212 29.9389 152.212 30.6298C152.212 31.0904 152.212 31.551 152.444 31.7813C152.676 32.0116 152.908 32.2419 153.372 32.4722C153.836 32.7025 154.068 32.7025 154.532 32.9328C154.996 32.9328 155.46 32.9328 156.156 32.9328C157.78 32.9328 159.173 32.7025 160.333 32.0116C161.261 31.551 161.725 30.6298 161.725 29.9389C161.725 29.248 161.493 28.7874 161.029 28.5571C160.565 28.3268 159.869 28.0965 158.709 28.0965H154.996ZM156.62 20.0359C157.78 20.0359 158.709 19.8055 159.173 19.1146C159.637 18.4237 160.101 17.7328 160.101 16.5813C160.101 15.6601 159.869 14.7389 159.173 14.048C158.709 13.3571 157.78 13.1268 156.62 13.1268C155.46 13.1268 154.532 13.3571 154.068 14.048C153.372 14.7389 153.14 15.6601 153.14 16.5813C153.14 17.5025 153.372 18.4237 154.068 19.1146C154.532 19.8055 155.46 20.0359 156.62 20.0359Z" fill="#FEF9F3"/>
<path d="M168.454 11.2845C168.686 11.2845 168.918 11.2845 169.15 11.2845C169.382 11.2845 169.614 11.2845 169.847 11.2845C170.079 11.2845 170.311 11.2845 170.543 11.2845C170.775 11.2845 171.007 11.2845 171.239 11.2845C171.239 11.5148 171.471 11.9754 171.471 12.6663C171.471 13.1269 171.471 13.5875 171.471 14.0481C171.703 13.5875 171.935 13.3572 172.399 12.8966C172.631 12.436 173.095 12.2057 173.559 11.9754C174.023 11.7451 174.487 11.5148 174.951 11.2845C175.415 11.0542 176.111 11.0542 176.807 11.0542C178.664 11.0542 180.056 11.5148 180.984 12.6663C181.912 13.8178 182.376 15.43 182.376 17.5027V27.636C182.144 27.636 181.912 27.636 181.68 27.636C181.448 27.636 181.216 27.636 180.752 27.636C180.52 27.636 180.288 27.636 180.056 27.636C179.824 27.636 179.592 27.636 179.36 27.636V18.1936C179.36 16.5815 179.128 15.43 178.664 14.739C178.2 14.0481 177.504 13.5875 176.343 13.5875C175.647 13.5875 175.183 13.5875 174.719 13.8178C174.255 14.0481 173.791 14.2784 173.327 14.739C172.863 15.1997 172.631 15.8906 172.399 16.5815C171.703 17.5027 171.703 18.4239 171.703 19.3451V27.636C171.471 27.636 171.239 27.636 171.007 27.636C170.775 27.636 170.543 27.636 170.311 27.636C170.079 27.636 169.847 27.636 169.614 27.636C169.382 27.636 169.15 27.636 168.686 27.636V11.2845H168.454Z" fill="#FEF9F3"/>
</svg>
