<svg width="24" height="24" viewBox="0 0 24 24" fill="none" xmlns="http://www.w3.org/2000/svg">
<g clip-path="url(#clip0)">
<path d="M12 2.16052C15.2063 2.16052 15.5857 2.17477 16.8465 2.23102C18.0187 2.28277 18.651 2.47927 19.0732 2.64352C19.6313 2.85952 20.034 3.12202 20.451 3.53902C20.8732 3.96127 21.1305 4.35952 21.351 4.91752C21.5153 5.33977 21.7118 5.97652 21.7635 7.14427C21.8197 8.41027 21.834 8.78977 21.834 11.9915C21.834 15.1933 21.8197 15.5773 21.7635 16.8388C21.7118 18.011 21.5153 18.6433 21.351 19.0655C21.135 19.6235 20.8733 20.0263 20.4555 20.4433C20.0333 20.8655 19.635 21.1228 19.0778 21.3433C18.6555 21.5075 18.018 21.704 16.851 21.7558C15.585 21.812 15.2055 21.8263 12.0037 21.8263C8.802 21.8263 8.418 21.812 7.1565 21.7558C5.98425 21.704 5.352 21.5075 4.92975 21.3433C4.37175 21.1273 3.969 20.8655 3.55125 20.4478C3.129 20.0255 2.87175 19.6273 2.65125 19.07C2.487 18.6478 2.2905 18.0103 2.23875 16.8433C2.1825 15.5773 2.16825 15.1978 2.16825 11.996C2.16825 8.79427 2.1825 8.41027 2.23875 7.14877C2.2905 5.97652 2.487 5.34427 2.65125 4.92202C2.86725 4.36402 3.12975 3.96127 3.54675 3.54352C3.969 3.12127 4.36725 2.86402 4.92525 2.64352C5.3475 2.47927 5.98425 2.28277 7.152 2.23102C8.41275 2.17477 8.793 2.16052 11.9992 2.16052H12ZM12 -0.000226562C8.742 -0.000226562 8.33475 0.0140234 7.0545 0.0702734C5.7795 0.126523 4.90275 0.332773 4.14375 0.628273C3.35175 0.937274 2.68125 1.34527 2.016 2.01577C1.3455 2.68177 0.9375 3.35152 0.6285 4.13902C0.333 4.90327 0.12675 5.77477 0.0705 7.04977C0.01425 8.33452 0 8.74177 0 11.9998C0 15.2578 0.01425 15.665 0.0705 16.9453C0.12675 18.2203 0.333 19.097 0.6285 19.856C0.93825 20.648 1.3455 21.3185 2.016 21.9838C2.68125 22.649 3.35175 23.0623 4.13925 23.3668C4.9035 23.6623 5.775 23.8685 7.05 23.9248C8.3295 23.981 8.7375 23.9953 11.9955 23.9953C15.2535 23.9953 15.6615 23.981 16.941 23.9248C18.216 23.8685 19.0928 23.6623 19.8517 23.3668C20.6392 23.0623 21.3097 22.6498 21.975 21.9838C22.6402 21.3178 23.0535 20.648 23.358 19.8605C23.6535 19.0963 23.8598 18.2248 23.916 16.9498C23.9722 15.6703 23.9865 15.2623 23.9865 12.0043C23.9865 8.74627 23.9722 8.33902 23.916 7.05877C23.8598 5.78377 23.6535 4.90702 23.358 4.14802C23.0625 3.35077 22.6545 2.68102 21.9847 2.01502C21.3195 1.34977 20.649 0.936523 19.8615 0.632023C19.0972 0.336523 18.2257 0.130273 16.9508 0.0740234C15.6667 0.0132734 15.2587 -0.000976562 12.0007 -0.000976562L12 -0.000226562Z" fill="#FEF9F3"/>
<path d="M11.9999 5.83594C8.59719 5.83594 5.83569 8.59669 5.83569 12.0002C5.83569 15.4037 8.59644 18.1644 11.9999 18.1644C15.4034 18.1644 18.1642 15.4037 18.1642 12.0002C18.1642 8.59744 15.4034 5.83594 11.9999 5.83594ZM11.9999 15.9984C9.79194 15.9984 8.00169 14.2082 8.00169 12.0002C8.00169 9.79219 9.79194 8.00194 11.9999 8.00194C14.2079 8.00194 15.9982 9.79219 15.9982 12.0002C15.9982 14.2082 14.2079 15.9984 11.9999 15.9984Z" fill="#FEF9F3"/>
<path d="M19.8465 5.59159C19.8465 6.38659 19.2023 7.03084 18.4073 7.03084C17.6123 7.03084 16.968 6.38659 16.968 5.59159C16.968 4.79659 17.6123 4.15234 18.4073 4.15234C19.2023 4.15234 19.8465 4.79659 19.8465 5.59159Z" fill="#FEF9F3"/>
</g>
<defs>
<clipPath id="clip0">
<rect width="24" height="24" fill="white"/>
</clipPath>
</defs>
</svg>
