<svg width="24" height="24" viewBox="0 0 24 24" fill="none" xmlns="http://www.w3.org/2000/svg">
<path d="M12 0.295898C5.373 0.295898 0 5.66815 0 12.2959C0 17.5976 3.43875 22.0961 8.2065 23.6824C8.8065 23.7934 9.027 23.4221 9.027 23.1049C9.027 22.8191 9.01575 21.8734 9.0105 20.8706C5.6715 21.5966 4.96725 19.4546 4.96725 19.4546C4.42125 18.0679 3.63525 17.6989 3.63525 17.6989C2.54625 16.9541 3.71775 16.9691 3.71775 16.9691C4.92225 17.0539 5.55675 18.2059 5.55675 18.2059C6.627 20.0404 8.364 19.5101 9.04875 19.2034C9.156 18.4279 9.46725 17.8984 9.81075 17.5984C7.14525 17.2954 4.34325 16.2656 4.34325 11.6681C4.34325 10.3579 4.812 9.28765 5.58 8.4469C5.4555 8.14465 5.0445 6.9244 5.69625 5.2714C5.69625 5.2714 6.70425 4.9489 8.997 6.5014C9.954 6.23515 10.9807 6.1024 12.0007 6.09715C13.02 6.10165 14.0475 6.23515 15.0068 6.5014C17.2973 4.9489 18.303 5.2714 18.303 5.2714C18.9562 6.9244 18.5452 8.14465 18.4207 8.4469C19.1903 9.2869 19.656 10.3579 19.656 11.6681C19.656 16.2769 16.8488 17.2916 14.1765 17.5894C14.607 17.9621 14.9902 18.6919 14.9902 19.8116C14.9902 21.4174 14.976 22.7096 14.976 23.1049C14.976 23.4244 15.192 23.7986 15.8002 23.6809C20.5658 22.0924 24 17.5961 24 12.2959C24 5.66815 18.627 0.295898 12 0.295898Z" fill="#FEF9F3"/>
</svg>
