<svg width="24" height="24" viewBox="0 0 24 24" fill="none" xmlns="http://www.w3.org/2000/svg">
<g clip-path="url(#clip0)">
<path d="M24.0001 5.30625C23.1189 5.7 22.1671 5.9625 21.1734 6.0795C22.1904 5.46975 22.9689 4.5045 23.3386 3.35625C22.3869 3.91875 21.3324 4.33125 20.2119 4.55175C19.3119 3.5955 18.0324 3 16.6164 3C13.8976 3 11.6941 5.2035 11.6941 7.92225C11.6941 8.30625 11.7361 8.68125 11.8209 9.04275C7.72886 8.8365 4.10036 6.87675 1.67261 3.89625C1.25036 4.623 1.00736 5.47125 1.00736 6.37125C1.00736 8.0775 1.87436 9.5865 3.19661 10.4685C2.39036 10.4453 1.63136 10.2203 0.965355 9.85425C0.965355 9.873 0.965355 9.89625 0.965355 9.915C0.965355 12.3007 2.66261 14.2935 4.91711 14.7428C4.50461 14.8552 4.06886 14.916 3.61886 14.916C3.30011 14.916 2.99561 14.883 2.69111 14.8267C3.31961 16.7812 5.13836 18.2063 7.28936 18.249C5.60186 19.5705 3.48311 20.3587 1.17236 20.3587C0.774105 20.3587 0.384855 20.3355 -0.00439453 20.2882C2.18036 21.69 4.76711 22.5007 7.54735 22.5007C16.6036 22.5007 21.5581 14.9963 21.5581 8.49C21.5581 8.27475 21.5536 8.06325 21.5439 7.8525C22.5046 7.16325 23.3394 6.29625 24.0001 5.307V5.30625Z" fill="#FEF9F3"/>
</g>
<defs>
<clipPath id="clip0">
<rect width="24" height="24" fill="white"/>
</clipPath>
</defs>
</svg>
