<svg width="24" height="24" viewBox="0 0 24 24" fill="none" xmlns="http://www.w3.org/2000/svg">
<path d="M9.47318 10.5147C9.77768 10.2942 9.92318 9.92892 9.92318 9.42267C9.92318 9.14142 9.87593 8.91192 9.77768 8.73342C9.67493 8.55492 9.54293 8.41467 9.36968 8.31642C9.20093 8.21367 9.00893 8.14317 8.78843 8.10567C8.57318 8.06367 8.34293 8.04492 8.10893 8.04492H5.63843V10.8477H8.31068C8.77943 10.8522 9.16868 10.7397 9.47318 10.5147Z" fill="#FEF9F3"/>
<path d="M9.89091 13.0451C9.54366 12.7826 9.08466 12.6514 8.51241 12.6514H5.63916V15.9559H8.45616C8.71866 15.9559 8.96241 15.9326 9.19716 15.8809C9.43191 15.8291 9.64266 15.7496 9.82041 15.6281C9.99891 15.5111 10.1437 15.3514 10.2517 15.1504C10.3597 14.9494 10.4114 14.6861 10.4114 14.3719C10.4114 13.7531 10.2382 13.3121 9.89091 13.0451Z" fill="#FEF9F3"/>
<path d="M21.75 0H2.25C1.0125 0 0 1.0125 0 2.25V21.75C0 22.9875 1.0125 24 2.25 24H21.75C22.9875 24 24 22.9875 24 21.75V2.25C24 1.0125 22.9875 0 21.75 0ZM15.7313 6.31425H20.592V7.5H15.7313V6.31425ZM12.6937 16.0875C12.459 16.533 12.1403 16.8937 11.7472 17.175C11.349 17.4562 10.8945 17.6625 10.383 17.7983C9.87675 17.934 9.35175 18 8.817 18H3V6.0045H8.65275C9.22425 6.0045 9.74475 6.05625 10.2188 6.1545C10.6875 6.25275 11.0903 6.4215 11.4285 6.651C11.7615 6.8805 12.024 7.18575 12.2115 7.56525C12.3945 7.94025 12.4882 8.4135 12.4882 8.9715C12.4882 9.576 12.3525 10.0778 12.0758 10.4805C11.799 10.8833 11.3962 11.2118 10.8525 11.4698C11.5935 11.6805 12.1372 12.0555 12.498 12.585C12.864 13.119 13.0417 13.7618 13.0417 14.5118C13.0463 15.126 12.9292 15.651 12.6952 16.0868L12.6937 16.0875ZM22.4858 14.2313H16.2188C16.2188 14.916 16.4535 15.567 16.8097 15.9188C17.166 16.2653 17.682 16.4437 18.3517 16.4437C18.8347 16.4437 19.2472 16.3215 19.599 16.0778C19.9455 15.834 20.157 15.576 20.2365 15.309H22.3365C21.999 16.3545 21.4883 17.0992 20.7892 17.55C20.1 18 19.2563 18.225 18.2767 18.225C17.592 18.225 16.9785 18.1125 16.425 17.8965C15.8715 17.676 15.4125 17.367 15.0233 16.9635C14.6438 16.56 14.3528 16.0778 14.142 15.5153C13.9358 14.9573 13.8278 14.334 13.8278 13.6635C13.8278 13.0118 13.9358 12.4073 14.1465 11.8448C14.3625 11.2823 14.6625 10.7947 15.0555 10.3912C15.4492 9.98325 15.918 9.66 16.4618 9.42075C17.0055 9.186 17.6055 9.069 18.2715 9.069C19.0072 9.069 19.6493 9.21 20.2028 9.50025C20.751 9.786 21.201 10.1708 21.5573 10.653C21.9135 11.1353 22.1617 11.6842 22.3215 12.303C22.476 12.9127 22.5278 13.5547 22.4858 14.2297V14.2313Z" fill="#FEF9F3"/>
<path d="M18.2016 10.8709C17.8221 10.8709 17.5034 10.9369 17.2551 11.0674C17.0069 11.1979 16.8051 11.3576 16.6506 11.5451C16.4961 11.7371 16.3926 11.9389 16.3319 12.1594C16.2711 12.3701 16.2336 12.5629 16.2239 12.7309H20.1051C20.0489 12.1211 19.8381 11.6719 19.5569 11.3576C19.2666 11.0389 18.7881 10.8701 18.2024 10.8701L18.2016 10.8709Z" fill="#FEF9F3"/>
</svg>
