<svg width="24" height="24" viewBox="0 0 24 24" fill="none" xmlns="http://www.w3.org/2000/svg">
<path d="M9 9H13.1512V11.1277H13.2105C13.788 10.092 15.2017 9 17.3085 9C21.69 9 22.5 11.7278 22.5 15.2753V22.5H18.1733V16.095C18.1733 14.5672 18.1417 12.6022 15.9225 12.6022C13.6687 12.6022 13.3253 14.2658 13.3253 15.984V22.5H9V9Z" fill="#FEF9F3"/>
<path d="M1.5 9H6V22.5H1.5V9Z" fill="#FEF9F3"/>
<path d="M6 5.25C6 6.49275 4.99275 7.5 3.75 7.5C2.50725 7.5 1.5 6.49275 1.5 5.25C1.5 4.00725 2.50725 3 3.75 3C4.99275 3 6 4.00725 6 5.25Z" fill="#FEF9F3"/>
</svg>
