<svg version="1.1" id="Layer_1" xmlns="http://www.w3.org/2000/svg" xmlns:xlink="http://www.w3.org/1999/xlink" x="0px" y="0px" viewBox="0 0 18 12" style="enable-background:new 0 0 18 12;" xml:space="preserve">
<path class="st0" d="M14.6,10.2l-4.2-4.2l4.2-4.2c0.4-0.4,0.4-1,0-1.4s-1-0.4-1.4,0L9,4.5L4.7,0.3c-0.4-0.4-1-0.4-1.4,0
	s-0.4,1,0,1.4l4.2,4.2l-4.2,4.2c-0.4,0.4-0.4,1,0,1.4c0.2,0.2,0.5,0.3,0.7,0.3s0.5-0.1,0.7-0.3L9,7.4l4.2,4.2
	c0.2,0.2,0.5,0.3,0.7,0.3s0.5-0.1,0.7-0.3C15,11.2,15,10.6,14.6,10.2z"/>
</svg>
