<?xml version="1.0" encoding="utf-8"?>
<!-- Generator: Adobe Illustrator 25.4.1, SVG Export Plug-In . SVG Version: 6.00 Build 0)  -->
<svg version="1.1" id="Layer_1" xmlns="http://www.w3.org/2000/svg" xmlns:xlink="http://www.w3.org/1999/xlink" x="0px" y="0px"
	 viewBox="0 0 44 44" style="enable-background:new 0 0 44 44;" xml:space="preserve">
<style type="text/css">
	.st0{fill:#E24D26;}
	.st1{fill:#EF6529;}
	.st2{fill:#E9E9E9;}
	.st3{fill:#FFFFFF;}
</style>
<g>
	<path d="M10.5,1.7h1.8v1.8H14V1.7h1.8v5.4H14V5.4h-1.7v1.8h-1.8V1.7z M18.2,3.5h-1.7V1.7h5.1v1.8h-1.7v3.7h-1.7
		C18.2,7.2,18.2,3.5,18.2,3.5z M22.4,1.7h2l1.2,2l1.2-1.8h1.8v5.4h-1.8V4.6l-1.3,2l-1.3-2v2.6h-1.7L22.4,1.7z M29.5,1.7h1.7v3.5h2.6
		v1.8h-4.3"/>
	<path class="st0" d="M10.3,39l-2.6-29h28.6l-2.6,29L22,42.3"/>
	<path class="st1" d="M21.6,39.3V11.9h11.7L31,36.7"/>
	<path class="st2" d="M13.2,15.6h8.9v3.5H17l0.4,3.7h4.7v3.5h-8L13.2,15.6z M14.4,28.2h3.5l0.3,2.9l3.9,1v3.7l-7.2-2"/>
	<path class="st3" d="M30.5,15.6h-8.9v3.5h8.7L30.5,15.6z M29.9,22.8h-8.3v3.5h4.3l-0.4,4.6l-3.9,1v3.7l7.3-2"/>
</g>
</svg>
