<svg enable-background="new 0 0 37.1 37" viewBox="0 0 37.1 37" xmlns="http://www.w3.org/2000/svg"><path d="m13.2 35.6c.7 0 1.5-.1 2.2-.4s1.4-.7 1.8-1.3c.6-.6 1-1.1 1.3-1.8s.4-1.4.4-2.2v-5.7h-5.7c-.8 0-1.5.1-2.2.3-.7.3-1.4.7-2 1.3s-1 1.1-1.3 2c-.3.7-.4 1.5-.4 2.2s.1 1.5.4 2.2.7 1.4 1.3 2 1.3 1 2 1.3c.6 0 1.3.1 2.2.1z" fill="#0acd81"/><path d="m7.1 18.5c0-1.5.6-2.9 1.7-4.1s2.5-1.7 4.1-1.7h5.7v11.5h-5.7c-1.5 0-2.9-.6-4.1-1.7-1.1-1.1-1.7-2.5-1.7-4z" fill="#a059ff"/><path d="m7.1 7.2c0-1.5.6-2.9 1.7-4.1s2.5-1.7 4.1-1.7h5.7v11.5h-5.7c-.7 0-1.5-.1-2.2-.4s-1.4-.7-1.8-1.3c-.6-.6-1-1.1-1.3-1.8s-.5-1.5-.5-2.2z" fill="#f04e1e"/><path d="m18.5 1.4h5.7c1.5.1 2.8.7 3.9 1.8 1 1.1 1.5 2.5 1.5 3.9s-.6 2.9-1.5 3.9c-1 1.1-2.4 1.7-3.9 1.8h-5.7z" fill="#ff7262"/><path d="m30 18.5c0 1.1-.3 2.2-1 3.2s-1.5 1.7-2.5 2.1c-1.1.4-2.2.6-3.4.3-1.1-.3-2.1-.7-2.9-1.5s-1.4-1.8-1.5-2.9c-.3-1.1-.1-2.2.3-3.4.4-1 1.1-2 2.1-2.5 1-.6 2.1-1 3.2-1 .7 0 1.5.1 2.2.4s1.4.7 1.8 1.3c.6.6 1 1.1 1.3 1.8.2.7.4 1.5.4 2.2z" fill="#1abafc"/></svg>