<svg enable-background="new 0 0 44 44" viewBox="0 0 44 44" xmlns="http://www.w3.org/2000/svg"><circle cx="22" cy="22" fill="#300" r="20.8"/><g fill="#ff9800"><path d="m21.5 25.1h-5l-1 3.1v.1s0 0-.1.1h-.1-.1-2.5c-.1 0-.2-.1-.1-.2l4.3-12.3c0-.1.1-.3.1-.4.1-.3.1-.6.1-.9 0 0 0 0 0-.1s0 0 0 0h3.4c.1 0 .2 0 .2.1l4.9 13.7c0 .1 0 .2-.1.2h-2.8-.1s-.1-.1-.1-.1zm-4.2-2.7h3.4c-.1-.3-.2-.6-.3-1l-.4-1.1-.4-1.2c-.1-.4-.3-.8-.4-1.2l-.3-1c-.1.6-.3 1.1-.5 1.7s-.4 1.3-.6 2c-.1.6-.3 1.3-.5 1.8z"/><path d="m28.4 16.8c-.2 0-.4 0-.6-.1s-.4-.2-.5-.4c-.2-.2-.3-.4-.4-.6s-.1-.4-.1-.7c0-.2 0-.4.1-.6s.2-.4.4-.5c.3-.3.7-.5 1.2-.5.2 0 .4 0 .7.1.2.1.4.2.6.4.3.3.4.7.4 1.2 0 .2 0 .4-.1.7-.1.2-.2.4-.4.6s-.3.3-.6.4c-.3 0-.5 0-.7 0zm-1.5 11.5v-10.2c0-.1 0-.2.2-.2h2.6c.1 0 .2.1.2.2v10.2c0 .1 0 .2-.2.2h-2.7c-.1.1-.1 0-.1-.2z"/></g></svg>