<svg enable-background="new 0 0 44 44" viewBox="0 0 44 44" xmlns="http://www.w3.org/2000/svg"><circle cx="22" cy="22" fill="#f5dd1e" r="20.6"/><path d="m32.4 7h-21.7c-2.6 0-4.7 2.1-4.7 4.6v21.6c0 2.6 2.1 4.6 4.7 4.6h21.7c2.6 0 4.7-2.1 4.7-4.6v-21.6c0-2.5-2.1-4.6-4.7-4.6z" fill="#f5dd1e"/><path d="m25.3 29.3c.3.5.7 1 1.2 1.3s1.1.5 1.7.5c1.2 0 2-.6 2-1.4s-.8-1.3-2.1-1.9l-.7-.3c-2.1-.9-3.5-2-3.5-4.3 0-.5.1-1.1.3-1.6s.5-.9.9-1.3.9-.6 1.4-.8 1.1-.2 1.6-.2c.8-.1 1.7.1 2.4.5s1.3 1 1.7 1.8l-2.3 1.4c-.1-.4-.4-.7-.7-.9s-.7-.4-1.1-.3c-.2 0-.4 0-.5.1-.2.1-.3.2-.5.3-.1.1-.2.3-.3.4-.1.2-.1.3-.1.5 0 .8.5 1.2 1.8 1.7l.7.3c2.5 1.1 3.9 2.1 3.9 4.6s-2.1 4-4.8 4c-1.1.1-2.2-.2-3.1-.7s-1.7-1.3-2.2-2.3zm-10.3.3c.5.8.9 1.5 1.9 1.5s1.6-.4 1.6-1.8v-10h2.9v9.9c.1.6 0 1.2-.2 1.7-.2.6-.5 1.1-.9 1.5s-.9.7-1.5.9-1.2.3-1.8.2c-.9.1-1.8-.2-2.6-.6-.8-.5-1.4-1.2-1.8-2z"/></svg>