<?xml version="1.0" encoding="utf-8"?>
<!-- Generator: Adobe Illustrator 25.4.1, SVG Export Plug-In . SVG Version: 6.00 Build 0)  -->
<svg version="1.1" id="Layer_1" xmlns="http://www.w3.org/2000/svg" xmlns:xlink="http://www.w3.org/1999/xlink" x="0px" y="0px"
	 viewBox="0 0 37.1 37" style="enable-background:new 0 0 37.1 37;" xml:space="preserve">
<style type="text/css">
	.st0{fill:#0ACD81;}
	.st1{fill:#A059FF;}
	.st2{fill:#F04E1E;}
	.st3{fill:#FF7262;}
	.st4{fill:#1ABAFC;}
</style>
<g>
	<path class="st0" d="M13.2,35.6c0.7,0,1.5-0.1,2.2-0.4c0.7-0.3,1.4-0.7,1.8-1.3c0.6-0.6,1-1.1,1.3-1.8c0.3-0.7,0.4-1.4,0.4-2.2
		v-5.7h-5.7c-0.8,0-1.5,0.1-2.2,0.3c-0.7,0.3-1.4,0.7-2,1.3c-0.6,0.6-1,1.1-1.3,2c-0.3,0.7-0.4,1.5-0.4,2.2c0,0.7,0.1,1.5,0.4,2.2
		c0.3,0.7,0.7,1.4,1.3,2c0.6,0.6,1.3,1,2,1.3C11.6,35.5,12.3,35.6,13.2,35.6z"/>
	<path class="st1" d="M7.1,18.5c0-1.5,0.6-2.9,1.7-4.1s2.5-1.7,4.1-1.7h5.7v11.5h-5.7c-1.5,0-2.9-0.6-4.1-1.7
		C7.7,21.4,7.1,20,7.1,18.5z"/>
	<path class="st2" d="M7.1,7.2c0-1.5,0.6-2.9,1.7-4.1s2.5-1.7,4.1-1.7h5.7v11.5h-5.7c-0.7,0-1.5-0.1-2.2-0.4
		c-0.7-0.3-1.4-0.7-1.8-1.3c-0.6-0.6-1-1.1-1.3-1.8C7.3,8.7,7.1,7.9,7.1,7.2z"/>
	<path class="st3" d="M18.5,1.4h5.7c1.5,0.1,2.8,0.7,3.9,1.8c1,1.1,1.5,2.5,1.5,3.9s-0.6,2.9-1.5,3.9c-1,1.1-2.4,1.7-3.9,1.8h-5.7
		V1.4z"/>
	<path class="st4" d="M30,18.5c0,1.1-0.3,2.2-1,3.2c-0.7,1-1.5,1.7-2.5,2.1c-1.1,0.4-2.2,0.6-3.4,0.3c-1.1-0.3-2.1-0.7-2.9-1.5
		c-0.8-0.8-1.4-1.8-1.5-2.9c-0.3-1.1-0.1-2.2,0.3-3.4c0.4-1,1.1-2,2.1-2.5c1-0.6,2.1-1,3.2-1c0.7,0,1.5,0.1,2.2,0.4s1.4,0.7,1.8,1.3
		c0.6,0.6,1,1.1,1.3,1.8C29.8,17,30,17.8,30,18.5z"/>
</g>
</svg>
