<svg enable-background="new 0 0 49 48.8" viewBox="0 0 49 48.8" xmlns="http://www.w3.org/2000/svg"><path d="m38.8 26.7c-1.2 0-2.5.3-3.6.8-.3-.6-.6-1.2-.8-1.8-.1-.5-.1-1-.1-1.6.1-.6.3-1.1.5-1.7 0 0-.1-.4-.9-.4s-1.5.2-1.6.4c-.1.4-.2.8-.3 1.2-.7 1.6-1.5 3.2-2.4 4.6-.2-.4-.4-.9-.5-1.4s-.1-1-.1-1.6c.1-.6.3-1.1.5-1.7 0-.1-.1-.4-.9-.4s-1.5.2-1.6.4-.2.7-.3 1.2c-.2.5-2.1 4.8-2.6 5.9-.3.6-.5 1-.6 1.3-.1.1-.1.3-.2.4-.1.2-.2.4-.3.4-.1-.4-.1-.9 0-1.3.3-1.5 1-3.8 1-3.8s.1-.4-.5-.7c-.1-.1-.3-.1-.4-.1s-.3.1-.4.2l-.1.1s.6-2.6-1.2-2.6c-.7.1-1.4.4-2 .8s-1.1.9-1.5 1.5l-2.7 1.5-1.3.7-.1-.1c-2.2-2.3-6.3-4-6.1-7.2.1-1.1.5-4.2 7.9-7.8 6.1-3 10.9-2.2 11.7-.3 1.2 2.6-2.6 7.5-8.9 8.2-.7.1-1.4.1-2.1 0-.7-.2-1.3-.5-1.9-1-.3-.4-.4-.4-.5-.3s-.1.4 0 .6c.2.4.6.8 1 1.1s.8.5 1.3.7c2.5.5 5 .3 7.4-.7 3.9-1.5 6.8-5.5 5.9-9-.9-3.4-6.7-4.6-12.1-2.7-3.4 1.1-6.6 2.9-9.3 5.3-3 2.8-3.5 5.2-3.3 6.3.7 3.6 5.7 6 7.7 7.7l-.3.2c-1 .5-4.8 2.5-5.8 4.6-1.1 2.4.2 4.1 1 4.3 1.3.3 2.6.2 3.8-.3s2.2-1.3 2.9-2.4c.6-.9.9-1.9 1-3s-.1-2.1-.5-3.1l.8-.5c.5-.3 1-.6 1.4-.8-.3.8-.5 1.7-.5 2.6-.1 1.4.3 2.8 1.2 3.8.1.1.3.2.4.3.2.1.3.1.5.1.8 0 1.3-.7 1.7-1.5s1-2.2 1-2.2-.6 3.2 1 3.2c.6 0 1.2-.7 1.4-1.1v-.1s.1-.1.1-.2c.2-.4.7-1.3 1.5-2.8 1-2 2-4.4 2-4.4.1.5.2 1.1.4 1.6.2.6.5 1.3.8 1.8l-.3.5c-.2.2-.4.5-.6.8-.7.7-1.3 1.5-1.9 2.3-.1.1-.1.3-.1.5s.1.3.2.4c.3.2.6.2 1 .2.5 0 1-.1 1.5-.3.5-.1.9-.4 1.3-.7s.7-.6.9-1.1c.2-.4.3-.9.2-1.4 0-.6-.2-1.2-.5-1.7l.2-.3c.8-1.2 1.5-2.4 2.2-3.7.1.5.2 1.1.4 1.6s.4 1.1.7 1.6c-.9.7-1.6 1.7-2.1 2.7-.5 1.3-.1 1.9.6 2 .4 0 .7 0 1-.2.5-.2.9-.4 1.3-.7s.8-.6 1-1c.3-.4.4-.9.4-1.4s-.1-1-.3-1.4c1.2-.5 2.6-.6 3.9-.4 3.4.4 4.1 2.6 4 3.4-.1.3-.2.6-.4.9s-.4.5-.7.6c-.2.2-.3.2-.3.3s.1.2.3.1c.5-.2 1-.5 1.3-.9s.5-.9.6-1.5c.3-2.1-1.7-4.4-5.3-4.4zm-26.5 8.9c-1.1 1.3-2.7 1.7-3.4 1.3s-.4-2.2 1-3.6c.8-.7 1.7-1.4 2.7-2l.7-.4h.1l.2-.1c.2.8.3 1.7.1 2.6-.4.8-.8 1.6-1.4 2.2zm8.3-5.6c-.4 1-1.3 3.4-1.7 3.3s-.7-2-.1-3.8c.3-.9.7-1.7 1.3-2.5.6-.7 1.3-.9 1.5-.6.1.2-.8 3-1 3.6zm6.8 3.2c-.2.1-.3.1-.4.1-.1-.1.1-.1.1-.1s.9-.9 1.2-1.3l.7-.9c0 1.2-1.1 1.9-1.6 2.2zm5.3-1.2c-.1-.1-.1-.4.3-1.3.3-.6.7-1.1 1.2-1.5.1.2.1.4.1.7 0 .5-.1 1-.4 1.3-.3.4-.7.7-1.2.8z" fill="#cc6192"/></svg>