<svg enable-background="new 0 0 44 44" viewBox="0 0 44 44" xmlns="http://www.w3.org/2000/svg"><path d="m10.5 1.7h1.8v1.8h1.7v-1.8h1.8v5.4h-1.8v-1.7h-1.7v1.8h-1.8zm7.7 1.8h-1.7v-1.8h5.1v1.8h-1.7v3.7h-1.7zm4.2-1.8h2l1.2 2 1.2-1.8h1.8v5.4h-1.8v-2.7l-1.3 2-1.3-2v2.6h-1.7zm7.1 0h1.7v3.5h2.6v1.8h-4.3"/><path d="m10.3 39-2.6-29h28.6l-2.6 29-11.7 3.3" fill="#e24d26"/><path d="m21.6 39.3v-27.4h11.7l-2.3 24.8" fill="#ef6529"/><path d="m13.2 15.6h8.9v3.5h-5.1l.4 3.7h4.7v3.5h-8zm1.2 12.6h3.5l.3 2.9 3.9 1v3.7l-7.2-2" fill="#e9e9e9"/><path d="m30.5 15.6h-8.9v3.5h8.7zm-.6 7.2h-8.3v3.5h4.3l-.4 4.6-3.9 1v3.7l7.3-2" fill="#fff"/></svg>