<svg enable-background="new 0 0 44 44" viewBox="0 0 44 44" xmlns="http://www.w3.org/2000/svg"><circle cx="22" cy="22" fill="#001e36" r="20.9"/><g fill="#31a6ff"><path d="m13.4 28.3v-13.7c0-.1 0-.2.1-.2h.8 1 1.2 1.2c.9 0 1.9.1 2.8.4.7.2 1.3.6 1.8 1.1.4.4.8.9 1 1.5s.3 1.1.3 1.7c0 1-.2 2-.8 2.9-.5.7-1.3 1.3-2.2 1.6-1 .3-2 .5-3 .4h-1.3v4.3.1.1s0 0-.1 0c0 0 0 0-.1 0h-2.6c-.1 0-.1-.1-.1-.2zm3-11.3v4.5h.5.7c.5 0 1.1-.1 1.6-.2.4-.1.8-.4 1.1-.7.3-.4.4-.9.4-1.4 0-.4-.1-.8-.3-1.2-.2-.3-.6-.6-.9-.8-.5-.2-1-.3-1.6-.3h-.9c-.3 0-.5 0-.6.1z"/><path d="m31.8 20.2c-.4-.2-.9-.4-1.3-.5-.5-.1-1-.2-1.5-.2-.3 0-.5 0-.8.1-.1 0-.3.1-.4.2s-.1.3-.1.4.1.2.1.3c.1.2.3.3.5.4.3.2.6.3 1 .4.7.2 1.4.6 2.1 1 .4.3.8.7 1.1 1.1.2.4.3.9.3 1.4 0 .6-.2 1.3-.5 1.8-.4.5-.9.9-1.5 1.2-.8.3-1.6.5-2.4.4-.6 0-1.2-.1-1.8-.2-.5-.1-.9-.2-1.3-.4 0 0-.1-.1-.1-.1v-.1-2.3s0 0 0-.1c0 0 0 0 0-.1h.1.1c.5.3 1.1.5 1.7.7.5.1 1 .2 1.6.2.4 0 .8 0 1.1-.2.1-.1.2-.1.3-.2s.1-.2.1-.3 0-.2-.1-.3-.1-.2-.2-.2c-.4-.3-.9-.5-1.3-.6-.7-.2-1.3-.6-1.9-1-.4-.3-.8-.7-1-1.1s-.3-.9-.3-1.3c0-.6.2-1.1.4-1.6.3-.5.8-1 1.4-1.2.7-.3 1.6-.5 2.4-.5.6 0 1.1 0 1.7.1.4.1.8.2 1.2.3.1 0 .1.1.1.1v.2 2.2.1.1c-.6-.1-.7-.1-.8-.2z"/></g></svg>