<svg enable-background="new 0 0 44 44" viewBox="0 0 44 44" xmlns="http://www.w3.org/2000/svg"><circle cx="22" cy="22" fill="#49021f" r="20.9"/><path d="m11.6 6.8h20.8c.7 0 1.5.1 2.2.4s1.3.7 1.9 1.2c.5.5.9 1.2 1.2 1.8.3.7.4 1.4.4 2.2v19.9c0 .7-.1 1.5-.4 2.2s-.7 1.3-1.2 1.8-1.2.9-1.9 1.2-1.4.4-2.2.4h-20.8c-1.5 0-3-.6-4-1.7s-1.7-2.5-1.7-4v-19.7c0-1.5.6-3 1.7-4s2.5-1.7 4-1.7z" fill="#49021f"/><g fill="#f36"><path d="m17.4 14.6v13.7c0 .2-.1.2-.2.2h-2.6c-.1 0-.2 0-.2-.2v-13.7s0 0 0-.1c0 0 0 0 0-.1h.1.1 2.6.1c.1.1.1.1.1.2z"/><path d="m24.8 28.9c-1 0-2-.2-2.9-.6-.8-.4-1.6-1-2-1.8-.5-.9-.8-2-.7-3 0-1 .2-2 .7-2.8.5-.9 1.3-1.6 2.1-2.1 1-.5 2.2-.8 3.4-.8h.3.4v-4.2s0 0 0-.1h.1 2.8.1v.1 12.7.8c0 .3 0 .5.1.8v.1s-.1.1-.1.1c-.7.3-1.4.5-2.2.6-.7.1-1.4.2-2.1.2zm1.3-2.6v-5.9l-.4-.1h-.4c-.5 0-1 .1-1.5.3s-.9.6-1.1 1c-.3.5-.5 1.1-.4 1.7 0 .5.1.9.2 1.4.1.4.3.7.6 1 .3.2.6.4.9.5.4.1.7.2 1.1.2h.6c.1 0 .3 0 .4-.1z"/></g></svg>