<svg enable-background="new 0 0 44.1 44" viewBox="0 0 44.1 44" xmlns="http://www.w3.org/2000/svg"><path d="m36.2 10.2-2.5 28.8-11.7 3.2-11.6-3.3-2.6-28.7z" fill="#264de2"/><path d="m31 36.6 2.2-24.6h-11.6v27.2z" fill="#2965ef"/><g fill="#e9e9e9"><path d="m13.4 22.9.3 3.5h7.9v-3.5z"/><path d="m22.3 15.6h-8.9l.3 3.5h8.6z"/><path d="m22.1 36.1v-3.6l-3.9-1-.4-2.9h-2-1.7l.5 5.6z"/></g><path d="m14.3 1.8h4.3v1.8h-2.5v1.8h2.5v1.8h-4.3z"/><path d="m19.8 1.8h4.3v1.6h-2.5v.4h2.5v3.6h-4.3v-1.7h2.5v-.2h-2.5z"/><path d="m25.3 1.8h4.3v1.6h-2.3v.4h2.5v3.6h-4.3v-1.7h2.5v-.2h-2.5z"/><path d="m26 26.3-.4 4.6-3.9 1v3.6l7.3-2v-.7l.8-9.4.1-.9.7-7.2h-8.9v3.7h4.9l-.3 3.6h-4.7v3.5h4.4z" fill="#fff"/></svg>