<svg enable-background="new 0 0 44 44" viewBox="0 0 44 44" xmlns="http://www.w3.org/2000/svg"><circle cx="22" cy="22" fill="#470137" r="20.9"/><path d="m11.6 6.8h20.8c.8 0 1.5.1 2.2.4s1.3.7 1.9 1.2c.5.5.9 1.2 1.2 1.8.3.7.4 1.4.4 2.2v19.9c0 .7-.1 1.5-.4 2.2s-.7 1.3-1.2 1.8-1.2.9-1.9 1.2-1.4.4-2.2.4h-20.8c-.8 0-1.5-.1-2.2-.4s-1.3-.7-1.9-1.2c-.5-.5-1-1.2-1.2-1.9-.3-.7-.4-1.4-.4-2.2v-19.7c0-.8.1-1.5.4-2.2s.7-1.3 1.2-1.9c.5-.5 1.2-.9 1.9-1.2s1.5-.4 2.2-.4z" fill="#470137"/><g fill="#ff61f4"><path d="m22.9 14.6-4 6.6 4.3 7v.2s0 0-.1 0h-3c-.2 0-.4 0-.5-.2l-.9-1.6c-.3-.5-.6-1.1-.9-1.7l-1-1.7c-.3.6-.6 1.2-.9 1.7l-.9 1.7-1 1.6c0 .1-.2.2-.3.2h-3-.1s0 0 0-.1c0 0 0 0 0-.1l4.2-6.8-4.1-6.8v-.1s0 0 .1-.1h.1 3 .2l.1.1c.3.6.6 1.2.9 1.7.3.6.6 1.1 1 1.7.3.6.6 1.1.9 1.7.3-.6.6-1.2.9-1.7.3-.6.6-1.1.9-1.7l.9-1.7c0-.1 0-.1.1-.1h.1.1 2.8.1v.2c0-.1 0-.1 0 0z"/><path d="m28.6 28.9c-1 0-2-.2-2.9-.6-.8-.4-1.6-1-2-1.8-.5-.9-.8-2-.7-3 0-1 .2-2 .7-2.8.5-.9 1.2-1.6 2.1-2 1-.5 2.2-.8 3.4-.8h.3.4v-4.2c0-.1 0-.1.1-.1h2.7.1s0 0 .1.1v12.7.8.8.1s-.1.1-.1.1c-.7.3-1.4.5-2.2.6-.7 0-1.3.1-2 .1zm1.3-2.6v-5.9h-.4l-.5-.1c-.5 0-1 .1-1.5.3-.4.2-.8.6-1.1 1-.3.5-.5 1.1-.4 1.7 0 .5.1.9.2 1.4.1.4.3.7.6 1 .3.2.6.4.9.5.4.1.7.2 1.1.2h.6c.2 0 .4-.1.5-.1z"/></g></svg>