<?xml version="1.0" encoding="utf-8"?>
<!-- Generator: Adobe Illustrator 25.4.1, SVG Export Plug-In . SVG Version: 6.00 Build 0)  -->
<svg version="1.1" id="Layer_1" xmlns="http://www.w3.org/2000/svg" xmlns:xlink="http://www.w3.org/1999/xlink" x="0px" y="0px"
	 viewBox="0 0 44 44" style="enable-background:new 0 0 44 44;" xml:space="preserve">
<style type="text/css">
	.st0{fill:#001E36;}
	.st1{fill:#31A6FF;}
</style>
<g>
	<circle class="st0" cx="22" cy="22" r="20.9"/>
	<path class="st1" d="M13.4,28.3V14.6c0-0.1,0-0.2,0.1-0.2h0.8h1h1.2h1.2c0.9,0,1.9,0.1,2.8,0.4c0.7,0.2,1.3,0.6,1.8,1.1
		c0.4,0.4,0.8,0.9,1,1.5c0.2,0.6,0.3,1.1,0.3,1.7c0,1-0.2,2-0.8,2.9c-0.5,0.7-1.3,1.3-2.2,1.6c-1,0.3-2,0.5-3,0.4h-1.3v4.3
		c0,0,0,0,0,0.1c0,0,0,0,0,0.1c0,0,0,0-0.1,0c0,0,0,0-0.1,0h-2.6C13.4,28.5,13.4,28.4,13.4,28.3z M16.4,17v4.5h0.5h0.7
		c0.5,0,1.1-0.1,1.6-0.2c0.4-0.1,0.8-0.4,1.1-0.7c0.3-0.4,0.4-0.9,0.4-1.4c0-0.4-0.1-0.8-0.3-1.2c-0.2-0.3-0.6-0.6-0.9-0.8
		c-0.5-0.2-1-0.3-1.6-0.3h-0.9C16.7,16.9,16.5,16.9,16.4,17L16.4,17z"/>
	<path class="st1" d="M31.8,20.2c-0.4-0.2-0.9-0.4-1.3-0.5c-0.5-0.1-1-0.2-1.5-0.2c-0.3,0-0.5,0-0.8,0.1c-0.1,0-0.3,0.1-0.4,0.2
		c-0.1,0.1-0.1,0.3-0.1,0.4c0,0.1,0.1,0.2,0.1,0.3c0.1,0.2,0.3,0.3,0.5,0.4c0.3,0.2,0.6,0.3,1,0.4c0.7,0.2,1.4,0.6,2.1,1
		c0.4,0.3,0.8,0.7,1.1,1.1c0.2,0.4,0.3,0.9,0.3,1.4c0,0.6-0.2,1.3-0.5,1.8c-0.4,0.5-0.9,0.9-1.5,1.2c-0.8,0.3-1.6,0.5-2.4,0.4
		c-0.6,0-1.2-0.1-1.8-0.2c-0.5-0.1-0.9-0.2-1.3-0.4c0,0-0.1-0.1-0.1-0.1c0,0,0-0.1,0-0.1v-2.3c0,0,0,0,0-0.1c0,0,0,0,0-0.1
		c0,0,0,0,0.1,0c0,0,0,0,0.1,0c0.5,0.3,1.1,0.5,1.7,0.7c0.5,0.1,1,0.2,1.6,0.2c0.4,0,0.8,0,1.1-0.2c0.1-0.1,0.2-0.1,0.3-0.2
		c0.1-0.1,0.1-0.2,0.1-0.3c0-0.1,0-0.2-0.1-0.3c-0.1-0.1-0.1-0.2-0.2-0.2c-0.4-0.3-0.9-0.5-1.3-0.6c-0.7-0.2-1.3-0.6-1.9-1
		c-0.4-0.3-0.8-0.7-1-1.1c-0.2-0.4-0.3-0.9-0.3-1.3c0-0.6,0.2-1.1,0.4-1.6c0.3-0.5,0.8-1,1.4-1.2c0.7-0.3,1.6-0.5,2.4-0.5
		c0.6,0,1.1,0,1.7,0.1c0.4,0.1,0.8,0.2,1.2,0.3c0.1,0,0.1,0.1,0.1,0.1c0,0.1,0,0.1,0,0.2v2.2c0,0,0,0,0,0.1c0,0,0,0,0,0.1
		C32,20.3,31.9,20.3,31.8,20.2z"/>
</g>
</svg>
