<?xml version="1.0" encoding="utf-8"?>
<!-- Generator: Adobe Illustrator 25.4.1, SVG Export Plug-In . SVG Version: 6.00 Build 0)  -->
<svg version="1.1" id="Layer_1" xmlns="http://www.w3.org/2000/svg" xmlns:xlink="http://www.w3.org/1999/xlink" x="0px" y="0px"
	 viewBox="0 0 44 44" style="enable-background:new 0 0 44 44;" xml:space="preserve">
<style type="text/css">
	.st0{fill:#470137;}
	.st1{fill:#FF61F4;}
</style>
<g>
	<circle class="st0" cx="22" cy="22" r="20.9"/>
	<path class="st0" d="M11.6,6.8h20.8c0.8,0,1.5,0.1,2.2,0.4s1.3,0.7,1.9,1.2c0.5,0.5,0.9,1.2,1.2,1.8c0.3,0.7,0.4,1.4,0.4,2.2v19.9
		c0,0.7-0.1,1.5-0.4,2.2c-0.3,0.7-0.7,1.3-1.2,1.8c-0.5,0.5-1.2,0.9-1.9,1.2c-0.7,0.3-1.4,0.4-2.2,0.4H11.6c-0.8,0-1.5-0.1-2.2-0.4
		s-1.3-0.7-1.9-1.2c-0.5-0.5-1-1.2-1.2-1.9c-0.3-0.7-0.4-1.4-0.4-2.2V12.5c0-0.8,0.1-1.5,0.4-2.2C6.6,9.6,7,9,7.5,8.4
		c0.5-0.5,1.2-0.9,1.9-1.2C10.1,6.9,10.9,6.8,11.6,6.8z"/>
	<path class="st1" d="M22.9,14.6l-4,6.6l4.3,7c0,0.1,0,0.1,0,0.2c0,0,0,0-0.1,0h-3c-0.2,0-0.4,0-0.5-0.2l-0.9-1.6
		c-0.3-0.5-0.6-1.1-0.9-1.7l-1-1.7c-0.3,0.6-0.6,1.2-0.9,1.7l-0.9,1.7L14,28.2c0,0.1-0.2,0.2-0.3,0.2h-3h-0.1c0,0,0,0,0-0.1
		c0,0,0,0,0-0.1l4.2-6.8l-4.1-6.8c0,0,0-0.1,0-0.1c0,0,0,0,0.1-0.1c0,0,0.1,0,0.1,0h3h0.2l0.1,0.1c0.3,0.6,0.6,1.2,0.9,1.7
		c0.3,0.6,0.6,1.1,1,1.7c0.3,0.6,0.6,1.1,0.9,1.7c0.3-0.6,0.6-1.2,0.9-1.7c0.3-0.6,0.6-1.1,0.9-1.7l0.9-1.7c0-0.1,0-0.1,0.1-0.1
		c0,0,0.1,0,0.1,0c0,0,0.1,0,0.1,0h2.8c0,0,0.1,0,0.1,0C22.9,14.5,22.9,14.5,22.9,14.6C22.9,14.5,22.9,14.5,22.9,14.6L22.9,14.6z"/>
	<path class="st1" d="M28.6,28.9c-1,0-2-0.2-2.9-0.6c-0.8-0.4-1.6-1-2-1.8c-0.5-0.9-0.8-2-0.7-3c0-1,0.2-2,0.7-2.8
		c0.5-0.9,1.2-1.6,2.1-2c1-0.5,2.2-0.8,3.4-0.8h0.3h0.4v-4.2c0-0.1,0-0.1,0.1-0.1h2.7c0,0,0.1,0,0.1,0c0,0,0,0,0.1,0.1v12.7
		c0,0.2,0,0.5,0,0.8c0,0.3,0,0.5,0,0.8c0,0,0,0.1,0,0.1c0,0-0.1,0.1-0.1,0.1c-0.7,0.3-1.4,0.5-2.2,0.6
		C29.9,28.8,29.3,28.9,28.6,28.9z M29.9,26.3v-5.9h-0.4l-0.5-0.1c-0.5,0-1,0.1-1.5,0.3c-0.4,0.2-0.8,0.6-1.1,1
		c-0.3,0.5-0.5,1.1-0.4,1.7c0,0.5,0.1,0.9,0.2,1.4c0.1,0.4,0.3,0.7,0.6,1c0.3,0.2,0.6,0.4,0.9,0.5c0.4,0.1,0.7,0.2,1.1,0.2h0.6
		C29.6,26.4,29.8,26.3,29.9,26.3L29.9,26.3z"/>
</g>
</svg>
