<?xml version="1.0" encoding="utf-8"?>
<!-- Generator: Adobe Illustrator 25.4.1, SVG Export Plug-In . SVG Version: 6.00 Build 0)  -->
<svg version="1.1" id="Layer_1" xmlns="http://www.w3.org/2000/svg" xmlns:xlink="http://www.w3.org/1999/xlink" x="0px" y="0px"
	 viewBox="0 0 38 38" style="enable-background:new 0 0 38 38;" xml:space="preserve">
<style type="text/css">
	.st0{fill:#0065A7;}
	.st1{fill:#007ACA;}
	.st2{fill:#1F9AEE;}
	.st3{opacity:0.25;}
	.st4{opacity:0.25;fill-rule:evenodd;clip-rule:evenodd;fill:url(#SVGID_1_);enable-background:new    ;}
</style>
<g>
	<path class="st0" d="M34.7,5.8l-7-3.3c-0.4-0.2-0.8-0.3-1.3-0.2s-0.8,0.3-1.1,0.6L2.5,23.6c-0.1,0.1-0.3,0.3-0.3,0.5
		c-0.1,0.2-0.1,0.4-0.1,0.6s0,0.4,0.1,0.6c0.1,0.2,0.2,0.3,0.3,0.5l1.9,1.7c0.2,0.2,0.6,0.3,0.9,0.4c0.3,0,0.7-0.1,0.9-0.3L33.6,6.8
		c0.2-0.2,0.5-0.2,0.7-0.3c0.3,0,0.5,0,0.8,0.1c0.2,0.1,0.4,0.3,0.6,0.5c0.1,0.2,0.2,0.5,0.2,0.7c0-0.4-0.1-0.8-0.3-1.2
		C35.4,6.3,35.1,6,34.7,5.8z"/>
	<path class="st1" d="M34.7,32.1l-7,3.3c-0.4,0.2-0.8,0.2-1.3,0.2c-0.4-0.1-0.8-0.3-1.1-0.6L2.5,14.4c-0.1-0.1-0.3-0.3-0.3-0.5
		c-0.1-0.2-0.1-0.4-0.1-0.6c0-0.2,0-0.4,0.1-0.6c0.1-0.2,0.2-0.3,0.3-0.5l1.9-1.7c0.2-0.2,0.6-0.4,0.9-0.4s0.7,0.1,0.9,0.3
		l27.4,20.7c0.2,0.2,0.5,0.2,0.7,0.3c0.3,0,0.5,0,0.8-0.1c0.2-0.1,0.4-0.3,0.6-0.5c0.1-0.2,0.2-0.5,0.2-0.7v0.1
		c0,0.4-0.1,0.8-0.3,1.1C35.3,31.7,35,32,34.7,32.1z"/>
	<path class="st2" d="M27.6,35.5c-0.4,0.2-0.8,0.2-1.3,0.2c-0.4-0.1-0.8-0.3-1.1-0.6c0.2,0.2,0.4,0.3,0.6,0.3c0.2,0,0.5,0,0.7-0.1
		c0.2-0.1,0.4-0.3,0.6-0.5c0.1-0.2,0.2-0.4,0.2-0.7V3.8c0-0.2-0.1-0.5-0.2-0.7c-0.1-0.2-0.3-0.4-0.6-0.5c-0.2-0.1-0.5-0.1-0.7-0.1
		c-0.2,0-0.5,0.2-0.6,0.3c0.3-0.3,0.7-0.5,1.1-0.6c0.4-0.1,0.9,0,1.3,0.2l7,3.3C35,6,35.3,6.3,35.5,6.6c0.2,0.3,0.3,0.7,0.3,1.1
		v22.6c0,0.4-0.1,0.8-0.3,1.1c-0.2,0.3-0.5,0.6-0.9,0.8L27.6,35.5z"/>
	<g class="st3">
		
			<linearGradient id="SVGID_1_" gradientUnits="userSpaceOnUse" x1="32.1053" y1="25.4892" x2="32.1053" y2="-9.6997" gradientTransform="matrix(0.95 0 0 -0.95 -11.5 26.5)">
			<stop  offset="0" style="stop-color:#FFFFFF"/>
			<stop  offset="1" style="stop-color:#FFFFFF;stop-opacity:0"/>
		</linearGradient>
		<path class="st4" d="M26,35.5c0.3,0.1,0.5,0.2,0.8,0.2c0.3,0,0.6-0.1,0.8-0.2l7-3.3c0.4-0.2,0.7-0.4,0.9-0.8
			c0.2-0.3,0.3-0.7,0.3-1.1V7.7c0-0.4-0.1-0.8-0.3-1.1c-0.2-0.3-0.5-0.6-0.9-0.8l-7-3.3c-0.3-0.2-0.7-0.2-1.1-0.2
			c-0.4,0-0.7,0.2-1,0.4c-0.1,0.1-0.2,0.1-0.2,0.2L12,15l-5.8-4.4c-0.3-0.2-0.6-0.3-0.9-0.3c-0.3,0-0.6,0.1-0.9,0.4l-1.9,1.7
			c-0.1,0.1-0.3,0.3-0.3,0.5c-0.1,0.2-0.1,0.4-0.1,0.6s0,0.4,0.1,0.6c0.1,0.2,0.2,0.3,0.3,0.5l5,4.6l-5,4.6
			c-0.1,0.1-0.3,0.3-0.3,0.5c-0.1,0.2-0.1,0.4-0.1,0.6s0,0.4,0.1,0.6c0.1,0.2,0.2,0.3,0.3,0.5l1.9,1.7c0.2,0.2,0.6,0.3,0.9,0.4
			c0.3,0,0.6-0.1,0.9-0.3l5.8-4.4l13.3,12.1C25.5,35.3,25.8,35.5,26,35.5z M27.4,11.4L17.3,19l10.1,7.6V11.4z"/>
	</g>
</g>
</svg>
