<?xml version="1.0" encoding="utf-8"?>
<!-- Generator: Adobe Illustrator 25.4.1, SVG Export Plug-In . SVG Version: 6.00 Build 0)  -->
<svg version="1.1" id="Layer_1" xmlns="http://www.w3.org/2000/svg" xmlns:xlink="http://www.w3.org/1999/xlink" x="0px" y="0px"
	 viewBox="0 0 44 44" style="enable-background:new 0 0 44 44;" xml:space="preserve">
<style type="text/css">
	.st0{fill:#330000;}
	.st1{fill:#FF9800;}
</style>
<circle class="st0" cx="22" cy="22" r="20.8"/>
<path class="st1" d="M21.5,25.1h-5l-1,3.1c0,0,0,0.1,0,0.1c0,0,0,0-0.1,0.1c0,0-0.1,0-0.1,0c0,0-0.1,0-0.1,0h-2.5
	c-0.1,0-0.2-0.1-0.1-0.2l4.3-12.3c0-0.1,0.1-0.3,0.1-0.4c0.1-0.3,0.1-0.6,0.1-0.9c0,0,0,0,0-0.1c0,0,0,0,0,0s0,0,0,0c0,0,0,0,0,0
	h3.4c0.1,0,0.2,0,0.2,0.1l4.9,13.7c0,0.1,0,0.2-0.1,0.2h-2.8c0,0-0.1,0-0.1,0c0,0-0.1-0.1-0.1-0.1L21.5,25.1z M17.3,22.4h3.4
	c-0.1-0.3-0.2-0.6-0.3-1L20,20.3l-0.4-1.2c-0.1-0.4-0.3-0.8-0.4-1.2l-0.3-1c-0.1,0.6-0.3,1.1-0.5,1.7c-0.2,0.6-0.4,1.3-0.6,2
	C17.7,21.2,17.5,21.9,17.3,22.4z"/>
<path class="st1" d="M28.4,16.8c-0.2,0-0.4,0-0.6-0.1c-0.2-0.1-0.4-0.2-0.5-0.4c-0.2-0.2-0.3-0.4-0.4-0.6c-0.1-0.2-0.1-0.4-0.1-0.7
	c0-0.2,0-0.4,0.1-0.6c0.1-0.2,0.2-0.4,0.4-0.5c0.3-0.3,0.7-0.5,1.2-0.5c0.2,0,0.4,0,0.7,0.1c0.2,0.1,0.4,0.2,0.6,0.4
	c0.3,0.3,0.4,0.7,0.4,1.2c0,0.2,0,0.4-0.1,0.7c-0.1,0.2-0.2,0.4-0.4,0.6c-0.2,0.2-0.3,0.3-0.6,0.4C28.8,16.8,28.6,16.8,28.4,16.8z
	 M26.9,28.3V18.1c0-0.1,0-0.2,0.2-0.2h2.6c0.1,0,0.2,0.1,0.2,0.2v10.2c0,0.1,0,0.2-0.2,0.2H27C26.9,28.6,26.9,28.5,26.9,28.3z"/>
</svg>
