<?xml version="1.0" encoding="utf-8"?>
<!-- Generator: Adobe Illustrator 25.4.1, SVG Export Plug-In . SVG Version: 6.00 Build 0)  -->
<svg version="1.1" id="Layer_1" xmlns="http://www.w3.org/2000/svg" xmlns:xlink="http://www.w3.org/1999/xlink" x="0px" y="0px"
	 viewBox="0 0 44.1 44" style="enable-background:new 0 0 44.1 44;" xml:space="preserve">
<style type="text/css">
	.st0{fill:#264DE2;}
	.st1{fill:#2965EF;}
	.st2{fill:#E9E9E9;}
	.st3{fill:#FFFFFF;}
</style>
<g>
	<path class="st0" d="M36.2,10.2l-2.5,28.8L22,42.2l-11.6-3.3L7.8,10.2H36.2z"/>
	<path class="st1" d="M31,36.6L33.2,12H21.6v27.2L31,36.6z"/>
	<path class="st2" d="M13.4,22.9l0.3,3.5h7.9v-3.5H13.4z"/>
	<path class="st2" d="M22.3,15.6L22.3,15.6h-8.9l0.3,3.5h8.6V15.6z"/>
	<path class="st2" d="M22.1,36.1v-3.6l0,0l-3.9-1l-0.4-2.9h-2h-1.7l0.5,5.6L22.1,36.1L22.1,36.1z"/>
	<path d="M14.3,1.8h4.3v1.8h-2.5v1.8h2.5v1.8h-4.3V1.8z"/>
	<path d="M19.8,1.8h4.3v1.6h-2.5v0.4h2.5v3.6h-4.3V5.7h2.5V5.5h-2.5V1.8z"/>
	<path d="M25.3,1.8h4.3v1.6h-2.3v0.4h2.5v3.6h-4.3V5.7h2.5V5.5h-2.5L25.3,1.8z"/>
	<path class="st3" d="M26,26.3l-0.4,4.6l-3.9,1v3.6l7.3-2v-0.7l0.8-9.4l0.1-0.9l0.7-7.2h-8.9V19h4.9l-0.3,3.6h-4.7v3.5H26V26.3z"/>
</g>
</svg>
