<svg enable-background="new 0 0 38 38" viewBox="0 0 38 38" xmlns="http://www.w3.org/2000/svg" xmlns:xlink="http://www.w3.org/1999/xlink"><linearGradient id="a" gradientTransform="matrix(.95 0 0 -.95 -11.5 26.5)" gradientUnits="userSpaceOnUse" x1="32.1053" x2="32.1053" y1="25.4892" y2="-9.6997"><stop offset="0" stop-color="#fff"/><stop offset="1" stop-color="#fff" stop-opacity="0"/></linearGradient><path d="m34.7 5.8-7-3.3c-.4-.2-.8-.3-1.3-.2s-.8.3-1.1.6l-22.8 20.7c-.1.1-.3.3-.3.5-.1.2-.1.4-.1.6s0 .4.1.6.2.3.3.5l1.9 1.7c.2.2.6.3.9.4.3 0 .7-.1.9-.3l27.4-20.8c.2-.2.5-.2.7-.3.3 0 .5 0 .8.1.2.1.4.3.6.5.1.2.2.5.2.7 0-.4-.1-.8-.3-1.2-.2-.3-.5-.6-.9-.8z" fill="#0065a7"/><path d="m34.7 32.1-7 3.3c-.4.2-.8.2-1.3.2-.4-.1-.8-.3-1.1-.6l-22.8-20.6c-.1-.1-.3-.3-.3-.5-.1-.2-.1-.4-.1-.6s0-.4.1-.6.2-.3.3-.5l1.9-1.7c.2-.2.6-.4.9-.4s.7.1.9.3l27.4 20.7c.2.2.5.2.7.3.3 0 .5 0 .8-.1.2-.1.4-.3.6-.5.1-.2.2-.5.2-.7v.1c0 .4-.1.8-.3 1.1-.3.4-.6.7-.9.8z" fill="#007aca"/><path d="m27.6 35.5c-.4.2-.8.2-1.3.2-.4-.1-.8-.3-1.1-.6.2.2.4.3.6.3s.5 0 .7-.1.4-.3.6-.5c.1-.2.2-.4.2-.7v-30.3c0-.2-.1-.5-.2-.7s-.3-.4-.6-.5c-.2-.1-.5-.1-.7-.1s-.5.2-.6.3c.3-.3.7-.5 1.1-.6s.9 0 1.3.2l7 3.3c.4.3.7.6.9.9s.3.7.3 1.1v22.6c0 .4-.1.8-.3 1.1s-.5.6-.9.8z" fill="#1f9aee"/><path clip-rule="evenodd" d="m26 35.5c.3.1.5.2.8.2s.6-.1.8-.2l7-3.3c.4-.2.7-.4.9-.8.2-.3.3-.7.3-1.1v-22.6c0-.4-.1-.8-.3-1.1s-.5-.6-.9-.8l-7-3.3c-.3-.2-.7-.2-1.1-.2s-.7.2-1 .4c-.1.1-.2.1-.2.2l-13.3 12.1-5.8-4.4c-.3-.2-.6-.3-.9-.3s-.6.1-.9.4l-1.9 1.7c-.1.1-.3.3-.3.5-.1.2-.1.4-.1.6s0 .4.1.6.2.3.3.5l5 4.6-5 4.6c-.1.1-.3.3-.3.5-.1.2-.1.4-.1.6s0 .4.1.6.2.3.3.5l1.9 1.7c.2.2.6.3.9.4.3 0 .6-.1.9-.3l5.8-4.4 13.3 12.1c.2-.2.5 0 .7 0zm1.4-24.1-10.1 7.6 10.1 7.6z" fill="url(#a)" fill-rule="evenodd" opacity=".0625"/></svg>