<?xml version="1.0" encoding="utf-8"?>
<!-- Generator: Adobe Illustrator 25.4.1, SVG Export Plug-In . SVG Version: 6.00 Build 0)  -->
<svg version="1.1" id="Layer_1" xmlns="http://www.w3.org/2000/svg" xmlns:xlink="http://www.w3.org/1999/xlink" x="0px" y="0px"
	 viewBox="0 0 49 48.8" style="enable-background:new 0 0 49 48.8;" xml:space="preserve">
<style type="text/css">
	.st0{fill:#CC6192;}
</style>
<path class="st0" d="M38.8,26.7c-1.2,0-2.5,0.3-3.6,0.8c-0.3-0.6-0.6-1.2-0.8-1.8c-0.1-0.5-0.1-1-0.1-1.6c0.1-0.6,0.3-1.1,0.5-1.7
	c0,0-0.1-0.4-0.9-0.4c-0.8,0-1.5,0.2-1.6,0.4c-0.1,0.4-0.2,0.8-0.3,1.2c-0.7,1.6-1.5,3.2-2.4,4.6c-0.2-0.4-0.4-0.9-0.5-1.4
	c-0.1-0.5-0.1-1-0.1-1.6c0.1-0.6,0.3-1.1,0.5-1.7c0-0.1-0.1-0.4-0.9-0.4c-0.8,0-1.5,0.2-1.6,0.4c-0.1,0.2-0.2,0.7-0.3,1.2
	c-0.2,0.5-2.1,4.8-2.6,5.9c-0.3,0.6-0.5,1-0.6,1.3c-0.1,0.1-0.1,0.3-0.2,0.4c-0.1,0.2-0.2,0.4-0.3,0.4c-0.1-0.4-0.1-0.9,0-1.3
	c0.3-1.5,1-3.8,1-3.8s0.1-0.4-0.5-0.7c-0.1-0.1-0.3-0.1-0.4-0.1c-0.1,0-0.3,0.1-0.4,0.2l-0.1,0.1c0,0,0.6-2.6-1.2-2.6
	c-0.7,0.1-1.4,0.4-2,0.8c-0.6,0.4-1.1,0.9-1.5,1.5l-2.7,1.5l-1.3,0.7l-0.1-0.1c-2.2-2.3-6.3-4-6.1-7.2c0.1-1.1,0.5-4.2,7.9-7.8
	c6.1-3,10.9-2.2,11.7-0.3c1.2,2.6-2.6,7.5-8.9,8.2c-0.7,0.1-1.4,0.1-2.1,0c-0.7-0.2-1.3-0.5-1.9-1c-0.3-0.4-0.4-0.4-0.5-0.3
	c-0.1,0.1-0.1,0.4,0,0.6c0.2,0.4,0.6,0.8,1,1.1c0.4,0.3,0.8,0.5,1.3,0.7c2.5,0.5,5,0.3,7.4-0.7c3.9-1.5,6.8-5.5,5.9-9
	c-0.9-3.4-6.7-4.6-12.1-2.7c-3.4,1.1-6.6,2.9-9.3,5.3c-3,2.8-3.5,5.2-3.3,6.3c0.7,3.6,5.7,6,7.7,7.7L12.2,30c-1,0.5-4.8,2.5-5.8,4.6
	c-1.1,2.4,0.2,4.1,1,4.3c1.3,0.3,2.6,0.2,3.8-0.3c1.2-0.5,2.2-1.3,2.9-2.4c0.6-0.9,0.9-1.9,1-3c0.1-1.1-0.1-2.1-0.5-3.1l0.8-0.5
	c0.5-0.3,1-0.6,1.4-0.8c-0.3,0.8-0.5,1.7-0.5,2.6c-0.1,1.4,0.3,2.8,1.2,3.8c0.1,0.1,0.3,0.2,0.4,0.3c0.2,0.1,0.3,0.1,0.5,0.1
	c0.8,0,1.3-0.7,1.7-1.5c0.4-0.8,1-2.2,1-2.2s-0.6,3.2,1,3.2c0.6,0,1.2-0.7,1.4-1.1v-0.1c0,0,0.1-0.1,0.1-0.2
	c0.2-0.4,0.7-1.3,1.5-2.8c1-2,2-4.4,2-4.4c0.1,0.5,0.2,1.1,0.4,1.6c0.2,0.6,0.5,1.3,0.8,1.8L28,30.4c-0.2,0.2-0.4,0.5-0.6,0.8
	c-0.7,0.7-1.3,1.5-1.9,2.3c-0.1,0.1-0.1,0.3-0.1,0.5c0,0.2,0.1,0.3,0.2,0.4c0.3,0.2,0.6,0.2,1,0.2c0.5,0,1-0.1,1.5-0.3
	c0.5-0.1,0.9-0.4,1.3-0.7c0.4-0.3,0.7-0.6,0.9-1.1c0.2-0.4,0.3-0.9,0.2-1.4c0-0.6-0.2-1.2-0.5-1.7l0.2-0.3c0.8-1.2,1.5-2.4,2.2-3.7
	c0.1,0.5,0.2,1.1,0.4,1.6c0.2,0.5,0.4,1.1,0.7,1.6c-0.9,0.7-1.6,1.7-2.1,2.7c-0.5,1.3-0.1,1.9,0.6,2c0.4,0,0.7,0,1-0.2
	c0.5-0.2,0.9-0.4,1.3-0.7c0.4-0.3,0.8-0.6,1-1c0.3-0.4,0.4-0.9,0.4-1.4c0-0.5-0.1-1-0.3-1.4c1.2-0.5,2.6-0.6,3.9-0.4
	c3.4,0.4,4.1,2.6,4,3.4c-0.1,0.3-0.2,0.6-0.4,0.9c-0.2,0.3-0.4,0.5-0.7,0.6c-0.2,0.2-0.3,0.2-0.3,0.3c0,0.1,0.1,0.2,0.3,0.1
	c0.5-0.2,1-0.5,1.3-0.9c0.3-0.4,0.5-0.9,0.6-1.5C44.4,29,42.4,26.7,38.8,26.7z M12.3,35.6c-1.1,1.3-2.7,1.7-3.4,1.3
	c-0.7-0.4-0.4-2.2,1-3.6c0.8-0.7,1.7-1.4,2.7-2l0.7-0.4h0.1l0.2-0.1c0.2,0.8,0.3,1.7,0.1,2.6C13.3,34.2,12.9,35,12.3,35.6z M20.6,30
	c-0.4,1-1.3,3.4-1.7,3.3c-0.4-0.1-0.7-2-0.1-3.8c0.3-0.9,0.7-1.7,1.3-2.5c0.6-0.7,1.3-0.9,1.5-0.6C21.7,26.6,20.8,29.4,20.6,30z
	 M27.4,33.2c-0.2,0.1-0.3,0.1-0.4,0.1c-0.1-0.1,0.1-0.1,0.1-0.1s0.9-0.9,1.2-1.3L29,31v0C29,32.2,27.9,32.9,27.4,33.2z M32.7,32
	c-0.1-0.1-0.1-0.4,0.3-1.3c0.3-0.6,0.7-1.1,1.2-1.5c0.1,0.2,0.1,0.4,0.1,0.7c0,0.5-0.1,1-0.4,1.3C33.6,31.6,33.2,31.9,32.7,32z"/>
</svg>
