<svg enable-background="new 0 0 1197 219" viewBox="0 0 1197 219" xmlns="http://www.w3.org/2000/svg"><g fill="#fef9f3"><path d="m102.9 3.9v91.1h-31.8v-59.2l-28.3 53.9-26.1-41.4v46.7h-10.2v-91.1h19l25.6 49 25.7-49zm74.6 45.6v45.5h-32.4v-45.5l-24.5-45.6h37.4l16.1 30.6 16.8-30.6h11.6zm87.2 45.5v-91.1h41.6c13.6 0 23.6 3.1 30 9.4 6.5 6.2 9.7 14.6 9.7 25.2 0 11.6-3.2 20.2-9.7 25.7-6.4 5.4-16.4 8.1-29.9 8.1h-10.1v22.7zm31.6-81.6v49.7h5.1c4.9 0 8.2-1.9 10-5.6 1.9-3.7 2.8-10.1 2.8-19.1 0-9.2-.9-15.6-2.8-19.4-1.8-3.8-5.1-5.7-10-5.7h-5.1zm127.6-11.5c6.3 0 12.2 1.2 17.6 3.5 5.5 2.4 10.2 5.7 14.2 10 4 4.2 7.2 9.2 9.5 15.1 2.4 5.7 3.5 12 3.5 18.8s-1.2 13.2-3.5 19-5.4 10.9-9.5 15.2c-4 4.2-8.7 7.5-14.2 9.9-5.4 2.4-11.3 3.5-17.6 3.5s-12.2-1.2-17.7-3.5c-5.4-2.4-10.1-5.7-14.2-9.9-4-4.3-7.2-9.4-9.5-15.2s-3.4-12.1-3.4-19 1.1-13.1 3.4-18.8c2.3-5.8 5.4-10.8 9.5-15.1 4-4.3 8.8-7.6 14.2-10 5.5-2.3 11.4-3.5 17.7-3.5zm11.8 47.4c0-9-.3-16.1-.8-21.1-.4-5.1-1.1-9-2.2-11.5-.9-2.5-2.2-4.1-3.7-4.7-1.4-.6-3.2-.9-5.2-.9s-3.8.3-5.3.9-2.7 2.2-3.7 4.7c-.9 2.5-1.6 6.4-2.1 11.5-.4 5.1-.6 12.1-.6 21.1 0 9.1.3 16.2.8 21.4.5 5.1 1.3 8.9 2.3 11.4s2.2 4.1 3.7 4.7 3.2.9 5.1.9 3.5-.3 4.9-.9c1.5-.6 2.8-2.2 3.8-4.7s1.8-6.3 2.3-11.4.7-12.3.7-21.4zm70.7 45.7v-91.1h42c7.4 0 13.8.8 19.1 2.5 5.4 1.6 9.8 3.9 13.2 7 3.5 3 6 6.7 7.6 11 1.6 4.2 2.4 8.9 2.4 14.2 0 7.9-1.5 14.4-4.6 19.4-3 5-7.7 8.6-14.3 11l21.1 26h-37.2l-14.4-23.2h-3.3v23.2zm31.6-81.6v49.7h5.4c4.9 0 8.2-2 10-6.1 1.9-4 2.8-10.4 2.8-19 0-4.6-.2-8.5-.6-11.6s-1.1-5.7-2.2-7.6c-.9-1.9-2.2-3.3-3.9-4.2-1.6-.8-3.6-1.3-6.1-1.3h-5.4zm140-.4v82h-32.1v-82h-20.4v-9.1h72.9v9.1z" opacity=".9"/><path d="m412 151.2v47.8h-32.1v-91.1h54.9v9.1h-22.8v25h22.8v9.1h-22.8zm84.7-45.3c6.3 0 12.2 1.2 17.6 3.5 5.5 2.4 10.2 5.7 14.2 10 4 4.2 7.2 9.2 9.5 15.1 2.4 5.7 3.5 12 3.5 18.8s-1.2 13.2-3.5 19-5.4 10.9-9.5 15.2c-4 4.2-8.7 7.5-14.2 9.9-5.4 2.4-11.3 3.5-17.6 3.5s-12.2-1.2-17.7-3.5c-5.4-2.4-10.1-5.6-14.2-9.9-4-4.3-7.2-9.4-9.5-15.2s-3.4-12.1-3.4-19c0-6.8 1.1-13.1 3.4-18.8 2.3-5.8 5.4-10.8 9.5-15.1 4-4.3 8.8-7.6 14.2-10 5.5-2.3 11.4-3.5 17.7-3.5zm11.8 47.4c0-9-.3-16.1-.8-21.1-.4-5.1-1.1-9-2.2-11.5-.9-2.5-2.1-4.1-3.7-4.7-1.4-.6-3.2-.9-5.2-.9s-3.8.3-5.3.9-2.7 2.2-3.7 4.7c-.9 2.5-1.6 6.4-2.2 11.5-.4 5.1-.6 12.1-.6 21.1 0 9.1.3 16.2.8 21.4.5 5.1 1.3 8.9 2.3 11.4s2.2 4.1 3.7 4.7 3.2.9 5.1.9 3.5-.3 4.9-.9c1.5-.6 2.8-2.2 3.8-4.7s1.8-6.3 2.3-11.4.8-12.3.8-21.4zm55.5 45.7v-91.1h32.1v81.6h28.3v9.5zm114.5-91.1v91.1h-32.3v-91.1zm63.1-2c6.3 0 12.2 1.2 17.6 3.5 5.5 2.4 10.2 5.7 14.2 10 4 4.2 7.2 9.2 9.5 15.1 2.4 5.7 3.5 12 3.5 18.8s-1.2 13.2-3.5 19-5.4 10.9-9.5 15.2c-4 4.2-8.7 7.5-14.2 9.9-5.4 2.4-11.3 3.5-17.6 3.5s-12.2-1.2-17.7-3.5c-5.4-2.4-10.1-5.6-14.2-9.9-4-4.3-7.2-9.4-9.5-15.2s-3.4-12.1-3.4-19c0-6.8 1.1-13.1 3.4-18.8 2.3-5.8 5.4-10.8 9.5-15.1 4-4.3 8.8-7.6 14.2-10 5.5-2.3 11.4-3.5 17.7-3.5zm11.8 47.4c0-9-.3-16.1-.8-21.1-.4-5.1-1.1-9-2.2-11.5-.9-2.5-2.2-4.1-3.7-4.7-1.4-.6-3.2-.9-5.2-.9s-3.8.3-5.3.9-2.7 2.2-3.7 4.7c-.9 2.5-1.6 6.4-2.2 11.5-.4 5.1-.6 12.1-.6 21.1 0 9.1.3 16.2.8 21.4.5 5.1 1.3 8.9 2.3 11.4s2.2 4.1 3.7 4.7 3.2.9 5.1.9 3.5-.3 4.9-.9c1.5-.6 2.8-2.2 3.8-4.7s1.8-6.3 2.3-11.4.8-12.3.8-21.4zm152.6-39.4-2.8 7.3c-2.7-1.4-5.4-2.5-8.2-3.2s-5.1-1-7.1-1c-1.6 0-2.7.5-3.4 1.5-.6.9-.9 2-.9 3.2 0 1.4.4 2.9 1.1 4.4l18.2 35.8c1.9 3.7 3.2 7.3 3.9 10.8.8 3.5 1.1 6.5 1.1 9 0 2.3-.5 4.6-1.5 6.8-.9 2.2-2.4 4.2-4.6 5.9-2.1 1.8-4.9 3.2-8.3 4.4-3.4 1.1-7.5 1.6-12.5 1.6-4 0-7.5-.2-10.5-.5s-5.8-.9-8.3-1.6c-2.5-.8-4.9-1.7-7.1-2.9s-4.4-2.6-6.6-4.2l4.2-8.1c3 2.1 6 3.7 9.1 4.8 3.2 1 5.9 1.5 8 1.5 1.7 0 3-.5 4-1.5 1-1.1 1.5-2.5 1.5-4.2 0-1.3-.4-2.7-1.1-4.4l-17-33.4c-3-6.1-4.6-11.8-4.6-17.2 0-6.7 2.3-12.1 6.8-16.2 4.6-4.1 11.3-6.2 20.1-6.2 5.6 0 10.7.7 15.3 2.2 4.9 1.5 8.5 3.3 11.2 5.4zm57.6-6v91.1h-32.3v-91.1zm75 9.1v82h-32.1v-82h-20.4v-9.1h72.9v9.1zm98.6 72.5v9.5h-56.4v-91.1h56.4v9.1h-24.3v25h24.3v9.1h-24.3v38.3h24.3z" opacity=".9"/></g></svg>