<?xml version="1.0" encoding="utf-8"?>
<!-- Generator: Adobe Illustrator 25.4.1, SVG Export Plug-In . SVG Version: 6.00 Build 0)  -->
<svg version="1.1" id="Layer_1" xmlns="http://www.w3.org/2000/svg" xmlns:xlink="http://www.w3.org/1999/xlink" x="0px" y="0px"
	 viewBox="0 0 1197 219" style="enable-background:new 0 0 1197 219;" xml:space="preserve">
<style type="text/css">
	.st0{opacity:0.9;fill:#FEF9F3;enable-background:new    ;}
</style>
<g>
	<path class="st0" d="M102.9,3.9V95H71.1V35.8L42.8,89.7L16.7,48.3V95H6.5V3.9h19l25.6,49l25.7-49H102.9z M177.5,49.5V95h-32.4V49.5
		L120.6,3.9H158l16.1,30.6l16.8-30.6h11.6L177.5,49.5z M264.7,95V3.9h41.6c13.6,0,23.6,3.1,30,9.4c6.5,6.2,9.7,14.6,9.7,25.2
		c0,11.6-3.2,20.2-9.7,25.7c-6.4,5.4-16.4,8.1-29.9,8.1h-10.1V95H264.7z M296.3,13.4v49.7h5.1c4.9,0,8.2-1.9,10-5.6
		c1.9-3.7,2.8-10.1,2.8-19.1c0-9.2-0.9-15.6-2.8-19.4c-1.8-3.8-5.1-5.7-10-5.7H296.3z M423.9,1.9c6.3,0,12.2,1.2,17.6,3.5
		c5.5,2.4,10.2,5.7,14.2,10c4,4.2,7.2,9.2,9.5,15.1c2.4,5.7,3.5,12,3.5,18.8s-1.2,13.2-3.5,19c-2.3,5.8-5.4,10.9-9.5,15.2
		c-4,4.2-8.7,7.5-14.2,9.9c-5.4,2.4-11.3,3.5-17.6,3.5c-6.3,0-12.2-1.2-17.7-3.5c-5.4-2.4-10.1-5.7-14.2-9.9
		c-4-4.3-7.2-9.4-9.5-15.2c-2.3-5.8-3.4-12.1-3.4-19s1.1-13.1,3.4-18.8c2.3-5.8,5.4-10.8,9.5-15.1c4-4.3,8.8-7.6,14.2-10
		C411.7,3.1,417.6,1.9,423.9,1.9z M435.7,49.3c0-9-0.3-16.1-0.8-21.1c-0.4-5.1-1.1-9-2.2-11.5c-0.9-2.5-2.2-4.1-3.7-4.7
		c-1.4-0.6-3.2-0.9-5.2-0.9c-2,0-3.8,0.3-5.3,0.9c-1.5,0.6-2.7,2.2-3.7,4.7c-0.9,2.5-1.6,6.4-2.1,11.5c-0.4,5.1-0.6,12.1-0.6,21.1
		c0,9.1,0.3,16.2,0.8,21.4c0.5,5.1,1.3,8.9,2.3,11.4c1,2.5,2.2,4.1,3.7,4.7c1.5,0.6,3.2,0.9,5.1,0.9c1.9,0,3.5-0.3,4.9-0.9
		c1.5-0.6,2.8-2.2,3.8-4.7c1-2.5,1.8-6.3,2.3-11.4C435.5,65.6,435.7,58.4,435.7,49.3z M506.4,95V3.9h42c7.4,0,13.8,0.8,19.1,2.5
		c5.4,1.6,9.8,3.9,13.2,7c3.5,3,6,6.7,7.6,11c1.6,4.2,2.4,8.9,2.4,14.2c0,7.9-1.5,14.4-4.6,19.4c-3,5-7.7,8.6-14.3,11L592.9,95
		h-37.2l-14.4-23.2H538V95H506.4z M538,13.4v49.7h5.4c4.9,0,8.2-2,10-6.1c1.9-4,2.8-10.4,2.8-19c0-4.6-0.2-8.5-0.6-11.6
		s-1.1-5.7-2.2-7.6c-0.9-1.9-2.2-3.3-3.9-4.2c-1.6-0.8-3.6-1.3-6.1-1.3H538z M678,13v82h-32.1V13h-20.4V3.9h72.9V13H678z"/>
	<path class="st0" d="M412,151.2V199h-32.1v-91.1h54.9v9.1H412v25h22.8v9.1H412z M496.7,105.9c6.3,0,12.2,1.2,17.6,3.5
		c5.5,2.4,10.2,5.7,14.2,10c4,4.2,7.2,9.2,9.5,15.1c2.4,5.7,3.5,12,3.5,18.8c0,6.8-1.2,13.2-3.5,19c-2.3,5.8-5.4,10.9-9.5,15.2
		c-4,4.2-8.7,7.5-14.2,9.9c-5.4,2.4-11.3,3.5-17.6,3.5c-6.3,0-12.2-1.2-17.7-3.5c-5.4-2.4-10.1-5.6-14.2-9.9
		c-4-4.3-7.2-9.4-9.5-15.2c-2.3-5.8-3.4-12.1-3.4-19c0-6.8,1.1-13.1,3.4-18.8c2.3-5.8,5.4-10.8,9.5-15.1c4-4.3,8.8-7.6,14.2-10
		C484.5,107.1,490.4,105.9,496.7,105.9z M508.5,153.3c0-9-0.3-16.1-0.8-21.1c-0.4-5.1-1.1-9-2.2-11.5c-0.9-2.5-2.1-4.1-3.7-4.7
		c-1.4-0.6-3.2-0.9-5.2-0.9c-2,0-3.8,0.3-5.3,0.9c-1.5,0.6-2.7,2.2-3.7,4.7c-0.9,2.5-1.6,6.4-2.2,11.5c-0.4,5.1-0.6,12.1-0.6,21.1
		c0,9.1,0.3,16.2,0.8,21.4c0.5,5.1,1.3,8.9,2.3,11.4c1,2.5,2.2,4.1,3.7,4.7c1.5,0.6,3.2,0.9,5.1,0.9c1.9,0,3.5-0.3,4.9-0.9
		c1.5-0.6,2.8-2.2,3.8-4.7c1-2.5,1.8-6.3,2.3-11.4C508.2,169.6,508.5,162.4,508.5,153.3z M564,199v-91.1h32.1v81.6h28.3v9.5H564z
		 M678.5,107.9V199h-32.3v-91.1H678.5z M741.6,105.9c6.3,0,12.2,1.2,17.6,3.5c5.5,2.4,10.2,5.7,14.2,10c4,4.2,7.2,9.2,9.5,15.1
		c2.4,5.7,3.5,12,3.5,18.8c0,6.8-1.2,13.2-3.5,19c-2.3,5.8-5.4,10.9-9.5,15.2c-4,4.2-8.7,7.5-14.2,9.9c-5.4,2.4-11.3,3.5-17.6,3.5
		c-6.3,0-12.2-1.2-17.7-3.5c-5.4-2.4-10.1-5.6-14.2-9.9c-4-4.3-7.2-9.4-9.5-15.2c-2.3-5.8-3.4-12.1-3.4-19c0-6.8,1.1-13.1,3.4-18.8
		c2.3-5.8,5.4-10.8,9.5-15.1c4-4.3,8.8-7.6,14.2-10C729.4,107.1,735.3,105.9,741.6,105.9z M753.4,153.3c0-9-0.3-16.1-0.8-21.1
		c-0.4-5.1-1.1-9-2.2-11.5c-0.9-2.5-2.2-4.1-3.7-4.7c-1.4-0.6-3.2-0.9-5.2-0.9c-2,0-3.8,0.3-5.3,0.9c-1.5,0.6-2.7,2.2-3.7,4.7
		c-0.9,2.5-1.6,6.4-2.2,11.5c-0.4,5.1-0.6,12.1-0.6,21.1c0,9.1,0.3,16.2,0.8,21.4c0.5,5.1,1.3,8.9,2.3,11.4c1,2.5,2.2,4.1,3.7,4.7
		c1.5,0.6,3.2,0.9,5.1,0.9c1.9,0,3.5-0.3,4.9-0.9c1.5-0.6,2.8-2.2,3.8-4.7c1-2.5,1.8-6.3,2.3-11.4
		C753.1,169.6,753.4,162.4,753.4,153.3z M906,113.9l-2.8,7.3c-2.7-1.4-5.4-2.5-8.2-3.2c-2.8-0.7-5.1-1-7.1-1c-1.6,0-2.7,0.5-3.4,1.5
		c-0.6,0.9-0.9,2-0.9,3.2c0,1.4,0.4,2.9,1.1,4.4l18.2,35.8c1.9,3.7,3.2,7.3,3.9,10.8c0.8,3.5,1.1,6.5,1.1,9c0,2.3-0.5,4.6-1.5,6.8
		c-0.9,2.2-2.4,4.2-4.6,5.9c-2.1,1.8-4.9,3.2-8.3,4.4c-3.4,1.1-7.5,1.6-12.5,1.6c-4,0-7.5-0.2-10.5-0.5c-3-0.3-5.8-0.9-8.3-1.6
		c-2.5-0.8-4.9-1.7-7.1-2.9c-2.2-1.2-4.4-2.6-6.6-4.2l4.2-8.1c3,2.1,6,3.7,9.1,4.8c3.2,1,5.9,1.5,8,1.5c1.7,0,3-0.5,4-1.5
		c1-1.1,1.5-2.5,1.5-4.2c0-1.3-0.4-2.7-1.1-4.4l-17-33.4c-3-6.1-4.6-11.8-4.6-17.2c0-6.7,2.3-12.1,6.8-16.2
		c4.6-4.1,11.3-6.2,20.1-6.2c5.6,0,10.7,0.7,15.3,2.2C899.7,110,903.3,111.8,906,113.9z M963.6,107.9V199h-32.3v-91.1H963.6z
		 M1038.6,117v82h-32.1v-82h-20.4v-9.1h72.9v9.1H1038.6z M1137.2,189.5v9.5h-56.4v-91.1h56.4v9.1h-24.3v25h24.3v9.1h-24.3v38.3
		H1137.2z"/>
</g>
</svg>
