<svg enable-background="new 0 0 618 415" viewBox="0 0 618 415" xmlns="http://www.w3.org/2000/svg" xmlns:xlink="http://www.w3.org/1999/xlink"><clipPath id="a"><path d="m20 0h578c11 0 20 9 20 20v375c0 11-9 20-20 20h-578c-11 0-20-9-20-20v-375c0-11 9-20 20-20z"/></clipPath><clipPath id="b"><path d="m0 1h618v412h-618z"/></clipPath><g clip-path="url(#a)"><path d="m20 0h578c11 0 20 9 20 20v375c0 11-9 20-20 20h-578c-11 0-20-9-20-20v-375c0-11 9-20 20-20z" fill="#fff" fill-opacity=".02"/><path d="m622 35h-626v201.8l626-147.2z" fill="#f3f3f3" fill-opacity=".3"/><g fill="#fff"><path d="m-4 552h626v-214.3l-626 161z" fill-opacity=".2"/><path d="m56.5 59h4.6v2h-7.3v-11h2.7zm14.6-3.3c0 1.1-.2 2-.6 2.9-.4.8-1 1.5-1.7 1.9s-1.6.7-2.5.7-1.8-.2-2.5-.6-1.3-1.1-1.7-1.9-.6-1.7-.6-2.8v-.6c0-1.1.2-2 .6-2.9.4-.8 1-1.5 1.7-1.9s1.6-.7 2.5-.7 1.8.2 2.5.7c.7.4 1.3 1.1 1.7 1.9s.6 1.8.6 2.8zm-2.7-.4c0-1.1-.2-1.9-.6-2.5s-.9-.9-1.6-.9c-1.3 0-2 1-2.1 3v.8c0 1.1.2 1.9.5 2.5s.9.9 1.6.9 1.2-.3 1.6-.9.5-1.4.6-2.5zm13.1 4.3c-.4.5-1 .8-1.8 1.1s-1.7.4-2.6.4c-1.4 0-2.6-.4-3.5-1.3s-1.3-2.1-1.4-3.7v-1c0-1.1.2-2 .6-2.8s.9-1.4 1.6-1.9c.7-.4 1.5-.7 2.5-.7 1.4 0 2.4.3 3.2.9s1.2 1.6 1.3 2.8h-2.6c-.1-.6-.3-1.1-.6-1.3-.2-.1-.6-.2-1.2-.2-.7 0-1.2.3-1.5.8-.4.6-.5 1.4-.6 2.4v.7c0 1.1.2 1.9.6 2.5s1 .8 1.8.8c.7 0 1.2-.2 1.5-.5v-1.7h-1.8v-1.8h4.5zm10.9-3.9c0 1.1-.2 2-.6 2.9-.4.8-1 1.5-1.7 1.9s-1.6.7-2.5.7-1.8-.2-2.5-.6-1.3-1.1-1.7-1.9-.6-1.7-.6-2.8v-.6c0-1.1.2-2 .6-2.9.4-.8 1-1.5 1.7-1.9s1.6-.7 2.5-.7 1.8.2 2.5.7c.7.4 1.3 1.1 1.7 1.9s.6 1.8.6 2.8zm-2.7-.4c0-1.1-.2-1.9-.6-2.5s-.9-.9-1.6-.9c-1.3 0-2 1-2.1 3v.8c0 1.1.2 1.9.5 2.5.4.6.9.9 1.6.9s1.2-.3 1.6-.9.5-1.4.6-2.5z"/><path d="m385 54h33.9v7.3h-33.9z" fill-opacity=".5"/><path d="m432 54h33.9v7.3h-33.9z" fill-opacity=".5"/><path d="m478 54h33.9v7.3h-33.9z" fill-opacity=".5"/><path d="m525 54h33.9v7.3h-33.9z" fill-opacity=".5"/><path d="m345.7 163.7h212.1v173.9h-212.1z" fill-opacity=".5" stroke="#fff" stroke-width="1.3042"/><circle cx="124.2" cy="291.2" fill-opacity=".5" r="9.2"/><circle cx="147.2" cy="291.2" fill-opacity=".5" r="9.2"/><circle cx="171.2" cy="291.2" fill-opacity=".5" r="9.2"/><circle cx="194.2" cy="291.2" fill-opacity=".5" r="9.2"/><circle cx="124.2" cy="315.2" fill-opacity=".5" r="9.2"/><circle cx="147.2" cy="315.2" fill-opacity=".5" r="9.2"/><path d="m173.2 307h20.2c5.1 0 9.2 4.1 9.2 9.2 0 5.1-4.1 9.2-9.2 9.2h-20.2c-5.1 0-9.2-4.1-9.2-9.2 0-5.1 4.1-9.2 9.2-9.2z" fill-opacity=".8"/></g><path d="m173.2 307.7h20.2c4.7 0 8.6 3.8 8.6 8.6 0 4.7-3.8 8.6-8.6 8.6h-20.2c-4.7 0-8.6-3.8-8.6-8.6.1-4.8 3.9-8.6 8.6-8.6z" fill="none" stroke="#fff" stroke-opacity=".7" stroke-width="1.3042"/><path d="m115 267h39.1v8.3h-39.1z" fill="#fff" fill-opacity=".5"/><path d="m115 209h112.2v12.2h-112.2z" fill="#fff" fill-opacity=".5"/><path d="m115 228h112.2v12.2h-112.2z" fill="#fff" fill-opacity=".5"/><path d="m115 176h147.8v24.3h-147.8z" fill="#fff" fill-opacity=".5"/><g clip-path="url(#b)"><path d="m58.2 12.5h-7.5c-.6 0-1.2.2-1.6.7-.4.4-.7 1-.7 1.6v7.5c0 .6.2 1.2.7 1.6.4.4 1 .7 1.6.7h7.5c.6 0 1.2-.2 1.6-.7.4-.4.7-1 .7-1.6v-7.5c0-.3-.1-.6-.2-.9s-.3-.5-.5-.7-.5-.4-.7-.5c-.3-.1-.6-.2-.9-.2zm-8.8 2.3c0-.3.1-.6.4-.9.2-.2.5-.4.9-.4h7.5c.3 0 .6.1.9.4.2.2.4.5.4.9v7.5c0 .3-.1.6-.4.9-.2.2-.5.4-.9.4h-7.5c-.3 0-.6-.1-.9-.4-.2-.2-.4-.5-.4-.9zm17.6 5.3 1.6-1.6-1.6-1.5c-.1-.1-.1-.2-.1-.3s0-.2.1-.3.2-.1.3-.1.2 0 .3.1l1.9 1.9c.1.1.1.2.1.3s0 .2-.1.3l-1.9 1.9c-.1.1-.2.1-.3.1s-.2 0-.3-.1-.1-.2-.1-.3c0-.2 0-.3.1-.4zm5-7.6h-7.5c-.6 0-1.2.2-1.6.7-.4.4-.7 1-.7 1.6v7.5c0 .6.2 1.2.7 1.6.4.4 1 .7 1.6.7h7.5c.6 0 1.2-.2 1.6-.7.4-.4.7-1 .7-1.6v-7.5c0-.3-.1-.6-.2-.9s-.3-.5-.5-.7-.5-.4-.7-.5c-.3-.1-.6-.2-.9-.2zm-8.8 2.3c0-.3.1-.6.4-.9.2-.2.5-.4.9-.4h7.5c.2 0 .3 0 .5.1s.3.2.4.3.2.3.3.4c.1.2.1.3.1.5v7.5c0 .3-.1.6-.4.9-.2.2-.5.4-.9.4h-7.5c-.3 0-.6-.1-.9-.4-.2-.2-.4-.5-.4-.9zm-43.1.1c-.8 0-1.5.2-2.2.7s-1.1 1-1.4 1.7-.4 1.5-.2 2.2c.1.8.5 1.4 1.1 2 .5.5 1.2.9 2 1.1s1.5.1 2.2-.2 1.3-.8 1.7-1.4.7-1.4.7-2.2c0-1-.4-2-1.1-2.7-.8-.8-1.8-1.2-2.8-1.2zm0 6.7c-.6 0-1.1-.2-1.6-.5s-.8-.8-1-1.3-.3-1.1-.2-1.6c.1-.6.4-1.1.8-1.5s.9-.7 1.5-.8 1.1-.1 1.6.2c.5.2 1 .6 1.3 1 .3.5.5 1 .5 1.6 0 .8-.3 1.5-.8 2-.6.6-1.3.9-2.1.9zm9.4-6.7c-.8 0-1.5.2-2.2.7-.6.4-1.1 1-1.4 1.7s-.4 1.5-.2 2.2c.2.8.5 1.4 1.1 2 .5.5 1.2.9 2 1.1.8.1 1.5.1 2.2-.2s1.3-.8 1.7-1.4.7-1.4.7-2.2c0-.5-.1-1-.3-1.5s-.5-.9-.8-1.3c-.4-.4-.8-.6-1.3-.8s-1-.3-1.5-.3zm0 6.7c-.6 0-1.1-.2-1.6-.5s-.8-.8-1-1.3-.3-1.1-.2-1.6.4-1.1.8-1.5.9-.7 1.5-.8 1.1-.1 1.6.2c.5.2 1 .6 1.3 1 .3.5.5 1 .5 1.6 0 .4-.1.7-.2 1.1-.1.3-.4.7-.6.9-.3.3-.6.5-.9.6-.5.2-.8.3-1.2.3zm1.9-2.8c0 .1 0 .2-.1.2-.1.1-.1.1-.2.1h-2.7c-.1 0-.2 0-.2-.1-.1-.1-.1-.1-.1-.2s0-.2.1-.2c.1-.1.1-.1.2-.1h2.6c.1 0 .2 0 .2.1.1 0 .2.1.2.2zm21.8.1c-.1-.1-.1-.2-.1-.3s0-.2.1-.3l1.9-1.9c.1-.1.2-.1.3-.1s.2 0 .3.1.1.2.1.3 0 .2-.1.3l-1.6 1.6 1.6 1.6s.1.1.1.1v.2.2c0 .1-.1.1-.1.1s-.1.1-.1.1c-.1 0-.1 0-.2 0s-.1 0-.2 0-.1-.1-.1-.1zm-12.7-.1c0 .1 0 .2-.1.2-.1.1-.1.1-.2.1h-1v1c0 .1 0 .2-.1.2-.1.1-.1.1-.2.1s-.2 0-.2-.1c-.1-.1-.1-.1-.1-.2v-1h-1c-.1 0-.2 0-.2-.1-.1-.1-.1-.1-.1-.2s0-.2.1-.2c.1-.1.1-.1.2-.1h1v-1c0-.1 0-.2.1-.2.1-.1.1-.1.2-.1s.2 0 .2.1c.1.1.1.1.1.2v1h1c.1 0 .2 0 .2.1.1 0 .1.1.1.2zm-19.2 0c0 .2-.1.5-.2.7s-.3.3-.5.4-.5.1-.7.1-.4-.2-.6-.3c-.2-.2-.3-.4-.3-.6s0-.5.1-.7.2-.4.4-.5.4-.2.7-.2.6.1.8.4c.2 0 .3.3.3.7zm17.6-3.9c-.8 0-1.5.2-2.2.7-.6.4-1.1 1-1.4 1.7s-.4 1.5-.2 2.2c.2.8.5 1.4 1.1 2 .5.5 1.2.9 2 1.1s1.5.1 2.2-.2 1.3-.8 1.7-1.4.7-1.4.7-2.2c0-.5-.1-1-.3-1.5s-.5-.9-.8-1.3c-.4-.4-.8-.6-1.3-.8s-1-.3-1.5-.3zm0 6.7c-.6 0-1.1-.2-1.6-.5s-.8-.8-1-1.3-.3-1.1-.2-1.6c.1-.6.4-1.1.8-1.5s.9-.7 1.5-.8 1.1-.1 1.6.2c.5.2 1 .6 1.3 1 .3.5.5 1 .5 1.6 0 .4-.1.7-.2 1.1-.1.3-.4.7-.6.9-.3.3-.6.5-.9.6-.5.2-.8.3-1.2.3zm371.7-2.8c0-.7.3-1.4.8-2 .5-.5 1.2-.9 1.9-.9v-.4l1.2.7-1.2.7v-.3c-.4 0-.8.2-1.2.5s-.6.6-.7 1-.1.9 0 1.3.3.8.7 1.1c.3.3.7.5 1.1.5.4.1.9 0 1.3-.2s.7-.5 1-.8c.2-.4.4-.8.4-1.2h.7c0 .8-.3 1.5-.9 2s-1.3.8-2.1.8-1.5-.3-2.1-.8-.9-1.3-.9-2zm-324.4 1c0 .1 0 .2-.1.2-.1.1-.1.1-.2.1h-1.1c-.1 0-.2 0-.2-.1-.1-.1-.1-.1-.1-.2s0-.2.1-.2c.1-.1.1-.1.2-.1h1.1c.1 0 .2 0 .2.1.1 0 .1.1.1.2zm509.6-.5h-2v-.7h2v-2.3h.7v2.3h2v.7h-2v2.3h-.7zm-19.3-3.3h-.7v-1.1h5.5v5.5h-1.1v-.7h.4v-4.2h-4.2v.5zm-12.8-3.7h-12.4c-.7 0-1.4.3-1.9.8s-.8 1.2-.8 1.9v6.7c0 .7.3 1.4.8 1.9s1.2.8 1.9.8h12.4c.7 0 1.4-.3 1.9-.8s.8-1.2.8-1.9v-6.7c0-.7-.3-1.4-.8-1.9s-1.2-.8-1.9-.8zm-14.1 2.7c0-.4.2-.9.5-1.2s.7-.5 1.2-.5h6.2l-1.9 2 .4.4 1.2-1.3v4.6h.7v-4.5l1.2 1.3.4-.4-1.9-2h6.2c.4 0 .9.2 1.2.5s.5.7.5 1.2v6.7c0 .4-.2.9-.5 1.2s-.7.5-1.2.5h-12.4c-.4 0-.9-.2-1.2-.5s-.5-.7-.5-1.2zm30.3 1.4h-5.5v5.5h5.5zm-4.8 4.8v-4.2h4.2v4.2zm15.3 3.1h11.4v-11.3h-11.4zm10.5-10.5v9.7h-9.7v-9.7zm-.4-12.8h-583c-4.6 0-9.1 1.8-12.4 5.1s-5.1 7.7-5.1 12.4v377c0 4.6 1.8 9.1 5.1 12.4s7.7 5.1 12.4 5.1h583c4.6 0 9.1-1.8 12.4-5.1s5.1-7.7 5.1-12.4v-377c0-4.6-1.8-9.1-5.1-12.4s-7.8-5.1-12.4-5.1zm0 409.2h-583c-3.9 0-7.6-1.5-10.4-4.3-2.7-2.7-4.3-6.5-4.3-10.3v-359.8h612.3v359.7c0 3.9-1.5 7.6-4.3 10.3-2.7 2.8-6.4 4.4-10.3 4.4zm-583-406.4h583c3.9 0 7.6 1.5 10.4 4.3 2.7 2.7 4.3 6.5 4.3 10.3v14.6h-612.4v-14.5c0-3.9 1.5-7.6 4.3-10.3 2.8-2.8 6.5-4.4 10.4-4.4zm566.6 8.5h-12.4c-.7 0-1.4.3-1.9.8s-.8 1.2-.8 1.9v6.7c0 .7.3 1.4.8 1.9s1.2.8 1.9.8h12.4c.7 0 1.4-.3 1.9-.8s.8-1.2.8-1.9v-6.7c0-.7-.3-1.4-.8-1.9s-1.2-.8-1.9-.8zm-14.1 2.7c0-.4.2-.9.5-1.2s.7-.5 1.2-.5h12.4c.4 0 .9.2 1.2.5s.5.7.5 1.2v6.7c0 .4-.2.9-.5 1.2s-.7.5-1.2.5h-12.4c-.4 0-.9-.2-1.2-.5s-.5-.7-.5-1.2zm-483.8 1.7c0 .1 0 .2-.1.2-.1.1-.1.1-.2.1h-1.1c-.1 0-.2 0-.2-.1-.1-.1-.1-.1-.1-.2s0-.2.1-.2c.1-.1.1-.1.2-.1h1.1c.1 0 .2 0 .2.1.1.1.1.1.1.2zm0 1.1c0 .1 0 .2-.1.2-.1.1-.1.1-.2.1h-1.1c-.1 0-.2 0-.2-.1-.1-.1-.1-.1-.1-.2s0-.2.1-.2c.1-.1.1-.1.2-.1h1.1c.1 0 .2 0 .2.1.1 0 .1.1.1.2zm474.2 4.2h-6v-6h2.2v.7h-1.5v4.6h4.7v-4.6h-1.5v-.7h2.2zm-467.2-7h-9.7v7.1h9.7zm-9 6.5v-5.8h2.5v5.8zm3.1 0v-5.8h5.2v5.8zm-1.1-2.7c0 .1 0 .2-.1.2s-.1.1-.2.1h-1.1c-.1 0-.2 0-.2-.1-.1-.1-.1-.1-.1-.2s0-.2.1-.2c.1-.1.1-.1.2-.1h1.1c.1 0 .2 0 .2.1.1 0 .1.1.1.2zm8.4-6.4h-12.5c-.7 0-1.4.3-1.9.8s-.8 1.2-.8 1.9v6.7c0 .7.3 1.4.8 1.9s1.2.8 1.9.8h12.4c.7 0 1.4-.3 1.9-.8s.8-1.2.8-1.9v-6.7c0-.7-.3-1.4-.8-1.9-.4-.5-1.1-.7-1.8-.8zm-14.1 2.7c0-.4.2-.9.5-1.2s.7-.5 1.2-.5h12.4c.4 0 .9.2 1.2.5s.5.7.5 1.2v6.7c0 .4-.2.9-.5 1.2s-.7.5-1.2.5h-12.5c-.4 0-.9-.2-1.2-.5s-.5-.7-.5-1.2v-6.7zm336.8-2.8h-232.6c-.6 0-1.3.3-1.7.7-.5.5-.7 1.1-.7 1.7v7.3c0 .6.3 1.2.7 1.7s1.1.7 1.7.7h232.6c.6 0 1.3-.3 1.7-.7.5-.5.7-1.1.7-1.7v-7.3c0-.6-.3-1.2-.7-1.7-.4-.4-1.1-.7-1.7-.7zm-234 2.4c0-.4.1-.7.4-1s.6-.4 1-.4h232.6c.4 0 .7.1 1 .4s.4.6.4 1v7.3c0 .4-.1.7-.4 1s-.6.4-1 .4h-232.6c-.4 0-.7-.1-1-.4s-.4-.6-.4-1z" fill="#fff"/></g></g></svg>