<?xml version="1.0" encoding="utf-8"?>
<!-- Generator: Adobe Illustrator 25.4.1, SVG Export Plug-In . SVG Version: 6.00 Build 0)  -->
<svg version="1.1" id="Layer_1" xmlns="http://www.w3.org/2000/svg" xmlns:xlink="http://www.w3.org/1999/xlink" x="0px" y="0px"
	 viewBox="0 0 618 415" style="enable-background:new 0 0 618 415;" xml:space="preserve">
<style type="text/css">
	.st0{clip-path:url(#SVGID_00000000943812380404289160000014781894202486155687_);}
	.st1{fill:#FFFFFF;fill-opacity:2.000000e-02;}
	.st2{fill:#F3F3F3;fill-opacity:0.3;}
	.st3{fill:#FFFFFF;fill-opacity:0.2;}
	.st4{fill:#FFFFFF;}
	.st5{fill:#FFFFFF;fill-opacity:0.5;}
	.st6{fill:#FFFFFF;fill-opacity:0.5;stroke:#FFFFFF;stroke-width:1.3042;}
	.st7{fill:#FFFFFF;fill-opacity:0.8;}
	.st8{fill:none;stroke:#FFFFFF;stroke-width:1.3042;stroke-opacity:0.7;}
	.st9{clip-path:url(#SVGID_00000054959769289106987180000009632303801454722460_);}
</style>
<g>
	<g>
		<defs>
			<path id="SVGID_1_" d="M20,0h578c11,0,20,9,20,20v375c0,11-9,20-20,20H20c-11,0-20-9-20-20V20C0,9,9,0,20,0z"/>
		</defs>
		<clipPath id="SVGID_00000004521723037033483200000004429193834005279667_">
			<use xlink:href="#SVGID_1_"  style="overflow:visible;"/>
		</clipPath>
		<g style="clip-path:url(#SVGID_00000004521723037033483200000004429193834005279667_);">
			<path class="st1" d="M20,0h578c11,0,20,9,20,20v375c0,11-9,20-20,20H20c-11,0-20-9-20-20V20C0,9,9,0,20,0z"/>
			<path class="st2" d="M622,35H-4v201.8L622,89.6V35z"/>
			<path class="st3" d="M-4,552h626V337.7l-626,161V552z"/>
			<path class="st4" d="M56.5,59h4.6v2h-7.3V50h2.7V59z M71.1,55.7c0,1.1-0.2,2-0.6,2.9c-0.4,0.8-1,1.5-1.7,1.9
				c-0.7,0.4-1.6,0.7-2.5,0.7s-1.8-0.2-2.5-0.6c-0.7-0.4-1.3-1.1-1.7-1.9c-0.4-0.8-0.6-1.7-0.6-2.8v-0.6c0-1.1,0.2-2,0.6-2.9
				c0.4-0.8,1-1.5,1.7-1.9c0.7-0.4,1.6-0.7,2.5-0.7c0.9,0,1.8,0.2,2.5,0.7c0.7,0.4,1.3,1.1,1.7,1.9c0.4,0.8,0.6,1.8,0.6,2.8V55.7z
				 M68.4,55.3c0-1.1-0.2-1.9-0.6-2.5c-0.4-0.6-0.9-0.9-1.6-0.9c-1.3,0-2,1-2.1,3l0,0.8c0,1.1,0.2,1.9,0.5,2.5s0.9,0.9,1.6,0.9
				c0.7,0,1.2-0.3,1.6-0.9c0.4-0.6,0.5-1.4,0.6-2.5V55.3z M81.5,59.6c-0.4,0.5-1,0.8-1.8,1.1c-0.8,0.3-1.7,0.4-2.6,0.4
				c-1.4,0-2.6-0.4-3.5-1.3c-0.9-0.9-1.3-2.1-1.4-3.7l0-1c0-1.1,0.2-2,0.6-2.8c0.4-0.8,0.9-1.4,1.6-1.9c0.7-0.4,1.5-0.7,2.5-0.7
				c1.4,0,2.4,0.3,3.2,0.9c0.8,0.6,1.2,1.6,1.3,2.8h-2.6c-0.1-0.6-0.3-1.1-0.6-1.3C78,52,77.6,51.9,77,51.9c-0.7,0-1.2,0.3-1.5,0.8
				c-0.4,0.6-0.5,1.4-0.6,2.4v0.7c0,1.1,0.2,1.9,0.6,2.5c0.4,0.6,1,0.8,1.8,0.8c0.7,0,1.2-0.2,1.5-0.5v-1.7H77v-1.8h4.5V59.6z
				 M92.4,55.7c0,1.1-0.2,2-0.6,2.9c-0.4,0.8-1,1.5-1.7,1.9c-0.7,0.4-1.6,0.7-2.5,0.7s-1.8-0.2-2.5-0.6c-0.7-0.4-1.3-1.1-1.7-1.9
				c-0.4-0.8-0.6-1.7-0.6-2.8v-0.6c0-1.1,0.2-2,0.6-2.9c0.4-0.8,1-1.5,1.7-1.9c0.7-0.4,1.6-0.7,2.5-0.7c0.9,0,1.8,0.2,2.5,0.7
				c0.7,0.4,1.3,1.1,1.7,1.9c0.4,0.8,0.6,1.8,0.6,2.8V55.7z M89.7,55.3c0-1.1-0.2-1.9-0.6-2.5c-0.4-0.6-0.9-0.9-1.6-0.9
				c-1.3,0-2,1-2.1,3l0,0.8c0,1.1,0.2,1.9,0.5,2.5c0.4,0.6,0.9,0.9,1.6,0.9c0.7,0,1.2-0.3,1.6-0.9c0.4-0.6,0.5-1.4,0.6-2.5V55.3z"/>
			<rect x="385" y="54" class="st5" width="33.9" height="7.3"/>
			<rect x="432" y="54" class="st5" width="33.9" height="7.3"/>
			<rect x="478" y="54" class="st5" width="33.9" height="7.3"/>
			<rect x="525" y="54" class="st5" width="33.9" height="7.3"/>
			<rect x="345.7" y="163.7" class="st6" width="212.1" height="173.9"/>
			<g>
				<circle class="st5" cx="124.2" cy="291.2" r="9.2"/>
				<circle class="st5" cx="147.2" cy="291.2" r="9.2"/>
				<circle class="st5" cx="171.2" cy="291.2" r="9.2"/>
				<circle class="st5" cx="194.2" cy="291.2" r="9.2"/>
				<circle class="st5" cx="124.2" cy="315.2" r="9.2"/>
				<circle class="st5" cx="147.2" cy="315.2" r="9.2"/>
			</g>
			<path class="st7" d="M173.2,307h20.2c5.1,0,9.2,4.1,9.2,9.2l0,0c0,5.1-4.1,9.2-9.2,9.2h-20.2c-5.1,0-9.2-4.1-9.2-9.2l0,0
				C164,311.1,168.1,307,173.2,307z"/>
			<path class="st8" d="M173.2,307.7h20.2c4.7,0,8.6,3.8,8.6,8.6v0c0,4.7-3.8,8.6-8.6,8.6h-20.2c-4.7,0-8.6-3.8-8.6-8.6v0
				C164.7,311.5,168.5,307.7,173.2,307.7z"/>
			<rect x="115" y="267" class="st5" width="39.1" height="8.3"/>
			<rect x="115" y="209" class="st5" width="112.2" height="12.2"/>
			<rect x="115" y="228" class="st5" width="112.2" height="12.2"/>
			<rect x="115" y="176" class="st5" width="147.8" height="24.3"/>
			<g>
				<defs>
					<rect id="SVGID_00000180332308751419205020000006995770758202227130_" y="1" width="618" height="412"/>
				</defs>
				<clipPath id="SVGID_00000070797763334507971810000004228352568308555649_">
					<use xlink:href="#SVGID_00000180332308751419205020000006995770758202227130_"  style="overflow:visible;"/>
				</clipPath>
				<g style="clip-path:url(#SVGID_00000070797763334507971810000004228352568308555649_);">
					<path class="st4" d="M58.2,12.5h-7.5c-0.6,0-1.2,0.2-1.6,0.7c-0.4,0.4-0.7,1-0.7,1.6v7.5c0,0.6,0.2,1.2,0.7,1.6
						c0.4,0.4,1,0.7,1.6,0.7h7.5c0.6,0,1.2-0.2,1.6-0.7c0.4-0.4,0.7-1,0.7-1.6v-7.5c0-0.3-0.1-0.6-0.2-0.9c-0.1-0.3-0.3-0.5-0.5-0.7
						c-0.2-0.2-0.5-0.4-0.7-0.5C58.8,12.6,58.5,12.5,58.2,12.5L58.2,12.5z M49.4,14.8c0-0.3,0.1-0.6,0.4-0.9
						c0.2-0.2,0.5-0.4,0.9-0.4h7.5c0.3,0,0.6,0.1,0.9,0.4c0.2,0.2,0.4,0.5,0.4,0.9v7.5c0,0.3-0.1,0.6-0.4,0.9
						c-0.2,0.2-0.5,0.4-0.9,0.4h-7.5c-0.3,0-0.6-0.1-0.9-0.4c-0.2-0.2-0.4-0.5-0.4-0.9V14.8z M67,20.1l1.6-1.6L67,17
						c-0.1-0.1-0.1-0.2-0.1-0.3c0-0.1,0-0.2,0.1-0.3c0.1-0.1,0.2-0.1,0.3-0.1c0.1,0,0.2,0,0.3,0.1l1.9,1.9c0.1,0.1,0.1,0.2,0.1,0.3
						c0,0.1,0,0.2-0.1,0.3l-1.9,1.9c-0.1,0.1-0.2,0.1-0.3,0.1c-0.1,0-0.2,0-0.3-0.1c-0.1-0.1-0.1-0.2-0.1-0.3
						C66.9,20.3,66.9,20.2,67,20.1L67,20.1z M72,12.5h-7.5c-0.6,0-1.2,0.2-1.6,0.7c-0.4,0.4-0.7,1-0.7,1.6v7.5
						c0,0.6,0.2,1.2,0.7,1.6c0.4,0.4,1,0.7,1.6,0.7H72c0.6,0,1.2-0.2,1.6-0.7c0.4-0.4,0.7-1,0.7-1.6v-7.5c0-0.3-0.1-0.6-0.2-0.9
						c-0.1-0.3-0.3-0.5-0.5-0.7c-0.2-0.2-0.5-0.4-0.7-0.5C72.6,12.6,72.3,12.5,72,12.5L72,12.5z M63.2,14.8c0-0.3,0.1-0.6,0.4-0.9
						c0.2-0.2,0.5-0.4,0.9-0.4H72c0.2,0,0.3,0,0.5,0.1c0.2,0.1,0.3,0.2,0.4,0.3c0.1,0.1,0.2,0.3,0.3,0.4c0.1,0.2,0.1,0.3,0.1,0.5
						v7.5c0,0.3-0.1,0.6-0.4,0.9c-0.2,0.2-0.5,0.4-0.9,0.4h-7.5c-0.3,0-0.6-0.1-0.9-0.4c-0.2-0.2-0.4-0.5-0.4-0.9L63.2,14.8z
						 M20.1,14.9c-0.8,0-1.5,0.2-2.2,0.7s-1.1,1-1.4,1.7c-0.3,0.7-0.4,1.5-0.2,2.2c0.1,0.8,0.5,1.4,1.1,2c0.5,0.5,1.2,0.9,2,1.1
						c0.8,0.2,1.5,0.1,2.2-0.2c0.7-0.3,1.3-0.8,1.7-1.4c0.4-0.6,0.7-1.4,0.7-2.2c0-1-0.4-2-1.1-2.7C22.1,15.3,21.1,14.9,20.1,14.9
						L20.1,14.9z M20.1,21.6c-0.6,0-1.1-0.2-1.6-0.5c-0.5-0.3-0.8-0.8-1-1.3c-0.2-0.5-0.3-1.1-0.2-1.6c0.1-0.6,0.4-1.1,0.8-1.5
						c0.4-0.4,0.9-0.7,1.5-0.8c0.6-0.1,1.1-0.1,1.6,0.2c0.5,0.2,1,0.6,1.3,1c0.3,0.5,0.5,1,0.5,1.6c0,0.8-0.3,1.5-0.8,2
						C21.6,21.3,20.9,21.6,20.1,21.6L20.1,21.6z M29.5,14.9c-0.8,0-1.5,0.2-2.2,0.7c-0.6,0.4-1.1,1-1.4,1.7
						c-0.3,0.7-0.4,1.5-0.2,2.2c0.2,0.8,0.5,1.4,1.1,2c0.5,0.5,1.2,0.9,2,1.1c0.8,0.1,1.5,0.1,2.2-0.2c0.7-0.3,1.3-0.8,1.7-1.4
						s0.7-1.4,0.7-2.2c0-0.5-0.1-1-0.3-1.5c-0.2-0.5-0.5-0.9-0.8-1.3c-0.4-0.4-0.8-0.6-1.3-0.8C30.5,15,30,14.9,29.5,14.9L29.5,14.9
						z M29.5,21.6c-0.6,0-1.1-0.2-1.6-0.5c-0.5-0.3-0.8-0.8-1-1.3c-0.2-0.5-0.3-1.1-0.2-1.6s0.4-1.1,0.8-1.5
						c0.4-0.4,0.9-0.7,1.5-0.8c0.6-0.1,1.1-0.1,1.6,0.2c0.5,0.2,1,0.6,1.3,1c0.3,0.5,0.5,1,0.5,1.6c0,0.4-0.1,0.7-0.2,1.1
						c-0.1,0.3-0.4,0.7-0.6,0.9c-0.3,0.3-0.6,0.5-0.9,0.6C30.2,21.5,29.9,21.6,29.5,21.6L29.5,21.6z M31.4,18.8c0,0.1,0,0.2-0.1,0.2
						c-0.1,0.1-0.1,0.1-0.2,0.1h-2.7c-0.1,0-0.2,0-0.2-0.1c-0.1-0.1-0.1-0.1-0.1-0.2c0-0.1,0-0.2,0.1-0.2c0.1-0.1,0.1-0.1,0.2-0.1
						H31c0.1,0,0.2,0,0.2,0.1C31.3,18.6,31.4,18.7,31.4,18.8L31.4,18.8z M53.2,18.9c-0.1-0.1-0.1-0.2-0.1-0.3c0-0.1,0-0.2,0.1-0.3
						l1.9-1.9c0.1-0.1,0.2-0.1,0.3-0.1s0.2,0,0.3,0.1c0.1,0.1,0.1,0.2,0.1,0.3c0,0.1,0,0.2-0.1,0.3l-1.6,1.6l1.6,1.6
						c0,0,0.1,0.1,0.1,0.1c0,0.1,0,0.1,0,0.2c0,0.1,0,0.1,0,0.2c0,0.1-0.1,0.1-0.1,0.1c0,0-0.1,0.1-0.1,0.1c-0.1,0-0.1,0-0.2,0
						c-0.1,0-0.1,0-0.2,0c-0.1,0-0.1-0.1-0.1-0.1L53.2,18.9z M40.5,18.8c0,0.1,0,0.2-0.1,0.2c-0.1,0.1-0.1,0.1-0.2,0.1h-1v1
						c0,0.1,0,0.2-0.1,0.2c-0.1,0.1-0.1,0.1-0.2,0.1s-0.2,0-0.2-0.1c-0.1-0.1-0.1-0.1-0.1-0.2v-1h-1c-0.1,0-0.2,0-0.2-0.1
						c-0.1-0.1-0.1-0.1-0.1-0.2c0-0.1,0-0.2,0.1-0.2c0.1-0.1,0.1-0.1,0.2-0.1h1v-1c0-0.1,0-0.2,0.1-0.2c0.1-0.1,0.1-0.1,0.2-0.1
						s0.2,0,0.2,0.1c0.1,0.1,0.1,0.1,0.1,0.2v1h1c0.1,0,0.2,0,0.2,0.1C40.5,18.6,40.5,18.7,40.5,18.8L40.5,18.8z M21.3,18.8
						c0,0.2-0.1,0.5-0.2,0.7c-0.1,0.2-0.3,0.3-0.5,0.4c-0.2,0.1-0.5,0.1-0.7,0.1c-0.2,0-0.4-0.2-0.6-0.3c-0.2-0.2-0.3-0.4-0.3-0.6
						c0-0.2,0-0.5,0.1-0.7c0.1-0.2,0.2-0.4,0.4-0.5c0.2-0.1,0.4-0.2,0.7-0.2c0.3,0,0.6,0.1,0.8,0.4C21.2,18.1,21.3,18.4,21.3,18.8
						L21.3,18.8z M38.9,14.9c-0.8,0-1.5,0.2-2.2,0.7c-0.6,0.4-1.1,1-1.4,1.7c-0.3,0.7-0.4,1.5-0.2,2.2c0.2,0.8,0.5,1.4,1.1,2
						c0.5,0.5,1.2,0.9,2,1.1c0.8,0.2,1.5,0.1,2.2-0.2c0.7-0.3,1.3-0.8,1.7-1.4c0.4-0.6,0.7-1.4,0.7-2.2c0-0.5-0.1-1-0.3-1.5
						c-0.2-0.5-0.5-0.9-0.8-1.3c-0.4-0.4-0.8-0.6-1.3-0.8C39.9,15,39.4,14.9,38.9,14.9L38.9,14.9z M38.9,21.6
						c-0.6,0-1.1-0.2-1.6-0.5c-0.5-0.3-0.8-0.8-1-1.3c-0.2-0.5-0.3-1.1-0.2-1.6c0.1-0.6,0.4-1.1,0.8-1.5c0.4-0.4,0.9-0.7,1.5-0.8
						c0.6-0.1,1.1-0.1,1.6,0.2c0.5,0.2,1,0.6,1.3,1c0.3,0.5,0.5,1,0.5,1.6c0,0.4-0.1,0.7-0.2,1.1c-0.1,0.3-0.4,0.7-0.6,0.9
						c-0.3,0.3-0.6,0.5-0.9,0.6C39.6,21.5,39.3,21.6,38.9,21.6L38.9,21.6z M410.6,18.8c0-0.7,0.3-1.4,0.8-2c0.5-0.5,1.2-0.9,1.9-0.9
						v-0.4l1.2,0.7l-1.2,0.7v-0.3c-0.4,0-0.8,0.2-1.2,0.5s-0.6,0.6-0.7,1c-0.1,0.4-0.1,0.9,0,1.3c0.1,0.4,0.3,0.8,0.7,1.1
						c0.3,0.3,0.7,0.5,1.1,0.5c0.4,0.1,0.9,0,1.3-0.2c0.4-0.2,0.7-0.5,1-0.8c0.2-0.4,0.4-0.8,0.4-1.2v0h0.7v0c0,0.8-0.3,1.5-0.9,2
						s-1.3,0.8-2.1,0.8c-0.8,0-1.5-0.3-2.1-0.8C410.9,20.3,410.6,19.5,410.6,18.8L410.6,18.8z M86.2,19.8c0,0.1,0,0.2-0.1,0.2
						c-0.1,0.1-0.1,0.1-0.2,0.1h-1.1c-0.1,0-0.2,0-0.2-0.1c-0.1-0.1-0.1-0.1-0.1-0.2c0-0.1,0-0.2,0.1-0.2c0.1-0.1,0.1-0.1,0.2-0.1
						h1.1c0.1,0,0.2,0,0.2,0.1C86.2,19.6,86.2,19.7,86.2,19.8L86.2,19.8z M595.8,19.3h-2v-0.7h2v-2.3h0.7v2.3h2v0.7h-2v2.3h-0.7
						V19.3z M576.5,16h-0.7v-1.1h5.5v5.5h-1.1v-0.7h0.4v-4.2h-4.2V16z M563.7,12.3h-12.4c-0.7,0-1.4,0.3-1.9,0.8
						c-0.5,0.5-0.8,1.2-0.8,1.9v6.7c0,0.7,0.3,1.4,0.8,1.9c0.5,0.5,1.2,0.8,1.9,0.8h12.4c0.7,0,1.4-0.3,1.9-0.8
						c0.5-0.5,0.8-1.2,0.8-1.9V15c0-0.7-0.3-1.4-0.8-1.9C565.1,12.6,564.4,12.3,563.7,12.3L563.7,12.3z M549.6,15
						c0-0.4,0.2-0.9,0.5-1.2c0.3-0.3,0.7-0.5,1.2-0.5h6.2l-1.9,2l0.4,0.4l1.2-1.3V19h0.7v-4.5l1.2,1.3l0.4-0.4l-1.9-2h6.2
						c0.4,0,0.9,0.2,1.2,0.5c0.3,0.3,0.5,0.7,0.5,1.2v6.7c0,0.4-0.2,0.9-0.5,1.2c-0.3,0.3-0.7,0.5-1.2,0.5h-12.4
						c-0.4,0-0.9-0.2-1.2-0.5c-0.3-0.3-0.5-0.7-0.5-1.2L549.6,15z M579.9,16.4h-5.5v5.5h5.5V16.4z M575.1,21.2V17h4.2v4.2
						L575.1,21.2z M590.4,24.3h11.4V13h-11.4V24.3z M600.9,13.8v9.7h-9.7v-9.7L600.9,13.8z M600.5,1h-583C12.9,1,8.4,2.8,5.1,6.1
						S0,13.8,0,18.5v377c0,4.6,1.8,9.1,5.1,12.4s7.7,5.1,12.4,5.1h583c4.6,0,9.1-1.8,12.4-5.1c3.3-3.3,5.1-7.7,5.1-12.4v-377
						c0-4.6-1.8-9.1-5.1-12.4C609.6,2.8,605.1,1,600.5,1L600.5,1z M600.5,410.2h-583c-3.9,0-7.6-1.5-10.4-4.3
						c-2.7-2.7-4.3-6.5-4.3-10.3V35.8h612.3v359.7c0,3.9-1.5,7.6-4.3,10.3C608.1,408.6,604.4,410.2,600.5,410.2L600.5,410.2z
						 M17.5,3.8h583c3.9,0,7.6,1.5,10.4,4.3c2.7,2.7,4.3,6.5,4.3,10.3V33H2.8V18.5c0-3.9,1.5-7.6,4.3-10.3
						C9.9,5.4,13.6,3.8,17.5,3.8L17.5,3.8z M584.1,12.3h-12.4c-0.7,0-1.4,0.3-1.9,0.8c-0.5,0.5-0.8,1.2-0.8,1.9v6.7
						c0,0.7,0.3,1.4,0.8,1.9c0.5,0.5,1.2,0.8,1.9,0.8h12.4c0.7,0,1.4-0.3,1.9-0.8c0.5-0.5,0.8-1.2,0.8-1.9V15c0-0.7-0.3-1.4-0.8-1.9
						C585.5,12.6,584.8,12.3,584.1,12.3z M570,15c0-0.4,0.2-0.9,0.5-1.2c0.3-0.3,0.7-0.5,1.2-0.5h12.4c0.4,0,0.9,0.2,1.2,0.5
						c0.3,0.3,0.5,0.7,0.5,1.2v6.7c0,0.4-0.2,0.9-0.5,1.2c-0.3,0.3-0.7,0.5-1.2,0.5h-12.4c-0.4,0-0.9-0.2-1.2-0.5
						c-0.3-0.3-0.5-0.7-0.5-1.2V15z M86.2,16.7c0,0.1,0,0.2-0.1,0.2c-0.1,0.1-0.1,0.1-0.2,0.1h-1.1c-0.1,0-0.2,0-0.2-0.1
						c-0.1-0.1-0.1-0.1-0.1-0.2c0-0.1,0-0.2,0.1-0.2c0.1-0.1,0.1-0.1,0.2-0.1h1.1c0.1,0,0.2,0,0.2,0.1
						C86.2,16.6,86.2,16.6,86.2,16.7L86.2,16.7z M86.2,17.8c0,0.1,0,0.2-0.1,0.2c-0.1,0.1-0.1,0.1-0.2,0.1h-1.1
						c-0.1,0-0.2,0-0.2-0.1c-0.1-0.1-0.1-0.1-0.1-0.2c0-0.1,0-0.2,0.1-0.2c0.1-0.1,0.1-0.1,0.2-0.1h1.1c0.1,0,0.2,0,0.2,0.1
						C86.2,17.6,86.2,17.7,86.2,17.8L86.2,17.8z M560.4,22h-6v-6h2.2v0.7h-1.5v4.6h4.7v-4.6h-1.5V16h2.2L560.4,22z M93.2,15h-9.7
						v7.1h9.7V15z M84.2,21.5v-5.8h2.5v5.8H84.2z M87.3,21.5v-5.8h5.2v5.8H87.3z M86.2,18.8c0,0.1,0,0.2-0.1,0.2s-0.1,0.1-0.2,0.1
						h-1.1c-0.1,0-0.2,0-0.2-0.1c-0.1-0.1-0.1-0.1-0.1-0.2c0-0.1,0-0.2,0.1-0.2c0.1-0.1,0.1-0.1,0.2-0.1h1.1c0.1,0,0.2,0,0.2,0.1
						C86.2,18.6,86.2,18.7,86.2,18.8L86.2,18.8z M94.6,12.4H82.1c-0.7,0-1.4,0.3-1.9,0.8c-0.5,0.5-0.8,1.2-0.8,1.9v6.7
						c0,0.7,0.3,1.4,0.8,1.9c0.5,0.5,1.2,0.8,1.9,0.8h12.4c0.7,0,1.4-0.3,1.9-0.8c0.5-0.5,0.8-1.2,0.8-1.9v-6.7
						c0-0.7-0.3-1.4-0.8-1.9C96,12.7,95.3,12.5,94.6,12.4L94.6,12.4z M80.5,15.1c0-0.4,0.2-0.9,0.5-1.2c0.3-0.3,0.7-0.5,1.2-0.5
						h12.4c0.4,0,0.9,0.2,1.2,0.5c0.3,0.3,0.5,0.7,0.5,1.2v6.7c0,0.4-0.2,0.9-0.5,1.2c-0.3,0.3-0.7,0.5-1.2,0.5H82.1
						c-0.4,0-0.9-0.2-1.2-0.5s-0.5-0.7-0.5-1.2V15.1z M417.3,12.3H184.7c-0.6,0-1.3,0.3-1.7,0.7c-0.5,0.5-0.7,1.1-0.7,1.7V22
						c0,0.6,0.3,1.2,0.7,1.7s1.1,0.7,1.7,0.7h232.6c0.6,0,1.3-0.3,1.7-0.7c0.5-0.5,0.7-1.1,0.7-1.7v-7.3c0-0.6-0.3-1.2-0.7-1.7
						C418.6,12.6,417.9,12.3,417.3,12.3L417.3,12.3z M183.3,14.7c0-0.4,0.1-0.7,0.4-1c0.3-0.3,0.6-0.4,1-0.4h232.6
						c0.4,0,0.7,0.1,1,0.4c0.3,0.3,0.4,0.6,0.4,1V22c0,0.4-0.1,0.7-0.4,1c-0.3,0.3-0.6,0.4-1,0.4H184.7c-0.4,0-0.7-0.1-1-0.4
						c-0.3-0.3-0.4-0.6-0.4-1L183.3,14.7z"/>
				</g>
			</g>
		</g>
	</g>
</g>
</svg>
