<svg width="618" height="415" viewBox="0 0 618 415" fill="none" xmlns="http://www.w3.org/2000/svg">
<g filter="url(#filter0_b)">
<g clip-path="url(#clip0)">
<rect width="618" height="415" rx="20" fill="white" fill-opacity="0.02"/>
<path d="M622 35H-4V236.82L622 89.5576V35Z" fill="#F3F3F3" fill-opacity="0.3"/>
<path d="M-4 552H622V337.682L-4 498.711V552Z" fill="white" fill-opacity="0.2"/>
<path d="M56.4899 58.9561H61.1152V61H53.8327V49.9778H56.4899V58.9561ZM71.0851 55.716C71.0851 56.791 70.8858 57.7423 70.4871 58.57C70.0884 59.3976 69.5206 60.0361 68.7838 60.4852C68.052 60.9293 67.2168 61.1514 66.2781 61.1514C65.3394 61.1514 64.5067 60.9369 63.7799 60.5079C63.0532 60.0739 62.4854 59.4557 62.0766 58.6532C61.6729 57.8508 61.4609 56.9298 61.4407 55.8901V55.2694C61.4407 54.1894 61.6376 53.238 62.0312 52.4154C62.4299 51.5877 62.9977 50.9493 63.7345 50.5002C64.4764 50.051 65.3192 49.8264 66.2629 49.8264C67.1966 49.8264 68.0293 50.0485 68.7611 50.4926C69.4929 50.9367 70.0607 51.5701 70.4644 52.3927C70.8732 53.2103 71.0801 54.149 71.0851 55.2088V55.716ZM68.3826 55.2542C68.3826 54.1591 68.1984 53.3289 67.83 52.7637C67.4666 52.1934 66.9443 51.9082 66.2629 51.9082C64.9306 51.9082 64.2266 52.9075 64.1509 54.906L64.1433 55.716C64.1433 56.796 64.3225 57.6262 64.6808 58.2066C65.0391 58.787 65.5715 59.0772 66.2781 59.0772C66.9493 59.0772 67.4666 58.792 67.83 58.2217C68.1933 57.6515 68.3775 56.8314 68.3826 55.7614V55.2542ZM81.479 59.6374C81.0702 60.0916 80.4722 60.4575 79.6849 60.735C78.8976 61.0126 78.0346 61.1514 77.0959 61.1514C75.6525 61.1514 74.4993 60.7098 73.6363 59.8266C72.7733 58.9434 72.3115 57.7145 72.251 56.1399L72.2434 55.1861C72.2434 54.101 72.4352 53.1548 72.8187 52.3473C73.2023 51.5348 73.7498 50.9115 74.4614 50.4775C75.1781 50.0384 76.0058 49.8189 76.9445 49.8189C78.3172 49.8189 79.3821 50.1343 80.1391 50.7651C80.9011 51.3909 81.3453 52.3271 81.4714 53.5737H78.9127C78.8219 52.958 78.625 52.5189 78.3222 52.2564C78.0194 51.994 77.5905 51.8628 77.0353 51.8628C76.3691 51.8628 75.8544 52.1454 75.491 52.7107C75.1276 53.2759 74.9434 54.0834 74.9384 55.1331V55.7993C74.9384 56.8995 75.1251 57.7272 75.4986 58.2823C75.8771 58.8324 76.4701 59.1075 77.2775 59.1075C77.969 59.1075 78.4837 58.9535 78.8219 58.6457V56.9348H76.9747V55.1104H81.479V59.6374ZM92.3573 55.716C92.3573 56.791 92.158 57.7423 91.7593 58.57C91.3606 59.3976 90.7928 60.0361 90.056 60.4852C89.3242 60.9293 88.489 61.1514 87.5503 61.1514C86.6116 61.1514 85.7789 60.9369 85.0521 60.5079C84.3254 60.0739 83.7576 59.4557 83.3488 58.6532C82.9451 57.8508 82.7331 56.9298 82.7129 55.8901V55.2694C82.7129 54.1894 82.9098 53.238 83.3034 52.4154C83.7021 51.5877 84.2699 50.9493 85.0067 50.5002C85.7486 50.051 86.5914 49.8264 87.5351 49.8264C88.4688 49.8264 89.3015 50.0485 90.0333 50.4926C90.7651 50.9367 91.3328 51.5701 91.7366 52.3927C92.1454 53.2103 92.3523 54.149 92.3573 55.2088V55.716ZM89.6548 55.2542C89.6548 54.1591 89.4706 53.3289 89.1022 52.7637C88.7388 52.1934 88.2165 51.9082 87.5351 51.9082C86.2028 51.9082 85.4988 52.9075 85.4231 54.906L85.4155 55.716C85.4155 56.796 85.5946 57.6262 85.953 58.2066C86.3113 58.787 86.8437 59.0772 87.5503 59.0772C88.2215 59.0772 88.7388 58.792 89.1022 58.2217C89.4655 57.6515 89.6497 56.8314 89.6548 55.7614V55.2542Z" fill="white"/>
<rect x="385" y="54.0007" width="33.9083" height="7.30644" fill="white" fill-opacity="0.5"/>
<rect x="432" y="54" width="33.9083" height="7.30644" fill="white" fill-opacity="0.5"/>
<rect x="478" y="54" width="33.9083" height="7.30644" fill="white" fill-opacity="0.5"/>
<rect x="525" y="54" width="33.9083" height="7.30644" fill="white" fill-opacity="0.5"/>
<rect x="345.652" y="163.652" width="212.144" height="173.889" fill="white" fill-opacity="0.5" stroke="white" stroke-width="1.30417"/>
<g filter="url(#filter1_b)">
<circle cx="124.235" cy="291.235" r="9.23515" fill="white" fill-opacity="0.5"/>
<circle cx="147.235" cy="291.235" r="9.23515" fill="white" fill-opacity="0.5"/>
<circle cx="171.235" cy="291.235" r="9.23515" fill="white" fill-opacity="0.5"/>
<circle cx="194.235" cy="291.235" r="9.23515" fill="white" fill-opacity="0.5"/>
<circle cx="124.235" cy="315.235" r="9.23515" fill="white" fill-opacity="0.5"/>
<circle cx="147.235" cy="315.235" r="9.23515" fill="white" fill-opacity="0.5"/>
</g>
<rect x="164" y="307" width="38.6903" height="18.4713" rx="9.23567" fill="white" fill-opacity="0.8"/>
<rect x="164.652" y="307.652" width="37.3861" height="17.1672" rx="8.58359" stroke="white" stroke-opacity="0.7" stroke-width="1.30417"/>
<rect x="115" y="267" width="39.125" height="8.25972" fill="white" fill-opacity="0.5"/>
<rect x="115" y="209" width="112.158" height="12.1722" fill="white" fill-opacity="0.5"/>
<rect x="115" y="228" width="112.158" height="12.1722" fill="white" fill-opacity="0.5"/>
<rect x="115" y="176" width="147.806" height="24.3444" fill="white" fill-opacity="0.5"/>
<g clip-path="url(#clip1)">
<path d="M58.1742 12.5145H50.6348C50.0309 12.5145 49.4517 12.7541 49.0246 13.1808C48.5976 13.6074 48.3577 14.186 48.3577 14.7893V22.319C48.3577 22.9224 48.5976 23.501 49.0246 23.9276C49.4517 24.3542 50.0309 24.5939 50.6348 24.5939H58.1742C58.7781 24.5939 59.3573 24.3542 59.7844 23.9276C60.2114 23.501 60.4513 22.9224 60.4513 22.319V14.795C60.4521 14.4958 60.3937 14.1994 60.2796 13.9227C60.1655 13.6461 59.9979 13.3946 59.7864 13.1828C59.5749 12.9709 59.3236 12.8029 59.0469 12.6882C58.7703 12.5735 58.4737 12.5145 58.1742 12.5145V12.5145ZM49.3976 14.7893C49.3976 14.4613 49.5279 14.1468 49.7598 13.9147C49.9918 13.6826 50.3065 13.5519 50.6348 13.5514H58.1742C58.5025 13.5519 58.8172 13.6826 59.0492 13.9147C59.2811 14.1468 59.4114 14.4613 59.4114 14.7893V22.319C59.4114 22.647 59.2811 22.9616 59.0492 23.1937C58.8172 23.4258 58.5025 23.5564 58.1742 23.5569H50.6348C50.3065 23.5564 49.9918 23.4258 49.7598 23.1937C49.5279 22.9616 49.3976 22.647 49.3976 22.319V14.7893ZM66.9868 20.12L68.5581 18.5485L66.9868 16.9789C66.9068 16.8986 66.8618 16.7898 66.8618 16.6765C66.8618 16.5631 66.9068 16.4544 66.9868 16.3741C67.0681 16.2965 67.1761 16.2532 67.2886 16.2532C67.401 16.2532 67.5091 16.2965 67.5903 16.3741L69.4708 18.2509C69.5508 18.3308 69.5957 18.4393 69.5957 18.5523C69.5957 18.6653 69.5508 18.7737 69.4708 18.8537L67.5979 20.7153C67.5176 20.7949 67.4093 20.8399 67.2961 20.8404C67.1829 20.8404 67.0743 20.7955 66.9942 20.7155C66.9142 20.6355 66.8692 20.527 66.8692 20.4139C66.8684 20.3043 66.9107 20.1988 66.9868 20.12V20.12ZM71.9947 12.505H64.463C63.859 12.505 63.2798 12.7447 62.8528 13.1713C62.4257 13.5979 62.1858 14.1765 62.1858 14.7798V22.3115C62.1858 22.9148 62.4257 23.4934 62.8528 23.92C63.2798 24.3466 63.859 24.5863 64.463 24.5863H72.0023C72.6062 24.5863 73.1855 24.3466 73.6125 23.92C74.0396 23.4934 74.2795 22.9148 74.2795 22.3115V14.7855C74.2802 14.4863 74.2219 14.1899 74.1078 13.9132C73.9937 13.6366 73.8261 13.3851 73.6145 13.1733C73.403 12.9615 73.1517 12.7934 72.8751 12.6787C72.5984 12.564 72.3018 12.505 72.0023 12.505H71.9947ZM63.2181 14.7798C63.2181 14.4519 63.3484 14.1373 63.5804 13.9052C63.8124 13.6731 64.1271 13.5425 64.4554 13.5419H71.9947C72.1592 13.5399 72.3224 13.5707 72.4749 13.6323C72.6274 13.694 72.766 13.7854 72.8828 13.9011C72.9996 14.0169 73.0921 14.1547 73.155 14.3065C73.2178 14.4584 73.2498 14.6212 73.2491 14.7855V22.3171C73.2486 22.6448 73.118 22.9589 72.8861 23.1906C72.6542 23.4223 72.3398 23.5526 72.0118 23.5531H64.463C64.135 23.5526 63.8206 23.4223 63.5886 23.1906C63.3567 22.9589 63.2262 22.6448 63.2257 22.3171L63.2181 14.7798ZM20.115 14.8614C19.3452 14.861 18.5925 15.0887 17.9522 15.5157C17.3119 15.9427 16.8127 16.5498 16.5179 17.2602C16.223 17.9706 16.1457 18.7525 16.2956 19.5068C16.4456 20.2611 16.8161 20.9541 17.3603 21.4981C17.9046 22.042 18.5981 22.4125 19.3531 22.5627C20.1082 22.7128 20.8908 22.636 21.6021 22.3417C22.3134 22.0475 22.9214 21.5492 23.3491 20.9097C23.7769 20.2703 24.0052 19.5185 24.0052 18.7494C24.0042 17.7189 23.5941 16.7308 22.8648 16.0019C22.1355 15.273 21.1466 14.8629 20.115 14.8614V14.8614ZM20.115 21.5949C19.552 21.5949 19.0017 21.4281 18.5336 21.1157C18.0655 20.8032 17.7007 20.3591 17.4852 19.8395C17.2698 19.3199 17.2134 18.7482 17.3233 18.1966C17.4331 17.645 17.7042 17.1383 18.1023 16.7406C18.5004 16.343 19.0075 16.0721 19.5597 15.9624C20.1119 15.8527 20.6842 15.909 21.2043 16.1242C21.7244 16.3395 22.169 16.7039 22.4818 17.1715C22.7945 17.6392 22.9615 18.1889 22.9615 18.7513C22.9615 19.5055 22.6616 20.2288 22.1278 20.762C21.594 21.2953 20.87 21.5949 20.115 21.5949V21.5949ZM29.5008 14.8614C28.731 14.8614 27.9785 15.0894 27.3385 15.5166C26.6984 15.9438 26.1996 16.5511 25.905 17.2615C25.6104 17.972 25.5333 18.7537 25.6835 19.508C25.8337 20.2622 26.2044 20.955 26.7487 21.4987C27.293 22.0425 27.9865 22.4128 28.7415 22.5628C29.4965 22.7128 30.279 22.6358 30.9902 22.3416C31.7014 22.0473 32.3092 21.5489 32.7369 20.9095C33.1646 20.2701 33.3928 19.5184 33.3928 18.7494C33.3923 18.2382 33.291 17.732 33.0947 17.2599C32.8983 16.7878 32.6107 16.359 32.2484 15.9979C31.8861 15.6368 31.4561 15.3506 30.983 15.1556C30.51 14.9606 30.0031 14.8606 29.4913 14.8614H29.5008ZM29.5008 21.5949C28.9378 21.5949 28.3875 21.4281 27.9194 21.1157C27.4513 20.8032 27.0864 20.3591 26.871 19.8395C26.6555 19.3199 26.5992 18.7482 26.709 18.1966C26.8188 17.645 27.0899 17.1383 27.488 16.7406C27.8861 16.343 28.3933 16.0721 28.9455 15.9624C29.4976 15.8527 30.0699 15.909 30.5901 16.1242C31.1102 16.3395 31.5547 16.7039 31.8675 17.1715C32.1803 17.6392 32.3472 18.1889 32.3472 18.7513C32.3472 19.1256 32.2733 19.4961 32.1297 19.8417C31.986 20.1873 31.7755 20.5012 31.5102 20.7654C31.2449 21.0296 30.9299 21.2388 30.5835 21.3812C30.237 21.5235 29.8659 21.5961 29.4913 21.5949H29.5008ZM31.3737 18.7513C31.3737 18.8393 31.3388 18.9237 31.2765 18.9859C31.2142 19.0481 31.1297 19.0831 31.0417 19.0831H28.385C28.2969 19.0831 28.2124 19.0481 28.1501 18.9859C28.0879 18.9237 28.0529 18.8393 28.0529 18.7513C28.0529 18.6633 28.0879 18.579 28.1501 18.5168C28.2124 18.4545 28.2969 18.4196 28.385 18.4196H31.0417C31.1278 18.422 31.2095 18.4578 31.2697 18.5194C31.3299 18.5809 31.3638 18.6634 31.3643 18.7494L31.3737 18.7513ZM53.1758 18.8613C53.0958 18.7813 53.0509 18.6729 53.0509 18.5599C53.0509 18.4468 53.0958 18.3384 53.1758 18.2584L55.0317 16.3836C55.1129 16.306 55.221 16.2626 55.3334 16.2626C55.4458 16.2626 55.5539 16.306 55.6351 16.3836C55.7151 16.4636 55.76 16.572 55.76 16.685C55.76 16.798 55.7151 16.9065 55.6351 16.9864L54.0639 18.558L55.6351 20.1276C55.6771 20.1667 55.7107 20.2137 55.7341 20.2661C55.7574 20.3184 55.7699 20.3749 55.771 20.4321C55.772 20.4894 55.7614 20.5463 55.7399 20.5994C55.7185 20.6525 55.6865 20.7008 55.646 20.7413C55.6054 20.7818 55.5571 20.8137 55.504 20.8352C55.4508 20.8566 55.3939 20.8671 55.3365 20.8661C55.2792 20.8651 55.2226 20.8526 55.1703 20.8293C55.1179 20.806 55.0708 20.7723 55.0317 20.7304L53.1758 18.8613ZM40.5451 18.7513C40.5446 18.8392 40.5094 18.9233 40.4472 18.9854C40.3851 19.0475 40.3009 19.0826 40.213 19.0831H39.2186V20.0916C39.2186 20.1796 39.1836 20.264 39.1213 20.3262C39.0591 20.3884 38.9746 20.4233 38.8865 20.4233C38.7984 20.4233 38.714 20.3884 38.6517 20.3262C38.5894 20.264 38.5544 20.1796 38.5544 20.0916V19.0812H37.562C37.4739 19.0812 37.3894 19.0462 37.3271 18.984C37.2649 18.9218 37.2299 18.8374 37.2299 18.7494C37.2299 18.6615 37.2649 18.5771 37.3271 18.5149C37.3894 18.4526 37.4739 18.4177 37.562 18.4177H38.5544V17.4073C38.5544 17.3193 38.5894 17.2349 38.6517 17.1727C38.714 17.1105 38.7984 17.0755 38.8865 17.0755C38.9746 17.0755 39.0591 17.1105 39.1213 17.1727C39.1836 17.2349 39.2186 17.3193 39.2186 17.4073V18.4177H40.213C40.2994 18.4202 40.3814 18.4562 40.4417 18.5181C40.5019 18.5801 40.5356 18.6631 40.5356 18.7494L40.5451 18.7513ZM21.3048 18.7513C21.3045 18.9868 21.2342 19.2168 21.103 19.4124C20.9717 19.608 20.7853 19.7603 20.5674 19.85C20.3495 19.9398 20.1099 19.963 19.8788 19.9167C19.6477 19.8704 19.4355 19.7567 19.2691 19.5899C19.1027 19.4231 18.9896 19.2108 18.9439 18.9798C18.8983 18.7488 18.9223 18.5095 19.0129 18.2921C19.1034 18.0747 19.2564 17.889 19.4526 17.7585C19.6488 17.628 19.8793 17.5586 20.115 17.5589C20.4293 17.5614 20.7298 17.688 20.9509 17.9111C21.172 18.1341 21.2959 18.4355 21.2954 18.7494L21.3048 18.7513ZM38.8865 14.8633C38.1167 14.8633 37.3642 15.0913 36.7242 15.5185C36.0842 15.9457 35.5853 16.553 35.2907 17.2634C34.9961 17.9739 34.9191 18.7556 35.0692 19.5099C35.2194 20.2641 35.5901 20.9569 36.1344 21.5006C36.6787 22.0444 37.3722 22.4147 38.1272 22.5647C38.8822 22.7147 39.6648 22.6377 40.376 22.3434C41.0871 22.0492 41.695 21.5508 42.1227 20.9114C42.5503 20.272 42.7786 19.5203 42.7786 18.7513C42.7783 18.2399 42.6772 17.7336 42.4809 17.2612C42.2847 16.7889 41.9972 16.3598 41.6348 15.9986C41.2725 15.6373 40.8424 15.3509 40.3692 15.1558C39.896 14.9607 39.389 14.8606 38.877 14.8614L38.8865 14.8633ZM38.8865 21.5968C38.3235 21.5968 37.7732 21.43 37.3051 21.1176C36.837 20.8051 36.4722 20.361 36.2567 19.8414C36.0413 19.3218 35.9849 18.7501 36.0947 18.1985C36.2046 17.6469 36.4757 17.1402 36.8738 16.7425C37.2719 16.3449 37.779 16.074 38.3312 15.9643C38.8834 15.8546 39.4557 15.9109 39.9758 16.1261C40.4959 16.3414 40.9405 16.7058 41.2533 17.1734C41.566 17.6411 41.733 18.1908 41.733 18.7532C41.7327 19.1273 41.6586 19.4976 41.5149 19.843C41.3711 20.1884 41.1606 20.5021 40.8953 20.7661C40.63 21.03 40.3151 21.2391 39.9688 21.3813C39.6225 21.5236 39.2515 21.5961 38.877 21.5949L38.8865 21.5968ZM410.57 18.7532C410.572 18.0236 410.849 17.3214 411.345 16.7864C411.842 16.2514 412.522 15.9228 413.25 15.8661V15.5059L414.425 16.1827L413.25 16.8613V16.5277C412.82 16.5724 412.412 16.7407 412.076 17.0121C411.74 17.2835 411.49 17.6465 411.356 18.057C411.222 18.4676 411.21 18.9081 411.322 19.3252C411.433 19.7424 411.664 20.1183 411.985 20.4074C412.306 20.6965 412.704 20.8865 413.131 20.9543C413.557 21.022 413.995 20.9647 414.39 20.7893C414.785 20.6138 415.12 20.3278 415.356 19.9657C415.591 19.6037 415.717 19.1812 415.717 18.7494V18.702H416.381V18.7494C416.381 19.5182 416.075 20.2554 415.531 20.799C414.987 21.3426 414.249 21.648 413.48 21.648C412.71 21.648 411.972 21.3426 411.428 20.799C410.884 20.2554 410.578 19.5182 410.578 18.7494L410.57 18.7532ZM86.2251 19.8129C86.2251 19.9009 86.1902 19.9853 86.1279 20.0475C86.0656 20.1097 85.9811 20.1447 85.8931 20.1447H84.8247C84.7366 20.1447 84.6521 20.1097 84.5899 20.0475C84.5276 19.9853 84.4926 19.9009 84.4926 19.8129C84.4926 19.7249 84.5276 19.6406 84.5899 19.5783C84.6521 19.5161 84.7366 19.4812 84.8247 19.4812H85.8969C85.9841 19.4827 86.0673 19.5182 86.1287 19.5802C86.19 19.6422 86.2247 19.7257 86.2251 19.8129V19.8129ZM595.775 19.2973H593.782V18.63H595.775V16.3343H596.439V18.63H598.43V19.2935H596.439V21.593H595.775V19.2973ZM576.536 15.976H575.872V14.8936H581.398V20.4139H580.311V19.7504H580.734V15.5571H576.536V15.976ZM563.678 12.3382H551.235C550.522 12.3392 549.838 12.623 549.334 13.1274C548.829 13.6318 548.546 14.3154 548.546 15.0282V21.7446C548.547 22.4571 548.83 23.1402 549.334 23.6442C549.838 24.1481 550.522 24.4317 551.235 24.4327H563.678C564.391 24.4317 565.075 24.1481 565.579 23.6442C566.083 23.1402 566.367 22.4571 566.367 21.7446V15.0282C566.366 14.3161 566.082 13.6334 565.578 13.1299C565.074 12.6263 564.391 12.343 563.678 12.342V12.3382ZM549.59 15.0282C549.59 14.5924 549.764 14.1747 550.072 13.8666C550.381 13.5584 550.799 13.3851 551.235 13.3846H557.406L555.509 15.4282L555.917 15.8073L557.129 14.5031V19.0091H557.793V14.5031L559.008 15.8073L559.414 15.4282L557.516 13.3846H563.688C564.124 13.3851 564.542 13.5584 564.85 13.8666C565.159 14.1747 565.332 14.5924 565.333 15.0282V21.7446C565.333 22.1807 565.16 22.599 564.851 22.9075C564.543 23.216 564.124 23.3896 563.688 23.3901H551.245C550.808 23.3896 550.39 23.216 550.081 22.9075C549.773 22.599 549.599 22.1807 549.599 21.7446L549.59 15.0282ZM579.931 16.3552H574.404V21.8773H579.931V16.3552ZM575.068 21.2138V17.0225H579.267V21.2176L575.068 21.2138ZM590.418 24.3342H601.794V12.9732H590.418V24.3342ZM600.94 13.8225V23.4906H591.272V13.8263L600.94 13.8225ZM600.504 1H17.4963C12.8575 1.00502 8.41019 2.84809 5.13009 6.12483C1.84999 9.40157 0.00502303 13.8443 0 18.4784L0 395.522C0.00502303 400.156 1.84999 404.598 5.13009 407.875C8.41019 411.152 12.8575 412.995 17.4963 413H600.504C605.142 412.995 609.59 411.152 612.87 407.875C616.15 404.598 617.995 400.156 618 395.522V18.4784C617.995 13.8443 616.15 9.40157 612.87 6.12483C609.59 2.84809 605.142 1.00502 600.504 1V1ZM600.504 410.156H17.4963C13.6123 410.152 9.88868 408.609 7.14229 405.865C4.3959 403.121 2.85099 399.402 2.84647 395.522V35.8164H615.154V395.522C615.149 399.402 613.604 403.121 610.858 405.865C608.111 408.609 604.388 410.152 600.504 410.156V410.156ZM17.4963 3.84355H600.504C604.388 3.84806 608.111 5.39139 610.858 8.13497C613.604 10.8786 615.149 14.5983 615.154 18.4784V32.9729H2.84647V18.4784C2.85099 14.5983 4.3959 10.8786 7.14229 8.13497C9.88868 5.39139 13.6123 3.84806 17.4963 3.84355V3.84355ZM584.121 12.342H571.68C570.967 12.3425 570.283 12.6256 569.779 13.1292C569.274 13.6328 568.991 14.3157 568.99 15.0282V21.7446C568.99 22.4574 569.274 23.1409 569.778 23.6449C570.283 24.1489 570.967 24.4322 571.68 24.4327H584.121C584.835 24.4322 585.519 24.1489 586.024 23.6449C586.528 23.1409 586.812 22.4574 586.812 21.7446V15.0282C586.811 14.3157 586.527 13.6328 586.023 13.1292C585.518 12.6256 584.835 12.3425 584.121 12.342ZM570.033 15.0282C570.034 14.5921 570.208 14.1741 570.516 13.8659C570.825 13.5577 571.244 13.3846 571.68 13.3846H584.121C584.558 13.3846 584.977 13.5577 585.285 13.8659C585.594 14.1741 585.768 14.5921 585.769 15.0282V21.7446C585.769 22.181 585.595 22.5996 585.286 22.9082C584.977 23.2167 584.558 23.3901 584.121 23.3901H571.68C571.244 23.3901 570.825 23.2167 570.516 22.9082C570.207 22.5996 570.033 22.181 570.033 21.7446V15.0282ZM86.2251 16.7343C86.2246 16.8221 86.1895 16.9062 86.1273 16.9683C86.0652 17.0304 85.981 17.0656 85.8931 17.0661H84.8247C84.7366 17.0661 84.6521 17.0311 84.5899 16.9689C84.5276 16.9067 84.4926 16.8223 84.4926 16.7343C84.4926 16.6463 84.5276 16.5619 84.5899 16.4997C84.6521 16.4375 84.7366 16.4026 84.8247 16.4026H85.8969C85.9843 16.4036 86.0678 16.439 86.1292 16.5011C86.1907 16.5632 86.2252 16.647 86.2251 16.7343V16.7343ZM86.2251 17.7637C86.2251 17.8517 86.1902 17.936 86.1279 17.9983C86.0656 18.0605 85.9811 18.0954 85.8931 18.0954H84.8247C84.7366 18.0954 84.6521 18.0605 84.5899 17.9983C84.5276 17.936 84.4926 17.8517 84.4926 17.7637C84.4926 17.6757 84.5276 17.5913 84.5899 17.5291C84.6521 17.4669 84.7366 17.4319 84.8247 17.4319H85.8969C85.9825 17.4333 86.0643 17.4676 86.1254 17.5275C86.1865 17.5875 86.2222 17.6687 86.2251 17.7542V17.7637ZM560.446 21.9645H554.461V15.976H556.647V16.6395H555.129V21.284H559.786V16.6395H558.268V15.976H560.454L560.446 21.9645ZM93.2085 15.0282H83.521V22.1257H93.2085V15.0282ZM84.1852 21.4736V15.6974H86.6768V21.4736H84.1852ZM87.341 21.4736V15.6974H92.5443V21.4736H87.341ZM86.2251 18.7892C86.2251 18.8772 86.1902 18.9616 86.1279 19.0238C86.0656 19.086 85.9811 19.121 85.8931 19.121H84.8247C84.7366 19.121 84.6521 19.086 84.5899 19.0238C84.5276 18.9616 84.4926 18.8772 84.4926 18.7892C84.4926 18.7013 84.5276 18.6169 84.5899 18.5547C84.6521 18.4924 84.7366 18.4575 84.8247 18.4575H85.8969C85.9831 18.4589 86.0655 18.4937 86.1267 18.5545C86.1879 18.6153 86.2232 18.6974 86.2251 18.7836V18.7892ZM94.5862 12.45H82.1433C81.4301 12.451 80.7465 12.7346 80.2424 13.2386C79.7383 13.7425 79.4549 14.4257 79.4544 15.1381V21.8527C79.4554 22.5648 79.739 23.2475 80.243 23.751C80.7471 24.2546 81.4305 24.5379 82.1433 24.5389H94.5862C95.299 24.5379 95.9824 24.2546 96.4864 23.751C96.9905 23.2475 97.2741 22.5648 97.2751 21.8527V15.1381C97.2746 14.4257 96.9912 13.7425 96.4871 13.2386C95.983 12.7346 95.2993 12.451 94.5862 12.45V12.45ZM80.4981 15.1381C80.4986 14.7022 80.672 14.2843 80.9804 13.9758C81.2888 13.6674 81.7069 13.4937 82.1433 13.4927H94.5862C95.0225 13.4937 95.4407 13.6674 95.7491 13.9758C96.0575 14.2843 96.2309 14.7022 96.2314 15.1381V21.8527C96.2309 22.2884 96.0574 22.7062 95.749 23.0143C95.4405 23.3224 95.0224 23.4958 94.5862 23.4963H82.1433C81.7071 23.4958 81.2889 23.3224 80.9805 23.0143C80.6721 22.7062 80.4986 22.2884 80.4981 21.8527V15.1381ZM417.301 12.3249H184.694C184.055 12.3254 183.443 12.579 182.991 13.0299C182.539 13.4809 182.285 14.0925 182.284 14.7306V22.0081C182.285 22.6464 182.539 23.2581 182.991 23.7094C183.443 24.1607 184.055 24.4147 184.694 24.4157H417.301C417.94 24.4147 418.552 24.1606 419.004 23.7093C419.455 23.258 419.709 22.6462 419.71 22.0081V14.7306C419.709 14.0927 419.455 13.4811 419.004 13.0301C418.552 12.579 417.94 12.3254 417.301 12.3249V12.3249ZM183.322 14.7306C183.323 14.369 183.467 14.0226 183.723 13.7672C183.979 13.5117 184.326 13.368 184.688 13.3675H417.301C417.663 13.368 418.01 13.5118 418.266 13.7673C418.521 14.0228 418.665 14.3692 418.666 14.7306V22.0081C418.665 22.3697 418.521 22.7162 418.266 22.9721C418.01 23.2279 417.663 23.372 417.301 23.373H184.694C184.332 23.3725 183.984 23.2286 183.728 22.9727C183.472 22.7169 183.328 22.37 183.328 22.0081L183.322 14.7306Z" fill="white"/>
</g>
</g>
</g>
<defs>
<filter id="filter0_b" x="-10" y="-10" width="638" height="435" filterUnits="userSpaceOnUse" color-interpolation-filters="sRGB">
<feFlood flood-opacity="0" result="BackgroundImageFix"/>
<feGaussianBlur in="BackgroundImage" stdDeviation="5"/>
<feComposite in2="SourceAlpha" operator="in" result="effect1_backgroundBlur"/>
<feBlend mode="normal" in="SourceGraphic" in2="effect1_backgroundBlur" result="shape"/>
</filter>
<filter id="filter1_b" x="105" y="272" width="108.47" height="62.4703" filterUnits="userSpaceOnUse" color-interpolation-filters="sRGB">
<feFlood flood-opacity="0" result="BackgroundImageFix"/>
<feGaussianBlur in="BackgroundImage" stdDeviation="5"/>
<feComposite in2="SourceAlpha" operator="in" result="effect1_backgroundBlur"/>
<feBlend mode="normal" in="SourceGraphic" in2="effect1_backgroundBlur" result="shape"/>
</filter>
<clipPath id="clip0">
<rect width="618" height="415" rx="20" fill="white"/>
</clipPath>
<clipPath id="clip1">
<rect width="618" height="412" fill="white" transform="translate(0 1)"/>
</clipPath>
</defs>
</svg>
