<?xml version="1.0" encoding="utf-8"?>
<!-- Generator: Adobe Illustrator 25.4.1, SVG Export Plug-In . SVG Version: 6.00 Build 0)  -->
<svg version="1.1" id="Layer_1" xmlns="http://www.w3.org/2000/svg" xmlns:xlink="http://www.w3.org/1999/xlink" x="0px" y="0px"
	 viewBox="0 0 618 420" style="enable-background:new 0 0 618 420;" xml:space="preserve">
<style type="text/css">
	.st0{clip-path:url(#SVGID_00000060748043530553540140000010724353868082333102_);}
	.st1{fill:#FFFFFF;fill-opacity:2.000000e-02;}
	.st2{clip-path:url(#SVGID_00000091709072897640025340000005420373781818445709_);}
	.st3{fill:#FFFFFF;}
	.st4{fill:#FFFFFF;fill-opacity:0.1;}
	.st5{fill:#FFFFFF;fill-opacity:0.3;}
	.st6{fill:#FFFFFF;fill-opacity:0.8;}
	.st7{fill:none;stroke:#FFFFFF;stroke-width:0.7167;stroke-dasharray:0.72,0.72;}
	.st8{clip-path:url(#SVGID_00000042708186506632693240000002330438353544970662_);}
	.st9{fill:#FFFFFF;fill-opacity:0.5;}
	.st10{fill:none;stroke:#FFFFFF;stroke-width:0.4674;}
	.st11{clip-path:url(#SVGID_00000179646246035334422980000017186889527174475691_);}
</style>
<g>
	<g>
		<defs>
			<path id="SVGID_1_" d="M20,0h578c11,0,20,9,20,20v380c0,11-9,20-20,20H20c-11,0-20-9-20-20V20C0,9,9,0,20,0z"/>
		</defs>
		<clipPath id="SVGID_00000180360550796936431660000013331901661356194446_">
			<use xlink:href="#SVGID_1_"  style="overflow:visible;"/>
		</clipPath>
		<g style="clip-path:url(#SVGID_00000180360550796936431660000013331901661356194446_);">
			<path class="st1" d="M20,0h578c11,0,20,9,20,20v380c0,11-9,20-20,20H20c-11,0-20-9-20-20V20C0,9,9,0,20,0z"/>
			<g>
				<defs>
					<rect id="SVGID_00000174572069307750421250000006186503391021650844_" x="-29" y="36" width="677.3" height="420"/>
				</defs>
				<clipPath id="SVGID_00000087388901365248372550000005520562032948158364_">
					<use xlink:href="#SVGID_00000174572069307750421250000006186503391021650844_"  style="overflow:visible;"/>
				</clipPath>
				<g style="clip-path:url(#SVGID_00000087388901365248372550000005520562032948158364_);">
					<path class="st3" d="M98.4,224.2c0,0.3,0,0.5-0.1,0.8c-0.1,0.2-0.2,0.4-0.3,0.6c-0.1,0.2-0.3,0.3-0.5,0.4
						c-0.2,0.1-0.4,0.1-0.7,0.1c-0.2,0-0.5,0-0.7-0.1c0-0.1,0-0.1,0-0.2c0-0.1,0-0.1,0-0.2c0,0,0-0.1,0-0.1c0,0,0.1,0,0.1,0
						c0,0,0.1,0,0.2,0c0.1,0,0.2,0,0.3,0c0.2,0,0.3,0,0.4-0.1s0.2-0.1,0.3-0.2c0.1-0.1,0.1-0.2,0.2-0.4c0-0.2,0.1-0.3,0.1-0.6v-3.4
						h0.7V224.2z M102.4,222.4v3.6H102c-0.1,0-0.1,0-0.2-0.1l-0.1-0.4c-0.2,0.2-0.3,0.3-0.5,0.4c-0.2,0.1-0.4,0.2-0.7,0.2
						c-0.2,0-0.4,0-0.5-0.1c-0.2-0.1-0.3-0.2-0.4-0.3c-0.1-0.1-0.2-0.3-0.2-0.4c-0.1-0.2-0.1-0.4-0.1-0.6v-2.3h0.6v2.3
						c0,0.3,0.1,0.5,0.2,0.6c0.1,0.2,0.3,0.2,0.6,0.2c0.2,0,0.4,0,0.5-0.1c0.2-0.1,0.3-0.2,0.5-0.4v-2.7H102.4z M104,222.9
						c0.1-0.1,0.2-0.2,0.2-0.2c0.1-0.1,0.2-0.1,0.3-0.2c0.1-0.1,0.2-0.1,0.3-0.1c0.1,0,0.2,0,0.4,0c0.2,0,0.4,0,0.5,0.1
						c0.2,0.1,0.3,0.2,0.4,0.3c0.1,0.1,0.2,0.3,0.2,0.4c0.1,0.2,0.1,0.4,0.1,0.6v2.3h-0.6v-2.3c0-0.3-0.1-0.5-0.2-0.6
						c-0.1-0.2-0.3-0.2-0.6-0.2c-0.2,0-0.4,0-0.5,0.1c-0.2,0.1-0.3,0.2-0.5,0.4v2.7h-0.6v-3.6h0.4c0.1,0,0.1,0,0.2,0.1L104,222.9z
						 M108.1,222.4v3.6h-0.6v-3.6H108.1z M108.2,221.2c0,0.1,0,0.1,0,0.2c0,0.1-0.1,0.1-0.1,0.1c0,0-0.1,0.1-0.1,0.1
						c-0.1,0-0.1,0-0.2,0c-0.1,0-0.1,0-0.2,0c-0.1,0-0.1-0.1-0.1-0.1c0,0-0.1-0.1-0.1-0.1c0-0.1,0-0.1,0-0.2c0-0.1,0-0.1,0-0.2
						c0-0.1,0.1-0.1,0.1-0.1c0,0,0.1-0.1,0.1-0.1c0.1,0,0.1,0,0.2,0c0.1,0,0.1,0,0.2,0c0.1,0,0.1,0.1,0.1,0.1c0,0,0.1,0.1,0.1,0.1
						C108.2,221.1,108.2,221.2,108.2,221.2z M110.7,222.3c0.3,0,0.5,0,0.7,0.1c0.2,0.1,0.4,0.2,0.5,0.4c0.2,0.2,0.3,0.4,0.3,0.6
						c0.1,0.2,0.1,0.5,0.1,0.8c0,0.3,0,0.5-0.1,0.8c-0.1,0.2-0.2,0.4-0.3,0.6c-0.2,0.2-0.3,0.3-0.5,0.4c-0.2,0.1-0.5,0.1-0.7,0.1
						c-0.3,0-0.5,0-0.7-0.1c-0.2-0.1-0.4-0.2-0.5-0.4c-0.2-0.2-0.3-0.4-0.3-0.6c-0.1-0.2-0.1-0.5-0.1-0.8c0-0.3,0-0.5,0.1-0.8
						c0.1-0.2,0.2-0.4,0.3-0.6c0.2-0.2,0.3-0.3,0.5-0.4C110.2,222.4,110.4,222.3,110.7,222.3z M110.7,225.6c0.4,0,0.6-0.1,0.8-0.4
						c0.2-0.2,0.3-0.6,0.3-1c0-0.4-0.1-0.8-0.3-1c-0.2-0.2-0.4-0.4-0.8-0.4c-0.2,0-0.3,0-0.5,0.1c-0.1,0.1-0.2,0.2-0.3,0.3
						c-0.1,0.1-0.2,0.3-0.2,0.4c0,0.2-0.1,0.4-0.1,0.6c0,0.4,0.1,0.8,0.3,1C110,225.4,110.3,225.6,110.7,225.6z M113.8,223.1
						c0.1-0.2,0.3-0.4,0.4-0.6c0.2-0.1,0.4-0.2,0.6-0.2c0.1,0,0.1,0,0.2,0c0.1,0,0.1,0,0.2,0.1l0,0.5c0,0.1-0.1,0.1-0.1,0.1
						c0,0-0.1,0-0.1,0c-0.1,0-0.1,0-0.2,0c-0.1,0-0.2,0-0.3,0.1c-0.1,0-0.2,0.1-0.2,0.1c-0.1,0.1-0.1,0.1-0.2,0.2
						c-0.1,0.1-0.1,0.2-0.2,0.3v2.3h-0.6v-3.6h0.4c0.1,0,0.1,0,0.1,0c0,0,0,0.1,0.1,0.1L113.8,223.1z M124.2,220.9l-1.6,5.1H122
						l-1.3-3.9c0,0,0-0.1,0-0.1c0,0,0-0.1,0-0.1c0,0,0,0.1,0,0.1s0,0.1,0,0.1l-1.3,3.9h-0.6l-1.6-5.1h0.6c0.1,0,0.1,0,0.2,0
						c0,0,0.1,0.1,0.1,0.1l1.1,3.6c0,0.1,0,0.1,0,0.2c0,0.1,0,0.2,0,0.2c0-0.1,0-0.2,0.1-0.2c0-0.1,0-0.1,0.1-0.2l1.2-3.6
						c0,0,0-0.1,0.1-0.1c0,0,0.1-0.1,0.2-0.1h0.2c0.1,0,0.1,0,0.2,0c0,0,0.1,0.1,0.1,0.1l1.2,3.6c0,0.1,0,0.1,0.1,0.2
						c0,0.1,0,0.1,0.1,0.2c0-0.1,0-0.2,0-0.2c0-0.1,0-0.1,0-0.2l1.1-3.6c0,0,0-0.1,0.1-0.1c0,0,0.1,0,0.2,0H124.2z M126.9,223.8
						c0-0.1,0-0.3-0.1-0.4c0-0.1-0.1-0.2-0.2-0.3c-0.1-0.1-0.2-0.2-0.3-0.2c-0.1,0-0.2-0.1-0.4-0.1c-0.3,0-0.5,0.1-0.7,0.3
						c-0.2,0.2-0.3,0.4-0.3,0.7H126.9z M127.4,225.5c-0.1,0.1-0.2,0.2-0.3,0.3c-0.1,0.1-0.2,0.1-0.4,0.2c-0.1,0-0.3,0.1-0.4,0.1
						c-0.1,0-0.3,0-0.4,0c-0.3,0-0.5,0-0.7-0.1c-0.2-0.1-0.4-0.2-0.5-0.4c-0.2-0.2-0.3-0.4-0.4-0.6c-0.1-0.2-0.1-0.5-0.1-0.8
						c0-0.3,0-0.5,0.1-0.7c0.1-0.2,0.2-0.4,0.3-0.6c0.1-0.2,0.3-0.3,0.5-0.4c0.2-0.1,0.4-0.1,0.7-0.1c0.2,0,0.4,0,0.6,0.1
						c0.2,0.1,0.3,0.2,0.5,0.3c0.1,0.1,0.2,0.3,0.3,0.5c0.1,0.2,0.1,0.4,0.1,0.7c0,0.1,0,0.2,0,0.2c0,0-0.1,0.1-0.1,0.1h-2.4
						c0,0.2,0,0.4,0.1,0.6c0.1,0.2,0.1,0.3,0.2,0.4c0.1,0.1,0.2,0.2,0.4,0.3c0.1,0.1,0.3,0.1,0.5,0.1c0.2,0,0.3,0,0.4-0.1
						c0.1,0,0.2-0.1,0.3-0.1c0.1,0,0.2-0.1,0.2-0.1c0.1,0,0.1-0.1,0.1-0.1c0.1,0,0.1,0,0.1,0.1L127.4,225.5z M128.9,225.1
						c0.1,0.2,0.2,0.3,0.4,0.3c0.1,0.1,0.3,0.1,0.5,0.1c0.3,0,0.6-0.1,0.8-0.4c0.2-0.2,0.3-0.6,0.3-1.1c0-0.4-0.1-0.8-0.2-1
						c-0.2-0.2-0.4-0.3-0.7-0.3c-0.2,0-0.4,0-0.5,0.1c-0.2,0.1-0.3,0.2-0.4,0.4V225.1z M128.9,222.9c0.2-0.2,0.3-0.3,0.5-0.4
						c0.2-0.1,0.4-0.2,0.7-0.2c0.2,0,0.4,0,0.6,0.1c0.2,0.1,0.3,0.2,0.4,0.4c0.1,0.2,0.2,0.3,0.3,0.6c0.1,0.2,0.1,0.5,0.1,0.7
						c0,0.3,0,0.6-0.1,0.8c-0.1,0.2-0.2,0.4-0.3,0.6c-0.1,0.2-0.3,0.3-0.5,0.4c-0.2,0.1-0.4,0.1-0.7,0.1c-0.2,0-0.4,0-0.6-0.1
						c-0.2-0.1-0.3-0.2-0.4-0.4l0,0.3c0,0.1-0.1,0.1-0.2,0.1h-0.4v-5.3h0.6V222.9z M138.7,223.4c0,0.4-0.1,0.7-0.2,1
						c-0.1,0.3-0.3,0.6-0.5,0.8c-0.2,0.2-0.5,0.4-0.8,0.5c-0.3,0.1-0.7,0.2-1,0.2h-1.9v-5.1h1.9c0.4,0,0.7,0.1,1,0.2
						c0.3,0.1,0.6,0.3,0.8,0.5c0.2,0.2,0.4,0.5,0.5,0.8C138.6,222.7,138.7,223,138.7,223.4z M137.9,223.4c0-0.3,0-0.6-0.1-0.8
						c-0.1-0.2-0.2-0.5-0.4-0.6c-0.2-0.2-0.3-0.3-0.6-0.4c-0.2-0.1-0.5-0.1-0.8-0.1h-1.2v4h1.2c0.3,0,0.5,0,0.8-0.1
						c0.2-0.1,0.4-0.2,0.6-0.4c0.2-0.2,0.3-0.4,0.4-0.6C137.9,224,137.9,223.7,137.9,223.4z M141.9,223.8c0-0.1,0-0.3-0.1-0.4
						c0-0.1-0.1-0.2-0.2-0.3c-0.1-0.1-0.2-0.2-0.3-0.2c-0.1,0-0.2-0.1-0.4-0.1c-0.3,0-0.5,0.1-0.7,0.3c-0.2,0.2-0.3,0.4-0.3,0.7
						H141.9z M142.4,225.5c-0.1,0.1-0.2,0.2-0.3,0.3c-0.1,0.1-0.2,0.1-0.4,0.2c-0.1,0-0.3,0.1-0.4,0.1c-0.1,0-0.3,0-0.4,0
						c-0.3,0-0.5,0-0.7-0.1c-0.2-0.1-0.4-0.2-0.5-0.4c-0.2-0.2-0.3-0.4-0.4-0.6c-0.1-0.2-0.1-0.5-0.1-0.8c0-0.3,0-0.5,0.1-0.7
						c0.1-0.2,0.2-0.4,0.3-0.6c0.1-0.2,0.3-0.3,0.5-0.4c0.2-0.1,0.4-0.1,0.7-0.1c0.2,0,0.4,0,0.6,0.1c0.2,0.1,0.3,0.2,0.5,0.3
						c0.1,0.1,0.2,0.3,0.3,0.5c0.1,0.2,0.1,0.4,0.1,0.7c0,0.1,0,0.2,0,0.2c0,0-0.1,0.1-0.1,0.1h-2.4c0,0.2,0,0.4,0.1,0.6
						c0.1,0.2,0.1,0.3,0.2,0.4c0.1,0.1,0.2,0.2,0.4,0.3c0.1,0.1,0.3,0.1,0.5,0.1c0.2,0,0.3,0,0.4-0.1c0.1,0,0.2-0.1,0.3-0.1
						c0.1,0,0.2-0.1,0.2-0.1c0.1,0,0.1-0.1,0.1-0.1c0.1,0,0.1,0,0.1,0.1L142.4,225.5z M145.4,223c0,0.1-0.1,0.1-0.1,0.1
						c0,0-0.1,0-0.1,0c0,0-0.1-0.1-0.2-0.1c-0.1,0-0.1-0.1-0.2-0.1c-0.1,0-0.2,0-0.3,0c-0.1,0-0.2,0-0.3,0c-0.1,0-0.2,0.1-0.2,0.1
						c-0.1,0-0.1,0.1-0.1,0.2c0,0.1,0,0.1,0,0.2c0,0.1,0,0.2,0.1,0.2c0.1,0.1,0.1,0.1,0.2,0.2c0.1,0,0.2,0.1,0.3,0.1
						c0.1,0,0.2,0.1,0.3,0.1c0.1,0,0.2,0.1,0.3,0.1c0.1,0,0.2,0.1,0.3,0.2c0.1,0.1,0.2,0.2,0.2,0.3c0.1,0.1,0.1,0.2,0.1,0.4
						c0,0.2,0,0.3-0.1,0.5c-0.1,0.1-0.1,0.3-0.3,0.4c-0.1,0.1-0.3,0.2-0.4,0.2c-0.2,0.1-0.4,0.1-0.6,0.1c-0.3,0-0.5,0-0.7-0.1
						c-0.2-0.1-0.4-0.2-0.5-0.3l0.2-0.2c0,0,0-0.1,0.1-0.1c0,0,0.1,0,0.1,0c0,0,0.1,0,0.1,0.1c0,0,0.1,0.1,0.2,0.1
						c0.1,0,0.2,0.1,0.3,0.1c0.1,0,0.2,0.1,0.4,0.1c0.1,0,0.2,0,0.3,0c0.1,0,0.2-0.1,0.2-0.1c0.1-0.1,0.1-0.1,0.1-0.2
						c0-0.1,0-0.1,0-0.2c0-0.1,0-0.2-0.1-0.2c-0.1-0.1-0.1-0.1-0.2-0.2c-0.1,0-0.2-0.1-0.3-0.1c-0.1,0-0.2-0.1-0.3-0.1
						c-0.1,0-0.2-0.1-0.3-0.1c-0.1-0.1-0.2-0.1-0.3-0.2c-0.1-0.1-0.2-0.2-0.2-0.3c-0.1-0.1-0.1-0.2-0.1-0.4c0-0.1,0-0.3,0.1-0.4
						c0.1-0.1,0.1-0.2,0.3-0.3c0.1-0.1,0.2-0.2,0.4-0.2c0.2-0.1,0.3-0.1,0.5-0.1c0.2,0,0.5,0,0.6,0.1c0.2,0.1,0.4,0.2,0.5,0.3
						L145.4,223z M147,222.4v3.6h-0.6v-3.6H147z M147.2,221.2c0,0.1,0,0.1,0,0.2c0,0.1-0.1,0.1-0.1,0.1c0,0-0.1,0.1-0.1,0.1
						c-0.1,0-0.1,0-0.2,0c-0.1,0-0.1,0-0.2,0c-0.1,0-0.1-0.1-0.1-0.1c0,0-0.1-0.1-0.1-0.1c0-0.1,0-0.1,0-0.2c0-0.1,0-0.1,0-0.2
						c0-0.1,0.1-0.1,0.1-0.1c0,0,0.1-0.1,0.1-0.1c0.1,0,0.1,0,0.2,0c0.1,0,0.1,0,0.2,0c0.1,0,0.1,0.1,0.1,0.1c0,0,0.1,0.1,0.1,0.1
						C147.1,221.1,147.2,221.2,147.2,221.2z M149.3,224.2c0.1,0,0.2,0,0.3-0.1c0.1,0,0.2-0.1,0.2-0.1c0.1-0.1,0.1-0.1,0.2-0.2
						c0-0.1,0-0.2,0-0.3c0-0.2-0.1-0.4-0.2-0.5c-0.1-0.1-0.3-0.2-0.6-0.2c-0.3,0-0.5,0.1-0.6,0.2c-0.1,0.1-0.2,0.3-0.2,0.5
						c0,0.1,0,0.2,0,0.3c0,0.1,0.1,0.2,0.2,0.2c0.1,0.1,0.1,0.1,0.2,0.1C149.1,224.2,149.2,224.2,149.3,224.2z M150.5,226.2
						c0-0.1,0-0.2-0.1-0.2c-0.1-0.1-0.1-0.1-0.2-0.1c-0.1,0-0.2-0.1-0.3-0.1c-0.1,0-0.2,0-0.4,0c-0.1,0-0.2,0-0.4,0s-0.3,0-0.4,0
						c-0.1,0.1-0.2,0.1-0.3,0.2c-0.1,0.1-0.1,0.2-0.1,0.3c0,0.1,0,0.2,0.1,0.2c0,0.1,0.1,0.1,0.2,0.2c0.1,0.1,0.2,0.1,0.3,0.1
						c0.1,0,0.3,0,0.5,0c0.2,0,0.3,0,0.5,0c0.1,0,0.3-0.1,0.3-0.1c0.1-0.1,0.2-0.1,0.2-0.2S150.5,226.3,150.5,226.2z M151.1,222.5
						v0.2c0,0.1-0.1,0.1-0.2,0.1l-0.4,0.1c0.1,0.2,0.1,0.3,0.1,0.5c0,0.2,0,0.3-0.1,0.5c-0.1,0.1-0.2,0.3-0.3,0.4
						c-0.1,0.1-0.3,0.2-0.4,0.2c-0.2,0.1-0.3,0.1-0.5,0.1c-0.2,0-0.3,0-0.5-0.1c-0.1,0-0.1,0.1-0.2,0.2c0,0.1-0.1,0.1-0.1,0.2
						c0,0.1,0,0.2,0.1,0.2c0.1,0,0.2,0.1,0.3,0.1c0.1,0,0.2,0,0.4,0c0.1,0,0.3,0,0.5,0c0.2,0,0.3,0,0.5,0.1c0.1,0,0.3,0.1,0.4,0.1
						c0.1,0.1,0.2,0.1,0.3,0.2c0.1,0.1,0.1,0.2,0.1,0.4c0,0.2,0,0.3-0.1,0.5c-0.1,0.1-0.2,0.3-0.3,0.4c-0.1,0.1-0.3,0.2-0.5,0.3
						c-0.2,0.1-0.4,0.1-0.7,0.1c-0.3,0-0.5,0-0.7-0.1c-0.2-0.1-0.4-0.1-0.5-0.2c-0.1-0.1-0.2-0.2-0.3-0.3c-0.1-0.1-0.1-0.2-0.1-0.4
						c0-0.2,0.1-0.3,0.2-0.5c0.1-0.1,0.3-0.2,0.5-0.3c-0.1,0-0.2-0.1-0.3-0.2c-0.1-0.1-0.1-0.2-0.1-0.3c0-0.1,0-0.1,0-0.2
						c0-0.1,0-0.1,0.1-0.2c0-0.1,0.1-0.1,0.1-0.2c0.1-0.1,0.1-0.1,0.2-0.1c-0.2-0.1-0.3-0.2-0.4-0.4c-0.1-0.2-0.2-0.4-0.2-0.6
						c0-0.2,0-0.3,0.1-0.5c0.1-0.1,0.2-0.3,0.3-0.4c0.1-0.1,0.3-0.2,0.4-0.2c0.2-0.1,0.4-0.1,0.6-0.1c0.2,0,0.3,0,0.4,0.1
						c0.1,0,0.3,0.1,0.4,0.1H151.1z M152.4,222.9c0.1-0.1,0.2-0.2,0.3-0.2c0.1-0.1,0.2-0.1,0.3-0.2c0.1-0.1,0.2-0.1,0.3-0.1
						c0.1,0,0.2,0,0.4,0c0.2,0,0.4,0,0.5,0.1c0.2,0.1,0.3,0.2,0.4,0.3c0.1,0.1,0.2,0.3,0.2,0.4c0.1,0.2,0.1,0.4,0.1,0.6v2.3h-0.6
						v-2.3c0-0.3-0.1-0.5-0.2-0.6c-0.1-0.2-0.3-0.2-0.6-0.2c-0.2,0-0.4,0-0.5,0.1c-0.2,0.1-0.3,0.2-0.5,0.4v2.7h-0.6v-3.6h0.4
						c0.1,0,0.1,0,0.2,0.1L152.4,222.9z M158.2,223.8c0-0.1,0-0.3-0.1-0.4c0-0.1-0.1-0.2-0.2-0.3c-0.1-0.1-0.2-0.2-0.3-0.2
						c-0.1,0-0.2-0.1-0.4-0.1c-0.3,0-0.5,0.1-0.7,0.3c-0.2,0.2-0.3,0.4-0.3,0.7H158.2z M158.7,225.5c-0.1,0.1-0.2,0.2-0.3,0.3
						c-0.1,0.1-0.2,0.1-0.4,0.2c-0.1,0-0.3,0.1-0.4,0.1c-0.1,0-0.3,0-0.4,0c-0.3,0-0.5,0-0.7-0.1c-0.2-0.1-0.4-0.2-0.5-0.4
						c-0.2-0.2-0.3-0.4-0.4-0.6c-0.1-0.2-0.1-0.5-0.1-0.8c0-0.3,0-0.5,0.1-0.7c0.1-0.2,0.2-0.4,0.3-0.6c0.1-0.2,0.3-0.3,0.5-0.4
						c0.2-0.1,0.4-0.1,0.7-0.1c0.2,0,0.4,0,0.6,0.1c0.2,0.1,0.3,0.2,0.5,0.3c0.1,0.1,0.2,0.3,0.3,0.5c0.1,0.2,0.1,0.4,0.1,0.7
						c0,0.1,0,0.2,0,0.2c0,0-0.1,0.1-0.1,0.1h-2.4c0,0.2,0,0.4,0.1,0.6c0.1,0.2,0.1,0.3,0.2,0.4c0.1,0.1,0.2,0.2,0.4,0.3
						c0.1,0.1,0.3,0.1,0.5,0.1c0.2,0,0.3,0,0.4-0.1c0.1,0,0.2-0.1,0.3-0.1s0.2-0.1,0.2-0.1c0.1,0,0.1-0.1,0.1-0.1
						c0.1,0,0.1,0,0.1,0.1L158.7,225.5z M160.2,223.1c0.1-0.2,0.3-0.4,0.4-0.6c0.2-0.1,0.4-0.2,0.6-0.2c0.1,0,0.1,0,0.2,0
						c0.1,0,0.1,0,0.2,0.1l0,0.5c0,0.1,0,0.1-0.1,0.1c0,0-0.1,0-0.1,0c-0.1,0-0.1,0-0.2,0c-0.1,0-0.2,0-0.3,0.1
						c-0.1,0-0.2,0.1-0.2,0.1c-0.1,0.1-0.1,0.1-0.2,0.2c-0.1,0.1-0.1,0.2-0.2,0.3v2.3h-0.6v-3.6h0.4c0.1,0,0.1,0,0.1,0
						c0,0,0,0.1,0.1,0.1L160.2,223.1z M164.2,226.1c0,0.1-0.1,0.1-0.1,0.2c-0.1,0-0.1,0.1-0.2,0.1h-0.3l2.2-5.4
						c0-0.1,0.1-0.1,0.1-0.2c0.1,0,0.1-0.1,0.2-0.1h0.3L164.2,226.1z M172.7,224.9c0,0,0.1,0,0.1,0l0.3,0.3
						c-0.2,0.2-0.5,0.4-0.8,0.6c-0.3,0.1-0.7,0.2-1.1,0.2c-0.4,0-0.7-0.1-1-0.2c-0.3-0.1-0.6-0.3-0.8-0.5c-0.2-0.2-0.4-0.5-0.5-0.8
						c-0.1-0.3-0.2-0.7-0.2-1.1c0-0.4,0.1-0.7,0.2-1.1c0.1-0.3,0.3-0.6,0.5-0.8c0.2-0.2,0.5-0.4,0.8-0.5c0.3-0.1,0.6-0.2,1-0.2
						c0.4,0,0.7,0.1,1,0.2c0.3,0.1,0.5,0.3,0.7,0.5l-0.2,0.3c0,0,0,0-0.1,0.1c0,0-0.1,0-0.1,0c0,0-0.1,0-0.2-0.1
						c-0.1,0-0.1-0.1-0.2-0.2c-0.1-0.1-0.2-0.1-0.4-0.2c-0.2,0-0.3-0.1-0.6-0.1c-0.3,0-0.5,0-0.7,0.1c-0.2,0.1-0.4,0.2-0.6,0.4
						c-0.2,0.2-0.3,0.4-0.4,0.6c-0.1,0.3-0.1,0.5-0.1,0.8c0,0.3,0,0.6,0.1,0.9c0.1,0.2,0.2,0.5,0.4,0.6c0.2,0.2,0.3,0.3,0.6,0.4
						c0.2,0.1,0.5,0.1,0.7,0.1c0.2,0,0.3,0,0.4,0c0.1,0,0.2,0,0.3-0.1c0.1,0,0.2-0.1,0.3-0.1c0.1-0.1,0.2-0.1,0.3-0.2
						C172.6,225,172.7,224.9,172.7,224.9z M175.2,222.3c0.3,0,0.5,0,0.7,0.1c0.2,0.1,0.4,0.2,0.5,0.4c0.2,0.2,0.3,0.4,0.3,0.6
						c0.1,0.2,0.1,0.5,0.1,0.8c0,0.3,0,0.5-0.1,0.8c-0.1,0.2-0.2,0.4-0.3,0.6c-0.2,0.2-0.3,0.3-0.5,0.4c-0.2,0.1-0.5,0.1-0.7,0.1
						c-0.3,0-0.5,0-0.7-0.1c-0.2-0.1-0.4-0.2-0.5-0.4c-0.2-0.2-0.3-0.4-0.3-0.6c-0.1-0.2-0.1-0.5-0.1-0.8c0-0.3,0-0.5,0.1-0.8
						c0.1-0.2,0.2-0.4,0.3-0.6c0.2-0.2,0.3-0.3,0.5-0.4C174.7,222.4,174.9,222.3,175.2,222.3z M175.2,225.6c0.4,0,0.6-0.1,0.8-0.4
						c0.2-0.2,0.3-0.6,0.3-1c0-0.4-0.1-0.8-0.3-1c-0.2-0.2-0.4-0.4-0.8-0.4c-0.2,0-0.3,0-0.5,0.1c-0.1,0.1-0.2,0.2-0.3,0.3
						c-0.1,0.1-0.2,0.3-0.2,0.4c0,0.2-0.1,0.4-0.1,0.6c0,0.4,0.1,0.8,0.3,1C174.6,225.4,174.8,225.6,175.2,225.6z M180.1,223.2
						c-0.1-0.2-0.2-0.3-0.4-0.3c-0.1-0.1-0.3-0.1-0.5-0.1c-0.3,0-0.6,0.1-0.8,0.4c-0.2,0.2-0.3,0.6-0.3,1c0,0.2,0,0.4,0.1,0.6
						c0,0.2,0.1,0.3,0.2,0.4c0.1,0.1,0.2,0.2,0.3,0.2c0.1,0.1,0.2,0.1,0.4,0.1c0.2,0,0.4,0,0.5-0.1c0.2-0.1,0.3-0.2,0.4-0.4V223.2z
						 M180.7,220.7v5.3h-0.4c-0.1,0-0.1,0-0.2-0.1l-0.1-0.4c-0.2,0.2-0.3,0.3-0.5,0.5c-0.2,0.1-0.4,0.2-0.7,0.2
						c-0.2,0-0.4,0-0.6-0.1c-0.2-0.1-0.3-0.2-0.4-0.4c-0.1-0.2-0.2-0.3-0.3-0.6c-0.1-0.2-0.1-0.5-0.1-0.8c0-0.3,0-0.5,0.1-0.7
						c0.1-0.2,0.2-0.4,0.3-0.6c0.1-0.2,0.3-0.3,0.5-0.4c0.2-0.1,0.4-0.1,0.7-0.1c0.2,0,0.4,0,0.6,0.1c0.2,0.1,0.3,0.2,0.4,0.3v-2
						H180.7z M184.2,223.8c0-0.1,0-0.3-0.1-0.4c0-0.1-0.1-0.2-0.2-0.3c-0.1-0.1-0.2-0.2-0.3-0.2c-0.1,0-0.2-0.1-0.4-0.1
						c-0.3,0-0.5,0.1-0.7,0.3c-0.2,0.2-0.3,0.4-0.3,0.7H184.2z M184.7,225.5c-0.1,0.1-0.2,0.2-0.3,0.3c-0.1,0.1-0.2,0.1-0.4,0.2
						c-0.1,0-0.3,0.1-0.4,0.1c-0.1,0-0.3,0-0.4,0c-0.3,0-0.5,0-0.7-0.1c-0.2-0.1-0.4-0.2-0.5-0.4c-0.2-0.2-0.3-0.4-0.4-0.6
						c-0.1-0.2-0.1-0.5-0.1-0.8c0-0.3,0-0.5,0.1-0.7c0.1-0.2,0.2-0.4,0.3-0.6c0.1-0.2,0.3-0.3,0.5-0.4c0.2-0.1,0.4-0.1,0.7-0.1
						c0.2,0,0.4,0,0.6,0.1c0.2,0.1,0.3,0.2,0.5,0.3c0.1,0.1,0.2,0.3,0.3,0.5c0.1,0.2,0.1,0.4,0.1,0.7c0,0.1,0,0.2,0,0.2
						c0,0-0.1,0.1-0.1,0.1h-2.4c0,0.2,0,0.4,0.1,0.6c0.1,0.2,0.1,0.3,0.2,0.4c0.1,0.1,0.2,0.2,0.4,0.3c0.1,0.1,0.3,0.1,0.5,0.1
						c0.2,0,0.3,0,0.4-0.1c0.1,0,0.2-0.1,0.3-0.1c0.1,0,0.2-0.1,0.2-0.1c0.1,0,0.1-0.1,0.1-0.1c0.1,0,0.1,0,0.1,0.1L184.7,225.5z
						 M186.1,223.1c0.1-0.2,0.3-0.4,0.4-0.6c0.2-0.1,0.4-0.2,0.6-0.2c0.1,0,0.1,0,0.2,0c0.1,0,0.1,0,0.2,0.1l0,0.5
						c0,0.1,0,0.1-0.1,0.1c0,0-0.1,0-0.1,0c-0.1,0-0.1,0-0.2,0c-0.1,0-0.2,0-0.3,0.1c-0.1,0-0.2,0.1-0.2,0.1
						c-0.1,0.1-0.1,0.1-0.2,0.2c-0.1,0.1-0.1,0.2-0.2,0.3v2.3h-0.6v-3.6h0.4c0.1,0,0.1,0,0.1,0c0,0,0,0.1,0.1,0.1L186.1,223.1z
						 M101.5,234.4l-1.2,3.6h-0.5c-0.1,0-0.1,0-0.1-0.1l-0.8-2.5c0-0.1,0-0.1,0-0.2c0-0.1,0-0.1,0-0.2c0,0.1,0,0.1,0,0.2
						c0,0.1,0,0.1,0,0.2l-0.8,2.5c0,0.1-0.1,0.1-0.1,0.1h-0.5l-1.2-3.6h0.5c0.1,0,0.1,0,0.1,0c0,0,0.1,0.1,0.1,0.1l0.7,2.3
						c0,0.2,0.1,0.3,0.1,0.5c0-0.1,0-0.2,0.1-0.2c0-0.1,0-0.2,0.1-0.2l0.8-2.4c0,0,0-0.1,0.1-0.1c0,0,0.1,0,0.1,0H99
						c0,0,0.1,0,0.1,0c0,0,0.1,0.1,0.1,0.1l0.7,2.4c0,0.1,0.1,0.2,0.1,0.2c0,0.1,0,0.2,0.1,0.2c0-0.1,0-0.2,0-0.2
						c0-0.1,0-0.2,0.1-0.3l0.7-2.3c0,0,0-0.1,0.1-0.1c0,0,0.1,0,0.1,0H101.5z M102.8,234.4v3.6h-0.6v-3.6H102.8z M102.9,233.2
						c0,0.1,0,0.1,0,0.2c0,0.1-0.1,0.1-0.1,0.1c0,0-0.1,0.1-0.1,0.1c-0.1,0-0.1,0-0.2,0c-0.1,0-0.1,0-0.2,0c-0.1,0-0.1-0.1-0.1-0.1
						c0,0-0.1-0.1-0.1-0.1c0-0.1,0-0.1,0-0.2c0-0.1,0-0.1,0-0.2c0-0.1,0.1-0.1,0.1-0.1c0,0,0.1-0.1,0.1-0.1c0.1,0,0.1,0,0.2,0
						c0.1,0,0.1,0,0.2,0c0.1,0,0.1,0.1,0.1,0.1c0,0,0.1,0.1,0.1,0.1C102.9,233.1,102.9,233.2,102.9,233.2z M105,238.1
						c-0.3,0-0.5-0.1-0.7-0.2c-0.2-0.2-0.2-0.4-0.2-0.7v-2.2h-0.4c0,0-0.1,0-0.1,0c0,0,0-0.1,0-0.1v-0.3l0.6-0.1l0.1-1.1
						c0,0,0-0.1,0-0.1c0,0,0.1,0,0.1,0h0.3v1.2h1.1v0.5h-1.1v2.2c0,0.2,0,0.3,0.1,0.3c0.1,0.1,0.2,0.1,0.3,0.1c0.1,0,0.1,0,0.2,0
						c0.1,0,0.1,0,0.1-0.1c0,0,0.1,0,0.1-0.1c0,0,0,0,0.1,0c0,0,0.1,0,0.1,0.1l0.2,0.3c-0.1,0.1-0.2,0.2-0.4,0.2
						C105.3,238,105.1,238.1,105,238.1z M107.1,234.9c0.2-0.2,0.3-0.3,0.5-0.4c0.2-0.1,0.4-0.1,0.7-0.1c0.2,0,0.4,0,0.5,0.1
						c0.2,0.1,0.3,0.2,0.4,0.3c0.1,0.1,0.2,0.3,0.2,0.4c0.1,0.2,0.1,0.4,0.1,0.6v2.3h-0.6v-2.3c0-0.3-0.1-0.5-0.2-0.6
						c-0.1-0.2-0.3-0.2-0.6-0.2c-0.2,0-0.4,0-0.5,0.1c-0.2,0.1-0.3,0.2-0.5,0.4v2.7h-0.6v-5.3h0.6V234.9z M115.3,237.4
						c0.1,0,0.1,0,0.2,0.1c0,0,0.1,0.1,0.1,0.2v0.4h-3.4v-0.2c0,0,0-0.1,0-0.1c0,0,0-0.1,0.1-0.1l1.6-1.7c0.1-0.1,0.3-0.3,0.4-0.4
						c0.1-0.1,0.2-0.3,0.3-0.4c0.1-0.1,0.1-0.3,0.2-0.4c0-0.1,0.1-0.3,0.1-0.4c0-0.2,0-0.3-0.1-0.4c0-0.1-0.1-0.2-0.2-0.3
						c-0.1-0.1-0.2-0.1-0.3-0.2c-0.1,0-0.2-0.1-0.4-0.1c-0.1,0-0.3,0-0.4,0.1c-0.1,0-0.2,0.1-0.3,0.2c-0.1,0.1-0.2,0.1-0.2,0.2
						c-0.1,0.1-0.1,0.2-0.1,0.3c0,0.1-0.1,0.1-0.1,0.2c0,0-0.1,0-0.2,0l-0.3-0.1c0-0.2,0.1-0.4,0.2-0.6c0.1-0.2,0.2-0.3,0.4-0.5
						c0.1-0.1,0.3-0.2,0.5-0.3c0.2-0.1,0.4-0.1,0.6-0.1c0.2,0,0.4,0,0.6,0.1c0.2,0.1,0.4,0.2,0.5,0.3c0.1,0.1,0.2,0.3,0.3,0.4
						c0.1,0.2,0.1,0.4,0.1,0.6c0,0.2,0,0.4-0.1,0.5c-0.1,0.2-0.1,0.3-0.2,0.5s-0.2,0.3-0.3,0.4c-0.1,0.1-0.3,0.3-0.4,0.4l-1.4,1.4
						c0.1,0,0.2,0,0.3-0.1c0.1,0,0.2,0,0.3,0H115.3z M119.7,235.8h-1.5v1.5h-0.5v-1.5h-1.5v-0.5h1.5v-1.5h0.5v1.5h1.5V235.8z
						 M125.4,234.4l-2,4.7c0,0,0,0.1-0.1,0.1c0,0-0.1,0-0.1,0h-0.5l0.7-1.4l-1.5-3.4h0.6c0.1,0,0.1,0,0.1,0c0,0,0.1,0.1,0.1,0.1
						l1,2.3c0,0.1,0.1,0.2,0.1,0.3c0-0.1,0.1-0.2,0.1-0.3l0.9-2.3c0,0,0-0.1,0.1-0.1c0,0,0.1,0,0.1,0H125.4z M128.2,235.8
						c0-0.1,0-0.3-0.1-0.4c0-0.1-0.1-0.2-0.2-0.3c-0.1-0.1-0.2-0.2-0.3-0.2c-0.1,0-0.2-0.1-0.4-0.1c-0.3,0-0.5,0.1-0.7,0.3
						c-0.2,0.2-0.3,0.4-0.3,0.7H128.2z M128.8,237.5c-0.1,0.1-0.2,0.2-0.3,0.3c-0.1,0.1-0.2,0.1-0.4,0.2c-0.1,0-0.3,0.1-0.4,0.1
						c-0.1,0-0.3,0-0.4,0c-0.3,0-0.5,0-0.7-0.1c-0.2-0.1-0.4-0.2-0.5-0.4c-0.2-0.2-0.3-0.4-0.4-0.6c-0.1-0.2-0.1-0.5-0.1-0.8
						c0-0.3,0-0.5,0.1-0.7c0.1-0.2,0.2-0.4,0.3-0.6c0.1-0.2,0.3-0.3,0.5-0.4c0.2-0.1,0.4-0.1,0.7-0.1c0.2,0,0.4,0,0.6,0.1
						c0.2,0.1,0.3,0.2,0.5,0.3c0.1,0.1,0.2,0.3,0.3,0.5c0.1,0.2,0.1,0.4,0.1,0.7c0,0.1,0,0.2,0,0.2c0,0-0.1,0.1-0.1,0.1h-2.4
						c0,0.2,0,0.4,0.1,0.6c0.1,0.2,0.1,0.3,0.2,0.4c0.1,0.1,0.2,0.2,0.4,0.3c0.1,0.1,0.3,0.1,0.5,0.1c0.2,0,0.3,0,0.4-0.1
						c0.1,0,0.2-0.1,0.3-0.1s0.2-0.1,0.2-0.1c0.1,0,0.1-0.1,0.1-0.1c0.1,0,0.1,0,0.1,0.1L128.8,237.5z M131.6,236.4
						c-0.3,0-0.5,0-0.8,0.1c-0.2,0-0.4,0.1-0.5,0.1c-0.1,0.1-0.2,0.1-0.3,0.2c-0.1,0.1-0.1,0.2-0.1,0.3c0,0.1,0,0.2,0,0.2
						c0,0.1,0.1,0.1,0.1,0.2c0.1,0,0.1,0.1,0.2,0.1c0.1,0,0.2,0,0.2,0c0.1,0,0.2,0,0.3,0c0.1,0,0.2-0.1,0.3-0.1
						c0.1,0,0.2-0.1,0.2-0.2c0.1-0.1,0.1-0.1,0.2-0.2V236.4z M129.5,234.9c0.2-0.2,0.4-0.3,0.6-0.4c0.2-0.1,0.5-0.1,0.8-0.1
						c0.2,0,0.4,0,0.5,0.1s0.3,0.2,0.4,0.3c0.1,0.1,0.2,0.3,0.2,0.4c0.1,0.2,0.1,0.4,0.1,0.6v2.3h-0.3c-0.1,0-0.1,0-0.1,0
						c0,0-0.1-0.1-0.1-0.1l-0.1-0.3c-0.1,0.1-0.2,0.2-0.3,0.2c-0.1,0.1-0.2,0.1-0.3,0.2c-0.1,0-0.2,0.1-0.3,0.1c-0.1,0-0.2,0-0.4,0
						c-0.1,0-0.3,0-0.4-0.1c-0.1,0-0.2-0.1-0.3-0.2c-0.1-0.1-0.2-0.2-0.2-0.3c-0.1-0.1-0.1-0.3-0.1-0.4c0-0.1,0-0.3,0.1-0.4
						c0.1-0.1,0.2-0.3,0.4-0.4c0.2-0.1,0.4-0.2,0.7-0.2c0.3-0.1,0.6-0.1,1-0.1v-0.3c0-0.3-0.1-0.5-0.2-0.6c-0.1-0.1-0.3-0.2-0.5-0.2
						c-0.2,0-0.3,0-0.4,0.1c-0.1,0-0.2,0.1-0.3,0.1c-0.1,0-0.1,0.1-0.2,0.1c-0.1,0-0.1,0.1-0.2,0.1c0,0-0.1,0-0.1,0
						c0,0-0.1-0.1-0.1-0.1L129.5,234.9z M133.8,235.1c0.1-0.2,0.3-0.4,0.4-0.6c0.2-0.1,0.4-0.2,0.6-0.2c0.1,0,0.1,0,0.2,0
						c0.1,0,0.1,0,0.2,0.1l0,0.5c0,0.1-0.1,0.1-0.1,0.1c0,0-0.1,0-0.1,0c-0.1,0-0.1,0-0.2,0c-0.1,0-0.2,0-0.3,0.1
						c-0.1,0-0.2,0.1-0.2,0.1c-0.1,0.1-0.1,0.1-0.2,0.2c-0.1,0.1-0.1,0.2-0.1,0.3v2.3h-0.6v-3.6h0.4c0.1,0,0.1,0,0.1,0
						c0,0,0,0.1,0.1,0.1L133.8,235.1z M137.9,235c0,0.1-0.1,0.1-0.1,0.1c0,0-0.1,0-0.1,0c0,0-0.1-0.1-0.2-0.1
						c-0.1,0-0.1-0.1-0.2-0.1c-0.1,0-0.2,0-0.3,0c-0.1,0-0.2,0-0.3,0c-0.1,0-0.2,0.1-0.2,0.1c-0.1,0-0.1,0.1-0.1,0.2
						c0,0.1,0,0.1,0,0.2c0,0.1,0,0.2,0.1,0.2c0.1,0.1,0.1,0.1,0.2,0.2c0.1,0,0.2,0.1,0.3,0.1c0.1,0,0.2,0.1,0.3,0.1
						c0.1,0,0.2,0.1,0.3,0.1c0.1,0,0.2,0.1,0.3,0.2c0.1,0.1,0.2,0.2,0.2,0.3c0.1,0.1,0.1,0.2,0.1,0.4c0,0.2,0,0.3-0.1,0.5
						c-0.1,0.1-0.1,0.3-0.3,0.4c-0.1,0.1-0.3,0.2-0.4,0.2c-0.2,0.1-0.4,0.1-0.6,0.1c-0.3,0-0.5,0-0.7-0.1c-0.2-0.1-0.4-0.2-0.5-0.3
						l0.1-0.2c0,0,0-0.1,0.1-0.1c0,0,0.1,0,0.1,0c0,0,0.1,0,0.1,0.1c0,0,0.1,0.1,0.2,0.1c0.1,0,0.2,0.1,0.3,0.1
						c0.1,0,0.2,0.1,0.4,0.1c0.1,0,0.2,0,0.3,0c0.1,0,0.2-0.1,0.2-0.1c0.1-0.1,0.1-0.1,0.1-0.2c0-0.1,0-0.1,0-0.2
						c0-0.1,0-0.2-0.1-0.2c-0.1-0.1-0.1-0.1-0.2-0.2c-0.1,0-0.2-0.1-0.3-0.1c-0.1,0-0.2-0.1-0.3-0.1c-0.1,0-0.2-0.1-0.3-0.1
						c-0.1-0.1-0.2-0.1-0.3-0.2c-0.1-0.1-0.2-0.2-0.2-0.3c-0.1-0.1-0.1-0.2-0.1-0.4c0-0.1,0-0.3,0.1-0.4c0.1-0.1,0.1-0.2,0.3-0.3
						c0.1-0.1,0.2-0.2,0.4-0.2c0.2-0.1,0.3-0.1,0.5-0.1c0.2,0,0.5,0,0.6,0.1c0.2,0.1,0.4,0.2,0.5,0.3L137.9,235z M142.2,234.3
						c0.3,0,0.5,0,0.7,0.1c0.2,0.1,0.4,0.2,0.5,0.4c0.2,0.2,0.3,0.4,0.3,0.6c0.1,0.2,0.1,0.5,0.1,0.8c0,0.3,0,0.5-0.1,0.8
						c-0.1,0.2-0.2,0.4-0.3,0.6c-0.2,0.2-0.3,0.3-0.5,0.4c-0.2,0.1-0.5,0.1-0.7,0.1c-0.3,0-0.5,0-0.7-0.1c-0.2-0.1-0.4-0.2-0.5-0.4
						c-0.2-0.2-0.3-0.4-0.3-0.6c-0.1-0.2-0.1-0.5-0.1-0.8c0-0.3,0-0.5,0.1-0.8c0.1-0.2,0.2-0.4,0.3-0.6c0.2-0.2,0.3-0.3,0.5-0.4
						C141.7,234.4,142,234.3,142.2,234.3z M142.2,237.6c0.4,0,0.6-0.1,0.8-0.4c0.2-0.2,0.3-0.6,0.3-1c0-0.4-0.1-0.8-0.3-1
						c-0.2-0.2-0.4-0.4-0.8-0.4c-0.2,0-0.3,0-0.5,0.1c-0.1,0.1-0.2,0.2-0.3,0.3c-0.1,0.1-0.2,0.3-0.2,0.4c0,0.2-0.1,0.4-0.1,0.6
						c0,0.4,0.1,0.8,0.3,1C141.6,237.4,141.9,237.6,142.2,237.6z M144.9,238v-3.1l-0.4,0c-0.1,0-0.1,0-0.1-0.1c0,0,0-0.1,0-0.1v-0.3
						h0.6v-0.4c0-0.2,0-0.4,0.1-0.6c0.1-0.2,0.1-0.3,0.3-0.4c0.1-0.1,0.2-0.2,0.4-0.3c0.2-0.1,0.3-0.1,0.5-0.1c0.2,0,0.3,0,0.4,0.1
						l0,0.3c0,0.1,0,0.1-0.1,0.1c-0.1,0-0.1,0-0.2,0c-0.1,0-0.2,0-0.3,0c-0.1,0-0.2,0.1-0.2,0.1c-0.1,0.1-0.1,0.1-0.2,0.3
						c0,0.1-0.1,0.2-0.1,0.4v0.3h1v0.5h-1v3.1H144.9z M151.3,235.8c0-0.1,0-0.3-0.1-0.4c0-0.1-0.1-0.2-0.2-0.3
						c-0.1-0.1-0.2-0.2-0.3-0.2c-0.1,0-0.2-0.1-0.4-0.1c-0.3,0-0.5,0.1-0.7,0.3c-0.2,0.2-0.3,0.4-0.3,0.7H151.3z M151.8,237.5
						c-0.1,0.1-0.2,0.2-0.3,0.3c-0.1,0.1-0.2,0.1-0.4,0.2c-0.1,0-0.3,0.1-0.4,0.1c-0.1,0-0.3,0-0.4,0c-0.3,0-0.5,0-0.7-0.1
						c-0.2-0.1-0.4-0.2-0.5-0.4c-0.2-0.2-0.3-0.4-0.4-0.6c-0.1-0.2-0.1-0.5-0.1-0.8c0-0.3,0-0.5,0.1-0.7c0.1-0.2,0.2-0.4,0.3-0.6
						c0.1-0.2,0.3-0.3,0.5-0.4c0.2-0.1,0.4-0.1,0.7-0.1c0.2,0,0.4,0,0.6,0.1c0.2,0.1,0.3,0.2,0.5,0.3c0.1,0.1,0.2,0.3,0.3,0.5
						c0.1,0.2,0.1,0.4,0.1,0.7c0,0.1,0,0.2,0,0.2c0,0-0.1,0.1-0.1,0.1h-2.4c0,0.2,0,0.4,0.1,0.6c0.1,0.2,0.1,0.3,0.2,0.4
						c0.1,0.1,0.2,0.2,0.4,0.3c0.1,0.1,0.3,0.1,0.5,0.1c0.2,0,0.3,0,0.4-0.1c0.1,0,0.2-0.1,0.3-0.1c0.1,0,0.2-0.1,0.2-0.1
						c0.1,0,0.1-0.1,0.1-0.1c0.1,0,0.1,0,0.1,0.1L151.8,237.5z M155.6,238H155c-0.1,0-0.1,0-0.1,0c0,0-0.1-0.1-0.1-0.1l-0.9-1.4
						c0,0,0,0.1,0,0.1c0,0,0,0.1,0,0.1l-0.8,1.2c0,0,0,0.1-0.1,0.1c0,0-0.1,0-0.1,0h-0.6l1.3-1.9l-1.2-1.8h0.6c0.1,0,0.1,0,0.1,0
						s0,0,0.1,0.1l0.9,1.4c0-0.1,0-0.1,0.1-0.2l0.8-1.1c0,0,0-0.1,0.1-0.1c0,0,0.1,0,0.1,0h0.6l-1.2,1.7L155.6,238z M156.8,237.1
						c0.1,0.2,0.2,0.3,0.4,0.3c0.1,0.1,0.3,0.1,0.5,0.1c0.3,0,0.6-0.1,0.8-0.4c0.2-0.2,0.3-0.6,0.3-1c0-0.2,0-0.4-0.1-0.6
						c0-0.2-0.1-0.3-0.2-0.4c-0.1-0.1-0.2-0.2-0.3-0.2c-0.1-0.1-0.2-0.1-0.4-0.1c-0.2,0-0.4,0-0.5,0.1c-0.2,0.1-0.3,0.2-0.4,0.4
						V237.1z M156.8,234.9c0.2-0.2,0.3-0.3,0.5-0.5c0.2-0.1,0.4-0.2,0.7-0.2c0.2,0,0.4,0,0.6,0.1c0.2,0.1,0.3,0.2,0.4,0.4
						c0.1,0.2,0.2,0.3,0.3,0.6c0.1,0.2,0.1,0.5,0.1,0.8c0,0.3,0,0.5-0.1,0.7c-0.1,0.2-0.2,0.4-0.3,0.6c-0.1,0.2-0.3,0.3-0.5,0.4
						c-0.2,0.1-0.4,0.1-0.7,0.1c-0.2,0-0.4,0-0.6-0.1c-0.2-0.1-0.3-0.2-0.4-0.3v1.6h-0.6v-4.9h0.4c0.1,0,0.1,0,0.2,0.1L156.8,234.9z
						 M162.6,235.8c0-0.1,0-0.3-0.1-0.4c0-0.1-0.1-0.2-0.2-0.3c-0.1-0.1-0.2-0.2-0.3-0.2c-0.1,0-0.2-0.1-0.4-0.1
						c-0.3,0-0.5,0.1-0.7,0.3c-0.2,0.2-0.3,0.4-0.3,0.7H162.6z M163.2,237.5c-0.1,0.1-0.2,0.2-0.3,0.3c-0.1,0.1-0.2,0.1-0.4,0.2
						c-0.1,0-0.3,0.1-0.4,0.1c-0.1,0-0.3,0-0.4,0c-0.3,0-0.5,0-0.7-0.1c-0.2-0.1-0.4-0.2-0.5-0.4c-0.2-0.2-0.3-0.4-0.4-0.6
						c-0.1-0.2-0.1-0.5-0.1-0.8c0-0.3,0-0.5,0.1-0.7c0.1-0.2,0.2-0.4,0.3-0.6c0.1-0.2,0.3-0.3,0.5-0.4c0.2-0.1,0.4-0.1,0.7-0.1
						c0.2,0,0.4,0,0.6,0.1c0.2,0.1,0.3,0.2,0.5,0.3c0.1,0.1,0.2,0.3,0.3,0.5c0.1,0.2,0.1,0.4,0.1,0.7c0,0.1,0,0.2,0,0.2
						c0,0-0.1,0.1-0.1,0.1h-2.4c0,0.2,0,0.4,0.1,0.6c0.1,0.2,0.1,0.3,0.2,0.4c0.1,0.1,0.2,0.2,0.4,0.3c0.1,0.1,0.3,0.1,0.5,0.1
						c0.2,0,0.3,0,0.4-0.1c0.1,0,0.2-0.1,0.3-0.1c0.1,0,0.2-0.1,0.2-0.1c0.1,0,0.1-0.1,0.1-0.1c0.1,0,0.1,0,0.1,0.1L163.2,237.5z
						 M164.6,235.1c0.1-0.2,0.3-0.4,0.4-0.6c0.2-0.1,0.4-0.2,0.6-0.2c0.1,0,0.1,0,0.2,0c0.1,0,0.1,0,0.2,0.1l0,0.5
						c0,0.1-0.1,0.1-0.1,0.1c0,0-0.1,0-0.1,0c-0.1,0-0.1,0-0.2,0c-0.1,0-0.2,0-0.3,0.1c-0.1,0-0.2,0.1-0.2,0.1
						c-0.1,0.1-0.1,0.1-0.2,0.2c-0.1,0.1-0.1,0.2-0.2,0.3v2.3H164v-3.6h0.4c0.1,0,0.1,0,0.1,0s0,0.1,0.1,0.1L164.6,235.1z
						 M167.3,234.4v3.6h-0.6v-3.6H167.3z M167.4,233.2c0,0.1,0,0.1,0,0.2c0,0.1-0.1,0.1-0.1,0.1c0,0-0.1,0.1-0.1,0.1
						c-0.1,0-0.1,0-0.2,0c-0.1,0-0.1,0-0.2,0c-0.1,0-0.1-0.1-0.1-0.1c0,0-0.1-0.1-0.1-0.1c0-0.1,0-0.1,0-0.2c0-0.1,0-0.1,0-0.2
						c0-0.1,0.1-0.1,0.1-0.1c0,0,0.1-0.1,0.1-0.1c0.1,0,0.1,0,0.2,0c0.1,0,0.1,0,0.2,0c0.1,0,0.1,0.1,0.1,0.1c0,0,0.1,0.1,0.1,0.1
						C167.4,233.1,167.4,233.2,167.4,233.2z M170.8,235.8c0-0.1,0-0.3-0.1-0.4c0-0.1-0.1-0.2-0.2-0.3c-0.1-0.1-0.2-0.2-0.3-0.2
						c-0.1,0-0.2-0.1-0.4-0.1c-0.3,0-0.5,0.1-0.7,0.3c-0.2,0.2-0.3,0.4-0.3,0.7H170.8z M171.3,237.5c-0.1,0.1-0.2,0.2-0.3,0.3
						c-0.1,0.1-0.2,0.1-0.4,0.2c-0.1,0-0.3,0.1-0.4,0.1c-0.1,0-0.3,0-0.4,0c-0.3,0-0.5,0-0.7-0.1c-0.2-0.1-0.4-0.2-0.5-0.4
						c-0.2-0.2-0.3-0.4-0.4-0.6c-0.1-0.2-0.1-0.5-0.1-0.8c0-0.3,0-0.5,0.1-0.7c0.1-0.2,0.2-0.4,0.3-0.6c0.1-0.2,0.3-0.3,0.5-0.4
						c0.2-0.1,0.4-0.1,0.7-0.1c0.2,0,0.4,0,0.6,0.1c0.2,0.1,0.3,0.2,0.5,0.3c0.1,0.1,0.2,0.3,0.3,0.5c0.1,0.2,0.1,0.4,0.1,0.7
						c0,0.1,0,0.2,0,0.2c0,0-0.1,0.1-0.1,0.1h-2.4c0,0.2,0,0.4,0.1,0.6c0.1,0.2,0.1,0.3,0.2,0.4c0.1,0.1,0.2,0.2,0.4,0.3
						c0.1,0.1,0.3,0.1,0.5,0.1c0.2,0,0.3,0,0.4-0.1c0.1,0,0.2-0.1,0.3-0.1c0.1,0,0.2-0.1,0.2-0.1c0.1,0,0.1-0.1,0.1-0.1
						c0.1,0,0.1,0,0.1,0.1L171.3,237.5z M172.7,234.9c0.1-0.1,0.2-0.2,0.3-0.2c0.1-0.1,0.2-0.1,0.3-0.2c0.1-0.1,0.2-0.1,0.3-0.1
						c0.1,0,0.2,0,0.4,0c0.2,0,0.4,0,0.5,0.1c0.2,0.1,0.3,0.2,0.4,0.3c0.1,0.1,0.2,0.3,0.2,0.4c0.1,0.2,0.1,0.4,0.1,0.6v2.3h-0.6
						v-2.3c0-0.3-0.1-0.5-0.2-0.6c-0.1-0.2-0.3-0.2-0.6-0.2c-0.2,0-0.4,0-0.5,0.1c-0.2,0.1-0.3,0.2-0.5,0.4v2.7h-0.6v-3.6h0.4
						c0.1,0,0.1,0,0.2,0.1L172.7,234.9z M178.6,235C178.6,235,178.6,235.1,178.6,235c-0.1,0.1-0.1,0.1-0.1,0.1c0,0-0.1,0-0.1,0
						c0,0-0.1-0.1-0.2-0.1c-0.1,0-0.1-0.1-0.2-0.1c-0.1,0-0.2,0-0.3,0c-0.2,0-0.3,0-0.5,0.1c-0.1,0.1-0.3,0.2-0.3,0.3
						c-0.1,0.1-0.2,0.3-0.2,0.4c0,0.2-0.1,0.4-0.1,0.6c0,0.2,0,0.4,0.1,0.6c0.1,0.2,0.1,0.3,0.2,0.4c0.1,0.1,0.2,0.2,0.3,0.3
						c0.1,0.1,0.3,0.1,0.4,0.1c0.2,0,0.3,0,0.4-0.1c0.1,0,0.2-0.1,0.2-0.1c0.1,0,0.1-0.1,0.2-0.1c0,0,0.1-0.1,0.1-0.1
						c0.1,0,0.1,0,0.1,0.1l0.2,0.2c-0.1,0.1-0.2,0.2-0.3,0.3c-0.1,0.1-0.2,0.1-0.3,0.2c-0.1,0-0.2,0.1-0.4,0.1c-0.1,0-0.3,0-0.4,0
						c-0.2,0-0.4,0-0.6-0.1c-0.2-0.1-0.4-0.2-0.5-0.4c-0.1-0.2-0.3-0.4-0.3-0.6c-0.1-0.2-0.1-0.5-0.1-0.8c0-0.3,0-0.5,0.1-0.7
						c0.1-0.2,0.2-0.4,0.3-0.6c0.1-0.2,0.3-0.3,0.5-0.4c0.2-0.1,0.5-0.1,0.7-0.1c0.3,0,0.5,0,0.7,0.1c0.2,0.1,0.4,0.2,0.5,0.3
						L178.6,235z M181.9,235.8c0-0.1,0-0.3-0.1-0.4c0-0.1-0.1-0.2-0.2-0.3c-0.1-0.1-0.2-0.2-0.3-0.2c-0.1,0-0.2-0.1-0.4-0.1
						c-0.3,0-0.5,0.1-0.7,0.3c-0.2,0.2-0.3,0.4-0.3,0.7H181.9z M182.4,237.5c-0.1,0.1-0.2,0.2-0.3,0.3c-0.1,0.1-0.2,0.1-0.4,0.2
						c-0.1,0-0.3,0.1-0.4,0.1c-0.1,0-0.3,0-0.4,0c-0.2,0-0.5,0-0.7-0.1c-0.2-0.1-0.4-0.2-0.5-0.4c-0.2-0.2-0.3-0.4-0.4-0.6
						c-0.1-0.2-0.1-0.5-0.1-0.8c0-0.3,0-0.5,0.1-0.7c0.1-0.2,0.2-0.4,0.3-0.6c0.1-0.2,0.3-0.3,0.5-0.4c0.2-0.1,0.4-0.1,0.7-0.1
						c0.2,0,0.4,0,0.6,0.1c0.2,0.1,0.3,0.2,0.5,0.3c0.1,0.1,0.2,0.3,0.3,0.5c0.1,0.2,0.1,0.4,0.1,0.7c0,0.1,0,0.2,0,0.2
						c0,0-0.1,0.1-0.1,0.1h-2.4c0,0.2,0,0.4,0.1,0.6c0.1,0.2,0.1,0.3,0.2,0.4c0.1,0.1,0.2,0.2,0.4,0.3c0.1,0.1,0.3,0.1,0.5,0.1
						c0.2,0,0.3,0,0.4-0.1c0.1,0,0.2-0.1,0.3-0.1c0.1,0,0.2-0.1,0.2-0.1c0.1,0,0.1-0.1,0.1-0.1c0.1,0,0.1,0,0.1,0.1L182.4,237.5z"/>
					<path class="st4" d="M-29,36h677.3v78.5L-29,241.3V36z"/>
					<path class="st5" d="M584.5,87l-6.5-8.8h13L584.5,87z"/>
					<path class="st5" d="M595.5,89l-6.5-8.8h13L595.5,89z"/>
					<path class="st6" d="M588.5,87l-6.5-8.8h13L588.5,87z"/>
					<path class="st3" d="M409,51.7c-0.2,0-0.4,0-0.6,0.1c-0.2,0-0.3,0.1-0.4,0.1c-0.1,0-0.2,0.1-0.2,0.2c0,0.1-0.1,0.1-0.1,0.2
						c0,0.1,0,0.1,0,0.2c0,0.1,0.1,0.1,0.1,0.1c0,0,0.1,0.1,0.1,0.1c0.1,0,0.1,0,0.2,0c0.1,0,0.2,0,0.2,0c0.1,0,0.1,0,0.2-0.1
						c0.1,0,0.1-0.1,0.2-0.1c0.1,0,0.1-0.1,0.2-0.2V51.7z M407.3,50.5c0.2-0.2,0.3-0.3,0.5-0.3c0.2-0.1,0.4-0.1,0.6-0.1
						c0.2,0,0.3,0,0.4,0.1c0.1,0.1,0.2,0.1,0.3,0.2c0.1,0.1,0.2,0.2,0.2,0.3c0,0.1,0.1,0.3,0.1,0.5V53h-0.2c-0.1,0-0.1,0-0.1,0
						c0,0-0.1-0.1-0.1-0.1l-0.1-0.3c-0.1,0.1-0.1,0.1-0.2,0.2c-0.1,0.1-0.1,0.1-0.2,0.1c-0.1,0-0.2,0.1-0.3,0.1s-0.2,0-0.3,0
						c-0.1,0-0.2,0-0.3,0c-0.1,0-0.2-0.1-0.3-0.1c-0.1-0.1-0.1-0.1-0.2-0.2c0-0.1-0.1-0.2-0.1-0.3c0-0.1,0-0.2,0.1-0.3
						c0.1-0.1,0.2-0.2,0.3-0.3c0.1-0.1,0.3-0.2,0.5-0.2c0.2-0.1,0.5-0.1,0.8-0.1v-0.2c0-0.2,0-0.4-0.1-0.5c-0.1-0.1-0.2-0.2-0.4-0.2
						c-0.1,0-0.2,0-0.3,0c-0.1,0-0.2,0.1-0.2,0.1c-0.1,0-0.1,0.1-0.2,0.1c0,0-0.1,0-0.1,0c0,0-0.1,0-0.1,0c0,0,0,0-0.1-0.1
						L407.3,50.5z M411.5,52.3c0.1,0.1,0.2,0.2,0.3,0.3c0.1,0,0.2,0.1,0.4,0.1c0.3,0,0.5-0.1,0.6-0.3c0.1-0.2,0.2-0.5,0.2-0.8
						c0-0.3-0.1-0.6-0.2-0.8c-0.1-0.2-0.3-0.2-0.5-0.2c-0.2,0-0.3,0-0.4,0.1c-0.1,0.1-0.2,0.2-0.3,0.3V52.3z M411.5,50.5
						c0.1-0.1,0.3-0.2,0.4-0.3c0.2-0.1,0.3-0.1,0.5-0.1c0.2,0,0.3,0,0.5,0.1c0.1,0.1,0.3,0.2,0.3,0.3c0.1,0.1,0.2,0.3,0.2,0.4
						c0.1,0.2,0.1,0.4,0.1,0.6c0,0.2,0,0.4-0.1,0.6c-0.1,0.2-0.1,0.4-0.2,0.5c-0.1,0.1-0.2,0.2-0.4,0.3c-0.2,0.1-0.3,0.1-0.5,0.1
						c-0.1,0-0.2,0-0.3,0c-0.1,0-0.2,0-0.2-0.1c-0.1,0-0.1-0.1-0.2-0.1c-0.1,0-0.1-0.1-0.2-0.2l0,0.2c0,0.1-0.1,0.1-0.1,0.1H411
						v-4.2h0.6V50.5z M416.1,50c0.2,0,0.4,0,0.6,0.1c0.2,0.1,0.3,0.2,0.4,0.3c0.1,0.1,0.2,0.3,0.3,0.5c0.1,0.2,0.1,0.4,0.1,0.6
						c0,0.2,0,0.4-0.1,0.6c-0.1,0.2-0.2,0.3-0.3,0.5c-0.1,0.1-0.3,0.2-0.4,0.3c-0.2,0.1-0.4,0.1-0.6,0.1c-0.2,0-0.4,0-0.6-0.1
						c-0.2-0.1-0.3-0.2-0.4-0.3c-0.1-0.1-0.2-0.3-0.3-0.5c-0.1-0.2-0.1-0.4-0.1-0.6c0-0.2,0-0.4,0.1-0.6c0.1-0.2,0.2-0.3,0.3-0.5
						c0.1-0.1,0.3-0.2,0.4-0.3C415.7,50.1,415.9,50,416.1,50z M416.1,52.6c0.3,0,0.5-0.1,0.6-0.3c0.1-0.2,0.2-0.4,0.2-0.8
						c0-0.3-0.1-0.6-0.2-0.8c-0.1-0.2-0.3-0.3-0.6-0.3c-0.3,0-0.5,0.1-0.6,0.3c-0.1,0.2-0.2,0.4-0.2,0.8c0,0.3,0.1,0.6,0.2,0.8
						C415.7,52.5,415.9,52.6,416.1,52.6z M421.3,50.1V53H421c-0.1,0-0.1,0-0.1-0.1l0-0.3c-0.1,0.1-0.1,0.1-0.2,0.2
						c-0.1,0.1-0.1,0.1-0.2,0.1c-0.1,0-0.2,0.1-0.2,0.1c-0.1,0-0.2,0-0.3,0c-0.2,0-0.3,0-0.4-0.1c-0.1-0.1-0.2-0.1-0.3-0.2
						c-0.1-0.1-0.1-0.2-0.2-0.3c0-0.1-0.1-0.3-0.1-0.5v-1.9h0.6v1.9c0,0.2,0,0.4,0.1,0.5c0.1,0.1,0.2,0.2,0.4,0.2
						c0.1,0,0.3,0,0.4-0.1c0.1-0.1,0.2-0.2,0.4-0.3v-2.1H421.3z M423.7,53c-0.2,0-0.4-0.1-0.5-0.2c-0.1-0.1-0.2-0.3-0.2-0.6v-1.7
						h-0.3c0,0-0.1,0-0.1,0c0,0,0-0.1,0-0.1v-0.2l0.5-0.1l0.1-0.9c0,0,0-0.1,0-0.1c0,0,0.1,0,0.1,0h0.3v1h0.8v0.4h-0.8v1.7
						c0,0.1,0,0.2,0.1,0.3c0.1,0.1,0.1,0.1,0.2,0.1c0.1,0,0.1,0,0.1,0c0,0,0.1,0,0.1,0c0,0,0,0,0.1,0c0,0,0,0,0.1,0c0,0,0,0,0,0
						c0,0,0,0,0,0l0.2,0.3c-0.1,0.1-0.2,0.1-0.3,0.2C424,53,423.9,53,423.7,53z"/>
					<path class="st3" d="M450.5,50.1l-0.9,2.9h-0.4c-0.1,0-0.1,0-0.1-0.1l-0.6-1.9c0,0,0-0.1,0-0.1c0,0,0-0.1,0-0.1
						c0,0.1,0,0.2-0.1,0.3l-0.6,1.9c0,0.1-0.1,0.1-0.1,0.1h-0.4l-0.9-2.9h0.4c0,0,0.1,0,0.1,0c0,0,0.1,0,0.1,0.1l0.5,1.8
						c0,0.1,0,0.1,0,0.2c0,0.1,0,0.1,0,0.2c0-0.1,0-0.1,0.1-0.2c0-0.1,0-0.1,0.1-0.2l0.6-1.8c0,0,0-0.1,0.1-0.1c0,0,0.1,0,0.1,0h0.2
						c0,0,0.1,0,0.1,0c0,0,0,0,0.1,0.1l0.6,1.8c0,0.1,0,0.1,0.1,0.2c0,0.1,0,0.1,0.1,0.2c0-0.1,0-0.1,0-0.2c0-0.1,0-0.1,0.1-0.2
						l0.5-1.8c0,0,0-0.1,0.1-0.1c0,0,0.1,0,0.1,0H450.5z M452.9,50c0.2,0,0.4,0,0.6,0.1c0.2,0.1,0.3,0.2,0.4,0.3
						c0.1,0.1,0.2,0.3,0.3,0.5c0.1,0.2,0.1,0.4,0.1,0.6c0,0.2,0,0.4-0.1,0.6c-0.1,0.2-0.2,0.3-0.3,0.5c-0.1,0.1-0.3,0.2-0.4,0.3
						c-0.2,0.1-0.4,0.1-0.6,0.1c-0.2,0-0.4,0-0.6-0.1c-0.2-0.1-0.3-0.2-0.4-0.3c-0.1-0.1-0.2-0.3-0.3-0.5c-0.1-0.2-0.1-0.4-0.1-0.6
						c0-0.2,0-0.4,0.1-0.6c0.1-0.2,0.2-0.3,0.3-0.5c0.1-0.1,0.3-0.2,0.4-0.3C452.5,50.1,452.7,50,452.9,50z M452.9,52.6
						c0.3,0,0.5-0.1,0.6-0.3c0.1-0.2,0.2-0.4,0.2-0.8c0-0.3-0.1-0.6-0.2-0.8c-0.1-0.2-0.3-0.3-0.6-0.3c-0.3,0-0.5,0.1-0.6,0.3
						c-0.1,0.2-0.2,0.4-0.2,0.8c0,0.3,0.1,0.6,0.2,0.8C452.4,52.5,452.6,52.6,452.9,52.6z M456.2,50.6c0.1-0.2,0.2-0.3,0.3-0.5
						c0.1-0.1,0.3-0.2,0.5-0.2c0.1,0,0.1,0,0.2,0c0.1,0,0.1,0,0.1,0.1l0,0.4c0,0.1,0,0.1-0.1,0.1c0,0-0.1,0-0.1,0
						c-0.1,0-0.1,0-0.2,0c-0.1,0-0.2,0-0.2,0c-0.1,0-0.1,0.1-0.2,0.1c-0.1,0-0.1,0.1-0.1,0.2c0,0.1-0.1,0.2-0.1,0.2V53h-0.6v-2.9
						h0.3c0.1,0,0.1,0,0.1,0c0,0,0,0.1,0,0.1L456.2,50.6z M459,48.8v2.5h0.1c0,0,0.1,0,0.1,0c0,0,0.1,0,0.1-0.1l0.9-1
						c0,0,0.1-0.1,0.1-0.1c0,0,0.1,0,0.1,0h0.5l-1,1.1c-0.1,0.1-0.1,0.1-0.2,0.2c0,0,0.1,0.1,0.1,0.1c0,0,0.1,0.1,0.1,0.1L461,53
						h-0.5c0,0-0.1,0-0.1,0c0,0-0.1,0-0.1-0.1l-0.9-1.2c0,0-0.1-0.1-0.1-0.1c0,0-0.1,0-0.1,0H459V53h-0.6v-4.2H459z M463.8,50.6
						C463.8,50.6,463.8,50.6,463.8,50.6c-0.1,0.1-0.1,0.1-0.1,0.1c0,0-0.1,0-0.1,0c0,0-0.1,0-0.1-0.1c-0.1,0-0.1,0-0.2-0.1
						c-0.1,0-0.2,0-0.3,0c-0.1,0-0.2,0-0.2,0c-0.1,0-0.1,0-0.2,0.1c0,0-0.1,0.1-0.1,0.1c0,0,0,0.1,0,0.2c0,0.1,0,0.1,0.1,0.2
						c0,0,0.1,0.1,0.2,0.1c0.1,0,0.1,0.1,0.2,0.1c0.1,0,0.2,0.1,0.3,0.1c0.1,0,0.2,0.1,0.3,0.1c0.1,0,0.2,0.1,0.2,0.1
						c0.1,0.1,0.1,0.1,0.2,0.2c0,0.1,0.1,0.2,0.1,0.3c0,0.1,0,0.3-0.1,0.4c0,0.1-0.1,0.2-0.2,0.3c-0.1,0.1-0.2,0.1-0.4,0.2
						c-0.1,0-0.3,0.1-0.5,0.1c-0.2,0-0.4,0-0.6-0.1c-0.2-0.1-0.3-0.2-0.4-0.3l0.1-0.2c0,0,0,0,0.1-0.1c0,0,0.1,0,0.1,0
						c0,0,0.1,0,0.1,0c0,0,0.1,0.1,0.1,0.1c0.1,0,0.1,0.1,0.2,0.1c0.1,0,0.2,0,0.3,0c0.1,0,0.2,0,0.2,0c0.1,0,0.1-0.1,0.2-0.1
						c0,0,0.1-0.1,0.1-0.1c0-0.1,0-0.1,0-0.2c0-0.1,0-0.1-0.1-0.2c0-0.1-0.1-0.1-0.2-0.1c-0.1,0-0.1-0.1-0.2-0.1
						c-0.1,0-0.2-0.1-0.3-0.1c-0.1,0-0.2-0.1-0.3-0.1c-0.1,0-0.2-0.1-0.2-0.2c-0.1-0.1-0.1-0.1-0.2-0.2c0-0.1-0.1-0.2-0.1-0.3
						c0-0.1,0-0.2,0.1-0.3c0-0.1,0.1-0.2,0.2-0.3c0.1-0.1,0.2-0.1,0.3-0.2c0.1,0,0.3-0.1,0.4-0.1c0.2,0,0.4,0,0.5,0.1
						c0.2,0.1,0.3,0.1,0.4,0.3L463.8,50.6z"/>
					<path class="st3" d="M488.2,51.2c0-0.1,0-0.2,0-0.3c0-0.1-0.1-0.2-0.1-0.2c-0.1-0.1-0.1-0.1-0.2-0.2c-0.1,0-0.2-0.1-0.3-0.1
						c-0.2,0-0.4,0.1-0.6,0.2c-0.1,0.1-0.2,0.3-0.3,0.6H488.2z M488.6,52.6c-0.1,0.1-0.1,0.1-0.2,0.2c-0.1,0.1-0.2,0.1-0.3,0.1
						c-0.1,0-0.2,0.1-0.3,0.1c-0.1,0-0.2,0-0.3,0c-0.2,0-0.4,0-0.6-0.1c-0.2-0.1-0.3-0.2-0.4-0.3c-0.1-0.1-0.2-0.3-0.3-0.5
						c-0.1-0.2-0.1-0.4-0.1-0.7c0-0.2,0-0.4,0.1-0.6c0.1-0.2,0.2-0.3,0.3-0.5c0.1-0.1,0.3-0.2,0.4-0.3c0.2-0.1,0.4-0.1,0.6-0.1
						c0.2,0,0.3,0,0.5,0.1c0.2,0.1,0.3,0.1,0.4,0.3c0.1,0.1,0.2,0.2,0.3,0.4c0.1,0.2,0.1,0.3,0.1,0.6c0,0.1,0,0.1,0,0.2
						c0,0-0.1,0-0.1,0h-1.9c0,0.2,0,0.3,0.1,0.5c0,0.1,0.1,0.2,0.2,0.3c0.1,0.1,0.2,0.2,0.3,0.2c0.1,0,0.2,0.1,0.4,0.1
						c0.1,0,0.2,0,0.3,0c0.1,0,0.2-0.1,0.2-0.1c0.1,0,0.1-0.1,0.2-0.1c0,0,0.1,0,0.1,0c0,0,0.1,0,0.1,0.1L488.6,52.6z M492.4,53
						h-0.5c0,0-0.1,0-0.1,0c0,0,0-0.1-0.1-0.1l-0.7-1.1c0,0,0,0.1,0,0.1c0,0,0,0.1,0,0.1l-0.6,1c0,0,0,0.1-0.1,0.1c0,0-0.1,0-0.1,0
						h-0.5l1-1.5l-1-1.4h0.5c0,0,0.1,0,0.1,0c0,0,0,0,0.1,0.1l0.7,1.1c0,0,0-0.1,0-0.1c0,0,0-0.1,0-0.1l0.6-0.9
						c0-0.1,0.1-0.1,0.1-0.1h0.5l-1,1.4L492.4,53z M494.1,52.3c0.1,0.1,0.2,0.2,0.3,0.3c0.1,0,0.2,0.1,0.4,0.1
						c0.3,0,0.5-0.1,0.6-0.3c0.1-0.2,0.2-0.5,0.2-0.8c0-0.2,0-0.3,0-0.5c0-0.1-0.1-0.2-0.1-0.3c-0.1-0.1-0.1-0.1-0.2-0.2
						c-0.1,0-0.2-0.1-0.3-0.1c-0.2,0-0.3,0-0.4,0.1c-0.1,0.1-0.2,0.2-0.3,0.3V52.3z M494.1,50.5c0.1-0.1,0.1-0.1,0.2-0.2
						c0.1-0.1,0.1-0.1,0.2-0.2c0.1,0,0.2-0.1,0.3-0.1c0.1,0,0.2,0,0.3,0c0.2,0,0.3,0,0.5,0.1c0.1,0.1,0.3,0.2,0.3,0.3
						c0.1,0.1,0.2,0.3,0.2,0.5c0.1,0.2,0.1,0.4,0.1,0.6c0,0.2,0,0.4-0.1,0.6c-0.1,0.2-0.1,0.3-0.2,0.5c-0.1,0.1-0.2,0.2-0.4,0.3
						c-0.2,0.1-0.3,0.1-0.5,0.1c-0.2,0-0.3,0-0.4-0.1c-0.1-0.1-0.2-0.1-0.3-0.2V54h-0.6v-3.9h0.3c0.1,0,0.1,0,0.1,0.1L494.1,50.5z
						 M499.4,51.2c0-0.1,0-0.2,0-0.3c0-0.1-0.1-0.2-0.1-0.2c-0.1-0.1-0.1-0.1-0.2-0.2c-0.1,0-0.2-0.1-0.3-0.1
						c-0.2,0-0.4,0.1-0.6,0.2c-0.1,0.1-0.2,0.3-0.3,0.6H499.4z M499.9,52.6c-0.1,0.1-0.1,0.1-0.2,0.2c-0.1,0.1-0.2,0.1-0.3,0.1
						c-0.1,0-0.2,0.1-0.3,0.1s-0.2,0-0.3,0c-0.2,0-0.4,0-0.6-0.1c-0.2-0.1-0.3-0.2-0.4-0.3c-0.1-0.1-0.2-0.3-0.3-0.5
						c-0.1-0.2-0.1-0.4-0.1-0.7c0-0.2,0-0.4,0.1-0.6c0.1-0.2,0.2-0.3,0.3-0.5c0.1-0.1,0.3-0.2,0.4-0.3c0.2-0.1,0.4-0.1,0.6-0.1
						c0.2,0,0.3,0,0.5,0.1c0.2,0.1,0.3,0.1,0.4,0.3c0.1,0.1,0.2,0.2,0.3,0.4c0.1,0.2,0.1,0.3,0.1,0.6c0,0.1,0,0.1,0,0.2
						c0,0-0.1,0-0.1,0h-1.9c0,0.2,0,0.3,0.1,0.5c0,0.1,0.1,0.2,0.2,0.3c0.1,0.1,0.2,0.2,0.3,0.2c0.1,0,0.2,0.1,0.4,0.1
						c0.1,0,0.2,0,0.3,0c0.1,0,0.2-0.1,0.2-0.1c0.1,0,0.1-0.1,0.2-0.1c0,0,0.1,0,0.1,0c0,0,0.1,0,0.1,0.1L499.9,52.6z M501.8,50.6
						c0.1-0.2,0.2-0.3,0.3-0.5c0.1-0.1,0.3-0.2,0.5-0.2c0.1,0,0.1,0,0.2,0c0.1,0,0.1,0,0.1,0.1l0,0.4c0,0.1,0,0.1-0.1,0.1
						c0,0-0.1,0-0.1,0c-0.1,0-0.1,0-0.2,0c-0.1,0-0.2,0-0.2,0c-0.1,0-0.1,0.1-0.2,0.1c-0.1,0-0.1,0.1-0.1,0.2c0,0.1-0.1,0.2-0.1,0.2
						V53h-0.6v-2.9h0.3c0.1,0,0.1,0,0.1,0c0,0,0,0.1,0,0.1L501.8,50.6z M504.6,50.1V53h-0.6v-2.9H504.6z M504.8,49.2
						c0,0.1,0,0.1,0,0.1c0,0,0,0.1-0.1,0.1c0,0-0.1,0.1-0.1,0.1c0,0-0.1,0-0.1,0c-0.1,0-0.1,0-0.1,0c0,0-0.1,0-0.1-0.1
						c0,0-0.1-0.1-0.1-0.1c0,0,0-0.1,0-0.1c0-0.1,0-0.1,0-0.1c0,0,0-0.1,0.1-0.1c0,0,0.1-0.1,0.1-0.1c0,0,0.1,0,0.1,0
						c0.1,0,0.1,0,0.1,0c0,0,0.1,0,0.1,0.1c0,0,0.1,0.1,0.1,0.1C504.7,49.1,504.8,49.1,504.8,49.2z M508.1,51.2c0-0.1,0-0.2,0-0.3
						c0-0.1-0.1-0.2-0.1-0.2c-0.1-0.1-0.1-0.1-0.2-0.2c-0.1,0-0.2-0.1-0.3-0.1c-0.2,0-0.4,0.1-0.6,0.2c-0.1,0.1-0.2,0.3-0.3,0.6
						H508.1z M508.6,52.6c-0.1,0.1-0.1,0.1-0.2,0.2c-0.1,0.1-0.2,0.1-0.3,0.1c-0.1,0-0.2,0.1-0.3,0.1c-0.1,0-0.2,0-0.3,0
						c-0.2,0-0.4,0-0.6-0.1c-0.2-0.1-0.3-0.2-0.4-0.3c-0.1-0.1-0.2-0.3-0.3-0.5c-0.1-0.2-0.1-0.4-0.1-0.7c0-0.2,0-0.4,0.1-0.6
						c0.1-0.2,0.2-0.3,0.3-0.5c0.1-0.1,0.3-0.2,0.4-0.3c0.2-0.1,0.4-0.1,0.6-0.1c0.2,0,0.3,0,0.5,0.1c0.2,0.1,0.3,0.1,0.4,0.3
						c0.1,0.1,0.2,0.2,0.3,0.4c0.1,0.2,0.1,0.3,0.1,0.6c0,0.1,0,0.1,0,0.2c0,0-0.1,0-0.1,0h-1.9c0,0.2,0,0.3,0.1,0.5
						c0,0.1,0.1,0.2,0.2,0.3c0.1,0.1,0.2,0.2,0.3,0.2c0.1,0,0.2,0.1,0.4,0.1c0.1,0,0.2,0,0.3,0c0.1,0,0.2-0.1,0.2-0.1
						c0.1,0,0.1-0.1,0.2-0.1c0,0,0.1,0,0.1,0c0,0,0.1,0,0.1,0.1L508.6,52.6z M510.4,50.5c0.1-0.1,0.1-0.1,0.2-0.2
						c0.1-0.1,0.1-0.1,0.2-0.1c0.1,0,0.2-0.1,0.2-0.1c0.1,0,0.2,0,0.3,0c0.2,0,0.3,0,0.4,0.1c0.1,0.1,0.2,0.1,0.3,0.2
						c0.1,0.1,0.1,0.2,0.2,0.3c0,0.1,0.1,0.3,0.1,0.5V53h-0.6v-1.9c0-0.2,0-0.4-0.1-0.5c-0.1-0.1-0.2-0.2-0.4-0.2
						c-0.1,0-0.3,0-0.4,0.1c-0.1,0.1-0.2,0.2-0.3,0.3V53h-0.6v-2.9h0.3c0.1,0,0.1,0,0.1,0.1L510.4,50.5z M515.9,50.6
						C515.9,50.7,515.9,50.7,515.9,50.6c-0.1,0.1-0.1,0.1-0.1,0.1c0,0-0.1,0-0.1,0c0,0-0.1-0.1-0.1-0.1c-0.1,0-0.1-0.1-0.2-0.1
						c-0.1,0-0.2,0-0.3,0c-0.1,0-0.3,0-0.4,0.1c-0.1,0-0.2,0.1-0.3,0.2c-0.1,0.1-0.1,0.2-0.2,0.3c0,0.1-0.1,0.3-0.1,0.4
						c0,0.2,0,0.3,0.1,0.5c0,0.1,0.1,0.2,0.2,0.3c0.1,0.1,0.2,0.2,0.3,0.2c0.1,0,0.2,0.1,0.3,0.1c0.1,0,0.2,0,0.3,0
						c0.1,0,0.1-0.1,0.2-0.1c0.1,0,0.1-0.1,0.1-0.1c0,0,0.1,0,0.1,0c0,0,0.1,0,0.1,0.1l0.2,0.2c-0.1,0.1-0.1,0.2-0.2,0.2
						c-0.1,0.1-0.2,0.1-0.3,0.1c-0.1,0-0.2,0.1-0.3,0.1c-0.1,0-0.2,0-0.3,0c-0.2,0-0.4,0-0.5-0.1c-0.2-0.1-0.3-0.2-0.4-0.3
						c-0.1-0.1-0.2-0.3-0.3-0.5c-0.1-0.2-0.1-0.4-0.1-0.6c0-0.2,0-0.4,0.1-0.6c0.1-0.2,0.2-0.3,0.3-0.5c0.1-0.1,0.3-0.2,0.4-0.3
						c0.2-0.1,0.4-0.1,0.6-0.1c0.2,0,0.4,0,0.5,0.1c0.2,0.1,0.3,0.2,0.4,0.3L515.9,50.6z M519.2,51.2c0-0.1,0-0.2,0-0.3
						c0-0.1-0.1-0.2-0.1-0.2c-0.1-0.1-0.1-0.1-0.2-0.2c-0.1,0-0.2-0.1-0.3-0.1c-0.2,0-0.4,0.1-0.6,0.2c-0.1,0.1-0.2,0.3-0.3,0.6
						H519.2z M519.6,52.6c-0.1,0.1-0.1,0.1-0.2,0.2c-0.1,0.1-0.2,0.1-0.3,0.1c-0.1,0-0.2,0.1-0.3,0.1c-0.1,0-0.2,0-0.3,0
						c-0.2,0-0.4,0-0.6-0.1c-0.2-0.1-0.3-0.2-0.4-0.3c-0.1-0.1-0.2-0.3-0.3-0.5c-0.1-0.2-0.1-0.4-0.1-0.7c0-0.2,0-0.4,0.1-0.6
						c0.1-0.2,0.2-0.3,0.3-0.5c0.1-0.1,0.3-0.2,0.4-0.3c0.2-0.1,0.4-0.1,0.6-0.1c0.2,0,0.3,0,0.5,0.1c0.2,0.1,0.3,0.1,0.4,0.3
						c0.1,0.1,0.2,0.2,0.3,0.4c0.1,0.2,0.1,0.3,0.1,0.6c0,0.1,0,0.1,0,0.2c0,0-0.1,0-0.1,0h-1.9c0,0.2,0,0.3,0.1,0.5
						c0,0.1,0.1,0.2,0.2,0.3c0.1,0.1,0.2,0.2,0.3,0.2c0.1,0,0.2,0.1,0.4,0.1c0.1,0,0.2,0,0.3,0c0.1,0,0.2-0.1,0.2-0.1
						c0.1,0,0.1-0.1,0.2-0.1c0,0,0.1,0,0.1,0c0,0,0.1,0,0.1,0.1L519.6,52.6z"/>
					<path class="st3" d="M544.2,50.6C544.2,50.7,544.1,50.7,544.2,50.6c-0.1,0.1-0.1,0.1-0.1,0.1c0,0-0.1,0-0.1,0
						c0,0-0.1-0.1-0.1-0.1c0,0-0.1-0.1-0.2-0.1c-0.1,0-0.2,0-0.3,0c-0.1,0-0.3,0-0.4,0.1c-0.1,0-0.2,0.1-0.3,0.2
						c-0.1,0.1-0.1,0.2-0.2,0.3c0,0.1-0.1,0.3-0.1,0.4c0,0.2,0,0.3,0.1,0.5c0,0.1,0.1,0.2,0.2,0.3c0.1,0.1,0.2,0.2,0.3,0.2
						c0.1,0,0.2,0.1,0.3,0.1c0.1,0,0.2,0,0.3,0c0.1,0,0.1-0.1,0.2-0.1s0.1-0.1,0.1-0.1c0,0,0.1,0,0.1,0c0,0,0.1,0,0.1,0.1l0.2,0.2
						c-0.1,0.1-0.1,0.2-0.2,0.2c-0.1,0.1-0.2,0.1-0.3,0.1c-0.1,0-0.2,0.1-0.3,0.1c-0.1,0-0.2,0-0.3,0c-0.2,0-0.4,0-0.5-0.1
						c-0.2-0.1-0.3-0.2-0.4-0.3c-0.1-0.1-0.2-0.3-0.3-0.5c-0.1-0.2-0.1-0.4-0.1-0.6c0-0.2,0-0.4,0.1-0.6c0.1-0.2,0.2-0.3,0.3-0.5
						c0.1-0.1,0.3-0.2,0.4-0.3c0.2-0.1,0.4-0.1,0.6-0.1c0.2,0,0.4,0,0.6,0.1c0.2,0.1,0.3,0.2,0.4,0.3L544.2,50.6z M546.8,50
						c0.2,0,0.4,0,0.6,0.1c0.2,0.1,0.3,0.2,0.4,0.3c0.1,0.1,0.2,0.3,0.3,0.5c0.1,0.2,0.1,0.4,0.1,0.6c0,0.2,0,0.4-0.1,0.6
						c-0.1,0.2-0.2,0.3-0.3,0.5c-0.1,0.1-0.3,0.2-0.4,0.3c-0.2,0.1-0.4,0.1-0.6,0.1c-0.2,0-0.4,0-0.6-0.1c-0.2-0.1-0.3-0.2-0.4-0.3
						c-0.1-0.1-0.2-0.3-0.3-0.5c-0.1-0.2-0.1-0.4-0.1-0.6c0-0.2,0-0.4,0.1-0.6c0.1-0.2,0.2-0.3,0.3-0.5c0.1-0.1,0.3-0.2,0.4-0.3
						C546.4,50.1,546.6,50,546.8,50z M546.8,52.6c0.3,0,0.5-0.1,0.6-0.3c0.1-0.2,0.2-0.4,0.2-0.8c0-0.3-0.1-0.6-0.2-0.8
						c-0.1-0.2-0.3-0.3-0.6-0.3c-0.3,0-0.5,0.1-0.6,0.3c-0.1,0.2-0.2,0.4-0.2,0.8c0,0.3,0.1,0.6,0.2,0.8
						C546.3,52.5,546.5,52.6,546.8,52.6z M550.1,50.5c0.1-0.1,0.1-0.1,0.2-0.2c0.1-0.1,0.1-0.1,0.2-0.1c0.1,0,0.2-0.1,0.2-0.1
						c0.1,0,0.2,0,0.3,0c0.2,0,0.3,0,0.4,0.1c0.1,0.1,0.2,0.1,0.3,0.2c0.1,0.1,0.1,0.2,0.2,0.3s0.1,0.3,0.1,0.5V53h-0.6v-1.9
						c0-0.2,0-0.4-0.1-0.5c-0.1-0.1-0.2-0.2-0.4-0.2c-0.1,0-0.3,0-0.4,0.1c-0.1,0.1-0.2,0.2-0.3,0.3V53h-0.6v-2.9h0.3
						c0.1,0,0.1,0,0.1,0.1L550.1,50.5z M554.3,53c-0.2,0-0.4-0.1-0.5-0.2c-0.1-0.1-0.2-0.3-0.2-0.6v-1.7h-0.3c0,0-0.1,0-0.1,0
						c0,0,0-0.1,0-0.1v-0.2l0.5-0.1l0.1-0.9c0,0,0-0.1,0-0.1c0,0,0.1,0,0.1,0h0.3v1h0.8v0.4h-0.8v1.7c0,0.1,0,0.2,0.1,0.3
						c0.1,0.1,0.1,0.1,0.2,0.1c0.1,0,0.1,0,0.1,0c0,0,0.1,0,0.1,0c0,0,0,0,0.1,0c0,0,0,0,0.1,0c0,0,0,0,0,0c0,0,0,0,0,0l0.2,0.3
						c-0.1,0.1-0.2,0.1-0.3,0.2C554.6,53,554.5,53,554.3,53z M557.8,51.7c-0.2,0-0.4,0-0.6,0.1c-0.2,0-0.3,0.1-0.4,0.1
						c-0.1,0-0.2,0.1-0.2,0.2c0,0.1-0.1,0.1-0.1,0.2c0,0.1,0,0.1,0,0.2c0,0.1,0.1,0.1,0.1,0.1c0,0,0.1,0.1,0.1,0.1
						c0.1,0,0.1,0,0.2,0c0.1,0,0.2,0,0.2,0c0.1,0,0.1,0,0.2-0.1c0.1,0,0.1-0.1,0.2-0.1c0.1,0,0.1-0.1,0.2-0.2V51.7z M556.1,50.5
						c0.2-0.2,0.3-0.3,0.5-0.3c0.2-0.1,0.4-0.1,0.6-0.1c0.2,0,0.3,0,0.4,0.1c0.1,0.1,0.2,0.1,0.3,0.2c0.1,0.1,0.2,0.2,0.2,0.3
						c0,0.1,0.1,0.3,0.1,0.5V53h-0.2c-0.1,0-0.1,0-0.1,0c0,0-0.1-0.1-0.1-0.1l-0.1-0.3c-0.1,0.1-0.1,0.1-0.2,0.2
						c-0.1,0.1-0.1,0.1-0.2,0.1c-0.1,0-0.2,0.1-0.3,0.1c-0.1,0-0.2,0-0.3,0c-0.1,0-0.2,0-0.3,0c-0.1,0-0.2-0.1-0.3-0.1
						c-0.1-0.1-0.1-0.1-0.2-0.2c0-0.1-0.1-0.2-0.1-0.3c0-0.1,0-0.2,0.1-0.3c0.1-0.1,0.2-0.2,0.3-0.3c0.1-0.1,0.3-0.2,0.5-0.2
						c0.2-0.1,0.5-0.1,0.8-0.1v-0.2c0-0.2,0-0.4-0.1-0.5c-0.1-0.1-0.2-0.2-0.4-0.2c-0.1,0-0.2,0-0.3,0c-0.1,0-0.2,0.1-0.2,0.1
						c-0.1,0-0.1,0.1-0.2,0.1c0,0-0.1,0-0.1,0c0,0-0.1,0-0.1,0c0,0,0,0-0.1-0.1L556.1,50.5z M561.8,50.6
						C561.8,50.7,561.8,50.7,561.8,50.6c-0.1,0.1-0.1,0.1-0.1,0.1c0,0-0.1,0-0.1,0c0,0-0.1-0.1-0.1-0.1c0,0-0.1-0.1-0.2-0.1
						c-0.1,0-0.2,0-0.3,0c-0.1,0-0.3,0-0.4,0.1c-0.1,0-0.2,0.1-0.3,0.2c-0.1,0.1-0.1,0.2-0.2,0.3c0,0.1-0.1,0.3-0.1,0.4
						c0,0.2,0,0.3,0.1,0.5c0,0.1,0.1,0.2,0.2,0.3c0.1,0.1,0.2,0.2,0.3,0.2c0.1,0,0.2,0.1,0.3,0.1c0.1,0,0.2,0,0.3,0
						c0.1,0,0.1-0.1,0.2-0.1c0.1,0,0.1-0.1,0.1-0.1c0,0,0.1,0,0.1,0c0,0,0.1,0,0.1,0.1l0.2,0.2c-0.1,0.1-0.1,0.2-0.2,0.2
						c-0.1,0.1-0.2,0.1-0.3,0.1c-0.1,0-0.2,0.1-0.3,0.1c-0.1,0-0.2,0-0.3,0c-0.2,0-0.4,0-0.5-0.1c-0.2-0.1-0.3-0.2-0.4-0.3
						c-0.1-0.1-0.2-0.3-0.3-0.5c-0.1-0.2-0.1-0.4-0.1-0.6c0-0.2,0-0.4,0.1-0.6c0.1-0.2,0.2-0.3,0.3-0.5c0.1-0.1,0.3-0.2,0.4-0.3
						c0.2-0.1,0.4-0.1,0.6-0.1c0.2,0,0.4,0,0.5,0.1c0.2,0.1,0.3,0.2,0.4,0.3L561.8,50.6z M564.2,53c-0.2,0-0.4-0.1-0.5-0.2
						c-0.1-0.1-0.2-0.3-0.2-0.6v-1.7h-0.3c0,0-0.1,0-0.1,0c0,0,0-0.1,0-0.1v-0.2l0.5-0.1l0.1-0.9c0,0,0-0.1,0-0.1c0,0,0.1,0,0.1,0
						h0.3v1h0.8v0.4H564v1.7c0,0.1,0,0.2,0.1,0.3c0.1,0.1,0.1,0.1,0.2,0.1c0.1,0,0.1,0,0.1,0c0,0,0.1,0,0.1,0c0,0,0.1,0,0.1,0
						c0,0,0,0,0.1,0c0,0,0,0,0,0c0,0,0,0,0,0l0.2,0.3c-0.1,0.1-0.2,0.1-0.3,0.2C564.4,53,564.3,53,564.2,53z M567.8,50.6
						C567.7,50.6,567.7,50.6,567.8,50.6c-0.1,0.1-0.1,0.1-0.1,0.1c0,0-0.1,0-0.1,0c0,0-0.1,0-0.1-0.1c-0.1,0-0.1,0-0.2-0.1
						c-0.1,0-0.2,0-0.3,0c-0.1,0-0.2,0-0.2,0c-0.1,0-0.1,0-0.2,0.1c0,0-0.1,0.1-0.1,0.1c0,0,0,0.1,0,0.2c0,0.1,0,0.1,0.1,0.2
						c0,0,0.1,0.1,0.2,0.1c0.1,0,0.2,0.1,0.2,0.1c0.1,0,0.2,0.1,0.3,0.1c0.1,0,0.2,0.1,0.3,0.1c0.1,0,0.2,0.1,0.2,0.1
						c0.1,0.1,0.1,0.1,0.2,0.2c0,0.1,0.1,0.2,0.1,0.3c0,0.1,0,0.3-0.1,0.4c0,0.1-0.1,0.2-0.2,0.3c-0.1,0.1-0.2,0.1-0.3,0.2
						c-0.1,0-0.3,0.1-0.5,0.1c-0.2,0-0.4,0-0.6-0.1c-0.2-0.1-0.3-0.2-0.4-0.3l0.1-0.2c0,0,0,0,0.1-0.1c0,0,0.1,0,0.1,0
						c0,0,0.1,0,0.1,0c0,0,0.1,0.1,0.1,0.1c0.1,0,0.1,0.1,0.2,0.1c0.1,0,0.2,0,0.3,0c0.1,0,0.2,0,0.2,0c0.1,0,0.1-0.1,0.2-0.1
						c0,0,0.1-0.1,0.1-0.1c0-0.1,0-0.1,0-0.2c0-0.1,0-0.1-0.1-0.2c0-0.1-0.1-0.1-0.2-0.1c-0.1,0-0.1-0.1-0.2-0.1
						c-0.1,0-0.2-0.1-0.3-0.1c-0.1,0-0.2-0.1-0.3-0.1c-0.1,0-0.2-0.1-0.2-0.2c-0.1-0.1-0.1-0.1-0.2-0.2c0-0.1-0.1-0.2-0.1-0.3
						c0-0.1,0-0.2,0.1-0.3c0-0.1,0.1-0.2,0.2-0.3c0.1-0.1,0.2-0.1,0.3-0.2c0.1,0,0.3-0.1,0.5-0.1c0.2,0,0.4,0,0.5,0.1
						c0.2,0.1,0.3,0.1,0.4,0.3L567.8,50.6z"/>
					<path class="st3" d="M98.1,204v-20.4h5.2v7.9h7.8v-7.9h5.2V204H111v-8h-7.8v8H98.1z M122.9,187.3c-0.9,0-1.6-0.2-2-0.7
						c-0.4-0.5-0.6-1.1-0.6-1.8c0-0.7,0.2-1.4,0.6-1.8c0.4-0.5,1.1-0.7,2-0.7c0.9,0,1.6,0.2,2,0.7c0.4,0.5,0.6,1.1,0.6,1.8
						c0,0.7-0.2,1.4-0.6,1.8C124.6,187.1,123.9,187.3,122.9,187.3z M120.9,204v-11.7h-2v-3.7h7V204H120.9z M131.7,208.9l-3.9-1.5
						l3.1-9l4.3,1.6L131.7,208.9z M143.4,204v-20.4h5.2V204H143.4z M151.7,193.5v-2.9h1.1c0.7,0,1.2-0.1,1.5-0.4
						c0.3-0.3,0.5-0.9,0.5-1.8c-0.2,0-0.3,0.1-0.5,0.1c-0.7,0-1.3-0.2-1.8-0.6c-0.5-0.4-0.7-1-0.7-1.8c0-0.7,0.2-1.4,0.7-1.9
						c0.5-0.5,1.1-0.8,2-0.8c0.6,0,1.1,0.1,1.6,0.4c0.5,0.3,0.9,0.7,1.1,1.3c0.3,0.6,0.4,1.5,0.4,2.5v0.4c0,1.9-0.4,3.4-1.3,4.2
						c-0.9,0.9-2.2,1.3-3.9,1.3H151.7z M160.4,204v-15.4h4v4c0.6-3,2.3-4.5,5-4.5h0.2c2.3,0,3.9,1.1,4.7,3.2
						c0.8-2.1,2.3-3.2,4.7-3.2h0.2c1.7,0,3,0.6,4,1.8c0.9,1.2,1.4,3,1.4,5.4v8.8h-5.1v-8.9c0-0.7-0.2-1.3-0.6-1.8
						c-0.4-0.5-0.9-0.7-1.6-0.7c-0.7,0-1.3,0.2-1.7,0.7c-0.4,0.5-0.6,1.1-0.6,1.8v8.9h-5.1v-8.9c0-0.7-0.2-1.3-0.6-1.8
						c-0.4-0.5-0.9-0.7-1.6-0.7c-0.7,0-1.3,0.2-1.7,0.7c-0.4,0.5-0.6,1.1-0.6,1.8v8.9H160.4z M192.1,204l6.5-20.4h8.3l6.8,20.4h-5.4
						l-1.5-4.7h-8.1l-1.5,4.7H192.1z M200,195h5.5l-2.3-7.2h-1L200,195z M215.8,204v-15.4h4v4.1c0.3-1.5,0.9-2.7,1.8-3.4
						c0.9-0.8,2-1.1,3.4-1.1h0.2c1.8,0,3.1,0.6,4.1,1.8c1,1.2,1.5,2.9,1.5,5.3v8.8h-5.1v-9c0-0.7-0.2-1.3-0.6-1.7
						c-0.4-0.5-1-0.7-1.7-0.7c-0.7,0-1.3,0.2-1.8,0.7c-0.4,0.4-0.6,1-0.6,1.8v8.9H215.8z M234.1,204v-15.4h4v4.1
						c0.3-1.5,0.9-2.7,1.8-3.4c0.9-0.8,2-1.1,3.4-1.1h0.2c1.8,0,3.1,0.6,4.1,1.8c1,1.2,1.5,2.9,1.5,5.3v8.8H244v-9
						c0-0.7-0.2-1.3-0.6-1.7c-0.4-0.5-1-0.7-1.7-0.7c-0.7,0-1.3,0.2-1.8,0.7c-0.4,0.4-0.6,1-0.6,1.8v8.9H234.1z M256.9,204.4
						c-1.6,0-3-0.4-4-1.3c-1-0.9-1.5-2.1-1.5-3.6c0-1.2,0.3-2.1,0.9-2.8c0.6-0.7,1.5-1.3,2.5-1.6c1.1-0.3,2.3-0.5,3.7-0.5h2.4
						c0-0.7-0.2-1.2-0.5-1.5c-0.3-0.3-0.8-0.5-1.6-0.5c-0.4,0-0.9,0-1.6,0c-0.7,0-1.4,0-2.2,0.1c-0.8,0-1.5,0.1-2.1,0.1v-4.2
						c0.4,0,1-0.1,1.6-0.1c0.6,0,1.2-0.1,1.9-0.1c0.7,0,1.3,0,1.8,0c2.4,0,4.2,0.5,5.5,1.6c1.3,1,2,2.6,2,4.8v9.4h-4v-2.9
						c-0.3,1-0.9,1.8-1.7,2.4C259.2,204.1,258.2,204.4,256.9,204.4z M258.5,201c0.7,0,1.2-0.2,1.6-0.6c0.5-0.4,0.7-1.1,0.8-2.1v-1.1
						h-2.4c-0.7,0-1.2,0.2-1.6,0.5c-0.4,0.3-0.6,0.8-0.6,1.4c0,0.6,0.2,1,0.6,1.4C257.3,200.8,257.8,201,258.5,201z M268.5,204v-5.5
						h5.5v5.5H268.5z"/>
					<path class="st3" d="M102.3,265.8v5.2h-0.9v-3.2c0-0.1,0-0.1,0-0.2c0-0.1,0-0.2,0-0.2l-1.5,2.8c-0.1,0.2-0.2,0.2-0.4,0.2h-0.2
						c-0.1,0-0.2,0-0.2-0.1c-0.1,0-0.1-0.1-0.2-0.2l-1.5-2.8c0,0.1,0,0.2,0,0.2c0,0.1,0,0.1,0,0.2v3.2h-0.9v-5.2h0.8
						c0,0,0.1,0,0.1,0c0,0,0.1,0,0.1,0c0,0,0.1,0,0.1,0c0,0,0,0.1,0.1,0.1l1.5,2.8c0,0.1,0.1,0.2,0.1,0.3c0,0.1,0.1,0.2,0.1,0.3
						c0-0.1,0.1-0.2,0.1-0.3c0-0.1,0.1-0.2,0.1-0.3l1.4-2.8c0,0,0-0.1,0.1-0.1c0,0,0,0,0.1,0c0,0,0.1,0,0.1,0c0,0,0.1,0,0.1,0H102.3
						z M106.9,267.3l-2,4.7c0,0.1-0.1,0.1-0.1,0.1c0,0-0.1,0-0.2,0h-0.7l0.7-1.5l-1.5-3.4h0.9c0.1,0,0.1,0,0.2,0.1
						c0,0,0.1,0.1,0.1,0.1l0.7,1.8c0,0.1,0,0.1,0.1,0.2c0,0.1,0,0.1,0.1,0.2c0-0.1,0.1-0.3,0.1-0.4l0.7-1.8c0-0.1,0.1-0.1,0.1-0.1
						c0.1,0,0.1-0.1,0.2-0.1H106.9z M112.5,266.8c0,0.1-0.1,0.1-0.1,0.1c0,0-0.1,0-0.1,0c-0.1,0-0.1,0-0.2-0.1
						c-0.1,0-0.1-0.1-0.2-0.1c-0.1,0-0.2-0.1-0.3-0.1c-0.1,0-0.2-0.1-0.4-0.1c-0.2,0-0.4,0.1-0.6,0.2c-0.1,0.1-0.2,0.3-0.2,0.4
						c0,0.1,0,0.2,0.1,0.3c0.1,0.1,0.2,0.1,0.3,0.2c0.1,0.1,0.2,0.1,0.4,0.1c0.1,0,0.3,0.1,0.4,0.1c0.1,0.1,0.3,0.1,0.4,0.2
						c0.1,0.1,0.3,0.2,0.4,0.3c0.1,0.1,0.2,0.2,0.3,0.4c0.1,0.2,0.1,0.3,0.1,0.6c0,0.2,0,0.5-0.1,0.7c-0.1,0.2-0.2,0.4-0.4,0.5
						c-0.2,0.2-0.3,0.3-0.6,0.4c-0.2,0.1-0.5,0.1-0.8,0.1c-0.2,0-0.3,0-0.5-0.1c-0.2,0-0.3-0.1-0.5-0.1c-0.2-0.1-0.3-0.1-0.4-0.2
						c-0.1-0.1-0.3-0.2-0.4-0.3l0.3-0.5c0,0,0.1-0.1,0.1-0.1c0,0,0.1,0,0.1,0c0.1,0,0.1,0,0.2,0.1c0.1,0,0.2,0.1,0.2,0.2
						c0.1,0.1,0.2,0.1,0.3,0.2c0.1,0,0.3,0.1,0.4,0.1c0.3,0,0.4-0.1,0.6-0.2c0.1-0.1,0.2-0.3,0.2-0.5c0-0.1,0-0.2-0.1-0.3
						c-0.1-0.1-0.2-0.2-0.3-0.2s-0.2-0.1-0.4-0.1c-0.1,0-0.3-0.1-0.4-0.1s-0.3-0.1-0.4-0.2c-0.1-0.1-0.3-0.2-0.4-0.3
						c-0.1-0.1-0.2-0.2-0.3-0.4c-0.1-0.2-0.1-0.4-0.1-0.6c0-0.2,0-0.4,0.1-0.6c0.1-0.2,0.2-0.3,0.3-0.5c0.1-0.1,0.3-0.3,0.5-0.3
						c0.2-0.1,0.5-0.1,0.7-0.1c0.3,0,0.6,0,0.9,0.1c0.3,0.1,0.5,0.2,0.7,0.4L112.5,266.8z M114.8,265.7v3h0.2c0.1,0,0.1,0,0.1,0
						c0,0,0.1-0.1,0.1-0.1l0.8-1.1c0-0.1,0.1-0.1,0.1-0.1c0.1,0,0.1,0,0.2,0h0.9l-1.1,1.3c-0.1,0.1-0.2,0.2-0.3,0.3
						c0.1,0,0.1,0.1,0.1,0.1c0,0.1,0.1,0.1,0.1,0.2l1.1,1.8h-0.9c-0.1,0-0.1,0-0.2,0c-0.1,0-0.1-0.1-0.1-0.1l-0.8-1.4
						c0-0.1-0.1-0.1-0.1-0.1c0,0-0.1,0-0.2,0h-0.2v1.7h-1v-5.3H114.8z M119.1,267.3v3.7h-1v-3.7H119.1z M119.2,266.3
						c0,0.1,0,0.2-0.1,0.2c0,0.1-0.1,0.1-0.1,0.2c-0.1,0.1-0.1,0.1-0.2,0.1c-0.1,0-0.2,0-0.2,0c-0.1,0-0.2,0-0.2,0
						c-0.1,0-0.1-0.1-0.2-0.1c-0.1-0.1-0.1-0.1-0.1-0.2c0-0.1,0-0.1,0-0.2c0-0.1,0-0.2,0-0.2c0-0.1,0.1-0.1,0.1-0.2
						c0.1-0.1,0.1-0.1,0.2-0.1c0.1,0,0.2,0,0.2,0c0.1,0,0.2,0,0.2,0c0.1,0,0.1,0.1,0.2,0.1c0.1,0.1,0.1,0.1,0.1,0.2
						C119.2,266.1,119.2,266.2,119.2,266.3z M121.3,265.7v5.3h-1v-5.3H121.3z M123.5,265.7v5.3h-1v-5.3H123.5z M127,268.1
						C126.9,268.1,126.9,268.1,127,268.1c-0.1,0.1-0.1,0.1-0.2,0.1c0,0-0.1,0-0.1,0c0,0-0.1,0-0.2-0.1c-0.1,0-0.1-0.1-0.2-0.1
						c-0.1,0-0.2,0-0.3,0c-0.2,0-0.3,0-0.4,0.1c-0.1,0.1-0.1,0.2-0.1,0.3c0,0.1,0,0.1,0.1,0.2c0.1,0.1,0.1,0.1,0.2,0.1
						c0.1,0,0.2,0.1,0.3,0.1c0.1,0,0.2,0.1,0.3,0.1c0.1,0,0.2,0.1,0.3,0.1c0.1,0.1,0.2,0.1,0.3,0.2c0.1,0.1,0.2,0.2,0.2,0.3
						c0.1,0.1,0.1,0.2,0.1,0.4c0,0.2,0,0.3-0.1,0.5c-0.1,0.1-0.2,0.3-0.3,0.4c-0.1,0.1-0.3,0.2-0.5,0.3c-0.2,0.1-0.4,0.1-0.7,0.1
						c-0.1,0-0.3,0-0.4,0c-0.1,0-0.2-0.1-0.4-0.1c-0.1,0-0.2-0.1-0.3-0.1s-0.2-0.1-0.3-0.2l0.2-0.4c0,0,0.1-0.1,0.1-0.1
						c0,0,0.1,0,0.2,0c0.1,0,0.1,0,0.2,0c0.1,0,0.1,0.1,0.2,0.1c0.1,0,0.1,0.1,0.2,0.1c0.1,0,0.2,0,0.3,0c0.1,0,0.2,0,0.2,0
						c0.1,0,0.1,0,0.2-0.1c0,0,0.1-0.1,0.1-0.1c0,0,0-0.1,0-0.1c0-0.1,0-0.1-0.1-0.2c0-0.1-0.1-0.1-0.2-0.1c-0.1,0-0.2-0.1-0.3-0.1
						c-0.1,0-0.2-0.1-0.3-0.1c-0.1,0-0.2-0.1-0.3-0.1c-0.1-0.1-0.2-0.1-0.3-0.2c-0.1-0.1-0.1-0.2-0.2-0.3c0-0.1-0.1-0.3-0.1-0.4
						c0-0.2,0-0.3,0.1-0.4c0.1-0.1,0.2-0.3,0.3-0.4c0.1-0.1,0.3-0.2,0.4-0.3c0.2-0.1,0.4-0.1,0.6-0.1c0.3,0,0.5,0,0.7,0.1
						c0.2,0.1,0.4,0.2,0.5,0.3L127,268.1z"/>
					
						<rect x="310.3" y="89.2" transform="matrix(0.9982 -5.947415e-02 5.947415e-02 0.9982 -11.6307 28.7661)" class="st7" width="334.4" height="241.2"/>
					<path class="st3" d="M149.4,329v-2.9h0.3c0.1,0,0.1,0,0.1,0.1l0,0.3c0.1-0.1,0.2-0.2,0.4-0.3c0.1-0.1,0.3-0.1,0.5-0.1
						c0.2,0,0.4,0.1,0.5,0.2c0.1,0.1,0.2,0.3,0.3,0.4c0-0.1,0.1-0.2,0.2-0.3c0.1-0.1,0.1-0.1,0.2-0.2c0.1,0,0.2-0.1,0.3-0.1
						c0.1,0,0.2,0,0.3,0c0.2,0,0.3,0,0.4,0.1c0.1,0,0.2,0.1,0.3,0.2c0.1,0.1,0.1,0.2,0.2,0.3c0,0.1,0.1,0.3,0.1,0.5v1.8h-0.5v-1.8
						c0-0.2,0-0.4-0.1-0.5c-0.1-0.1-0.2-0.2-0.4-0.2c-0.1,0-0.2,0-0.2,0c-0.1,0-0.1,0.1-0.2,0.1c-0.1,0.1-0.1,0.1-0.1,0.2
						c0,0.1,0,0.2,0,0.3v1.8h-0.5v-1.8c0-0.2,0-0.4-0.1-0.5c-0.1-0.1-0.2-0.2-0.4-0.2c-0.1,0-0.2,0-0.4,0.1
						c-0.1,0.1-0.2,0.2-0.3,0.3v2.2H149.4z M155.4,326c0.2,0,0.4,0,0.6,0.1c0.2,0.1,0.3,0.2,0.4,0.3c0.1,0.1,0.2,0.3,0.3,0.5
						c0.1,0.2,0.1,0.4,0.1,0.6c0,0.2,0,0.4-0.1,0.6c-0.1,0.2-0.2,0.3-0.3,0.5c-0.1,0.1-0.3,0.2-0.4,0.3c-0.2,0.1-0.4,0.1-0.6,0.1
						c-0.2,0-0.4,0-0.6-0.1c-0.2-0.1-0.3-0.2-0.4-0.3c-0.1-0.1-0.2-0.3-0.3-0.5c-0.1-0.2-0.1-0.4-0.1-0.6c0-0.2,0-0.4,0.1-0.6
						c0.1-0.2,0.2-0.3,0.3-0.5c0.1-0.1,0.3-0.2,0.4-0.3C154.9,326.1,155.1,326,155.4,326z M155.4,328.6c0.3,0,0.5-0.1,0.6-0.3
						c0.1-0.2,0.2-0.5,0.2-0.8c0-0.3-0.1-0.6-0.2-0.8c-0.1-0.2-0.4-0.3-0.6-0.3c-0.1,0-0.3,0-0.4,0.1c-0.1,0-0.2,0.1-0.3,0.2
						c-0.1,0.1-0.1,0.2-0.2,0.3c0,0.1-0.1,0.3-0.1,0.5c0,0.3,0.1,0.6,0.2,0.8C154.8,328.5,155.1,328.6,155.4,328.6z M157.9,326.7
						c0.1-0.2,0.2-0.4,0.3-0.5c0.1-0.1,0.3-0.2,0.5-0.2c0.1,0,0.1,0,0.2,0c0.1,0,0.1,0,0.2,0.1l0,0.4c0,0,0,0.1-0.1,0.1
						c0,0-0.1,0-0.1,0c-0.1,0-0.1,0-0.2,0c-0.1,0-0.2,0-0.2,0c-0.1,0-0.1,0.1-0.2,0.1c-0.1,0.1-0.1,0.1-0.2,0.2
						c0,0.1-0.1,0.2-0.1,0.3v1.8h-0.5v-2.9h0.3c0.1,0,0.1,0,0.1,0c0,0,0,0.1,0,0.1L157.9,326.7z M161.3,327.2c0-0.1,0-0.2-0.1-0.3
						c0-0.1-0.1-0.2-0.1-0.3c-0.1-0.1-0.1-0.1-0.2-0.2c-0.1,0-0.2-0.1-0.3-0.1c-0.2,0-0.4,0.1-0.6,0.2c-0.1,0.1-0.2,0.3-0.3,0.6
						H161.3z M161.7,328.6c-0.1,0.1-0.1,0.1-0.2,0.2c-0.1,0.1-0.2,0.1-0.3,0.1c-0.1,0-0.2,0.1-0.3,0.1c-0.1,0-0.2,0-0.3,0
						c-0.2,0-0.4,0-0.6-0.1c-0.2-0.1-0.3-0.2-0.4-0.3c-0.1-0.1-0.2-0.3-0.3-0.5s-0.1-0.4-0.1-0.7c0-0.2,0-0.4,0.1-0.6
						c0.1-0.2,0.2-0.3,0.3-0.5c0.1-0.1,0.3-0.2,0.4-0.3c0.2-0.1,0.4-0.1,0.6-0.1c0.2,0,0.3,0,0.5,0.1c0.1,0.1,0.3,0.1,0.4,0.3
						c0.1,0.1,0.2,0.2,0.3,0.4c0.1,0.2,0.1,0.3,0.1,0.6c0,0.1,0,0.1,0,0.2s-0.1,0-0.1,0h-1.9c0,0.2,0,0.3,0.1,0.5
						c0,0.1,0.1,0.2,0.2,0.3c0.1,0.1,0.2,0.2,0.3,0.2c0.1,0,0.2,0.1,0.4,0.1c0.1,0,0.2,0,0.3,0c0.1,0,0.2-0.1,0.2-0.1
						c0.1,0,0.1-0.1,0.2-0.1c0,0,0.1,0,0.1,0c0,0,0.1,0,0.1,0L161.7,328.6z M165.4,327.7c-0.2,0-0.4,0-0.6,0.1
						c-0.2,0-0.3,0.1-0.4,0.1c-0.1,0-0.2,0.1-0.2,0.2c0,0.1-0.1,0.1-0.1,0.2c0,0.1,0,0.1,0,0.2c0,0.1,0.1,0.1,0.1,0.1
						c0,0,0.1,0.1,0.2,0.1c0.1,0,0.1,0,0.2,0c0.1,0,0.2,0,0.2,0c0.1,0,0.1,0,0.2-0.1c0.1,0,0.1-0.1,0.2-0.1c0.1,0,0.1-0.1,0.2-0.2
						V327.7z M163.8,326.5c0.2-0.2,0.3-0.3,0.5-0.3c0.2-0.1,0.4-0.1,0.6-0.1c0.2,0,0.3,0,0.4,0.1c0.1,0.1,0.2,0.1,0.3,0.2
						c0.1,0.1,0.2,0.2,0.2,0.3c0,0.1,0.1,0.3,0.1,0.4v1.9h-0.2c-0.1,0-0.1,0-0.1,0c0,0,0,0-0.1-0.1l-0.1-0.3
						c-0.1,0.1-0.2,0.1-0.2,0.2c-0.1,0.1-0.1,0.1-0.2,0.1c-0.1,0-0.2,0.1-0.3,0.1c-0.1,0-0.2,0-0.3,0c-0.1,0-0.2,0-0.3,0
						c-0.1,0-0.2-0.1-0.3-0.1c-0.1-0.1-0.1-0.1-0.2-0.2c0-0.1-0.1-0.2-0.1-0.3c0-0.1,0-0.2,0.1-0.3c0.1-0.1,0.2-0.2,0.3-0.3
						c0.1-0.1,0.3-0.1,0.6-0.2c0.2-0.1,0.5-0.1,0.8-0.1v-0.2c0-0.2,0-0.4-0.1-0.5c-0.1-0.1-0.2-0.2-0.4-0.2c-0.1,0-0.2,0-0.3,0
						c-0.1,0-0.2,0.1-0.2,0.1c-0.1,0-0.1,0.1-0.2,0.1c0,0-0.1,0-0.1,0c0,0-0.1,0-0.1,0c0,0,0,0-0.1-0.1L163.8,326.5z M167.2,328.3
						c0.1,0.1,0.2,0.2,0.3,0.3c0.1,0.1,0.2,0.1,0.4,0.1c0.3,0,0.5-0.1,0.6-0.3c0.1-0.2,0.2-0.5,0.2-0.9c0-0.4-0.1-0.6-0.2-0.8
						c-0.1-0.2-0.3-0.3-0.6-0.3c-0.2,0-0.3,0-0.4,0.1c-0.1,0.1-0.2,0.2-0.3,0.3V328.3z M167.2,326.5c0.1-0.1,0.3-0.3,0.4-0.3
						c0.2-0.1,0.3-0.1,0.5-0.1c0.2,0,0.3,0,0.5,0.1c0.1,0.1,0.3,0.2,0.3,0.3c0.1,0.1,0.2,0.3,0.2,0.4c0.1,0.2,0.1,0.4,0.1,0.6
						c0,0.2,0,0.4-0.1,0.6c-0.1,0.2-0.1,0.4-0.2,0.5c-0.1,0.1-0.2,0.2-0.4,0.3c-0.2,0.1-0.3,0.1-0.5,0.1c-0.2,0-0.4,0-0.5-0.1
						c-0.1-0.1-0.2-0.2-0.3-0.3l0,0.3c0,0.1-0.1,0.1-0.1,0.1h-0.3v-4.2h0.5V326.5z M171.1,326c0.2,0,0.4,0,0.6,0.1
						c0.2,0.1,0.3,0.2,0.4,0.3c0.1,0.1,0.2,0.3,0.3,0.5c0.1,0.2,0.1,0.4,0.1,0.6c0,0.2,0,0.4-0.1,0.6c-0.1,0.2-0.2,0.3-0.3,0.5
						c-0.1,0.1-0.3,0.2-0.4,0.3c-0.2,0.1-0.4,0.1-0.6,0.1c-0.2,0-0.4,0-0.6-0.1c-0.2-0.1-0.3-0.2-0.4-0.3c-0.1-0.1-0.2-0.3-0.3-0.5
						c-0.1-0.2-0.1-0.4-0.1-0.6c0-0.2,0-0.4,0.1-0.6c0.1-0.2,0.2-0.3,0.3-0.5c0.1-0.1,0.3-0.2,0.4-0.3
						C170.7,326.1,170.9,326,171.1,326z M171.1,328.6c0.3,0,0.5-0.1,0.6-0.3c0.1-0.2,0.2-0.5,0.2-0.8c0-0.3-0.1-0.6-0.2-0.8
						c-0.1-0.2-0.4-0.3-0.6-0.3c-0.1,0-0.3,0-0.4,0.1c-0.1,0-0.2,0.1-0.3,0.2c-0.1,0.1-0.1,0.2-0.2,0.3c0,0.1-0.1,0.3-0.1,0.5
						c0,0.3,0.1,0.6,0.2,0.8C170.6,328.5,170.8,328.6,171.1,328.6z M175.6,326.1v2.9h-0.3c-0.1,0-0.1,0-0.1-0.1l0-0.3
						c-0.1,0.1-0.3,0.3-0.4,0.3c-0.2,0.1-0.3,0.1-0.5,0.1c-0.2,0-0.3,0-0.4-0.1c-0.1-0.1-0.2-0.1-0.3-0.2c-0.1-0.1-0.1-0.2-0.2-0.3
						c0-0.1-0.1-0.3-0.1-0.5v-1.9h0.5v1.9c0,0.2,0.1,0.4,0.1,0.5c0.1,0.1,0.3,0.2,0.5,0.2c0.2,0,0.3,0,0.4-0.1
						c0.1-0.1,0.3-0.2,0.4-0.3v-2.1H175.6z M177.3,329c-0.2,0-0.4-0.1-0.5-0.2c-0.1-0.1-0.2-0.3-0.2-0.6v-1.8h-0.3c0,0-0.1,0-0.1,0
						c0,0,0,0,0-0.1v-0.2l0.5-0.1l0.1-0.9c0,0,0-0.1,0-0.1c0,0,0,0,0.1,0h0.3v1h0.8v0.4H177v1.7c0,0.1,0,0.2,0.1,0.3
						c0.1,0.1,0.1,0.1,0.2,0.1c0.1,0,0.1,0,0.1,0c0,0,0.1,0,0.1,0c0,0,0.1,0,0.1,0c0,0,0,0,0.1,0c0,0,0.1,0,0.1,0l0.1,0.2
						c-0.1,0.1-0.2,0.1-0.3,0.2C177.5,329,177.4,329,177.3,329z M179.9,329v-2.9h0.3c0.1,0,0.1,0,0.1,0.1l0,0.3
						c0.1-0.1,0.2-0.2,0.4-0.3c0.1-0.1,0.3-0.1,0.5-0.1c0.2,0,0.4,0.1,0.5,0.2c0.1,0.1,0.2,0.3,0.3,0.4c0-0.1,0.1-0.2,0.2-0.3
						c0.1-0.1,0.1-0.1,0.2-0.2c0.1,0,0.2-0.1,0.3-0.1c0.1,0,0.2,0,0.3,0c0.2,0,0.3,0,0.4,0.1c0.1,0,0.2,0.1,0.3,0.2
						c0.1,0.1,0.1,0.2,0.2,0.3c0,0.1,0.1,0.3,0.1,0.5v1.8h-0.5v-1.8c0-0.2-0.1-0.4-0.1-0.5c-0.1-0.1-0.2-0.2-0.4-0.2
						c-0.1,0-0.2,0-0.2,0c-0.1,0-0.1,0.1-0.2,0.1c-0.1,0.1-0.1,0.1-0.1,0.2c0,0.1,0,0.2,0,0.3v1.8h-0.5v-1.8c0-0.2,0-0.4-0.1-0.5
						c-0.1-0.1-0.2-0.2-0.4-0.2c-0.1,0-0.2,0-0.3,0.1c-0.1,0.1-0.2,0.2-0.3,0.3v2.2H179.9z M186.5,327.2c0-0.1,0-0.2-0.1-0.3
						c0-0.1-0.1-0.2-0.1-0.3c-0.1-0.1-0.1-0.1-0.2-0.2c-0.1,0-0.2-0.1-0.3-0.1c-0.2,0-0.4,0.1-0.6,0.2c-0.1,0.1-0.2,0.3-0.3,0.6
						H186.5z M187,328.6c-0.1,0.1-0.1,0.1-0.2,0.2c-0.1,0.1-0.2,0.1-0.3,0.1c-0.1,0-0.2,0.1-0.3,0.1c-0.1,0-0.2,0-0.3,0
						c-0.2,0-0.4,0-0.6-0.1c-0.2-0.1-0.3-0.2-0.4-0.3c-0.1-0.1-0.2-0.3-0.3-0.5c-0.1-0.2-0.1-0.4-0.1-0.7c0-0.2,0-0.4,0.1-0.6
						c0.1-0.2,0.2-0.3,0.3-0.5c0.1-0.1,0.3-0.2,0.4-0.3c0.2-0.1,0.4-0.1,0.6-0.1c0.2,0,0.3,0,0.5,0.1c0.1,0.1,0.3,0.1,0.4,0.3
						c0.1,0.1,0.2,0.2,0.3,0.4c0.1,0.2,0.1,0.3,0.1,0.6c0,0.1,0,0.1,0,0.2c0,0-0.1,0-0.1,0h-1.9c0,0.2,0,0.3,0.1,0.5
						c0,0.1,0.1,0.2,0.2,0.3c0.1,0.1,0.2,0.2,0.3,0.2c0.1,0,0.2,0.1,0.4,0.1c0.1,0,0.2,0,0.3,0c0.1,0,0.2-0.1,0.2-0.1
						c0.1,0,0.1-0.1,0.2-0.1c0,0,0.1,0,0.1,0c0,0,0.1,0,0.1,0L187,328.6z M187.5,328.7c0,0,0-0.1,0-0.1c0,0,0-0.1,0.1-0.1
						c0,0,0.1-0.1,0.1-0.1c0,0,0.1,0,0.1,0c0.1,0,0.1,0,0.1,0c0,0,0.1,0,0.1,0.1c0,0,0.1,0.1,0.1,0.1s0,0.1,0,0.1c0,0.1,0,0.1,0,0.1
						c0,0,0,0.1-0.1,0.1c0,0-0.1,0.1-0.1,0.1c0,0-0.1,0-0.1,0c0,0-0.1,0-0.1,0c0,0-0.1,0-0.1-0.1c0,0-0.1-0.1-0.1-0.1
						C187.5,328.8,187.5,328.7,187.5,328.7z M188.9,328.7c0,0,0-0.1,0-0.1c0,0,0-0.1,0.1-0.1c0,0,0.1-0.1,0.1-0.1c0,0,0.1,0,0.1,0
						c0.1,0,0.1,0,0.1,0c0,0,0.1,0,0.1,0.1c0,0,0.1,0.1,0.1,0.1c0,0,0,0.1,0,0.1c0,0.1,0,0.1,0,0.1c0,0,0,0.1-0.1,0.1
						c0,0-0.1,0.1-0.1,0.1c0,0-0.1,0-0.1,0c0,0-0.1,0-0.1,0c0,0-0.1,0-0.1-0.1c0,0-0.1-0.1-0.1-0.1
						C188.9,328.8,188.9,328.7,188.9,328.7z M190.2,328.7c0,0,0-0.1,0-0.1c0,0,0-0.1,0.1-0.1c0,0,0.1-0.1,0.1-0.1c0,0,0.1,0,0.1,0
						c0.1,0,0.1,0,0.1,0c0,0,0.1,0,0.1,0.1c0,0,0.1,0.1,0.1,0.1s0,0.1,0,0.1c0,0.1,0,0.1,0,0.1c0,0,0,0.1-0.1,0.1
						c0,0-0.1,0.1-0.1,0.1c0,0-0.1,0-0.1,0c0,0-0.1,0-0.1,0c0,0-0.1,0-0.1-0.1c0,0-0.1-0.1-0.1-0.1
						C190.3,328.8,190.2,328.7,190.2,328.7z"/>
					<g>
						<defs>
							<rect id="SVGID_00000045605978337046894240000001934485534068266131_" x="51" y="44" width="65.9" height="13.6"/>
						</defs>
						<clipPath id="SVGID_00000137112667387731690820000017797389809179434397_">
							<use xlink:href="#SVGID_00000045605978337046894240000001934485534068266131_"  style="overflow:visible;"/>
						</clipPath>
						<g style="clip-path:url(#SVGID_00000137112667387731690820000017797389809179434397_);">
							<path class="st3" d="M52,54.3c0-0.1,0-0.2,0-0.3c0-0.1,0-0.2,0-0.3c0-0.1,0-0.2,0-0.3c0-0.1,0-0.2,0-0.3c0.1,0,0.2,0,0.3,0
								c0.1,0,0.2,0,0.3,0c0.1,0,0.2,0,0.3,0c0.1,0,0.2,0,0.3,0c0,0.1,0,0.2,0,0.3c0,0.1,0,0.2,0,0.3c0,0.1,0,0.2,0,0.3
								c0,0.1,0,0.2,0,0.3c-0.1,0-0.2,0-0.3,0c-0.1,0-0.2,0-0.3,0c-0.1,0-0.2,0-0.3,0C52.2,54.4,52.1,54.4,52,54.3z"/>
							<path class="st3" d="M57.6,50.1c0-0.4-0.1-0.7-0.3-0.9c-0.2-0.2-0.6-0.3-1.1-0.3c-0.2,0-0.5,0-0.7,0.1
								c-0.2,0.1-0.4,0.1-0.7,0.2c-0.2-0.2-0.2-0.6-0.2-0.9c0.2-0.1,0.6-0.2,0.9-0.2c0.3-0.1,0.7-0.1,0.9-0.1c0.7,0,1.3,0.2,1.7,0.5
								c0.4,0.3,0.6,0.9,0.6,1.7v3.7c-0.2,0.1-0.6,0.2-1,0.2c-0.3,0.2-0.7,0.2-1.2,0.2c-0.4,0-0.7,0-1-0.1c-0.2-0.1-0.6-0.2-0.7-0.3
								c-0.2-0.2-0.4-0.3-0.5-0.6C54.1,53,54,52.6,54,52.3c0-0.3,0.1-0.7,0.2-0.9c0.2-0.2,0.4-0.4,0.7-0.6c0.2-0.2,0.5-0.2,0.8-0.3
								c0.3-0.1,0.6-0.1,0.9-0.1c0.2,0,0.4,0,0.6,0c0.2,0,0.3,0,0.4,0V50.1z M57.6,51.3c-0.1,0-0.2,0-0.4-0.1c-0.2-0.1-0.3,0-0.4,0
								c-0.5,0-0.8,0.1-1.1,0.2c-0.2,0.2-0.4,0.4-0.4,0.8c0,0.2,0.1,0.4,0.2,0.6c0.1,0.2,0.2,0.2,0.3,0.3c0,0,0.2,0,0.3,0.1
								c0.2,0.1,0.3,0,0.4,0c0.2,0,0.3,0,0.6,0c0.2,0,0.3-0.1,0.5-0.1V51.3z"/>
							<path class="st3" d="M60,48.2c0.1,0,0.2,0,0.2,0c0.1,0,0.2,0,0.2,0c0.1,0,0.2,0,0.2,0c0.1,0,0.2,0,0.2,0
								c0,0.1,0.1,0.2,0.1,0.4c0,0.2,0,0.3,0,0.5c0.1-0.2,0.2-0.2,0.3-0.4c0.1-0.2,0.2-0.2,0.4-0.3c0.2-0.1,0.3-0.2,0.5-0.2
								C62.5,48,62.7,48,63,48c0.7,0,1.2,0.2,1.5,0.6c0.3,0.4,0.5,1,0.5,1.7V54c-0.1,0-0.2,0-0.3,0c-0.2,0-0.2,0-0.3,0
								c-0.1,0-0.2,0-0.2,0c-0.1,0-0.2,0-0.2,0v-3.4c0-0.6-0.1-1-0.2-1.2c-0.2-0.2-0.4-0.4-0.8-0.4c-0.2,0-0.4,0-0.6,0.1
								c-0.2,0.1-0.3,0.2-0.5,0.3c-0.2,0.2-0.2,0.4-0.3,0.7c-0.1,0.2-0.2,0.6-0.2,0.9V54c-0.1,0-0.2,0-0.2,0c-0.1,0-0.2,0-0.2,0
								c-0.1,0-0.2,0-0.2,0c-0.1,0-0.2,0-0.3,0L60,48.2L60,48.2z"/>
							<path class="st3" d="M66,48c0.1,0,0.2,0,0.3,0c0.1,0,0.2,0,0.2,0c0.1,0,0.2,0,0.3,0c0.1,0,0.2,0,0.3,0l1.2,4.9l1.3-4.9
								c0.1,0,0.2,0,0.2,0c0.1,0,0.2,0,0.3,0c0.1,0,0.2,0,0.3,0c0.1,0,0.2,0,0.2,0l1.3,4.8l1.2-4.8c0.1,0,0.2,0,0.2,0
								c0.1,0,0.2,0,0.2,0c0.1,0,0.2,0,0.2,0c0.1,0,0.2,0,0.3,0l-1.7,5.9c-0.1,0-0.2,0-0.3,0c-0.2,0-0.2,0-0.2,0c-0.1,0-0.2,0-0.2,0
								c-0.1,0-0.2,0-0.3,0l-1.2-4.5L69,53.9c-0.1,0-0.2,0-0.3,0c-0.1,0-0.2,0-0.2,0c-0.1,0-0.2,0-0.2,0c-0.1,0-0.2,0-0.2,0L66,48z"
								/>
							<path class="st3" d="M77.2,51.4c0,0.7,0.2,1.2,0.5,1.4c0.3,0.3,0.8,0.4,1.4,0.4c0.6,0,1.1-0.1,1.6-0.2
								c0.1,0.1,0.1,0.2,0.2,0.4c0,0.2,0.1,0.3,0.1,0.5c-0.2,0.1-0.5,0.2-0.8,0.2c-0.3,0.1-0.7,0.1-1,0.1c-0.6,0-1-0.1-1.4-0.2
								c-0.4-0.2-0.7-0.3-1-0.7c-0.2-0.2-0.4-0.6-0.6-1c-0.1-0.4-0.2-0.8-0.2-1.2c0-0.4,0.1-0.8,0.2-1.2c0.1-0.4,0.2-0.7,0.5-1
								c0.2-0.2,0.6-0.4,0.9-0.6c0.3-0.2,0.7-0.2,1.2-0.2c0.4,0,0.7,0.1,1.1,0.2c0.3,0.2,0.6,0.3,0.7,0.6c0.2,0.2,0.3,0.5,0.5,0.8
								c0.1,0.3,0.2,0.7,0.2,1.1c0,0.1,0,0.2,0,0.3c0,0.1,0,0.2,0,0.3H77.2z M80.2,50.5c0-0.2,0-0.4-0.1-0.6
								c-0.1-0.2-0.2-0.3-0.2-0.5c-0.1-0.2-0.2-0.2-0.4-0.3c-0.2-0.1-0.4-0.2-0.6-0.2c-0.5,0-0.8,0.2-1.1,0.4
								c-0.2,0.2-0.4,0.7-0.5,1.2H80.2z"/>
							<path class="st3" d="M87.3,45c0.1,0,0.2,0,0.2,0c0.1,0,0.2,0,0.2,0c0.1,0,0.2,0,0.2,0c0.1,0,0.2,0,0.2,0v8.3
								c-0.3,0.1-0.7,0.2-1,0.2c-0.3,0.1-0.7,0.1-1.2,0.1c-0.4,0-0.8-0.1-1.2-0.2c-0.3-0.1-0.7-0.2-1-0.5c-0.3-0.2-0.5-0.6-0.7-0.9
								c-0.2-0.3-0.2-0.8-0.2-1.4c0-0.5,0.1-0.9,0.2-1.3c0.2-0.4,0.3-0.7,0.6-1c0.2-0.2,0.6-0.5,0.9-0.7c0.3-0.2,0.7-0.2,1.2-0.2
								c0.2,0,0.4,0,0.6,0.1c0.2,0,0.4,0.1,0.6,0.1V45H87.3z M87.3,48.5c-0.2-0.1-0.3-0.1-0.5-0.2c-0.2-0.1-0.4-0.1-0.6-0.1
								c-0.3,0-0.6,0.1-0.8,0.2c-0.2,0.1-0.4,0.2-0.6,0.5c-0.2,0.2-0.2,0.4-0.3,0.7c-0.1,0.2-0.1,0.6-0.1,0.9c0,0.7,0.2,1.2,0.5,1.6
								c0.3,0.3,0.8,0.5,1.4,0.5c0.2,0,0.4,0,0.6,0c0.2,0,0.3-0.1,0.4-0.1V48.5z"/>
							<path class="st3" d="M91.2,50.5c0,0.7,0.2,1.2,0.5,1.4c0.3,0.3,0.8,0.4,1.4,0.4c0.6,0,1.1-0.1,1.6-0.2
								c0.1,0.1,0.1,0.2,0.2,0.4c0,0.2,0.1,0.3,0.1,0.5c-0.2,0.1-0.5,0.2-0.8,0.2c-0.3,0.1-0.7,0.1-1,0.1c-0.6,0-1-0.1-1.4-0.2
								c-0.4-0.2-0.7-0.3-1-0.7c-0.2-0.2-0.4-0.6-0.6-1C90.1,51,90,50.5,90,50.1s0.1-0.8,0.2-1.2c0.1-0.4,0.2-0.7,0.5-1
								c0.2-0.2,0.5-0.5,0.9-0.7c0.3-0.2,0.7-0.2,1.2-0.2c0.4,0,0.7,0.1,1.1,0.2c0.3,0.2,0.6,0.3,0.7,0.6c0.2,0.2,0.3,0.5,0.5,0.8
								c0.1,0.3,0.2,0.7,0.2,1.1c0,0.1,0,0.2,0,0.3c0,0.1,0,0.2,0,0.3L91.2,50.5L91.2,50.5z M94.2,49.6c0-0.2,0-0.4-0.1-0.6
								c-0.1-0.2-0.2-0.3-0.2-0.5c-0.1-0.2-0.2-0.2-0.4-0.3c-0.2-0.1-0.4-0.2-0.6-0.2c-0.5,0-0.8,0.2-1.1,0.4
								c-0.2,0.2-0.4,0.7-0.5,1.2H94.2z"/>
							<path class="st3" d="M96.2,52c0.2,0.1,0.4,0.2,0.7,0.2c0.2,0.1,0.5,0.1,0.7,0.1c0.2,0,0.3,0,0.5-0.1c0.2-0.1,0.3-0.1,0.4-0.2
								c0.1-0.1,0.2-0.2,0.3-0.2c0.1-0.1,0.1-0.2,0.1-0.4c0-0.2,0-0.2-0.1-0.4c-0.1-0.1-0.2-0.2-0.2-0.2c0,0-0.2,0-0.2-0.1
								c-0.2-0.1-0.2-0.1-0.4-0.2l-0.4-0.2c-0.5-0.2-0.8-0.4-1.1-0.7c-0.2-0.2-0.3-0.6-0.3-0.9c0-0.5,0.2-0.9,0.6-1.2
								c0.4-0.3,0.9-0.5,1.7-0.5c0.3,0,0.6,0,0.9,0.1c0.3,0.1,0.6,0.2,0.7,0.2c0,0.2-0.1,0.3-0.1,0.5c-0.1,0.2-0.1,0.3-0.2,0.4
								c-0.2,0-0.4,0-0.7-0.1C98.9,48,98.7,48,98.4,48c-0.2,0-0.6,0.1-0.7,0.2c-0.2,0.1-0.3,0.2-0.3,0.5c0,0.2,0,0.2,0.1,0.3
								c0.1,0.1,0.2,0.2,0.2,0.2c0.1,0.1,0.2,0.1,0.3,0.2c0.1,0.1,0.2,0.1,0.4,0.2l0.5,0.2c0.2,0.1,0.3,0.2,0.5,0.2
								c0.2,0.1,0.3,0.2,0.4,0.3c0.1,0.2,0.2,0.2,0.2,0.5c0.1,0.2,0.1,0.4,0.1,0.7s-0.1,0.6-0.2,0.7c-0.1,0.2-0.2,0.4-0.5,0.6
								c-0.2,0.2-0.5,0.3-0.7,0.4c-0.3,0.1-0.7,0.2-1,0.2c-0.3,0-0.7,0-1-0.1c-0.3-0.1-0.5-0.2-0.7-0.2c0-0.2,0.1-0.3,0.1-0.5
								C96.2,52.4,96.2,52.2,96.2,52z"/>
							<path class="st3" d="M102.7,48.3H102c0-0.1,0-0.2,0-0.2c0-0.1,0-0.2,0-0.2c0-0.1,0-0.2,0-0.2c0-0.1,0-0.2,0-0.2h1.9v6
								c-0.1,0-0.2,0-0.2,0s-0.2,0-0.2,0c-0.1,0-0.2,0-0.2,0s-0.2,0-0.2,0v-5H102.7z M102.5,46.2c0-0.1,0-0.2,0-0.3
								c0-0.1,0-0.2,0-0.2c0-0.1,0-0.2,0-0.3c0-0.1,0-0.2,0-0.2c0.1,0,0.2,0,0.3,0c0.1,0,0.2,0,0.3,0s0.2,0,0.3,0c0.1,0,0.2,0,0.3,0
								c0,0.1,0,0.2,0,0.2s0,0.2,0,0.3c0,0.1,0,0.2,0,0.2c0,0.1,0,0.2,0,0.3c-0.1,0-0.2,0-0.3,0c-0.1,0-0.2,0-0.3,0s-0.2,0-0.3,0
								C102.7,46.2,102.7,46.2,102.5,46.2z"/>
							<path class="st3" d="M108.7,52.3c0.7,0,1.2,0.2,1.5,0.4c0.3,0.2,0.5,0.7,0.5,1.2c0,0.3-0.1,0.6-0.2,0.8
								c-0.2,0.2-0.4,0.5-0.7,0.7c-0.2,0.2-0.7,0.3-1,0.4c-0.4,0.1-0.8,0.2-1.2,0.2c-0.8,0-1.4-0.2-1.8-0.3s-0.7-0.7-0.7-1.2
								c0-0.3,0.1-0.6,0.2-0.8c0.2-0.2,0.4-0.4,0.7-0.6c-0.2-0.1-0.2-0.2-0.4-0.4c-0.2-0.2-0.2-0.3-0.2-0.6s0.1-0.5,0.2-0.7
								c0.1-0.2,0.3-0.4,0.5-0.6c-0.2-0.2-0.4-0.4-0.6-0.7c-0.2-0.2-0.2-0.6-0.2-1c0-0.3,0.1-0.6,0.2-0.8c0.1-0.2,0.2-0.5,0.5-0.7
								c0.2-0.2,0.5-0.3,0.7-0.4c0.3-0.1,0.7-0.2,1-0.2c0.3,0,0.7,0.1,0.9,0.2c0.2,0.1,0.5,0.2,0.7,0.4c0.2-0.1,0.3-0.2,0.7-0.3
								c0.2-0.1,0.6-0.1,0.8-0.1c0,0.2,0.1,0.3,0.1,0.5c0,0.1,0,0.2,0,0.2c0,0.1,0,0.2,0,0.2h-1.1c0.1,0.2,0.2,0.2,0.2,0.4
								c0.1,0.2,0.1,0.3,0.1,0.5c0,0.3-0.1,0.6-0.2,0.8c-0.1,0.3-0.2,0.5-0.5,0.7c-0.2,0.2-0.5,0.3-0.7,0.4c-0.3,0.1-0.6,0.2-1,0.2
								c-0.3,0-0.6,0-0.8-0.1c-0.1,0.1-0.2,0.2-0.3,0.2c-0.1,0.2-0.2,0.2-0.2,0.4s0.1,0.2,0.2,0.3c0.1,0.1,0.3,0.2,0.7,0.2
								L108.7,52.3z M107.1,53.2c-0.3,0-0.6,0.1-0.7,0.2c-0.2,0.2-0.2,0.4-0.2,0.7c0,0.2,0,0.3,0.1,0.4s0.2,0.2,0.3,0.2
								c0.2,0.1,0.2,0.1,0.4,0.2c0.2,0,0.3,0,0.6,0c0.6,0,1.1-0.1,1.5-0.3c0.3-0.2,0.5-0.5,0.5-0.7c0-0.2-0.1-0.4-0.2-0.5
								c-0.2-0.1-0.4-0.2-0.8-0.2H107.1z M107.7,50.3c0.4,0,0.7-0.1,0.9-0.3c0.2-0.2,0.3-0.5,0.3-0.9c0-0.3-0.1-0.7-0.3-0.9
								c-0.2-0.2-0.5-0.3-0.9-0.3s-0.7,0.1-0.9,0.3c-0.2,0.2-0.3,0.6-0.3,0.9c0,0.3,0.1,0.7,0.3,0.9
								C106.9,50.2,107.2,50.3,107.7,50.3z"/>
							<path class="st3" d="M112,47.1c0.1,0,0.2,0,0.2,0c0.1,0,0.2,0,0.2,0s0.2,0,0.2,0c0.1,0,0.2,0,0.2,0c0,0.1,0.1,0.2,0.1,0.5
								c0,0.2,0,0.3,0,0.5c0.1-0.2,0.2-0.2,0.3-0.4c0.1-0.2,0.2-0.2,0.4-0.3c0.2-0.1,0.3-0.2,0.5-0.2c0.2-0.1,0.4-0.1,0.7-0.1
								c0.7,0,1.2,0.2,1.5,0.6c0.3,0.4,0.5,1,0.5,1.7v3.6c-0.1,0-0.2,0-0.2,0c-0.1,0-0.2,0-0.3,0c-0.1,0-0.2,0-0.2,0
								c-0.1,0-0.2,0-0.2,0v-3.4c0-0.6-0.1-1-0.2-1.2c-0.2-0.2-0.4-0.4-0.8-0.4c-0.2,0-0.4,0-0.6,0.1c-0.2,0.1-0.3,0.2-0.5,0.3
								s-0.2,0.4-0.3,0.7c-0.2,0.3-0.2,0.7-0.2,1v3c-0.1,0-0.2,0-0.2,0s-0.2,0-0.2,0s-0.2,0-0.2,0s-0.2,0-0.3,0L112,47.1L112,47.1z"
								/>
						</g>
					</g>
					<g>
						<rect x="313.2" y="92.2" class="st9" width="361.8" height="241.4"/>
					</g>
					<rect x="313.2" y="92.2" class="st10" width="361.8" height="241.4"/>
					<g>
						<circle class="st9" cx="106" cy="287" r="10"/>
						
							<ellipse transform="matrix(7.088906e-02 -0.9975 0.9975 7.088906e-02 -164.5622 397.2617)" class="st9" cx="131" cy="287" rx="10" ry="10"/>
						<circle class="st9" cx="156" cy="287" r="10"/>
						<circle class="st9" cx="182" cy="287" r="10"/>
						<circle class="st9" cx="106" cy="313" r="10"/>
						
							<ellipse transform="matrix(7.088906e-02 -0.9975 0.9975 7.088906e-02 -190.4968 421.4186)" class="st9" cx="131" cy="313" rx="10" ry="10"/>
					</g>
					<path class="st5" d="M573.5,357l6.5,8.8h-13L573.5,357z"/>
					<path class="st5" d="M558.5,348l6.5,8.8h-13L558.5,348z"/>
					<path class="st6" d="M569.5,357l6.5,8.8h-13L569.5,357z"/>
				</g>
			</g>
			<g>
				<defs>
					<rect id="SVGID_00000019679191661408587550000002088064856753437590_" y="1" width="618" height="412"/>
				</defs>
				<clipPath id="SVGID_00000116945276668749053550000007817411075880592281_">
					<use xlink:href="#SVGID_00000019679191661408587550000002088064856753437590_"  style="overflow:visible;"/>
				</clipPath>
				<g style="clip-path:url(#SVGID_00000116945276668749053550000007817411075880592281_);">
					<path class="st3" d="M58.2,12.5h-7.5c-0.6,0-1.2,0.2-1.6,0.7c-0.4,0.4-0.7,1-0.7,1.6v7.5c0,0.6,0.2,1.2,0.7,1.6
						c0.4,0.4,1,0.7,1.6,0.7h7.5c0.6,0,1.2-0.2,1.6-0.7c0.4-0.4,0.7-1,0.7-1.6v-7.5c0-0.3-0.1-0.6-0.2-0.9c-0.1-0.3-0.3-0.5-0.5-0.7
						c-0.2-0.2-0.5-0.4-0.7-0.5C58.8,12.6,58.5,12.5,58.2,12.5L58.2,12.5z M49.4,14.8c0-0.3,0.1-0.6,0.4-0.9
						c0.2-0.2,0.5-0.4,0.9-0.4h7.5c0.3,0,0.6,0.1,0.9,0.4c0.2,0.2,0.4,0.5,0.4,0.9v7.5c0,0.3-0.1,0.6-0.4,0.9
						c-0.2,0.2-0.5,0.4-0.9,0.4h-7.5c-0.3,0-0.6-0.1-0.9-0.4c-0.2-0.2-0.4-0.5-0.4-0.9V14.8z M67,20.1l1.6-1.6L67,17
						c-0.1-0.1-0.1-0.2-0.1-0.3c0-0.1,0-0.2,0.1-0.3c0.1-0.1,0.2-0.1,0.3-0.1c0.1,0,0.2,0,0.3,0.1l1.9,1.9c0.1,0.1,0.1,0.2,0.1,0.3
						c0,0.1,0,0.2-0.1,0.3l-1.9,1.9c-0.1,0.1-0.2,0.1-0.3,0.1c-0.1,0-0.2,0-0.3-0.1c-0.1-0.1-0.1-0.2-0.1-0.3
						C66.9,20.3,66.9,20.2,67,20.1L67,20.1z M72,12.5h-7.5c-0.6,0-1.2,0.2-1.6,0.7c-0.4,0.4-0.7,1-0.7,1.6v7.5
						c0,0.6,0.2,1.2,0.7,1.6c0.4,0.4,1,0.7,1.6,0.7H72c0.6,0,1.2-0.2,1.6-0.7c0.4-0.4,0.7-1,0.7-1.6v-7.5c0-0.3-0.1-0.6-0.2-0.9
						c-0.1-0.3-0.3-0.5-0.5-0.7c-0.2-0.2-0.5-0.4-0.7-0.5C72.6,12.6,72.3,12.5,72,12.5L72,12.5z M63.2,14.8c0-0.3,0.1-0.6,0.4-0.9
						c0.2-0.2,0.5-0.4,0.9-0.4H72c0.2,0,0.3,0,0.5,0.1c0.2,0.1,0.3,0.2,0.4,0.3c0.1,0.1,0.2,0.3,0.3,0.4c0.1,0.2,0.1,0.3,0.1,0.5
						v7.5c0,0.3-0.1,0.6-0.4,0.9c-0.2,0.2-0.5,0.4-0.9,0.4h-7.5c-0.3,0-0.6-0.1-0.9-0.4c-0.2-0.2-0.4-0.5-0.4-0.9L63.2,14.8z
						 M20.1,14.9c-0.8,0-1.5,0.2-2.2,0.7s-1.1,1-1.4,1.7c-0.3,0.7-0.4,1.5-0.2,2.2c0.1,0.8,0.5,1.4,1.1,2c0.5,0.5,1.2,0.9,2,1.1
						c0.8,0.2,1.5,0.1,2.2-0.2c0.7-0.3,1.3-0.8,1.7-1.4c0.4-0.6,0.7-1.4,0.7-2.2c0-1-0.4-2-1.1-2.7C22.1,15.3,21.1,14.9,20.1,14.9
						L20.1,14.9z M20.1,21.6c-0.6,0-1.1-0.2-1.6-0.5c-0.5-0.3-0.8-0.8-1-1.3c-0.2-0.5-0.3-1.1-0.2-1.6c0.1-0.6,0.4-1.1,0.8-1.5
						c0.4-0.4,0.9-0.7,1.5-0.8c0.6-0.1,1.1-0.1,1.6,0.2c0.5,0.2,1,0.6,1.3,1c0.3,0.5,0.5,1,0.5,1.6c0,0.8-0.3,1.5-0.8,2
						C21.6,21.3,20.9,21.6,20.1,21.6L20.1,21.6z M29.5,14.9c-0.8,0-1.5,0.2-2.2,0.7c-0.6,0.4-1.1,1-1.4,1.7
						c-0.3,0.7-0.4,1.5-0.2,2.2c0.2,0.8,0.5,1.4,1.1,2c0.5,0.5,1.2,0.9,2,1.1c0.8,0.1,1.5,0.1,2.2-0.2c0.7-0.3,1.3-0.8,1.7-1.4
						s0.7-1.4,0.7-2.2c0-0.5-0.1-1-0.3-1.5c-0.2-0.5-0.5-0.9-0.8-1.3c-0.4-0.4-0.8-0.6-1.3-0.8C30.5,15,30,14.9,29.5,14.9L29.5,14.9
						z M29.5,21.6c-0.6,0-1.1-0.2-1.6-0.5c-0.5-0.3-0.8-0.8-1-1.3c-0.2-0.5-0.3-1.1-0.2-1.6s0.4-1.1,0.8-1.5
						c0.4-0.4,0.9-0.7,1.5-0.8c0.6-0.1,1.1-0.1,1.6,0.2c0.5,0.2,1,0.6,1.3,1c0.3,0.5,0.5,1,0.5,1.6c0,0.4-0.1,0.7-0.2,1.1
						c-0.1,0.3-0.4,0.7-0.6,0.9c-0.3,0.3-0.6,0.5-0.9,0.6C30.2,21.5,29.9,21.6,29.5,21.6L29.5,21.6z M31.4,18.8c0,0.1,0,0.2-0.1,0.2
						c-0.1,0.1-0.1,0.1-0.2,0.1h-2.7c-0.1,0-0.2,0-0.2-0.1c-0.1-0.1-0.1-0.1-0.1-0.2c0-0.1,0-0.2,0.1-0.2c0.1-0.1,0.1-0.1,0.2-0.1
						H31c0.1,0,0.2,0,0.2,0.1C31.3,18.6,31.4,18.7,31.4,18.8L31.4,18.8z M53.2,18.9c-0.1-0.1-0.1-0.2-0.1-0.3c0-0.1,0-0.2,0.1-0.3
						l1.9-1.9c0.1-0.1,0.2-0.1,0.3-0.1s0.2,0,0.3,0.1c0.1,0.1,0.1,0.2,0.1,0.3c0,0.1,0,0.2-0.1,0.3l-1.6,1.6l1.6,1.6
						c0,0,0.1,0.1,0.1,0.1c0,0.1,0,0.1,0,0.2c0,0.1,0,0.1,0,0.2c0,0.1-0.1,0.1-0.1,0.1c0,0-0.1,0.1-0.1,0.1c-0.1,0-0.1,0-0.2,0
						c-0.1,0-0.1,0-0.2,0c-0.1,0-0.1-0.1-0.1-0.1L53.2,18.9z M40.5,18.8c0,0.1,0,0.2-0.1,0.2c-0.1,0.1-0.1,0.1-0.2,0.1h-1v1
						c0,0.1,0,0.2-0.1,0.2c-0.1,0.1-0.1,0.1-0.2,0.1s-0.2,0-0.2-0.1c-0.1-0.1-0.1-0.1-0.1-0.2v-1h-1c-0.1,0-0.2,0-0.2-0.1
						c-0.1-0.1-0.1-0.1-0.1-0.2c0-0.1,0-0.2,0.1-0.2c0.1-0.1,0.1-0.1,0.2-0.1h1v-1c0-0.1,0-0.2,0.1-0.2c0.1-0.1,0.1-0.1,0.2-0.1
						s0.2,0,0.2,0.1c0.1,0.1,0.1,0.1,0.1,0.2v1h1c0.1,0,0.2,0,0.2,0.1C40.5,18.6,40.5,18.7,40.5,18.8L40.5,18.8z M21.3,18.8
						c0,0.2-0.1,0.5-0.2,0.7c-0.1,0.2-0.3,0.3-0.5,0.4c-0.2,0.1-0.5,0.1-0.7,0.1c-0.2,0-0.4-0.2-0.6-0.3c-0.2-0.2-0.3-0.4-0.3-0.6
						c0-0.2,0-0.5,0.1-0.7c0.1-0.2,0.2-0.4,0.4-0.5c0.2-0.1,0.4-0.2,0.7-0.2c0.3,0,0.6,0.1,0.8,0.4C21.2,18.1,21.3,18.4,21.3,18.8
						L21.3,18.8z M38.9,14.9c-0.8,0-1.5,0.2-2.2,0.7c-0.6,0.4-1.1,1-1.4,1.7c-0.3,0.7-0.4,1.5-0.2,2.2c0.2,0.8,0.5,1.4,1.1,2
						c0.5,0.5,1.2,0.9,2,1.1c0.8,0.2,1.5,0.1,2.2-0.2c0.7-0.3,1.3-0.8,1.7-1.4c0.4-0.6,0.7-1.4,0.7-2.2c0-0.5-0.1-1-0.3-1.5
						c-0.2-0.5-0.5-0.9-0.8-1.3c-0.4-0.4-0.8-0.6-1.3-0.8C39.9,15,39.4,14.9,38.9,14.9L38.9,14.9z M38.9,21.6
						c-0.6,0-1.1-0.2-1.6-0.5c-0.5-0.3-0.8-0.8-1-1.3c-0.2-0.5-0.3-1.1-0.2-1.6c0.1-0.6,0.4-1.1,0.8-1.5c0.4-0.4,0.9-0.7,1.5-0.8
						c0.6-0.1,1.1-0.1,1.6,0.2c0.5,0.2,1,0.6,1.3,1c0.3,0.5,0.5,1,0.5,1.6c0,0.4-0.1,0.7-0.2,1.1c-0.1,0.3-0.4,0.7-0.6,0.9
						c-0.3,0.3-0.6,0.5-0.9,0.6C39.6,21.5,39.3,21.6,38.9,21.6L38.9,21.6z M410.6,18.8c0-0.7,0.3-1.4,0.8-2c0.5-0.5,1.2-0.9,1.9-0.9
						v-0.4l1.2,0.7l-1.2,0.7v-0.3c-0.4,0-0.8,0.2-1.2,0.5s-0.6,0.6-0.7,1c-0.1,0.4-0.1,0.9,0,1.3c0.1,0.4,0.3,0.8,0.7,1.1
						c0.3,0.3,0.7,0.5,1.1,0.5c0.4,0.1,0.9,0,1.3-0.2c0.4-0.2,0.7-0.5,1-0.8c0.2-0.4,0.4-0.8,0.4-1.2v0h0.7v0c0,0.8-0.3,1.5-0.9,2
						s-1.3,0.8-2.1,0.8c-0.8,0-1.5-0.3-2.1-0.8C410.9,20.3,410.6,19.5,410.6,18.8L410.6,18.8z M86.2,19.8c0,0.1,0,0.2-0.1,0.2
						c-0.1,0.1-0.1,0.1-0.2,0.1h-1.1c-0.1,0-0.2,0-0.2-0.1c-0.1-0.1-0.1-0.1-0.1-0.2c0-0.1,0-0.2,0.1-0.2c0.1-0.1,0.1-0.1,0.2-0.1
						h1.1c0.1,0,0.2,0,0.2,0.1C86.2,19.6,86.2,19.7,86.2,19.8L86.2,19.8z M595.8,19.3h-2v-0.7h2v-2.3h0.7v2.3h2v0.7h-2v2.3h-0.7
						V19.3z M576.5,16h-0.7v-1.1h5.5v5.5h-1.1v-0.7h0.4v-4.2h-4.2V16z M563.7,12.3h-12.4c-0.7,0-1.4,0.3-1.9,0.8
						c-0.5,0.5-0.8,1.2-0.8,1.9v6.7c0,0.7,0.3,1.4,0.8,1.9c0.5,0.5,1.2,0.8,1.9,0.8h12.4c0.7,0,1.4-0.3,1.9-0.8
						c0.5-0.5,0.8-1.2,0.8-1.9V15c0-0.7-0.3-1.4-0.8-1.9C565.1,12.6,564.4,12.3,563.7,12.3L563.7,12.3z M549.6,15
						c0-0.4,0.2-0.9,0.5-1.2c0.3-0.3,0.7-0.5,1.2-0.5h6.2l-1.9,2l0.4,0.4l1.2-1.3V19h0.7v-4.5l1.2,1.3l0.4-0.4l-1.9-2h6.2
						c0.4,0,0.9,0.2,1.2,0.5c0.3,0.3,0.5,0.7,0.5,1.2v6.7c0,0.4-0.2,0.9-0.5,1.2c-0.3,0.3-0.7,0.5-1.2,0.5h-12.4
						c-0.4,0-0.9-0.2-1.2-0.5c-0.3-0.3-0.5-0.7-0.5-1.2L549.6,15z M579.9,16.4h-5.5v5.5h5.5V16.4z M575.1,21.2V17h4.2v4.2
						L575.1,21.2z M590.4,24.3h11.4V13h-11.4V24.3z M600.9,13.8v9.7h-9.7v-9.7L600.9,13.8z M600.5,1h-583C12.9,1,8.4,2.8,5.1,6.1
						S0,13.8,0,18.5v377c0,4.6,1.8,9.1,5.1,12.4s7.7,5.1,12.4,5.1h583c4.6,0,9.1-1.8,12.4-5.1c3.3-3.3,5.1-7.7,5.1-12.4v-377
						c0-4.6-1.8-9.1-5.1-12.4C609.6,2.8,605.1,1,600.5,1L600.5,1z M600.5,410.2h-583c-3.9,0-7.6-1.5-10.4-4.3
						c-2.7-2.7-4.3-6.5-4.3-10.3V35.8h612.3v359.7c0,3.9-1.5,7.6-4.3,10.3C608.1,408.6,604.4,410.2,600.5,410.2L600.5,410.2z
						 M17.5,3.8h583c3.9,0,7.6,1.5,10.4,4.3c2.7,2.7,4.3,6.5,4.3,10.3V33H2.8V18.5c0-3.9,1.5-7.6,4.3-10.3
						C9.9,5.4,13.6,3.8,17.5,3.8L17.5,3.8z M584.1,12.3h-12.4c-0.7,0-1.4,0.3-1.9,0.8c-0.5,0.5-0.8,1.2-0.8,1.9v6.7
						c0,0.7,0.3,1.4,0.8,1.9c0.5,0.5,1.2,0.8,1.9,0.8h12.4c0.7,0,1.4-0.3,1.9-0.8c0.5-0.5,0.8-1.2,0.8-1.9V15c0-0.7-0.3-1.4-0.8-1.9
						C585.5,12.6,584.8,12.3,584.1,12.3z M570,15c0-0.4,0.2-0.9,0.5-1.2c0.3-0.3,0.7-0.5,1.2-0.5h12.4c0.4,0,0.9,0.2,1.2,0.5
						c0.3,0.3,0.5,0.7,0.5,1.2v6.7c0,0.4-0.2,0.9-0.5,1.2c-0.3,0.3-0.7,0.5-1.2,0.5h-12.4c-0.4,0-0.9-0.2-1.2-0.5
						c-0.3-0.3-0.5-0.7-0.5-1.2V15z M86.2,16.7c0,0.1,0,0.2-0.1,0.2c-0.1,0.1-0.1,0.1-0.2,0.1h-1.1c-0.1,0-0.2,0-0.2-0.1
						c-0.1-0.1-0.1-0.1-0.1-0.2c0-0.1,0-0.2,0.1-0.2c0.1-0.1,0.1-0.1,0.2-0.1h1.1c0.1,0,0.2,0,0.2,0.1
						C86.2,16.6,86.2,16.6,86.2,16.7L86.2,16.7z M86.2,17.8c0,0.1,0,0.2-0.1,0.2c-0.1,0.1-0.1,0.1-0.2,0.1h-1.1
						c-0.1,0-0.2,0-0.2-0.1c-0.1-0.1-0.1-0.1-0.1-0.2c0-0.1,0-0.2,0.1-0.2c0.1-0.1,0.1-0.1,0.2-0.1h1.1c0.1,0,0.2,0,0.2,0.1
						C86.2,17.6,86.2,17.7,86.2,17.8L86.2,17.8z M560.4,22h-6v-6h2.2v0.7h-1.5v4.6h4.7v-4.6h-1.5V16h2.2L560.4,22z M93.2,15h-9.7
						v7.1h9.7V15z M84.2,21.5v-5.8h2.5v5.8H84.2z M87.3,21.5v-5.8h5.2v5.8H87.3z M86.2,18.8c0,0.1,0,0.2-0.1,0.2s-0.1,0.1-0.2,0.1
						h-1.1c-0.1,0-0.2,0-0.2-0.1c-0.1-0.1-0.1-0.1-0.1-0.2c0-0.1,0-0.2,0.1-0.2c0.1-0.1,0.1-0.1,0.2-0.1h1.1c0.1,0,0.2,0,0.2,0.1
						C86.2,18.6,86.2,18.7,86.2,18.8L86.2,18.8z M94.6,12.4H82.1c-0.7,0-1.4,0.3-1.9,0.8c-0.5,0.5-0.8,1.2-0.8,1.9v6.7
						c0,0.7,0.3,1.4,0.8,1.9c0.5,0.5,1.2,0.8,1.9,0.8h12.4c0.7,0,1.4-0.3,1.9-0.8c0.5-0.5,0.8-1.2,0.8-1.9v-6.7
						c0-0.7-0.3-1.4-0.8-1.9C96,12.7,95.3,12.5,94.6,12.4L94.6,12.4z M80.5,15.1c0-0.4,0.2-0.9,0.5-1.2c0.3-0.3,0.7-0.5,1.2-0.5
						h12.4c0.4,0,0.9,0.2,1.2,0.5c0.3,0.3,0.5,0.7,0.5,1.2v6.7c0,0.4-0.2,0.9-0.5,1.2c-0.3,0.3-0.7,0.5-1.2,0.5H82.1
						c-0.4,0-0.9-0.2-1.2-0.5s-0.5-0.7-0.5-1.2V15.1z M417.3,12.3H184.7c-0.6,0-1.3,0.3-1.7,0.7c-0.5,0.5-0.7,1.1-0.7,1.7V22
						c0,0.6,0.3,1.2,0.7,1.7s1.1,0.7,1.7,0.7h232.6c0.6,0,1.3-0.3,1.7-0.7c0.5-0.5,0.7-1.1,0.7-1.7v-7.3c0-0.6-0.3-1.2-0.7-1.7
						C418.6,12.6,417.9,12.3,417.3,12.3L417.3,12.3z M183.3,14.7c0-0.4,0.1-0.7,0.4-1c0.3-0.3,0.6-0.4,1-0.4h232.6
						c0.4,0,0.7,0.1,1,0.4c0.3,0.3,0.4,0.6,0.4,1V22c0,0.4-0.1,0.7-0.4,1c-0.3,0.3-0.6,0.4-1,0.4H184.7c-0.4,0-0.7-0.1-1-0.4
						c-0.3-0.3-0.4-0.6-0.4-1L183.3,14.7z"/>
				</g>
			</g>
		</g>
	</g>
</g>
</svg>
