<svg enable-background="new 0 0 618 420" viewBox="0 0 618 420" xmlns="http://www.w3.org/2000/svg" xmlns:xlink="http://www.w3.org/1999/xlink"><clipPath id="a"><path d="m20 0h578c11 0 20 9 20 20v380c0 11-9 20-20 20h-578c-11 0-20-9-20-20v-380c0-11 9-20 20-20z"/></clipPath><clipPath id="b"><path d="m-29 36h677.3v420h-677.3z"/></clipPath><clipPath id="c"><path d="m51 44h65.9v13.6h-65.9z"/></clipPath><clipPath id="d"><path d="m0 1h618v412h-618z"/></clipPath><g clip-path="url(#a)"><path d="m20 0h578c11 0 20 9 20 20v380c0 11-9 20-20 20h-578c-11 0-20-9-20-20v-380c0-11 9-20 20-20z" fill="#fff" fill-opacity=".02"/><g clip-path="url(#b)"><g fill="#fff"><path d="m98.4 224.2c0 .3 0 .5-.1.8-.1.2-.2.4-.3.6s-.3.3-.5.4-.4.1-.7.1c-.2 0-.5 0-.7-.1 0-.1 0-.1 0-.2s0-.1 0-.2v-.1h.1.2.3c.2 0 .3 0 .4-.1s.2-.1.3-.2.1-.2.2-.4c0-.2.1-.3.1-.6v-3.4h.7zm4-1.8v3.6h-.4c-.1 0-.1 0-.2-.1l-.1-.4c-.2.2-.3.3-.5.4s-.4.2-.7.2c-.2 0-.4 0-.5-.1-.2-.1-.3-.2-.4-.3s-.2-.3-.2-.4c-.1-.2-.1-.4-.1-.6v-2.3h.6v2.3c0 .3.1.5.2.6.1.2.3.2.6.2.2 0 .4 0 .5-.1.2-.1.3-.2.5-.4v-2.7h.7zm1.6.5c.1-.1.2-.2.2-.2.1-.1.2-.1.3-.2s.2-.1.3-.1h.4c.2 0 .4 0 .5.1.2.1.3.2.4.3s.2.3.2.4c.1.2.1.4.1.6v2.3h-.6v-2.3c0-.3-.1-.5-.2-.6-.1-.2-.3-.2-.6-.2-.2 0-.4 0-.5.1-.2.1-.3.2-.5.4v2.7h-.6v-3.6h.4c.1 0 .1 0 .2.1zm4.1-.5v3.6h-.6v-3.6zm.1-1.2v.2c0 .1-.1.1-.1.1s-.1.1-.1.1c-.1 0-.1 0-.2 0s-.1 0-.2 0-.1-.1-.1-.1-.1-.1-.1-.1c0-.1 0-.1 0-.2s0-.1 0-.2.1-.1.1-.1.1-.1.1-.1h.2.2c.1 0 .1.1.1.1s.1.1.1.1zm2.5 1.1c.3 0 .5 0 .7.1s.4.2.5.4c.2.2.3.4.3.6.1.2.1.5.1.8s0 .5-.1.8c-.1.2-.2.4-.3.6-.2.2-.3.3-.5.4s-.5.1-.7.1c-.3 0-.5 0-.7-.1s-.4-.2-.5-.4c-.2-.2-.3-.4-.3-.6-.1-.2-.1-.5-.1-.8s0-.5.1-.8l.3-.6c.2-.2.3-.3.5-.4.2 0 .4-.1.7-.1zm0 3.3c.4 0 .6-.1.8-.4.2-.2.3-.6.3-1s-.1-.8-.3-1-.4-.4-.8-.4c-.2 0-.3 0-.5.1-.1.1-.2.2-.3.3s-.2.3-.2.4c0 .2-.1.4-.1.6 0 .4.1.8.3 1 .1.2.4.4.8.4zm3.1-2.5c.1-.2.3-.4.4-.6.2-.1.4-.2.6-.2h.2c.1 0 .1 0 .2.1v.5c0 .1-.1.1-.1.1h-.1c-.1 0-.1 0-.2 0s-.2 0-.3.1c-.1 0-.2.1-.2.1-.1.1-.1.1-.2.2s-.1.2-.2.3v2.3h-.6v-3.6h.4.1s0 .1.1.1zm10.4-2.2-1.6 5.1h-.6l-1.3-3.9v-.1-.1.1s0 .1 0 .1l-1.3 3.9h-.6l-1.6-5.1h.6.2s.1.1.1.1l1.1 3.6v.2.2c0-.1 0-.2.1-.2 0-.1 0-.1.1-.2l1.2-3.6s0-.1.1-.1c0 0 .1-.1.2-.1h.2.2s.1.1.1.1l1.2 3.6c0 .1 0 .1.1.2 0 .1 0 .1.1.2 0-.1 0-.2 0-.2 0-.1 0-.1 0-.2l1.1-3.6s0-.1.1-.1h.2zm2.7 2.9c0-.1 0-.3-.1-.4 0-.1-.1-.2-.2-.3s-.2-.2-.3-.2-.2-.1-.4-.1c-.3 0-.5.1-.7.3s-.3.4-.3.7zm.5 1.7c-.1.1-.2.2-.3.3s-.2.1-.4.2c-.1 0-.3.1-.4.1s-.3 0-.4 0c-.3 0-.5 0-.7-.1s-.4-.2-.5-.4c-.2-.2-.3-.4-.4-.6s-.1-.5-.1-.8 0-.5.1-.7l.3-.6c.1-.2.3-.3.5-.4s.4-.1.7-.1c.2 0 .4 0 .6.1s.3.2.5.3c.1.1.2.3.3.5s.1.4.1.7v.2s-.1.1-.1.1h-2.4c0 .2 0 .4.1.6s.1.3.2.4.2.2.4.3c.1.1.3.1.5.1s.3 0 .4-.1c.1 0 .2-.1.3-.1s.2-.1.2-.1c.1 0 .1-.1.1-.1.1 0 .1 0 .1.1zm1.5-.4c.1.2.2.3.4.3.1.1.3.1.5.1.3 0 .6-.1.8-.4.2-.2.3-.6.3-1.1 0-.4-.1-.8-.2-1-.2-.2-.4-.3-.7-.3-.2 0-.4 0-.5.1-.2.1-.3.2-.4.4v1.9zm0-2.2c.2-.2.3-.3.5-.4s.4-.2.7-.2c.2 0 .4 0 .6.1s.3.2.4.4.2.3.3.6c.1.2.1.5.1.7 0 .3 0 .6-.1.8s-.2.4-.3.6-.3.3-.5.4-.4.1-.7.1c-.2 0-.4 0-.6-.1s-.3-.2-.4-.4v.3c0 .1-.1.1-.2.1h-.4v-5.3h.6zm9.8.5c0 .4-.1.7-.2 1s-.3.6-.5.8-.5.4-.8.5-.7.2-1 .2h-1.9v-5.1h1.9c.4 0 .7.1 1 .2s.6.3.8.5.4.5.5.8c.1.4.2.7.2 1.1zm-.8 0c0-.3 0-.6-.1-.8s-.2-.5-.4-.6c-.2-.2-.3-.3-.6-.4-.2-.1-.5-.1-.8-.1h-1.2v4h1.2c.3 0 .5 0 .8-.1.2-.1.4-.2.6-.4s.3-.4.4-.6c.1-.4.1-.7.1-1zm4 .4c0-.1 0-.3-.1-.4 0-.1-.1-.2-.2-.3s-.2-.2-.3-.2-.2-.1-.4-.1c-.3 0-.5.1-.7.3s-.3.4-.3.7zm.5 1.7c-.1.1-.2.2-.3.3s-.2.1-.4.2c-.1 0-.3.1-.4.1s-.3 0-.4 0c-.3 0-.5 0-.7-.1s-.4-.2-.5-.4c-.2-.2-.3-.4-.4-.6s-.1-.5-.1-.8 0-.5.1-.7.2-.4.3-.6.3-.3.5-.4.4-.1.7-.1c.2 0 .4 0 .6.1s.3.2.5.3c.1.1.2.3.3.5s.1.4.1.7v.2s-.1.1-.1.1h-2.4c0 .2 0 .4.1.6s.1.3.2.4.2.2.4.3c.1.1.3.1.5.1s.3 0 .4-.1c.1 0 .2-.1.3-.1s.2-.1.2-.1c.1 0 .1-.1.1-.1.1 0 .1 0 .1.1zm3-2.5c0 .1-.1.1-.1.1h-.1s-.1-.1-.2-.1-.1-.1-.2-.1-.2 0-.3 0-.2 0-.3 0-.2.1-.2.1c-.1 0-.1.1-.1.2v.2c0 .1 0 .2.1.2l.2.2c.1 0 .2.1.3.1s.2.1.3.1.2.1.3.1.2.1.3.2.2.2.2.3c.1.1.1.2.1.4s0 .3-.1.5c-.1.1-.1.3-.3.4-.1.1-.3.2-.4.2-.2.1-.4.1-.6.1-.3 0-.5 0-.7-.1s-.4-.2-.5-.3l.2-.2s0-.1.1-.1h.1s.1 0 .1.1c0 0 .1.1.2.1s.2.1.3.1.2.1.4.1h.3c.1 0 .2-.1.2-.1.1-.1.1-.1.1-.2s0-.1 0-.2 0-.2-.1-.2c-.1-.1-.1-.1-.2-.2-.1 0-.2-.1-.3-.1s-.2-.1-.3-.1-.2-.1-.3-.1c-.1-.1-.2-.1-.3-.2s-.2-.2-.2-.3c-.1-.1-.1-.2-.1-.4 0-.1 0-.3.1-.4s.1-.2.3-.3c.1-.1.2-.2.4-.2.2-.1.3-.1.5-.1s.5 0 .6.1c.2.1.4.2.5.3zm1.6-.6v3.6h-.6v-3.6zm.2-1.2v.2c0 .1-.1.1-.1.1s-.1.1-.1.1c-.1 0-.1 0-.2 0s-.1 0-.2 0-.1-.1-.1-.1-.1-.1-.1-.1c0-.1 0-.1 0-.2s0-.1 0-.2.1-.1.1-.1.1-.1.1-.1h.2.2c.1 0 .1.1.1.1s.1.1.1.1c-.1.1 0 .2 0 .2zm2.1 3c.1 0 .2 0 .3-.1.1 0 .2-.1.2-.1l.2-.2c0-.1 0-.2 0-.3 0-.2-.1-.4-.2-.5s-.3-.2-.6-.2-.5.1-.6.2-.2.3-.2.5v.3c0 .1.1.2.2.2.1.1.1.1.2.1.3.1.4.1.5.1zm1.2 2c0-.1 0-.2-.1-.2-.1-.1-.1-.1-.2-.1s-.2-.1-.3-.1-.2 0-.4 0c-.1 0-.2 0-.4 0s-.3 0-.4 0c-.1.1-.2.1-.3.2s-.1.2-.1.3 0 .2.1.2c0 .1.1.1.2.2s.2.1.3.1h.5.5c.1 0 .3-.1.3-.1.1-.1.2-.1.2-.2s.1-.2.1-.3zm.6-3.7v.2c0 .1-.1.1-.2.1l-.4.1c.1.2.1.3.1.5s0 .3-.1.5c-.1.1-.2.3-.3.4s-.3.2-.4.2c-.2.1-.3.1-.5.1s-.3 0-.5-.1c-.1 0-.1.1-.2.2 0 .1-.1.1-.1.2s0 .2.1.2.2.1.3.1h.4.5c.2 0 .3 0 .5.1.1 0 .3.1.4.1.1.1.2.1.3.2s.1.2.1.4 0 .3-.1.5c-.1.1-.2.3-.3.4s-.3.2-.5.3-.4.1-.7.1-.5 0-.7-.1-.4-.1-.5-.2-.2-.2-.3-.3-.1-.2-.1-.4.1-.3.2-.5c.1-.1.3-.2.5-.3-.1 0-.2-.1-.3-.2s-.1-.2-.1-.3 0-.1 0-.2 0-.1.1-.2c0-.1.1-.1.1-.2.1-.1.1-.1.2-.1-.2-.1-.3-.2-.4-.4s-.2-.4-.2-.6 0-.3.1-.5c.1-.1.2-.3.3-.4s.3-.2.4-.2c.2-.1.4-.1.6-.1s.3 0 .4.1c.1 0 .3.1.4.1h.9zm1.3.4c.1-.1.2-.2.3-.2.1-.1.2-.1.3-.2s.2-.1.3-.1h.4c.2 0 .4 0 .5.1.2.1.3.2.4.3s.2.3.2.4c.1.2.1.4.1.6v2.3h-.6v-2.3c0-.3-.1-.5-.2-.6-.1-.2-.3-.2-.6-.2-.2 0-.4 0-.5.1-.2.1-.3.2-.5.4v2.7h-.6v-3.6h.4c.1 0 .1 0 .2.1zm5.8.9c0-.1 0-.3-.1-.4 0-.1-.1-.2-.2-.3s-.2-.2-.3-.2-.2-.1-.4-.1c-.3 0-.5.1-.7.3s-.3.4-.3.7zm.5 1.7c-.1.1-.2.2-.3.3s-.2.1-.4.2c-.1 0-.3.1-.4.1s-.3 0-.4 0c-.3 0-.5 0-.7-.1s-.4-.2-.5-.4c-.2-.2-.3-.4-.4-.6s-.1-.5-.1-.8 0-.5.1-.7.2-.4.3-.6.3-.3.5-.4.4-.1.7-.1c.2 0 .4 0 .6.1s.3.2.5.3c.1.1.2.3.3.5s.1.4.1.7v.2s-.1.1-.1.1h-2.4c0 .2 0 .4.1.6s.1.3.2.4.2.2.4.3c.1.1.3.1.5.1s.3 0 .4-.1c.1 0 .2-.1.3-.1s.2-.1.2-.1c.1 0 .1-.1.1-.1.1 0 .1 0 .1.1zm1.5-2.4c.1-.2.3-.4.4-.6.2-.1.4-.2.6-.2h.2c.1 0 .1 0 .2.1v.5c0 .1 0 .1-.1.1h-.1c-.1 0-.1 0-.2 0s-.2 0-.3.1c-.1 0-.2.1-.2.1-.1.1-.1.1-.2.2s-.1.2-.2.3v2.3h-.6v-3.6h.4.1s0 .1.1.1zm4 3c0 .1-.1.1-.1.2-.1 0-.1.1-.2.1h-.3l2.2-5.4c0-.1.1-.1.1-.2.1 0 .1-.1.2-.1h.3zm8.5-1.2h.1l.3.3c-.2.2-.5.4-.8.6-.3.1-.7.2-1.1.2s-.7-.1-1-.2-.6-.3-.8-.5-.4-.5-.5-.8-.2-.7-.2-1.1.1-.7.2-1.1c.1-.3.3-.6.5-.8s.5-.4.8-.5.6-.2 1-.2.7.1 1 .2.5.3.7.5l-.2.3s0 0-.1.1h-.1s-.1 0-.2-.1c-.1 0-.1-.1-.2-.2s-.2-.1-.4-.2c-.2 0-.3-.1-.6-.1s-.5 0-.7.1-.4.2-.6.4-.3.4-.4.6c-.1.3-.1.5-.1.8s0 .6.1.9c.1.2.2.5.4.6.2.2.3.3.6.4.2.1.5.1.7.1h.4c.1 0 .2 0 .3-.1.1 0 .2-.1.3-.1.1-.1.2-.1.3-.2.2.2.3.1.3.1zm2.5-2.6c.3 0 .5 0 .7.1s.4.2.5.4c.2.2.3.4.3.6.1.2.1.5.1.8s0 .5-.1.8c-.1.2-.2.4-.3.6-.2.2-.3.3-.5.4s-.5.1-.7.1c-.3 0-.5 0-.7-.1s-.4-.2-.5-.4c-.2-.2-.3-.4-.3-.6-.1-.2-.1-.5-.1-.8s0-.5.1-.8c.1-.2.2-.4.3-.6.2-.2.3-.3.5-.4.2 0 .4-.1.7-.1zm0 3.3c.4 0 .6-.1.8-.4.2-.2.3-.6.3-1s-.1-.8-.3-1-.4-.4-.8-.4c-.2 0-.3 0-.5.1-.1.1-.2.2-.3.3s-.2.3-.2.4c0 .2-.1.4-.1.6 0 .4.1.8.3 1s.4.4.8.4zm4.9-2.4c-.1-.2-.2-.3-.4-.3-.1-.1-.3-.1-.5-.1-.3 0-.6.1-.8.4-.2.2-.3.6-.3 1 0 .2 0 .4.1.6 0 .2.1.3.2.4s.2.2.3.2c.1.1.2.1.4.1s.4 0 .5-.1c.2-.1.3-.2.4-.4v-1.8zm.6-2.5v5.3h-.4c-.1 0-.1 0-.2-.1l-.1-.4c-.2.2-.3.3-.5.5-.2.1-.4.2-.7.2-.2 0-.4 0-.6-.1s-.3-.2-.4-.4-.2-.3-.3-.6c-.1-.2-.1-.5-.1-.8s0-.5.1-.7.2-.4.3-.6.3-.3.5-.4.4-.1.7-.1c.2 0 .4 0 .6.1s.3.2.4.3v-2h.7zm3.5 3.1c0-.1 0-.3-.1-.4 0-.1-.1-.2-.2-.3s-.2-.2-.3-.2-.2-.1-.4-.1c-.3 0-.5.1-.7.3s-.3.4-.3.7zm.5 1.7c-.1.1-.2.2-.3.3s-.2.1-.4.2c-.1 0-.3.1-.4.1s-.3 0-.4 0c-.3 0-.5 0-.7-.1s-.4-.2-.5-.4c-.2-.2-.3-.4-.4-.6s-.1-.5-.1-.8 0-.5.1-.7.2-.4.3-.6.3-.3.5-.4.4-.1.7-.1c.2 0 .4 0 .6.1s.3.2.5.3c.1.1.2.3.3.5s.1.4.1.7v.2s-.1.1-.1.1h-2.4c0 .2 0 .4.1.6s.1.3.2.4.2.2.4.3c.1.1.3.1.5.1s.3 0 .4-.1c.1 0 .2-.1.3-.1s.2-.1.2-.1c.1 0 .1-.1.1-.1.1 0 .1 0 .1.1zm1.4-2.4c.1-.2.3-.4.4-.6.2-.1.4-.2.6-.2h.2c.1 0 .1 0 .2.1v.5c0 .1 0 .1-.1.1h-.1c-.1 0-.1 0-.2 0s-.2 0-.3.1c-.1 0-.2.1-.2.1-.1.1-.1.1-.2.2s-.1.2-.2.3v2.3h-.6v-3.6h.4.1s0 .1.1.1zm-84.6 11.3-1.2 3.6h-.5c-.1 0-.1 0-.1-.1l-.8-2.5c0-.1 0-.1 0-.2s0-.1 0-.2v.2.2l-.8 2.5c0 .1-.1.1-.1.1h-.5l-1.2-3.6h.5.1s.1.1.1.1l.7 2.3c0 .2.1.3.1.5 0-.1 0-.2.1-.2 0-.1 0-.2.1-.2l.8-2.4s0-.1.1-.1h.1.1s.1.1.1.1l.7 2.4c0 .1.1.2.1.2 0 .1 0 .2.1.2 0-.1 0-.2 0-.2 0-.1 0-.2.1-.3l.7-2.3s0-.1.1-.1h.1zm1.3 0v3.6h-.6v-3.6zm.1-1.2v.2c0 .1-.1.1-.1.1s-.1.1-.1.1c-.1 0-.1 0-.2 0s-.1 0-.2 0-.1-.1-.1-.1-.1-.1-.1-.1c0-.1 0-.1 0-.2s0-.1 0-.2.1-.1.1-.1.1-.1.1-.1h.2.2c.1 0 .1.1.1.1s.1.1.1.1zm2.1 4.9c-.3 0-.5-.1-.7-.2-.2-.2-.2-.4-.2-.7v-2.2h-.4-.1v-.1-.3l.6-.1.1-1.1v-.1h.1.3v1.2h1.1v.5h-1.1v2.2c0 .2 0 .3.1.3.1.1.2.1.3.1h.2c.1 0 .1 0 .1-.1 0 0 .1 0 .1-.1h.1s.1 0 .1.1l.2.3c-.1.1-.2.2-.4.2s-.4.1-.5.1zm2.1-3.2c.2-.2.3-.3.5-.4s.4-.1.7-.1c.2 0 .4 0 .5.1.2.1.3.2.4.3s.2.3.2.4c.1.2.1.4.1.6v2.3h-.6v-2.3c0-.3-.1-.5-.2-.6-.1-.2-.3-.2-.6-.2-.2 0-.4 0-.5.1-.2.1-.3.2-.5.4v2.7h-.6v-5.3h.6zm8.2 2.5c.1 0 .1 0 .2.1 0 0 .1.1.1.2v.4h-3.4v-.2-.1s0-.1.1-.1l1.6-1.7c.1-.1.3-.3.4-.4s.2-.3.3-.4.1-.3.2-.4c0-.1.1-.3.1-.4 0-.2 0-.3-.1-.4 0-.1-.1-.2-.2-.3s-.2-.1-.3-.2c-.1 0-.2-.1-.4-.1-.1 0-.3 0-.4.1-.1 0-.2.1-.3.2s-.2.1-.2.2c-.1.1-.1.2-.1.3s-.1.1-.1.2c0 0-.1 0-.2 0l-.3-.1c0-.2.1-.4.2-.6s.2-.3.4-.5c.1-.1.3-.2.5-.3s.4-.1.6-.1.4 0 .6.1.4.2.5.3.2.3.3.4c.1.2.1.4.1.6s0 .4-.1.5c-.1.2-.1.3-.2.5s-.2.3-.3.4-.3.3-.4.4l-1.4 1.4c.1 0 .2 0 .3-.1h.3 1.6zm4.4-1.6h-1.5v1.5h-.5v-1.5h-1.5v-.5h1.5v-1.5h.5v1.5h1.5zm5.7-1.4-2 4.7s0 .1-.1.1h-.1-.5l.7-1.4-1.5-3.4h.6.1s.1.1.1.1l1 2.3c0 .1.1.2.1.3 0-.1.1-.2.1-.3l.9-2.3s0-.1.1-.1h.1zm2.8 1.4c0-.1 0-.3-.1-.4 0-.1-.1-.2-.2-.3s-.2-.2-.3-.2-.2-.1-.4-.1c-.3 0-.5.1-.7.3s-.3.4-.3.7zm.6 1.7c-.1.1-.2.2-.3.3s-.2.1-.4.2c-.1 0-.3.1-.4.1s-.3 0-.4 0c-.3 0-.5 0-.7-.1s-.4-.2-.5-.4c-.2-.2-.3-.4-.4-.6s-.1-.5-.1-.8 0-.5.1-.7.2-.4.3-.6.3-.3.5-.4.4-.1.7-.1c.2 0 .4 0 .6.1s.3.2.5.3c.1.1.2.3.3.5s.1.4.1.7v.2s-.1.1-.1.1h-2.4c0 .2 0 .4.1.6s.1.3.2.4.2.2.4.3c.1.1.3.1.5.1s.3 0 .4-.1c.1 0 .2-.1.3-.1s.2-.1.2-.1c.1 0 .1-.1.1-.1.1 0 .1 0 .1.1zm2.8-1.1c-.3 0-.5 0-.8.1-.2 0-.4.1-.5.1-.1.1-.2.1-.3.2s-.1.2-.1.3v.2c0 .1.1.1.1.2.1 0 .1.1.2.1h.2.3c.1 0 .2-.1.3-.1s.2-.1.2-.2l.2-.2v-.7zm-2.1-1.5c.2-.2.4-.3.6-.4s.5-.1.8-.1c.2 0 .4 0 .5.1s.3.2.4.3.2.3.2.4c.1.2.1.4.1.6v2.3h-.3c-.1 0-.1 0-.1 0s-.1-.1-.1-.1l-.1-.3c-.1.1-.2.2-.3.2-.1.1-.2.1-.3.2-.1 0-.2.1-.3.1s-.2 0-.4 0c-.1 0-.3 0-.4-.1-.1 0-.2-.1-.3-.2s-.2-.2-.2-.3c-.1-.1-.1-.3-.1-.4s0-.3.1-.4.2-.3.4-.4.4-.2.7-.2c.3-.1.6-.1 1-.1v-.3c0-.3-.1-.5-.2-.6s-.3-.2-.5-.2-.3 0-.4.1c-.1 0-.2.1-.3.1s-.1.1-.2.1-.1.1-.2.1h-.1s-.1-.1-.1-.1zm4.3.2c.1-.2.3-.4.4-.6.2-.1.4-.2.6-.2h.2c.1 0 .1 0 .2.1v.5c0 .1-.1.1-.1.1h-.1c-.1 0-.1 0-.2 0s-.2 0-.3.1c-.1 0-.2.1-.2.1-.1.1-.1.1-.2.2s-.1.2-.1.3v2.3h-.6v-3.6h.4.1s0 .1.1.1zm4.1-.1c0 .1-.1.1-.1.1h-.1s-.1-.1-.2-.1-.1-.1-.2-.1-.2 0-.3 0-.2 0-.3 0-.2.1-.2.1c-.1 0-.1.1-.1.2v.2c0 .1 0 .2.1.2l.2.2c.1 0 .2.1.3.1s.2.1.3.1.2.1.3.1.2.1.3.2.2.2.2.3c.1.1.1.2.1.4s0 .3-.1.5c-.1.1-.1.3-.3.4-.1.1-.3.2-.4.2-.2.1-.4.1-.6.1-.3 0-.5 0-.7-.1s-.4-.2-.5-.3l.1-.2s0-.1.1-.1h.1s.1 0 .1.1c0 0 .1.1.2.1s.2.1.3.1.2.1.4.1h.3c.1 0 .2-.1.2-.1.1-.1.1-.1.1-.2s0-.1 0-.2 0-.2-.1-.2c-.1-.1-.1-.1-.2-.2-.1 0-.2-.1-.3-.1s-.2-.1-.3-.1-.2-.1-.3-.1c-.1-.1-.2-.1-.3-.2s-.2-.2-.2-.3c-.1-.1-.1-.2-.1-.4 0-.1 0-.3.1-.4s.1-.2.3-.3c.1-.1.2-.2.4-.2.2-.1.3-.1.5-.1s.5 0 .6.1c.2.1.4.2.5.3zm4.3-.7c.3 0 .5 0 .7.1s.4.2.5.4c.2.2.3.4.3.6.1.2.1.5.1.8s0 .5-.1.8c-.1.2-.2.4-.3.6-.2.2-.3.3-.5.4s-.5.1-.7.1c-.3 0-.5 0-.7-.1s-.4-.2-.5-.4c-.2-.2-.3-.4-.3-.6-.1-.2-.1-.5-.1-.8s0-.5.1-.8c.1-.2.2-.4.3-.6.2-.2.3-.3.5-.4.2 0 .5-.1.7-.1zm0 3.3c.4 0 .6-.1.8-.4.2-.2.3-.6.3-1s-.1-.8-.3-1-.4-.4-.8-.4c-.2 0-.3 0-.5.1-.1.1-.2.2-.3.3s-.2.3-.2.4c0 .2-.1.4-.1.6 0 .4.1.8.3 1s.5.4.8.4zm2.7.4v-3.1h-.4c-.1 0-.1 0-.1-.1v-.1-.3h.6v-.4c0-.2 0-.4.1-.6s.1-.3.3-.4c.1-.1.2-.2.4-.3s.3-.1.5-.1.3 0 .4.1v.3c0 .1 0 .1-.1.1s-.1 0-.2 0-.2 0-.3 0-.2.1-.2.1c-.1.1-.1.1-.2.3 0 .1-.1.2-.1.4v.3h1v.5h-1v3.1h-.7zm6.4-2.2c0-.1 0-.3-.1-.4 0-.1-.1-.2-.2-.3s-.2-.2-.3-.2-.2-.1-.4-.1c-.3 0-.5.1-.7.3s-.3.4-.3.7zm.5 1.7c-.1.1-.2.2-.3.3s-.2.1-.4.2c-.1 0-.3.1-.4.1s-.3 0-.4 0c-.3 0-.5 0-.7-.1s-.4-.2-.5-.4c-.2-.2-.3-.4-.4-.6s-.1-.5-.1-.8 0-.5.1-.7.2-.4.3-.6.3-.3.5-.4.4-.1.7-.1c.2 0 .4 0 .6.1s.3.2.5.3c.1.1.2.3.3.5s.1.4.1.7v.2s-.1.1-.1.1h-2.4c0 .2 0 .4.1.6s.1.3.2.4.2.2.4.3c.1.1.3.1.5.1s.3 0 .4-.1c.1 0 .2-.1.3-.1s.2-.1.2-.1c.1 0 .1-.1.1-.1.1 0 .1 0 .1.1zm3.8.5h-.6c-.1 0-.1 0-.1 0s-.1-.1-.1-.1l-.9-1.4v.1.1l-.8 1.2s0 .1-.1.1h-.1-.6l1.3-1.9-1.2-1.8h.6.1s0 0 .1.1l.9 1.4c0-.1 0-.1.1-.2l.8-1.1s0-.1.1-.1h.1.6l-1.2 1.7zm1.2-.9c.1.2.2.3.4.3.1.1.3.1.5.1.3 0 .6-.1.8-.4.2-.2.3-.6.3-1 0-.2 0-.4-.1-.6 0-.2-.1-.3-.2-.4s-.2-.2-.3-.2c-.1-.1-.2-.1-.4-.1s-.4 0-.5.1c-.2.1-.3.2-.4.4v1.8zm0-2.2c.2-.2.3-.3.5-.5.2-.1.4-.2.7-.2.2 0 .4 0 .6.1s.3.2.4.4.2.3.3.6c.1.2.1.5.1.8s0 .5-.1.7-.2.4-.3.6-.3.3-.5.4-.4.1-.7.1c-.2 0-.4 0-.6-.1s-.3-.2-.4-.3v1.6h-.6v-4.9h.4c.1 0 .1 0 .2.1zm5.8.9c0-.1 0-.3-.1-.4 0-.1-.1-.2-.2-.3s-.2-.2-.3-.2-.2-.1-.4-.1c-.3 0-.5.1-.7.3s-.3.4-.3.7zm.6 1.7c-.1.1-.2.2-.3.3s-.2.1-.4.2c-.1 0-.3.1-.4.1s-.3 0-.4 0c-.3 0-.5 0-.7-.1s-.4-.2-.5-.4c-.2-.2-.3-.4-.4-.6s-.1-.5-.1-.8 0-.5.1-.7.2-.4.3-.6.3-.3.5-.4.4-.1.7-.1c.2 0 .4 0 .6.1s.3.2.5.3c.1.1.2.3.3.5s.1.4.1.7v.2s-.1.1-.1.1h-2.4c0 .2 0 .4.1.6s.1.3.2.4.2.2.4.3c.1.1.3.1.5.1s.3 0 .4-.1c.1 0 .2-.1.3-.1s.2-.1.2-.1c.1 0 .1-.1.1-.1.1 0 .1 0 .1.1zm1.4-2.4c.1-.2.3-.4.4-.6.2-.1.4-.2.6-.2h.2c.1 0 .1 0 .2.1v.5c0 .1-.1.1-.1.1h-.1c-.1 0-.1 0-.2 0s-.2 0-.3.1c-.1 0-.2.1-.2.1-.1.1-.1.1-.2.2s-.1.2-.2.3v2.3h-.7v-3.6h.4.1s0 .1.1.1zm2.7-.7v3.6h-.6v-3.6zm.1-1.2v.2c0 .1-.1.1-.1.1s-.1.1-.1.1c-.1 0-.1 0-.2 0s-.1 0-.2 0-.1-.1-.1-.1-.1-.1-.1-.1c0-.1 0-.1 0-.2s0-.1 0-.2.1-.1.1-.1.1-.1.1-.1h.2.2c.1 0 .1.1.1.1s.1.1.1.1zm3.4 2.6c0-.1 0-.3-.1-.4 0-.1-.1-.2-.2-.3s-.2-.2-.3-.2-.2-.1-.4-.1c-.3 0-.5.1-.7.3s-.3.4-.3.7zm.5 1.7c-.1.1-.2.2-.3.3s-.2.1-.4.2c-.1 0-.3.1-.4.1s-.3 0-.4 0c-.3 0-.5 0-.7-.1s-.4-.2-.5-.4c-.2-.2-.3-.4-.4-.6s-.1-.5-.1-.8 0-.5.1-.7.2-.4.3-.6.3-.3.5-.4.4-.1.7-.1c.2 0 .4 0 .6.1s.3.2.5.3c.1.1.2.3.3.5s.1.4.1.7v.2s-.1.1-.1.1h-2.4c0 .2 0 .4.1.6s.1.3.2.4.2.2.4.3c.1.1.3.1.5.1s.3 0 .4-.1c.1 0 .2-.1.3-.1s.2-.1.2-.1c.1 0 .1-.1.1-.1.1 0 .1 0 .1.1zm1.4-2.6c.1-.1.2-.2.3-.2.1-.1.2-.1.3-.2s.2-.1.3-.1h.4c.2 0 .4 0 .5.1.2.1.3.2.4.3s.2.3.2.4c.1.2.1.4.1.6v2.3h-.6v-2.3c0-.3-.1-.5-.2-.6-.1-.2-.3-.2-.6-.2-.2 0-.4 0-.5.1-.2.1-.3.2-.5.4v2.7h-.6v-3.6h.4c.1 0 .1 0 .2.1zm5.9.1s0 .1 0 0c-.1.1-.1.1-.1.1h-.1s-.1-.1-.2-.1-.1-.1-.2-.1-.2 0-.3 0c-.2 0-.3 0-.5.1-.1.1-.3.2-.3.3-.1.1-.2.3-.2.4 0 .2-.1.4-.1.6s0 .4.1.6.1.3.2.4l.3.3c.1.1.3.1.4.1.2 0 .3 0 .4-.1.1 0 .2-.1.2-.1.1 0 .1-.1.2-.1 0 0 .1-.1.1-.1.1 0 .1 0 .1.1l.2.2c-.1.1-.2.2-.3.3s-.2.1-.3.2c-.1 0-.2.1-.4.1-.1 0-.3 0-.4 0-.2 0-.4 0-.6-.1s-.4-.2-.5-.4-.3-.4-.3-.6c-.1-.2-.1-.5-.1-.8s0-.5.1-.7.2-.4.3-.6.3-.3.5-.4.5-.1.7-.1c.3 0 .5 0 .7.1s.4.2.5.3zm3.3.8c0-.1 0-.3-.1-.4 0-.1-.1-.2-.2-.3s-.2-.2-.3-.2-.2-.1-.4-.1c-.3 0-.5.1-.7.3s-.3.4-.3.7zm.5 1.7c-.1.1-.2.2-.3.3s-.2.1-.4.2c-.1 0-.3.1-.4.1s-.3 0-.4 0c-.2 0-.5 0-.7-.1s-.4-.2-.5-.4c-.2-.2-.3-.4-.4-.6s-.1-.5-.1-.8 0-.5.1-.7.2-.4.3-.6.3-.3.5-.4.4-.1.7-.1c.2 0 .4 0 .6.1s.3.2.5.3c.1.1.2.3.3.5s.1.4.1.7v.2s-.1.1-.1.1h-2.4c0 .2 0 .4.1.6s.1.3.2.4.2.2.4.3c.1.1.3.1.5.1s.3 0 .4-.1c.1 0 .2-.1.3-.1s.2-.1.2-.1c.1 0 .1-.1.1-.1.1 0 .1 0 .1.1z"/><path d="m-29 36h677.3v78.5l-677.3 126.8z" fill-opacity=".1"/><path d="m584.5 87-6.5-8.8h13z" fill-opacity=".3"/><path d="m595.5 89-6.5-8.8h13z" fill-opacity=".3"/><path d="m588.5 87-6.5-8.8h13z" fill-opacity=".8"/><path d="m409 51.7c-.2 0-.4 0-.6.1-.2 0-.3.1-.4.1s-.2.1-.2.2-.1.1-.1.2v.2c0 .1.1.1.1.1s.1.1.1.1h.2.2c.1 0 .1 0 .2-.1.1 0 .1-.1.2-.1s.1-.1.2-.2v-.6zm-1.7-1.2c.2-.2.3-.3.5-.3.2-.1.4-.1.6-.1s.3 0 .4.1.2.1.3.2.2.2.2.3.1.3.1.5v1.8h-.2c-.1 0-.1 0-.1 0s-.1-.1-.1-.1l-.1-.3c-.1.1-.1.1-.2.2s-.1.1-.2.1-.2.1-.3.1-.2 0-.3 0-.2 0-.3 0-.2-.1-.3-.1c-.1-.1-.1-.1-.2-.2 0-.1-.1-.2-.1-.3s0-.2.1-.3.2-.2.3-.3.3-.2.5-.2c.2-.1.5-.1.8-.1v-.2c0-.2 0-.4-.1-.5s-.2-.2-.4-.2c-.1 0-.2 0-.3 0s-.2.1-.2.1c-.1 0-.1.1-.2.1h-.1-.1s0 0-.1-.1zm4.2 1.8c.1.1.2.2.3.3.1 0 .2.1.4.1.3 0 .5-.1.6-.3s.2-.5.2-.8-.1-.6-.2-.8-.3-.2-.5-.2-.3 0-.4.1-.2.2-.3.3v1.3zm0-1.8c.1-.1.3-.2.4-.3.2-.1.3-.1.5-.1s.3 0 .5.1c.1.1.3.2.3.3.1.1.2.3.2.4.1.2.1.4.1.6s0 .4-.1.6-.1.4-.2.5-.2.2-.4.3-.3.1-.5.1c-.1 0-.2 0-.3 0s-.2 0-.2-.1c-.1 0-.1-.1-.2-.1s-.1-.1-.2-.2v.2c0 .1-.1.1-.1.1h-.3v-4.2h.6v1.8zm4.6-.5c.2 0 .4 0 .6.1s.3.2.4.3.2.3.3.5.1.4.1.6 0 .4-.1.6-.2.3-.3.5c-.1.1-.3.2-.4.3-.2.1-.4.1-.6.1s-.4 0-.6-.1-.3-.2-.4-.3-.2-.3-.3-.5-.1-.4-.1-.6 0-.4.1-.6.2-.3.3-.5c.1-.1.3-.2.4-.3.2 0 .4-.1.6-.1zm0 2.6c.3 0 .5-.1.6-.3s.2-.4.2-.8c0-.3-.1-.6-.2-.8s-.3-.3-.6-.3-.5.1-.6.3-.2.4-.2.8c0 .3.1.6.2.8.2.2.4.3.6.3zm5.2-2.5v2.9h-.3c-.1 0-.1 0-.1-.1v-.3c-.1.1-.1.1-.2.2s-.1.1-.2.1-.2.1-.2.1c-.1 0-.2 0-.3 0-.2 0-.3 0-.4-.1s-.2-.1-.3-.2-.1-.2-.2-.3c0-.1-.1-.3-.1-.5v-1.9h.6v1.9c0 .2 0 .4.1.5s.2.2.4.2c.1 0 .3 0 .4-.1s.2-.2.4-.3v-2.1zm2.4 2.9c-.2 0-.4-.1-.5-.2s-.2-.3-.2-.6v-1.7h-.3-.1v-.1-.2l.5-.1.1-.9v-.1h.1.3v1h.8v.4h-.8v1.7c0 .1 0 .2.1.3s.1.1.2.1h.1.1.1.1l.2.3c-.1.1-.2.1-.3.2-.2-.1-.3-.1-.5-.1z"/><path d="m450.5 50.1-.9 2.9h-.4c-.1 0-.1 0-.1-.1l-.6-1.9v-.1-.1c0 .1 0 .2-.1.3l-.6 1.9c0 .1-.1.1-.1.1h-.4l-.9-2.9h.4.1s.1 0 .1.1l.5 1.8v.2.2c0-.1 0-.1.1-.2 0-.1 0-.1.1-.2l.6-1.8s0-.1.1-.1h.1.2.1s0 0 .1.1l.6 1.8c0 .1 0 .1.1.2 0 .1 0 .1.1.2 0-.1 0-.1 0-.2s0-.1.1-.2l.5-1.8s0-.1.1-.1h.1 0zm2.4-.1c.2 0 .4 0 .6.1s.3.2.4.3.2.3.3.5.1.4.1.6 0 .4-.1.6-.2.3-.3.5c-.1.1-.3.2-.4.3-.2.1-.4.1-.6.1s-.4 0-.6-.1-.3-.2-.4-.3-.2-.3-.3-.5-.1-.4-.1-.6 0-.4.1-.6.2-.3.3-.5c.1-.1.3-.2.4-.3.2 0 .4-.1.6-.1zm0 2.6c.3 0 .5-.1.6-.3s.2-.4.2-.8c0-.3-.1-.6-.2-.8s-.3-.3-.6-.3-.5.1-.6.3-.2.4-.2.8c0 .3.1.6.2.8s.3.3.6.3zm3.3-2c.1-.2.2-.3.3-.5.1-.1.3-.2.5-.2h.2c.1 0 .1 0 .1.1v.4c0 .1 0 .1-.1.1h-.1c-.1 0-.1 0-.2 0s-.2 0-.2 0c-.1 0-.1.1-.2.1s-.1.1-.1.2-.1.2-.1.2v2h-.6v-2.9h.3.1v.1zm2.8-1.8v2.5h.1.1s.1 0 .1-.1l.9-1s.1-.1.1-.1h.1.5l-1 1.1c-.1.1-.1.1-.2.2 0 0 .1.1.1.1s.1.1.1.1l1.1 1.4h-.5-.1s-.1 0-.1-.1l-.9-1.2s-.1-.1-.1-.1h-.1-.2v1.4h-.6v-4.2zm4.8 1.8c-.1.1-.1.1-.1.1h-.1s-.1 0-.1-.1c-.1 0-.1 0-.2-.1-.1 0-.2 0-.3 0s-.2 0-.2 0c-.1 0-.1 0-.2.1 0 0-.1.1-.1.1v.2c0 .1 0 .1.1.2 0 0 .1.1.2.1s.1.1.2.1.2.1.3.1.2.1.3.1.2.1.2.1c.1.1.1.1.2.2 0 .1.1.2.1.3s0 .3-.1.4c0 .1-.1.2-.2.3s-.2.1-.4.2c-.1 0-.3.1-.5.1s-.4 0-.6-.1-.3-.2-.4-.3l.1-.2s0 0 .1-.1h.1.1s.1.1.1.1c.1 0 .1.1.2.1h.3.2c.1 0 .1-.1.2-.1 0 0 .1-.1.1-.1 0-.1 0-.1 0-.2s0-.1-.1-.2c0-.1-.1-.1-.2-.1s-.1-.1-.2-.1-.2-.1-.3-.1-.2-.1-.3-.1-.2-.1-.2-.2c-.1-.1-.1-.1-.2-.2 0-.1-.1-.2-.1-.3s0-.2.1-.3c0-.1.1-.2.2-.3s.2-.1.3-.2c.1 0 .3-.1.4-.1.2 0 .4 0 .5.1.2.1.3.1.4.3z"/><path d="m488.2 51.2c0-.1 0-.2 0-.3s-.1-.2-.1-.2c-.1-.1-.1-.1-.2-.2-.1 0-.2-.1-.3-.1-.2 0-.4.1-.6.2-.1.1-.2.3-.3.6zm.4 1.4c-.1.1-.1.1-.2.2s-.2.1-.3.1-.2.1-.3.1-.2 0-.3 0c-.2 0-.4 0-.6-.1s-.3-.2-.4-.3-.2-.3-.3-.5-.1-.4-.1-.7c0-.2 0-.4.1-.6s.2-.3.3-.5c.1-.1.3-.2.4-.3.2-.1.4-.1.6-.1s.3 0 .5.1.3.1.4.3c.1.1.2.2.3.4s.1.3.1.6v.2h-.1-1.9c0 .2 0 .3.1.5 0 .1.1.2.2.3s.2.2.3.2.2.1.4.1h.3c.1 0 .2-.1.2-.1.1 0 .1-.1.2-.1h.1s.1 0 .1.1zm3.8.4h-.5-.1s0-.1-.1-.1l-.7-1.1v.1.1l-.6 1s0 .1-.1.1h-.1-.5l1-1.5-1-1.4h.5.1s0 0 .1.1l.7 1.1v-.1-.1l.6-.9c0-.1.1-.1.1-.1h.5l-1 1.4zm1.7-.7c.1.1.2.2.3.3.1 0 .2.1.4.1.3 0 .5-.1.6-.3s.2-.5.2-.8c0-.2 0-.3 0-.5 0-.1-.1-.2-.1-.3-.1-.1-.1-.1-.2-.2-.1 0-.2-.1-.3-.1-.2 0-.3 0-.4.1s-.2.2-.3.3v1.4zm0-1.8c.1-.1.1-.1.2-.2s.1-.1.2-.2c.1 0 .2-.1.3-.1h.3c.2 0 .3 0 .5.1.1.1.3.2.3.3.1.1.2.3.2.5.1.2.1.4.1.6s0 .4-.1.6-.1.3-.2.5c-.1.1-.2.2-.4.3s-.3.1-.5.1-.3 0-.4-.1-.2-.1-.3-.2v1.3h-.6v-3.9h.3c.1 0 .1 0 .1.1zm5.3.7c0-.1 0-.2 0-.3s-.1-.2-.1-.2c-.1-.1-.1-.1-.2-.2-.1 0-.2-.1-.3-.1-.2 0-.4.1-.6.2-.1.1-.2.3-.3.6zm.5 1.4c-.1.1-.1.1-.2.2s-.2.1-.3.1-.2.1-.3.1-.2 0-.3 0c-.2 0-.4 0-.6-.1s-.3-.2-.4-.3-.2-.3-.3-.5-.1-.4-.1-.7c0-.2 0-.4.1-.6s.2-.3.3-.5c.1-.1.3-.2.4-.3.2-.1.4-.1.6-.1s.3 0 .5.1.3.1.4.3c.1.1.2.2.3.4s.1.3.1.6v.2h-.1-1.9c0 .2 0 .3.1.5 0 .1.1.2.2.3s.2.2.3.2.2.1.4.1h.3c.1 0 .2-.1.2-.1.1 0 .1-.1.2-.1h.1s.1 0 .1.1zm1.9-2c.1-.2.2-.3.3-.5.1-.1.3-.2.5-.2h.2c.1 0 .1 0 .1.1v.4c0 .1 0 .1-.1.1h-.1c-.1 0-.1 0-.2 0s-.2 0-.2 0c-.1 0-.1.1-.2.1s-.1.1-.1.2-.1.2-.1.2v2h-.6v-2.9h.3.1v.1zm2.8-.5v2.9h-.6v-2.9zm.2-.9v.1s0 .1-.1.1c0 0-.1.1-.1.1h-.1c-.1 0-.1 0-.1 0s-.1 0-.1-.1c0 0-.1-.1-.1-.1v-.1c0-.1 0-.1 0-.1s0-.1.1-.1c0 0 .1-.1.1-.1h.1.1s.1 0 .1.1c0 0 .1.1.1.1-.1 0 0 0 0 .1zm3.3 2c0-.1 0-.2 0-.3s-.1-.2-.1-.2c-.1-.1-.1-.1-.2-.2-.1 0-.2-.1-.3-.1-.2 0-.4.1-.6.2-.1.1-.2.3-.3.6zm.5 1.4c-.1.1-.1.1-.2.2s-.2.1-.3.1-.2.1-.3.1-.2 0-.3 0c-.2 0-.4 0-.6-.1s-.3-.2-.4-.3-.2-.3-.3-.5-.1-.4-.1-.7c0-.2 0-.4.1-.6s.2-.3.3-.5c.1-.1.3-.2.4-.3.2-.1.4-.1.6-.1s.3 0 .5.1.3.1.4.3c.1.1.2.2.3.4s.1.3.1.6v.2h-.1-1.9c0 .2 0 .3.1.5 0 .1.1.2.2.3s.2.2.3.2.2.1.4.1h.3c.1 0 .2-.1.2-.1.1 0 .1-.1.2-.1h.1s.1 0 .1.1zm1.8-2.1c.1-.1.1-.1.2-.2s.1-.1.2-.1.2-.1.2-.1h.3c.2 0 .3 0 .4.1s.2.1.3.2.1.2.2.3c0 .1.1.3.1.5v1.8h-.6v-1.9c0-.2 0-.4-.1-.5s-.2-.2-.4-.2c-.1 0-.3 0-.4.1s-.2.2-.3.3v2.2h-.6v-2.9h.3c.1 0 .1 0 .1.1zm5.5.1c0 .1 0 .1 0 0-.1.1-.1.1-.1.1h-.1s-.1-.1-.1-.1c-.1 0-.1-.1-.2-.1s-.2 0-.3 0-.3 0-.4.1c-.1 0-.2.1-.3.2s-.1.2-.2.3c0 .1-.1.3-.1.4 0 .2 0 .3.1.5 0 .1.1.2.2.3s.2.2.3.2.2.1.3.1h.3c.1 0 .1-.1.2-.1s.1-.1.1-.1h.1s.1 0 .1.1l.2.2c-.1.1-.1.2-.2.2-.1.1-.2.1-.3.1s-.2.1-.3.1-.2 0-.3 0c-.2 0-.4 0-.5-.1-.2-.1-.3-.2-.4-.3s-.2-.3-.3-.5-.1-.4-.1-.6 0-.4.1-.6.2-.3.3-.5c.1-.1.3-.2.4-.3.2-.1.4-.1.6-.1s.4 0 .5.1c.2.1.3.2.4.3zm3.3.6c0-.1 0-.2 0-.3s-.1-.2-.1-.2c-.1-.1-.1-.1-.2-.2-.1 0-.2-.1-.3-.1-.2 0-.4.1-.6.2-.1.1-.2.3-.3.6zm.4 1.4c-.1.1-.1.1-.2.2s-.2.1-.3.1-.2.1-.3.1-.2 0-.3 0c-.2 0-.4 0-.6-.1s-.3-.2-.4-.3-.2-.3-.3-.5-.1-.4-.1-.7c0-.2 0-.4.1-.6s.2-.3.3-.5c.1-.1.3-.2.4-.3.2-.1.4-.1.6-.1s.3 0 .5.1.3.1.4.3c.1.1.2.2.3.4s.1.3.1.6v.2h-.1-1.9c0 .2 0 .3.1.5 0 .1.1.2.2.3s.2.2.3.2.2.1.4.1h.3c.1 0 .2-.1.2-.1.1 0 .1-.1.2-.1h.1s.1 0 .1.1z"/><path d="m544.2 50.6c0 .1-.1.1 0 0-.1.1-.1.1-.1.1h-.1s-.1-.1-.1-.1-.1-.1-.2-.1-.2 0-.3 0-.3 0-.4.1c-.1 0-.2.1-.3.2s-.1.2-.2.3c0 .1-.1.3-.1.4 0 .2 0 .3.1.5 0 .1.1.2.2.3s.2.2.3.2.2.1.3.1h.3c.1 0 .1-.1.2-.1s.1-.1.1-.1h.1s.1 0 .1.1l.2.2c-.1.1-.1.2-.2.2-.1.1-.2.1-.3.1s-.2.1-.3.1-.2 0-.3 0c-.2 0-.4 0-.5-.1-.2-.1-.3-.2-.4-.3s-.2-.3-.3-.5-.1-.4-.1-.6 0-.4.1-.6.2-.3.3-.5c.1-.1.3-.2.4-.3.2-.1.4-.1.6-.1s.4 0 .6.1.3.2.4.3zm2.6-.6c.2 0 .4 0 .6.1s.3.2.4.3.2.3.3.5.1.4.1.6 0 .4-.1.6-.2.3-.3.5c-.1.1-.3.2-.4.3-.2.1-.4.1-.6.1s-.4 0-.6-.1-.3-.2-.4-.3-.2-.3-.3-.5-.1-.4-.1-.6 0-.4.1-.6.2-.3.3-.5c.1-.1.3-.2.4-.3.2 0 .4-.1.6-.1zm0 2.6c.3 0 .5-.1.6-.3s.2-.4.2-.8c0-.3-.1-.6-.2-.8s-.3-.3-.6-.3-.5.1-.6.3-.2.4-.2.8c0 .3.1.6.2.8s.3.3.6.3zm3.3-2.1c.1-.1.1-.1.2-.2s.1-.1.2-.1.2-.1.2-.1h.3c.2 0 .3 0 .4.1s.2.1.3.2.1.2.2.3.1.3.1.5v1.8h-.6v-1.9c0-.2 0-.4-.1-.5s-.2-.2-.4-.2c-.1 0-.3 0-.4.1s-.2.2-.3.3v2.2h-.6v-2.9h.3c.1 0 .1 0 .1.1zm4.2 2.5c-.2 0-.4-.1-.5-.2s-.2-.3-.2-.6v-1.7h-.3-.1v-.1-.2l.5-.1.1-.9v-.1h.1.3v1h.8v.4h-.8v1.7c0 .1 0 .2.1.3s.1.1.2.1h.1.1.1.1l.2.3c-.1.1-.2.1-.3.2-.2-.1-.3-.1-.5-.1zm3.5-1.3c-.2 0-.4 0-.6.1-.2 0-.3.1-.4.1s-.2.1-.2.2-.1.1-.1.2v.2c0 .1.1.1.1.1s.1.1.1.1h.2.2c.1 0 .1 0 .2-.1.1 0 .1-.1.2-.1s.1-.1.2-.2v-.6zm-1.7-1.2c.2-.2.3-.3.5-.3.2-.1.4-.1.6-.1s.3 0 .4.1.2.1.3.2.2.2.2.3.1.3.1.5v1.8h-.2c-.1 0-.1 0-.1 0s-.1-.1-.1-.1l-.1-.3c-.1.1-.1.1-.2.2s-.1.1-.2.1-.2.1-.3.1-.2 0-.3 0-.2 0-.3 0-.2-.1-.3-.1c-.1-.1-.1-.1-.2-.2 0-.1-.1-.2-.1-.3s0-.2.1-.3.2-.2.3-.3.3-.2.5-.2c.2-.1.5-.1.8-.1v-.2c0-.2 0-.4-.1-.5s-.2-.2-.4-.2c-.1 0-.2 0-.3 0s-.2.1-.2.1c-.1 0-.1.1-.2.1h-.1-.1s0 0-.1-.1zm5.7.1c0 .1 0 .1 0 0-.1.1-.1.1-.1.1h-.1s-.1-.1-.1-.1-.1-.1-.2-.1-.2 0-.3 0-.3 0-.4.1c-.1 0-.2.1-.3.2s-.1.2-.2.3c0 .1-.1.3-.1.4 0 .2 0 .3.1.5 0 .1.1.2.2.3s.2.2.3.2.2.1.3.1h.3c.1 0 .1-.1.2-.1s.1-.1.1-.1h.1s.1 0 .1.1l.2.2c-.1.1-.1.2-.2.2-.1.1-.2.1-.3.1s-.2.1-.3.1-.2 0-.3 0c-.2 0-.4 0-.5-.1-.2-.1-.3-.2-.4-.3s-.2-.3-.3-.5-.1-.4-.1-.6 0-.4.1-.6.2-.3.3-.5c.1-.1.3-.2.4-.3.2-.1.4-.1.6-.1s.4 0 .5.1c.2.1.3.2.4.3zm2.4 2.4c-.2 0-.4-.1-.5-.2s-.2-.3-.2-.6v-1.7h-.3-.1v-.1-.2l.5-.1.1-.9v-.1h.1.3v1h.8v.4h-.9v1.7c0 .1 0 .2.1.3s.1.1.2.1h.1.1.1.1l.2.3c-.1.1-.2.1-.3.2-.2-.1-.3-.1-.4-.1zm3.6-2.4c-.1 0-.1 0 0 0-.1.1-.1.1-.1.1h-.1s-.1 0-.1-.1c-.1 0-.1 0-.2-.1-.1 0-.2 0-.3 0s-.2 0-.2 0c-.1 0-.1 0-.2.1 0 0-.1.1-.1.1v.2c0 .1 0 .1.1.2 0 0 .1.1.2.1s.2.1.2.1c.1 0 .2.1.3.1s.2.1.3.1.2.1.2.1c.1.1.1.1.2.2 0 .1.1.2.1.3s0 .3-.1.4c0 .1-.1.2-.2.3s-.2.1-.3.2c-.1 0-.3.1-.5.1s-.4 0-.6-.1-.3-.2-.4-.3l.1-.2s0 0 .1-.1h.1.1s.1.1.1.1c.1 0 .1.1.2.1h.3.2c.1 0 .1-.1.2-.1 0 0 .1-.1.1-.1 0-.1 0-.1 0-.2s0-.1-.1-.2c0-.1-.1-.1-.2-.1s-.1-.1-.2-.1-.2-.1-.3-.1-.2-.1-.3-.1-.2-.1-.2-.2c-.1-.1-.1-.1-.2-.2 0-.1-.1-.2-.1-.3s0-.2.1-.3c0-.1.1-.2.2-.3s.2-.1.3-.2c.1 0 .3-.1.5-.1s.4 0 .5.1c.2.1.3.1.4.3z"/><path d="m98.1 204v-20.4h5.2v7.9h7.8v-7.9h5.2v20.4h-5.3v-8h-7.8v8zm24.8-16.7c-.9 0-1.6-.2-2-.7s-.6-1.1-.6-1.8.2-1.4.6-1.8c.4-.5 1.1-.7 2-.7s1.6.2 2 .7.6 1.1.6 1.8-.2 1.4-.6 1.8c-.3.5-1 .7-2 .7zm-2 16.7v-11.7h-2v-3.7h7v15.4zm10.8 4.9-3.9-1.5 3.1-9 4.3 1.6zm11.7-4.9v-20.4h5.2v20.4zm8.3-10.5v-2.9h1.1c.7 0 1.2-.1 1.5-.4s.5-.9.5-1.8c-.2 0-.3.1-.5.1-.7 0-1.3-.2-1.8-.6s-.7-1-.7-1.8c0-.7.2-1.4.7-1.9s1.1-.8 2-.8c.6 0 1.1.1 1.6.4s.9.7 1.1 1.3c.3.6.4 1.5.4 2.5v.4c0 1.9-.4 3.4-1.3 4.2-.9.9-2.2 1.3-3.9 1.3zm8.7 10.5v-15.4h4v4c.6-3 2.3-4.5 5-4.5h.2c2.3 0 3.9 1.1 4.7 3.2.8-2.1 2.3-3.2 4.7-3.2h.2c1.7 0 3 .6 4 1.8.9 1.2 1.4 3 1.4 5.4v8.8h-5.1v-8.9c0-.7-.2-1.3-.6-1.8s-.9-.7-1.6-.7-1.3.2-1.7.7-.6 1.1-.6 1.8v8.9h-5.1v-8.9c0-.7-.2-1.3-.6-1.8s-.9-.7-1.6-.7-1.3.2-1.7.7-.6 1.1-.6 1.8v8.9h-5zm31.7 0 6.5-20.4h8.3l6.8 20.4h-5.4l-1.5-4.7h-8.1l-1.5 4.7zm7.9-9h5.5l-2.3-7.2h-1zm15.8 9v-15.4h4v4.1c.3-1.5.9-2.7 1.8-3.4.9-.8 2-1.1 3.4-1.1h.2c1.8 0 3.1.6 4.1 1.8s1.5 2.9 1.5 5.3v8.8h-5.1v-9c0-.7-.2-1.3-.6-1.7-.4-.5-1-.7-1.7-.7s-1.3.2-1.8.7c-.4.4-.6 1-.6 1.8v8.9h-5.2zm18.3 0v-15.4h4v4.1c.3-1.5.9-2.7 1.8-3.4.9-.8 2-1.1 3.4-1.1h.2c1.8 0 3.1.6 4.1 1.8s1.5 2.9 1.5 5.3v8.8h-5.1v-9c0-.7-.2-1.3-.6-1.7-.4-.5-1-.7-1.7-.7s-1.3.2-1.8.7c-.4.4-.6 1-.6 1.8v8.9h-5.2zm22.8.4c-1.6 0-3-.4-4-1.3s-1.5-2.1-1.5-3.6c0-1.2.3-2.1.9-2.8s1.5-1.3 2.5-1.6c1.1-.3 2.3-.5 3.7-.5h2.4c0-.7-.2-1.2-.5-1.5s-.8-.5-1.6-.5c-.4 0-.9 0-1.6 0s-1.4 0-2.2.1c-.8 0-1.5.1-2.1.1v-4.2c.4 0 1-.1 1.6-.1s1.2-.1 1.9-.1h1.8c2.4 0 4.2.5 5.5 1.6 1.3 1 2 2.6 2 4.8v9.4h-4v-2.9c-.3 1-.9 1.8-1.7 2.4-.8.4-1.8.7-3.1.7zm1.6-3.4c.7 0 1.2-.2 1.6-.6.5-.4.7-1.1.8-2.1v-1.1h-2.4c-.7 0-1.2.2-1.6.5s-.6.8-.6 1.4.2 1 .6 1.4c.4.3.9.5 1.6.5zm10 3v-5.5h5.5v5.5z"/><path d="m102.3 265.8v5.2h-.9v-3.2c0-.1 0-.1 0-.2s0-.2 0-.2l-1.5 2.8c-.1.2-.2.2-.4.2h-.2c-.1 0-.2 0-.2-.1-.1 0-.1-.1-.2-.2l-1.5-2.8v.2.2 3.2h-.9v-5.2h.8.1.1.1s0 .1.1.1l1.5 2.8c0 .1.1.2.1.3s.1.2.1.3c0-.1.1-.2.1-.3s.1-.2.1-.3l1.4-2.8s0-.1.1-.1h.1.1.1.9zm4.6 1.5-2 4.7c0 .1-.1.1-.1.1s-.1 0-.2 0h-.7l.7-1.5-1.5-3.4h.9c.1 0 .1 0 .2.1 0 0 .1.1.1.1l.7 1.8c0 .1 0 .1.1.2 0 .1 0 .1.1.2 0-.1.1-.3.1-.4l.7-1.8c0-.1.1-.1.1-.1.1 0 .1-.1.2-.1h.6zm5.6-.5c0 .1-.1.1-.1.1h-.1c-.1 0-.1 0-.2-.1-.1 0-.1-.1-.2-.1s-.2-.1-.3-.1-.2-.1-.4-.1-.4.1-.6.2c-.1.1-.2.3-.2.4s0 .2.1.3.2.1.3.2.2.1.4.1c.1 0 .3.1.4.1.1.1.3.1.4.2s.3.2.4.3.2.2.3.4.1.3.1.6c0 .2 0 .5-.1.7s-.2.4-.4.5c-.2.2-.3.3-.6.4-.2.1-.5.1-.8.1-.2 0-.3 0-.5-.1-.2 0-.3-.1-.5-.1-.2-.1-.3-.1-.4-.2s-.3-.2-.4-.3l.3-.5s.1-.1.1-.1h.1c.1 0 .1 0 .2.1.1 0 .2.1.2.2.1.1.2.1.3.2.1 0 .3.1.4.1.3 0 .4-.1.6-.2.1-.1.2-.3.2-.5 0-.1 0-.2-.1-.3s-.2-.2-.3-.2-.2-.1-.4-.1c-.1 0-.3-.1-.4-.1s-.3-.1-.4-.2-.3-.2-.4-.3-.2-.2-.3-.4-.1-.4-.1-.6 0-.4.1-.6.2-.3.3-.5c.1-.1.3-.3.5-.3.2-.1.5-.1.7-.1.3 0 .6 0 .9.1s.5.2.7.4zm2.3-1.1v3h.2.1s.1-.1.1-.1l.8-1.1c0-.1.1-.1.1-.1h.2.9l-1.1 1.3c-.1.1-.2.2-.3.3.1 0 .1.1.1.1 0 .1.1.1.1.2l1.1 1.8h-.9c-.1 0-.1 0-.2 0s-.1-.1-.1-.1l-.8-1.4c0-.1-.1-.1-.1-.1s-.1 0-.2 0h-.2v1.7h-1v-5.3h1.2zm4.3 1.6v3.7h-1v-3.7zm.1-1c0 .1 0 .2-.1.2 0 .1-.1.1-.1.2-.1.1-.1.1-.2.1s-.2 0-.2 0c-.1 0-.2 0-.2 0-.1 0-.1-.1-.2-.1-.1-.1-.1-.1-.1-.2s0-.1 0-.2 0-.2 0-.2c0-.1.1-.1.1-.2.1-.1.1-.1.2-.1h.2.2c.1 0 .1.1.2.1.1.1.1.1.1.2.1 0 .1.1.1.2zm2.1-.6v5.3h-1v-5.3zm2.2 0v5.3h-1v-5.3zm3.5 2.4c-.1 0-.1 0 0 0-.1.1-.1.1-.2.1h-.1s-.1 0-.2-.1c-.1 0-.1-.1-.2-.1s-.2 0-.3 0c-.2 0-.3 0-.4.1s-.1.2-.1.3 0 .1.1.2.1.1.2.1.2.1.3.1.2.1.3.1.2.1.3.1c.1.1.2.1.3.2s.2.2.2.3c.1.1.1.2.1.4s0 .3-.1.5c-.1.1-.2.3-.3.4s-.3.2-.5.3-.4.1-.7.1c-.1 0-.3 0-.4 0s-.2-.1-.4-.1c-.1 0-.2-.1-.3-.1s-.2-.1-.3-.2l.2-.4s.1-.1.1-.1h.2.2c.1 0 .1.1.2.1s.1.1.2.1h.3.2c.1 0 .1 0 .2-.1 0 0 .1-.1.1-.1v-.1c0-.1 0-.1-.1-.2 0-.1-.1-.1-.2-.1s-.2-.1-.3-.1-.2-.1-.3-.1-.2-.1-.3-.1c-.1-.1-.2-.1-.3-.2s-.1-.2-.2-.3c0-.1-.1-.3-.1-.4 0-.2 0-.3.1-.4s.2-.3.3-.4.3-.2.4-.3c.2-.1.4-.1.6-.1.3 0 .5 0 .7.1s.4.2.5.3z"/></g><path d="m310.3 89.2h334.4v241.2h-334.4z" fill="none" stroke="#fff" stroke-dasharray=".72 .72" stroke-width=".7167" transform="matrix(.9982 -.05947415 .05947415 .9982 -11.6307 28.7661)"/><path d="m149.4 329v-2.9h.3c.1 0 .1 0 .1.1v.3c.1-.1.2-.2.4-.3.1-.1.3-.1.5-.1s.4.1.5.2.2.3.3.4c0-.1.1-.2.2-.3s.1-.1.2-.2c.1 0 .2-.1.3-.1h.3c.2 0 .3 0 .4.1.1 0 .2.1.3.2s.1.2.2.3c0 .1.1.3.1.5v1.8h-.5v-1.8c0-.2 0-.4-.1-.5s-.2-.2-.4-.2c-.1 0-.2 0-.2 0-.1 0-.1.1-.2.1-.1.1-.1.1-.1.2v.3 1.8h-.5v-1.8c0-.2 0-.4-.1-.5s-.2-.2-.4-.2c-.1 0-.2 0-.4.1-.1.1-.2.2-.3.3v2.2zm6-3c.2 0 .4 0 .6.1s.3.2.4.3.2.3.3.5.1.4.1.6 0 .4-.1.6-.2.3-.3.5c-.1.1-.3.2-.4.3-.2.1-.4.1-.6.1s-.4 0-.6-.1-.3-.2-.4-.3-.2-.3-.3-.5-.1-.4-.1-.6 0-.4.1-.6.2-.3.3-.5c.1-.1.3-.2.4-.3.1 0 .3-.1.6-.1zm0 2.6c.3 0 .5-.1.6-.3s.2-.5.2-.8-.1-.6-.2-.8-.4-.3-.6-.3c-.1 0-.3 0-.4.1-.1 0-.2.1-.3.2s-.1.2-.2.3c0 .1-.1.3-.1.5 0 .3.1.6.2.8.2.2.5.3.8.3zm2.5-1.9c.1-.2.2-.4.3-.5s.3-.2.5-.2h.2c.1 0 .1 0 .2.1v.4s0 .1-.1.1h-.1c-.1 0-.1 0-.2 0s-.2 0-.2 0c-.1 0-.1.1-.2.1-.1.1-.1.1-.2.2 0 .1-.1.2-.1.3v1.8h-.5v-2.9h.3.1v.1zm3.4.5c0-.1 0-.2-.1-.3 0-.1-.1-.2-.1-.3-.1-.1-.1-.1-.2-.2-.1 0-.2-.1-.3-.1-.2 0-.4.1-.6.2-.1.1-.2.3-.3.6h1.6zm.4 1.4c-.1.1-.1.1-.2.2s-.2.1-.3.1-.2.1-.3.1-.2 0-.3 0c-.2 0-.4 0-.6-.1s-.3-.2-.4-.3-.2-.3-.3-.5-.1-.4-.1-.7c0-.2 0-.4.1-.6s.2-.3.3-.5c.1-.1.3-.2.4-.3.2-.1.4-.1.6-.1s.3 0 .5.1c.1.1.3.1.4.3.1.1.2.2.3.4s.1.3.1.6v.2s-.1 0-.1 0h-1.9c0 .2 0 .3.1.5 0 .1.1.2.2.3s.2.2.3.2.2.1.4.1h.3c.1 0 .2-.1.2-.1.1 0 .1-.1.2-.1h.1.1zm3.7-.9c-.2 0-.4 0-.6.1-.2 0-.3.1-.4.1s-.2.1-.2.2-.1.1-.1.2v.2c0 .1.1.1.1.1s.1.1.2.1h.2.2c.1 0 .1 0 .2-.1.1 0 .1-.1.2-.1s.1-.1.2-.2zm-1.6-1.2c.2-.2.3-.3.5-.3.2-.1.4-.1.6-.1s.3 0 .4.1.2.1.3.2.2.2.2.3.1.3.1.4v1.9h-.2c-.1 0-.1 0-.1 0s0 0-.1-.1l-.1-.3c-.1.1-.2.1-.2.2-.1.1-.1.1-.2.1s-.2.1-.3.1-.2 0-.3 0-.2 0-.3 0-.2-.1-.3-.1c-.1-.1-.1-.1-.2-.2 0-.1-.1-.2-.1-.3s0-.2.1-.3l.3-.3c.1-.1.3-.1.6-.2.2-.1.5-.1.8-.1v-.2c0-.2 0-.4-.1-.5s-.2-.2-.4-.2c-.1 0-.2 0-.3 0s-.2.1-.2.1c-.1 0-.1.1-.2.1h-.1-.1s0 0-.1-.1zm3.4 1.8c.1.1.2.2.3.3s.2.1.4.1c.3 0 .5-.1.6-.3s.2-.5.2-.9-.1-.6-.2-.8-.3-.3-.6-.3c-.2 0-.3 0-.4.1s-.2.2-.3.3zm0-1.8c.1-.1.3-.3.4-.3.2-.1.3-.1.5-.1s.3 0 .5.1c.1.1.3.2.3.3.1.1.2.3.2.4.1.2.1.4.1.6s0 .4-.1.6-.1.4-.2.5-.2.2-.4.3-.3.1-.5.1-.4 0-.5-.1-.2-.2-.3-.3v.3c0 .1-.1.1-.1.1h-.3v-4.2h.5v1.7zm3.9-.5c.2 0 .4 0 .6.1s.3.2.4.3.2.3.3.5.1.4.1.6 0 .4-.1.6-.2.3-.3.5c-.1.1-.3.2-.4.3-.2.1-.4.1-.6.1s-.4 0-.6-.1-.3-.2-.4-.3-.2-.3-.3-.5-.1-.4-.1-.6 0-.4.1-.6.2-.3.3-.5c.1-.1.3-.2.4-.3.2 0 .4-.1.6-.1zm0 2.6c.3 0 .5-.1.6-.3s.2-.5.2-.8-.1-.6-.2-.8-.4-.3-.6-.3c-.1 0-.3 0-.4.1-.1 0-.2.1-.3.2s-.1.2-.2.3c0 .1-.1.3-.1.5 0 .3.1.6.2.8.3.2.5.3.8.3zm4.5-2.5v2.9h-.3c-.1 0-.1 0-.1-.1v-.3c-.1.1-.3.3-.4.3-.2.1-.3.1-.5.1s-.3 0-.4-.1-.2-.1-.3-.2-.1-.2-.2-.3c0-.1-.1-.3-.1-.5v-1.9h.5v1.9c0 .2.1.4.1.5.1.1.3.2.5.2s.3 0 .4-.1.3-.2.4-.3v-2.1zm1.7 2.9c-.2 0-.4-.1-.5-.2s-.2-.3-.2-.6v-1.8h-.3-.1s0 0 0-.1v-.2l.5-.1.1-.9v-.1h.1.3v1h.8v.4h-1v1.7c0 .1 0 .2.1.3s.1.1.2.1h.1.1.1.1.1l.1.2c-.1.1-.2.1-.3.2s-.2.1-.3.1zm2.6 0v-2.9h.3c.1 0 .1 0 .1.1v.3c.1-.1.2-.2.4-.3.1-.1.3-.1.5-.1s.4.1.5.2.2.3.3.4c0-.1.1-.2.2-.3s.1-.1.2-.2c.1 0 .2-.1.3-.1h.3c.2 0 .3 0 .4.1.1 0 .2.1.3.2s.1.2.2.3c0 .1.1.3.1.5v1.8h-.5v-1.8c0-.2-.1-.4-.1-.5-.1-.1-.2-.2-.4-.2-.1 0-.2 0-.2 0-.1 0-.1.1-.2.1-.1.1-.1.1-.1.2v.3 1.8h-.5v-1.8c0-.2 0-.4-.1-.5s-.2-.2-.4-.2c-.1 0-.2 0-.3.1s-.2.2-.3.3v2.2zm6.6-1.8c0-.1 0-.2-.1-.3 0-.1-.1-.2-.1-.3-.1-.1-.1-.1-.2-.2-.1 0-.2-.1-.3-.1-.2 0-.4.1-.6.2-.1.1-.2.3-.3.6h1.6zm.5 1.4c-.1.1-.1.1-.2.2s-.2.1-.3.1-.2.1-.3.1-.2 0-.3 0c-.2 0-.4 0-.6-.1s-.3-.2-.4-.3-.2-.3-.3-.5-.1-.4-.1-.7c0-.2 0-.4.1-.6s.2-.3.3-.5c.1-.1.3-.2.4-.3.2-.1.4-.1.6-.1s.3 0 .5.1c.1.1.3.1.4.3.1.1.2.2.3.4s.1.3.1.6v.2h-.1-1.9c0 .2 0 .3.1.5 0 .1.1.2.2.3s.2.2.3.2.2.1.4.1h.3c.1 0 .2-.1.2-.1.1 0 .1-.1.2-.1h.1.1zm.5.1v-.1s0-.1.1-.1c0 0 .1-.1.1-.1h.1.1s.1 0 .1.1c0 0 .1.1.1.1s0 .1 0 .1v.1s0 .1-.1.1c0 0-.1.1-.1.1h-.1-.1s-.1 0-.1-.1c0 0-.1-.1-.1-.1zm1.4 0v-.1s0-.1.1-.1c0 0 .1-.1.1-.1h.1.1s.1 0 .1.1c0 0 .1.1.1.1v.1.1s0 .1-.1.1c0 0-.1.1-.1.1h-.1-.1s-.1 0-.1-.1c0 0-.1-.1-.1-.1zm1.3 0v-.1s0-.1.1-.1c0 0 .1-.1.1-.1h.1.1s.1 0 .1.1c0 0 .1.1.1.1s0 .1 0 .1v.1s0 .1-.1.1c0 0-.1.1-.1.1h-.1-.1s-.1 0-.1-.1c0 0-.1-.1-.1-.1.1 0 0-.1 0-.1z" fill="#fff"/><g clip-path="url(#c)" fill="#fff"><path d="m52 54.3c0-.1 0-.2 0-.3s0-.2 0-.3 0-.2 0-.3 0-.2 0-.3h.3.3.3.3v.3.3.3.3c-.1 0-.2 0-.3 0s-.2 0-.3 0-.2 0-.3 0c-.1.1-.2.1-.3 0z"/><path d="m57.6 50.1c0-.4-.1-.7-.3-.9s-.6-.3-1.1-.3c-.2 0-.5 0-.7.1s-.4.1-.7.2c-.2-.2-.2-.6-.2-.9.2-.1.6-.2.9-.2.3-.1.7-.1.9-.1.7 0 1.3.2 1.7.5s.6.9.6 1.7v3.7c-.2.1-.6.2-1 .2-.3.2-.7.2-1.2.2-.4 0-.7 0-1-.1-.2-.1-.6-.2-.7-.3-.2-.2-.4-.3-.5-.6-.2-.3-.3-.7-.3-1s.1-.7.2-.9c.2-.2.4-.4.7-.6.2-.2.5-.2.8-.3s.6-.1.9-.1h.6.4zm0 1.2c-.1 0-.2 0-.4-.1s-.3 0-.4 0c-.5 0-.8.1-1.1.2-.2.2-.4.4-.4.8 0 .2.1.4.2.6s.2.2.3.3c0 0 .2 0 .3.1.2.1.3 0 .4 0h.6c.2 0 .3-.1.5-.1z"/><path d="m60 48.2h.2.2.2.2c0 .1.1.2.1.4v.5c.1-.2.2-.2.3-.4s.2-.2.4-.3.3-.2.5-.2c.4-.2.6-.2.9-.2.7 0 1.2.2 1.5.6s.5 1 .5 1.7v3.7c-.1 0-.2 0-.3 0-.2 0-.2 0-.3 0s-.2 0-.2 0c-.1 0-.2 0-.2 0v-3.4c0-.6-.1-1-.2-1.2-.2-.2-.4-.4-.8-.4-.2 0-.4 0-.6.1s-.3.2-.5.3c-.2.2-.2.4-.3.7-.1.2-.2.6-.2.9v3c-.1 0-.2 0-.2 0-.1 0-.2 0-.2 0-.1 0-.2 0-.2 0-.1 0-.2 0-.3 0z"/><path d="m66 48h.3.2.3.3l1.2 4.9 1.3-4.9h.2.3.3.2l1.3 4.8 1.2-4.8h.2.2.2.3l-1.7 5.9c-.1 0-.2 0-.3 0-.2 0-.2 0-.2 0-.1 0-.2 0-.2 0-.1 0-.2 0-.3 0l-1.2-4.5-1.1 4.5c-.1 0-.2 0-.3 0s-.2 0-.2 0c-.1 0-.2 0-.2 0-.1 0-.2 0-.2 0z"/><path d="m77.2 51.4c0 .7.2 1.2.5 1.4.3.3.8.4 1.4.4s1.1-.1 1.6-.2c.1.1.1.2.2.4 0 .2.1.3.1.5-.2.1-.5.2-.8.2-.3.1-.7.1-1 .1-.6 0-1-.1-1.4-.2-.4-.2-.7-.3-1-.7-.2-.2-.4-.6-.6-1-.1-.4-.2-.8-.2-1.2s.1-.8.2-1.2.2-.7.5-1c.2-.2.6-.4.9-.6s.7-.2 1.2-.2c.4 0 .7.1 1.1.2.3.2.6.3.7.6.2.2.3.5.5.8.1.3.2.7.2 1.1v.3.3zm3-.9c0-.2 0-.4-.1-.6s-.2-.3-.2-.5c-.1-.2-.2-.2-.4-.3s-.4-.2-.6-.2c-.5 0-.8.2-1.1.4-.2.2-.4.7-.5 1.2z"/><path d="m87.3 45h.2.2.2.2v8.3c-.3.1-.7.2-1 .2-.3.1-.7.1-1.2.1-.4 0-.8-.1-1.2-.2-.3-.1-.7-.2-1-.5-.3-.2-.5-.6-.7-.9s-.2-.8-.2-1.4c0-.5.1-.9.2-1.3.2-.4.3-.7.6-1 .2-.2.6-.5.9-.7s.7-.2 1.2-.2c.2 0 .4 0 .6.1.2 0 .4.1.6.1v-2.6zm0 3.5c-.2-.1-.3-.1-.5-.2s-.4-.1-.6-.1c-.3 0-.6.1-.8.2s-.4.2-.6.5c-.2.2-.2.4-.3.7-.1.2-.1.6-.1.9 0 .7.2 1.2.5 1.6.3.3.8.5 1.4.5h.6c.2 0 .3-.1.4-.1z"/><path d="m91.2 50.5c0 .7.2 1.2.5 1.4.3.3.8.4 1.4.4s1.1-.1 1.6-.2c.1.1.1.2.2.4 0 .2.1.3.1.5-.2.1-.5.2-.8.2-.3.1-.7.1-1 .1-.6 0-1-.1-1.4-.2-.4-.2-.7-.3-1-.7-.2-.2-.4-.6-.6-1-.1-.4-.2-.9-.2-1.3s.1-.8.2-1.2.2-.7.5-1c.2-.2.5-.5.9-.7.3-.2.7-.2 1.2-.2.4 0 .7.1 1.1.2.3.2.6.3.7.6.2.2.3.5.5.8.1.3.2.7.2 1.1v.3.3zm3-.9c0-.2 0-.4-.1-.6s-.2-.3-.2-.5c-.1-.2-.2-.2-.4-.3s-.4-.2-.6-.2c-.5 0-.8.2-1.1.4-.2.2-.4.7-.5 1.2z"/><path d="m96.2 52c.2.1.4.2.7.2.2.1.5.1.7.1s.3 0 .5-.1.3-.1.4-.2.2-.2.3-.2c.1-.1.1-.2.1-.4s0-.2-.1-.4c-.1-.1-.2-.2-.2-.2s-.2 0-.2-.1c-.2-.1-.2-.1-.4-.2l-.4-.2c-.5-.2-.8-.4-1.1-.7-.2-.2-.3-.6-.3-.9 0-.5.2-.9.6-1.2s.9-.5 1.7-.5c.3 0 .6 0 .9.1s.6.2.7.2c0 .2-.1.3-.1.5-.1.2-.1.3-.2.4-.2 0-.4 0-.7-.1-.2-.1-.4-.1-.7-.1-.2 0-.6.1-.7.2-.2.1-.3.2-.3.5 0 .2 0 .2.1.3s.2.2.2.2c.1.1.2.1.3.2s.2.1.4.2l.5.2c.2.1.3.2.5.2.2.1.3.2.4.3.1.2.2.2.2.5.1.2.1.4.1.7s-.1.6-.2.7c-.1.2-.2.4-.5.6-.2.2-.5.3-.7.4-.3.1-.7.2-1 .2s-.7 0-1-.1-.5-.2-.7-.2c0-.2.1-.3.1-.5.1-.2.1-.4.1-.6z"/><path d="m102.7 48.3h-.7c0-.1 0-.2 0-.2 0-.1 0-.2 0-.2 0-.1 0-.2 0-.2 0-.1 0-.2 0-.2h1.9v6c-.1 0-.2 0-.2 0s-.2 0-.2 0c-.1 0-.2 0-.2 0s-.2 0-.2 0v-5h-.4zm-.2-2.1c0-.1 0-.2 0-.3s0-.2 0-.2c0-.1 0-.2 0-.3s0-.2 0-.2h.3.3s.2 0 .3 0h.3v.2s0 .2 0 .3v.2.3c-.1 0-.2 0-.3 0s-.2 0-.3 0-.2 0-.3 0-.1 0-.3 0z"/><path d="m108.7 52.3c.7 0 1.2.2 1.5.4s.5.7.5 1.2c0 .3-.1.6-.2.8-.2.2-.4.5-.7.7-.2.2-.7.3-1 .4-.4.1-.8.2-1.2.2-.8 0-1.4-.2-1.8-.3s-.7-.7-.7-1.2c0-.3.1-.6.2-.8.2-.2.4-.4.7-.6-.2-.1-.2-.2-.4-.4s-.2-.3-.2-.6.1-.5.2-.7.3-.4.5-.6c-.2-.2-.4-.4-.6-.7-.2-.2-.2-.6-.2-1 0-.3.1-.6.2-.8s.2-.5.5-.7c.2-.2.5-.3.7-.4.3-.1.7-.2 1-.2s.7.1.9.2.5.2.7.4c.2-.1.3-.2.7-.3.2-.1.6-.1.8-.1 0 .2.1.3.1.5v.2.2h-1.1c.1.2.2.2.2.4.1.2.1.3.1.5 0 .3-.1.6-.2.8-.1.3-.2.5-.5.7-.2.2-.5.3-.7.4-.3.1-.6.2-1 .2-.3 0-.6 0-.8-.1-.1.1-.2.2-.3.2-.1.2-.2.2-.2.4s.1.2.2.3.3.2.7.2zm-1.6.9c-.3 0-.6.1-.7.2-.2.2-.2.4-.2.7 0 .2 0 .3.1.4s.2.2.3.2l.4.2h.6c.6 0 1.1-.1 1.5-.3.3-.2.5-.5.5-.7s-.1-.4-.2-.5c-.2-.1-.4-.2-.8-.2zm.6-2.9c.4 0 .7-.1.9-.3s.3-.5.3-.9c0-.3-.1-.7-.3-.9s-.5-.3-.9-.3-.7.1-.9.3-.3.6-.3.9.1.7.3.9c.1.2.4.3.9.3z"/><path d="m112 47.1h.2.2s.2 0 .2 0h.2c0 .1.1.2.1.5v.5c.1-.2.2-.2.3-.4s.2-.2.4-.3.3-.2.5-.2c.2-.1.4-.1.7-.1.7 0 1.2.2 1.5.6s.5 1 .5 1.7v3.6c-.1 0-.2 0-.2 0-.1 0-.2 0-.3 0s-.2 0-.2 0c-.1 0-.2 0-.2 0v-3.4c0-.6-.1-1-.2-1.2-.2-.2-.4-.4-.8-.4-.2 0-.4 0-.6.1s-.3.2-.5.3-.2.4-.3.7c-.2.3-.2.7-.2 1v3c-.1 0-.2 0-.2 0s-.2 0-.2 0-.2 0-.2 0-.2 0-.3 0z"/></g><path d="m313.2 92.2h361.8v241.4h-361.8z" fill="#fff" fill-opacity=".5"/><path d="m313.2 92.2h361.8v241.4h-361.8z" fill="none" stroke="#fff" stroke-width=".4674"/><circle cx="106" cy="287" fill="#fff" fill-opacity=".5" r="10"/><ellipse cx="131" cy="287" fill="#fff" fill-opacity=".5" rx="10" ry="10" transform="matrix(.07088906 -.9975 .9975 .07088906 -164.5622 397.2617)"/><circle cx="156" cy="287" fill="#fff" fill-opacity=".5" r="10"/><circle cx="182" cy="287" fill="#fff" fill-opacity=".5" r="10"/><circle cx="106" cy="313" fill="#fff" fill-opacity=".5" r="10"/><ellipse cx="131" cy="313" fill="#fff" fill-opacity=".5" rx="10" ry="10" transform="matrix(.07088906 -.9975 .9975 .07088906 -190.4968 421.4186)"/><path d="m573.5 357 6.5 8.8h-13z" fill="#fff" fill-opacity=".3"/><path d="m558.5 348 6.5 8.8h-13z" fill="#fff" fill-opacity=".3"/><path d="m569.5 357 6.5 8.8h-13z" fill="#fff" fill-opacity=".8"/></g><g clip-path="url(#d)"><path d="m58.2 12.5h-7.5c-.6 0-1.2.2-1.6.7-.4.4-.7 1-.7 1.6v7.5c0 .6.2 1.2.7 1.6.4.4 1 .7 1.6.7h7.5c.6 0 1.2-.2 1.6-.7.4-.4.7-1 .7-1.6v-7.5c0-.3-.1-.6-.2-.9s-.3-.5-.5-.7-.5-.4-.7-.5c-.3-.1-.6-.2-.9-.2zm-8.8 2.3c0-.3.1-.6.4-.9.2-.2.5-.4.9-.4h7.5c.3 0 .6.1.9.4.2.2.4.5.4.9v7.5c0 .3-.1.6-.4.9-.2.2-.5.4-.9.4h-7.5c-.3 0-.6-.1-.9-.4-.2-.2-.4-.5-.4-.9zm17.6 5.3 1.6-1.6-1.6-1.5c-.1-.1-.1-.2-.1-.3s0-.2.1-.3.2-.1.3-.1.2 0 .3.1l1.9 1.9c.1.1.1.2.1.3s0 .2-.1.3l-1.9 1.9c-.1.1-.2.1-.3.1s-.2 0-.3-.1-.1-.2-.1-.3c0-.2 0-.3.1-.4zm5-7.6h-7.5c-.6 0-1.2.2-1.6.7-.4.4-.7 1-.7 1.6v7.5c0 .6.2 1.2.7 1.6.4.4 1 .7 1.6.7h7.5c.6 0 1.2-.2 1.6-.7.4-.4.7-1 .7-1.6v-7.5c0-.3-.1-.6-.2-.9s-.3-.5-.5-.7-.5-.4-.7-.5c-.3-.1-.6-.2-.9-.2zm-8.8 2.3c0-.3.1-.6.4-.9.2-.2.5-.4.9-.4h7.5c.2 0 .3 0 .5.1s.3.2.4.3.2.3.3.4c.1.2.1.3.1.5v7.5c0 .3-.1.6-.4.9-.2.2-.5.4-.9.4h-7.5c-.3 0-.6-.1-.9-.4-.2-.2-.4-.5-.4-.9zm-43.1.1c-.8 0-1.5.2-2.2.7s-1.1 1-1.4 1.7-.4 1.5-.2 2.2c.1.8.5 1.4 1.1 2 .5.5 1.2.9 2 1.1s1.5.1 2.2-.2 1.3-.8 1.7-1.4.7-1.4.7-2.2c0-1-.4-2-1.1-2.7-.8-.8-1.8-1.2-2.8-1.2zm0 6.7c-.6 0-1.1-.2-1.6-.5s-.8-.8-1-1.3-.3-1.1-.2-1.6c.1-.6.4-1.1.8-1.5s.9-.7 1.5-.8 1.1-.1 1.6.2c.5.2 1 .6 1.3 1 .3.5.5 1 .5 1.6 0 .8-.3 1.5-.8 2-.6.6-1.3.9-2.1.9zm9.4-6.7c-.8 0-1.5.2-2.2.7-.6.4-1.1 1-1.4 1.7s-.4 1.5-.2 2.2c.2.8.5 1.4 1.1 2 .5.5 1.2.9 2 1.1.8.1 1.5.1 2.2-.2s1.3-.8 1.7-1.4.7-1.4.7-2.2c0-.5-.1-1-.3-1.5s-.5-.9-.8-1.3c-.4-.4-.8-.6-1.3-.8s-1-.3-1.5-.3zm0 6.7c-.6 0-1.1-.2-1.6-.5s-.8-.8-1-1.3-.3-1.1-.2-1.6.4-1.1.8-1.5.9-.7 1.5-.8 1.1-.1 1.6.2c.5.2 1 .6 1.3 1 .3.5.5 1 .5 1.6 0 .4-.1.7-.2 1.1-.1.3-.4.7-.6.9-.3.3-.6.5-.9.6-.5.2-.8.3-1.2.3zm1.9-2.8c0 .1 0 .2-.1.2-.1.1-.1.1-.2.1h-2.7c-.1 0-.2 0-.2-.1-.1-.1-.1-.1-.1-.2s0-.2.1-.2c.1-.1.1-.1.2-.1h2.6c.1 0 .2 0 .2.1.1 0 .2.1.2.2zm21.8.1c-.1-.1-.1-.2-.1-.3s0-.2.1-.3l1.9-1.9c.1-.1.2-.1.3-.1s.2 0 .3.1.1.2.1.3 0 .2-.1.3l-1.6 1.6 1.6 1.6s.1.1.1.1v.2.2c0 .1-.1.1-.1.1s-.1.1-.1.1c-.1 0-.1 0-.2 0s-.1 0-.2 0-.1-.1-.1-.1zm-12.7-.1c0 .1 0 .2-.1.2-.1.1-.1.1-.2.1h-1v1c0 .1 0 .2-.1.2-.1.1-.1.1-.2.1s-.2 0-.2-.1c-.1-.1-.1-.1-.1-.2v-1h-1c-.1 0-.2 0-.2-.1-.1-.1-.1-.1-.1-.2s0-.2.1-.2c.1-.1.1-.1.2-.1h1v-1c0-.1 0-.2.1-.2.1-.1.1-.1.2-.1s.2 0 .2.1c.1.1.1.1.1.2v1h1c.1 0 .2 0 .2.1.1 0 .1.1.1.2zm-19.2 0c0 .2-.1.5-.2.7s-.3.3-.5.4-.5.1-.7.1-.4-.2-.6-.3c-.2-.2-.3-.4-.3-.6s0-.5.1-.7.2-.4.4-.5.4-.2.7-.2.6.1.8.4c.2 0 .3.3.3.7zm17.6-3.9c-.8 0-1.5.2-2.2.7-.6.4-1.1 1-1.4 1.7s-.4 1.5-.2 2.2c.2.8.5 1.4 1.1 2 .5.5 1.2.9 2 1.1s1.5.1 2.2-.2 1.3-.8 1.7-1.4.7-1.4.7-2.2c0-.5-.1-1-.3-1.5s-.5-.9-.8-1.3c-.4-.4-.8-.6-1.3-.8s-1-.3-1.5-.3zm0 6.7c-.6 0-1.1-.2-1.6-.5s-.8-.8-1-1.3-.3-1.1-.2-1.6c.1-.6.4-1.1.8-1.5s.9-.7 1.5-.8 1.1-.1 1.6.2c.5.2 1 .6 1.3 1 .3.5.5 1 .5 1.6 0 .4-.1.7-.2 1.1-.1.3-.4.7-.6.9-.3.3-.6.5-.9.6-.5.2-.8.3-1.2.3zm371.7-2.8c0-.7.3-1.4.8-2 .5-.5 1.2-.9 1.9-.9v-.4l1.2.7-1.2.7v-.3c-.4 0-.8.2-1.2.5s-.6.6-.7 1-.1.9 0 1.3.3.8.7 1.1c.3.3.7.5 1.1.5.4.1.9 0 1.3-.2s.7-.5 1-.8c.2-.4.4-.8.4-1.2h.7c0 .8-.3 1.5-.9 2s-1.3.8-2.1.8-1.5-.3-2.1-.8-.9-1.3-.9-2zm-324.4 1c0 .1 0 .2-.1.2-.1.1-.1.1-.2.1h-1.1c-.1 0-.2 0-.2-.1-.1-.1-.1-.1-.1-.2s0-.2.1-.2c.1-.1.1-.1.2-.1h1.1c.1 0 .2 0 .2.1.1 0 .1.1.1.2zm509.6-.5h-2v-.7h2v-2.3h.7v2.3h2v.7h-2v2.3h-.7zm-19.3-3.3h-.7v-1.1h5.5v5.5h-1.1v-.7h.4v-4.2h-4.2v.5zm-12.8-3.7h-12.4c-.7 0-1.4.3-1.9.8s-.8 1.2-.8 1.9v6.7c0 .7.3 1.4.8 1.9s1.2.8 1.9.8h12.4c.7 0 1.4-.3 1.9-.8s.8-1.2.8-1.9v-6.7c0-.7-.3-1.4-.8-1.9s-1.2-.8-1.9-.8zm-14.1 2.7c0-.4.2-.9.5-1.2s.7-.5 1.2-.5h6.2l-1.9 2 .4.4 1.2-1.3v4.6h.7v-4.5l1.2 1.3.4-.4-1.9-2h6.2c.4 0 .9.2 1.2.5s.5.7.5 1.2v6.7c0 .4-.2.9-.5 1.2s-.7.5-1.2.5h-12.4c-.4 0-.9-.2-1.2-.5s-.5-.7-.5-1.2zm30.3 1.4h-5.5v5.5h5.5zm-4.8 4.8v-4.2h4.2v4.2zm15.3 3.1h11.4v-11.3h-11.4zm10.5-10.5v9.7h-9.7v-9.7zm-.4-12.8h-583c-4.6 0-9.1 1.8-12.4 5.1s-5.1 7.7-5.1 12.4v377c0 4.6 1.8 9.1 5.1 12.4s7.7 5.1 12.4 5.1h583c4.6 0 9.1-1.8 12.4-5.1s5.1-7.7 5.1-12.4v-377c0-4.6-1.8-9.1-5.1-12.4s-7.8-5.1-12.4-5.1zm0 409.2h-583c-3.9 0-7.6-1.5-10.4-4.3-2.7-2.7-4.3-6.5-4.3-10.3v-359.8h612.3v359.7c0 3.9-1.5 7.6-4.3 10.3-2.7 2.8-6.4 4.4-10.3 4.4zm-583-406.4h583c3.9 0 7.6 1.5 10.4 4.3 2.7 2.7 4.3 6.5 4.3 10.3v14.6h-612.4v-14.5c0-3.9 1.5-7.6 4.3-10.3 2.8-2.8 6.5-4.4 10.4-4.4zm566.6 8.5h-12.4c-.7 0-1.4.3-1.9.8s-.8 1.2-.8 1.9v6.7c0 .7.3 1.4.8 1.9s1.2.8 1.9.8h12.4c.7 0 1.4-.3 1.9-.8s.8-1.2.8-1.9v-6.7c0-.7-.3-1.4-.8-1.9s-1.2-.8-1.9-.8zm-14.1 2.7c0-.4.2-.9.5-1.2s.7-.5 1.2-.5h12.4c.4 0 .9.2 1.2.5s.5.7.5 1.2v6.7c0 .4-.2.9-.5 1.2s-.7.5-1.2.5h-12.4c-.4 0-.9-.2-1.2-.5s-.5-.7-.5-1.2zm-483.8 1.7c0 .1 0 .2-.1.2-.1.1-.1.1-.2.1h-1.1c-.1 0-.2 0-.2-.1-.1-.1-.1-.1-.1-.2s0-.2.1-.2c.1-.1.1-.1.2-.1h1.1c.1 0 .2 0 .2.1.1.1.1.1.1.2zm0 1.1c0 .1 0 .2-.1.2-.1.1-.1.1-.2.1h-1.1c-.1 0-.2 0-.2-.1-.1-.1-.1-.1-.1-.2s0-.2.1-.2c.1-.1.1-.1.2-.1h1.1c.1 0 .2 0 .2.1.1 0 .1.1.1.2zm474.2 4.2h-6v-6h2.2v.7h-1.5v4.6h4.7v-4.6h-1.5v-.7h2.2zm-467.2-7h-9.7v7.1h9.7zm-9 6.5v-5.8h2.5v5.8zm3.1 0v-5.8h5.2v5.8zm-1.1-2.7c0 .1 0 .2-.1.2s-.1.1-.2.1h-1.1c-.1 0-.2 0-.2-.1-.1-.1-.1-.1-.1-.2s0-.2.1-.2c.1-.1.1-.1.2-.1h1.1c.1 0 .2 0 .2.1.1 0 .1.1.1.2zm8.4-6.4h-12.5c-.7 0-1.4.3-1.9.8s-.8 1.2-.8 1.9v6.7c0 .7.3 1.4.8 1.9s1.2.8 1.9.8h12.4c.7 0 1.4-.3 1.9-.8s.8-1.2.8-1.9v-6.7c0-.7-.3-1.4-.8-1.9-.4-.5-1.1-.7-1.8-.8zm-14.1 2.7c0-.4.2-.9.5-1.2s.7-.5 1.2-.5h12.4c.4 0 .9.2 1.2.5s.5.7.5 1.2v6.7c0 .4-.2.9-.5 1.2s-.7.5-1.2.5h-12.5c-.4 0-.9-.2-1.2-.5s-.5-.7-.5-1.2v-6.7zm336.8-2.8h-232.6c-.6 0-1.3.3-1.7.7-.5.5-.7 1.1-.7 1.7v7.3c0 .6.3 1.2.7 1.7s1.1.7 1.7.7h232.6c.6 0 1.3-.3 1.7-.7.5-.5.7-1.1.7-1.7v-7.3c0-.6-.3-1.2-.7-1.7-.4-.4-1.1-.7-1.7-.7zm-234 2.4c0-.4.1-.7.4-1s.6-.4 1-.4h232.6c.4 0 .7.1 1 .4s.4.6.4 1v7.3c0 .4-.1.7-.4 1s-.6.4-1 .4h-232.6c-.4 0-.7-.1-1-.4s-.4-.6-.4-1z" fill="#fff"/></g></g></svg>