<svg width="333" height="31" viewBox="0 0 333 31" fill="none" xmlns="http://www.w3.org/2000/svg">
<path d="M14.5625 14.1094H6.51562L5.64062 16.1094C5.22396 17.0885 5.01562 17.8958 5.01562 18.5312C5.01562 19.0729 5.13542 19.5417 5.375 19.9375C5.625 20.3229 5.98958 20.6458 6.46875 20.9062C6.95833 21.1562 7.59896 21.3594 8.39062 21.5156V22H0.28125V21.5312C1.26042 21.1979 2.09896 20.6146 2.79688 19.7812C3.50521 18.9479 4.25 17.651 5.03125 15.8906L11.9375 0.265625H12.3438L19.8594 17.1562C19.8802 17.1667 19.8958 17.1979 19.9062 17.25C19.9271 17.2917 19.9479 17.3385 19.9688 17.3906C20 17.4427 20.0312 17.5 20.0625 17.5625L20.75 18.9844C21.125 19.7448 21.5521 20.3177 22.0312 20.7031C22.5104 21.0885 23.1094 21.3594 23.8281 21.5156V22H13.8594V21.5156C14.7031 21.4531 15.3073 21.3542 15.6719 21.2188C16.4219 20.9375 16.7969 20.4479 16.7969 19.75C16.7969 19.4062 16.6302 18.8438 16.2969 18.0625L14.5625 14.1094ZM14.2656 13.4531L10.5 4.96875L6.79688 13.4531H14.2656ZM10.8281 4.29688L16.8438 17.8438L17 18.1875C17.3229 18.8854 17.4844 19.3958 17.4844 19.7188C17.4844 20.1667 17.2292 20.6615 16.7188 21.2031H20.8438C20.375 20.7656 19.9688 20.2656 19.625 19.7031C19.2812 19.1302 18.8802 18.3385 18.4219 17.3281L11.7188 2.25L10.8281 4.29688ZM5.35938 21.2031C5.00521 20.776 4.75521 20.3958 4.60938 20.0625C4.46354 19.7188 4.39062 19.349 4.39062 18.9531C4.39062 18.776 4.39583 18.6354 4.40625 18.5312C4.08333 19.1562 3.76562 19.6615 3.45312 20.0469C3.14062 20.4219 2.71875 20.8073 2.1875 21.2031H5.35938ZM36.6094 18.8438L36.9688 19.2812C36.2812 20.0521 35.6458 20.6615 35.0625 21.1094C34.4896 21.5469 33.9062 21.8594 33.3125 22.0469C32.7188 22.2344 32.0365 22.3281 31.2656 22.3281C30.0469 22.3281 28.9583 22.0677 28 21.5469C27.0417 21.0156 26.2917 20.2708 25.75 19.3125C25.2083 18.3438 24.9375 17.2656 24.9375 16.0781C24.9375 15.1094 25.1198 14.1771 25.4844 13.2812C25.849 12.3854 26.349 11.6094 26.9844 10.9531C27.6198 10.2969 28.375 9.78646 29.25 9.42188C30.1354 9.04688 31.0573 8.85938 32.0156 8.85938C32.901 8.85938 33.7292 9.02604 34.5 9.35938C35.2708 9.68229 35.8802 10.1198 36.3281 10.6719C36.7865 11.224 37.0156 11.8281 37.0156 12.4844C37.0156 12.9115 36.8854 13.276 36.625 13.5781C36.375 13.8698 36.0573 14.0156 35.6719 14.0156C35.1094 14.0156 34.6875 13.7448 34.4062 13.2031C34.2812 12.9635 34.1823 12.4896 34.1094 11.7812C34.026 11.0833 33.8906 10.5833 33.7031 10.2812C33.5365 10 33.2969 9.78125 32.9844 9.625C32.6719 9.45833 32.3177 9.375 31.9219 9.375C31.2031 9.375 30.5677 9.625 30.0156 10.125C29.4635 10.625 29.0365 11.3229 28.7344 12.2188C28.4427 13.1146 28.2969 14.1562 28.2969 15.3438C28.2969 16.5208 28.4688 17.5729 28.8125 18.5C29.1562 19.4167 29.6354 20.125 30.25 20.625C30.875 21.1146 31.599 21.3594 32.4219 21.3594C32.8906 21.3594 33.3438 21.276 33.7812 21.1094C34.2188 20.9323 34.6719 20.6562 35.1406 20.2812C35.6198 19.8958 36.1094 19.4167 36.6094 18.8438ZM31.2031 21.9062C28.3594 21.1667 26.9375 19.0521 26.9375 15.5625C26.9375 14.25 27.125 13.1562 27.5 12.2812C27.8854 11.4062 28.5573 10.5625 29.5156 9.75C26.8385 11.125 25.5 13.224 25.5 16.0469C25.5 17.151 25.7448 18.151 26.2344 19.0469C26.724 19.9323 27.401 20.6302 28.2656 21.1406C29.1406 21.6406 30.1198 21.8958 31.2031 21.9062ZM33.8594 9.75C34.1615 10.1458 34.3542 10.4792 34.4375 10.75C34.5312 11.0104 34.6198 11.4635 34.7031 12.1094C34.7865 12.6615 34.875 13.0208 34.9688 13.1875C35.0729 13.3542 35.2344 13.4375 35.4531 13.4375C35.7969 13.4375 35.9688 13.1875 35.9688 12.6875C35.9688 11.6562 35.2656 10.6771 33.8594 9.75ZM46.4375 20.5469C45.1562 21.6302 43.7812 22.1719 42.3125 22.1719C41.1354 22.1719 40.1927 21.8698 39.4844 21.2656C38.7865 20.651 38.4375 19.849 38.4375 18.8594C38.4375 17.4531 39.125 16.349 40.5 15.5469C41.875 14.7448 43.8542 14.2917 46.4375 14.1875V13.75V13.5312C46.4375 12.7188 46.401 12.0573 46.3281 11.5469C46.2552 11.026 46.151 10.6354 46.0156 10.375C45.8594 10.0729 45.6354 9.83333 45.3438 9.65625C45.0625 9.46875 44.7552 9.375 44.4219 9.375C43.9323 9.375 43.5469 9.53646 43.2656 9.85938C42.9844 10.1719 42.8073 10.6615 42.7344 11.3281C42.651 11.9844 42.5156 12.4323 42.3281 12.6719C42.1406 12.901 41.8177 13.0156 41.3594 13.0156C41.0052 13.0156 40.7083 12.8906 40.4688 12.6406C40.2292 12.3906 40.1094 12.0677 40.1094 11.6719C40.1094 11.1406 40.3021 10.6615 40.6875 10.2344C41.0729 9.79688 41.6042 9.45312 42.2812 9.20312C42.9688 8.95312 43.7188 8.82812 44.5312 8.82812C45.5833 8.82812 46.5052 9.04167 47.2969 9.46875C48.0885 9.88542 48.6771 10.4688 49.0625 11.2188C49.2708 11.6042 49.4167 12.0365 49.5 12.5156C49.5938 12.9948 49.6406 13.6562 49.6406 14.5V19C49.6406 19.8646 49.7656 20.4792 50.0156 20.8438C50.276 21.2083 50.7604 21.4531 51.4688 21.5781V22H46.4375V20.5469ZM46.4375 19.8594V14.6875C45.4271 14.8438 44.5573 15.1042 43.8281 15.4688C43.1094 15.8333 42.5573 16.2969 42.1719 16.8594C41.7865 17.4219 41.5938 18.0417 41.5938 18.7188C41.5938 19.4062 41.7969 19.9792 42.2031 20.4375C42.6198 20.8854 43.1406 21.1094 43.7656 21.1094C44.5365 21.1094 45.4271 20.6927 46.4375 19.8594ZM46.9688 21.3125H49.2812L48.9219 21.0312C48.9219 21.0312 48.9115 21.026 48.8906 21.0156C48.8802 20.9948 48.8698 20.9844 48.8594 20.9844L48.6562 20.8281C48.5 20.6719 48.4219 20.474 48.4219 20.2344V19.9219L48.4062 19.7656V14.4531C48.4062 13.0052 48.2396 11.9219 47.9062 11.2031C47.4375 10.2448 46.7031 9.63021 45.7031 9.35938C46.3698 9.82812 46.7604 10.5729 46.875 11.5938C46.9375 12.2188 46.9688 13.1875 46.9688 14.5V21.3125ZM43 21.7344C41.2292 21.3698 40.3438 20.401 40.3438 18.8281C40.3438 17.8073 40.7552 16.9323 41.5781 16.2031C41.9427 15.8802 42.6458 15.4688 43.6875 14.9688C42.4271 15.2083 41.4479 15.5365 40.75 15.9531C39.5625 16.6823 38.9688 17.6458 38.9688 18.8438C38.9688 19.7083 39.2812 20.4115 39.9062 20.9531C40.5417 21.4844 41.3594 21.75 42.3594 21.75C42.599 21.75 42.8125 21.7448 43 21.7344ZM43 9.39062C42.2708 9.57812 41.6823 9.88542 41.2344 10.3125C40.7969 10.7292 40.5781 11.1979 40.5781 11.7188C40.5781 11.9167 40.625 12.0729 40.7188 12.1875C40.8125 12.3021 40.9375 12.3594 41.0938 12.3594C41.2396 12.3594 41.349 12.3177 41.4219 12.2344C41.4948 12.1406 41.5573 11.9583 41.6094 11.6875C41.724 11.1042 41.8698 10.6667 42.0469 10.375C42.2344 10.0729 42.5521 9.74479 43 9.39062ZM63.5469 20.4062L63.4844 20.4531C62.0781 21.6927 60.5833 22.3125 59 22.3125C57.8646 22.3125 56.8281 22.0469 55.8906 21.5156C54.9531 20.974 54.2135 20.2292 53.6719 19.2812C53.1406 18.3229 52.875 17.276 52.875 16.1406C52.875 14.8802 53.1823 13.6927 53.7969 12.5781C54.4219 11.4635 55.2604 10.5729 56.3125 9.90625C57.3646 9.23958 58.4844 8.90625 59.6719 8.90625C61.0365 8.90625 62.3281 9.39583 63.5469 10.375V3.90625C63.5469 3.04167 63.4167 2.42188 63.1562 2.04688C62.8958 1.67188 62.4167 1.43229 61.7188 1.32812V0.984375L66.7344 0.40625V19C66.7344 19.8646 66.8646 20.4792 67.125 20.8438C67.3958 21.2083 67.8802 21.4531 68.5781 21.5781V22H63.5469V20.4062ZM63.5469 11.2656L63.4219 11.1562C62.7448 10.5729 62.1302 10.1458 61.5781 9.875C61.0365 9.60417 60.5052 9.46875 59.9844 9.46875C59.2448 9.46875 58.5885 9.71354 58.0156 10.2031C57.4427 10.6823 57 11.3698 56.6875 12.2656C56.375 13.151 56.2188 14.1979 56.2188 15.4062C56.2188 16.5625 56.3698 17.599 56.6719 18.5156C56.974 19.4323 57.401 20.151 57.9531 20.6719C58.5156 21.1823 59.1615 21.4375 59.8906 21.4375C61.026 21.4375 62.2448 20.724 63.5469 19.2969V11.2656ZM58.1719 21.8438C57.5365 21.4688 57.0677 21.151 56.7656 20.8906C56.4635 20.6302 56.1667 20.2708 55.875 19.8125C55.1667 18.6771 54.8125 17.3438 54.8125 15.8125C54.8125 14.5417 55.0052 13.4583 55.3906 12.5625C55.776 11.6667 56.4427 10.7448 57.3906 9.79688C56.0781 10.5573 55.0833 11.4792 54.4062 12.5625C53.7396 13.6354 53.4062 14.8333 53.4062 16.1562C53.4062 17.5833 53.8229 18.8021 54.6562 19.8125C55.5 20.8229 56.6719 21.5 58.1719 21.8438ZM64.0781 21.3125H66.3906L66.0312 21.0312C66.0104 21.0208 65.9896 21.0052 65.9688 20.9844L65.7656 20.8281C65.6094 20.6719 65.5312 20.474 65.5312 20.2344L65.5156 19.9219V19.7656V1.0625L62.9531 1.34375L63.5625 1.78125C63.5729 1.78125 63.5938 1.79688 63.625 1.82812L63.8281 1.98438C63.9323 2.05729 64 2.15625 64.0312 2.28125C64.0625 2.39583 64.0781 2.65104 64.0781 3.04688V21.3125ZM73.5469 14.7188V15.0625C73.5469 16.3021 73.7292 17.3906 74.0938 18.3281C74.4583 19.2552 74.974 19.974 75.6406 20.4844C76.3177 20.9948 77.1094 21.25 78.0156 21.25C78.4948 21.25 78.974 21.1719 79.4531 21.0156C79.9427 20.849 80.4219 20.6146 80.8906 20.3125C81.3698 20.0104 81.9062 19.5833 82.5 19.0312L82.8125 19.4531C81.7396 20.4948 80.7188 21.2396 79.75 21.6875C78.7917 22.1354 77.7188 22.3594 76.5312 22.3594C75.2917 22.3594 74.1771 22.0885 73.1875 21.5469C72.2083 21.0052 71.4479 20.2396 70.9062 19.25C70.3646 18.2604 70.0938 17.1458 70.0938 15.9062C70.0938 14.6042 70.3906 13.4115 70.9844 12.3281C71.5885 11.2448 72.4062 10.3958 73.4375 9.78125C74.4792 9.16667 75.6406 8.85938 76.9219 8.85938C78.0156 8.85938 79.0156 9.08333 79.9219 9.53125C80.8385 9.97917 81.5521 10.6094 82.0625 11.4219C82.6042 12.2552 82.9062 13.3542 82.9688 14.7188H73.5469ZM73.5469 14.1719H79.7812C79.7708 12.7656 79.6302 11.7552 79.3594 11.1406C79.1198 10.5781 78.776 10.1458 78.3281 9.84375C77.8802 9.53125 77.3802 9.375 76.8281 9.375C74.8281 9.375 73.7344 10.974 73.5469 14.1719ZM77.2031 21.8906C76.4635 21.7969 75.8698 21.6562 75.4219 21.4688C74.974 21.2812 74.5365 20.9896 74.1094 20.5938C73.474 20.0104 72.9792 19.2448 72.625 18.2969C72.2708 17.3385 72.0938 16.2969 72.0938 15.1719C72.0938 14.3906 72.1667 13.6719 72.3125 13.0156C72.4688 12.3594 72.7031 11.7708 73.0156 11.25C73.3385 10.7292 73.7708 10.2344 74.3125 9.76562C73.125 10.4115 72.2135 11.2656 71.5781 12.3281C70.9427 13.3906 70.625 14.5781 70.625 15.8906C70.625 17.0156 70.8802 18.0417 71.3906 18.9688C71.901 19.8854 72.6094 20.6042 73.5156 21.125C74.4323 21.6458 75.4427 21.9062 76.5469 21.9062C76.7969 21.9062 77.0156 21.901 77.2031 21.8906ZM81.6719 14.1719C81.6406 13.401 81.5 12.7031 81.25 12.0781C81 11.4531 80.651 10.9271 80.2031 10.5C79.7656 10.0625 79.2448 9.75 78.6406 9.5625C79.2448 10.0417 79.6771 10.6094 79.9375 11.2656C80.2083 11.9219 80.3438 12.7448 80.3438 13.7344C80.3438 13.901 80.3385 14.0469 80.3281 14.1719H81.6719ZM98.875 12.6719C98.9167 13.0365 98.9375 13.4167 98.9375 13.8125V19C98.9375 19.8646 99.0677 20.4792 99.3281 20.8438C99.599 21.2083 100.083 21.4531 100.781 21.5781V22H93.9219V21.5781C94.6302 21.4531 95.1094 21.2083 95.3594 20.8438C95.6198 20.4792 95.75 19.8646 95.75 19V13.7188C95.75 12.5833 95.6771 11.7969 95.5312 11.3594C95.3958 10.8906 95.1562 10.5208 94.8125 10.25C94.4688 9.97917 94.0677 9.84375 93.6094 9.84375C92.9531 9.84375 92.3281 10.0521 91.7344 10.4688C91.1406 10.8854 90.4271 11.6094 89.5938 12.6406V19C89.5938 19.8646 89.7188 20.4792 89.9688 20.8438C90.2292 21.2083 90.7135 21.4531 91.4219 21.5781V22H84.5625V21.5781C85.2708 21.4531 85.7552 21.2135 86.0156 20.8594C86.276 20.4948 86.4062 19.875 86.4062 19V12.4375C86.4062 11.5625 86.2708 10.9427 86 10.5781C85.7396 10.2031 85.2604 9.96354 84.5625 9.85938V9.51562L89.5938 8.9375V11.875C90.4375 10.8229 91.25 10.0625 92.0312 9.59375C92.8229 9.11458 93.6771 8.875 94.5938 8.875C95.6562 8.875 96.5417 9.15104 97.25 9.70312C97.9688 10.2448 98.4635 11.0208 98.7344 12.0312C99.3906 11.2396 99.9531 10.6302 100.422 10.2031C101.401 9.31771 102.536 8.875 103.828 8.875C104.63 8.875 105.365 9.05729 106.031 9.42188C106.708 9.77604 107.234 10.2812 107.609 10.9375C108.016 11.6354 108.219 12.5938 108.219 13.8125V19C108.219 19.8646 108.344 20.4792 108.594 20.8438C108.854 21.2083 109.339 21.4531 110.047 21.5781V22H103.188V21.5781C103.906 21.4531 104.391 21.2083 104.641 20.8438C104.901 20.4792 105.031 19.8646 105.031 19V13.7188C105.031 12.5729 104.958 11.7865 104.812 11.3594C104.677 10.8802 104.438 10.5104 104.094 10.25C103.76 9.97917 103.37 9.84375 102.922 9.84375C102.266 9.84375 101.62 10.0677 100.984 10.5156C100.359 10.9531 99.6562 11.6719 98.875 12.6719ZM95.4688 21.3125H98.5938L98.2344 21.0312C98.2135 21.0208 98.1927 21.0052 98.1719 20.9844L97.9688 20.8281C97.8125 20.6719 97.7344 20.474 97.7344 20.2344L97.7188 19.9219V19.7656V13.7969C97.7083 12.3594 97.4792 11.3281 97.0312 10.7031C96.7396 10.2865 96.3646 9.96354 95.9062 9.73438C95.4479 9.49479 94.9583 9.375 94.4375 9.375C94.375 9.375 94.3229 9.38021 94.2812 9.39062C94.25 9.39062 94.1875 9.39583 94.0938 9.40625C94.0104 9.40625 93.9219 9.41146 93.8281 9.42188C94.7656 9.55729 95.4062 9.93229 95.75 10.5469C96.1042 11.151 96.2812 12.2031 96.2812 13.7031V19.7656C96.2812 20.1927 96.2604 20.4583 96.2188 20.5625C96.1875 20.6667 96.0677 20.8073 95.8594 20.9844C95.8385 21.0052 95.8229 21.0156 95.8125 21.0156C95.8125 21.0156 95.8073 21.0208 95.7969 21.0312L95.4688 21.3125ZM86.125 21.3125H89.25L88.875 21.0312C88.8542 21.0104 88.8333 20.9948 88.8125 20.9844L88.6094 20.8281C88.4635 20.6823 88.3854 20.4844 88.375 20.2344V19.9219V19.7656V9.59375L85.8125 9.875L86.4219 10.3125C86.4323 10.3125 86.4531 10.3281 86.4844 10.3594L86.6875 10.5156C86.7917 10.5885 86.8594 10.6979 86.8906 10.8438C86.9219 10.9792 86.9375 11.224 86.9375 11.5781V19.7656C86.9375 20.1927 86.9167 20.4583 86.875 20.5625C86.8333 20.6667 86.7083 20.8073 86.5 20.9844C86.5 20.9844 86.4896 20.9896 86.4688 21C86.4583 21.0104 86.4531 21.0208 86.4531 21.0312L86.125 21.3125ZM104.75 21.3125H107.875L107.5 21.0312C107.5 21.0208 107.495 21.0104 107.484 21C107.474 20.9896 107.464 20.9844 107.453 20.9844L107.25 20.8281C107.094 20.6823 107.016 20.4844 107.016 20.2344L107 19.9219V19.7656L106.984 13.7969C106.984 13.0052 106.938 12.3854 106.844 11.9375C106.75 11.4896 106.573 11.0781 106.312 10.7031C105.667 9.82812 104.807 9.39062 103.734 9.39062C103.651 9.39062 103.443 9.40104 103.109 9.42188C104.047 9.55729 104.688 9.93229 105.031 10.5469C105.385 11.151 105.562 12.2031 105.562 13.7031V19.7656C105.562 20.1927 105.542 20.4583 105.5 20.5625C105.469 20.6667 105.349 20.8073 105.141 20.9844C105.12 21.0052 105.104 21.0156 105.094 21.0156C105.094 21.0156 105.089 21.0208 105.078 21.0312L104.75 21.3125ZM117 21.7344L112.406 12.2656L112.25 11.9375C111.823 11.0521 111.453 10.4531 111.141 10.1406C110.839 9.82812 110.453 9.65625 109.984 9.625V9.20312H116.891V9.625C116.349 9.6875 115.964 9.79688 115.734 9.95312C115.505 10.1094 115.391 10.349 115.391 10.6719C115.391 10.9323 115.521 11.3385 115.781 11.8906L118.562 17.8906L121 11.9688C121.271 11.3021 121.406 10.8021 121.406 10.4688C121.406 10.1875 121.292 9.98438 121.062 9.85938C120.833 9.73438 120.443 9.65625 119.891 9.625V9.20312H123.766V9.625C123.245 9.73958 122.875 9.88542 122.656 10.0625C122.448 10.2396 122.219 10.6042 121.969 11.1562L121.688 11.7656C121.667 11.8281 121.646 11.875 121.625 11.9062C121.615 11.9271 121.599 11.9688 121.578 12.0312L116.766 23.75C116.547 24.2917 116.307 24.7604 116.047 25.1562C115.797 25.5625 115.526 25.8438 115.234 26C114.953 26.1667 114.635 26.25 114.281 26.25C113.656 26.25 113.12 25.9948 112.672 25.4844C112.224 24.9844 112 24.3594 112 23.6094C112 23.0885 112.13 22.6667 112.391 22.3438C112.661 22.0312 113.016 21.875 113.453 21.875C113.807 21.875 114.078 21.9688 114.266 22.1562C114.464 22.3438 114.578 22.6146 114.609 22.9688L114.656 23.5156C114.698 24.151 114.906 24.4688 115.281 24.4688C115.51 24.4688 115.724 24.3333 115.922 24.0625C116.12 23.8021 116.349 23.3438 116.609 22.6875L117 21.7344ZM115.344 25.5H115.203C114.651 25.5 114.245 25.349 113.984 25.0469C113.734 24.7448 113.609 24.2708 113.609 23.625L113.625 23.1875C113.625 22.8125 113.453 22.625 113.109 22.625C112.693 22.625 112.484 22.9531 112.484 23.6094C112.484 24.2344 112.661 24.7604 113.016 25.1875C113.38 25.6146 113.823 25.8281 114.344 25.8281C114.646 25.8281 114.979 25.7188 115.344 25.5ZM118.047 19.5469L114.391 11.9531C114.161 11.4635 114.047 11.0625 114.047 10.75C114.047 10.3021 114.255 9.94271 114.672 9.67188H111.203C111.495 9.85938 111.734 10.0781 111.922 10.3281C112.12 10.5781 112.339 10.9479 112.578 11.4375L117.344 21.2812L118.047 19.5469ZM153.016 0.671875L153.609 6.48438H153.109C152.568 4.69271 151.76 3.375 150.688 2.53125C149.625 1.67708 148.24 1.25 146.531 1.25H145.656C144.292 1.25 143.323 1.51562 142.75 2.04688C142.188 2.56771 141.906 3.44271 141.906 4.67188V9.98438H143.984C145.557 9.98438 146.703 9.73958 147.422 9.25C148.141 8.75 148.635 7.85417 148.906 6.5625H149.375V14.4688H148.906C148.698 13.4271 148.417 12.6354 148.062 12.0938C147.719 11.5417 147.229 11.1562 146.594 10.9375C145.969 10.7083 145.115 10.5938 144.031 10.5938H141.906V17.3594C141.906 18.3906 142 19.1823 142.188 19.7344C142.385 20.276 142.724 20.6562 143.203 20.875C143.693 21.0938 144.375 21.2031 145.25 21.2031H146.688C148.104 21.2031 149.448 20.7656 150.719 19.8906C152.125 18.9115 153.505 17.5469 154.859 15.7969L154.984 15.625H155.531L153.688 22H135.234V21.5156C136.359 21.3281 137.177 20.8958 137.688 20.2188C138.083 19.7188 138.281 18.724 138.281 17.2344V5.4375C138.281 4.48958 138.229 3.80208 138.125 3.375C138.021 2.94792 137.828 2.58333 137.547 2.28125C137.026 1.69792 136.255 1.32292 135.234 1.15625V0.671875H153.016ZM151.844 1.25H149.594C150.177 1.48958 150.646 1.75 151 2.03125C151.354 2.3125 151.75 2.74479 152.188 3.32812L151.844 1.25ZM148.25 9.3125C147.958 9.58333 147.729 9.77083 147.562 9.875C147.406 9.96875 147.073 10.1146 146.562 10.3125C147.146 10.4792 147.708 10.8177 148.25 11.3281V9.3125ZM152.578 21.2031L153.453 18.2969C153.078 18.7135 152.703 19.0938 152.328 19.4375C151.964 19.7708 151.547 20.0885 151.078 20.3906C150.62 20.6927 150.151 20.9635 149.672 21.2031H152.578ZM137.422 21.2031H141.984L141.375 20.75C141.021 20.4896 140.792 20.2812 140.688 20.125C140.594 19.9688 140.547 19.7344 140.547 19.4219C140.547 19.2552 140.542 19.1458 140.531 19.0938C140.531 19.0312 140.531 18.9688 140.531 18.9062V18.6406V4.03125V3.76562C140.531 3.70312 140.531 3.64062 140.531 3.57812C140.542 3.51562 140.547 3.40625 140.547 3.25C140.547 2.9375 140.599 2.69792 140.703 2.53125C140.818 2.35417 141.042 2.15104 141.375 1.92188L142.266 1.26562H137.141L138.031 1.92188C138.385 2.18229 138.609 2.39062 138.703 2.54688C138.807 2.70312 138.859 2.9375 138.859 3.25C138.87 3.42708 138.875 3.59896 138.875 3.76562V4.03125V18.6406V18.9062C138.875 19.0729 138.87 19.2448 138.859 19.4219C138.859 19.7448 138.812 19.9844 138.719 20.1406C138.625 20.2865 138.396 20.4896 138.031 20.75L137.422 21.2031ZM161.344 12.1094C161.99 11.349 162.609 10.724 163.203 10.2344C163.797 9.73438 164.37 9.38021 164.922 9.17188C165.474 8.96354 166.073 8.85938 166.719 8.85938C167.51 8.85938 168.245 9.04688 168.922 9.42188C169.609 9.79688 170.135 10.3021 170.5 10.9375C170.917 11.6458 171.125 12.6042 171.125 13.8125V19C171.125 19.8646 171.25 20.4792 171.5 20.8438C171.76 21.2083 172.245 21.4531 172.953 21.5781V22H166.094V21.5781C166.802 21.4531 167.281 21.2083 167.531 20.8438C167.792 20.4792 167.922 19.8646 167.922 19V13.7188C167.922 12.5833 167.849 11.7969 167.703 11.3594C167.547 10.8802 167.297 10.5104 166.953 10.25C166.609 9.97917 166.198 9.84375 165.719 9.84375C165.052 9.84375 164.401 10.0677 163.766 10.5156C163.141 10.9635 162.333 11.7708 161.344 12.9375V19C161.344 19.8646 161.469 20.4792 161.719 20.8438C161.979 21.2083 162.464 21.4531 163.172 21.5781V22H156.312V21.5781C157.021 21.4531 157.505 21.2135 157.766 20.8594C158.026 20.4948 158.156 19.875 158.156 19V12.4375C158.156 11.5625 158.021 10.9427 157.75 10.5781C157.49 10.2031 157.01 9.96354 156.312 9.85938V9.51562L161.344 8.9375V12.1094ZM167.656 21.3125H170.766L170.406 21.0312C170.406 21.0312 170.396 21.026 170.375 21.0156C170.365 20.9948 170.354 20.9844 170.344 20.9844L170.141 20.8281C169.984 20.6719 169.906 20.474 169.906 20.2344V19.9219L169.891 19.7656V13.7969C169.891 13.0052 169.839 12.3802 169.734 11.9219C169.63 11.4635 169.453 11.0625 169.203 10.7188C168.557 9.84375 167.719 9.40625 166.688 9.40625C166.583 9.40625 166.344 9.42708 165.969 9.46875C166.615 9.5625 167.115 9.75521 167.469 10.0469C167.823 10.3281 168.073 10.7552 168.219 11.3281C168.375 11.901 168.453 12.6927 168.453 13.7031V19.7656C168.453 20.1927 168.432 20.4583 168.391 20.5625C168.359 20.6667 168.24 20.8073 168.031 20.9844C168.01 21.0052 167.995 21.0156 167.984 21.0156C167.984 21.0156 167.979 21.0208 167.969 21.0312L167.656 21.3125ZM157.875 21.3125H161L160.625 21.0312C160.604 21.0104 160.583 20.9948 160.562 20.9844L160.359 20.8281C160.214 20.6823 160.135 20.4844 160.125 20.2344V19.9219V16.7188V15.0938V9.59375L157.562 9.875L158.172 10.3125C158.182 10.3125 158.203 10.3281 158.234 10.3594L158.438 10.5156C158.542 10.5885 158.609 10.6979 158.641 10.8438C158.672 10.9792 158.688 11.224 158.688 11.5781V19.7656C158.688 20.1927 158.667 20.4583 158.625 20.5625C158.583 20.6667 158.458 20.8073 158.25 20.9844C158.25 20.9844 158.24 20.9896 158.219 21C158.208 21.0104 158.203 21.0208 158.203 21.0312L157.875 21.3125ZM177.984 18.0156C177.589 18.4115 177.323 18.7135 177.188 18.9219C177.062 19.1198 177 19.349 177 19.6094C177 20.0885 177.333 20.375 178 20.4688C178.333 20.5104 178.823 20.5312 179.469 20.5312H182.438C184.031 20.5312 185.167 20.6927 185.844 21.0156C186.312 21.2448 186.719 21.5521 187.062 21.9375C187.406 22.3125 187.667 22.7448 187.844 23.2344C188.031 23.724 188.125 24.25 188.125 24.8125C188.125 25.9479 187.807 26.9583 187.172 27.8438C186.536 28.7396 185.635 29.4323 184.469 29.9219C183.312 30.4115 182.005 30.6562 180.547 30.6562C178.578 30.6562 176.99 30.2708 175.781 29.5C174.573 28.7292 173.969 27.7188 173.969 26.4688C173.969 25.8125 174.135 25.2188 174.469 24.6875C174.802 24.1667 175.359 23.6146 176.141 23.0312C175.776 22.6875 175.521 22.375 175.375 22.0938C175.24 21.8229 175.172 21.5104 175.172 21.1562C175.172 20.8125 175.224 20.5 175.328 20.2188C175.443 19.9375 175.651 19.625 175.953 19.2812C176.266 18.9375 176.714 18.5052 177.297 17.9844L177.547 17.7656C176.661 17.2552 176.01 16.6771 175.594 16.0312C175.188 15.3854 174.984 14.6354 174.984 13.7812C174.984 12.875 175.219 12.0573 175.688 11.3281C176.156 10.599 176.812 10.0208 177.656 9.59375C178.51 9.16667 179.51 8.92188 180.656 8.85938C180.896 7.80729 181.24 7.05208 181.688 6.59375C182.146 6.13542 182.76 5.90625 183.531 5.90625C183.99 5.90625 184.427 6 184.844 6.1875C185.271 6.36458 185.609 6.60417 185.859 6.90625C186.109 7.20833 186.234 7.53125 186.234 7.875C186.234 8.20833 186.125 8.48958 185.906 8.71875C185.698 8.9375 185.438 9.04688 185.125 9.04688C184.885 9.04688 184.651 8.97396 184.422 8.82812C184.193 8.68229 184.016 8.5 183.891 8.28125L183.656 7.82812C183.396 7.32812 183.047 7.07812 182.609 7.07812C181.88 7.07812 181.406 7.67188 181.188 8.85938C182.01 8.89062 182.76 9.03646 183.438 9.29688C184.125 9.55729 184.719 9.90104 185.219 10.3281C185.729 10.7448 186.12 11.2448 186.391 11.8281C186.661 12.401 186.797 13.0208 186.797 13.6875C186.797 14.5729 186.531 15.4115 186 16.2031C185.479 16.9948 184.781 17.6198 183.906 18.0781C183.031 18.5365 182.078 18.7656 181.047 18.7656C180.109 18.7656 179.089 18.5156 177.984 18.0156ZM183.656 13.625C183.656 12.2812 183.417 11.2292 182.938 10.4688C182.458 9.70833 181.807 9.32812 180.984 9.32812C180.12 9.32812 179.427 9.73438 178.906 10.5469C178.396 11.3594 178.141 12.4427 178.141 13.7969C178.141 15.1094 178.391 16.1615 178.891 16.9531C179.401 17.7448 180.073 18.1406 180.906 18.1406C181.76 18.1406 182.432 17.7344 182.922 16.9219C183.411 16.1094 183.656 15.0104 183.656 13.625ZM176.781 23.4531C175.865 24.2552 175.406 25.151 175.406 26.1406C175.406 26.8698 175.63 27.526 176.078 28.1094C176.536 28.7031 177.172 29.1615 177.984 29.4844C178.807 29.8177 179.734 29.9844 180.766 29.9844C181.568 29.9844 182.323 29.875 183.031 29.6562C183.75 29.4375 184.37 29.1354 184.891 28.75C185.422 28.375 185.828 27.9375 186.109 27.4375C186.401 26.9479 186.547 26.4167 186.547 25.8438C186.547 25.1875 186.333 24.6667 185.906 24.2812C185.49 23.9062 184.917 23.7135 184.188 23.7031L182.984 23.6562H182.594H179.547C179.036 23.6562 178.562 23.6406 178.125 23.6094C177.646 23.599 177.198 23.5469 176.781 23.4531ZM186.641 27.2656C187.13 26.5677 187.375 25.875 187.375 25.1875C187.375 24.2917 187.12 23.5417 186.609 22.9375C186.224 22.4792 185.771 22.1615 185.25 21.9844C184.74 21.7969 184.036 21.7031 183.141 21.7031L180.984 21.6875L179.203 21.6719C178.432 21.6719 177.828 21.6302 177.391 21.5469C176.953 21.4531 176.651 21.3021 176.484 21.0938C176.318 20.8854 176.234 20.5833 176.234 20.1875C176.234 20.0104 176.297 19.7604 176.422 19.4375C176.109 19.7812 175.901 20.0625 175.797 20.2812C175.703 20.5 175.656 20.7656 175.656 21.0781C175.656 21.4844 175.75 21.8385 175.938 22.1406C176.135 22.4427 176.422 22.6771 176.797 22.8438C177.026 22.9375 177.344 23 177.75 23.0312C178.156 23.0625 178.823 23.0781 179.75 23.0781L181.828 23.0938C183.161 23.0938 184.089 23.125 184.609 23.1875C185.141 23.25 185.557 23.3854 185.859 23.5938C186.62 24.0833 187 24.7865 187 25.7031C187 26.1198 186.88 26.6406 186.641 27.2656ZM182.688 17.875C183.604 17.4583 184.297 16.9115 184.766 16.2344C185.234 15.5469 185.469 14.7448 185.469 13.8281C185.469 12.849 185.214 11.9844 184.703 11.2344C184.203 10.474 183.536 9.93229 182.703 9.60938C183.224 10.0781 183.594 10.625 183.812 11.25C184.031 11.875 184.141 12.651 184.141 13.5781C184.141 14.5781 184.026 15.4062 183.797 16.0625C183.578 16.7188 183.208 17.3229 182.688 17.875ZM178.469 17.7812C177.354 16.7812 176.797 15.4583 176.797 13.8125C176.797 12.0417 177.526 10.6094 178.984 9.51562C177.911 9.82812 177.062 10.3698 176.438 11.1406C175.812 11.9115 175.5 12.7969 175.5 13.7969C175.5 14.6406 175.755 15.4062 176.266 16.0938C176.776 16.7708 177.51 17.3333 178.469 17.7812ZM182.781 6.60938C183.135 6.73438 183.406 6.88021 183.594 7.04688C183.781 7.21354 183.958 7.45833 184.125 7.78125C184.302 8.0625 184.438 8.25521 184.531 8.35938C184.635 8.45312 184.76 8.5 184.906 8.5C185.198 8.5 185.344 8.34896 185.344 8.04688C185.344 7.80729 185.24 7.57292 185.031 7.34375C184.833 7.11458 184.573 6.92708 184.25 6.78125C183.927 6.63542 183.594 6.5625 183.25 6.5625C183.146 6.5625 182.99 6.57812 182.781 6.60938ZM194.094 11.9844C194.698 10.8177 195.24 10.0052 195.719 9.54688C196.208 9.07812 196.771 8.84375 197.406 8.84375C198.198 8.84375 198.859 9.15625 199.391 9.78125C199.922 10.4062 200.188 11.1823 200.188 12.1094C200.188 12.7031 200.062 13.1615 199.812 13.4844C199.573 13.8073 199.229 13.9688 198.781 13.9688C198.396 13.9688 198.083 13.8385 197.844 13.5781C197.604 13.3177 197.484 12.9844 197.484 12.5781C197.484 12.3906 197.51 12.1823 197.562 11.9531L197.703 11.3594C197.786 10.9948 197.828 10.6719 197.828 10.3906C197.828 10.1094 197.75 9.89062 197.594 9.73438C197.448 9.56771 197.25 9.48438 197 9.48438C196.708 9.48438 196.422 9.59896 196.141 9.82812C195.859 10.0469 195.557 10.4062 195.234 10.9062C194.922 11.3958 194.542 12.0833 194.094 12.9688V19C194.094 19.8646 194.245 20.4792 194.547 20.8438C194.859 21.2083 195.427 21.4531 196.25 21.5781V22H189.062V21.5781C189.771 21.4531 190.255 21.2135 190.516 20.8594C190.776 20.4948 190.906 19.875 190.906 19V12.4375C190.906 11.5625 190.771 10.9427 190.5 10.5781C190.24 10.2031 189.76 9.96354 189.062 9.85938V9.51562L194.094 8.9375V11.9844ZM190.625 21.3125H193.75L193.375 21.0312C193.354 21.0104 193.333 20.9948 193.312 20.9844L193.109 20.8281C192.964 20.6823 192.885 20.4844 192.875 20.2344V19.9219V19.7656V9.59375L190.312 9.875L190.922 10.3125C190.932 10.3125 190.953 10.3281 190.984 10.3594L191.188 10.5156C191.292 10.5885 191.359 10.6979 191.391 10.8438C191.422 10.9792 191.438 11.224 191.438 11.5781V19.7656C191.438 20.1927 191.417 20.4583 191.375 20.5625C191.333 20.6667 191.208 20.8073 191 20.9844C191 20.9844 190.99 20.9896 190.969 21C190.958 21.0104 190.953 21.0208 190.953 21.0312L190.625 21.3125ZM197.906 9.53125C198.146 9.85417 198.266 10.2031 198.266 10.5781C198.266 10.901 198.208 11.2969 198.094 11.7656C197.99 12.2135 197.938 12.5104 197.938 12.6562C197.938 13.0938 198.115 13.3125 198.469 13.3125C198.917 13.3125 199.141 12.8906 199.141 12.0469C199.141 10.974 198.729 10.1354 197.906 9.53125ZM208.781 20.5469C207.5 21.6302 206.125 22.1719 204.656 22.1719C203.479 22.1719 202.536 21.8698 201.828 21.2656C201.13 20.651 200.781 19.849 200.781 18.8594C200.781 17.4531 201.469 16.349 202.844 15.5469C204.219 14.7448 206.198 14.2917 208.781 14.1875V13.75V13.5312C208.781 12.7188 208.745 12.0573 208.672 11.5469C208.599 11.026 208.495 10.6354 208.359 10.375C208.203 10.0729 207.979 9.83333 207.688 9.65625C207.406 9.46875 207.099 9.375 206.766 9.375C206.276 9.375 205.891 9.53646 205.609 9.85938C205.328 10.1719 205.151 10.6615 205.078 11.3281C204.995 11.9844 204.859 12.4323 204.672 12.6719C204.484 12.901 204.161 13.0156 203.703 13.0156C203.349 13.0156 203.052 12.8906 202.812 12.6406C202.573 12.3906 202.453 12.0677 202.453 11.6719C202.453 11.1406 202.646 10.6615 203.031 10.2344C203.417 9.79688 203.948 9.45312 204.625 9.20312C205.312 8.95312 206.062 8.82812 206.875 8.82812C207.927 8.82812 208.849 9.04167 209.641 9.46875C210.432 9.88542 211.021 10.4688 211.406 11.2188C211.615 11.6042 211.76 12.0365 211.844 12.5156C211.938 12.9948 211.984 13.6562 211.984 14.5V19C211.984 19.8646 212.109 20.4792 212.359 20.8438C212.62 21.2083 213.104 21.4531 213.812 21.5781V22H208.781V20.5469ZM208.781 19.8594V14.6875C207.771 14.8438 206.901 15.1042 206.172 15.4688C205.453 15.8333 204.901 16.2969 204.516 16.8594C204.13 17.4219 203.938 18.0417 203.938 18.7188C203.938 19.4062 204.141 19.9792 204.547 20.4375C204.964 20.8854 205.484 21.1094 206.109 21.1094C206.88 21.1094 207.771 20.6927 208.781 19.8594ZM209.312 21.3125H211.625L211.266 21.0312C211.266 21.0312 211.255 21.026 211.234 21.0156C211.224 20.9948 211.214 20.9844 211.203 20.9844L211 20.8281C210.844 20.6719 210.766 20.474 210.766 20.2344V19.9219L210.75 19.7656V14.4531C210.75 13.0052 210.583 11.9219 210.25 11.2031C209.781 10.2448 209.047 9.63021 208.047 9.35938C208.714 9.82812 209.104 10.5729 209.219 11.5938C209.281 12.2188 209.312 13.1875 209.312 14.5V21.3125ZM205.344 21.7344C203.573 21.3698 202.688 20.401 202.688 18.8281C202.688 17.8073 203.099 16.9323 203.922 16.2031C204.286 15.8802 204.99 15.4688 206.031 14.9688C204.771 15.2083 203.792 15.5365 203.094 15.9531C201.906 16.6823 201.312 17.6458 201.312 18.8438C201.312 19.7083 201.625 20.4115 202.25 20.9531C202.885 21.4844 203.703 21.75 204.703 21.75C204.943 21.75 205.156 21.7448 205.344 21.7344ZM205.344 9.39062C204.615 9.57812 204.026 9.88542 203.578 10.3125C203.141 10.7292 202.922 11.1979 202.922 11.7188C202.922 11.9167 202.969 12.0729 203.062 12.1875C203.156 12.3021 203.281 12.3594 203.438 12.3594C203.583 12.3594 203.693 12.3177 203.766 12.2344C203.839 12.1406 203.901 11.9583 203.953 11.6875C204.068 11.1042 204.214 10.6667 204.391 10.375C204.578 10.0729 204.896 9.74479 205.344 9.39062ZM221.375 22.25H221.016L215.797 12.1562L215.562 11.75C215.24 11.1667 214.99 10.7552 214.812 10.5156C214.646 10.2656 214.469 10.0729 214.281 9.9375C214.083 9.80208 213.792 9.67188 213.406 9.54688V9.20312H220.75V9.625C220.062 9.66667 219.589 9.77083 219.328 9.9375C219.078 10.1042 218.953 10.3698 218.953 10.7344C218.953 11.0781 219.115 11.5729 219.438 12.2188L222.531 18.4375L225.719 11.5C225.917 11.0521 226.016 10.724 226.016 10.5156C226.016 9.98438 225.594 9.69792 224.75 9.65625L224.391 9.625V9.20312H228.344V9.625C227.906 9.65625 227.542 9.80208 227.25 10.0625C226.958 10.3125 226.672 10.7344 226.391 11.3281L226.203 11.75L221.375 22.25ZM221.969 19.8438L218.109 12.375C217.766 11.6875 217.594 11.151 217.594 10.7656C217.594 10.276 217.818 9.91667 218.266 9.6875H214.656C215.115 10.0417 215.589 10.6719 216.078 11.5781L216.453 12.3125L216.625 12.625L221.219 21.4219L221.969 19.8438ZM232.484 14.7188V15.0625C232.484 16.3021 232.667 17.3906 233.031 18.3281C233.396 19.2552 233.911 19.974 234.578 20.4844C235.255 20.9948 236.047 21.25 236.953 21.25C237.432 21.25 237.911 21.1719 238.391 21.0156C238.88 20.849 239.359 20.6146 239.828 20.3125C240.307 20.0104 240.844 19.5833 241.438 19.0312L241.75 19.4531C240.677 20.4948 239.656 21.2396 238.688 21.6875C237.729 22.1354 236.656 22.3594 235.469 22.3594C234.229 22.3594 233.115 22.0885 232.125 21.5469C231.146 21.0052 230.385 20.2396 229.844 19.25C229.302 18.2604 229.031 17.1458 229.031 15.9062C229.031 14.6042 229.328 13.4115 229.922 12.3281C230.526 11.2448 231.344 10.3958 232.375 9.78125C233.417 9.16667 234.578 8.85938 235.859 8.85938C236.953 8.85938 237.953 9.08333 238.859 9.53125C239.776 9.97917 240.49 10.6094 241 11.4219C241.542 12.2552 241.844 13.3542 241.906 14.7188H232.484ZM232.484 14.1719H238.719C238.708 12.7656 238.568 11.7552 238.297 11.1406C238.057 10.5781 237.714 10.1458 237.266 9.84375C236.818 9.53125 236.318 9.375 235.766 9.375C233.766 9.375 232.672 10.974 232.484 14.1719ZM236.141 21.8906C235.401 21.7969 234.807 21.6562 234.359 21.4688C233.911 21.2812 233.474 20.9896 233.047 20.5938C232.411 20.0104 231.917 19.2448 231.562 18.2969C231.208 17.3385 231.031 16.2969 231.031 15.1719C231.031 14.3906 231.104 13.6719 231.25 13.0156C231.406 12.3594 231.641 11.7708 231.953 11.25C232.276 10.7292 232.708 10.2344 233.25 9.76562C232.062 10.4115 231.151 11.2656 230.516 12.3281C229.88 13.3906 229.562 14.5781 229.562 15.8906C229.562 17.0156 229.818 18.0417 230.328 18.9688C230.839 19.8854 231.547 20.6042 232.453 21.125C233.37 21.6458 234.38 21.9062 235.484 21.9062C235.734 21.9062 235.953 21.901 236.141 21.8906ZM240.609 14.1719C240.578 13.401 240.438 12.7031 240.188 12.0781C239.938 11.4531 239.589 10.9271 239.141 10.5C238.703 10.0625 238.182 9.75 237.578 9.5625C238.182 10.0417 238.615 10.6094 238.875 11.2656C239.146 11.9219 239.281 12.7448 239.281 13.7344C239.281 13.901 239.276 14.0469 239.266 14.1719H240.609ZM254.172 20.4062L254.109 20.4531C252.703 21.6927 251.208 22.3125 249.625 22.3125C248.49 22.3125 247.453 22.0469 246.516 21.5156C245.578 20.974 244.839 20.2292 244.297 19.2812C243.766 18.3229 243.5 17.276 243.5 16.1406C243.5 14.8802 243.807 13.6927 244.422 12.5781C245.047 11.4635 245.885 10.5729 246.938 9.90625C247.99 9.23958 249.109 8.90625 250.297 8.90625C251.661 8.90625 252.953 9.39583 254.172 10.375V3.90625C254.172 3.04167 254.042 2.42188 253.781 2.04688C253.521 1.67188 253.042 1.43229 252.344 1.32812V0.984375L257.359 0.40625V19C257.359 19.8646 257.49 20.4792 257.75 20.8438C258.021 21.2083 258.505 21.4531 259.203 21.5781V22H254.172V20.4062ZM254.172 11.2656L254.047 11.1562C253.37 10.5729 252.755 10.1458 252.203 9.875C251.661 9.60417 251.13 9.46875 250.609 9.46875C249.87 9.46875 249.214 9.71354 248.641 10.2031C248.068 10.6823 247.625 11.3698 247.312 12.2656C247 13.151 246.844 14.1979 246.844 15.4062C246.844 16.5625 246.995 17.599 247.297 18.5156C247.599 19.4323 248.026 20.151 248.578 20.6719C249.141 21.1823 249.786 21.4375 250.516 21.4375C251.651 21.4375 252.87 20.724 254.172 19.2969V11.2656ZM248.797 21.8438C248.161 21.4688 247.693 21.151 247.391 20.8906C247.089 20.6302 246.792 20.2708 246.5 19.8125C245.792 18.6771 245.438 17.3438 245.438 15.8125C245.438 14.5417 245.63 13.4583 246.016 12.5625C246.401 11.6667 247.068 10.7448 248.016 9.79688C246.703 10.5573 245.708 11.4792 245.031 12.5625C244.365 13.6354 244.031 14.8333 244.031 16.1562C244.031 17.5833 244.448 18.8021 245.281 19.8125C246.125 20.8229 247.297 21.5 248.797 21.8438ZM254.703 21.3125H257.016L256.656 21.0312C256.635 21.0208 256.615 21.0052 256.594 20.9844L256.391 20.8281C256.234 20.6719 256.156 20.474 256.156 20.2344L256.141 19.9219V19.7656V1.0625L253.578 1.34375L254.188 1.78125C254.198 1.78125 254.219 1.79688 254.25 1.82812L254.453 1.98438C254.557 2.05729 254.625 2.15625 254.656 2.28125C254.688 2.39583 254.703 2.65104 254.703 3.04688V21.3125ZM281.406 0.671875V1.15625C280.156 1.34375 279.255 1.77083 278.703 2.4375C278.453 2.73958 278.276 3.11458 278.172 3.5625C278.078 4.01042 278.031 4.63542 278.031 5.4375V17.3594C278.031 18.1406 278.073 18.7552 278.156 19.2031C278.25 19.651 278.411 20.0208 278.641 20.3125C279.109 20.9062 280 21.2031 281.312 21.2031H281.641C282.339 21.2031 283.021 21.099 283.688 20.8906C284.354 20.6719 285.031 20.3281 285.719 19.8594C286.417 19.3802 287.12 18.7812 287.828 18.0625C288.547 17.3438 289.281 16.4948 290.031 15.5156H290.516L288.641 22H271.359V21.5156C272.484 21.3281 273.302 20.8958 273.812 20.2188C274.208 19.7188 274.406 18.724 274.406 17.2344V5.4375C274.406 4.48958 274.354 3.80208 274.25 3.375C274.146 2.94792 273.953 2.58333 273.672 2.28125C273.151 1.69792 272.38 1.32292 271.359 1.15625V0.671875H281.406ZM287.531 21.2031L288.375 18.2969C287.354 19.5156 286.141 20.4844 284.734 21.2031H287.531ZM273.547 21.2031H278.109L277.5 20.75C277.146 20.4896 276.917 20.2812 276.812 20.125C276.719 19.9688 276.672 19.7344 276.672 19.4219C276.672 19.2552 276.667 19.1458 276.656 19.0938C276.656 19.0312 276.656 18.9688 276.656 18.9062V18.6406V4.03125V3.76562C276.656 3.70312 276.656 3.64062 276.656 3.57812C276.667 3.51562 276.672 3.40625 276.672 3.25C276.672 2.9375 276.724 2.69792 276.828 2.53125C276.943 2.35417 277.167 2.15104 277.5 1.92188L278.391 1.26562H273.281L274.156 1.92188C274.521 2.18229 274.75 2.38542 274.844 2.53125C274.938 2.67708 274.984 2.91667 274.984 3.25C274.995 3.42708 275 3.59896 275 3.76562V4.03125V18.6406V18.9062C275 19.0729 274.995 19.2448 274.984 19.4219C274.984 19.7448 274.938 19.9844 274.844 20.1406C274.75 20.2865 274.521 20.4896 274.156 20.75L273.547 21.2031ZM308.609 0.671875L309.203 6.48438H308.703C308.161 4.69271 307.354 3.375 306.281 2.53125C305.219 1.67708 303.833 1.25 302.125 1.25H301.25C299.885 1.25 298.917 1.51562 298.344 2.04688C297.781 2.56771 297.5 3.44271 297.5 4.67188V9.98438H299.578C301.151 9.98438 302.297 9.73958 303.016 9.25C303.734 8.75 304.229 7.85417 304.5 6.5625H304.969V14.4688H304.5C304.292 13.4271 304.01 12.6354 303.656 12.0938C303.312 11.5417 302.823 11.1562 302.188 10.9375C301.562 10.7083 300.708 10.5938 299.625 10.5938H297.5V17.3594C297.5 18.3906 297.594 19.1823 297.781 19.7344C297.979 20.276 298.318 20.6562 298.797 20.875C299.286 21.0938 299.969 21.2031 300.844 21.2031H302.281C303.698 21.2031 305.042 20.7656 306.312 19.8906C307.719 18.9115 309.099 17.5469 310.453 15.7969L310.578 15.625H311.125L309.281 22H290.828V21.5156C291.953 21.3281 292.771 20.8958 293.281 20.2188C293.677 19.7188 293.875 18.724 293.875 17.2344V5.4375C293.875 4.48958 293.823 3.80208 293.719 3.375C293.615 2.94792 293.422 2.58333 293.141 2.28125C292.62 1.69792 291.849 1.32292 290.828 1.15625V0.671875H308.609ZM307.438 1.25H305.188C305.771 1.48958 306.24 1.75 306.594 2.03125C306.948 2.3125 307.344 2.74479 307.781 3.32812L307.438 1.25ZM303.844 9.3125C303.552 9.58333 303.323 9.77083 303.156 9.875C303 9.96875 302.667 10.1146 302.156 10.3125C302.74 10.4792 303.302 10.8177 303.844 11.3281V9.3125ZM308.172 21.2031L309.047 18.2969C308.672 18.7135 308.297 19.0938 307.922 19.4375C307.557 19.7708 307.141 20.0885 306.672 20.3906C306.214 20.6927 305.745 20.9635 305.266 21.2031H308.172ZM293.016 21.2031H297.578L296.969 20.75C296.615 20.4896 296.385 20.2812 296.281 20.125C296.188 19.9688 296.141 19.7344 296.141 19.4219C296.141 19.2552 296.135 19.1458 296.125 19.0938C296.125 19.0312 296.125 18.9688 296.125 18.9062V18.6406V4.03125V3.76562C296.125 3.70312 296.125 3.64062 296.125 3.57812C296.135 3.51562 296.141 3.40625 296.141 3.25C296.141 2.9375 296.193 2.69792 296.297 2.53125C296.411 2.35417 296.635 2.15104 296.969 1.92188L297.859 1.26562H292.734L293.625 1.92188C293.979 2.18229 294.203 2.39062 294.297 2.54688C294.401 2.70312 294.453 2.9375 294.453 3.25C294.464 3.42708 294.469 3.59896 294.469 3.76562V4.03125V18.6406V18.9062C294.469 19.0729 294.464 19.2448 294.453 19.4219C294.453 19.7448 294.406 19.9844 294.312 20.1406C294.219 20.2865 293.99 20.4896 293.625 20.75L293.016 21.2031ZM332.188 0.671875L332.672 6.48438H332.172C331.859 5.41146 331.432 4.48438 330.891 3.70312C330.359 2.92188 329.734 2.32292 329.016 1.90625C328.307 1.47917 327.562 1.26562 326.781 1.26562C326.167 1.26562 325.63 1.39583 325.172 1.65625C324.724 1.90625 324.391 2.25521 324.172 2.70312C323.964 3.13021 323.859 3.81771 323.859 4.76562V17.2344C323.859 18.1615 323.922 18.8438 324.047 19.2812C324.172 19.7083 324.411 20.0833 324.766 20.4062C325.401 20.9792 326.328 21.349 327.547 21.5156V22H316.531V21.5156C317.885 21.3281 318.875 20.901 319.5 20.2344C319.781 19.9323 319.974 19.5625 320.078 19.125C320.182 18.6875 320.234 18.0573 320.234 17.2344V4.76562C320.234 3.73438 320.094 2.98438 319.812 2.51562C319.594 2.13021 319.266 1.82812 318.828 1.60938C318.391 1.38021 317.885 1.26562 317.312 1.26562C316.135 1.26562 315.057 1.73438 314.078 2.67188C313.109 3.59896 312.385 4.86979 311.906 6.48438H311.422L311.906 0.671875H332.188ZM331 1.25H328.734C329.286 1.47917 329.75 1.74479 330.125 2.04688C330.5 2.33854 330.891 2.76562 331.297 3.32812L331 1.25ZM319.359 21.2031H323.938L323.328 20.75C322.953 20.4688 322.719 20.2552 322.625 20.1094C322.531 19.9635 322.484 19.7344 322.484 19.4219V18.9062C322.484 18.8229 322.479 18.7656 322.469 18.7344C322.469 18.7031 322.469 18.6719 322.469 18.6406V4.03125C322.469 4 322.469 3.96875 322.469 3.9375C322.479 3.90625 322.484 3.84896 322.484 3.76562V3.25C322.484 2.9375 322.542 2.69792 322.656 2.53125C322.771 2.35417 322.995 2.15104 323.328 1.92188L324.219 1.26562H319.406L320.141 1.92188C320.401 2.15104 320.578 2.36458 320.672 2.5625C320.766 2.75 320.812 2.97917 320.812 3.25V3.76562C320.823 3.85938 320.828 3.94792 320.828 4.03125V18.6406C320.828 18.724 320.823 18.8125 320.812 18.9062V19.4219C320.812 19.7344 320.76 19.9688 320.656 20.125C320.562 20.2812 320.339 20.4896 319.984 20.75L319.359 21.2031ZM312.422 1.25L312.203 3.54688C312.651 2.89062 313.031 2.41146 313.344 2.10938C313.656 1.80729 314.062 1.52083 314.562 1.25H312.422Z" fill="#F9B64C"/>
</svg>
