<svg fill="none" height="31" viewBox="0 0 333 31" width="333" xmlns="http://www.w3.org/2000/svg"><path d="m14.5625 14.1094h-8.04688l-.875 2c-.41666.9791-.625 1.7864-.625 2.4218 0 .5417.1198 1.0105.35938 1.4063.25.3854.61458.7083 1.09375.9687.48958.25 1.13021.4532 1.92187.6094v.4844h-8.10937v-.4688c.97917-.3333 1.81771-.9166 2.51563-1.75.70833-.8333 1.45312-2.1302 2.23437-3.8906l6.90625-15.624975h.4063l7.5156 16.890575c.0208.0105.0364.0417.0468.0938.0209.0417.0417.0885.0626.1406.0312.0521.0624.1094.0937.1719l.6875 1.4219c.375.7604.8021 1.3333 1.2812 1.7187.4792.3854 1.0782.6563 1.7969.8125v.4844h-9.9687v-.4844c.8437-.0625 1.4479-.1614 1.8125-.2968.75-.2813 1.125-.7709 1.125-1.4688 0-.3438-.1667-.9062-.5-1.6875zm-.2969-.6563-3.7656-8.48435-3.70312 8.48435zm-3.4375-9.15622 6.0157 13.54692.1562.3437c.3229.6979.4844 1.2083.4844 1.5313 0 .4479-.2552.9427-.7656 1.4843h4.125c-.4688-.4375-.875-.9375-1.2188-1.5-.3438-.5729-.7448-1.3646-1.2031-2.375l-6.7031-15.0781zm-5.46872 16.90622c-.35417-.4271-.60417-.8073-.75-1.1406-.14584-.3437-.21876-.7135-.21876-1.1094 0-.1771.00521-.3177.01563-.4219-.32292.625-.64063 1.1303-.95313 1.5157-.3125.375-.73437.7604-1.26562 1.1562zm31.25002-2.3593.3594.4374c-.6876.7709-1.323 1.3803-1.9063 1.8282-.5729.4375-1.1563.75-1.75.9375s-1.276.2812-2.0469.2812c-1.2187 0-2.3073-.2604-3.2656-.7812-.9583-.5313-1.7083-1.2761-2.25-2.2344-.5417-.9687-.8125-2.0469-.8125-3.2344 0-.9687.1823-1.901.5469-2.7969.3646-.8958.8646-1.6718 1.5-2.3281.6354-.6562 1.3906-1.16664 2.2656-1.53122.8854-.375 1.8073-.5625 2.7656-.5625.8854 0 1.7136.16666 2.4844.5.7708.32291 1.3802.76042 1.8281 1.31252.4584.5521.6875 1.1562.6875 1.8125 0 .4271-.1302.7916-.3906 1.0937-.25.2917-.5677.4375-.9531.4375-.5625 0-.9844-.2708-1.2657-.8125-.125-.2396-.2239-.7135-.2968-1.4219-.0834-.6979-.2188-1.1979-.4063-1.5-.1666-.2812-.4062-.49995-.7187-.6562-.3125-.16667-.6667-.25-1.0625-.25-.7188 0-1.3542.25-1.9063.75s-.9791 1.1979-1.2812 2.0938c-.2917.8958-.4375 1.9374-.4375 3.125 0 1.177.1719 2.2291.5156 3.1562.3437.9167.8229 1.625 1.4375 2.125.625.4896 1.349.7344 2.1719.7344.4687 0 .9219-.0834 1.3593-.25.4376-.1771.8907-.4532 1.3594-.8282.4792-.3854.9688-.8645 1.4688-1.4374zm-5.4063 3.0624c-2.8437-.7395-4.2656-2.8541-4.2656-6.3437 0-1.3125.1875-2.4063.5625-3.2813.3854-.875 1.0573-1.7187 2.0156-2.5312-2.6771 1.375-4.0156 3.474-4.0156 6.2969 0 1.1041.2448 2.1041.7344 3 .4896.8854 1.1666 1.5833 2.0312 2.0937.875.5 1.8542.7552 2.9375.7656zm2.6563-12.1562c.3021.3958.4948.7292.5781 1 .0937.2604.1823.7135.2656 1.3594.0834.5521.1719.9114.2657 1.0781.1041.1667.2656.25.4843.25.3438 0 .5157-.25.5157-.75 0-1.0313-.7032-2.0104-2.1094-2.9375zm12.5781 10.7969c-1.2813 1.0833-2.6563 1.625-4.125 1.625-1.1771 0-2.1198-.3021-2.8281-.9063-.6979-.6146-1.0469-1.4166-1.0469-2.4062 0-1.4063.6875-2.5104 2.0625-3.3125s3.3542-1.2552 5.9375-1.3594v-.4375-.2188c0-.8124-.0365-1.4739-.1094-1.9843-.0729-.5209-.1771-.9115-.3125-1.1719-.1562-.3021-.3802-.54167-.6718-.71875-.2813-.1875-.5886-.28125-.9219-.28125-.4896 0-.875.16146-1.1563.48438-.2812.31252-.4583.80212-.5312 1.46872-.0834.6563-.2188 1.1042-.4063 1.3438-.1875.2291-.5104.3437-.9687.3437-.3542 0-.6511-.125-.8906-.375-.2396-.25-.3594-.5729-.3594-.9687 0-.5313.1927-1.0104.5781-1.4375.3854-.43752.9167-.78128 1.5937-1.03128.6876-.25 1.4376-.375 2.25-.375 1.0521 0 1.974.21355 2.7657.64063.7916.41667 1.3802 1.00005 1.7656 1.75005.2083.3854.3542.8177.4375 1.2968.0938.4792.1406 1.1406.1406 1.9844v4.5c0 .8646.125 1.4792.375 1.8438.2604.3645.7448.6093 1.4532.7343v.4219h-5.0313zm0-.6875v-5.1719c-1.0104.1563-1.8802.4167-2.6094.7813-.7187.3645-1.2708.8281-1.6562 1.3906s-.5781 1.1823-.5781 1.8594c0 .6874.2031 1.2604.6093 1.7187.4167.4479.9375.6719 1.5625.6719.7709 0 1.6615-.4167 2.6719-1.25zm.5313 1.4531h2.3124l-.3593-.2813s-.0104-.0052-.0313-.0156c-.0104-.0208-.0208-.0312-.0312-.0312l-.2032-.1563c-.1562-.1562-.2343-.3541-.2343-.5937v-.3125l-.0157-.1563v-5.3125c0-1.4479-.1666-2.5312-.5-3.25-.4687-.9583-1.2031-1.57289-2.2031-1.84372.6667.46874 1.0573 1.21352 1.1719 2.23442.0625.625.0938 1.5937.0938 2.9062zm-3.9688.4219c-1.7708-.3646-2.6562-1.3334-2.6562-2.9063 0-1.0208.4114-1.8958 1.2343-2.625.3646-.3229 1.0677-.7343 2.1094-1.2343-1.2604.2395-2.2396.5677-2.9375.9843-1.1875.7292-1.7812 1.6927-1.7812 2.8907 0 .8645.3124 1.5677.9374 2.1093.6355.5313 1.4532.7969 2.4532.7969.2396 0 .4531-.0052.6406-.0156zm0-12.34378c-.7292.1875-1.3177.4948-1.7656.92188-.4375.4167-.6563.8854-.6563 1.4063 0 .1979.0469.3541.1407.4687.0937.1146.2187.1719.375.1719.1458 0 .2552-.0417.3281-.125.0729-.0938.1354-.2761.1875-.5469.1146-.5833.2604-1.0208.4375-1.3125.1875-.3021.5052-.63021.9531-.98438zm20.5469 11.01558-.0625.0469c-1.4063 1.2396-2.9011 1.8594-4.4844 1.8594-1.1354 0-2.1719-.2656-3.1094-.7969-.9375-.5416-1.6771-1.2864-2.2187-2.2344-.5313-.9583-.7969-2.0052-.7969-3.1406 0-1.2604.3073-2.4479.9219-3.5625.625-1.1146 1.4635-2.0052 2.5156-2.67185 1.0521-.66667 2.1719-1 3.3594-1 1.3646 0 2.6562.48958 3.875 1.46875v-6.46875c0-.86458-.1302-1.48437-.3907-1.85937-.2604-.375-.7395-.61459-1.4374-.71876v-.343745l5.0156-.578125v18.59375c0 .8646.1302 1.4792.3906 1.8438.2708.3645.7552.6093 1.4531.7343v.4219h-5.0312zm0-9.1406-.125-.1094c-.6771-.5833-1.2917-1.0104-1.8438-1.2812-.5416-.27083-1.0729-.40625-1.5937-.40625-.7396 0-1.3959.24479-1.9688.73435-.5729.4792-1.0156 1.1667-1.3281 2.0625-.3125.8854-.4687 1.9323-.4687 3.1406 0 1.1563.151 2.1928.4531 3.1094.3021.9167.7291 1.6354 1.2812 2.1563.5625.5104 1.2084.7656 1.9375.7656 1.1354 0 2.3542-.7135 3.6563-2.1406zm-5.375 10.5782c-.6354-.375-1.1042-.6928-1.4063-.9532s-.5989-.6198-.8906-1.0781c-.7083-1.1354-1.0625-2.4687-1.0625-4 0-1.2708.1927-2.3542.5781-3.25s1.0521-1.8177 2-2.76562c-1.3125.76042-2.3073 1.68232-2.9844 2.76562-.6666 1.0729-1 2.2708-1 3.5937 0 1.4271.4167 2.6459 1.25 3.6563.8438 1.0104 2.0157 1.6875 3.5157 2.0313zm5.9062-.5313h2.3125l-.3594-.2813c-.0208-.0104-.0416-.026-.0624-.0468l-.2032-.1563c-.1562-.1562-.2344-.3541-.2344-.5937l-.0156-.3125v-.1563-18.7031l-2.5625.28125.6094.4375c.0104 0 .0313.01563.0625.04687l.2031.15626c.1042.07291.1719.17187.2031.29687.0313.11458.0469.36979.0469.76563zm9.4688-6.5937v.3437c0 1.2396.1823 2.3281.5469 3.2656.3645.9271.8802 1.6459 1.5468 2.1563.6771.5104 1.4688.7656 2.375.7656.4792 0 .9584-.0781 1.4375-.2344.4896-.1666.9688-.401 1.4375-.7031.4792-.3021 1.0156-.7292 1.6094-1.2813l.3125.4219c-1.0729 1.0417-2.0937 1.7865-3.0625 2.2344-.9583.4479-2.0312.6719-3.2188.6719-1.2395 0-2.3541-.2709-3.3437-.8125-.9792-.5417-1.7396-1.3073-2.2813-2.2969-.5416-.9896-.8124-2.1042-.8124-3.3438 0-1.302.2968-2.4947.8906-3.5781.6041-1.0833 1.4218-1.9323 2.4531-2.54685 1.0417-.61458 2.2031-.92187 3.4844-.92187 1.0937 0 2.0937.22395 3 .67187.9166.44792 1.6302 1.07815 2.1406 1.89065.5417.8333.8437 1.9323.9063 3.2969zm0-.5469h6.2343c-.0104-1.4063-.151-2.4167-.4218-3.0313-.2396-.5625-.5834-.9948-1.0313-1.29685-.4479-.3125-.9479-.46875-1.5-.46875-2 0-3.0937 1.599-3.2812 4.7969zm3.6562 7.7187c-.7396-.0937-1.3333-.2344-1.7812-.4218-.4479-.1876-.8854-.4792-1.3125-.875-.6354-.5834-1.1302-1.349-1.4844-2.2969-.3542-.9584-.5312-2-.5312-3.125 0-.7813.0729-1.5.2187-2.1563.1563-.6562.3906-1.2448.7031-1.7656.3229-.5208.7552-1.0156 1.2969-1.48438-1.1875.64588-2.099 1.49998-2.7344 2.56248s-.9531 2.25-.9531 3.5625c0 1.125.2552 2.1511.7656 3.0782.5104.9166 1.2188 1.6354 2.125 2.1562.9167.5208 1.9271.7812 3.0313.7812.25 0 .4687-.0052.6562-.0156zm4.4688-7.7187c-.0313-.7709-.1719-1.4688-.4219-2.0938s-.599-1.151-1.0469-1.5781c-.4375-.4375-.9583-.75-1.5625-.9375.6042.4792 1.0365 1.0469 1.2969 1.7031.2708.6563.4063 1.4792.4063 2.4688 0 .1666-.0053.3125-.0157.4375zm17.2031-1.5c.0417.3646.0625.7448.0625 1.1406v5.1875c0 .8646.1302 1.4792.3906 1.8438.2709.3645.7549.6093 1.4529.7343v.4219h-6.8591v-.4219c.7083-.125 1.1875-.3698 1.4375-.7343.2604-.3646.3906-.9792.3906-1.8438v-5.2812c0-1.1355-.0729-1.9219-.2188-2.3594-.1354-.4688-.375-.8386-.7187-1.1094-.3437-.27083-.7448-.40625-1.2031-.40625-.6563 0-1.2813.20835-1.875.62505-.5938.4166-1.3073 1.1406-2.1406 2.1718v6.3594c0 .8646.125 1.4792.375 1.8438.2604.3645.7447.6093 1.4531.7343v.4219h-6.8594v-.4219c.7083-.125 1.1927-.3646 1.4531-.7187.2604-.3646.3906-.9844.3906-1.8594v-6.5625c0-.875-.1354-1.4948-.4062-1.8594-.2604-.375-.7396-.61456-1.4375-.71872v-.34376l5.0313-.57812v2.9375c.8437-1.0521 1.6562-1.8125 2.4374-2.28125.7917-.47917 1.6459-.71875 2.5626-.71875 1.0624 0 1.9479.27604 2.6562.82812.7188.54168 1.2135 1.31768 1.4844 2.32808.6562-.7916 1.2187-1.401 1.6876-1.8281.979-.88539 2.114-1.3281 3.406-1.3281.802 0 1.537.18229 2.203.54688.677.35416 1.203.85932 1.578 1.51562.407.6979.61 1.6563.61 2.875v5.1875c0 .8646.125 1.4792.375 1.8438.26.3645.745.6093 1.453.7343v.4219h-6.859v-.4219c.718-.125 1.203-.3698 1.453-.7343.26-.3646.39-.9792.39-1.8438v-5.2812c0-1.1459-.073-1.9323-.219-2.3594-.135-.4792-.374-.849-.718-1.1094-.334-.27083-.724-.40625-1.172-.40625-.656 0-1.302.22395-1.938.67185-.625.4375-1.3278 1.1563-2.109 2.1563zm-3.4062 8.6406h3.125l-.3594-.2813c-.0209-.0104-.0417-.026-.0625-.0468l-.2031-.1563c-.1563-.1562-.2344-.3541-.2344-.5937l-.0156-.3125v-.1563-5.9687c-.0105-1.4375-.2396-2.4688-.6876-3.0938-.2916-.4166-.6666-.73956-1.125-.96872-.4583-.23959-.9479-.35938-1.4687-.35938-.0625 0-.1146.00521-.1563.01562-.0312 0-.0937.00521-.1874.01563-.0834 0-.1719.00521-.2657.01563.9375.13541 1.5781.51041 1.9219 1.12502.3542.6041.5312 1.6562.5312 3.1562v6.0625c0 .4271-.0208.6927-.0624.7969-.0313.1042-.1511.2448-.3594.4219-.0209.0208-.0365.0312-.0469.0312 0 0-.0052.0052-.0156.0156zm-9.3438 0h3.125l-.375-.2813c-.0208-.0208-.0417-.0364-.0625-.0468l-.2031-.1563c-.1459-.1458-.224-.3437-.2344-.5937v-.3125-.1563-10.17185l-2.5625.28125.6094.4375c.0104 0 .0312.0156.0625.0469l.2031.1562c.1042.0729.1719.1823.2031.3282.0313.1354.0469.3802.0469.7343v8.1875c0 .4271-.0208.6927-.0625.7969s-.1667.2448-.375.4219c0 0-.0104.0052-.0312.0156-.0105.0104-.0157.0208-.0157.0312zm18.625 0h3.125l-.375-.2813c0-.0104-.005-.0208-.016-.0312-.01-.0104-.02-.0156-.031-.0156l-.203-.1563c-.156-.1458-.234-.3437-.234-.5937l-.016-.3125v-.1563l-.016-5.9687c0-.7917-.046-1.4115-.14-1.8594s-.271-.8594-.532-1.2344c-.645-.87498-1.505-1.31248-2.578-1.31248-.083 0-.291.01042-.625.03126.938.13541 1.579.51041 1.922 1.12502.354.6041.531 1.6562.531 3.1562v6.0625c0 .4271-.02.6927-.062.7969-.031.1042-.151.2448-.359.4219-.021.0208-.037.0312-.047.0312 0 0-.005.0052-.016.0156zm12.25.4219-4.594-9.4688-.156-.3281c-.427-.8854-.797-1.4844-1.109-1.7969-.302-.31248-.688-.48435-1.157-.5156v-.42188h6.907v.42188c-.542.0625-.927.17188-1.157.32812-.229.15628-.343.39588-.343.71878 0 .2604.13.6666.39 1.2187l2.781 6 2.438-5.9218c.271-.6667.406-1.1667.406-1.5 0-.2813-.114-.48442-.344-.60942-.229-.125-.619-.20313-1.171-.23438v-.42188h3.875v.42188c-.521.11458-.891.26042-1.11.4375-.208.1771-.437.5417-.687 1.0937l-.281.6094c-.021.0625-.042.1094-.063.1406-.01.0209-.026.0626-.047.125l-4.812 11.7188c-.219.5417-.459 1.0104-.719 1.4062-.25.4063-.521.6876-.813.8438-.281.1667-.599.25-.953.25-.625 0-1.161-.2552-1.609-.7656-.448-.5-.672-1.125-.672-1.875 0-.5209.13-.9427.391-1.2656.27-.3126.625-.4688 1.062-.4688.354 0 .625.0938.813.2812.198.1876.312.4584.343.8126l.047.5468c.042.6354.25.9532.625.9532.229 0 .443-.1355.641-.4063.198-.2604.427-.7187.687-1.375zm-1.656 3.7656h-.141c-.552 0-.958-.151-1.219-.4531-.25-.3021-.375-.7761-.375-1.4219l.016-.4375c0-.375-.172-.5625-.516-.5625-.416 0-.625.3281-.625.9844 0 .625.177 1.151.532 1.5781.364.4271.807.6406 1.328.6406.302 0 .635-.1093 1-.3281zm2.703-5.9531-3.656-7.5938c-.23-.4896-.344-.8906-.344-1.2031 0-.4479.208-.80729.625-1.07812h-3.469c.292.1875.531.40622.719.65622.198.25.417.6198.656 1.1094l4.766 9.8437zm34.969-18.875025.593 5.812505h-.5c-.541-1.79167-1.349-3.10938-2.421-3.95313-1.063-.85417-2.448-1.28125-4.157-1.28125h-.875c-1.364 0-2.333.26562-2.906.79688-.562.52083-.844 1.39583-.844 2.625v5.3125h2.078c1.573 0 2.719-.2448 3.438-.73438.719-.5 1.213-1.39583 1.484-2.6875h.469v7.9063h-.469c-.208-1.0417-.489-1.8334-.844-2.375-.343-.5521-.833-.9376-1.468-1.1563-.625-.2292-1.479-.3437-2.563-.3437h-2.125v6.7656c0 1.0312.094 1.8229.282 2.375.197.5416.536.9218 1.015 1.1406.49.2188 1.172.3281 2.047.3281h1.438c1.416 0 2.76-.4375 4.031-1.3125 1.406-.9791 2.786-2.3437 4.14-4.0937l.125-.1719h.547l-1.843 6.375h-18.454v-.4844c1.125-.1875 1.943-.6198 2.454-1.2968.395-.5.593-1.4948.593-2.9844v-11.7969c0-.94792-.052-1.63542-.156-2.0625s-.297-.79167-.578-1.09375c-.521-.58333-1.292-.95833-2.313-1.125v-.484375zm-1.172.578125h-2.25c.583.23958 1.052.5 1.406.78125s.75.71354 1.188 1.29687zm-3.594 8.0625c-.292.27083-.521.45833-.688.5625-.156.09375-.489.2396-1 .4375.584.1667 1.146.5052 1.688 1.0156zm4.328 11.8906.875-2.9062c-.375.4166-.75.7969-1.125 1.1406-.364.3333-.781.651-1.25.9531-.458.3021-.927.5729-1.406.8125zm-15.156 0h4.562l-.609-.4531c-.354-.2604-.583-.4688-.687-.625-.094-.1562-.141-.3906-.141-.7031 0-.1667-.005-.2761-.016-.3281 0-.0626 0-.125 0-.1876v-.2656-14.60935-.26563c0-.0625 0-.125 0-.1875.011-.0625.016-.17187.016-.32812 0-.3125.052-.55208.156-.71875.115-.17708.339-.38021.672-.60937l.891-.65626h-5.125l.89.65626c.354.26041.578.46874.672.625.104.15624.156.39062.156.70312.011.17708.016.34896.016.51562v.26563 14.60935.2656c0 .1667-.005.3386-.016.5157 0 .3229-.047.5625-.14.7187-.094.1459-.323.349-.688.6094zm23.922-9.0937c.646-.7604 1.265-1.3854 1.859-1.875.594-.50002 1.167-.85419 1.719-1.06252.552-.20834 1.151-.3125 1.797-.3125.791 0 1.526.1875 2.203.5625.687.375 1.213.88022 1.578 1.51562.417.7083.625 1.6667.625 2.875v5.1875c0 .8646.125 1.4792.375 1.8438.26.3645.745.6093 1.453.7343v.4219h-6.859v-.4219c.708-.125 1.187-.3698 1.437-.7343.261-.3646.391-.9792.391-1.8438v-5.2812c0-1.1355-.073-1.9219-.219-2.3594-.156-.4792-.406-.849-.75-1.1094-.344-.27083-.755-.40625-1.234-.40625-.667 0-1.318.22395-1.953.67185-.625.4479-1.433 1.2552-2.422 2.4219v6.0625c0 .8646.125 1.4792.375 1.8438.26.3645.745.6093 1.453.7343v.4219h-6.86v-.4219c.709-.125 1.193-.3646 1.454-.7187.26-.3646.39-.9844.39-1.8594v-6.5625c0-.875-.135-1.4948-.406-1.8594-.26-.375-.74-.61456-1.438-.71872v-.34376l5.032-.57812zm6.312 9.2031h3.11l-.36-.2813s-.01-.0052-.031-.0156c-.01-.0208-.021-.0312-.031-.0312l-.203-.1563c-.157-.1562-.235-.3541-.235-.5937v-.3125l-.015-.1563v-5.9687c0-.7917-.052-1.4167-.157-1.875-.104-.4584-.281-.8594-.531-1.2031-.646-.87505-1.484-1.31255-2.515-1.31255-.105 0-.344.02083-.719.0625.646.09375 1.146.28646 1.5.57815.354.2812.604.7083.75 1.2812.156.5729.234 1.3646.234 2.375v6.0625c0 .4271-.021.6927-.062.7969-.032.1042-.151.2448-.36.4219-.021.0208-.036.0312-.047.0312 0 0-.005.0052-.015.0156zm-9.781 0h3.125l-.375-.2813c-.021-.0208-.042-.0364-.063-.0468l-.203-.1563c-.145-.1458-.224-.3437-.234-.5937v-.3125-3.2031-1.625-5.50005l-2.563.28125.61.4375c.01 0 .031.0156.062.0469l.204.1562c.104.0729.171.1823.203.3282.031.1354.047.3802.047.7343v8.1875c0 .4271-.021.6927-.063.7969s-.167.2448-.375.4219c0 0-.01.0052-.031.0156-.011.0104-.016.0208-.016.0312zm20.109-3.2969c-.395.3959-.661.6979-.796.9063-.126.1979-.188.4271-.188.6875 0 .4791.333.7656 1 .8594.333.0416.823.0624 1.469.0624h2.969c1.593 0 2.729.1615 3.406.4844.468.2292.875.5365 1.218.9219.344.375.605.8073.782 1.2969.187.4896.281 1.0156.281 1.5781 0 1.1354-.318 2.1458-.953 3.0313-.636.8958-1.537 1.5885-2.703 2.0781-1.157.4896-2.464.7343-3.922.7343-1.969 0-3.557-.3854-4.766-1.1562-1.208-.7708-1.812-1.7812-1.812-3.0312 0-.6563.166-1.25.5-1.7813.333-.5208.89-1.0729 1.672-1.6563-.365-.3437-.62-.6562-.766-.9374-.135-.2709-.203-.5834-.203-.9376 0-.3437.052-.6562.156-.9374.115-.2813.323-.5938.625-.9376.313-.3437.761-.776 1.344-1.2968l.25-.2188c-.886-.5104-1.537-1.0885-1.953-1.7344-.406-.6458-.61-1.3958-.61-2.25 0-.9062.235-1.7239.704-2.4531.468-.7291 1.124-1.3073 1.968-1.73435.854-.42708 1.854-.67187 3-.73437.24-1.05209.584-1.8073 1.032-2.26563.458-.45833 1.072-.6875 1.843-.6875.459 0 .896.09375 1.313.28125.427.17708.765.41667 1.015.71875s.375.625.375.96875c0 .33333-.109.61458-.328.84375-.208.21875-.468.32813-.781.32813-.24 0-.474-.07292-.703-.21876-.229-.14583-.406-.32812-.531-.54687l-.235-.45313c-.26-.5-.609-.75-1.047-.75-.729 0-1.203.59376-1.421 1.78126.822.03124 1.572.17708 2.25.4375.687.26041 1.281.60416 1.781 1.03122.51.4167.901.9167 1.172 1.5.27.5729.406 1.1927.406 1.8594 0 .8854-.266 1.724-.797 2.5156-.521.7917-1.219 1.4167-2.094 1.875-.875.4584-1.828.6875-2.859.6875-.938 0-1.958-.25-3.063-.75zm5.672-4.3906c0-1.3438-.239-2.3958-.718-3.1562-.48-.76047-1.131-1.14068-1.954-1.14068-.864 0-1.557.40626-2.078 1.21878-.51.8125-.765 1.8958-.765 3.25 0 1.3125.25 2.3646.75 3.1562.51.7917 1.182 1.1875 2.015 1.1875.854 0 1.526-.4062 2.016-1.2187.489-.8125.734-1.9115.734-3.2969zm-6.875 9.8281c-.916.8021-1.375 1.6979-1.375 2.6875 0 .7292.224 1.3854.672 1.9688.458.5937 1.094 1.0521 1.906 1.375.823.3333 1.75.5 2.782.5.802 0 1.557-.1094 2.265-.3282.719-.2187 1.339-.5208 1.86-.9062.531-.375.937-.8125 1.218-1.3125.292-.4896.438-1.0208.438-1.5937 0-.6563-.214-1.1771-.641-1.5626-.416-.375-.989-.5677-1.718-.5781l-1.204-.0469h-.39-3.047c-.511 0-.985-.0156-1.422-.0468-.479-.0104-.927-.0625-1.344-.1563zm9.86 3.8125c.489-.6979.734-1.3906.734-2.0781 0-.8958-.255-1.6458-.766-2.25-.385-.4583-.838-.776-1.359-.9531-.51-.1875-1.214-.2813-2.109-.2813l-2.157-.0156-1.781-.0156c-.771 0-1.375-.0417-1.812-.125-.438-.0938-.74-.2448-.907-.4531-.166-.2084-.25-.5105-.25-.9063 0-.1771.063-.4271.188-.75-.313.3437-.521.625-.625.8437-.094.2188-.141.4844-.141.7969 0 .4063.094.7604.282 1.0625.197.3021.484.5365.859.7032.229.0937.547.1562.953.1874.406.0313 1.073.0469 2 .0469l2.078.0157c1.333 0 2.261.0312 2.781.0937.532.0625.948.1979 1.25.4063.761.4895 1.141 1.1927 1.141 2.1093 0 .4167-.12.9375-.359 1.5625zm-3.953-9.3906c.916-.4167 1.609-.9635 2.078-1.6406.468-.6875.703-1.4896.703-2.4063 0-.9791-.255-1.8437-.766-2.5937-.5-.7604-1.167-1.30211-2-1.62502.521.46872.891 1.01562 1.109 1.64062.219.625.329 1.401.329 2.3281 0 1-.115 1.8281-.344 2.4844-.219.6563-.589 1.2604-1.109 1.8125zm-4.219-.0938c-1.115-1-1.672-2.3229-1.672-3.9687 0-1.7708.729-3.2031 2.187-4.29688-1.073.3125-1.922.85418-2.546 1.62498-.626.7709-.938 1.6563-.938 2.6563 0 .8437.255 1.6093.766 2.2969.51.677 1.244 1.2395 2.203 1.6874zm4.312-11.17182c.354.125.625.27083.813.4375.187.16666.364.41145.531.73437.177.28125.313.47396.406.57813.104.09374.229.14062.375.14062.292 0 .438-.15104.438-.45312 0-.23959-.104-.47396-.313-.70313-.198-.22917-.458-.41667-.781-.5625s-.656-.21875-1-.21875c-.104 0-.26.01562-.469.04688zm11.313 5.37502c.604-1.1667 1.146-1.9792 1.625-2.43752.489-.46876 1.052-.70313 1.687-.70313.792 0 1.453.3125 1.985.9375.531.62495.797 1.40105.797 2.32815 0 .5937-.126 1.0521-.376 1.375-.239.3229-.583.4844-1.031.4844-.385 0-.698-.1303-.937-.3907-.24-.2604-.36-.5937-.36-1 0-.1875.026-.3958.078-.625l.141-.5937c.083-.3646.125-.6875.125-.9688 0-.2812-.078-.49998-.234-.65622-.146-.16667-.344-.25-.594-.25-.292 0-.578.11458-.859.34374-.282.21878-.584.57808-.907 1.07808-.312.4896-.692 1.1771-1.14 2.0626v6.0312c0 .8646.151 1.4792.453 1.8438.312.3645.88.6093 1.703.7343v.4219h-7.188v-.4219c.709-.125 1.193-.3646 1.454-.7187.26-.3646.39-.9844.39-1.8594v-6.5625c0-.875-.135-1.4948-.406-1.8594-.26-.375-.74-.61456-1.438-.71872v-.34376l5.032-.57812zm-3.469 9.3281h3.125l-.375-.2813c-.021-.0208-.042-.0364-.063-.0468l-.203-.1563c-.145-.1458-.224-.3437-.234-.5937v-.3125-.1563-10.17185l-2.563.28125.61.4375c.01 0 .031.0156.062.0469l.204.1562c.104.0729.171.1823.203.3282.031.1354.047.3802.047.7343v8.1875c0 .4271-.021.6927-.063.7969s-.167.2448-.375.4219c0 0-.01.0052-.031.0156-.011.0104-.016.0208-.016.0312zm7.281-11.78125c.24.32292.36.67185.36 1.04685 0 .3229-.058.7188-.172 1.1875-.104.4479-.156.7448-.156.8906 0 .4376.177.6563.531.6563.448 0 .672-.4219.672-1.2656 0-1.0729-.412-1.9115-1.235-2.51565zm10.875 11.01565c-1.281 1.0833-2.656 1.625-4.125 1.625-1.177 0-2.12-.3021-2.828-.9063-.698-.6146-1.047-1.4166-1.047-2.4062 0-1.4063.688-2.5104 2.063-3.3125s3.354-1.2552 5.937-1.3594v-.4375-.2188c0-.8124-.036-1.4739-.109-1.9843-.073-.5209-.177-.9115-.313-1.1719-.156-.3021-.38-.54167-.671-.71875-.282-.1875-.589-.28125-.922-.28125-.49 0-.875.16146-1.157.48438-.281.31252-.458.80212-.531 1.46872-.083.6563-.219 1.1042-.406 1.3438-.188.2291-.511.3437-.969.3437-.354 0-.651-.125-.891-.375-.239-.25-.359-.5729-.359-.9687 0-.5313.193-1.0104.578-1.4375.386-.43752.917-.78128 1.594-1.03128.687-.25 1.437-.375 2.25-.375 1.052 0 1.974.21355 2.766.64063.791.41667 1.38 1.00005 1.765 1.75005.209.3854.354.8177.438 1.2968.094.4792.14 1.1406.14 1.9844v4.5c0 .8646.125 1.4792.375 1.8438.261.3645.745.6093 1.453.7343v.4219h-5.031zm0-.6875v-5.1719c-1.01.1563-1.88.4167-2.609.7813-.719.3645-1.271.8281-1.656 1.3906-.386.5625-.578 1.1823-.578 1.8594 0 .6874.203 1.2604.609 1.7187.417.4479.937.6719 1.562.6719.771 0 1.662-.4167 2.672-1.25zm.531 1.4531h2.313l-.359-.2813s-.011-.0052-.032-.0156c-.01-.0208-.02-.0312-.031-.0312l-.203-.1563c-.156-.1562-.234-.3541-.234-.5937v-.3125l-.016-.1563v-5.3125c0-1.4479-.167-2.5312-.5-3.25-.469-.9583-1.203-1.57289-2.203-1.84372.667.46874 1.057 1.21352 1.172 2.23442.062.625.093 1.5937.093 2.9062zm-3.968.4219c-1.771-.3646-2.656-1.3334-2.656-2.9063 0-1.0208.411-1.8958 1.234-2.625.364-.3229 1.068-.7343 2.109-1.2343-1.26.2395-2.239.5677-2.937.9843-1.188.7292-1.782 1.6927-1.782 2.8907 0 .8645.313 1.5677.938 2.1093.635.5313 1.453.7969 2.453.7969.24 0 .453-.0052.641-.0156zm0-12.34378c-.729.1875-1.318.4948-1.766.92188-.437.4167-.656.8854-.656 1.4063 0 .1979.047.3541.14.4687.094.1146.219.1719.376.1719.145 0 .255-.0417.328-.125.073-.0938.135-.2761.187-.5469.115-.5833.261-1.0208.438-1.3125.187-.3021.505-.63021.953-.98438zm16.031 12.85938h-.359l-5.219-10.0938-.235-.4062c-.322-.5833-.572-.9948-.75-1.2344-.166-.25-.343-.4427-.531-.5781-.198-.13542-.489-.26562-.875-.39062v-.34376h7.344v.42188c-.688.04167-1.161.14583-1.422.3125-.25.1667-.375.4323-.375.7969 0 .3437.162.8385.485 1.4844l3.093 6.2187 3.188-6.9375c.198-.4479.297-.776.297-.9844 0-.53122-.422-.81768-1.266-.85935l-.359-.03125v-.42188h3.953v.42188c-.438.03125-.802.17708-1.094.4375-.292.25-.578.6719-.859 1.2656l-.188.4219zm.594-2.4062-3.86-7.4688c-.343-.6875-.515-1.224-.515-1.6094 0-.4896.224-.84893.672-1.0781h-3.61c.459.3542.933.9844 1.422 1.8906l.375.7344.172.3125 4.594 8.7969zm10.515-5.125v.3437c0 1.2396.183 2.3281.547 3.2656.365.9271.88 1.6459 1.547 2.1563.677.5104 1.469.7656 2.375.7656.479 0 .958-.0781 1.438-.2344.489-.1666.968-.401 1.437-.7031.479-.3021 1.016-.7292 1.61-1.2813l.312.4219c-1.073 1.0417-2.094 1.7865-3.062 2.2344-.959.4479-2.032.6719-3.219.6719-1.24 0-2.354-.2709-3.344-.8125-.979-.5417-1.74-1.3073-2.281-2.2969-.542-.9896-.813-2.1042-.813-3.3438 0-1.302.297-2.4947.891-3.5781.604-1.0833 1.422-1.9323 2.453-2.54685 1.042-.61458 2.203-.92187 3.484-.92187 1.094 0 2.094.22395 3 .67187.917.44792 1.631 1.07815 2.141 1.89065.542.8333.844 1.9323.906 3.2969zm0-.5469h6.235c-.011-1.4063-.151-2.4167-.422-3.0313-.24-.5625-.583-.9948-1.031-1.29685-.448-.3125-.948-.46875-1.5-.46875-2 0-3.094 1.599-3.282 4.7969zm3.657 7.7187c-.74-.0937-1.334-.2344-1.782-.4218-.448-.1876-.885-.4792-1.312-.875-.636-.5834-1.13-1.349-1.485-2.2969-.354-.9584-.531-2-.531-3.125 0-.7813.073-1.5.219-2.1563.156-.6562.391-1.2448.703-1.7656.323-.5208.755-1.0156 1.297-1.48438-1.188.64588-2.099 1.49998-2.734 2.56248-.636 1.0625-.954 2.25-.954 3.5625 0 1.125.256 2.1511.766 3.0782.511.9166 1.219 1.6354 2.125 2.1562.917.5208 1.927.7812 3.031.7812.25 0 .469-.0052.657-.0156zm4.468-7.7187c-.031-.7709-.171-1.4688-.421-2.0938s-.599-1.151-1.047-1.5781c-.438-.4375-.959-.75-1.563-.9375.604.4792 1.037 1.0469 1.297 1.7031.271.6563.406 1.4792.406 2.4688 0 .1666-.005.3125-.015.4375zm13.563 6.2343-.063.0469c-1.406 1.2396-2.901 1.8594-4.484 1.8594-1.135 0-2.172-.2656-3.109-.7969-.938-.5416-1.677-1.2864-2.219-2.2344-.531-.9583-.797-2.0052-.797-3.1406 0-1.2604.307-2.4479.922-3.5625.625-1.1146 1.463-2.0052 2.516-2.67185 1.052-.66667 2.171-1 3.359-1 1.364 0 2.656.48958 3.875 1.46875v-6.46875c0-.86458-.13-1.48437-.391-1.85937-.26-.375-.739-.61459-1.437-.71876v-.343745l5.015-.578125v18.59375c0 .8646.131 1.4792.391 1.8438.271.3645.755.6093 1.453.7343v.4219h-5.031zm0-9.1406-.125-.1094c-.677-.5833-1.292-1.0104-1.844-1.2812-.542-.27083-1.073-.40625-1.594-.40625-.739 0-1.395.24479-1.968.73435-.573.4792-1.016 1.1667-1.329 2.0625-.312.8854-.468 1.9323-.468 3.1406 0 1.1563.151 2.1928.453 3.1094.302.9167.729 1.6354 1.281 2.1563.563.5104 1.208.7656 1.938.7656 1.135 0 2.354-.7135 3.656-2.1406zm-5.375 10.5782c-.636-.375-1.104-.6928-1.406-.9532s-.599-.6198-.891-1.0781c-.708-1.1354-1.062-2.4687-1.062-4 0-1.2708.192-2.3542.578-3.25.385-.8958 1.052-1.8177 2-2.76562-1.313.76042-2.308 1.68232-2.985 2.76562-.666 1.0729-1 2.2708-1 3.5937 0 1.4271.417 2.6459 1.25 3.6563.844 1.0104 2.016 1.6875 3.516 2.0313zm5.906-.5313h2.313l-.36-.2813c-.021-.0104-.041-.026-.062-.0468l-.203-.1563c-.157-.1562-.235-.3541-.235-.5937l-.015-.3125v-.1563-18.7031l-2.563.28125.61.4375c.01 0 .031.01563.062.04687l.203.15626c.104.07291.172.17187.203.29687.032.11458.047.36979.047.76563zm26.703-20.640625v.484375c-1.25.1875-2.151.61458-2.703 1.28125-.25.30208-.427.67708-.531 1.125-.094.44792-.141 1.07292-.141 1.875v11.9219c0 .7812.042 1.3958.125 1.8437.094.4479.255.8177.485 1.1094.468.5937 1.359.8906 2.671.8906h.329c.698 0 1.38-.1041 2.047-.3125.666-.2187 1.343-.5625 2.031-1.0312.698-.4792 1.401-1.0782 2.109-1.7969.719-.7187 1.453-1.5677 2.203-2.5469h.485l-1.875 6.4844h-17.282v-.4844c1.125-.1875 1.943-.6198 2.453-1.2968.396-.5.594-1.4948.594-2.9844v-11.7969c0-.94792-.052-1.63542-.156-2.0625s-.297-.79167-.578-1.09375c-.521-.58333-1.292-.95833-2.313-1.125v-.484375zm6.125 20.531225.844-2.9062c-1.021 1.2187-2.234 2.1875-3.641 2.9062zm-13.984 0h4.562l-.609-.4531c-.354-.2604-.583-.4688-.688-.625-.093-.1562-.14-.3906-.14-.7031 0-.1667-.005-.2761-.016-.3281 0-.0626 0-.125 0-.1876v-.2656-14.60935-.26563c0-.0625 0-.125 0-.1875.011-.0625.016-.17187.016-.32812 0-.3125.052-.55208.156-.71875.115-.17708.339-.38021.672-.60937l.891-.65626h-5.11l.875.65626c.365.26041.594.46354.688.60937s.14.38542.14.71875c.011.17708.016.34896.016.51562v.26563 14.60935.2656c0 .1667-.005.3386-.016.5157 0 .3229-.046.5625-.14.7187-.094.1459-.323.349-.688.6094zm35.062-20.531225.594 5.812505h-.5c-.542-1.79167-1.349-3.10938-2.422-3.95313-1.062-.85417-2.448-1.28125-4.156-1.28125h-.875c-1.365 0-2.333.26562-2.906.79688-.563.52083-.844 1.39583-.844 2.625v5.3125h2.078c1.573 0 2.719-.2448 3.438-.73438.718-.5 1.213-1.39583 1.484-2.6875h.469v7.9063h-.469c-.208-1.0417-.49-1.8334-.844-2.375-.344-.5521-.833-.9376-1.468-1.1563-.626-.2292-1.48-.3437-2.563-.3437h-2.125v6.7656c0 1.0312.094 1.8229.281 2.375.198.5416.537.9218 1.016 1.1406.489.2188 1.172.3281 2.047.3281h1.437c1.417 0 2.761-.4375 4.031-1.3125 1.407-.9791 2.787-2.3437 4.141-4.0937l.125-.1719h.547l-1.844 6.375h-18.453v-.4844c1.125-.1875 1.943-.6198 2.453-1.2968.396-.5.594-1.4948.594-2.9844v-11.7969c0-.94792-.052-1.63542-.156-2.0625s-.297-.79167-.578-1.09375c-.521-.58333-1.292-.95833-2.313-1.125v-.484375zm-1.171.578125h-2.25c.583.23958 1.052.5 1.406.78125s.75.71354 1.187 1.29687zm-3.594 8.0625c-.292.27083-.521.45833-.688.5625-.156.09375-.489.2396-1 .4375.584.1667 1.146.5052 1.688 1.0156zm4.328 11.8906.875-2.9062c-.375.4166-.75.7969-1.125 1.1406-.365.3333-.781.651-1.25.9531-.458.3021-.927.5729-1.406.8125zm-15.156 0h4.562l-.609-.4531c-.354-.2604-.584-.4688-.688-.625-.093-.1562-.14-.3906-.14-.7031 0-.1667-.006-.2761-.016-.3281 0-.0626 0-.125 0-.1876v-.2656-14.60935-.26563c0-.0625 0-.125 0-.1875.01-.0625.016-.17187.016-.32812 0-.3125.052-.55208.156-.71875.114-.17708.338-.38021.672-.60937l.89-.65626h-5.125l.891.65626c.354.26041.578.46874.672.625.104.15624.156.39062.156.70312.011.17708.016.34896.016.51562v.26563 14.60935.2656c0 .1667-.005.3386-.016.5157 0 .3229-.047.5625-.141.7187-.093.1459-.322.349-.687.6094zm39.172-20.531225.484 5.812505h-.5c-.313-1.07292-.74-2-1.281-2.78126-.532-.78124-1.157-1.3802-1.875-1.79687-.709-.42708-1.454-.64063-2.235-.64063-.614 0-1.151.13021-1.609.39063-.448.25-.781.59896-1 1.04687-.208.42709-.313 1.11459-.313 2.0625v12.46878c0 .9271.063 1.6094.188 2.0468.125.4271.364.8021.719 1.125.635.573 1.562.9428 2.781 1.1094v.4844h-11.016v-.4844c1.354-.1875 2.344-.6146 2.969-1.2812.281-.3021.474-.6719.578-1.1094s.156-1.0677.156-1.8906v-12.46878c0-1.03124-.14-1.78124-.422-2.25-.218-.38541-.546-.6875-.984-.90624-.437-.22917-.943-.34376-1.516-.34376-1.177 0-2.255.46876-3.234 1.40626-.969.92708-1.693 2.19791-2.172 3.8125h-.484l.484-5.812505zm-1.188.578125h-2.266c.552.22917 1.016.49479 1.391.79688.375.29166.766.71874 1.172 1.28124zm-11.641 19.9531h4.579l-.61-.4531c-.375-.2812-.609-.4948-.703-.6406-.094-.1459-.141-.375-.141-.6875v-.5157c0-.0833-.005-.1406-.015-.1718 0-.0313 0-.0625 0-.0938v-14.60935c0-.03125 0-.0625 0-.09375.01-.03125.015-.08854.015-.17188v-.51562c0-.3125.058-.55208.172-.71875.115-.17708.339-.38021.672-.60937l.891-.65626h-4.813l.735.65626c.26.22916.437.4427.531.64062.094.1875.14.41667.14.6875v.51562c.011.09376.016.1823.016.26563v14.60935c0 .0834-.005.1719-.016.2656v.5157c0 .3125-.052.5469-.156.7031-.094.1562-.317.3646-.672.625zm-6.937-19.9531-.219 2.29688c.448-.65626.828-1.13542 1.141-1.4375.312-.30209.718-.58855 1.218-.85938z" fill="#f9b64c"/></svg>