<svg width="584" height="148" viewBox="0 0 584 148" fill="none" xmlns="http://www.w3.org/2000/svg">
<g opacity="0.2">
<path d="M44.48 23.81C44.2 21.22 43.36 18.77 42.1 16.53C41.82 16.04 41.4 15.55 41.12 15.06C40.7 14.57 40.28 14.15 39.86 13.73C38.95 12.89 37.76 12.26 36.57 11.91L35.59 11.7C35.45 11.7 35.24 11.63 35.1 11.63H34.61L33.56 11.56L32.51 11.7C30.97 11.98 29.5 12.61 28.24 13.45C25.44 15.27 22.85 18.28 20.26 22.34C18.93 24.58 17.67 26.82 16.55 29.13C14.66 32.63 12.98 36.27 11.44 39.98C11.79 39 12.07 38.09 12.35 37.18C14.66 29.76 16.76 22.27 18.37 14.64L18.44 14.57C18.51 14.01 18.02 13.52 17.25 13.38C17.11 13.31 16.9 13.31 16.69 13.31C16.62 13.38 16.62 13.38 16.62 13.38C16.55 13.38 16.48 13.38 16.41 13.45C15.99 13.52 15.71 13.73 15.43 14.01C15.08 14.29 14.87 14.71 14.8 15.2L14.73 15.48L14.66 15.69C14.66 15.83 14.66 15.97 14.66 16.18C14.66 16.46 14.66 16.67 14.66 16.95C14.73 17.37 14.66 17.86 14.59 18.35C14.52 18.84 14.38 19.26 14.1 19.68C14.1 19.68 14.24 19.75 14.31 19.82C14.38 19.89 14.45 19.96 14.52 19.96C14.59 19.96 14.66 19.82 14.73 19.75C13.61 25.49 12.28 31.09 10.81 36.69C9.34 42.43 7.66 48.1 5.91 53.77L3.53 59.65C3.39 60.07 3.88 60.56 4.51 60.77C5.21 61.05 5.91 60.98 6.05 60.63V60.56L11.23 44.81C12.84 39.49 14.73 34.31 17.04 29.27C18.09 27.03 19.35 24.79 20.68 22.62C21.87 20.8 23.13 19.05 24.6 17.44C25.79 16.18 27.19 15.06 28.66 14.22C29.85 13.45 31.25 13.03 32.65 12.89H33.56L34.47 13.03H34.89C35.03 13.1 35.17 13.17 35.31 13.17L36.08 13.45C36.99 13.8 37.83 14.36 38.46 15.13C38.74 15.55 39.02 15.9 39.3 16.32C39.51 16.81 39.79 17.16 40 17.65C40.91 19.68 41.54 21.92 41.82 24.09C42.03 26.4 42.1 28.71 41.89 30.95C41.68 33.12 41.26 35.22 40.7 37.32C39.93 39.91 38.95 42.43 37.62 44.81C35.66 48.24 33.28 51.39 30.41 54.05C28.38 56.01 26.14 57.76 23.83 59.23C16.9 63.22 8.99 65.25 1.01 65.11H0.94C0.73 65.11 0.45 65.74 0.52 66.44C0.52 67.21 0.73 67.77 1.08 67.77C9.34 67.21 17.32 64.41 24.04 59.65C26.42 58.11 28.66 56.36 30.76 54.47C33.63 51.67 36.15 48.59 38.32 45.23C39.86 42.92 41.12 40.4 42.24 37.88C43.15 35.78 43.78 33.54 44.2 31.3C44.69 28.85 44.76 26.26 44.48 23.81ZM63.0694 53.35C61.9494 54.54 60.6194 55.52 59.2194 56.36C57.1894 57.48 55.0194 58.25 52.7094 58.6C51.3094 58.74 49.8394 58.74 48.4394 58.39C49.2094 56.85 49.8394 55.31 50.2594 53.63C50.5394 52.72 50.6094 51.81 50.6094 50.9C50.6794 49.99 50.3294 49.08 49.6994 48.38C49.3494 48.03 48.8594 47.82 48.4394 47.68H48.3694C48.4394 46.91 48.1594 46.35 47.6694 46.35H47.5994C46.1294 46.56 44.7294 47.19 43.6094 48.17C42.5594 49.01 41.5794 49.99 40.8094 51.11C39.2694 53.21 38.0794 55.59 37.3094 58.11C36.9594 59.3 36.6794 60.63 36.6094 61.96C36.5394 62.59 36.5394 63.29 36.6794 63.92C36.8194 64.69 37.0994 65.32 37.5194 65.88C38.0094 66.51 38.7794 66.86 39.4794 66.86C40.1794 66.93 40.8794 66.86 41.5094 66.58C42.6994 66.09 43.8194 65.25 44.6594 64.27C45.7794 63.08 46.7594 61.68 47.5994 60.21C47.5994 60.07 47.6694 60 47.7394 59.93H47.8094C49.5594 60 51.2394 59.86 52.8494 59.37C55.1594 58.81 57.3994 57.97 59.4294 56.78C60.8994 55.94 62.2294 54.89 63.4194 53.63L63.0694 53.35ZM47.1094 59.93C46.3394 61.4 45.4294 62.73 44.3094 63.92C43.4694 64.83 42.4194 65.46 41.2994 65.88C40.1794 66.16 38.9194 66.09 38.3594 65.25C37.7994 64.27 37.6594 63.15 37.8694 62.03C38.0794 60.84 38.3594 59.72 38.8494 58.6C39.6894 56.36 40.9494 54.26 42.4894 52.44C42.5594 52.37 42.5594 52.3 42.6294 52.3C42.5594 52.51 42.4894 52.79 42.4194 53.07C41.9994 54.82 42.4194 56.71 43.6094 58.11C44.1694 58.67 44.8694 59.16 45.6394 59.44C46.1294 59.65 46.6894 59.72 47.1794 59.86C47.1794 59.86 47.1794 59.93 47.1094 59.93ZM46.4794 57.62C46.1294 57.34 45.7094 56.99 45.4994 56.64C45.2194 56.22 45.0794 55.8 45.0094 55.31C44.9394 54.75 45.0094 54.19 45.1494 53.56C45.2894 52.44 45.7794 51.32 46.4794 50.41C46.7594 50.06 47.1094 49.78 47.5294 49.57C47.8794 49.36 48.2994 49.36 48.6494 49.57C49.0694 49.92 49.3494 50.48 49.4194 51.04C49.5594 51.81 49.5594 52.65 49.4194 53.49C49.1394 55.17 48.6494 56.78 47.9494 58.25C47.4594 58.11 46.9694 57.9 46.4794 57.62ZM107.899 52.86C104.119 53.42 100.549 54.82 97.4689 56.99C97.6789 55.38 97.8189 53.77 97.8189 52.09V52.02C97.6789 51.39 97.1189 50.97 96.4189 51.04C95.7889 50.97 95.2289 51.46 95.0889 52.09V52.16C95.0889 52.37 95.0889 52.65 95.0889 52.86C94.3189 53.7 93.4789 54.4 92.5689 55.1C91.5889 55.94 90.5389 56.64 89.4189 57.34C88.2989 58.11 87.0389 58.67 85.7089 59.09C85.1489 59.3 84.5189 59.37 83.8889 59.37C83.6789 59.3 83.3989 59.23 83.1889 59.09C83.0489 59.02 82.9089 58.88 82.7689 58.67C82.5589 58.25 82.4889 57.76 82.4889 57.27C82.5589 56.71 82.6989 56.15 82.8389 55.59C83.3989 53.91 84.2389 52.37 85.2889 50.97C85.7089 50.41 86.0589 49.85 86.2689 49.22C86.5489 48.66 86.7589 47.96 86.4089 47.61C86.0589 47.19 85.4289 47.33 84.7989 47.68C84.1689 48.17 83.5389 48.73 83.1189 49.43C82.0689 51.11 81.2289 53 80.7389 54.96C80.5289 55.73 80.4589 56.5 80.4589 57.2C80.4589 58.18 80.7389 59.09 81.2989 59.86C81.9289 60.63 82.9089 61.12 83.8889 61.05C84.7989 61.05 85.6389 60.84 86.4089 60.49C87.8089 59.93 89.1389 59.09 90.3289 58.18C91.3789 57.34 92.4289 56.5 93.4089 55.59C94.0389 54.96 94.6689 54.33 95.1589 53.84C95.1589 55.17 95.0889 56.57 94.8789 57.9C94.8089 58.32 94.7389 58.74 94.6689 59.16C93.7589 59.93 92.9189 60.7 92.0789 61.54C90.8889 62.73 89.7689 63.99 88.7189 65.39C87.4589 66.93 86.2689 68.61 85.2889 70.36C84.2389 72.11 83.5389 74.07 83.0489 76.1C82.9789 76.59 82.9089 77.15 82.9089 77.71C82.9789 78.27 83.1189 78.9 83.3989 79.39C83.6789 80.02 84.2389 80.44 84.8689 80.58C85.5689 80.72 86.1989 80.65 86.8289 80.3C87.7389 79.74 88.5789 78.97 89.2089 78.06C89.8389 77.29 90.3989 76.45 90.9589 75.54C92.0089 73.79 92.9189 71.9 93.6889 70.01C94.4589 68.12 95.0889 66.23 95.7189 64.27C95.9989 63.29 96.2789 62.31 96.5589 61.33C96.7689 60.35 97.0489 59.44 97.2589 58.32C97.3289 58.25 97.3289 58.18 97.3289 58.04C97.3989 58.04 97.4689 57.97 97.4689 57.97C100.619 55.87 104.259 54.54 108.039 54.19C108.319 54.19 108.529 53.84 108.459 53.49C108.459 53.14 108.179 52.86 107.899 52.86ZM94.3189 60.77C94.1089 61.75 93.8989 62.73 93.6189 63.71C92.7089 67.49 91.3789 71.2 89.5589 74.77C89.1389 75.61 88.5789 76.38 88.0189 77.22C87.5289 77.99 86.8989 78.62 86.1289 79.18C85.8489 79.39 85.5689 79.46 85.2189 79.39C84.8689 79.32 84.5889 79.11 84.3789 78.83C84.0289 77.99 83.9589 77.08 84.0989 76.24C84.4489 74.35 85.0789 72.46 85.9889 70.71C86.8989 68.96 87.9489 67.28 89.1389 65.67C90.1189 64.34 91.2389 63.08 92.4289 61.96C93.0589 61.33 93.7589 60.7 94.4589 60.14C94.3889 60.35 94.3189 60.56 94.3189 60.77ZM130.95 53.35C129.83 54.54 128.5 55.52 127.1 56.36C125.07 57.48 122.9 58.25 120.59 58.6C119.19 58.74 117.72 58.74 116.32 58.39C117.09 56.85 117.72 55.31 118.14 53.63C118.42 52.72 118.49 51.81 118.49 50.9C118.56 49.99 118.21 49.08 117.58 48.38C117.23 48.03 116.74 47.82 116.32 47.68H116.25C116.32 46.91 116.04 46.35 115.55 46.35H115.48C114.01 46.56 112.61 47.19 111.49 48.17C110.44 49.01 109.46 49.99 108.69 51.11C107.15 53.21 105.96 55.59 105.19 58.11C104.84 59.3 104.56 60.63 104.49 61.96C104.42 62.59 104.42 63.29 104.56 63.92C104.7 64.69 104.98 65.32 105.4 65.88C105.89 66.51 106.66 66.86 107.36 66.86C108.06 66.93 108.76 66.86 109.39 66.58C110.58 66.09 111.7 65.25 112.54 64.27C113.66 63.08 114.64 61.68 115.48 60.21C115.48 60.07 115.55 60 115.62 59.93H115.69C117.44 60 119.12 59.86 120.73 59.37C123.04 58.81 125.28 57.97 127.31 56.78C128.78 55.94 130.11 54.89 131.3 53.63L130.95 53.35ZM114.99 59.93C114.22 61.4 113.31 62.73 112.19 63.92C111.35 64.83 110.3 65.46 109.18 65.88C108.06 66.16 106.8 66.09 106.24 65.25C105.68 64.27 105.54 63.15 105.75 62.03C105.96 60.84 106.24 59.72 106.73 58.6C107.57 56.36 108.83 54.26 110.37 52.44C110.44 52.37 110.44 52.3 110.51 52.3C110.44 52.51 110.37 52.79 110.3 53.07C109.88 54.82 110.3 56.71 111.49 58.11C112.05 58.67 112.75 59.16 113.52 59.44C114.01 59.65 114.57 59.72 115.06 59.86C115.06 59.86 115.06 59.93 114.99 59.93ZM114.36 57.62C114.01 57.34 113.59 56.99 113.38 56.64C113.1 56.22 112.96 55.8 112.89 55.31C112.82 54.75 112.89 54.19 113.03 53.56C113.17 52.44 113.66 51.32 114.36 50.41C114.64 50.06 114.99 49.78 115.41 49.57C115.76 49.36 116.18 49.36 116.53 49.57C116.95 49.92 117.23 50.48 117.3 51.04C117.44 51.81 117.44 52.65 117.3 53.49C117.02 55.17 116.53 56.78 115.83 58.25C115.34 58.11 114.85 57.9 114.36 57.62ZM161.766 53.21H161.696C161.626 53.14 161.486 53.14 161.346 53.28C160.436 54.89 159.246 56.36 157.846 57.62C155.606 59.72 152.806 61.05 149.726 61.4C149.376 61.47 148.956 61.47 148.536 61.47C148.186 61.4 147.766 61.4 147.416 61.33C147.066 61.26 146.716 61.12 146.366 61.05L145.946 60.77L145.806 60.7L145.666 60.63L145.456 60.49C144.336 59.79 143.636 58.6 143.496 57.34C143.426 56.22 143.566 55.03 143.846 53.91C144.056 53.14 144.336 52.37 144.686 51.6C144.966 50.9 145.246 50.13 145.386 49.36C145.526 48.59 145.596 47.75 145.176 47.47C144.756 47.19 144.126 47.61 143.566 48.17C143.006 48.87 142.516 49.71 142.236 50.55C141.956 51.46 141.676 52.37 141.466 53.28C141.396 53.56 141.326 53.91 141.326 54.26C140.416 55.8 139.506 57.27 138.526 58.67C137.476 60.21 136.426 61.68 135.236 63.01C134.606 63.71 133.976 64.34 133.346 64.9C132.646 65.39 131.876 65.81 131.386 65.74C131.176 65.67 130.896 65.53 130.756 65.32C130.686 65.18 130.616 65.04 130.546 64.9C130.476 64.76 130.406 64.55 130.406 64.41C130.266 63.57 130.196 62.73 130.266 61.89C130.406 60.14 130.686 58.32 131.176 56.64C131.596 54.89 132.086 53.14 132.646 51.39C133.206 49.71 133.906 48.03 134.606 46.42L134.676 46.35C134.816 45.93 134.466 45.37 133.836 44.95C133.626 44.74 133.276 44.67 132.996 44.67C132.646 44.74 132.366 44.95 132.156 45.23V45.3C131.456 47.05 130.826 48.87 130.336 50.69C129.846 52.51 129.356 54.33 129.006 56.15C128.656 58.04 128.446 59.93 128.376 61.82C128.376 62.87 128.446 63.85 128.726 64.83C128.796 65.11 128.866 65.39 129.006 65.6C129.146 65.88 129.286 66.16 129.496 66.37C129.706 66.65 129.986 66.86 130.266 67C130.546 67.14 130.896 67.28 131.176 67.28C131.526 67.35 131.876 67.28 132.156 67.21L132.576 67.07L132.996 66.93C133.416 66.65 133.836 66.37 134.256 66.02C134.956 65.32 135.586 64.62 136.216 63.92C137.336 62.38 138.456 60.84 139.366 59.23C139.996 58.25 140.626 57.2 141.186 56.15C141.186 56.64 141.256 57.13 141.326 57.62C141.466 58.53 141.816 59.44 142.376 60.21C142.936 61.05 143.636 61.68 144.546 62.17C144.756 62.24 144.966 62.38 145.106 62.45C145.386 62.59 145.596 62.66 145.876 62.73L146.576 62.94L147.276 63.01C148.256 63.15 149.236 63.08 150.146 62.94C151.896 62.59 153.576 61.96 155.116 60.98C156.446 60.21 157.706 59.16 158.756 58.04C159.246 57.48 159.596 56.92 160.016 56.5L160.926 55.1C161.206 54.68 161.346 54.33 161.556 54.05L161.766 53.63L161.836 53.49V53.42C161.906 53.35 161.836 53.28 161.766 53.21ZM209.623 53.35C208.083 55.38 206.193 57.13 204.093 58.6C202.063 60.14 199.753 61.26 197.303 61.82C196.743 61.96 196.113 62.03 195.553 61.96C195.063 61.89 194.573 61.68 194.153 61.33C193.873 60.98 193.663 60.42 193.733 59.93C193.733 59.37 193.803 58.74 193.943 58.18C194.503 55.73 195.553 53.35 196.323 50.83C196.533 50.2 196.673 49.5 196.813 48.87C196.953 48.1 196.953 47.26 196.743 46.49C196.603 46.07 196.323 45.58 195.903 45.3C195.693 45.16 195.483 45.02 195.273 44.95C195.063 44.88 194.853 44.81 194.573 44.81C194.153 44.74 193.733 44.74 193.313 44.81C192.963 44.88 192.613 45.02 192.193 45.16C190.933 45.72 189.743 46.56 188.763 47.54C187.783 48.45 186.873 49.43 186.033 50.48C184.353 52.58 182.813 54.68 181.483 56.99C181.343 57.13 181.273 57.34 181.133 57.48C181.623 54.82 182.253 52.23 183.023 49.64C183.303 48.73 186.103 40.12 189.533 32.14C191.003 28.5 192.823 25.07 194.853 21.71C195.553 20.73 196.253 19.82 197.093 18.98C197.373 18.77 197.583 18.56 197.793 18.42L198.073 18.21C198.143 18.14 198.213 18.14 198.283 18.07C198.353 17.93 198.423 17.86 198.493 17.72C198.703 17.37 198.843 17.02 198.843 16.6C198.843 16.32 198.773 16.11 198.563 15.9C198.423 15.69 198.143 15.62 197.863 15.62C197.653 15.62 197.373 15.62 197.163 15.69C196.953 15.76 196.813 15.83 196.673 15.9L196.603 15.97L196.463 16.04C195.973 16.39 195.483 16.88 195.063 17.37C194.223 18.35 193.523 19.4 192.963 20.45C191.283 23.6 189.813 26.82 188.623 30.11C185.963 37.53 183.653 45.79 182.533 49.5C182.253 50.48 180.923 54.19 179.663 57.76C179.033 59.51 178.473 61.19 178.053 62.52L177.423 64.62V64.69C177.353 64.97 177.283 66.37 178.403 66.51C179.103 66.58 179.663 66.23 179.943 65.6C180.083 65.46 180.153 65.32 180.223 65.11H180.293V65.04C181.203 62.66 182.323 60.42 183.583 58.18C184.773 56.01 186.173 53.84 187.713 51.81C188.483 50.83 189.253 49.92 190.163 49.01C190.933 48.17 191.913 47.4 192.963 46.84C193.383 46.63 193.873 46.56 194.363 46.56C194.853 46.63 194.923 46.7 195.063 47.05C195.203 47.54 195.273 48.1 195.133 48.59C195.063 49.22 194.923 49.78 194.783 50.41C194.153 52.86 193.173 55.24 192.683 57.9C192.543 58.6 192.473 59.3 192.473 60C192.473 60.77 192.753 61.61 193.313 62.17C193.873 62.73 194.643 63.01 195.413 63.08C196.113 63.08 196.813 63.01 197.513 62.87C200.103 62.17 202.483 60.91 204.513 59.23C206.613 57.62 208.503 55.73 210.043 53.63L209.623 53.35ZM250.594 53.49C250.454 53.42 250.314 53.42 250.314 53.42C249.194 55.03 247.934 56.5 246.534 57.83C245.134 59.23 243.664 60.49 242.054 61.61C240.514 62.73 238.834 63.64 237.014 64.34C236.174 64.69 235.264 64.97 234.354 65.18L232.954 65.46L232.254 65.53L231.554 65.6H230.154C229.664 65.6 229.174 65.6 228.754 65.53C227.844 65.46 226.934 65.32 226.024 64.97C224.414 64.55 223.084 63.36 222.454 61.75C221.894 60.07 221.824 58.32 222.174 56.57C222.454 55.31 222.734 54.05 223.154 52.79C223.224 52.65 223.294 52.58 223.294 52.58V52.51C223.364 52.37 223.364 52.23 223.364 52.09C223.504 51.74 223.574 51.46 223.714 51.11V51.04C223.854 50.41 223.434 49.78 222.804 49.64C222.384 49.5 221.894 49.5 221.474 49.78C221.474 49.57 221.334 49.36 221.264 49.22C221.124 49.01 221.054 48.87 220.914 48.66C220.704 48.38 220.494 48.24 220.284 48.03C219.164 47.12 217.624 46.77 216.224 46.98C214.474 47.33 212.864 48.24 211.674 49.43C210.344 50.83 209.294 52.37 208.454 54.05C207.614 55.73 206.844 57.55 206.354 59.37C206.074 60.28 205.864 61.26 205.864 62.17C205.724 63.15 205.934 64.13 206.284 64.97C206.704 65.88 207.474 66.44 208.454 66.72C208.594 66.72 208.874 66.79 209.084 66.79H209.364C209.504 66.79 209.574 66.79 209.644 66.72C209.854 66.72 210.064 66.72 210.274 66.65L210.764 66.44C211.884 66.02 212.934 65.39 213.914 64.62L214.824 63.85C215.244 63.5 215.734 63.01 216.294 62.52C217.554 61.26 218.674 59.93 219.654 58.53C219.654 59.93 219.934 61.33 220.424 62.59C220.914 63.64 221.614 64.62 222.524 65.32C223.434 66.02 224.414 66.51 225.464 66.79C226.514 67.07 227.564 67.21 228.614 67.28C229.104 67.28 229.594 67.28 230.154 67.28L231.694 67.14L232.464 67.07L233.164 66.93L234.704 66.58C235.684 66.3 236.594 65.95 237.574 65.53C239.394 64.69 241.074 63.71 242.684 62.45C244.294 61.19 245.764 59.86 247.094 58.39C248.424 56.92 249.614 55.38 250.734 53.7C250.734 53.63 250.664 53.56 250.594 53.49ZM220.214 53.42C219.934 54.26 219.514 55.31 219.024 56.5C218.464 57.83 217.764 59.16 216.994 60.35C216.084 61.82 214.894 63.15 213.564 64.27C213.074 64.62 212.514 65.04 211.954 65.32C211.394 65.6 210.904 65.81 210.274 65.95C209.644 66.16 208.944 66.09 208.314 65.88C207.614 65.53 207.124 64.9 206.984 64.2C206.774 63.29 206.774 62.45 206.984 61.54C207.474 59.65 208.174 57.76 209.154 56.08C209.994 54.33 211.184 52.72 212.514 51.39C213.564 50.27 214.964 49.57 216.434 49.29C217.274 49.15 218.114 49.43 218.674 50.06C218.814 50.27 218.954 50.48 218.954 50.69V50.76C219.024 50.76 219.024 50.83 219.024 50.9C219.094 50.97 219.164 51.04 219.234 51.18C219.444 51.53 219.794 51.81 220.214 51.95C220.354 52.02 220.494 52.02 220.634 52.02C220.494 52.37 220.354 52.86 220.214 53.42ZM273.064 53.21H271.874H270.124C268.444 53.14 266.834 53.28 265.154 53.42C264.174 53.56 263.124 53.77 262.144 54.12C261.094 54.54 260.114 55.1 259.204 55.8C258.294 56.57 257.524 57.48 256.824 58.46C256.194 59.44 255.564 60.42 254.934 61.4C254.234 62.31 253.604 63.29 252.904 64.2C252.764 64.41 252.554 64.62 252.414 64.83C252.274 64.97 252.134 65.18 251.924 65.32C251.924 65.39 251.854 65.39 251.714 65.39C251.644 65.39 251.574 65.39 251.504 65.32C251.434 65.25 251.434 65.18 251.364 65.11C251.294 64.9 251.224 64.69 251.224 64.48C251.084 64.06 251.014 63.57 250.944 63.01C250.874 62.03 250.874 61.05 250.874 60.07C251.014 57.2 251.504 54.33 252.274 51.53C252.624 50.48 252.904 49.36 253.114 48.38C253.324 47.4 253.604 46.42 253.184 46.07C252.694 45.79 251.924 46.42 251.294 47.26C250.594 48.31 250.104 49.5 249.754 50.69C249.054 53.7 248.634 56.85 248.704 60C248.704 61.12 248.774 62.24 248.914 63.29C248.984 63.92 249.124 64.55 249.334 65.11C249.334 65.25 249.404 65.46 249.474 65.6L249.614 65.81C249.614 65.95 249.684 66.02 249.754 66.16C249.824 66.37 249.964 66.58 250.174 66.72C250.244 66.79 250.314 66.93 250.384 67L250.664 67.21C251.084 67.42 251.574 67.49 251.994 67.35C252.484 67.21 252.904 66.93 253.184 66.58C253.464 66.37 253.674 66.09 253.884 65.81C254.094 65.53 254.234 65.32 254.444 65.04C255.074 64.06 255.704 63.01 256.334 61.96C256.964 60.98 257.594 59.86 258.224 58.95C258.784 58.04 259.484 57.2 260.324 56.5C261.934 55.24 263.824 54.47 265.784 54.26C267.394 54.05 269.004 53.91 270.614 53.84L272.294 53.77H272.924H273.064H273.134C273.204 53.77 273.274 53.63 273.274 53.56V53.49C273.274 53.35 273.204 53.21 273.064 53.21ZM301.508 53.49C301.438 53.42 301.298 53.35 301.298 53.35C296.398 57.13 291.568 60.91 286.178 63.71C283.448 65.04 280.648 66.09 277.638 65.88C276.238 65.81 274.838 65.46 273.578 64.83C272.458 64.13 271.688 62.94 271.478 61.68C271.268 60.28 271.408 58.81 271.758 57.48C272.178 56.08 272.808 54.82 273.718 53.63C274.558 52.51 275.538 51.46 276.728 50.62C277.778 49.78 279.108 49.15 280.438 48.87C280.998 48.73 281.628 48.73 282.258 48.87C282.538 48.94 282.748 49.01 282.958 49.15C283.098 49.22 283.238 49.36 283.308 49.5C283.448 49.99 283.448 50.48 283.308 50.97C283.098 51.53 282.818 52.02 282.398 52.37C281.418 53.35 280.228 54.12 278.968 54.61C277.848 55.17 276.518 55.38 275.258 55.24H275.188H275.118C274.418 55.17 273.718 55.52 273.438 56.22C273.158 56.85 273.718 57.76 274.768 57.9H274.908C276.658 58.11 278.478 57.76 280.088 56.99C280.788 56.57 281.558 56.22 282.188 55.73C282.958 55.24 283.588 54.68 284.218 54.05C284.848 53.35 285.338 52.51 285.618 51.53C285.898 50.55 285.828 49.43 285.338 48.52C285.058 47.96 284.638 47.54 284.148 47.19C283.728 46.98 283.238 46.77 282.678 46.7C281.768 46.49 280.858 46.56 279.948 46.77C278.338 47.19 276.798 47.96 275.468 49.01C274.208 49.99 273.088 51.18 272.178 52.58C270.218 55.24 269.378 58.67 269.938 61.96C270.078 62.8 270.428 63.64 270.918 64.34C271.408 65.04 272.038 65.67 272.878 66.09C274.348 66.86 275.958 67.21 277.638 67.14C278.408 67.21 279.248 67.14 280.018 67.07L281.208 66.86L282.328 66.51C283.868 66.02 285.268 65.39 286.668 64.62C292.128 61.61 296.818 57.62 301.578 53.77C301.648 53.7 301.578 53.63 301.508 53.49Z" fill="#E9D6D6"/>
<path d="M254.84 120.49C254.7 120.42 254.56 120.42 254.56 120.42C253.44 122.03 252.18 123.5 250.78 124.83C249.38 126.23 247.91 127.49 246.3 128.61C244.76 129.73 243.08 130.64 241.26 131.34C240.42 131.69 239.51 131.97 238.6 132.18L237.2 132.46L236.5 132.53L235.8 132.6H234.4C233.91 132.6 233.42 132.6 233 132.53C232.09 132.46 231.18 132.32 230.27 131.97C228.66 131.55 227.33 130.36 226.7 128.75C226.14 127.07 226.07 125.32 226.42 123.57C226.7 122.31 226.98 121.05 227.4 119.79C227.47 119.65 227.54 119.58 227.54 119.58V119.51C227.61 119.37 227.61 119.23 227.61 119.09C227.75 118.74 227.82 118.46 227.96 118.11V118.04C228.1 117.41 227.68 116.78 227.05 116.64C226.63 116.5 226.14 116.5 225.72 116.78C225.72 116.57 225.58 116.36 225.51 116.22C225.37 116.01 225.3 115.87 225.16 115.66C224.95 115.38 224.74 115.24 224.53 115.03C223.41 114.12 221.87 113.77 220.47 113.98C218.72 114.33 217.11 115.24 215.92 116.43C214.59 117.83 213.54 119.37 212.7 121.05C211.86 122.73 211.09 124.55 210.6 126.37C210.32 127.28 210.11 128.26 210.11 129.17C209.97 130.15 210.18 131.13 210.53 131.97C210.95 132.88 211.72 133.44 212.7 133.72C212.84 133.72 213.12 133.79 213.33 133.79H213.61C213.75 133.79 213.82 133.79 213.89 133.72C214.1 133.72 214.31 133.72 214.52 133.65L215.01 133.44C216.13 133.02 217.18 132.39 218.16 131.62L219.07 130.85C219.49 130.5 219.98 130.01 220.54 129.52C221.8 128.26 222.92 126.93 223.9 125.53C223.9 126.93 224.18 128.33 224.67 129.59C225.16 130.64 225.86 131.62 226.77 132.32C227.68 133.02 228.66 133.51 229.71 133.79C230.76 134.07 231.81 134.21 232.86 134.28C233.35 134.28 233.84 134.28 234.4 134.28L235.94 134.14L236.71 134.07L237.41 133.93L238.95 133.58C239.93 133.3 240.84 132.95 241.82 132.53C243.64 131.69 245.32 130.71 246.93 129.45C248.54 128.19 250.01 126.86 251.34 125.39C252.67 123.92 253.86 122.38 254.98 120.7C254.98 120.63 254.91 120.56 254.84 120.49ZM224.46 120.42C224.18 121.26 223.76 122.31 223.27 123.5C222.71 124.83 222.01 126.16 221.24 127.35C220.33 128.82 219.14 130.15 217.81 131.27C217.32 131.62 216.76 132.04 216.2 132.32C215.64 132.6 215.15 132.81 214.52 132.95C213.89 133.16 213.19 133.09 212.56 132.88C211.86 132.53 211.37 131.9 211.23 131.2C211.02 130.29 211.02 129.45 211.23 128.54C211.72 126.65 212.42 124.76 213.4 123.08C214.24 121.33 215.43 119.72 216.76 118.39C217.81 117.27 219.21 116.57 220.68 116.29C221.52 116.15 222.36 116.43 222.92 117.06C223.06 117.27 223.2 117.48 223.2 117.69V117.76C223.27 117.76 223.27 117.83 223.27 117.9C223.34 117.97 223.41 118.04 223.48 118.18C223.69 118.53 224.04 118.81 224.46 118.95C224.6 119.02 224.74 119.02 224.88 119.02C224.74 119.37 224.6 119.86 224.46 120.42ZM294.475 120.49C294.265 120.21 293.845 120.07 293.495 120.28H293.425V120.35C293.075 120.56 292.375 121.19 291.325 121.96C290.765 122.31 290.065 122.66 289.365 123.08L288.805 123.43L288.245 123.64C287.825 123.85 287.405 123.99 286.985 124.2C286.705 124.34 286.355 124.41 286.005 124.55L284.045 125.11C282.155 125.53 280.195 125.74 278.235 125.74C278.165 125.74 278.025 125.74 277.885 125.74C277.605 125.11 277.325 124.41 277.045 123.71C276.485 122.24 276.135 120.7 275.995 119.16C275.925 118.46 275.995 117.69 276.135 116.99C276.205 116.5 276.485 116.08 276.975 115.8C277.395 115.59 277.955 115.52 278.445 115.59C278.935 115.66 279.495 115.87 279.915 116.08C280.545 116.36 281.035 116.85 281.385 117.48C281.455 117.62 281.525 117.83 281.525 118.04C281.525 118.25 281.665 118.39 281.735 118.53C282.015 118.81 282.295 119.09 282.715 119.23C283.135 119.37 283.625 119.23 283.905 118.81C284.115 118.53 284.185 118.18 284.185 117.83V117.76V117.62C284.115 117.48 284.115 117.27 284.045 116.99C283.905 116.64 283.695 116.29 283.485 115.94C282.855 115.03 281.945 114.33 280.895 113.98C279.565 113.35 278.025 113.28 276.625 113.77C276.415 113.84 276.205 113.91 275.995 114.05C275.855 114.19 275.645 114.33 275.435 114.47C275.295 114.68 275.085 114.82 274.945 115.03C274.875 115.24 274.735 115.45 274.665 115.66C274.385 116.43 274.245 117.27 274.315 118.11C274.385 119.72 274.735 121.26 275.365 122.73C275.715 123.71 276.205 124.69 276.695 125.67C275.365 125.53 274.105 125.25 272.845 124.83C272.075 124.55 271.305 124.2 270.605 123.85H270.535C270.535 123.78 270.465 123.78 270.465 123.78C270.255 123.64 269.975 123.57 269.765 123.57C269.275 123.57 268.855 123.78 268.645 124.2C268.505 124.41 268.435 124.76 268.435 125.04L268.505 125.11V125.18C268.925 126.79 269.765 128.33 270.955 129.52C271.865 130.5 272.915 131.34 273.965 132.04C274.595 132.46 275.225 132.81 275.925 133.09C276.625 133.51 277.395 133.72 278.235 133.79H278.515C278.655 133.79 278.795 133.79 278.935 133.72C279.215 133.65 279.425 133.51 279.565 133.3C279.705 133.09 279.845 132.81 279.915 132.53C279.985 132.04 279.985 131.62 279.915 131.2C279.775 130.01 279.425 128.82 278.935 127.77C278.725 127.35 278.515 126.93 278.305 126.51C278.515 126.44 278.725 126.44 279.005 126.44L279.705 126.37L280.405 126.23L281.805 126.02L283.065 125.74C283.905 125.53 284.675 125.32 285.375 125.04L286.355 124.69L287.055 124.41C287.265 124.34 287.895 124.13 288.595 123.92C289.295 123.64 290.135 123.29 290.975 122.94C291.815 122.59 292.585 122.24 293.215 121.96L294.195 121.47C294.335 121.4 294.825 120.98 294.475 120.49ZM279.005 130.22C279.425 131.27 279.565 132.39 279.145 132.95C279.075 133.16 278.865 133.23 278.655 133.3C278.515 133.3 278.375 133.3 278.235 133.3C277.395 133.16 276.625 132.81 275.925 132.32C274.805 131.55 273.755 130.57 272.985 129.45C272.215 128.47 271.655 127.42 271.375 126.23C271.305 126.02 271.235 125.74 271.235 125.53C271.585 125.67 272.005 125.81 272.425 125.95C273.965 126.3 275.575 126.51 277.185 126.51C277.255 126.58 277.255 126.65 277.325 126.72C278.025 127.84 278.585 128.96 279.005 130.22ZM327.321 120.49C327.321 120.42 327.181 120.35 327.111 120.35L325.711 121.05C324.941 121.4 324.171 121.75 323.401 122.03L322.981 122.24C322.631 122.38 322.211 122.52 321.861 122.59L321.441 122.73C321.301 122.8 321.161 122.8 320.951 122.87C319.271 123.36 317.521 123.36 315.841 122.8C316.331 121.96 316.751 121.05 317.101 120.14C317.311 119.58 317.381 119.02 317.311 118.46C317.241 117.9 317.031 117.34 316.611 116.92C315.771 116.15 314.511 115.94 313.461 116.5C312.971 116.71 312.481 117.13 312.201 117.62C311.991 117.83 311.921 118.11 311.781 118.39C311.711 118.6 311.641 118.88 311.571 119.16C311.291 120.21 311.501 121.4 312.131 122.31C312.271 122.52 312.411 122.73 312.621 122.87C312.761 123.01 312.971 123.15 313.181 123.29C313.601 123.57 314.021 123.71 314.441 123.85C314.511 123.85 314.581 123.85 314.651 123.85V123.92C314.511 124.06 314.441 124.27 314.301 124.48C314.021 124.9 313.741 125.32 313.461 125.81L313.881 126.02C314.231 125.6 314.511 125.11 314.791 124.62C314.861 124.55 314.861 124.48 314.931 124.41C315.001 124.27 315.071 124.13 315.211 123.99C315.911 124.06 316.681 124.06 317.381 123.99C318.711 123.92 320.041 123.64 321.301 123.29L322.631 122.87L323.261 122.66L323.541 122.52L323.891 122.38C324.591 122.1 325.221 121.82 325.921 121.54C326.411 121.26 326.901 120.98 327.321 120.7C327.391 120.63 327.391 120.56 327.321 120.49ZM315.071 122.38C314.861 122.17 314.651 121.96 314.441 121.75C314.371 121.68 314.301 121.54 314.301 121.47C314.231 121.33 314.161 121.26 314.161 121.12C314.091 120.7 314.091 120.21 314.161 119.72C314.231 119.58 314.301 119.44 314.301 119.3C314.371 119.16 314.371 119.09 314.441 118.95C314.511 118.81 314.581 118.67 314.651 118.53C314.931 118.25 315.281 118.11 315.631 118.18C315.841 118.25 316.051 118.46 316.121 118.74C316.261 119.09 316.331 119.51 316.261 119.93C316.121 120.84 315.841 121.75 315.351 122.52C315.281 122.45 315.211 122.45 315.071 122.38ZM311.291 128.47C310.521 129.31 309.751 130.08 308.841 130.78C308.071 131.55 307.091 132.11 306.111 132.53C305.691 132.67 305.271 132.74 304.851 132.67C304.431 132.53 304.081 132.25 303.871 131.97C303.451 131.06 303.241 130.08 303.311 129.1C303.381 128.05 303.521 126.93 303.801 125.88C304.291 123.71 304.991 121.54 305.831 119.44C305.901 119.09 305.481 118.67 304.781 118.39C304.081 118.11 303.381 118.18 303.311 118.53H303.241C302.751 120.28 302.331 121.96 301.981 123.78C300.791 125.67 299.531 127.49 298.131 129.24C297.361 130.15 296.521 131.06 295.611 131.83C295.401 131.97 295.191 132.18 294.911 132.32C294.841 132.39 294.701 132.46 294.561 132.53C294.491 132.6 294.491 132.6 294.421 132.6C294.351 132.67 294.351 132.67 294.281 132.67C294.141 132.74 294.001 132.74 293.861 132.67C293.721 132.67 293.581 132.53 293.581 132.39C293.511 132.32 293.511 132.18 293.511 132.11C293.441 131.9 293.441 131.76 293.441 131.55C293.441 131.2 293.371 130.78 293.441 130.43C293.441 130.01 293.441 129.66 293.511 129.24C293.511 128.82 293.581 128.47 293.651 128.05C293.861 126.44 294.141 124.9 294.491 123.29C295.261 120.21 296.311 117.2 297.781 114.4C297.991 114.05 297.571 113.49 296.941 113.07C296.311 112.72 295.611 112.72 295.401 113.14C294.001 116.29 293.021 119.51 292.461 122.87C292.181 124.55 291.971 126.23 291.901 127.84C291.831 128.26 291.831 128.68 291.831 129.1C291.761 129.59 291.831 130.01 291.831 130.43C291.831 130.85 291.901 131.27 291.901 131.69C291.901 131.97 291.971 132.18 292.041 132.39C292.111 132.67 292.251 133.02 292.321 133.23C292.531 133.65 292.951 133.93 293.371 134.07C293.931 134.14 294.491 134.07 294.981 133.79C295.051 133.72 295.121 133.72 295.261 133.65C295.401 133.58 295.541 133.44 295.681 133.37C295.891 133.16 296.171 132.95 296.381 132.74C297.291 131.83 298.131 130.85 298.831 129.8C299.881 128.4 300.861 126.86 301.701 125.32C301.701 125.39 301.701 125.46 301.701 125.53C301.491 126.72 301.421 127.91 301.421 129.17C301.421 130.5 301.841 131.83 302.611 132.95C303.101 133.51 303.731 133.93 304.501 134.07C305.201 134.14 305.971 134.07 306.601 133.72C307.721 133.23 308.701 132.46 309.541 131.62C310.381 130.78 311.151 129.87 311.921 128.96C312.621 127.98 313.181 127 313.881 126.02L313.461 125.81C312.761 126.65 312.061 127.56 311.291 128.47ZM355.588 120.49C355.518 120.42 355.378 120.35 355.378 120.35C350.478 124.13 345.648 127.91 340.258 130.71C337.528 132.04 334.728 133.09 331.718 132.88C330.318 132.81 328.918 132.46 327.658 131.83C326.538 131.13 325.768 129.94 325.558 128.68C325.348 127.28 325.488 125.81 325.838 124.48C326.258 123.08 326.888 121.82 327.798 120.63C328.638 119.51 329.618 118.46 330.808 117.62C331.858 116.78 333.188 116.15 334.518 115.87C335.078 115.73 335.708 115.73 336.338 115.87C336.618 115.94 336.828 116.01 337.038 116.15C337.178 116.22 337.318 116.36 337.388 116.5C337.528 116.99 337.528 117.48 337.388 117.97C337.178 118.53 336.898 119.02 336.478 119.37C335.498 120.35 334.308 121.12 333.048 121.61C331.928 122.17 330.598 122.38 329.338 122.24H329.268H329.198C328.498 122.17 327.798 122.52 327.518 123.22C327.238 123.85 327.798 124.76 328.848 124.9H328.988C330.738 125.11 332.558 124.76 334.168 123.99C334.868 123.57 335.638 123.22 336.268 122.73C337.038 122.24 337.668 121.68 338.298 121.05C338.928 120.35 339.418 119.51 339.698 118.53C339.978 117.55 339.908 116.43 339.418 115.52C339.138 114.96 338.718 114.54 338.228 114.19C337.808 113.98 337.318 113.77 336.758 113.7C335.848 113.49 334.938 113.56 334.028 113.77C332.418 114.19 330.878 114.96 329.548 116.01C328.288 116.99 327.168 118.18 326.258 119.58C324.298 122.24 323.458 125.67 324.018 128.96C324.158 129.8 324.508 130.64 324.998 131.34C325.488 132.04 326.118 132.67 326.958 133.09C328.428 133.86 330.038 134.21 331.718 134.14C332.488 134.21 333.328 134.14 334.098 134.07L335.288 133.86L336.408 133.51C337.948 133.02 339.348 132.39 340.748 131.62C346.208 128.61 350.898 124.62 355.658 120.77C355.728 120.7 355.658 120.63 355.588 120.49ZM384.026 120.49C383.956 120.42 383.816 120.35 383.816 120.35C378.916 124.13 374.086 127.91 368.696 130.71C365.966 132.04 363.166 133.09 360.156 132.88C358.756 132.81 357.356 132.46 356.096 131.83C354.976 131.13 354.206 129.94 353.996 128.68C353.786 127.28 353.926 125.81 354.276 124.48C354.696 123.08 355.326 121.82 356.236 120.63C357.076 119.51 358.056 118.46 359.246 117.62C360.296 116.78 361.626 116.15 362.956 115.87C363.516 115.73 364.146 115.73 364.776 115.87C365.056 115.94 365.266 116.01 365.476 116.15C365.616 116.22 365.756 116.36 365.826 116.5C365.966 116.99 365.966 117.48 365.826 117.97C365.616 118.53 365.336 119.02 364.916 119.37C363.936 120.35 362.746 121.12 361.486 121.61C360.366 122.17 359.036 122.38 357.776 122.24H357.706H357.636C356.936 122.17 356.236 122.52 355.956 123.22C355.676 123.85 356.236 124.76 357.286 124.9H357.426C359.176 125.11 360.996 124.76 362.606 123.99C363.306 123.57 364.076 123.22 364.706 122.73C365.476 122.24 366.106 121.68 366.736 121.05C367.366 120.35 367.856 119.51 368.136 118.53C368.416 117.55 368.346 116.43 367.856 115.52C367.576 114.96 367.156 114.54 366.666 114.19C366.246 113.98 365.756 113.77 365.196 113.7C364.286 113.49 363.376 113.56 362.466 113.77C360.856 114.19 359.316 114.96 357.986 116.01C356.726 116.99 355.606 118.18 354.696 119.58C352.736 122.24 351.896 125.67 352.456 128.96C352.596 129.8 352.946 130.64 353.436 131.34C353.926 132.04 354.556 132.67 355.396 133.09C356.866 133.86 358.476 134.21 360.156 134.14C360.926 134.21 361.766 134.14 362.536 134.07L363.726 133.86L364.846 133.51C366.386 133.02 367.786 132.39 369.186 131.62C374.646 128.61 379.336 124.62 384.096 120.77C384.166 120.7 384.096 120.63 384.026 120.49ZM413.373 96.9C413.373 96.76 413.233 96.69 413.093 96.69L410.923 96.97L407.353 97.39C404.623 97.67 401.193 98.02 397.763 98.23C396.013 98.3 394.193 98.37 392.443 98.44C393.143 96.62 393.913 94.87 394.753 93.12C395.523 91.65 396.293 90.18 397.133 88.78C397.553 88.08 398.043 87.45 398.533 86.82C398.953 86.26 399.513 85.77 400.073 85.35L400.143 85.28C400.423 85.07 400.563 84.86 400.703 84.58C400.843 84.23 400.983 83.95 400.983 83.6C400.983 83.18 400.703 82.83 400.283 82.69C399.723 82.55 399.093 82.69 398.673 83.04H398.603L398.533 83.11C397.693 83.67 397.063 84.37 396.433 85.21C395.943 85.91 395.383 86.68 394.963 87.45C394.053 88.92 393.283 90.46 392.583 92.07C391.603 94.17 390.763 96.27 389.993 98.44C389.293 98.44 388.593 98.44 387.963 98.44C386.703 98.37 385.583 98.3 384.603 98.23C384.673 98.23 384.743 98.16 384.813 98.16C384.883 98.16 384.953 98.09 384.953 98.09C385.023 98.02 385.093 97.95 385.023 97.88V97.81C384.953 97.67 384.813 97.6 384.673 97.67C383.623 97.67 382.643 97.46 381.663 97.11C381.103 96.9 380.543 96.83 379.913 96.76C379.423 96.69 379.003 96.76 378.583 96.97C378.093 97.18 377.743 97.53 377.463 98.02C377.393 98.16 377.393 98.3 377.393 98.44C377.393 98.44 377.393 98.51 377.323 98.51C377.183 99 377.813 99.49 378.443 99.84C379.283 100.26 380.193 100.47 381.103 100.54C383.413 100.68 385.653 100.75 387.963 100.61C388.383 100.61 388.803 100.61 389.223 100.61C389.083 100.96 388.943 101.31 388.803 101.66C387.683 104.88 386.703 108.1 385.723 111.39C384.673 114.61 383.903 117.97 383.343 121.33C383.063 123.08 382.993 124.83 383.063 126.58C383.063 128.4 383.623 130.22 384.673 131.76C385.233 132.53 386.003 133.09 386.843 133.51C387.753 133.86 388.663 134.07 389.573 134.07C391.323 134.07 393.073 133.79 394.753 133.23C398.043 132.04 400.983 130.22 403.503 127.77C405.953 125.39 407.983 122.59 409.523 119.58L409.103 119.3C407.493 122.31 405.463 124.97 402.943 127.21C400.493 129.45 397.623 131.2 394.403 132.25C392.863 132.74 391.253 132.95 389.643 132.88C388.103 132.88 386.633 132.18 385.723 130.99C384.883 129.59 384.463 128.05 384.533 126.51C384.463 124.83 384.603 123.22 384.953 121.61C385.513 118.32 386.423 115.1 387.473 111.95C388.593 108.73 389.643 105.51 390.903 102.36C391.113 101.73 391.393 101.03 391.603 100.4C393.703 100.26 395.943 99.98 398.183 99.7C401.683 99.28 405.113 98.72 407.843 98.23L411.413 97.6L412.603 97.32L413.093 97.25L413.233 97.18H413.303C413.373 97.18 413.443 97.04 413.443 96.97L413.373 96.9ZM458.285 96.9C458.285 96.76 458.145 96.69 458.005 96.69L455.835 96.97L452.265 97.39C449.535 97.67 446.105 98.02 442.675 98.23C440.925 98.3 439.105 98.37 437.355 98.44C438.055 96.62 438.825 94.87 439.665 93.12C440.435 91.65 441.205 90.18 442.045 88.78C442.465 88.08 442.955 87.45 443.445 86.82C443.865 86.26 444.425 85.77 444.985 85.35L445.055 85.28C445.335 85.07 445.475 84.86 445.615 84.58C445.755 84.23 445.895 83.95 445.895 83.6C445.895 83.18 445.615 82.83 445.195 82.69C444.635 82.55 444.005 82.69 443.585 83.04H443.515L443.445 83.11C442.605 83.67 441.975 84.37 441.345 85.21C440.855 85.91 440.295 86.68 439.875 87.45C438.965 88.92 438.195 90.46 437.495 92.07C436.515 94.17 435.675 96.27 434.905 98.44C434.205 98.44 433.505 98.44 432.875 98.44C431.615 98.37 430.495 98.3 429.515 98.23C429.585 98.23 429.655 98.16 429.725 98.16C429.795 98.16 429.865 98.09 429.865 98.09C429.935 98.02 430.005 97.95 429.935 97.88V97.81C429.865 97.67 429.725 97.6 429.585 97.67C428.535 97.67 427.555 97.46 426.575 97.11C426.015 96.9 425.455 96.83 424.825 96.76C424.335 96.69 423.915 96.76 423.495 96.97C423.005 97.18 422.655 97.53 422.375 98.02C422.305 98.16 422.305 98.3 422.305 98.44C422.305 98.44 422.305 98.51 422.235 98.51C422.095 99 422.725 99.49 423.355 99.84C424.195 100.26 425.105 100.47 426.015 100.54C428.325 100.68 430.565 100.75 432.875 100.61C433.295 100.61 433.715 100.61 434.135 100.61C433.995 100.96 433.855 101.31 433.715 101.66C432.595 104.88 431.615 108.1 430.635 111.39C429.585 114.61 428.815 117.97 428.255 121.33C427.975 123.08 427.905 124.83 427.975 126.58C427.975 128.4 428.535 130.22 429.585 131.76C430.145 132.53 430.915 133.09 431.755 133.51C432.665 133.86 433.575 134.07 434.485 134.07C436.235 134.07 437.985 133.79 439.665 133.23C442.955 132.04 445.895 130.22 448.415 127.77C450.865 125.39 452.895 122.59 454.435 119.58L454.015 119.3C452.405 122.31 450.375 124.97 447.855 127.21C445.405 129.45 442.535 131.2 439.315 132.25C437.775 132.74 436.165 132.95 434.555 132.88C433.015 132.88 431.545 132.18 430.635 130.99C429.795 129.59 429.375 128.05 429.445 126.51C429.375 124.83 429.515 123.22 429.865 121.61C430.425 118.32 431.335 115.1 432.385 111.95C433.505 108.73 434.555 105.51 435.815 102.36C436.025 101.73 436.305 101.03 436.515 100.4C438.615 100.26 440.855 99.98 443.095 99.7C446.595 99.28 450.025 98.72 452.755 98.23L456.325 97.6L457.515 97.32L458.005 97.25L458.145 97.18H458.215C458.285 97.18 458.355 97.04 458.355 96.97L458.285 96.9ZM476.583 120.35C475.463 121.54 474.133 122.52 472.733 123.36C470.703 124.48 468.533 125.25 466.223 125.6C464.823 125.74 463.353 125.74 461.953 125.39C462.723 123.85 463.353 122.31 463.773 120.63C464.053 119.72 464.123 118.81 464.123 117.9C464.193 116.99 463.843 116.08 463.213 115.38C462.863 115.03 462.373 114.82 461.953 114.68H461.883C461.953 113.91 461.673 113.35 461.183 113.35H461.113C459.643 113.56 458.243 114.19 457.123 115.17C456.073 116.01 455.093 116.99 454.323 118.11C452.783 120.21 451.593 122.59 450.823 125.11C450.473 126.3 450.193 127.63 450.123 128.96C450.053 129.59 450.053 130.29 450.193 130.92C450.333 131.69 450.613 132.32 451.033 132.88C451.523 133.51 452.293 133.86 452.993 133.86C453.693 133.93 454.393 133.86 455.023 133.58C456.213 133.09 457.333 132.25 458.173 131.27C459.293 130.08 460.273 128.68 461.113 127.21C461.113 127.07 461.183 127 461.253 126.93H461.323C463.073 127 464.753 126.86 466.363 126.37C468.673 125.81 470.913 124.97 472.943 123.78C474.413 122.94 475.743 121.89 476.933 120.63L476.583 120.35ZM460.623 126.93C459.853 128.4 458.943 129.73 457.823 130.92C456.983 131.83 455.933 132.46 454.813 132.88C453.693 133.16 452.433 133.09 451.873 132.25C451.313 131.27 451.173 130.15 451.383 129.03C451.593 127.84 451.873 126.72 452.363 125.6C453.203 123.36 454.463 121.26 456.003 119.44C456.073 119.37 456.073 119.3 456.143 119.3C456.073 119.51 456.003 119.79 455.933 120.07C455.513 121.82 455.933 123.71 457.123 125.11C457.683 125.67 458.383 126.16 459.153 126.44C459.643 126.65 460.203 126.72 460.693 126.86C460.693 126.86 460.693 126.93 460.623 126.93ZM459.993 124.62C459.643 124.34 459.223 123.99 459.013 123.64C458.733 123.22 458.593 122.8 458.523 122.31C458.453 121.75 458.523 121.19 458.663 120.56C458.803 119.44 459.293 118.32 459.993 117.41C460.273 117.06 460.623 116.78 461.043 116.57C461.393 116.36 461.813 116.36 462.163 116.57C462.583 116.92 462.863 117.48 462.933 118.04C463.073 118.81 463.073 119.65 462.933 120.49C462.653 122.17 462.163 123.78 461.463 125.25C460.973 125.11 460.483 124.9 459.993 124.62ZM499.278 120.35C498.158 121.54 496.828 122.52 495.428 123.36C493.398 124.48 491.228 125.25 488.918 125.6C487.518 125.74 486.048 125.74 484.648 125.39C485.418 123.85 486.048 122.31 486.468 120.63C486.748 119.72 486.818 118.81 486.818 117.9C486.888 116.99 486.538 116.08 485.908 115.38C485.558 115.03 485.068 114.82 484.648 114.68H484.578C484.648 113.91 484.368 113.35 483.878 113.35H483.808C482.338 113.56 480.938 114.19 479.818 115.17C478.768 116.01 477.788 116.99 477.018 118.11C475.478 120.21 474.288 122.59 473.518 125.11C473.168 126.3 472.888 127.63 472.818 128.96C472.748 129.59 472.748 130.29 472.888 130.92C473.028 131.69 473.308 132.32 473.728 132.88C474.218 133.51 474.988 133.86 475.688 133.86C476.388 133.93 477.088 133.86 477.718 133.58C478.908 133.09 480.028 132.25 480.868 131.27C481.988 130.08 482.968 128.68 483.808 127.21C483.808 127.07 483.878 127 483.948 126.93H484.018C485.768 127 487.448 126.86 489.058 126.37C491.368 125.81 493.608 124.97 495.638 123.78C497.108 122.94 498.438 121.89 499.628 120.63L499.278 120.35ZM483.318 126.93C482.548 128.4 481.638 129.73 480.518 130.92C479.678 131.83 478.628 132.46 477.508 132.88C476.388 133.16 475.128 133.09 474.568 132.25C474.008 131.27 473.868 130.15 474.078 129.03C474.288 127.84 474.568 126.72 475.058 125.6C475.898 123.36 477.158 121.26 478.698 119.44C478.768 119.37 478.768 119.3 478.838 119.3C478.768 119.51 478.698 119.79 478.628 120.07C478.208 121.82 478.628 123.71 479.818 125.11C480.378 125.67 481.078 126.16 481.848 126.44C482.338 126.65 482.898 126.72 483.388 126.86C483.388 126.86 483.388 126.93 483.318 126.93ZM482.688 124.62C482.338 124.34 481.918 123.99 481.708 123.64C481.428 123.22 481.288 122.8 481.218 122.31C481.148 121.75 481.218 121.19 481.358 120.56C481.498 119.44 481.988 118.32 482.688 117.41C482.968 117.06 483.318 116.78 483.738 116.57C484.088 116.36 484.508 116.36 484.858 116.57C485.278 116.92 485.558 117.48 485.628 118.04C485.768 118.81 485.768 119.65 485.628 120.49C485.348 122.17 484.858 123.78 484.158 125.25C483.668 125.11 483.178 124.9 482.688 124.62ZM528.764 96.9C528.764 96.76 528.624 96.69 528.484 96.69L526.314 96.97L522.744 97.39C520.014 97.67 516.584 98.02 513.154 98.23C511.404 98.3 509.584 98.37 507.834 98.44C508.534 96.62 509.304 94.87 510.144 93.12C510.914 91.65 511.684 90.18 512.524 88.78C512.944 88.08 513.434 87.45 513.924 86.82C514.344 86.26 514.904 85.77 515.464 85.35L515.534 85.28C515.814 85.07 515.954 84.86 516.094 84.58C516.234 84.23 516.374 83.95 516.374 83.6C516.374 83.18 516.094 82.83 515.674 82.69C515.114 82.55 514.484 82.69 514.064 83.04H513.994L513.924 83.11C513.084 83.67 512.454 84.37 511.824 85.21C511.334 85.91 510.774 86.68 510.354 87.45C509.444 88.92 508.674 90.46 507.974 92.07C506.994 94.17 506.154 96.27 505.384 98.44C504.684 98.44 503.984 98.44 503.354 98.44C502.094 98.37 500.974 98.3 499.994 98.23C500.064 98.23 500.134 98.16 500.204 98.16C500.274 98.16 500.344 98.09 500.344 98.09C500.414 98.02 500.484 97.95 500.414 97.88V97.81C500.344 97.67 500.204 97.6 500.064 97.67C499.014 97.67 498.034 97.46 497.054 97.11C496.494 96.9 495.934 96.83 495.304 96.76C494.814 96.69 494.394 96.76 493.974 96.97C493.484 97.18 493.134 97.53 492.854 98.02C492.784 98.16 492.784 98.3 492.784 98.44C492.784 98.44 492.784 98.51 492.714 98.51C492.574 99 493.204 99.49 493.834 99.84C494.674 100.26 495.584 100.47 496.494 100.54C498.804 100.68 501.044 100.75 503.354 100.61C503.774 100.61 504.194 100.61 504.614 100.61C504.474 100.96 504.334 101.31 504.194 101.66C503.074 104.88 502.094 108.1 501.114 111.39C500.064 114.61 499.294 117.97 498.734 121.33C498.454 123.08 498.384 124.83 498.454 126.58C498.454 128.4 499.014 130.22 500.064 131.76C500.624 132.53 501.394 133.09 502.234 133.51C503.144 133.86 504.054 134.07 504.964 134.07C506.714 134.07 508.464 133.79 510.144 133.23C513.434 132.04 516.374 130.22 518.894 127.77C521.344 125.39 523.374 122.59 524.914 119.58L524.494 119.3C522.884 122.31 520.854 124.97 518.334 127.21C515.884 129.45 513.014 131.2 509.794 132.25C508.254 132.74 506.644 132.95 505.034 132.88C503.494 132.88 502.024 132.18 501.114 130.99C500.274 129.59 499.854 128.05 499.924 126.51C499.854 124.83 499.994 123.22 500.344 121.61C500.904 118.32 501.814 115.1 502.864 111.95C503.984 108.73 505.034 105.51 506.294 102.36C506.504 101.73 506.784 101.03 506.994 100.4C509.094 100.26 511.334 99.98 513.574 99.7C517.074 99.28 520.504 98.72 523.234 98.23L526.804 97.6L527.994 97.32L528.484 97.25L528.624 97.18H528.694C528.764 97.18 528.834 97.04 528.834 96.97L528.764 96.9ZM552.043 120.35C550.503 122.38 548.613 124.13 546.513 125.6C544.483 127.14 542.173 128.26 539.723 128.82C539.163 128.96 538.533 129.03 537.973 128.96C537.483 128.89 536.993 128.68 536.573 128.33C536.293 127.98 536.083 127.42 536.153 126.93C536.153 126.37 536.223 125.74 536.363 125.18C536.923 122.73 537.973 120.35 538.743 117.83C538.953 117.2 539.093 116.5 539.233 115.87C539.373 115.1 539.373 114.26 539.163 113.49C539.023 113.07 538.743 112.58 538.323 112.3C538.113 112.16 537.903 112.02 537.693 111.95C537.483 111.88 537.273 111.81 536.993 111.81C536.573 111.74 536.153 111.74 535.733 111.81C535.383 111.88 535.033 112.02 534.613 112.16C533.353 112.72 532.163 113.56 531.183 114.54C530.203 115.45 529.293 116.43 528.453 117.48C526.773 119.58 525.233 121.68 523.903 123.99C523.763 124.13 523.693 124.34 523.553 124.48C524.043 121.82 524.673 119.23 525.443 116.64C525.723 115.73 528.523 107.12 531.953 99.14C533.423 95.5 535.243 92.07 537.273 88.71C537.973 87.73 538.673 86.82 539.513 85.98C539.793 85.77 540.003 85.56 540.213 85.42L540.493 85.21C540.563 85.14 540.633 85.14 540.703 85.07C540.773 84.93 540.843 84.86 540.913 84.72C541.123 84.37 541.263 84.02 541.263 83.6C541.263 83.32 541.193 83.11 540.983 82.9C540.843 82.69 540.563 82.62 540.283 82.62C540.073 82.62 539.793 82.62 539.583 82.69C539.373 82.76 539.233 82.83 539.093 82.9L539.023 82.97L538.883 83.04C538.393 83.39 537.903 83.88 537.483 84.37C536.643 85.35 535.943 86.4 535.383 87.45C533.703 90.6 532.233 93.82 531.043 97.11C528.383 104.53 526.073 112.79 524.953 116.5C524.673 117.48 523.343 121.19 522.083 124.76C521.453 126.51 520.893 128.19 520.473 129.52L519.843 131.62V131.69C519.773 131.97 519.703 133.37 520.823 133.51C521.523 133.58 522.083 133.23 522.363 132.6C522.503 132.46 522.573 132.32 522.643 132.11H522.713V132.04C523.623 129.66 524.743 127.42 526.003 125.18C527.193 123.01 528.593 120.84 530.133 118.81C530.903 117.83 531.673 116.92 532.583 116.01C533.353 115.17 534.333 114.4 535.383 113.84C535.803 113.63 536.293 113.56 536.783 113.56C537.273 113.63 537.343 113.7 537.483 114.05C537.623 114.54 537.693 115.1 537.553 115.59C537.483 116.22 537.343 116.78 537.203 117.41C536.573 119.86 535.593 122.24 535.103 124.9C534.963 125.6 534.893 126.3 534.893 127C534.893 127.77 535.173 128.61 535.733 129.17C536.293 129.73 537.063 130.01 537.833 130.08C538.533 130.08 539.233 130.01 539.933 129.87C542.523 129.17 544.903 127.91 546.933 126.23C549.033 124.62 550.923 122.73 552.463 120.63L552.043 120.35ZM579.721 85.28C579.581 84.37 579.161 83.53 578.531 82.83C577.971 82.2 577.271 81.64 576.431 81.22C574.961 80.45 573.281 79.96 571.601 79.68C568.381 79.19 565.021 79.33 561.801 80.03C558.931 80.59 556.271 81.78 553.961 83.67C553.051 84.44 552.211 85.35 551.651 86.47C551.161 87.31 550.811 88.22 550.601 89.13C550.461 89.76 550.461 90.39 550.461 91.02V91.65V91.79C550.531 92.28 550.671 92.77 550.951 93.26C551.301 93.75 551.721 94.17 552.281 93.96C552.771 93.75 553.051 93.26 553.051 92.77C553.121 92.35 553.191 91.93 553.121 91.51V91.37C553.051 90.67 553.121 89.9 553.261 89.27C553.541 87.8 554.311 86.47 555.431 85.42C558.161 82.76 563.551 80.94 569.221 81.08C570.621 81.08 572.021 81.22 573.421 81.5C574.751 81.78 576.011 82.34 577.131 83.18C578.181 83.95 578.741 85.21 578.601 86.47C578.531 87.1 578.321 87.73 578.041 88.29C577.761 88.85 577.411 89.48 577.061 90.04C574.261 94.66 571.741 98.51 570.201 100.96C569.781 101.59 568.801 103.13 567.541 105.16C566.141 107.47 564.811 109.78 563.691 112.23C562.501 114.75 561.451 117.2 560.751 119.09L559.911 121.33L559.561 122.17V122.24V122.31C559.421 122.73 559.071 124.62 560.191 124.97C561.241 125.25 562.011 123.5 562.151 123.08V123.01L562.221 122.87C562.501 121.68 563.061 118.81 564.321 114.89C565.791 110.13 567.891 105.51 570.621 101.24C570.971 100.61 573.071 97.53 576.011 93.26C576.711 92.21 577.481 91.02 578.251 89.83C579.301 88.5 579.791 86.89 579.721 85.28ZM558.791 133.44C559.981 133.44 560.891 132.53 560.891 131.34C560.891 130.15 559.981 129.24 558.791 129.24C557.601 129.24 556.691 130.15 556.691 131.34C556.691 132.53 557.601 133.44 558.791 133.44Z" fill="#E9D6D6"/>
</g>
</svg>
