<svg fill="none" height="162" viewBox="0 0 859 162" width="859" xmlns="http://www.w3.org/2000/svg"><g fill="#e9d6d6" opacity=".15"><path d="m35.287 50.2643c0-.1551-.0775-.3102-.0775-.3102-1.5514-.1552-3.1803-.1552-4.7317-.1552 0-2.2494.0776-4.5765.1552-6.9035.3878-7.5241 1.1635-15.0481 2.4046-22.4946.6205-1.4738 1.1635-2.87 1.7065-4.4213l.0775-.0776c.0776-.3879.3103-2.0168-.9308-2.327-1.1635-.3103-1.8616 1.1635-2.0167 1.4737v.0776.1551c-.0776.1552-.1552.6982-.3879 1.3963l-.8532 2.7924c-.6981 2.1719-1.7065 5.0419-2.9476 8.067-2.327 5.8176-4.9643 11.48-7.9119 17.0649-1.2411 2.1719-2.87 4.9643-4.654 7.8343l-.4654.7757c-1.3187.543-2.5598 1.1635-3.7233 1.784h-.0776c-.2327.2327-.0775.8533.3879 1.5514.1551.3103.3878.6205.6981.8532-1.086 1.5514-2.09434 3.0252-3.18028 4.5765-1.55135 2.1719-3.18027 4.4214-4.80919 6.4381.15513-.2327.31027-.5429.38784-.7756 0 0-.07757-.0776-.23271-.1552-.07756-.0775-.2327-.1551-.2327-.1551-.54297.543-1.47378.7757-2.32703 1.7065-.38783.6205-.620537 1.2411-.620537 1.9392.077567.4654.155137.9308.232707 1.3962 0 .3878.15513.7757.38783 1.0084.85325.9308 2.1719-.1552 2.48217-.4654h.07756l.07757-.1552.93081-1.3186.77568-1.086.85324-1.3962 1.00838-1.5513 1.08595-1.8617c.77567-1.241 1.55131-2.6373 2.40461-4.0335.8532-1.5513 1.784-3.2578 2.6373-4.8867 4.4213-2.7149 9.3857-4.5765 14.4275-5.4298 0 2.0944-.0775 4.2662-.0775 6.3606 0 5.0419.4654 10.0062 1.3962 14.9705v.0776c.0776.3103.3878.6205.6981.7757.3103.1551.6981.2327 1.086.0775.6981-.1551 1.241-.8532 1.1635-1.5513v-.0776c-1.086-4.7316-1.7065-9.5408-1.9392-14.35-.0776-2.1719-.1552-4.4213-.1552-6.6708 1.5514-.1551 3.1027-.3103 4.7317-.3103 0-.0775.0775-.1551.0775-.2327zm-6.4381-7.524c-.2327 2.4046-.3878 4.8092-.4654 7.2138-4.1886.3102-8.3773 1.241-12.3332 2.7148 1.5513-2.9476 3.0251-5.6624 4.1886-7.8343l4.4214-7.9895c1.8616-3.3354 3.7232-6.7484 5.4297-10.1613.4654-1.0084 1.0084-2.0168 1.4738-3.0252-1.1635 6.283-2.0943 12.6436-2.7149 19.0817zm37.0252 16.2892c-.0776-.0776-.1551-.0776-.2327 0-.0776.0775-.1551.1551-.2327.3102-1.0084 1.7065-2.1719 3.3354-3.5681 4.7317-1.7065 1.7064-3.5681 3.1802-5.6624 4.2662-1.0084.5429-2.0944.8532-3.2579.9308-.4654.0775-.9308-.1552-1.2411-.4654-.3878-.3103-.5429-.7757-.6205-1.3187-.0776-1.0859.0776-2.1719.4654-3.2578.3103-1.086.7757-2.2495 1.1635-3.3354.4654-1.086.9308-2.2495 1.3962-3.413.1552-.543.3879-1.1635.4654-1.784.2327-.6982.2327-1.4738.0776-2.1719-.2327-1.0084-1.0084-1.7065-1.9392-1.8617-.7757-.0775-1.5513.0776-2.2494.3879-1.2411.4654-2.4046 1.1635-3.3354 2.0167-1.9392 1.629-3.6457 3.4906-5.1195 5.5073-.1551.2327-.3103.4654-.543.6981.6206-1.5513 1.0084-2.87 1.2411-3.5681.1551-.5429.1551-1.0859 0-1.5513-.0776-.543-.4654-1.0084-.9308-1.086-.543-.0775-1.0084.0776-1.3187.543-.3102.3878-.5429.8532-.6205 1.3187-.543 3.0251-1.1635 5.9727-2.0168 8.8427-.2327.7756-.4654 1.5513-.6205 2.327-.9308 1.6289-1.8616 3.3354-2.7149 5.0419v.0775c-.2327.6982.0776 1.3963.6981 1.7065h.0776.0776c.6205.3879 1.4738.1552 1.8616-.4654v-.0775c1.8616-4.3438 4.1111-8.5325 6.7484-12.4109 1.3186-1.9391 2.7924-3.7232 4.4989-5.3521.7757-.6981 1.7065-1.3187 2.7149-1.7841.3878-.2327.7756-.3102 1.241-.3102.0776 0 .2328.0775.3103.1551.1552 0 .1552.1551.2327.3103.0776.3878.0776.9308 0 1.3962-.0775.543-.2327 1.0859-.3878 1.6289-.3879 1.0859-.7757 2.2495-1.1635 3.3354-.4654 1.1635-.8533 2.327-1.1635 3.4905-.3879 1.2411-.4655 2.5598-.3103 3.8784.1551.6981.4654 1.3962 1.0084 1.8616.5429.543 1.241.7757 2.0167.6982 1.3187-.1552 2.4822-.543 3.6457-1.1636 2.0943-1.241 4.0335-2.7924 5.6624-4.654 1.3962-1.4738 2.6373-3.1027 3.6457-4.8868.0776-.0775.0776-.2327.1551-.3102 0-.0776-.0775-.1552-.1551-.2327zm27.7734-.6982c-4.1886.6206-8.1446 2.1719-11.5575 4.5765.2327-1.784.3878-3.5681.3878-5.4297v-.0776c-.1551-.6981-.7757-1.1635-1.5513-1.0859-.6982-.0776-1.3187.4654-1.4738 1.1635v.0776.7756c-.8533.9309-1.7841 1.7065-2.7925 2.4822-1.0859.9308-2.2494 1.7065-3.4905 2.4822-1.2411.8532-2.6373 1.4738-4.1111 1.9392-.6205.2327-1.3186.3102-2.0167.3102-.2327-.0775-.543-.1551-.7757-.3102-.1551-.0776-.3103-.2327-.4654-.4654-.2327-.4654-.3103-1.0084-.3103-1.5514.0776-.6205.2327-1.2411.3878-1.8616.6206-1.8616 1.5514-3.5681 2.7149-5.1195.4654-.6205.8533-1.2411 1.086-1.9392.3102-.6205.5429-1.3962.1551-1.784-.3878-.4654-1.086-.3103-1.7841.0775-.6981.543-1.3962 1.1636-1.8616 1.9392-1.1635 1.8617-2.0943 3.956-2.6373 6.1279-.2327.8532-.3103 1.7065-.3103 2.4821 0 1.086.3103 2.0944.9309 2.9476.6981.8533 1.784 1.3962 2.87 1.3187 1.0083 0 1.9392-.2327 2.7924-.6206 1.5513-.6205 3.0251-1.5513 4.3438-2.5597 1.1635-.9308 2.327-1.8616 3.413-2.87.6981-.6981 1.3962-1.3962 1.9391-1.9392 0 1.4738-.0775 3.0251-.3102 4.4989-.0776.4654-.1552.9308-.2327 1.3962-1.0084.8533-1.9392 1.7065-2.87 2.6373-1.3187 1.3187-2.5598 2.7149-3.7233 4.2662-1.3962 1.7065-2.7148 3.5682-3.8008 5.5073-1.1635 1.9392-1.9392 4.1111-2.4821 6.3606-.0776.543-.1552 1.1635-.1552 1.784.0776.6206.2327 1.3187.543 1.8617.3103.6981.9308 1.1635 1.6289 1.3186.7757.1551 1.4738.0776 2.1719-.3103 1.0084-.6205 1.9392-1.4737 2.6373-2.4821.6981-.8533 1.3186-1.7841 1.9392-2.7925 1.1635-1.9391 2.1719-4.0335 3.0251-6.1278.8533-2.0943 1.5514-4.1886 2.2495-6.3605.3103-1.086.6205-2.1719.9308-3.2579.2327-1.0859.543-2.0943.7757-3.3354.0775-.0775.0775-.1551.0775-.3102.0776 0 .1552-.0776.1552-.0776 3.4905-2.327 7.524-3.8008 11.7127-4.1887.3102 0 .5429-.3878.4654-.7756 0-.3879-.3103-.6982-.6206-.6982zm-15.0481 8.7652c-.2327 1.0859-.4654 2.1719-.7756 3.2578-1.0084 4.1887-2.4822 8.2998-4.499 12.2557-.4654.9308-1.0859 1.7841-1.7065 2.7149-.5429.8532-1.241 1.5513-2.0943 2.1719-.3102.2327-.6205.3102-1.0084.2327-.3878-.0776-.6981-.3103-.9308-.6206-.3878-.9308-.4654-1.9392-.3102-2.87.3878-2.0943 1.0859-4.1886 2.0943-6.1278s2.1719-3.8008 3.4905-5.5849c1.086-1.4738 2.3271-2.87 3.6457-4.1111.6981-.6981 1.4738-1.3962 2.2495-2.0167-.0776.2327-.1552.4654-.1552.6981zm59.3786-8.067c-.233-.3103-.698-.4654-1.086-.2327h-.077v.0775c-.388.2327-1.164.9308-2.328 1.7841-.62.3878-1.396.7757-2.171 1.2411l-.621.3878-.62.2327c-.466.2327-.931.3878-1.397.6205-.31.1552-.698.2327-1.086.3879l-2.172.6205c-2.094.4654-4.266.6981-6.438.6981-.077 0-.232 0-.387 0-.311-.6981-.621-1.4738-.931-2.2494-.621-1.629-1.009-3.3354-1.164-5.0419-.077-.7757 0-1.6289.155-2.4046.078-.543.388-1.0084.931-1.3187.466-.2327 1.086-.3102 1.629-.2327.543.0776 1.164.3103 1.629.543.698.3103 1.241.8532 1.629 1.5514.077.1551.155.3878.155.6205s.155.3878.233.543c.31.3102.62.6205 1.086.7756.465.1552 1.008 0 1.318-.4654.233-.3102.311-.6981.311-1.0859v-.0776-.1551c-.078-.1551-.078-.3879-.156-.6981-.155-.3879-.387-.7757-.62-1.1635-.698-1.0084-1.707-1.7841-2.87-2.1719-1.474-.6981-3.18-.7757-4.732-.2327-.232.0775-.465.1551-.698.3102-.155.1552-.388.3103-.62.4654-.156.2327-.388.3879-.543.6206-.078.2327-.233.4654-.311.6981-.31.8532-.465 1.784-.387 2.7149.077 1.784.465 3.4905 1.163 5.1194.388 1.086.931 2.1719 1.474 3.2579-1.474-.1552-2.87-.4654-4.266-.9309-.854-.3102-1.707-.6981-2.483-1.0859h-.077c0-.0776-.078-.0776-.078-.0776-.232-.1551-.543-.2327-.775-.2327-.543 0-1.009.2327-1.241.6981-.156.2327-.233.6206-.233.9309l.077.0775v.0776c.466 1.784 1.397 3.4905 2.715 4.8092 1.009 1.0859 2.172 2.0167 3.336 2.7924.698.4654 1.396.8533 2.172 1.1635.775.4654 1.629.6981 2.559.7757h.311c.155 0 .31 0 .465-.0776.31-.0775.543-.2327.698-.4654s.31-.5429.388-.8532c.078-.543.078-1.0084 0-1.4738-.155-1.3187-.543-2.6373-1.086-3.8008-.233-.4654-.465-.9308-.698-1.3962.233-.0776.465-.0776.776-.0776l.775-.0776.776-.1551 1.551-.2327 1.397-.3103c.93-.2327 1.784-.4654 2.559-.7756l1.086-.3879.776-.3103c.233-.0775.931-.3102 1.706-.5429.776-.3103 1.707-.6981 2.638-1.086.93-.3878 1.784-.7757 2.482-1.0859l1.086-.543c.155-.0776.698-.543.31-1.0859zm-17.142 10.7819c.465 1.1635.62 2.4045.155 3.0251-.078.2327-.311.3103-.543.3878-.155 0-.311 0-.466 0-.93-.1551-1.784-.5429-2.559-1.0859-1.241-.8533-2.405-1.9392-3.258-3.1803-.853-1.0859-1.474-2.2495-1.784-3.5681-.078-.2327-.155-.543-.155-.7757.387.1552.853.3103 1.318.4654 1.707.3879 3.491.6206 5.275.6206.077.0775.077.1551.155.2327.776 1.2411 1.396 2.4821 1.862 3.8784zm53.539-10.7819c0-.0776-.155-.1552-.233-.1552l-1.551.7757c-.854.3878-1.707.7757-2.56 1.0859l-.465.2327c-.388.1552-.854.3103-1.241.3879l-.466.1551c-.155.0776-.31.0776-.543.1552-1.861.5429-3.801.5429-5.662-.0776.543-.9308 1.008-1.9392 1.396-2.9476.233-.6205.31-1.2411.233-1.8616-.078-.6205-.311-1.2411-.776-1.7065-.931-.8532-2.327-1.0859-3.491-.4654-.543.2327-1.086.6981-1.396 1.2411-.233.2327-.31.543-.465.8532-.078.2327-.155.543-.233.8533-.31 1.1635-.077 2.4821.621 3.4905.155.2327.31.4654.543.6206.155.1551.387.3102.62.4654.466.3102.931.4654 1.396.6205h.233v.0776c-.155.1551-.233.3878-.388.6205-.31.4654-.62.9308-.931 1.4738l.466.2327c.388-.4654.698-1.0084 1.008-1.5514.078-.0775.078-.1551.155-.2327.078-.1551.155-.3102.311-.4654.775.0776 1.629.0776 2.404 0 1.474-.0775 2.948-.3878 4.344-.7756l1.474-.4654.698-.2327.31-.1552.388-.1551c.776-.3103 1.474-.6206 2.249-.9308.543-.3103 1.086-.6206 1.552-.9308.077-.0776.077-.1552 0-.2327zm-13.575 2.0943c-.232-.2327-.465-.4654-.698-.6981-.077-.0776-.155-.2327-.155-.3103-.077-.1551-.155-.2327-.155-.3878-.077-.4654-.077-1.0084 0-1.5514.078-.1551.155-.3103.155-.4654.078-.1551.078-.2327.155-.3878.078-.1552.155-.3103.233-.4654.31-.3103.698-.4654 1.086-.3879.233.0776.465.3103.543.6206.155.3878.233.8532.155 1.3186-.155 1.0084-.465 2.0168-1.008 2.87-.078-.0776-.155-.0776-.311-.1551zm-4.188 6.7484c-.853.9308-1.707 1.784-2.715 2.5597-.853.8532-1.939 1.4738-3.025 1.9392-.466.1551-.931.2327-1.396.1551-.466-.1551-.854-.4654-1.086-.7757-.466-1.0083-.698-2.0943-.621-3.1802.078-1.1635.233-2.4046.543-3.5681.543-2.4046 1.319-4.8092 2.25-7.1363.077-.3878-.388-.8532-1.164-1.1635-.776-.3102-1.551-.2327-1.629.1552h-.077c-.543 1.9392-1.009 3.8008-1.397 5.8175-1.318 2.0944-2.715 4.1111-4.266 6.0503-.853 1.0084-1.784 2.0168-2.792 2.87-.233.1551-.466.3878-.776.543-.078.0775-.233.1551-.388.2327-.077.0775-.077.0775-.155.0775-.078.0776-.078.0776-.155.0776-.155.0776-.31.0776-.466 0-.155 0-.31-.1551-.31-.3103-.077-.0775-.077-.2327-.077-.3102-.078-.2327-.078-.3879-.078-.6206 0-.3878-.077-.8532 0-1.241 0-.4655 0-.8533.078-1.3187 0-.4654.077-.8532.155-1.3186.232-1.7841.543-3.4906.931-5.2746.853-3.413 2.016-6.7484 3.645-9.8511.233-.3879-.232-1.0084-.931-1.4738-.698-.3878-1.473-.3878-1.706.0776-1.551 3.4905-2.637 7.0586-3.258 10.7819-.31 1.8616-.543 3.7232-.62 5.5073-.078.4654-.078.9308-.078 1.3962-.078.5429 0 1.0083 0 1.4738 0 .4654.078.9308.078 1.3962 0 .3102.077.5429.155.7756.077.3103.232.6982.31.9309.233.4654.698.7756 1.164.9308.62.0775 1.241 0 1.784-.3103.077-.0776.155-.0776.31-.1551.155-.0776.31-.2327.465-.3103.233-.2327.543-.4654.776-.6981 1.008-1.0084 1.939-2.0943 2.715-3.2579 1.163-1.5513 2.249-3.2578 3.18-4.9643v.2327c-.233 1.3187-.31 2.6373-.31 4.0335 0 1.4738.465 2.9476 1.318 4.1887.543.6205 1.242 1.0859 2.095 1.2411.775.0775 1.629 0 2.327-.3879 1.241-.5429 2.327-1.3962 3.258-2.327.93-.9308 1.784-1.9392 2.637-2.9476.776-1.0859 1.396-2.1719 2.172-3.2578l-.466-.2327c-.775.9308-1.551 1.9392-2.404 2.9476zm49.086-8.8427c-.077-.0776-.233-.1552-.233-.1552-5.429 4.1887-10.781 8.3773-16.754 11.48-3.025 1.4738-6.128 2.6373-9.463 2.4046-1.552-.0775-3.103-.4654-4.499-1.1635-1.241-.7757-2.095-2.0943-2.327-3.4905-.233-1.5514-.078-3.1803.31-4.6541.465-1.5513 1.163-2.9476 2.172-4.2662.931-1.2411 2.017-2.4046 3.335-3.3354 1.164-.9308 2.638-1.6289 4.111-1.9392.621-.1551 1.319-.1551 2.017 0 .31.0776.543.1551.776.3103.155.0775.31.2327.388.3878.155.543.155 1.086 0 1.6289-.233.6206-.543 1.1635-1.009 1.5514-1.086 1.0859-2.404 1.9392-3.801 2.4821-1.241.6206-2.714.8533-4.111.6981h-.077-.078c-.776-.0775-1.551.3103-1.861 1.086-.311.6981.31 1.7065 1.473 1.8616h.155c1.94.2327 3.956-.1551 5.74-1.0084.776-.4654 1.629-.8532 2.327-1.3962.854-.543 1.552-1.1635 2.25-1.8616.698-.7757 1.241-1.7065 1.551-2.7924.311-1.086.233-2.3271-.31-3.3354-.31-.6206-.776-1.086-1.319-1.4738-.465-.2327-1.008-.4654-1.629-.543-1.008-.2327-2.016-.1551-3.025.0776-1.784.4654-3.49 1.3186-4.964 2.4821-1.396 1.086-2.637 2.4046-3.646 3.956-2.172 2.9475-3.102 6.7484-2.482 10.394.155.9308.543 1.8617 1.086 2.6373.543.7757 1.241 1.4738 2.172 1.9392 1.629.8533 3.413 1.2411 5.275 1.1635.853.0776 1.784 0 2.637-.0775l1.319-.2327 1.241-.3879c1.706-.5429 3.257-1.2411 4.809-2.0943 6.05-3.3354 11.247-7.7568 16.522-12.023.077-.0775 0-.1551-.078-.3102zm31.512 0c-.078-.0776-.233-.1552-.233-.1552-5.429 4.1887-10.782 8.3773-16.754 11.48-3.025 1.4738-6.128 2.6373-9.464 2.4046-1.551-.0775-3.102-.4654-4.498-1.1635-1.242-.7757-2.095-2.0943-2.328-3.4905-.232-1.5514-.077-3.1803.311-4.6541.465-1.5513 1.163-2.9476 2.172-4.2662.93-1.2411 2.016-2.4046 3.335-3.3354 1.164-.9308 2.637-1.6289 4.111-1.9392.621-.1551 1.319-.1551 2.017 0 .31.0776.543.1551.776.3103.155.0775.31.2327.387.3878.156.543.156 1.086 0 1.6289-.232.6206-.543 1.1635-1.008 1.5514-1.086 1.0859-2.405 1.9392-3.801 2.4821-1.241.6206-2.715.8533-4.111.6981h-.077-.078c-.776-.0775-1.551.3103-1.862 1.086-.31.6981.311 1.7065 1.474 1.8616h.155c1.939.2327 3.956-.1551 5.74-1.0084.776-.4654 1.629-.8532 2.327-1.3962.854-.543 1.552-1.1635 2.25-1.8616.698-.7757 1.241-1.7065 1.551-2.7924.31-1.086.233-2.3271-.31-3.3354-.31-.6206-.776-1.086-1.319-1.4738-.465-.2327-1.008-.4654-1.629-.543-1.008-.2327-2.016-.1551-3.025.0776-1.784.4654-3.49 1.3186-4.964 2.4821-1.396 1.086-2.637 2.4046-3.646 3.956-2.172 2.9475-3.103 6.7484-2.482 10.394.155.9308.543 1.8617 1.086 2.6373.543.7757 1.241 1.4738 2.172 1.9392 1.629.8533 3.413 1.2411 5.274 1.1635.854.0776 1.784 0 2.638-.0775l1.318-.2327 1.241-.3879c1.707-.5429 3.258-1.2411 4.81-2.0943 6.05-3.3354 11.247-7.7568 16.522-12.023.077-.0775 0-.1551-.078-.3102zm32.52-26.1403c0-.1551-.155-.2327-.31-.2327l-2.405.3103-3.956.4654c-3.025.3102-6.826.6981-10.626.9308-1.94.0775-3.956.1551-5.896.2327.776-2.0168 1.629-3.956 2.56-5.8952.853-1.6289 1.707-3.2578 2.637-4.8092.466-.7756 1.009-1.4737 1.552-2.1718.465-.6206 1.086-1.1636 1.706-1.629l.078-.0775c.31-.2327.465-.4654.62-.7757.156-.3878.311-.6981.311-1.086 0-.4654-.311-.8532-.776-1.0083-.62-.1552-1.319 0-1.784.3878h-.078l-.077.0776c-.931.6205-1.629 1.3962-2.327 2.327-.543.7757-1.164 1.6289-1.629 2.4822-1.008 1.6289-1.862 3.3354-2.637 5.1194-1.086 2.3271-2.017 4.6541-2.87 7.0587-.776 0-1.552 0-2.25 0-1.396-.0776-2.637-.1552-3.723-.2327.077 0 .155-.0776.233-.0776.077 0 .155-.0776.155-.0776.077-.0775.155-.1551.077-.2327v-.0775c-.077-.1552-.232-.2327-.388-.1552-1.163 0-2.249-.2327-3.335-.6205-.62-.2327-1.241-.3103-1.939-.3878-.543-.0776-1.009 0-1.474.2327-.543.2327-.931.6205-1.241 1.1635-.078.1551-.078.3102-.078.4654 0 0 0 .0775-.077.0775-.155.543.543 1.086 1.241 1.4738.931.4654 1.939.6981 2.948.7757 2.559.1551 5.041.2327 7.601.0776h1.396c-.155.3878-.31.7756-.465 1.1635-1.241 3.5681-2.327 7.1362-3.413 10.7819-1.164 3.5681-2.017 7.2913-2.637 11.0146-.311 1.9392-.388 3.8783-.311 5.8175 0 2.0168.621 4.0336 1.784 5.74.621.8533 1.474 1.4738 2.405 1.9392 1.008.3879 2.017.6206 3.025.6206 1.939 0 3.879-.3103 5.74-.9308 3.646-1.3187 6.904-3.3354 9.696-6.0503 2.715-2.6373 4.964-5.74 6.671-9.0754l-.465-.3103c-1.784 3.3354-4.034 6.283-6.826 8.7651-2.715 2.4822-5.896 4.4214-9.464 5.5849-1.706.543-3.49.7757-5.274.6981-1.707 0-3.336-.7757-4.344-2.0943-.931-1.5514-1.396-3.2578-1.319-4.9643-.077-1.8617.078-3.6457.466-5.4298.62-3.6456 1.629-7.2137 2.792-10.7043 1.241-3.5681 2.405-7.1362 3.801-10.6267.233-.6982.543-1.4738.776-2.1719 2.327-.1552 4.809-.4654 7.291-.7757 3.878-.4654 7.679-1.086 10.704-1.6289l3.956-.6981 1.319-.3103.543-.0776.155-.0775h.078c.077 0 .155-.1552.155-.2327zm17.096 26.1403c-.233-.3103-.698-.4654-1.086-.2327h-.078v.0775c-.387.2327-1.163.9308-2.327 1.7841-.62.3878-1.396.7757-2.171 1.2411l-.621.3878-.621.2327c-.465.2327-.93.3878-1.396.6205-.31.1552-.698.2327-1.086.3879l-2.172.6205c-2.094.4654-4.266.6981-6.438.6981-.077 0-.232 0-.388 0-.31-.6981-.62-1.4738-.93-2.2494-.621-1.629-1.009-3.3354-1.164-5.0419-.077-.7757 0-1.6289.155-2.4046.078-.543.388-1.0084.931-1.3187.465-.2327 1.086-.3102 1.629-.2327.543.0776 1.163.3103 1.629.543.698.3103 1.241.8532 1.629 1.5514.077.1551.155.3878.155.6205s.155.3878.233.543c.31.3102.62.6205 1.086.7756.465.1552 1.008 0 1.318-.4654.233-.3102.311-.6981.311-1.0859v-.0776-.1551c-.078-.1551-.078-.3879-.156-.6981-.155-.3879-.387-.7757-.62-1.1635-.698-1.0084-1.707-1.7841-2.87-2.1719-1.474-.6981-3.18-.7757-4.732-.2327-.232.0775-.465.1551-.698.3102-.155.1552-.388.3103-.62.4654-.156.2327-.388.3879-.543.6206-.078.2327-.233.4654-.311.6981-.31.8532-.465 1.784-.388 2.7149.078 1.784.466 3.4905 1.164 5.1194.388 1.086.931 2.1719 1.474 3.2579-1.474-.1552-2.87-.4654-4.266-.9309-.854-.3102-1.707-.6981-2.483-1.0859h-.077c0-.0776-.078-.0776-.078-.0776-.232-.1551-.543-.2327-.775-.2327-.543 0-1.009.2327-1.241.6981-.156.2327-.233.6206-.233.9309l.077.0775v.0776c.466 1.784 1.397 3.4905 2.715 4.8092 1.009 1.0859 2.172 2.0167 3.336 2.7924.698.4654 1.396.8533 2.172 1.1635.775.4654 1.628.6981 2.559.7757h.311c.155 0 .31 0 .465-.0776.31-.0775.543-.2327.698-.4654s.31-.5429.388-.8532c.077-.543.077-1.0084 0-1.4738-.155-1.3187-.543-2.6373-1.086-3.8008-.233-.4654-.465-.9308-.698-1.3962.233-.0776.465-.0776.776-.0776l.775-.0776.776-.1551 1.551-.2327 1.396-.3103c.931-.2327 1.784-.4654 2.56-.7756l1.086-.3879.776-.3103c.232-.0775.931-.3102 1.706-.5429.776-.3103 1.707-.6981 2.638-1.086.93-.3878 1.784-.7757 2.482-1.0859l1.086-.543c.155-.0776.698-.543.31-1.0859zm-17.142 10.7819c.465 1.1635.62 2.4045.155 3.0251-.078.2327-.311.3103-.543.3878-.155 0-.311 0-.466 0-.931-.1551-1.784-.5429-2.559-1.0859-1.242-.8533-2.405-1.9392-3.258-3.1803-.854-1.0859-1.474-2.2495-1.784-3.5681-.078-.2327-.155-.543-.155-.7757.387.1552.853.3103 1.318.4654 1.707.3879 3.491.6206 5.275.6206.077.0775.077.1551.155.2327.776 1.2411 1.396 2.4821 1.862 3.8784z"/><path d="m260.941 130.331c-4.189.621-8.145 2.172-11.557 4.577.232-1.784.387-3.568.387-5.43v-.077c-.155-.699-.775-1.164-1.551-1.086-.698-.078-1.319.465-1.474 1.163v.078.775c-.853.931-1.784 1.707-2.792 2.483-1.086.93-2.25 1.706-3.491 2.482-1.241.853-2.637 1.473-4.111 1.939-.62.233-1.318.31-2.017.31-.232-.077-.543-.155-.775-.31-.155-.078-.311-.233-.466-.466-.232-.465-.31-1.008-.31-1.551.078-.62.233-1.241.388-1.862.62-1.861 1.551-3.568 2.715-5.119.465-.621.853-1.241 1.086-1.939.31-.621.543-1.396.155-1.784-.388-.466-1.086-.31-1.784.077-.698.543-1.396 1.164-1.862 1.94-1.163 1.861-2.094 3.955-2.637 6.127-.233.854-.31 1.707-.31 2.483 0 1.085.31 2.094.93 2.947.699.853 1.784 1.396 2.87 1.319 1.009 0 1.94-.233 2.793-.621 1.551-.62 3.025-1.551 4.344-2.56 1.163-.93 2.327-1.861 3.413-2.87.698-.698 1.396-1.396 1.939-1.939 0 1.474-.078 3.025-.31 4.499-.078.466-.156.931-.233 1.396-1.009.854-1.939 1.707-2.87 2.638-1.319 1.318-2.56 2.715-3.723 4.266-1.397 1.706-2.715 3.568-3.801 5.507-1.164 1.939-1.939 4.111-2.482 6.361-.078.543-.156 1.163-.156 1.784.078.62.233 1.318.543 1.861.311.699.931 1.164 1.629 1.319.776.155 1.474.078 2.172-.31 1.009-.621 1.939-1.474 2.638-2.482.698-.854 1.318-1.784 1.939-2.793 1.163-1.939 2.172-4.033 3.025-6.128.853-2.094 1.551-4.188 2.249-6.36.311-1.086.621-2.172.931-3.258.233-1.086.543-2.094.776-3.335.077-.078.077-.156.077-.311.078 0 .156-.077.156-.077 3.49-2.327 7.524-3.801 11.712-4.189.31 0 .543-.388.466-.776 0-.387-.311-.698-.621-.698zm-15.048 8.765c-.233 1.086-.465 2.172-.776 3.258-1.008 4.189-2.482 8.3-4.499 12.256-.465.931-1.086 1.784-1.706 2.715-.543.853-1.241 1.551-2.094 2.172-.311.232-.621.31-1.009.232-.388-.077-.698-.31-.931-.62-.387-.931-.465-1.939-.31-2.87.388-2.094 1.086-4.189 2.094-6.128 1.009-1.939 2.172-3.801 3.491-5.585 1.086-1.474 2.327-2.87 3.646-4.111.698-.698 1.473-1.396 2.249-2.017-.077.233-.155.466-.155.698zm40.591-8.222c-1.241 1.319-2.714 2.405-4.266 3.336-2.249 1.241-4.654 2.094-7.214 2.482-1.551.155-3.18.155-4.731-.233.853-1.706 1.551-3.413 2.017-5.274.31-1.009.387-2.017.387-3.026.078-1.008-.31-2.016-1.008-2.792-.388-.388-.931-.621-1.396-.776h-.078c.078-.853-.232-1.473-.775-1.473h-.078c-1.629.232-3.18.93-4.421 2.016-1.164.931-2.25 2.017-3.103 3.258-1.707 2.327-3.025 4.964-3.878 7.757-.388 1.319-.699 2.792-.776 4.266-.078.698-.078 1.474.077 2.172.156.853.466 1.551.931 2.172.543.698 1.397 1.086 2.172 1.086.776.077 1.552 0 2.25-.31 1.318-.543 2.559-1.474 3.49-2.56 1.241-1.319 2.327-2.87 3.258-4.499 0-.155.078-.233.155-.31h.078c1.939.077 3.801-.078 5.585-.621 2.559-.62 5.041-1.551 7.291-2.87 1.629-.931 3.103-2.094 4.421-3.49zm-17.685 7.292c-.853 1.629-1.862 3.102-3.103 4.421-.93 1.008-2.094 1.707-3.335 2.172-1.241.31-2.637.233-3.258-.698-.62-1.086-.776-2.327-.543-3.568.233-1.319.543-2.56 1.086-3.801.931-2.482 2.327-4.809 4.034-6.826.077-.078.077-.155.155-.155-.078.233-.155.543-.233.853-.465 1.939 0 4.034 1.319 5.585.62.62 1.396 1.163 2.249 1.474.543.232 1.164.31 1.707.465 0 0 0 .078-.078.078zm-.698-2.56c-.388-.31-.853-.698-1.086-1.086-.31-.465-.465-.931-.543-1.474-.078-.62 0-1.241.155-1.939.155-1.241.698-2.482 1.474-3.491.31-.387.698-.698 1.163-.93.388-.233.854-.233 1.242 0 .465.388.775 1.008.853 1.629.155.853.155 1.784 0 2.714-.31 1.862-.853 3.646-1.629 5.275-.543-.155-1.086-.388-1.629-.698zm52.53-4.887h-.077c-.078-.077-.233-.077-.388.078-1.009 1.784-2.327 3.413-3.879 4.809-2.482 2.327-5.584 3.801-8.997 4.189-.388.077-.854.077-1.319.077-.388-.077-.853-.077-1.241-.155s-.776-.233-1.164-.31l-.465-.311-.155-.077-.155-.078-.233-.155c-1.241-.775-2.017-2.094-2.172-3.49-.078-1.241.078-2.56.388-3.801.233-.853.543-1.707.931-2.56.31-.776.62-1.629.775-2.482s.233-1.784-.232-2.094c-.466-.311-1.164.155-1.784.775-.621.776-1.164 1.707-1.474 2.638-.31 1.008-.621 2.016-.853 3.025-.078.31-.156.698-.156 1.086-1.008 1.706-2.016 3.335-3.102 4.886-1.164 1.707-2.327 3.336-3.646 4.81-.698.775-1.396 1.473-2.094 2.094-.776.543-1.629 1.008-2.172.931-.233-.078-.543-.233-.698-.466-.078-.155-.155-.31-.233-.465s-.155-.388-.155-.543c-.155-.931-.233-1.862-.155-2.792.155-1.94.465-3.956 1.008-5.818.466-1.939 1.008-3.878 1.629-5.818.621-1.861 1.396-3.723 2.172-5.507l.077-.077c.156-.466-.232-1.086-.93-1.552-.233-.232-.621-.31-.931-.31-.388.078-.698.31-.931.62v.078c-.776 1.939-1.474 3.956-2.017 5.973s-1.086 4.033-1.473 6.05c-.388 2.094-.621 4.189-.699 6.283 0 1.164.078 2.249.388 3.335.078.311.155.621.311.854.155.31.31.62.542.853.233.31.543.543.854.698.31.155.698.31 1.008.31.388.078.776 0 1.086-.077l.465-.155.466-.156c.465-.31.931-.62 1.396-1.008.776-.776 1.474-1.551 2.172-2.327 1.241-1.706 2.482-3.413 3.491-5.197.698-1.086 1.396-2.249 2.016-3.413 0 .543.078 1.086.155 1.629.156 1.008.543 2.017 1.164 2.87.62.931 1.396 1.629 2.405 2.172.232.077.465.233.62.31.31.155.543.233.853.31l.776.233.776.078c1.086.155 2.172.077 3.18-.078 1.939-.388 3.801-1.086 5.507-2.172 1.474-.853 2.87-2.017 4.034-3.258.543-.62.931-1.241 1.396-1.706l1.008-1.551c.311-.466.466-.854.698-1.164l.233-.465.078-.156v-.077c.077-.078 0-.155-.078-.233zm53.574.31c-.077-.077-.155-.155-.232-.155-4.809 3.724-9.619 7.447-14.816 10.394-1.318.776-2.637 1.397-4.033 2.017-1.319.543-2.715 1.009-4.189 1.241-.698.078-1.396.155-2.094.155-.776 0-1.474 0-2.25-.155-1.318-.077-2.637-.543-3.8-1.318-2.095-1.552-2.25-4.732-1.552-7.369.388-1.397.931-2.638 1.707-3.879.775-1.163 1.706-2.249 2.792-3.18 1.009-.931 2.172-1.629 3.413-2.249.31-.156.621-.233.931-.311.31-.155.621-.232.931-.232.31-.078.62-.078.931-.078.31 0 .543 0 .853.078.465.077.776.232 1.086.543.077.155.155.31.155.543v.698c-.31 1.086-.931 2.094-1.939 2.792l-.078.078c-.465.465-.62 1.241-.31 1.939.155.388.543.698 1.008.775.466.078.854-.077 1.241-.387l.078-.078c.698-.62 1.319-1.319 1.784-2.017.233-.388.465-.853.698-1.318.155-.466.233-.931.31-1.397.078-.543.078-1.085 0-1.628-.155-.543-.387-1.086-.698-1.552-.698-.931-1.706-1.474-2.792-1.629-.466-.077-.931-.155-1.396-.077-.466 0-.931 0-1.397.155-.387.077-.853.155-1.241.31s-.775.31-1.163.466c-1.474.775-2.87 1.706-4.034 2.87-1.163 1.085-2.249 2.327-3.102 3.723-.776 1.396-1.397 2.947-1.784 4.576-.388 1.552-.388 3.258-.156 4.887.311 1.706 1.241 3.335 2.715 4.344 1.396.931 3.025 1.474 4.654 1.551.776.078 1.552.078 2.405.078.776 0 1.551-.078 2.327-.311 1.551-.31 3.025-.775 4.499-1.473 1.396-.621 2.715-1.319 4.033-2.172 5.275-3.181 9.929-7.136 14.583-10.937.078-.078 0-.155-.078-.311zm45.009 0c-.155-.077-.31-.077-.31-.077-1.241 1.784-2.637 3.413-4.189 4.887-1.551 1.551-3.18 2.947-4.964 4.188-1.707 1.241-3.568 2.25-5.585 3.025-.931.388-1.939.699-2.948.931l-1.551.311-.776.077-.775.078h-1.552c-.543 0-1.086 0-1.551-.078-1.008-.077-2.017-.233-3.025-.62-1.784-.466-3.258-1.785-3.956-3.569-.621-1.861-.698-3.8-.31-5.74.31-1.396.62-2.792 1.086-4.188.077-.155.155-.233.155-.233v-.077c.077-.156.077-.311.077-.466.155-.388.233-.698.388-1.086v-.077c.155-.699-.31-1.397-1.008-1.552-.466-.155-1.009-.155-1.474.155 0-.232-.155-.465-.233-.62-.155-.233-.232-.388-.388-.621-.232-.31-.465-.465-.698-.698-1.241-1.008-2.947-1.396-4.499-1.163-1.939.388-3.723 1.396-5.041 2.715-1.474 1.551-2.638 3.257-3.569 5.119-.93 1.862-1.784 3.878-2.327 5.895-.31 1.009-.543 2.094-.543 3.103-.155 1.086.078 2.172.466 3.103.465 1.008 1.318 1.628 2.404 1.939.156 0 .466.077.699.077h.31c.155 0 .232 0 .31-.077.233 0 .465 0 .698-.078l.543-.233c1.241-.465 2.405-1.163 3.491-2.016l1.008-.854c.465-.387 1.008-.93 1.629-1.473 1.396-1.397 2.637-2.87 3.723-4.422 0 1.552.31 3.103.853 4.499.543 1.164 1.319 2.25 2.327 3.025 1.009.776 2.095 1.319 3.258 1.629 1.164.311 2.327.466 3.491.543h1.706l1.707-.155.853-.077.776-.156 1.706-.387c1.086-.311 2.095-.699 3.181-1.164 2.016-.931 3.878-2.017 5.662-3.413s3.413-2.87 4.887-4.499c1.473-1.629 2.792-3.335 4.033-5.197 0-.077-.077-.155-.155-.233zm-33.664-.077c-.311.931-.776 2.094-1.319 3.413-.62 1.474-1.396 2.947-2.249 4.266-1.009 1.629-2.327 3.103-3.801 4.344-.543.388-1.164.853-1.784 1.163-.621.311-1.164.543-1.862.698-.698.233-1.474.156-2.172-.077-.775-.388-1.318-1.086-1.474-1.862-.232-1.008-.232-1.939 0-2.947.543-2.095 1.319-4.189 2.405-6.051.931-1.939 2.25-3.723 3.723-5.197 1.164-1.241 2.715-2.016 4.344-2.327.931-.155 1.862.156 2.482.854.155.232.311.465.311.698v.077c.077 0 .077.078.077.155.078.078.155.156.233.311.233.388.62.698 1.086.853.155.078.31.078.465.078-.155.387-.31.93-.465 1.551zm59.262.077c-.078-.077-.155-.077-.233 0-.077.078-.155.156-.232.311-1.009 1.706-2.172 3.335-3.569 4.731-1.706 1.707-3.568 3.181-5.662 4.267-1.008.543-2.094.853-3.258.93-.465.078-.931-.155-1.241-.465-.388-.31-.543-.776-.62-1.319-.078-1.086.077-2.172.465-3.258.31-1.085.776-2.249 1.163-3.335.466-1.086.931-2.249 1.397-3.413.155-.543.388-1.163.465-1.784.233-.698.233-1.474.078-2.172-.233-1.008-1.009-1.706-1.94-1.861-.775-.078-1.551.077-2.249.387-1.241.466-2.405 1.164-3.335 2.017-1.94 1.629-3.646 3.491-5.12 5.507-.155.233-.31.466-.543.699.621-1.552 1.009-2.87 1.241-3.569.155-.543.155-1.086 0-1.551-.077-.543-.465-1.008-.931-1.086-.543-.077-1.008.078-1.318.543-.31.388-.543.853-.621 1.319-.543 3.025-1.163 5.972-2.016 8.842-.233.776-.466 1.552-.621 2.327-.931 1.629-1.862 3.336-2.715 5.042v.078c-.233.698.078 1.396.698 1.706h.078.077c.621.388 1.474.156 1.862-.465v-.078c1.862-4.343 4.111-8.532 6.748-12.41 1.319-1.94 2.793-3.724 4.499-5.353.776-.698 1.707-1.318 2.715-1.784.388-.232.776-.31 1.241-.31.078 0 .233.078.31.155.156 0 .156.155.233.311.078.387.078.93 0 1.396-.077.543-.233 1.086-.388 1.629-.387 1.086-.775 2.249-1.163 3.335-.466 1.164-.853 2.327-1.164 3.491-.388 1.241-.465 2.559-.31 3.878.155.698.465 1.396 1.008 1.862.543.543 1.242.775 2.017.698 1.319-.155 2.482-.543 3.646-1.164 2.094-1.241 4.033-2.792 5.662-4.654 1.397-1.474 2.638-3.103 3.646-4.887.078-.077.078-.232.155-.31 0-.077-.077-.155-.155-.233zm53.697 0c-.078-.077-.233-.155-.233-.155-5.43 4.189-10.782 8.378-16.755 11.48-3.025 1.474-6.127 2.638-9.463 2.405-1.551-.078-3.103-.465-4.499-1.164-1.241-.775-2.094-2.094-2.327-3.49-.232-1.551-.077-3.18.311-4.654.465-1.552 1.163-2.948 2.171-4.266.931-1.241 2.017-2.405 3.336-3.336 1.163-.931 2.637-1.629 4.111-1.939.62-.155 1.319-.155 2.017 0 .31.078.543.155.775.31.155.078.311.233.388.388.155.543.155 1.086 0 1.629-.233.621-.543 1.164-1.008 1.551-1.086 1.086-2.405 1.94-3.801 2.483-1.241.62-2.715.853-4.111.698h-.078-.077c-.776-.078-1.552.31-1.862 1.086-.31.698.31 1.706 1.474 1.861h.155c1.939.233 3.956-.155 5.74-1.008.776-.466 1.629-.853 2.327-1.396.853-.543 1.551-1.164 2.25-1.862.698-.776 1.241-1.706 1.551-2.792s.233-2.327-.31-3.336c-.311-.62-.776-1.086-1.319-1.474-.465-.232-1.008-.465-1.629-.543-1.008-.232-2.017-.155-3.025.078-1.784.465-3.491 1.319-4.964 2.482-1.397 1.086-2.638 2.405-3.646 3.956-2.172 2.948-3.103 6.748-2.482 10.394.155.931.543 1.862 1.086 2.637.543.776 1.241 1.474 2.172 1.94 1.629.853 3.413 1.241 5.274 1.163.853.078 1.784 0 2.637-.077l1.319-.233 1.241-.388c1.707-.543 3.258-1.241 4.809-2.094 6.051-3.336 11.248-7.757 16.522-12.023.078-.078 0-.155-.077-.311zm24.763-.31h-1.318-1.94c-1.861-.077-3.645.078-5.507.233-1.086.155-2.249.388-3.335.776-1.164.465-2.25 1.086-3.258 1.861-1.009.853-1.862 1.862-2.637 2.948-.699 1.086-1.397 2.172-2.095 3.258-.775 1.008-1.474 2.094-2.249 3.102-.155.233-.388.466-.543.698-.155.156-.311.388-.543.543 0 .078-.078.078-.233.078-.077 0-.155 0-.233-.078-.077-.077-.077-.155-.155-.232-.077-.233-.155-.466-.155-.698-.155-.466-.233-1.009-.31-1.629-.078-1.086-.078-2.172-.078-3.258.155-3.18.698-6.361 1.552-9.463.387-1.164.698-2.405.93-3.491.233-1.086.543-2.172.078-2.56-.543-.31-1.396.388-2.094 1.319-.776 1.163-1.319 2.482-1.707 3.801-.775 3.335-1.241 6.826-1.163 10.316 0 1.241.077 2.482.232 3.646.078.698.233 1.396.466 2.017 0 .155.077.388.155.543l.155.232c0 .155.078.233.155.388.078.233.233.466.466.621.077.077.155.232.232.31l.311.233c.465.232 1.008.31 1.473.155.543-.155 1.009-.466 1.319-.853.31-.233.543-.543.776-.854.232-.31.388-.543.62-.853.698-1.086 1.396-2.249 2.095-3.413.698-1.086 1.396-2.327 2.094-3.335.62-1.009 1.396-1.939 2.327-2.715 1.784-1.396 3.878-2.25 6.05-2.482 1.784-.233 3.568-.388 5.352-.466l1.862-.077h.698.155.078c.077 0 .155-.155.155-.233v-.078c0-.155-.078-.31-.233-.31zm31.519.31c-.078-.077-.233-.155-.233-.155-5.43 4.189-10.782 8.378-16.755 11.48-3.025 1.474-6.127 2.638-9.463 2.405-1.551-.078-3.103-.465-4.499-1.164-1.241-.775-2.094-2.094-2.327-3.49-.233-1.551-.077-3.18.31-4.654.466-1.552 1.164-2.948 2.172-4.266.931-1.241 2.017-2.405 3.336-3.336 1.163-.931 2.637-1.629 4.111-1.939.62-.155 1.318-.155 2.017 0 .31.078.543.155.775.31.155.078.311.233.388.388.155.543.155 1.086 0 1.629-.233.621-.543 1.164-1.008 1.551-1.086 1.086-2.405 1.94-3.801 2.483-1.241.62-2.715.853-4.111.698h-.078-.077c-.776-.078-1.552.31-1.862 1.086-.31.698.31 1.706 1.474 1.861h.155c1.939.233 3.956-.155 5.74-1.008.776-.466 1.629-.853 2.327-1.396.853-.543 1.551-1.164 2.249-1.862.699-.776 1.242-1.706 1.552-2.792s.233-2.327-.31-3.336c-.311-.62-.776-1.086-1.319-1.474-.465-.232-1.008-.465-1.629-.543-1.008-.232-2.017-.155-3.025.078-1.784.465-3.491 1.319-4.964 2.482-1.397 1.086-2.638 2.405-3.646 3.956-2.172 2.948-3.103 6.748-2.482 10.394.155.931.543 1.862 1.086 2.637.543.776 1.241 1.474 2.172 1.94 1.628.853 3.413 1.241 5.274 1.163.853.078 1.784 0 2.637-.077l1.319-.233 1.241-.388c1.707-.543 3.258-1.241 4.809-2.094 6.051-3.336 11.248-7.757 16.522-12.023.078-.078 0-.155-.077-.311zm34.226.078-.077-.078c0-.077-.155-.155-.233-.077l-1.086.543c-.31.155-.543.233-.853.31-.31.155-.621.233-1.008.31-1.707.388-3.491.466-5.197.311-4.655-.543-8.998-2.56-12.489-5.74-.388-.466-.853-.931-1.163-1.397l-.311-.387c-.155-.156-.31-.388-.465-.621-.155-.155-.31-.31-.543-.388-.233 0-.465 0-.621.155-.232.078-.465.233-.698.388l-.465.31-.776.543c-.543.388-1.086.776-1.551 1.164-1.862 1.551-3.568 3.258-5.042 5.119-.31.388-.621.776-.931 1.164.698-1.784 1.164-3.258 1.396-4.034.156-.543.156-1.008.078-1.551s-.465-.931-1.008-1.086c-.543-.077-1.009.155-1.319.543s-.543.853-.621 1.319c-.465 3.025-1.163 5.972-2.016 8.842-.233.931-.543 1.862-.776 2.793-.078.155-.155.31-.233.465-.62 1.086-1.086 2.25-1.396 3.491-.233.698-.31 1.474-.31 2.249l.077.078c0 .077.078.155.155.155.388.155 1.009-.621 1.552-1.474.698-1.086 1.318-2.249 1.784-3.413 1.396-2.947 3.025-5.74 4.964-8.377 1.396-1.862 2.948-3.646 4.732-5.197.465-.388.931-.776 1.474-1.164.232-.155.465-.387.775-.543l.155-.155h.078l.155-.155c.155-.077.155.078.233.155l.543.698c.543.466.931 1.009 1.474 1.474 3.8 3.18 8.61 5.12 13.574 5.352 1.862.078 3.646-.155 5.352-.698.621-.232 1.241-.465 1.784-.775l.621-.311.155-.077v-.078c.077 0 .077 0 .077-.077zm54.273-26.218c0-.155-.155-.233-.31-.233l-2.405.311-3.956.465c-3.025.31-6.826.698-10.627.931-1.939.078-3.956.155-5.895.233.776-2.017 1.629-3.956 2.56-5.895.853-1.6294 1.706-3.2583 2.637-4.8097.466-.7756 1.009-1.4737 1.552-2.1718.465-.6206 1.085-1.1636 1.706-1.629l.078-.0775c.31-.2327.465-.4654.62-.7757.155-.3878.31-.6981.31-1.086 0-.4654-.31-.8532-.775-1.0083-.621-.1552-1.319 0-1.784.3878h-.078l-.077.0776c-.931.6205-1.629 1.3962-2.328 2.327-.542.7757-1.163 1.6289-1.628 2.4822-1.009 1.6289-1.862 3.3354-2.638 5.1194-1.086 2.327-2.016 4.654-2.87 7.059-.775 0-1.551 0-2.249 0-1.396-.078-2.637-.155-3.723-.233.077 0 .155-.078.232-.078.078 0 .155-.077.155-.077.078-.078.156-.155.078-.233v-.077c-.078-.156-.233-.233-.388-.156-1.163 0-2.249-.232-3.335-.62-.621-.233-1.241-.31-1.939-.388-.543-.078-1.009 0-1.474.233-.543.232-.931.62-1.241 1.163-.078.155-.078.311-.078.466 0 0 0 .077-.077.077-.156.543.543 1.086 1.241 1.474.93.465 1.939.698 2.947.776 2.56.155 5.042.232 7.602.077h1.396c-.155.388-.31.776-.465 1.164-1.241 3.568-2.327 7.136-3.413 10.782-1.164 3.568-2.017 7.291-2.638 11.014-.31 1.939-.387 3.879-.31 5.818 0 2.017.621 4.033 1.784 5.74.621.853 1.474 1.474 2.405 1.939 1.008.388 2.016.621 3.025.621 1.939 0 3.878-.311 5.74-.931 3.646-1.319 6.903-3.336 9.696-6.051 2.715-2.637 4.964-5.74 6.671-9.075l-.466-.31c-1.784 3.335-4.033 6.283-6.826 8.765-2.715 2.482-5.895 4.421-9.463 5.585-1.706.543-3.491.775-5.275.698-1.706 0-3.335-.776-4.343-2.094-.931-1.552-1.397-3.258-1.319-4.965-.078-1.861.078-3.645.465-5.429.621-3.646 1.629-7.214 2.793-10.705 1.241-3.568 2.404-7.136 3.801-10.627.232-.698.543-1.473.775-2.171 2.327-.156 4.81-.466 7.292-.776 3.878-.466 7.679-1.086 10.704-1.629l3.956-.698 1.319-.31.543-.078.155-.078h.077c.078 0 .155-.155.155-.232zm25.796 25.985c-1.707 2.25-3.801 4.189-6.128 5.818-2.249 1.706-4.809 2.947-7.524 3.568-.621.155-1.319.233-1.939.155-.543-.077-1.086-.31-1.552-.698-.31-.388-.543-1.008-.465-1.551 0-.621.078-1.319.233-1.94.62-2.714 1.784-5.352 2.637-8.144.233-.698.388-1.474.543-2.172.155-.853.155-1.784-.078-2.637-.155-.466-.465-1.009-.93-1.319-.233-.155-.466-.31-.698-.388-.233-.077-.466-.155-.776-.155-.466-.077-.931-.077-1.396 0-.388.078-.776.233-1.241.388-1.397.62-2.715 1.551-3.801 2.637-1.086 1.009-2.095 2.095-3.025 3.258-1.862 2.327-3.568 4.654-5.042 7.214-.155.155-.233.388-.388.543.543-2.948 1.241-5.818 2.094-8.688.31-1.008 3.413-10.549 7.214-19.392 1.629-4.033 3.646-7.834 5.895-11.5572.776-1.086 1.551-2.0943 2.482-3.0252.311-.2327.543-.4654.776-.6205l.31-.2327c.078-.0776.155-.0776.233-.1551.078-.1552.155-.2327.233-.3879.232-.3878.387-.7757.387-1.2411 0-.3102-.077-.5429-.31-.7756-.155-.2327-.465-.3103-.775-.3103-.233 0-.543 0-.776.0776-.233.0775-.388.1551-.543.2327l-.078.0775-.155.0776c-.543.3878-1.086.9308-1.551 1.4738-.931 1.0859-1.707 2.2494-2.327 3.413-1.862 3.4905-3.491 7.0584-4.809 10.7044-2.948 8.222-5.508 17.375-6.749 21.486-.31 1.086-1.784 5.197-3.18 9.153-.698 1.939-1.319 3.801-1.784 5.275l-.698 2.327v.077c-.078.311-.155 1.862 1.086 2.017.775.078 1.396-.31 1.706-1.008.155-.155.233-.311.311-.543h.077v-.078c1.008-2.637 2.25-5.119 3.646-7.602 1.318-2.404 2.87-4.809 4.576-7.058.853-1.086 1.707-2.094 2.715-3.103.853-.931 1.939-1.784 3.103-2.404.465-.233 1.008-.311 1.551-.311.543.078.621.155.776.543.155.543.233 1.164.077 1.707-.077.698-.232 1.318-.387 2.016-.699 2.715-1.784 5.353-2.327 8.3-.156.776-.233 1.552-.233 2.327 0 .853.31 1.784.931 2.405.62.62 1.473.931 2.327 1.008.775 0 1.551-.077 2.327-.232 2.87-.776 5.507-2.172 7.756-4.034 2.327-1.784 4.422-3.878 6.128-6.205zm24.922 0c-2.404 3.413-5.274 6.438-8.455 9.076-1.629 1.318-3.335 2.404-5.197 3.258-1.784.853-3.723 1.241-5.74 1.241-1.939 0-3.878-.543-5.042-1.784-1.163-1.241-1.396-3.103-1.086-4.965.388-2.016.931-3.956 1.707-5.817.698-1.939 1.551-3.801 2.404-5.663l.078-.077c.233-.543-.233-1.241-.931-1.552-.62-.387-1.396-.232-1.861.311v.077c-.854 2.017-1.552 3.956-2.25 6.05-.698 2.017-1.163 4.189-1.474 6.283-.155 1.242-.077 2.405.155 3.569.233 1.241.854 2.327 1.785 3.257.853.776 1.939 1.397 3.18 1.707 1.086.31 2.249.465 3.335.388 2.25-.078 4.422-.698 6.361-1.707 1.939-1.008 3.723-2.249 5.352-3.723 3.103-2.792 5.817-6.05 8.145-9.618zm-24.744-12.333c2.792.31 5.507-.388 7.757-2.017.233-.155.31-.388.31-.62-.077-.466-.233-.853-.62-1.086-.233-.31-.621-.543-1.009-.621-.233-.077-.465 0-.62.155-1.397 1.862-3.491 3.181-5.818 3.646h-.078c-.155 0-.232.078-.232.155v.155c0 .156.155.233.31.233zm50.595 12.488c-.078-.077-.155-.077-.233 0-.078.078-.155.156-.233.311-1.008 1.706-2.172 3.335-3.568 4.731-1.706 1.707-3.568 3.181-5.662 4.267-1.009.543-2.095.853-3.258.93-.465.078-.931-.155-1.241-.465-.388-.31-.543-.776-.621-1.319-.077-1.086.078-2.172.466-3.258.31-1.085.775-2.249 1.163-3.335.466-1.086.931-2.249 1.396-3.413.156-.543.388-1.163.466-1.784.233-.698.233-1.474.077-2.172-.232-1.008-1.008-1.706-1.939-1.861-.775-.078-1.551.077-2.249.387-1.241.466-2.405 1.164-3.336 2.017-1.939 1.629-3.645 3.491-5.119 5.507-.155.233-.31.466-.543.699.62-1.552 1.008-2.87 1.241-3.569.155-.543.155-1.086 0-1.551-.078-.543-.465-1.008-.931-1.086-.543-.077-1.008.078-1.318.543-.311.388-.543.853-.621 1.319-.543 3.025-1.163 5.972-2.017 8.842-.232.776-.465 1.552-.62 2.327-.931 1.629-1.862 3.336-2.715 5.042v.078c-.233.698.077 1.396.698 1.706h.078.077c.621.388 1.474.156 1.862-.465v-.078c1.861-4.343 4.111-8.532 6.748-12.41 1.319-1.94 2.793-3.724 4.499-5.353.776-.698 1.707-1.318 2.715-1.784.388-.232.776-.31 1.241-.31.078 0 .233.078.31.155.155 0 .155.155.233.311.078.387.078.93 0 1.396-.078.543-.233 1.086-.388 1.629-.388 1.086-.776 2.249-1.163 3.335-.466 1.164-.854 2.327-1.164 3.491-.388 1.241-.465 2.559-.31 3.878.155.698.465 1.396 1.008 1.862.543.543 1.241.775 2.017.698 1.319-.155 2.482-.543 3.646-1.164 2.094-1.241 4.033-2.792 5.662-4.654 1.396-1.474 2.637-3.103 3.646-4.887.077-.077.077-.232.155-.31 0-.077-.078-.155-.155-.233zm33.358.078-.078-.078c-.077-.077-.31-.077-.387.078-1.241 1.629-2.638 3.18-4.111 4.577-2.172 2.016-5.12 4.421-8.455 5.507-1.629.543-3.336.62-5.042.31-1.474-.388-2.87-1.086-3.956-2.172-1.629-1.474-3.025-3.335-4.034-5.274-.232-.543-.543-1.009-.853-1.474.621-.543 1.319-1.086 2.017-1.629 1.939-1.551 3.878-2.948 5.973-4.189 1.008-.62 2.016-1.241 3.102-1.706 1.009-.543 2.017-.853 3.103-1.086.155-.078.62-.388.62-1.629.078-.388 0-.698-.31-1.008-.232-.233-.62-.388-.931-.311h-.077-.078c-.931.388-1.861.853-2.715 1.396-1.629 1.009-3.102 2.095-4.499 3.336-2.404 2.094-4.809 4.576-6.593 6.36-.077-.077-.155-.232-.232-.31-.543-.62-1.242-1.241-1.785-1.008-.542.232-.542 1.008-.387 1.861.077.466.232 1.009.387 1.474l-2.559 2.637c-.776.699-1.552 1.474-2.327 2.25.543-4.111 1.474-8.222 2.637-12.256.31-1.008 3.413-10.549 7.214-19.392 1.629-4.033 3.645-7.834 5.895-11.5572.776-1.086 1.551-2.0943 2.482-3.0252.31-.2327.543-.4654.776-.6205l.31-.2327c.078-.0776.155-.0776.233-.1551.077-.1552.155-.2327.232-.3879.233-.3878.388-.7757.388-1.2411 0-.3102-.077-.5429-.31-.7756-.155-.2327-.465-.3103-.776-.3103-.232 0-.543 0-.775.0776-.233.0775-.388.1551-.543.2327l-.078.0775-.155.0776c-.543.3878-1.086.9308-1.551 1.4738-.931 1.0859-1.707 2.2494-2.327 3.413-1.862 3.4905-3.491 7.0584-4.81 10.7044-2.947 8.222-5.507 17.375-6.748 21.486-.31 1.086-1.784 5.197-3.18 9.153-.698 1.939-1.319 3.801-1.784 5.275l-.698 2.327v.077c-.078.311-.156 1.862 1.086 2.017.62.078 1.163-.155 1.473-.698.155-.078.311-.155.388-.31l.078-.078c.465-1.474 1.086-2.947 1.861-4.266 1.086-1.939 2.405-3.723 3.879-5.43.077.233.232.466.388.698 1.241 2.25 2.947 4.189 4.964 5.818 1.551 1.241 3.413 2.094 5.352 2.404 2.017.233 4.111-.077 6.05-.93 3.336-1.552 6.283-3.801 8.61-6.594 1.009-1.086 1.862-2.172 2.483-3.025.31-.388.62-.775.853-1.086l.232-.465.078-.078.078-.077c0-.078 0-.233-.078-.233zm47.001-.233c-1.241 1.319-2.715 2.405-4.266 3.336-2.25 1.241-4.654 2.094-7.214 2.482-1.551.155-3.18.155-4.731-.233.853-1.706 1.551-3.413 2.016-5.274.311-1.009.388-2.017.388-3.026.078-1.008-.31-2.016-1.008-2.792-.388-.388-.931-.621-1.396-.776h-.078c.078-.853-.233-1.473-.776-1.473h-.077c-1.629.232-3.181.93-4.422 2.016-1.163.931-2.249 2.017-3.102 3.258-1.707 2.327-3.025 4.964-3.879 7.757-.388 1.319-.698 2.792-.775 4.266-.078.698-.078 1.474.077 2.172.155.853.466 1.551.931 2.172.543.698 1.396 1.086 2.172 1.086.776.077 1.551 0 2.249-.31 1.319-.543 2.56-1.474 3.491-2.56 1.241-1.319 2.327-2.87 3.258-4.499 0-.155.077-.233.155-.31h.077c1.94.077 3.801-.078 5.585-.621 2.56-.62 5.042-1.551 7.292-2.87 1.629-.931 3.102-2.094 4.421-3.49zm-17.685 7.292c-.854 1.629-1.862 3.102-3.103 4.421-.931 1.008-2.094 1.707-3.335 2.172-1.241.31-2.638.233-3.258-.698-.621-1.086-.776-2.327-.543-3.568.233-1.319.543-2.56 1.086-3.801.931-2.482 2.327-4.809 4.033-6.826.078-.078.078-.155.155-.155-.077.233-.155.543-.232.853-.466 1.939 0 4.034 1.318 5.585.621.62 1.397 1.163 2.25 1.474.543.232 1.163.31 1.706.465 0 0 0 .078-.077.078zm-.698-2.56c-.388-.31-.854-.698-1.086-1.086-.311-.465-.466-.931-.543-1.474-.078-.62 0-1.241.155-1.939.155-1.241.698-2.482 1.474-3.491.31-.387.698-.698 1.163-.93.388-.233.853-.233 1.241 0 .466.388.776 1.008.853 1.629.156.853.156 1.784 0 2.714-.31 1.862-.853 3.646-1.628 5.275-.543-.155-1.086-.388-1.629-.698zm30.656-5.43c-3.879-.232-6.904-.388-9.541-.31-.621.078-1.241.078-1.862.155-.077 0-.077 0-.155 0 .621-2.017 1.241-3.956 1.862-5.973 1.241-3.878 2.56-7.756 4.111-11.48.776-1.939 1.551-3.723 2.482-5.507.388-.931.931-1.784 1.474-2.56.388-.775 1.008-1.473 1.629-2.016v-.078c.077-.078.155-.155.155-.233 0-.155 0-.232 0-.388 0-.387-.078-.698-.233-1.085-.077-.388-.388-.621-.775-.7761-.156-.0776-.388-.0776-.543 0-.156 0-.388.0771-.543.2331l-.078.077c-.776.776-1.551 1.707-2.094 2.793-.543.93-1.009 1.861-1.474 2.87-.853 1.861-1.551 3.8-2.25 5.817-1.396 3.879-2.482 7.834-3.568 11.79-.62 2.327-1.163 4.654-1.784 6.981h-.077c-1.396.543-1.241 2.25-.621 3.181-1.086 4.654-1.939 9.308-2.56 13.962-.387 2.249-.62 4.499-.698 6.748 0 .854 0 1.784.078 2.715 0 .853.233 1.707.62 2.482.078.233.233.388.388.543l.233.233.31.155c.233.078.466.155.698.155h.621c.698-.155 1.396-.465 2.017-.931.93-.853 1.706-1.861 2.249-2.947.543-.853 1.009-1.784 1.396-2.793.776-1.628 1.319-3.413 1.784-5.197.233-.93.388-1.861.466-2.792 0-.543 0-1.008.077-1.551 0-.543-.077-1.086-.077-1.707-.155-2.094-.776-4.188-1.939-5.973-.543-.853-1.164-1.551-1.94-2.171-.698-.621-1.473-1.164-2.094-1.629 0-.078-.077-.078-.077-.155.077-.466.232-1.009.387-1.474.233-.078.543-.155.776-.233.543-.155 1.164-.233 1.707-.31 3.18-.311 6.283-.311 9.385-.078 2.25.155 4.499.31 6.671.543l.078-.465c-2.25-.311-4.499-.466-6.671-.621zm-11.713 5.973c.465.62.931 1.241 1.241 1.939.698 1.551 1.086 3.258 1.164 4.887.077.543.077 1.008.077 1.474v1.396c0 .853 0 1.706-.155 2.56-.155 1.706-.388 3.335-.776 5.041-.232.931-.543 1.862-.93 2.793-.388 1.008-1.009 1.939-1.707 2.792-.465.388-1.008.698-1.551.854-.621.232-1.241-.078-1.552-.621-.31-.698-.543-1.474-.62-2.249-.078-.854-.078-1.784-.078-2.638.078-2.249.311-4.421.698-6.671.776-4.343 1.784-8.61 2.948-12.876.465.543.853.931 1.241 1.319zm22.049 9.23c1.241 0 2.327-1.008 2.327-2.327 0-1.318-1.086-2.327-2.327-2.327-1.318 0-2.404 1.009-2.404 2.327 0 1.319 1.086 2.327 2.404 2.327zm17.763-60.0368v-.1552c-.077-.0775.078.0776-.233-.4654-.232-.4654-.698-.6981-1.163-.6981h-.078c-.232 0-.465.0776-.62.2327-.078 0-.155 0-.155.0776h-.078l-.155.1551c-.078.0776-.155.1551-.233.2327-.077.0776-.155.1551-.232.3103-.388.543-.698 1.1635-1.009 1.784-.232.4654-.465 1.0084-.62 1.5514v.0776h-.078c-.077.3878-.077.7756.078 1.1635.077.3878.31.7756.698.8532-.466 2.1719-1.086 4.4989-1.629 6.9811-2.017 7.9893-4.266 16.7543-5.43 20.7103-.62 2.017-5.895 15.669-5.895 15.669v.077c-.078.311-.233 1.707.931 2.095 1.163.31 1.784-.931 1.939-1.241v-.155c.853-5.508 2.017-10.937 3.568-16.29.233-1.008 3.258-10.083 6.05-18.8485 1.474-4.4214 2.87-8.7652 3.879-12.023l.31-1.2411.078-.3103.077-.2327v-.0775-.0776z"/></g></svg>