<svg fill="none" height="148" viewBox="0 0 584 148" width="584" xmlns="http://www.w3.org/2000/svg"><g fill="#e9d6d6" opacity=".2"><path d="m44.48 23.81c-.28-2.59-1.12-5.04-2.38-7.28-.28-.49-.7-.98-.98-1.47-.42-.49-.84-.91-1.26-1.33-.91-.84-2.1-1.47-3.29-1.82l-.98-.21c-.14 0-.35-.07-.49-.07h-.49l-1.05-.07-1.05.14c-1.54.28-3.01.91-4.27 1.75-2.8 1.82-5.39 4.83-7.98 8.89-1.33 2.24-2.59 4.48-3.71 6.79-1.89 3.5-3.57 7.14-5.11 10.85.35-.98.63-1.89.91-2.8 2.31-7.42 4.41-14.91 6.02-22.54l.07-.07c.07-.56-.42-1.05-1.19-1.19-.14-.07-.35-.07-.56-.07-.07.07-.07.07-.07.07-.07 0-.14 0-.21.07-.42.07-.7.28-.98.56-.35.28-.56.7-.63 1.19l-.07.28-.07.21v.49.77c.07.42 0 .91-.07 1.4s-.21.91-.49 1.33c0 0 .14.07.21.14s.14.14.21.14.14-.14.21-.21c-1.12 5.74-2.45 11.34-3.92 16.94-1.47 5.74-3.15 11.41-4.9 17.08l-2.38 5.88c-.14.42.35.91.98 1.12.7.28 1.4.21 1.54-.14v-.07l5.18-15.75c1.61-5.32 3.5-10.5 5.81-15.54 1.05-2.24 2.31-4.48 3.64-6.65 1.19-1.82 2.45-3.57 3.92-5.18 1.19-1.26 2.59-2.38 4.06-3.22 1.19-.77 2.59-1.19 3.99-1.33h.91l.91.14h.42c.14.07.28.14.42.14l.77.28c.91.35 1.75.91 2.38 1.68.28.42.56.77.84 1.19.21.49.49.84.7 1.33.91 2.03 1.54 4.27 1.82 6.44.21 2.31.28 4.62.07 6.86-.21 2.17-.63 4.27-1.19 6.37-.77 2.59-1.75 5.11-3.08 7.49-1.96 3.43-4.34 6.58-7.21 9.24-2.03 1.96-4.27 3.71-6.58 5.18-6.93 3.99-14.84 6.02-22.82 5.88h-.07c-.21 0-.49.63-.42 1.33 0 .77.21 1.33.56 1.33 8.26-.56 16.24-3.36 22.96-8.12 2.38-1.54 4.62-3.29 6.72-5.18 2.87-2.8 5.39-5.88 7.56-9.24 1.54-2.31 2.8-4.83 3.92-7.35.91-2.1 1.54-4.34 1.96-6.58.49-2.45.56-5.04.28-7.49zm18.5894 29.54c-1.12 1.19-2.45 2.17-3.85 3.01-2.03 1.12-4.2 1.89-6.51 2.24-1.4.14-2.87.14-4.27-.21.77-1.54 1.4-3.08 1.82-4.76.28-.91.35-1.82.35-2.73.07-.91-.28-1.82-.91-2.52-.35-.35-.84-.56-1.26-.7h-.07c.07-.77-.21-1.33-.7-1.33h-.07c-1.47.21-2.87.84-3.99 1.82-1.05.84-2.03 1.82-2.8 2.94-1.54 2.1-2.73 4.48-3.5 7-.35 1.19-.63 2.52-.7 3.85-.07.63-.07 1.33.07 1.96.14.77.42 1.4.84 1.96.49.63 1.26.98 1.96.98.7.07 1.4 0 2.03-.28 1.19-.49 2.31-1.33 3.15-2.31 1.12-1.19 2.1-2.59 2.94-4.06 0-.14.07-.21.14-.28h.07c1.75.07 3.43-.07 5.04-.56 2.31-.56 4.55-1.4 6.58-2.59 1.47-.84 2.8-1.89 3.99-3.15zm-15.96 6.58c-.77 1.47-1.68 2.8-2.8 3.99-.84.91-1.89 1.54-3.01 1.96-1.12.28-2.38.21-2.94-.63-.56-.98-.7-2.1-.49-3.22.21-1.19.49-2.31.98-3.43.84-2.24 2.1-4.34 3.64-6.16.07-.07.07-.14.14-.14-.07.21-.14.49-.21.77-.42 1.75 0 3.64 1.19 5.04.56.56 1.26 1.05 2.03 1.33.49.21 1.05.28 1.54.42 0 0 0 .07-.07.07zm-.63-2.31c-.35-.28-.77-.63-.98-.98-.28-.42-.42-.84-.49-1.33-.07-.56 0-1.12.14-1.75.14-1.12.63-2.24 1.33-3.15.28-.35.63-.63 1.05-.84.35-.21.77-.21 1.12 0 .42.35.7.91.77 1.47.14.77.14 1.61 0 2.45-.28 1.68-.77 3.29-1.47 4.76-.49-.14-.98-.35-1.47-.63zm61.4196-4.76c-3.78.56-7.35 1.96-10.4301 4.13.21-1.61.35-3.22.35-4.9v-.07c-.14-.63-.7-1.05-1.4-.98-.63-.07-1.19.42-1.33 1.05v.07.7c-.77.84-1.61 1.54-2.52 2.24-.98.84-2.03 1.54-3.15 2.24-1.12.77-2.38 1.33-3.71 1.75-.56.21-1.19.28-1.82.28-.21-.07-.49-.14-.7-.28-.14-.07-.28-.21-.42-.42-.21-.42-.28-.91-.28-1.4.07-.56.21-1.12.35-1.68.56-1.68 1.4-3.22 2.45-4.62.42-.56.77-1.12.98-1.75.28-.56.49-1.26.14-1.61-.35-.42-.98-.28-1.61.07-.63.49-1.26 1.05-1.68 1.75-1.05 1.68-1.89 3.57-2.38 5.53-.21.77-.28 1.54-.28 2.24 0 .98.28 1.89.84 2.66.63.77 1.61 1.26 2.59 1.19.91 0 1.75-.21 2.52-.56 1.4-.56 2.73-1.4 3.92-2.31 1.05-.84 2.1-1.68 3.08-2.59.63-.63 1.26-1.26 1.75-1.75 0 1.33-.07 2.73-.28 4.06-.07.42-.14.84-.21 1.26-.91.77-1.75 1.54-2.59 2.38-1.19 1.19-2.31 2.45-3.36 3.85-1.26 1.54-2.45 3.22-3.43 4.97-1.05 1.75-1.75 3.71-2.24 5.74-.07.49-.14 1.05-.14 1.61.07.56.21 1.19.49 1.68.28.63.84 1.05 1.47 1.19.7.14 1.33.07 1.96-.28.91-.56 1.75-1.33 2.38-2.24.63-.77 1.19-1.61 1.75-2.52 1.05-1.75 1.96-3.64 2.73-5.53s1.4-3.78 2.03-5.74c.28-.98.56-1.96.84-2.94.21-.98.49-1.89.7-3.01.07-.07.07-.14.07-.28.07 0 .14-.07.14-.07 3.1501-2.1 6.7901-3.43 10.5701-3.78.28 0 .49-.35.42-.7 0-.35-.28-.63-.56-.63zm-13.5801 7.91c-.21.98-.42 1.96-.7 2.94-.91 3.78-2.24 7.49-4.06 11.06-.42.84-.98 1.61-1.54 2.45-.49.77-1.12 1.4-1.89 1.96-.28.21-.56.28-.91.21s-.63-.28-.84-.56c-.35-.84-.42-1.75-.28-2.59.35-1.89.98-3.78 1.89-5.53s1.96-3.43 3.15-5.04c.98-1.33 2.1-2.59 3.29-3.71.63-.63 1.33-1.26 2.03-1.82-.07.21-.14.42-.14.63zm36.6311-7.42c-1.12 1.19-2.45 2.17-3.85 3.01-2.03 1.12-4.2 1.89-6.51 2.24-1.4.14-2.87.14-4.27-.21.77-1.54 1.4-3.08 1.82-4.76.28-.91.35-1.82.35-2.73.07-.91-.28-1.82-.91-2.52-.35-.35-.84-.56-1.26-.7h-.07c.07-.77-.21-1.33-.7-1.33h-.07c-1.47.21-2.87.84-3.99 1.82-1.05.84-2.03 1.82-2.8 2.94-1.54 2.1-2.73 4.48-3.5 7-.35 1.19-.63 2.52-.7 3.85-.07.63-.07 1.33.07 1.96.14.77.42 1.4.84 1.96.49.63 1.26.98 1.96.98.7.07 1.4 0 2.03-.28 1.19-.49 2.31-1.33 3.15-2.31 1.12-1.19 2.1-2.59 2.94-4.06 0-.14.07-.21.14-.28h.07c1.75.07 3.43-.07 5.04-.56 2.31-.56 4.55-1.4 6.58-2.59 1.47-.84 2.8-1.89 3.99-3.15zm-15.96 6.58c-.77 1.47-1.68 2.8-2.8 3.99-.84.91-1.89 1.54-3.01 1.96-1.12.28-2.38.21-2.94-.63-.56-.98-.7-2.1-.49-3.22.21-1.19.49-2.31.98-3.43.84-2.24 2.1-4.34 3.64-6.16.07-.07.07-.14.14-.14-.07.21-.14.49-.21.77-.42 1.75 0 3.64 1.19 5.04.56.56 1.26 1.05 2.03 1.33.49.21 1.05.28 1.54.42 0 0 0 .07-.07.07zm-.63-2.31c-.35-.28-.77-.63-.98-.98-.28-.42-.42-.84-.49-1.33-.07-.56 0-1.12.14-1.75.14-1.12.63-2.24 1.33-3.15.28-.35.63-.63 1.05-.84.35-.21.77-.21 1.12 0 .42.35.7.91.77 1.47.14.77.14 1.61 0 2.45-.28 1.68-.77 3.29-1.47 4.76-.49-.14-.98-.35-1.47-.63zm47.406-4.41h-.07c-.07-.07-.21-.07-.35.07-.91 1.61-2.1 3.08-3.5 4.34-2.24 2.1-5.04 3.43-8.12 3.78-.35.07-.77.07-1.19.07-.35-.07-.77-.07-1.12-.14s-.7-.21-1.05-.28l-.42-.28-.14-.07-.14-.07-.21-.14c-1.12-.7-1.82-1.89-1.96-3.15-.07-1.12.07-2.31.35-3.43.21-.77.49-1.54.84-2.31.28-.7.56-1.47.7-2.24s.21-1.61-.21-1.89-1.05.14-1.61.7c-.56.7-1.05 1.54-1.33 2.38-.28.91-.56 1.82-.77 2.73-.07.28-.14.63-.14.98-.91 1.54-1.82 3.01-2.8 4.41-1.05 1.54-2.1 3.01-3.29 4.34-.63.7-1.26 1.33-1.89 1.89-.7.49-1.47.91-1.96.84-.21-.07-.49-.21-.63-.42-.07-.14-.14-.28-.21-.42s-.14-.35-.14-.49c-.14-.84-.21-1.68-.14-2.52.14-1.75.42-3.57.91-5.25.42-1.75.91-3.5 1.47-5.25.56-1.68 1.26-3.36 1.96-4.97l.07-.07c.14-.42-.21-.98-.84-1.4-.21-.21-.56-.28-.84-.28-.35.07-.63.28-.84.56v.07c-.7 1.75-1.33 3.57-1.82 5.39s-.98 3.64-1.33 5.46c-.35 1.89-.56 3.78-.63 5.67 0 1.05.07 2.03.35 3.01.07.28.14.56.28.77.14.28.28.56.49.77.21.28.49.49.77.63s.63.28.91.28c.35.07.7 0 .98-.07l.42-.14.42-.14c.42-.28.84-.56 1.26-.91.7-.7 1.33-1.4 1.96-2.1 1.12-1.54 2.24-3.08 3.15-4.69.63-.98 1.26-2.03 1.82-3.08 0 .49.07.98.14 1.47.14.91.49 1.82 1.05 2.59.56.84 1.26 1.47 2.17 1.96.21.07.42.21.56.28.28.14.49.21.77.28l.7.21.7.07c.98.14 1.96.07 2.87-.07 1.75-.35 3.43-.98 4.97-1.96 1.33-.77 2.59-1.82 3.64-2.94.49-.56.84-1.12 1.26-1.54l.91-1.4c.28-.42.42-.77.63-1.05l.21-.42.07-.14v-.07c.07-.07 0-.14-.07-.21zm47.857.14c-1.54 2.03-3.43 3.78-5.53 5.25-2.03 1.54-4.34 2.66-6.79 3.22-.56.14-1.19.21-1.75.14-.49-.07-.98-.28-1.4-.63-.28-.35-.49-.91-.42-1.4 0-.56.07-1.19.21-1.75.56-2.45 1.61-4.83 2.38-7.35.21-.63.35-1.33.49-1.96.14-.77.14-1.61-.07-2.38-.14-.42-.42-.91-.84-1.19-.21-.14-.42-.28-.63-.35s-.42-.14-.7-.14c-.42-.07-.84-.07-1.26 0-.35.07-.7.21-1.12.35-1.26.56-2.45 1.4-3.43 2.38-.98.91-1.89 1.89-2.73 2.94-1.68 2.1-3.22 4.2-4.55 6.51-.14.14-.21.35-.35.49.49-2.66 1.12-5.25 1.89-7.84.28-.91 3.08-9.52 6.51-17.5 1.47-3.64 3.29-7.07 5.32-10.43.7-.98 1.4-1.89 2.24-2.73.28-.21.49-.42.7-.56l.28-.21c.07-.07.14-.07.21-.14.07-.14.14-.21.21-.35.21-.35.35-.7.35-1.12 0-.28-.07-.49-.28-.7-.14-.21-.42-.28-.7-.28-.21 0-.49 0-.7.07s-.35.14-.49.21l-.07.07-.14.07c-.49.35-.98.84-1.4 1.33-.84.98-1.54 2.03-2.1 3.08-1.68 3.15-3.15 6.37-4.34 9.66-2.66 7.42-4.97 15.68-6.09 19.39-.28.98-1.61 4.69-2.87 8.26-.63 1.75-1.19 3.43-1.61 4.76l-.63 2.1v.07c-.07.28-.14 1.68.98 1.82.7.07 1.26-.28 1.54-.91.14-.14.21-.28.28-.49h.07v-.07c.91-2.38 2.03-4.62 3.29-6.86 1.19-2.17 2.59-4.34 4.13-6.37.77-.98 1.54-1.89 2.45-2.8.77-.84 1.75-1.61 2.8-2.17.42-.21.91-.28 1.4-.28.49.07.56.14.7.49.14.49.21 1.05.07 1.54-.07.63-.21 1.19-.35 1.82-.63 2.45-1.61 4.83-2.1 7.49-.14.7-.21 1.4-.21 2.1 0 .77.28 1.61.84 2.17s1.33.84 2.1.91c.7 0 1.4-.07 2.1-.21 2.59-.7 4.97-1.96 7-3.64 2.1-1.61 3.99-3.5 5.53-5.6zm40.971.14c-.14-.07-.28-.07-.28-.07-1.12 1.61-2.38 3.08-3.78 4.41-1.4 1.4-2.87 2.66-4.48 3.78-1.54 1.12-3.22 2.03-5.04 2.73-.84.35-1.75.63-2.66.84l-1.4.28-.7.07-.7.07h-1.4c-.49 0-.98 0-1.4-.07-.91-.07-1.82-.21-2.73-.56-1.61-.42-2.94-1.61-3.57-3.22-.56-1.68-.63-3.43-.28-5.18.28-1.26.56-2.52.98-3.78.07-.14.14-.21.14-.21v-.07c.07-.14.07-.28.07-.42.14-.35.21-.63.35-.98v-.07c.14-.63-.28-1.26-.91-1.4-.42-.14-.91-.14-1.33.14 0-.21-.14-.42-.21-.56-.14-.21-.21-.35-.35-.56-.21-.28-.42-.42-.63-.63-1.12-.91-2.66-1.26-4.06-1.05-1.75.35-3.36 1.26-4.55 2.45-1.33 1.4-2.38 2.94-3.22 4.62s-1.61 3.5-2.1 5.32c-.28.91-.49 1.89-.49 2.8-.14.98.07 1.96.42 2.8.42.91 1.19 1.47 2.17 1.75.14 0 .42.07.63.07h.28c.14 0 .21 0 .28-.07.21 0 .42 0 .63-.07l.49-.21c1.12-.42 2.17-1.05 3.15-1.82l.91-.77c.42-.35.91-.84 1.47-1.33 1.26-1.26 2.38-2.59 3.36-3.99 0 1.4.28 2.8.77 4.06.49 1.05 1.19 2.03 2.1 2.73s1.89 1.19 2.94 1.47 2.1.42 3.15.49h1.54l1.54-.14.77-.07.7-.14 1.54-.35c.98-.28 1.89-.63 2.87-1.05 1.82-.84 3.5-1.82 5.11-3.08s3.08-2.59 4.41-4.06 2.52-3.01 3.64-4.69c0-.07-.07-.14-.14-.21zm-30.38-.07c-.28.84-.7 1.89-1.19 3.08-.56 1.33-1.26 2.66-2.03 3.85-.91 1.47-2.1 2.8-3.43 3.92-.49.35-1.05.77-1.61 1.05s-1.05.49-1.68.63c-.63.21-1.33.14-1.96-.07-.7-.35-1.19-.98-1.33-1.68-.21-.91-.21-1.75 0-2.66.49-1.89 1.19-3.78 2.17-5.46.84-1.75 2.03-3.36 3.36-4.69 1.05-1.12 2.45-1.82 3.92-2.1.84-.14 1.68.14 2.24.77.14.21.28.42.28.63v.07c.07 0 .07.07.07.14.07.07.14.14.21.28.21.35.56.63.98.77.14.07.28.07.42.07-.14.35-.28.84-.42 1.4zm52.85-.21h-1.19-1.75c-1.68-.07-3.29.07-4.97.21-.98.14-2.03.35-3.01.7-1.05.42-2.03.98-2.94 1.68-.91.77-1.68 1.68-2.38 2.66-.63.98-1.26 1.96-1.89 2.94-.7.91-1.33 1.89-2.03 2.8-.14.21-.35.42-.49.63-.14.14-.28.35-.49.49 0 .07-.07.07-.21.07-.07 0-.14 0-.21-.07s-.07-.14-.14-.21c-.07-.21-.14-.42-.14-.63-.14-.42-.21-.91-.28-1.47-.07-.98-.07-1.96-.07-2.94.14-2.87.63-5.74 1.4-8.54.35-1.05.63-2.17.84-3.15s.49-1.96.07-2.31c-.49-.28-1.26.35-1.89 1.19-.7 1.05-1.19 2.24-1.54 3.43-.7 3.01-1.12 6.16-1.05 9.31 0 1.12.07 2.24.21 3.29.07.63.21 1.26.42 1.82 0 .14.07.35.14.49l.14.21c0 .14.07.21.14.35.07.21.21.42.42.56.07.07.14.21.21.28l.28.21c.42.21.91.28 1.33.14.49-.14.91-.42 1.19-.77.28-.21.49-.49.7-.77s.35-.49.56-.77c.63-.98 1.26-2.03 1.89-3.08.63-.98 1.26-2.1 1.89-3.01.56-.91 1.26-1.75 2.1-2.45 1.61-1.26 3.5-2.03 5.46-2.24 1.61-.21 3.22-.35 4.83-.42l1.68-.07h.63.14.07c.07 0 .14-.14.14-.21v-.07c0-.14-.07-.28-.21-.28zm28.444.28c-.07-.07-.21-.14-.21-.14-4.9 3.78-9.73 7.56-15.12 10.36-2.73 1.33-5.53 2.38-8.54 2.17-1.4-.07-2.8-.42-4.06-1.05-1.12-.7-1.89-1.89-2.1-3.15-.21-1.4-.07-2.87.28-4.2.42-1.4 1.05-2.66 1.96-3.85.84-1.12 1.82-2.17 3.01-3.01 1.05-.84 2.38-1.47 3.71-1.75.56-.14 1.19-.14 1.82 0 .28.07.49.14.7.28.14.07.28.21.35.35.14.49.14.98 0 1.47-.21.56-.49 1.05-.91 1.4-.98.98-2.17 1.75-3.43 2.24-1.12.56-2.45.77-3.71.63h-.07-.07c-.7-.07-1.4.28-1.68.98-.28.63.28 1.54 1.33 1.68h.14c1.75.21 3.57-.14 5.18-.91.7-.42 1.47-.77 2.1-1.26.77-.49 1.4-1.05 2.03-1.68.63-.7 1.12-1.54 1.4-2.52s.21-2.1-.28-3.01c-.28-.56-.7-.98-1.19-1.33-.42-.21-.91-.42-1.47-.49-.91-.21-1.82-.14-2.73.07-1.61.42-3.15 1.19-4.48 2.24-1.26.98-2.38 2.17-3.29 3.57-1.96 2.66-2.8 6.09-2.24 9.38.14.84.49 1.68.98 2.38s1.12 1.33 1.96 1.75c1.47.77 3.08 1.12 4.76 1.05.77.07 1.61 0 2.38-.07l1.19-.21 1.12-.35c1.54-.49 2.94-1.12 4.34-1.89 5.46-3.01 10.15-7 14.91-10.85.07-.07 0-.14-.07-.28z"/><path d="m254.84 120.49c-.14-.07-.28-.07-.28-.07-1.12 1.61-2.38 3.08-3.78 4.41-1.4 1.4-2.87 2.66-4.48 3.78-1.54 1.12-3.22 2.03-5.04 2.73-.84.35-1.75.63-2.66.84l-1.4.28-.7.07-.7.07h-1.4c-.49 0-.98 0-1.4-.07-.91-.07-1.82-.21-2.73-.56-1.61-.42-2.94-1.61-3.57-3.22-.56-1.68-.63-3.43-.28-5.18.28-1.26.56-2.52.98-3.78.07-.14.14-.21.14-.21v-.07c.07-.14.07-.28.07-.42.14-.35.21-.63.35-.98v-.07c.14-.63-.28-1.26-.91-1.4-.42-.14-.91-.14-1.33.14 0-.21-.14-.42-.21-.56-.14-.21-.21-.35-.35-.56-.21-.28-.42-.42-.63-.63-1.12-.91-2.66-1.26-4.06-1.05-1.75.35-3.36 1.26-4.55 2.45-1.33 1.4-2.38 2.94-3.22 4.62s-1.61 3.5-2.1 5.32c-.28.91-.49 1.89-.49 2.8-.14.98.07 1.96.42 2.8.42.91 1.19 1.47 2.17 1.75.14 0 .42.07.63.07h.28c.14 0 .21 0 .28-.07.21 0 .42 0 .63-.07l.49-.21c1.12-.42 2.17-1.05 3.15-1.82l.91-.77c.42-.35.91-.84 1.47-1.33 1.26-1.26 2.38-2.59 3.36-3.99 0 1.4.28 2.8.77 4.06.49 1.05 1.19 2.03 2.1 2.73s1.89 1.19 2.94 1.47 2.1.42 3.15.49h1.54l1.54-.14.77-.07.7-.14 1.54-.35c.98-.28 1.89-.63 2.87-1.05 1.82-.84 3.5-1.82 5.11-3.08s3.08-2.59 4.41-4.06 2.52-3.01 3.64-4.69c0-.07-.07-.14-.14-.21zm-30.38-.07c-.28.84-.7 1.89-1.19 3.08-.56 1.33-1.26 2.66-2.03 3.85-.91 1.47-2.1 2.8-3.43 3.92-.49.35-1.05.77-1.61 1.05s-1.05.49-1.68.63c-.63.21-1.33.14-1.96-.07-.7-.35-1.19-.98-1.33-1.68-.21-.91-.21-1.75 0-2.66.49-1.89 1.19-3.78 2.17-5.46.84-1.75 2.03-3.36 3.36-4.69 1.05-1.12 2.45-1.82 3.92-2.1.84-.14 1.68.14 2.24.77.14.21.28.42.28.63v.07c.07 0 .07.07.07.14.07.07.14.14.21.28.21.35.56.63.98.77.14.07.28.07.42.07-.14.35-.28.84-.42 1.4zm70.015.07c-.21-.28-.63-.42-.98-.21h-.07v.07c-.35.21-1.05.84-2.1 1.61-.56.35-1.26.7-1.96 1.12l-.56.35-.56.21c-.42.21-.84.35-1.26.56-.28.14-.63.21-.98.35l-1.96.56c-1.89.42-3.85.63-5.81.63-.07 0-.21 0-.35 0-.28-.63-.56-1.33-.84-2.03-.56-1.47-.91-3.01-1.05-4.55-.07-.7 0-1.47.14-2.17.07-.49.35-.91.84-1.19.42-.21.98-.28 1.47-.21s1.05.28 1.47.49c.63.28 1.12.77 1.47 1.4.07.14.14.35.14.56s.14.35.21.49c.28.28.56.56.98.7s.91 0 1.19-.42c.21-.28.28-.63.28-.98v-.07-.14c-.07-.14-.07-.35-.14-.63-.14-.35-.35-.7-.56-1.05-.63-.91-1.54-1.61-2.59-1.96-1.33-.63-2.87-.7-4.27-.21-.21.07-.42.14-.63.28-.14.14-.35.28-.56.42-.14.21-.35.35-.49.56-.07.21-.21.42-.28.63-.28.77-.42 1.61-.35 2.45.07 1.61.42 3.15 1.05 4.62.35.98.84 1.96 1.33 2.94-1.33-.14-2.59-.42-3.85-.84-.77-.28-1.54-.63-2.24-.98h-.07c0-.07-.07-.07-.07-.07-.21-.14-.49-.21-.7-.21-.49 0-.91.21-1.12.63-.14.21-.21.56-.21.84l.07.07v.07c.42 1.61 1.26 3.15 2.45 4.34.91.98 1.96 1.82 3.01 2.52.63.42 1.26.77 1.96 1.05.7.42 1.47.63 2.31.7h.28c.14 0 .28 0 .42-.07.28-.07.49-.21.63-.42s.28-.49.35-.77c.07-.49.07-.91 0-1.33-.14-1.19-.49-2.38-.98-3.43-.21-.42-.42-.84-.63-1.26.21-.07.42-.07.7-.07l.7-.07.7-.14 1.4-.21 1.26-.28c.84-.21 1.61-.42 2.31-.7l.98-.35.7-.28c.21-.07.84-.28 1.54-.49.7-.28 1.54-.63 2.38-.98s1.61-.7 2.24-.98l.98-.49c.14-.07.63-.49.28-.98zm-15.47 9.73c.42 1.05.56 2.17.14 2.73-.07.21-.28.28-.49.35-.14 0-.28 0-.42 0-.84-.14-1.61-.49-2.31-.98-1.12-.77-2.17-1.75-2.94-2.87-.77-.98-1.33-2.03-1.61-3.22-.07-.21-.14-.49-.14-.7.35.14.77.28 1.19.42 1.54.35 3.15.56 4.76.56.07.07.07.14.14.21.7 1.12 1.26 2.24 1.68 3.5zm48.316-9.73c0-.07-.14-.14-.21-.14l-1.4.7c-.77.35-1.54.7-2.31.98l-.42.21c-.35.14-.77.28-1.12.35l-.42.14c-.14.07-.28.07-.49.14-1.68.49-3.43.49-5.11-.07.49-.84.91-1.75 1.26-2.66.21-.56.28-1.12.21-1.68s-.28-1.12-.7-1.54c-.84-.77-2.1-.98-3.15-.42-.49.21-.98.63-1.26 1.12-.21.21-.28.49-.42.77-.07.21-.14.49-.21.77-.28 1.05-.07 2.24.56 3.15.14.21.28.42.49.56.14.14.35.28.56.42.42.28.84.42 1.26.56h.21v.07c-.14.14-.21.35-.35.56-.28.42-.56.84-.84 1.33l.42.21c.35-.42.63-.91.91-1.4.07-.07.07-.14.14-.21.07-.14.14-.28.28-.42.7.07 1.47.07 2.17 0 1.33-.07 2.66-.35 3.92-.7l1.33-.42.63-.21.28-.14.35-.14c.7-.28 1.33-.56 2.03-.84.49-.28.98-.56 1.4-.84.07-.07.07-.14 0-.21zm-12.25 1.89c-.21-.21-.42-.42-.63-.63-.07-.07-.14-.21-.14-.28-.07-.14-.14-.21-.14-.35-.07-.42-.07-.91 0-1.4.07-.14.14-.28.14-.42.07-.14.07-.21.14-.35s.14-.28.21-.42c.28-.28.63-.42.98-.35.21.07.42.28.49.56.14.35.21.77.14 1.19-.14.91-.42 1.82-.91 2.59-.07-.07-.14-.07-.28-.14zm-3.78 6.09c-.77.84-1.54 1.61-2.45 2.31-.77.77-1.75 1.33-2.73 1.75-.42.14-.84.21-1.26.14-.42-.14-.77-.42-.98-.7-.42-.91-.63-1.89-.56-2.87.07-1.05.21-2.17.49-3.22.49-2.17 1.19-4.34 2.03-6.44.07-.35-.35-.77-1.05-1.05s-1.4-.21-1.47.14h-.07c-.49 1.75-.91 3.43-1.26 5.25-1.19 1.89-2.45 3.71-3.85 5.46-.77.91-1.61 1.82-2.52 2.59-.21.14-.42.35-.7.49-.07.07-.21.14-.35.21-.07.07-.07.07-.14.07-.07.07-.07.07-.14.07-.14.07-.28.07-.42 0-.14 0-.28-.14-.28-.28-.07-.07-.07-.21-.07-.28-.07-.21-.07-.35-.07-.56 0-.35-.07-.77 0-1.12 0-.42 0-.77.07-1.19 0-.42.07-.77.14-1.19.21-1.61.49-3.15.84-4.76.77-3.08 1.82-6.09 3.29-8.89.21-.35-.21-.91-.84-1.33-.63-.35-1.33-.35-1.54.07-1.4 3.15-2.38 6.37-2.94 9.73-.28 1.68-.49 3.36-.56 4.97-.07.42-.07.84-.07 1.26-.07.49 0 .91 0 1.33s.07.84.07 1.26c0 .28.07.49.14.7.07.28.21.63.28.84.21.42.63.7 1.05.84.56.07 1.12 0 1.61-.28.07-.07.14-.07.28-.14s.28-.21.42-.28c.21-.21.49-.42.7-.63.91-.91 1.75-1.89 2.45-2.94 1.05-1.4 2.03-2.94 2.87-4.48v.21c-.21 1.19-.28 2.38-.28 3.64 0 1.33.42 2.66 1.19 3.78.49.56 1.12.98 1.89 1.12.7.07 1.47 0 2.1-.35 1.12-.49 2.1-1.26 2.94-2.1s1.61-1.75 2.38-2.66c.7-.98 1.26-1.96 1.96-2.94l-.42-.21c-.7.84-1.4 1.75-2.17 2.66zm44.297-7.98c-.07-.07-.21-.14-.21-.14-4.9 3.78-9.73 7.56-15.12 10.36-2.73 1.33-5.53 2.38-8.54 2.17-1.4-.07-2.8-.42-4.06-1.05-1.12-.7-1.89-1.89-2.1-3.15-.21-1.4-.07-2.87.28-4.2.42-1.4 1.05-2.66 1.96-3.85.84-1.12 1.82-2.17 3.01-3.01 1.05-.84 2.38-1.47 3.71-1.75.56-.14 1.19-.14 1.82 0 .28.07.49.14.7.28.14.07.28.21.35.35.14.49.14.98 0 1.47-.21.56-.49 1.05-.91 1.4-.98.98-2.17 1.75-3.43 2.24-1.12.56-2.45.77-3.71.63h-.07-.07c-.7-.07-1.4.28-1.68.98-.28.63.28 1.54 1.33 1.68h.14c1.75.21 3.57-.14 5.18-.91.7-.42 1.47-.77 2.1-1.26.77-.49 1.4-1.05 2.03-1.68.63-.7 1.12-1.54 1.4-2.52s.21-2.1-.28-3.01c-.28-.56-.7-.98-1.19-1.33-.42-.21-.91-.42-1.47-.49-.91-.21-1.82-.14-2.73.07-1.61.42-3.15 1.19-4.48 2.24-1.26.98-2.38 2.17-3.29 3.57-1.96 2.66-2.8 6.09-2.24 9.38.14.84.49 1.68.98 2.38s1.12 1.33 1.96 1.75c1.47.77 3.08 1.12 4.76 1.05.77.07 1.61 0 2.38-.07l1.19-.21 1.12-.35c1.54-.49 2.94-1.12 4.34-1.89 5.46-3.01 10.15-7 14.91-10.85.07-.07 0-.14-.07-.28zm28.438 0c-.07-.07-.21-.14-.21-.14-4.9 3.78-9.73 7.56-15.12 10.36-2.73 1.33-5.53 2.38-8.54 2.17-1.4-.07-2.8-.42-4.06-1.05-1.12-.7-1.89-1.89-2.1-3.15-.21-1.4-.07-2.87.28-4.2.42-1.4 1.05-2.66 1.96-3.85.84-1.12 1.82-2.17 3.01-3.01 1.05-.84 2.38-1.47 3.71-1.75.56-.14 1.19-.14 1.82 0 .28.07.49.14.7.28.14.07.28.21.35.35.14.49.14.98 0 1.47-.21.56-.49 1.05-.91 1.4-.98.98-2.17 1.75-3.43 2.24-1.12.56-2.45.77-3.71.63h-.07-.07c-.7-.07-1.4.28-1.68.98-.28.63.28 1.54 1.33 1.68h.14c1.75.21 3.57-.14 5.18-.91.7-.42 1.47-.77 2.1-1.26.77-.49 1.4-1.05 2.03-1.68.63-.7 1.12-1.54 1.4-2.52s.21-2.1-.28-3.01c-.28-.56-.7-.98-1.19-1.33-.42-.21-.91-.42-1.47-.49-.91-.21-1.82-.14-2.73.07-1.61.42-3.15 1.19-4.48 2.24-1.26.98-2.38 2.17-3.29 3.57-1.96 2.66-2.8 6.09-2.24 9.38.14.84.49 1.68.98 2.38s1.12 1.33 1.96 1.75c1.47.77 3.08 1.12 4.76 1.05.77.07 1.61 0 2.38-.07l1.19-.21 1.12-.35c1.54-.49 2.94-1.12 4.34-1.89 5.46-3.01 10.15-7 14.91-10.85.07-.07 0-.14-.07-.28zm29.347-23.59c0-.14-.14-.21-.28-.21l-2.17.28-3.57.42c-2.73.28-6.16.63-9.59.84-1.75.07-3.57.14-5.32.21.7-1.82 1.47-3.57 2.31-5.32.77-1.47 1.54-2.94 2.38-4.34.42-.7.91-1.33 1.4-1.96.42-.56.98-1.05 1.54-1.47l.07-.07c.28-.21.42-.42.56-.7.14-.35.28-.63.28-.98 0-.42-.28-.77-.7-.91-.56-.14-1.19 0-1.61.35h-.07l-.07.07c-.84.56-1.47 1.26-2.1 2.1-.49.7-1.05 1.47-1.47 2.24-.91 1.47-1.68 3.01-2.38 4.62-.98 2.1-1.82 4.2-2.59 6.37-.7 0-1.4 0-2.03 0-1.26-.07-2.38-.14-3.36-.21.07 0 .14-.07.21-.07s.14-.07.14-.07c.07-.07.14-.14.07-.21v-.07c-.07-.14-.21-.21-.35-.14-1.05 0-2.03-.21-3.01-.56-.56-.21-1.12-.28-1.75-.35-.49-.07-.91 0-1.33.21-.49.21-.84.56-1.12 1.05-.07.14-.07.28-.07.42 0 0 0 .07-.07.07-.14.49.49.98 1.12 1.33.84.42 1.75.63 2.66.7 2.31.14 4.55.21 6.86.07h1.26c-.14.35-.28.7-.42 1.05-1.12 3.22-2.1 6.44-3.08 9.73-1.05 3.22-1.82 6.58-2.38 9.94-.28 1.75-.35 3.5-.28 5.25 0 1.82.56 3.64 1.61 5.18.56.77 1.33 1.33 2.17 1.75.91.35 1.82.56 2.73.56 1.75 0 3.5-.28 5.18-.84 3.29-1.19 6.23-3.01 8.75-5.46 2.45-2.38 4.48-5.18 6.02-8.19l-.42-.28c-1.61 3.01-3.64 5.67-6.16 7.91-2.45 2.24-5.32 3.99-8.54 5.04-1.54.49-3.15.7-4.76.63-1.54 0-3.01-.7-3.92-1.89-.84-1.4-1.26-2.94-1.19-4.48-.07-1.68.07-3.29.42-4.9.56-3.29 1.47-6.51 2.52-9.66 1.12-3.22 2.17-6.44 3.43-9.59.21-.63.49-1.33.7-1.96 2.1-.14 4.34-.42 6.58-.7 3.5-.42 6.93-.98 9.66-1.47l3.57-.63 1.19-.28.49-.07.14-.07h.07c.07 0 .14-.14.14-.21zm44.912 0c0-.14-.14-.21-.28-.21l-2.17.28-3.57.42c-2.73.28-6.16.63-9.59.84-1.75.07-3.57.14-5.32.21.7-1.82 1.47-3.57 2.31-5.32.77-1.47 1.54-2.94 2.38-4.34.42-.7.91-1.33 1.4-1.96.42-.56.98-1.05 1.54-1.47l.07-.07c.28-.21.42-.42.56-.7.14-.35.28-.63.28-.98 0-.42-.28-.77-.7-.91-.56-.14-1.19 0-1.61.35h-.07l-.07.07c-.84.56-1.47 1.26-2.1 2.1-.49.7-1.05 1.47-1.47 2.24-.91 1.47-1.68 3.01-2.38 4.62-.98 2.1-1.82 4.2-2.59 6.37-.7 0-1.4 0-2.03 0-1.26-.07-2.38-.14-3.36-.21.07 0 .14-.07.21-.07s.14-.07.14-.07c.07-.07.14-.14.07-.21v-.07c-.07-.14-.21-.21-.35-.14-1.05 0-2.03-.21-3.01-.56-.56-.21-1.12-.28-1.75-.35-.49-.07-.91 0-1.33.21-.49.21-.84.56-1.12 1.05-.07.14-.07.28-.07.42 0 0 0 .07-.07.07-.14.49.49.98 1.12 1.33.84.42 1.75.63 2.66.7 2.31.14 4.55.21 6.86.07h1.26c-.14.35-.28.7-.42 1.05-1.12 3.22-2.1 6.44-3.08 9.73-1.05 3.22-1.82 6.58-2.38 9.94-.28 1.75-.35 3.5-.28 5.25 0 1.82.56 3.64 1.61 5.18.56.77 1.33 1.33 2.17 1.75.91.35 1.82.56 2.73.56 1.75 0 3.5-.28 5.18-.84 3.29-1.19 6.23-3.01 8.75-5.46 2.45-2.38 4.48-5.18 6.02-8.19l-.42-.28c-1.61 3.01-3.64 5.67-6.16 7.91-2.45 2.24-5.32 3.99-8.54 5.04-1.54.49-3.15.7-4.76.63-1.54 0-3.01-.7-3.92-1.89-.84-1.4-1.26-2.94-1.19-4.48-.07-1.68.07-3.29.42-4.9.56-3.29 1.47-6.51 2.52-9.66 1.12-3.22 2.17-6.44 3.43-9.59.21-.63.49-1.33.7-1.96 2.1-.14 4.34-.42 6.58-.7 3.5-.42 6.93-.98 9.66-1.47l3.57-.63 1.19-.28.49-.07.14-.07h.07c.07 0 .14-.14.14-.21zm18.298 23.45c-1.12 1.19-2.45 2.17-3.85 3.01-2.03 1.12-4.2 1.89-6.51 2.24-1.4.14-2.87.14-4.27-.21.77-1.54 1.4-3.08 1.82-4.76.28-.91.35-1.82.35-2.73.07-.91-.28-1.82-.91-2.52-.35-.35-.84-.56-1.26-.7h-.07c.07-.77-.21-1.33-.7-1.33h-.07c-1.47.21-2.87.84-3.99 1.82-1.05.84-2.03 1.82-2.8 2.94-1.54 2.1-2.73 4.48-3.5 7-.35 1.19-.63 2.52-.7 3.85-.07.63-.07 1.33.07 1.96.14.77.42 1.4.84 1.96.49.63 1.26.98 1.96.98.7.07 1.4 0 2.03-.28 1.19-.49 2.31-1.33 3.15-2.31 1.12-1.19 2.1-2.59 2.94-4.06 0-.14.07-.21.14-.28h.07c1.75.07 3.43-.07 5.04-.56 2.31-.56 4.55-1.4 6.58-2.59 1.47-.84 2.8-1.89 3.99-3.15zm-15.96 6.58c-.77 1.47-1.68 2.8-2.8 3.99-.84.91-1.89 1.54-3.01 1.96-1.12.28-2.38.21-2.94-.63-.56-.98-.7-2.1-.49-3.22.21-1.19.49-2.31.98-3.43.84-2.24 2.1-4.34 3.64-6.16.07-.07.07-.14.14-.14-.07.21-.14.49-.21.77-.42 1.75 0 3.64 1.19 5.04.56.56 1.26 1.05 2.03 1.33.49.21 1.05.28 1.54.42 0 0 0 .07-.07.07zm-.63-2.31c-.35-.28-.77-.63-.98-.98-.28-.42-.42-.84-.49-1.33-.07-.56 0-1.12.14-1.75.14-1.12.63-2.24 1.33-3.15.28-.35.63-.63 1.05-.84.35-.21.77-.21 1.12 0 .42.35.7.91.77 1.47.14.77.14 1.61 0 2.45-.28 1.68-.77 3.29-1.47 4.76-.49-.14-.98-.35-1.47-.63zm39.285-4.27c-1.12 1.19-2.45 2.17-3.85 3.01-2.03 1.12-4.2 1.89-6.51 2.24-1.4.14-2.87.14-4.27-.21.77-1.54 1.4-3.08 1.82-4.76.28-.91.35-1.82.35-2.73.07-.91-.28-1.82-.91-2.52-.35-.35-.84-.56-1.26-.7h-.07c.07-.77-.21-1.33-.7-1.33h-.07c-1.47.21-2.87.84-3.99 1.82-1.05.84-2.03 1.82-2.8 2.94-1.54 2.1-2.73 4.48-3.5 7-.35 1.19-.63 2.52-.7 3.85-.07.63-.07 1.33.07 1.96.14.77.42 1.4.84 1.96.49.63 1.26.98 1.96.98.7.07 1.4 0 2.03-.28 1.19-.49 2.31-1.33 3.15-2.31 1.12-1.19 2.1-2.59 2.94-4.06 0-.14.07-.21.14-.28h.07c1.75.07 3.43-.07 5.04-.56 2.31-.56 4.55-1.4 6.58-2.59 1.47-.84 2.8-1.89 3.99-3.15zm-15.96 6.58c-.77 1.47-1.68 2.8-2.8 3.99-.84.91-1.89 1.54-3.01 1.96-1.12.28-2.38.21-2.94-.63-.56-.98-.7-2.1-.49-3.22.21-1.19.49-2.31.98-3.43.84-2.24 2.1-4.34 3.64-6.16.07-.07.07-.14.14-.14-.07.21-.14.49-.21.77-.42 1.75 0 3.64 1.19 5.04.56.56 1.26 1.05 2.03 1.33.49.21 1.05.28 1.54.42 0 0 0 .07-.07.07zm-.63-2.31c-.35-.28-.77-.63-.98-.98-.28-.42-.42-.84-.49-1.33-.07-.56 0-1.12.14-1.75.14-1.12.63-2.24 1.33-3.15.28-.35.63-.63 1.05-.84.35-.21.77-.21 1.12 0 .42.35.7.91.77 1.47.14.77.14 1.61 0 2.45-.28 1.68-.77 3.29-1.47 4.76-.49-.14-.98-.35-1.47-.63zm46.076-27.72c0-.14-.14-.21-.28-.21l-2.17.28-3.57.42c-2.73.28-6.16.63-9.59.84-1.75.07-3.57.14-5.32.21.7-1.82 1.47-3.57 2.31-5.32.77-1.47 1.54-2.94 2.38-4.34.42-.7.91-1.33 1.4-1.96.42-.56.98-1.05 1.54-1.47l.07-.07c.28-.21.42-.42.56-.7.14-.35.28-.63.28-.98 0-.42-.28-.77-.7-.91-.56-.14-1.19 0-1.61.35h-.07l-.07.07c-.84.56-1.47 1.26-2.1 2.1-.49.7-1.05 1.47-1.47 2.24-.91 1.47-1.68 3.01-2.38 4.62-.98 2.1-1.82 4.2-2.59 6.37-.7 0-1.4 0-2.03 0-1.26-.07-2.38-.14-3.36-.21.07 0 .14-.07.21-.07s.14-.07.14-.07c.07-.07.14-.14.07-.21v-.07c-.07-.14-.21-.21-.35-.14-1.05 0-2.03-.21-3.01-.56-.56-.21-1.12-.28-1.75-.35-.49-.07-.91 0-1.33.21-.49.21-.84.56-1.12 1.05-.07.14-.07.28-.07.42 0 0 0 .07-.07.07-.14.49.49.98 1.12 1.33.84.42 1.75.63 2.66.7 2.31.14 4.55.21 6.86.07h1.26c-.14.35-.28.7-.42 1.05-1.12 3.22-2.1 6.44-3.08 9.73-1.05 3.22-1.82 6.58-2.38 9.94-.28 1.75-.35 3.5-.28 5.25 0 1.82.56 3.64 1.61 5.18.56.77 1.33 1.33 2.17 1.75.91.35 1.82.56 2.73.56 1.75 0 3.5-.28 5.18-.84 3.29-1.19 6.23-3.01 8.75-5.46 2.45-2.38 4.48-5.18 6.02-8.19l-.42-.28c-1.61 3.01-3.64 5.67-6.16 7.91-2.45 2.24-5.32 3.99-8.54 5.04-1.54.49-3.15.7-4.76.63-1.54 0-3.01-.7-3.92-1.89-.84-1.4-1.26-2.94-1.19-4.48-.07-1.68.07-3.29.42-4.9.56-3.29 1.47-6.51 2.52-9.66 1.12-3.22 2.17-6.44 3.43-9.59.21-.63.49-1.33.7-1.96 2.1-.14 4.34-.42 6.58-.7 3.5-.42 6.93-.98 9.66-1.47l3.57-.63 1.19-.28.49-.07.14-.07h.07c.07 0 .14-.14.14-.21zm23.279 23.45c-1.54 2.03-3.43 3.78-5.53 5.25-2.03 1.54-4.34 2.66-6.79 3.22-.56.14-1.19.21-1.75.14-.49-.07-.98-.28-1.4-.63-.28-.35-.49-.91-.42-1.4 0-.56.07-1.19.21-1.75.56-2.45 1.61-4.83 2.38-7.35.21-.63.35-1.33.49-1.96.14-.77.14-1.61-.07-2.38-.14-.42-.42-.91-.84-1.19-.21-.14-.42-.28-.63-.35s-.42-.14-.7-.14c-.42-.07-.84-.07-1.26 0-.35.07-.7.21-1.12.35-1.26.56-2.45 1.4-3.43 2.38-.98.91-1.89 1.89-2.73 2.94-1.68 2.1-3.22 4.2-4.55 6.51-.14.14-.21.35-.35.49.49-2.66 1.12-5.25 1.89-7.84.28-.91 3.08-9.52 6.51-17.5 1.47-3.64 3.29-7.07 5.32-10.43.7-.98 1.4-1.89 2.24-2.73.28-.21.49-.42.7-.56l.28-.21c.07-.07.14-.07.21-.14.07-.14.14-.21.21-.35.21-.35.35-.7.35-1.12 0-.28-.07-.49-.28-.7-.14-.21-.42-.28-.7-.28-.21 0-.49 0-.7.07s-.35.14-.49.21l-.07.07-.14.07c-.49.35-.98.84-1.4 1.33-.84.98-1.54 2.03-2.1 3.08-1.68 3.15-3.15 6.37-4.34 9.66-2.66 7.42-4.97 15.68-6.09 19.39-.28.98-1.61 4.69-2.87 8.26-.63 1.75-1.19 3.43-1.61 4.76l-.63 2.1v.07c-.07.28-.14 1.68.98 1.82.7.07 1.26-.28 1.54-.91.14-.14.21-.28.28-.49h.07v-.07c.91-2.38 2.03-4.62 3.29-6.86 1.19-2.17 2.59-4.34 4.13-6.37.77-.98 1.54-1.89 2.45-2.8.77-.84 1.75-1.61 2.8-2.17.42-.21.91-.28 1.4-.28.49.07.56.14.7.49.14.49.21 1.05.07 1.54-.07.63-.21 1.19-.35 1.82-.63 2.45-1.61 4.83-2.1 7.49-.14.7-.21 1.4-.21 2.1 0 .77.28 1.61.84 2.17s1.33.84 2.1.91c.7 0 1.4-.07 2.1-.21 2.59-.7 4.97-1.96 7-3.64 2.1-1.61 3.99-3.5 5.53-5.6zm27.678-35.07c-.14-.91-.56-1.75-1.19-2.45-.56-.63-1.26-1.19-2.1-1.61-1.47-.77-3.15-1.26-4.83-1.54-3.22-.49-6.58-.35-9.8.35-2.87.56-5.53 1.75-7.84 3.64-.91.77-1.75 1.68-2.31 2.8-.49.84-.84 1.75-1.05 2.66-.14.63-.14 1.26-.14 1.89v.63.14c.07.49.21.98.49 1.47.35.49.77.91 1.33.7.49-.21.77-.7.77-1.19.07-.42.14-.84.07-1.26v-.14c-.07-.7 0-1.47.14-2.1.28-1.47 1.05-2.8 2.17-3.85 2.73-2.66 8.12-4.48 13.79-4.34 1.4 0 2.8.14 4.2.42 1.33.28 2.59.84 3.71 1.68 1.05.77 1.61 2.03 1.47 3.29-.07.63-.28 1.26-.56 1.82s-.63 1.19-.98 1.75c-2.8 4.62-5.32 8.47-6.86 10.92-.42.63-1.4 2.17-2.66 4.2-1.4 2.31-2.73 4.62-3.85 7.07-1.19 2.52-2.24 4.97-2.94 6.86l-.84 2.24-.35.84v.07.07c-.14.42-.49 2.31.63 2.66 1.05.28 1.82-1.47 1.96-1.89v-.07l.07-.14c.28-1.19.84-4.06 2.1-7.98 1.47-4.76 3.57-9.38 6.3-13.65.35-.63 2.45-3.71 5.39-7.98.7-1.05 1.47-2.24 2.24-3.43 1.05-1.33 1.54-2.94 1.47-4.55zm-20.93 48.16c1.19 0 2.1-.91 2.1-2.1s-.91-2.1-2.1-2.1-2.1.91-2.1 2.1.91 2.1 2.1 2.1z"/></g></svg>