<svg fill="none" height="220" viewBox="0 0 752 220" width="752" xmlns="http://www.w3.org/2000/svg"><g fill="#e9d6d6" opacity=".2"><path d="m15.286 11.586c-1.056-.132-1.452.99-1.518 1.254v.066l-.066.132c0 .33-.33 2.178-.792 4.818-.528 2.64-1.254 6.138-2.112 9.768-1.584 7.326-3.63 15.312-4.686 18.876-.264.924-1.584 4.488-2.97 7.788-.66 1.65-1.32 3.234-1.848 4.356l-.594 1.386c-.132.33-.264.528-.264.528v.066c-.066.264-.33 1.452.594 1.848.99.462 1.65-.66 1.782-.924v-.066l.066-.066c.198-.792.66-2.64 1.254-5.28s1.386-5.94 2.376-9.504c.33-.924 2.97-9.174 5.346-17.226 1.188-4.026 2.376-7.986 3.168-10.956.396-1.518.726-2.772.924-3.63.198-.924.33-1.386.33-1.386v-.066c.066-.33.066-1.584-.99-1.782zm29.37 1.122c0-.396-.132-.792-.396-1.056-.198-.198-.396-.33-.726-.396-.066-.066-.198 0-.264.132-.066 0-.066.132-.066.198-.132 0-.264.066-.396.066-.33.198-.66.396-.99.66v.066l-.066.066c-.66.726-2.508 3.762-4.752 7.458s-4.884 8.118-7.392 11.55c-.66.924-1.452 1.914-2.31 2.97s-1.848 2.112-2.904 3.036c-.396.33-.792.594-1.254.792-.396.132-.792.066-.99-.264-.66-.726-1.056-1.65-1.32-2.64-.528-2.046-.924-4.158-1.122-6.27-.462-4.224-.66-8.58-.726-12.87v-.066c-.066-.33-.33-1.716-1.386-1.716-1.056.066-1.188 1.518-1.188 1.848v.066.132c.066.396.198 2.178.528 4.818.33 2.574.726 5.94 1.518 9.57.33 1.782.858 3.63 1.518 5.346.264.924.858 1.782 1.518 2.508.462.396 1.056.594 1.584.462s.924-.396 1.32-.726c1.188-1.122 2.31-2.31 3.3-3.63.858-1.188 1.65-2.244 2.244-3.102l4.752-6.468 4.488-5.742c.792-.99 1.584-1.98 2.376-2.97-.132.792-.264 1.584-.462 2.31-.396 2.178-.858 4.29-1.32 6.402l-2.838 12.738c-.858 4.224-1.914 8.448-2.64 12.804-.726 4.29-1.188 8.646-1.386 13.002h.462c.33-4.29.99-8.58 1.914-12.87.858-4.224 2.046-8.382 3.168-12.606l3.3-12.606c.594-2.112 1.122-4.224 1.584-6.336.264-1.056.528-2.112.726-3.234.264-1.122.462-2.244.594-3.366zm21.435 37.422c-2.046 2.904-4.488 5.478-7.194 7.722-1.386 1.122-2.838 2.046-4.422 2.772-1.518.726-3.168 1.056-4.884 1.056-1.65 0-3.3-.462-4.29-1.518s-1.188-2.64-.924-4.224c.33-1.716.792-3.366 1.452-4.95.594-1.65 1.32-3.234 2.046-4.818l.066-.066c.198-.462-.198-1.056-.792-1.32-.528-.33-1.188-.198-1.584.264v.066c-.726 1.716-1.32 3.366-1.914 5.148-.594 1.716-.99 3.564-1.254 5.346-.132 1.056-.066 2.046.132 3.036.198 1.056.726 1.98 1.518 2.772.726.66 1.65 1.188 2.706 1.452.924.264 1.914.396 2.838.33 1.914-.066 3.762-.594 5.412-1.452s3.168-1.914 4.554-3.168c2.64-2.376 4.95-5.148 6.93-8.184zm-21.054-10.494c2.376.264 4.686-.33 6.6-1.716.198-.132.264-.33.264-.528-.066-.396-.198-.726-.528-.924-.198-.264-.528-.462-.858-.528-.198-.066-.396 0-.528.132-1.188 1.584-2.97 2.706-4.95 3.102h-.066c-.132 0-.198.066-.198.132v.132c0 .132.132.198.264.198zm58.956 10.032c-1.65 2.97-3.762 5.676-6.3364 7.92-1.98 1.782-4.29 3.102-6.798 3.96-1.98.594-4.158.528-6.138-.264-1.782-.66-2.508-2.31-2.97-3.828-.33-1.452-.462-2.904-.462-4.422.066-.462.066-.924.066-1.452.594-.924 1.122-1.914 1.65-2.904 1.188-2.376 2.376-4.752 3.432-7.194 1.452-3.168 2.838-6.27 4.092-9.504 1.056-2.772 1.98-5.214 2.706-7.524.726-2.112 1.188-4.224 1.518-6.468 0-.528 0-1.056-.066-1.518-.066-.66-.462-1.188-1.056-1.386-.594-.132-1.188-.066-1.65.264-.462.198-.792.528-1.122.858-1.122 1.122-2.112 2.442-2.904 3.828-1.386 2.376-2.574 4.884-3.564 7.458-1.122 2.772-2.046 5.61-2.772 8.514-.594 2.178-.99 4.158-1.254 6.006-1.98-.066-3.96.264-5.874.99-1.32.462-2.574 1.122-3.762 1.914-.594.396-1.122.858-1.65 1.32s-1.056.858-1.518 1.386c-1.914 2.046-3.366 4.488-4.29 7.128-.462 1.32-.726 2.772-.726 4.224 0 .726.132 1.518.462 2.244.33.792.924 1.386 1.716 1.782.726.264 1.518.33 2.31.264l.528-.066.528-.132c.33-.066.726-.132 1.056-.198 1.32-.396 2.574-1.056 3.762-1.782 2.244-1.584 4.224-3.432 5.874-5.61.396-.462.726-.99 1.122-1.518.132 1.32.396 2.574.792 3.828.132.462.33.858.528 1.254l.33.594.396.594c.132.198.33.396.528.594.132.198.33.33.528.462.264.132.462.33.726.462.198.066.462.198.66.264 2.178.792 4.488.792 6.666.066 2.574-.924 4.884-2.31 6.93-4.092 2.5744-2.31 4.7524-5.082 6.4024-8.118zm-21.7804-4.554c0-.066 0-.198 0-.264h.132l.066.066h.066c.66.132 1.32-.198 1.584-.792.132-.33.132-.726-.066-1.056s-.462-.528-.858-.66h-.066c-.132 0-.198-.066-.33-.066.396-1.782.792-3.63 1.32-5.742.858-3.168 1.584-5.808 2.376-8.316.792-2.574 1.782-5.082 2.904-7.524.594-1.386 1.386-2.64 2.31-3.762.264-.33.528-.594.792-.792.264-.132.528-.264.858-.198.264.066.528.33.528.66.066.396.132.858.132 1.32-.198 2.112-.594 4.224-1.254 6.27-.726 2.31-1.584 4.818-2.64 7.524-1.254 3.234-2.574 6.402-4.026 9.504-1.188 2.376-2.376 4.752-3.696 7.062-.264.462-.528.99-.858 1.452.198-1.584.462-3.102.726-4.686zm-2.244-.33c-.264 2.574-.33 5.148-.198 7.722-.528.792-1.122 1.584-1.782 2.376-1.65 1.98-3.564 3.696-5.742 5.148-1.122.66-2.244 1.188-3.498 1.452-.264.132-.594.198-.924.198l-.396.066-.462.066c-.594.066-1.122 0-1.584-.198-.858-.396-1.254-1.518-1.188-2.706s.264-2.442.726-3.564c.924-2.376 2.31-4.488 4.092-6.27.462-.462.924-.858 1.386-1.254.528-.396.99-.792 1.584-1.056.99-.726 2.112-1.254 3.3-1.65 1.518-.528 3.102-.726 4.752-.66 0 .132-.066.264-.066.33zm45.9524 5.478c-.066-.066-.132-.066-.198 0s-.132.132-.198.264c-.858 1.452-1.848 2.838-3.036 4.026-1.452 1.452-3.036 2.706-4.818 3.63-.858.462-1.782.726-2.772.792-.396.066-.792-.132-1.056-.396-.33-.264-.462-.66-.528-1.122-.066-.924.066-1.848.396-2.772.264-.924.66-1.914.99-2.838.396-.924.792-1.914 1.188-2.904.132-.462.33-.99.396-1.518.198-.594.198-1.254.066-1.848-.198-.858-.858-1.452-1.65-1.584-.66-.066-1.32.066-1.914.33-1.056.396-2.046.99-2.838 1.716-1.65 1.386-3.102 2.97-4.356 4.686-.132.198-.264.396-.462.594.528-1.32.858-2.442 1.056-3.036.132-.462.132-.924 0-1.32-.066-.462-.396-.858-.792-.924-.462-.066-.858.066-1.122.462-.264.33-.462.726-.528 1.122-.462 2.574-.99 5.082-1.716 7.524-.198.66-.396 1.32-.528 1.98-.792 1.386-1.5844 2.838-2.3104 4.29v.066c-.198.594.066 1.188.594 1.452h.066.066c.5284.33 1.2544.132 1.5844-.396v-.066c1.584-3.696 3.498-7.26 5.742-10.56 1.122-1.65 2.376-3.168 3.828-4.554.66-.594 1.452-1.122 2.31-1.518.33-.198.66-.264 1.056-.264.066 0 .198.066.264.132.132 0 .132.132.198.264.066.33.066.792 0 1.188-.066.462-.198.924-.33 1.386-.33.924-.66 1.914-.99 2.838-.396.99-.726 1.98-.99 2.97-.33 1.056-.396 2.178-.264 3.3.132.594.396 1.188.858 1.584.462.462 1.056.66 1.716.594 1.122-.132 2.112-.462 3.102-.99 1.782-1.056 3.432-2.376 4.818-3.96 1.188-1.254 2.244-2.64 3.102-4.158.066-.066.066-.198.132-.264 0-.066-.066-.132-.132-.198zm21.123-.132c-2.046 2.904-4.488 5.478-7.194 7.722-1.386 1.122-2.838 2.046-4.422 2.772-1.518.726-3.168 1.056-4.884 1.056-1.65 0-3.3-.462-4.29-1.518s-1.188-2.64-.924-4.224c.33-1.716.792-3.366 1.452-4.95.594-1.65 1.32-3.234 2.046-4.818l.066-.066c.198-.462-.198-1.056-.792-1.32-.528-.33-1.188-.198-1.584.264v.066c-.726 1.716-1.32 3.366-1.914 5.148-.594 1.716-.99 3.564-1.254 5.346-.132 1.056-.066 2.046.132 3.036.198 1.056.726 1.98 1.518 2.772.726.66 1.65 1.188 2.706 1.452.924.264 1.914.396 2.838.33 1.914-.066 3.762-.594 5.412-1.452s3.168-1.914 4.554-3.168c2.64-2.376 4.95-5.148 6.93-8.184zm-21.054-10.494c2.376.264 4.686-.33 6.6-1.716.198-.132.264-.33.264-.528-.066-.396-.198-.726-.528-.924-.198-.264-.528-.462-.858-.528-.198-.066-.396 0-.528.132-1.188 1.584-2.97 2.706-4.95 3.102h-.066c-.132 0-.198.066-.198.132v.132c0 .132.132.198.264.198zm43.908 10.032c-3.498.528-6.864 1.848-9.768 3.828.264-1.452.33-2.904.462-4.356v-.066c-.066-.594-.66-1.056-1.254-.99-.528 0-.99.198-1.254.66 0 0-.066.066-.132.066-.264.264-.528.528-.924.924-.66.66-1.518 1.452-2.508 2.31-1.056.99-2.244 1.848-3.432 2.64-.66.396-1.32.792-2.046 1.056-.594.198-1.32.264-1.98.132-.132 0-.264-.066-.396-.198l-.198-.066c-.066-.066-.066-.066-.132-.132-.132-.198-.198-.396-.198-.66.066-.726.198-1.386.528-2.046.528-1.32 1.32-2.508 2.244-3.63.726-.858 1.584-1.65 2.508-2.31.594-.396 1.254-.726 1.914-.858.462-.066.99-.066 1.518.066.528.066 1.188.462 1.584.198s.33-1.056-.264-1.716c-.396-.462-.858-.726-1.452-.924-.528-.198-1.188-.198-1.782-.066-.99.264-1.914.66-2.772 1.32-1.122.858-2.046 1.848-2.904 3.036-.99 1.32-1.782 2.772-2.31 4.356-.33.924-.462 1.914-.396 2.904.066.594.396 1.188.858 1.584.462.33.99.528 1.518.594.99.132 1.98-.066 2.838-.528.792-.33 1.518-.792 2.244-1.32 1.188-.924 2.31-1.914 3.366-3.036.924-.99 1.716-1.848 2.31-2.508l.33-.33c0 1.584-.132 3.234-.396 4.818 0 .396-.132.792-.198 1.188-1.056.858-2.046 1.782-2.97 2.838-1.122 1.188-2.178 2.442-3.168 3.762-1.122 1.452-2.178 3.036-3.036 4.686-.924 1.65-1.584 3.498-1.848 5.346-.066.528 0 1.056.066 1.584.066.264.132.528.264.726.132.264.33.528.528.726.132.132.264.198.396.264.132.132.264.198.396.198.264.132.594.198.924.132.594-.066 1.122-.33 1.584-.66.726-.594 1.452-1.32 1.98-2.112.594-.792 1.122-1.584 1.584-2.376.99-1.65 1.782-3.366 2.442-5.148.726-1.716 1.32-3.498 1.848-5.28.264-.924.528-1.848.792-2.706.264-.924.528-1.782.726-2.772 0-.066 0-.132 0-.264 3.036-1.98 6.468-3.234 10.032-3.564h.066c.264-.132.462-.396.396-.726 0-.132 0-.264-.132-.396-.066-.132-.264-.198-.396-.198zm-12.804 7.392c-.198.924-.396 1.782-.594 2.706-.462 1.716-.99 3.498-1.584 5.214-.528 1.716-1.254 3.366-2.112 4.95-.396.792-.858 1.584-1.386 2.31-.462.726-.99 1.386-1.65 1.98-.264.264-.594.396-.924.462-.132.066-.264.066-.462 0-.066 0-.132-.066-.198-.132-.066 0-.132 0-.198-.066-.462-.594-.726-1.386-.594-2.178.198-1.782.726-3.498 1.518-5.082.792-1.716 1.716-3.3 2.706-4.752.99-1.32 2.046-2.574 3.234-3.762.726-.726 1.518-1.452 2.376-2.112-.066.132-.066.264-.132.462zm39.579-6.93c-1.452 1.914-3.234 3.564-5.214 4.95-1.914 1.452-4.092 2.508-6.402 3.036-.528.132-1.122.198-1.65.132-.462-.066-.924-.264-1.32-.594-.264-.33-.462-.858-.396-1.32 0-.528.066-1.122.198-1.65.528-2.31 1.518-4.554 2.244-6.93.198-.594.33-1.254.462-1.848.132-.726.132-1.518-.066-2.244-.132-.396-.396-.858-.792-1.122-.198-.132-.396-.264-.594-.33s-.396-.132-.66-.132c-.396-.066-.792-.066-1.188 0-.33.066-.66.198-1.056.33-1.188.528-2.31 1.32-3.234 2.244-.924.858-1.782 1.782-2.574 2.772-1.584 1.98-3.036 3.96-4.29 6.138-.132.132-.198.33-.33.462.462-2.508 1.056-4.95 1.782-7.392.264-.858 2.904-8.976 6.138-16.5 1.386-3.432 3.102-6.666 5.016-9.834.66-.924 1.32-1.782 2.112-2.574.264-.198.462-.396.66-.528l.264-.198c.066-.066.132-.066.198-.132.066-.132.132-.198.198-.33.198-.33.33-.66.33-1.056 0-.264-.066-.462-.264-.66-.132-.198-.396-.264-.66-.264-.198 0-.462 0-.66.066s-.33.132-.462.198l-.066.066-.132.066c-.462.33-.924.792-1.32 1.254-.792.924-1.452 1.914-1.98 2.904-1.584 2.97-2.97 6.006-4.092 9.108-2.508 6.996-4.686 14.784-5.742 18.282-.264.924-1.518 4.422-2.706 7.788-.594 1.65-1.122 3.234-1.518 4.488l-.594 1.98v.066c-.066.264-.132 1.584.924 1.716.66.066 1.188-.264 1.452-.858.132-.132.198-.264.264-.462h.066v-.066c.858-2.244 1.914-4.356 3.102-6.468 1.122-2.046 2.442-4.092 3.894-6.006.726-.924 1.452-1.782 2.31-2.64.726-.792 1.65-1.518 2.64-2.046.396-.198.858-.264 1.32-.264.462.066.528.132.66.462.132.462.198.99.066 1.452-.066.594-.198 1.122-.33 1.716-.594 2.31-1.518 4.554-1.98 7.062-.132.66-.198 1.32-.198 1.98 0 .726.264 1.518.792 2.046s1.254.792 1.98.858c.66 0 1.32-.066 1.98-.198 2.442-.66 4.686-1.848 6.6-3.432 1.98-1.518 3.762-3.3 5.214-5.28zm27.937-22.11c0-.132-.132-.198-.264-.198l-2.046.264-3.366.396c-2.574.264-5.808.594-9.042.792-1.65.066-3.366.132-5.016.198.66-1.716 1.386-3.366 2.178-5.016.726-1.386 1.452-2.772 2.244-4.092.396-.66.858-1.254 1.32-1.848.396-.528.924-.99 1.452-1.386l.066-.066c.264-.198.396-.396.528-.66.132-.33.264-.594.264-.924 0-.396-.264-.726-.66-.858-.528-.132-1.122 0-1.518.33h-.066l-.066.066c-.792.528-1.386 1.188-1.98 1.98-.462.66-.99 1.386-1.386 2.112-.858 1.386-1.584 2.838-2.244 4.356-.924 1.98-1.716 3.96-2.442 6.006-.66 0-1.32 0-1.914 0-1.188-.066-2.244-.132-3.168-.198.066 0 .132-.066.198-.066s.132-.066.132-.066c.066-.066.132-.132.066-.198v-.066c-.066-.132-.198-.198-.33-.132-.99 0-1.914-.198-2.838-.528-.528-.198-1.056-.264-1.65-.33-.462-.066-.858 0-1.254.198-.462.198-.792.528-1.056.99-.066.132-.066.264-.066.396 0 0 0 .066-.066.066-.132.462.462.924 1.056 1.254.792.396 1.65.594 2.508.66 2.178.132 4.29.198 6.468.066h1.188c-.132.33-.264.66-.396.99-1.056 3.036-1.98 6.072-2.904 9.174-.99 3.036-1.716 6.204-2.244 9.372-.264 1.65-.33 3.3-.264 4.95 0 1.716.528 3.432 1.518 4.884.528.726 1.254 1.254 2.046 1.65.858.33 1.716.528 2.574.528 1.65 0 3.3-.264 4.884-.792 3.102-1.122 5.874-2.838 8.25-5.148 2.31-2.244 4.224-4.884 5.676-7.722l-.396-.264c-1.518 2.838-3.432 5.346-5.808 7.458-2.31 2.112-5.016 3.762-8.052 4.752-1.452.462-2.97.66-4.488.594-1.452 0-2.838-.66-3.696-1.782-.792-1.32-1.188-2.772-1.122-4.224-.066-1.584.066-3.102.396-4.62.528-3.102 1.386-6.138 2.376-9.108 1.056-3.036 2.046-6.072 3.234-9.042.198-.594.462-1.254.66-1.848 1.98-.132 4.092-.396 6.204-.66 3.3-.396 6.534-.924 9.108-1.386l3.366-.594 1.122-.264.462-.066.132-.066h.066c.066 0 .132-.132.132-.198zm24.842-10.956c-.132-.858-.528-1.65-1.122-2.31-.528-.594-1.188-1.122-1.98-1.518-1.386-.726-2.97-1.188-4.554-1.452-3.036-.462-6.204-.33-9.24.33-2.706.528-5.214 1.65-7.392 3.432-.858.726-1.65 1.584-2.178 2.64-.462.792-.792 1.65-.99 2.508-.132.594-.132 1.188-.132 1.782v.594.132c.066.462.198.924.462 1.386.33.462.726.858 1.254.66.462-.198.726-.66.726-1.122.066-.396.132-.792.066-1.188v-.132c-.066-.66 0-1.386.132-1.98.264-1.386.99-2.64 2.046-3.63 2.574-2.508 7.656-4.224 13.002-4.092 1.32 0 2.64.132 3.96.396 1.254.264 2.442.792 3.498 1.584.99.726 1.518 1.914 1.386 3.102-.066.594-.264 1.188-.528 1.716s-.594 1.122-.924 1.65c-2.64 4.356-5.016 7.986-6.468 10.296-.396.594-1.32 2.046-2.508 3.96-1.32 2.178-2.574 4.356-3.63 6.666-1.122 2.376-2.112 4.686-2.772 6.468l-.792 2.112-.33.792v.066.066c-.132.396-.462 2.178.594 2.508.99.264 1.716-1.386 1.848-1.782v-.066l.066-.132c.264-1.122.792-3.828 1.98-7.524 1.386-4.488 3.366-8.844 5.94-12.87.33-.594 2.31-3.498 5.082-7.524.66-.99 1.386-2.112 2.112-3.234.99-1.254 1.452-2.772 1.386-4.29zm-19.734 45.408c1.122 0 1.98-.858 1.98-1.98s-.858-1.98-1.98-1.98-1.98.858-1.98 1.98.858 1.98 1.98 1.98zm15.747-3.432c-1.188.066-2.178.858-2.574 1.98-.198.462-.132.99.198 1.386.264.396.726.66 1.254.594 1.188-.066 2.178-.858 2.574-1.98.132-.462.132-.99-.198-1.386-.264-.396-.726-.594-1.254-.594zm10.828 0c-1.188.066-2.178.858-2.574 1.98-.198.462-.132.99.198 1.386.264.396.726.66 1.254.594 1.188-.066 2.178-.858 2.574-1.98.132-.462.132-.99-.198-1.386-.264-.396-.726-.594-1.254-.594z"/><path d="m161.212 95.728c-.66-.198-1.386-.198-2.046-.132-1.914.198-4.686.528-6.006.66l-1.188.132-1.584.264c-1.122.132-2.376.396-3.366.594-.264 0-.594.132-.924.198-.33.132-.66.33-.99.528-.264.132-.462.33-.726.528-.198.198-.33.396-.528.66s-.264.66-.264 1.056c.132.462.66.462 1.254.396.66-.132 1.386-.33 2.046-.66.198-.132.462-.198.66-.264 1.32-.66 2.64-1.122 4.026-1.452-2.31 7.986-4.62 15.972-6.93 23.958-2.178 7.92-4.422 15.84-6.27 23.826-3.168-.132-6.27-.066-7.458 0-.462 0-.924.132-1.32.396-.396.198-.66.594-.66 1.056.132.462.462.792.858.924s.858.198 1.32.066c2.64-.396 5.346-.726 8.052-.924 1.386-.066 2.706-.132 4.092-.132 1.32 0 2.706.066 4.026.264h.132c.066 0 .132 0 .198-.066v-.132c0-.132-.066-.198-.132-.264-.99-.264-1.98-.528-3.036-.66-1.386-.198-3.168-.33-4.95-.462-.198 0-.396 0-.594-.066 2.178-7.854 4.686-15.642 7.194-23.364 2.706-8.25 5.478-16.434 8.25-24.684v-.066s0-.066.066-.066c1.65-.066 3.366 0 5.016.264.264 0 .462.066.726.066.462.066.858.066 1.32 0 .33 0 .66-.066.99-.132.462-.132.99-.396.924-.858 0-.528-1.056-1.254-2.178-1.452zm23.631 17.292c0-.132-.132-.198-.264-.198l-2.046.264-3.366.396c-2.574.264-5.808.594-9.042.792-1.65.066-3.366.132-5.016.198.66-1.716 1.386-3.366 2.178-5.016.726-1.386 1.452-2.772 2.244-4.092.396-.66.858-1.254 1.32-1.848.396-.528.924-.99 1.452-1.386l.066-.066c.264-.198.396-.396.528-.66.132-.33.264-.594.264-.924 0-.396-.264-.726-.66-.858-.528-.132-1.122 0-1.518.33h-.066l-.066.066c-.792.528-1.386 1.188-1.98 1.98-.462.66-.99 1.386-1.386 2.112-.858 1.386-1.584 2.838-2.244 4.356-.924 1.98-1.716 3.96-2.442 6.006-.66 0-1.32 0-1.914 0-1.188-.066-2.244-.132-3.168-.198.066 0 .132-.066.198-.066s.132-.066.132-.066c.066-.066.132-.132.066-.198v-.066c-.066-.132-.198-.198-.33-.132-.99 0-1.914-.198-2.838-.528-.528-.198-1.056-.264-1.65-.33-.462-.066-.858 0-1.254.198-.462.198-.792.528-1.056.99-.066.132-.066.264-.066.396 0 0 0 .066-.066.066-.132.462.462.924 1.056 1.254.792.396 1.65.594 2.508.66 2.178.132 4.29.198 6.468.066h1.188c-.132.33-.264.66-.396.99-1.056 3.036-1.98 6.072-2.904 9.174-.99 3.036-1.716 6.204-2.244 9.372-.264 1.65-.33 3.3-.264 4.95 0 1.716.528 3.432 1.518 4.884.528.726 1.254 1.254 2.046 1.65.858.33 1.716.528 2.574.528 1.65 0 3.3-.264 4.884-.792 3.102-1.122 5.874-2.838 8.25-5.148 2.31-2.244 4.224-4.884 5.676-7.722l-.396-.264c-1.518 2.838-3.432 5.346-5.808 7.458-2.31 2.112-5.016 3.762-8.052 4.752-1.452.462-2.97.66-4.488.594-1.452 0-2.838-.66-3.696-1.782-.792-1.32-1.188-2.772-1.122-4.224-.066-1.584.066-3.102.396-4.62.528-3.102 1.386-6.138 2.376-9.108 1.056-3.036 2.046-6.072 3.234-9.042.198-.594.462-1.254.66-1.848 1.98-.132 4.092-.396 6.204-.66 3.3-.396 6.534-.924 9.108-1.386l3.366-.594 1.122-.264.462-.066.132-.066h.066c.066 0 .132-.132.132-.198zm-6.714-11.088c-1.188.066-2.178.858-2.574 1.98-.264.726 0 1.452.66 1.848-.528.594-1.188 1.122-1.848 1.518l-.132.066c-.066 0-.132.132-.066.198v.066c0 .132.132.198.264.132h.066c.924-.066 1.848-.396 2.64-.858.858-.528 1.518-1.254 1.98-2.112.198-.264.33-.528.396-.858.198-.462.132-.99-.132-1.386s-.726-.594-1.254-.594zm25.449 33.33c-.198-.264-.594-.396-.924-.198h-.066v.066c-.33.198-.99.792-1.98 1.518-.528.33-1.188.66-1.848 1.056l-.528.33-.528.198c-.396.198-.792.33-1.188.528-.264.132-.594.198-.924.33l-1.848.528c-1.782.396-3.63.594-5.478.594-.066 0-.198 0-.33 0-.264-.594-.528-1.254-.792-1.914-.528-1.386-.858-2.838-.99-4.29-.066-.66 0-1.386.132-2.046.066-.462.33-.858.792-1.122.396-.198.924-.264 1.386-.198s.99.264 1.386.462c.594.264 1.056.726 1.386 1.32.066.132.132.33.132.528s.132.33.198.462c.264.264.528.528.924.66s.858 0 1.122-.396c.198-.264.264-.594.264-.924v-.066-.132c-.066-.132-.066-.33-.132-.594-.132-.33-.33-.66-.528-.99-.594-.858-1.452-1.518-2.442-1.848-1.254-.594-2.706-.66-4.026-.198-.198.066-.396.132-.594.264-.132.132-.33.264-.528.396-.132.198-.33.33-.462.528-.066.198-.198.396-.264.594-.264.726-.396 1.518-.33 2.31.066 1.518.396 2.97.99 4.356.33.924.792 1.848 1.254 2.772-1.254-.132-2.442-.396-3.63-.792-.726-.264-1.452-.594-2.112-.924h-.066c0-.066-.066-.066-.066-.066-.198-.132-.462-.198-.66-.198-.462 0-.858.198-1.056.594-.132.198-.198.528-.198.792l.066.066v.066c.396 1.518 1.188 2.97 2.31 4.092.858.924 1.848 1.716 2.838 2.376.594.396 1.188.726 1.848.99.66.396 1.386.594 2.178.66h.264c.132 0 .264 0 .396-.066.264-.066.462-.198.594-.396s.264-.462.33-.726c.066-.462.066-.858 0-1.254-.132-1.122-.462-2.244-.924-3.234-.198-.396-.396-.792-.594-1.188.198-.066.396-.066.66-.066l.66-.066.66-.132 1.32-.198 1.188-.264c.792-.198 1.518-.396 2.178-.66l.924-.33.66-.264c.198-.066.792-.264 1.452-.462.66-.264 1.452-.594 2.244-.924s1.518-.66 2.112-.924l.924-.462c.132-.066.594-.462.264-.924zm-14.586 9.174c.396.99.528 2.046.132 2.574-.066.198-.264.264-.462.33-.132 0-.264 0-.396 0-.792-.132-1.518-.462-2.178-.924-1.056-.726-2.046-1.65-2.772-2.706-.726-.924-1.254-1.914-1.518-3.036-.066-.198-.132-.462-.132-.66.33.132.726.264 1.122.396 1.452.33 2.97.528 4.488.528.066.066.066.132.132.198.66 1.056 1.188 2.112 1.584 3.3zm61.013-31.416c0-.132-.132-.198-.264-.198l-2.046.264-3.366.396c-2.574.264-5.808.594-9.042.792-1.65.066-3.366.132-5.016.198.66-1.716 1.386-3.366 2.178-5.016.726-1.386 1.452-2.772 2.244-4.092.396-.66.858-1.254 1.32-1.848.396-.528.924-.99 1.452-1.386l.066-.066c.264-.198.396-.396.528-.66.132-.33.264-.594.264-.924 0-.396-.264-.726-.66-.858-.528-.132-1.122 0-1.518.33h-.066l-.066.066c-.792.528-1.386 1.188-1.98 1.98-.462.66-.99 1.386-1.386 2.112-.858 1.386-1.584 2.838-2.244 4.356-.924 1.98-1.716 3.96-2.442 6.006-.66 0-1.32 0-1.914 0-1.188-.066-2.244-.132-3.168-.198.066 0 .132-.066.198-.066s.132-.066.132-.066c.066-.066.132-.132.066-.198v-.066c-.066-.132-.198-.198-.33-.132-.99 0-1.914-.198-2.838-.528-.528-.198-1.056-.264-1.65-.33-.462-.066-.858 0-1.254.198-.462.198-.792.528-1.056.99-.066.132-.066.264-.066.396 0 0 0 .066-.066.066-.132.462.462.924 1.056 1.254.792.396 1.65.594 2.508.66 2.178.132 4.29.198 6.468.066h1.188c-.132.33-.264.66-.396.99-1.056 3.036-1.98 6.072-2.904 9.174-.99 3.036-1.716 6.204-2.244 9.372-.264 1.65-.33 3.3-.264 4.95 0 1.716.528 3.432 1.518 4.884.528.726 1.254 1.254 2.046 1.65.858.33 1.716.528 2.574.528 1.65 0 3.3-.264 4.884-.792 3.102-1.122 5.874-2.838 8.25-5.148 2.31-2.244 4.224-4.884 5.676-7.722l-.396-.264c-1.518 2.838-3.432 5.346-5.808 7.458-2.31 2.112-5.016 3.762-8.052 4.752-1.452.462-2.97.66-4.488.594-1.452 0-2.838-.66-3.696-1.782-.792-1.32-1.188-2.772-1.122-4.224-.066-1.584.066-3.102.396-4.62.528-3.102 1.386-6.138 2.376-9.108 1.056-3.036 2.046-6.072 3.234-9.042.198-.594.462-1.254.66-1.848 1.98-.132 4.092-.396 6.204-.66 3.3-.396 6.534-.924 9.108-1.386l3.366-.594 1.122-.264.462-.066.132-.066h.066c.066 0 .132-.132.132-.198zm16.922 22.11c-2.046 2.904-4.488 5.478-7.194 7.722-1.386 1.122-2.838 2.046-4.422 2.772-1.518.726-3.168 1.056-4.884 1.056-1.65 0-3.3-.462-4.29-1.518s-1.188-2.64-.924-4.224c.33-1.716.792-3.366 1.452-4.95.594-1.65 1.32-3.234 2.046-4.818l.066-.066c.198-.462-.198-1.056-.792-1.32-.528-.33-1.188-.198-1.584.264v.066c-.726 1.716-1.32 3.366-1.914 5.148-.594 1.716-.99 3.564-1.254 5.346-.132 1.056-.066 2.046.132 3.036.198 1.056.726 1.98 1.518 2.772.726.66 1.65 1.188 2.706 1.452.924.264 1.914.396 2.838.33 1.914-.066 3.762-.594 5.412-1.452s3.168-1.914 4.554-3.168c2.64-2.376 4.95-5.148 6.93-8.184zm-21.054-10.494c2.376.264 4.686-.33 6.6-1.716.198-.132.264-.33.264-.528-.066-.396-.198-.726-.528-.924-.198-.264-.528-.462-.858-.528-.198-.066-.396 0-.528.132-1.188 1.584-2.97 2.706-4.95 3.102h-.066c-.132 0-.198.066-.198.132v.132c0 .132.132.198.264.198zm52.95 10.626c-.066-.066-.132-.066-.198-.066-.132.066-.264.132-.33.264-1.848 1.65-3.762 3.234-5.742 4.752-1.122.726-2.244 1.452-3.498 2.112-1.122.66-2.376.99-3.696 1.122-.594 0-1.122-.198-1.584-.528-.33-.396-.528-.924-.528-1.452 0-1.32.198-2.574.66-3.828.066-.462.264-1.056.396-1.518l.132-.792c.066-.066.066-.198.066-.33v-.264c0-.396-.132-.726-.33-.99-.198-.132-.396-.198-.594-.198-.132 0-.33 0-.462 0-.99.33-1.782.858-2.442 1.65l-.33.33-.198.198-.396.396c-.264.264-.462.528-.726.792-.792.924-1.518 1.914-2.178 2.904.462-1.518.858-3.102 1.188-4.686.198-.792.33-1.584.396-2.442.066-.396.066-.792.066-1.254-.066-.198-.066-.462-.132-.66 0-.132-.066-.264-.132-.396 0-.198-.066-.33-.132-.462-.132-.198-.396-.462-.594-.594-.132-.066-.264-.132-.396-.132-.198-.066-.33-.066-.462-.066-.33.066-.594.132-.858.198-.264.132-.462.264-.66.396-.726.462-1.32 1.056-1.914 1.716-2.112 2.442-4.092 5.082-5.808 7.788-.396.528-.726 1.056-1.056 1.584 1.254-3.036 2.376-6.27 2.772-7.458.132-.462.132-.924.066-1.32-.066-.462-.396-.858-.792-.99-.462-.132-.924.066-1.188.462-.264.33-.462.792-.528 1.188-.462 2.64-1.122 5.214-1.848 7.788-.462 1.584-.924 3.168-1.386 4.752-.462.66-.924 1.32-1.386 1.914l-.066.066c-.198.264 0 .792.396 1.254 0 0 .066.066.132.066l.066.066c.396.462 1.056.462 1.518.066.99-1.452 1.782-2.838 2.574-4.224l2.442-4.158c1.518-2.706 3.3-5.346 5.214-7.854.462-.594.99-1.122 1.584-1.584.132-.132.264-.198.396-.264.066-.066.132-.066.264-.132.198 0 .396.066.462.264.066.132.132.198.132.33.066.132.066.33.132.462v1.122c0 .792-.066 1.584-.198 2.376-.396 2.31-.924 4.554-1.584 6.798-.396.726-.792 1.452-1.188 2.178v.066c-.198.396.198.924.858 1.188s1.254.198 1.452-.132c1.056-2.442 2.376-4.752 3.96-6.93.198-.264.396-.528.66-.792l.264-.33.132-.198.066-.066c.132-.132.264-.33.462-.462.066-.066.198-.198.33-.132 0 .132.066.198 0 .33l-.132.792c-.33 1.386-.462 2.838-.396 4.29.066.858.462 1.65 1.056 2.178.726.462 1.518.726 2.31.594.396 0 .792-.066 1.122-.132s.726-.198 1.056-.33c.66-.264 1.254-.594 1.848-.99 1.188-.726 2.376-1.518 3.432-2.376 1.98-1.452 3.894-3.036 5.742-4.752.132-.066.198-.198.264-.33.066-.066.066-.132 0-.198zm26.701 0c-.066-.066-.198-.132-.198-.132-4.62 3.564-9.174 7.128-14.256 9.768-2.574 1.254-5.214 2.244-8.052 2.046-1.32-.066-2.64-.396-3.828-.99-1.056-.66-1.782-1.782-1.98-2.97-.198-1.32-.066-2.706.264-3.96.396-1.32.99-2.508 1.848-3.63.792-1.056 1.716-2.046 2.838-2.838.99-.792 2.244-1.386 3.498-1.65.528-.132 1.122-.132 1.716 0 .264.066.462.132.66.264.132.066.264.198.33.33.132.462.132.924 0 1.386-.198.528-.462.99-.858 1.32-.924.924-2.046 1.65-3.234 2.112-1.056.528-2.31.726-3.498.594h-.066-.066c-.66-.066-1.32.264-1.584.924-.264.594.264 1.452 1.254 1.584h.132c1.65.198 3.366-.132 4.884-.858.66-.396 1.386-.726 1.98-1.188.726-.462 1.32-.99 1.914-1.584.594-.66 1.056-1.452 1.32-2.376s.198-1.98-.264-2.838c-.264-.528-.66-.924-1.122-1.254-.396-.198-.858-.396-1.386-.462-.858-.198-1.716-.132-2.574.066-1.518.396-2.97 1.122-4.224 2.112-1.188.924-2.244 2.046-3.102 3.366-1.848 2.508-2.64 5.742-2.112 8.844.132.792.462 1.584.924 2.244s1.056 1.254 1.848 1.65c1.386.726 2.904 1.056 4.488.99.726.066 1.518 0 2.244-.066l1.122-.198 1.056-.33c1.452-.462 2.772-1.056 4.092-1.782 5.148-2.838 9.57-6.6 14.058-10.23.066-.066 0-.132-.066-.264zm46.362-22.242c0-.132-.132-.198-.264-.198l-2.046.264-3.366.396c-2.574.264-5.808.594-9.042.792-1.65.066-3.366.132-5.016.198.66-1.716 1.386-3.366 2.178-5.016.726-1.386 1.452-2.772 2.244-4.092.396-.66.858-1.254 1.32-1.848.396-.528.924-.99 1.452-1.386l.066-.066c.264-.198.396-.396.528-.66.132-.33.264-.594.264-.924 0-.396-.264-.726-.66-.858-.528-.132-1.122 0-1.518.33h-.066l-.066.066c-.792.528-1.386 1.188-1.98 1.98-.462.66-.99 1.386-1.386 2.112-.858 1.386-1.584 2.838-2.244 4.356-.924 1.98-1.716 3.96-2.442 6.006-.66 0-1.32 0-1.914 0-1.188-.066-2.244-.132-3.168-.198.066 0 .132-.066.198-.066s.132-.066.132-.066c.066-.066.132-.132.066-.198v-.066c-.066-.132-.198-.198-.33-.132-.99 0-1.914-.198-2.838-.528-.528-.198-1.056-.264-1.65-.33-.462-.066-.858 0-1.254.198-.462.198-.792.528-1.056.99-.066.132-.066.264-.066.396 0 0 0 .066-.066.066-.132.462.462.924 1.056 1.254.792.396 1.65.594 2.508.66 2.178.132 4.29.198 6.468.066h1.188c-.132.33-.264.66-.396.99-1.056 3.036-1.98 6.072-2.904 9.174-.99 3.036-1.716 6.204-2.244 9.372-.264 1.65-.33 3.3-.264 4.95 0 1.716.528 3.432 1.518 4.884.528.726 1.254 1.254 2.046 1.65.858.33 1.716.528 2.574.528 1.65 0 3.3-.264 4.884-.792 3.102-1.122 5.874-2.838 8.25-5.148 2.31-2.244 4.224-4.884 5.676-7.722l-.396-.264c-1.518 2.838-3.432 5.346-5.808 7.458-2.31 2.112-5.016 3.762-8.052 4.752-1.452.462-2.97.66-4.488.594-1.452 0-2.838-.66-3.696-1.782-.792-1.32-1.188-2.772-1.122-4.224-.066-1.584.066-3.102.396-4.62.528-3.102 1.386-6.138 2.376-9.108 1.056-3.036 2.046-6.072 3.234-9.042.198-.594.462-1.254.66-1.848 1.98-.132 4.092-.396 6.204-.66 3.3-.396 6.534-.924 9.108-1.386l3.366-.594 1.122-.264.462-.066.132-.066h.066c.066 0 .132-.132.132-.198zm17.252 22.11c-1.056 1.122-2.31 2.046-3.63 2.838-1.914 1.056-3.96 1.782-6.138 2.112-1.32.132-2.706.132-4.026-.198.726-1.452 1.32-2.904 1.716-4.488.264-.858.33-1.716.33-2.574.066-.858-.264-1.716-.858-2.376-.33-.33-.792-.528-1.188-.66h-.066c.066-.726-.198-1.254-.66-1.254h-.066c-1.386.198-2.706.792-3.762 1.716-.99.792-1.914 1.716-2.64 2.772-1.452 1.98-2.574 4.224-3.3 6.6-.33 1.122-.594 2.376-.66 3.63-.066.594-.066 1.254.066 1.848.132.726.396 1.32.792 1.848.462.594 1.188.924 1.848.924.66.066 1.32 0 1.914-.264 1.122-.462 2.178-1.254 2.97-2.178 1.056-1.122 1.98-2.442 2.772-3.828 0-.132.066-.198.132-.264h.066c1.65.066 3.234-.066 4.752-.528 2.178-.528 4.29-1.32 6.204-2.442 1.386-.792 2.64-1.782 3.762-2.97zm-15.048 6.204c-.726 1.386-1.584 2.64-2.64 3.762-.792.858-1.782 1.452-2.838 1.848-1.056.264-2.244.198-2.772-.594-.528-.924-.66-1.98-.462-3.036.198-1.122.462-2.178.924-3.234.792-2.112 1.98-4.092 3.432-5.808.066-.066.066-.132.132-.132-.066.198-.132.462-.198.726-.396 1.65 0 3.432 1.122 4.752.528.528 1.188.99 1.914 1.254.462.198.99.264 1.452.396 0 0 0 .066-.066.066zm-.594-2.178c-.33-.264-.726-.594-.924-.924-.264-.396-.396-.792-.462-1.254-.066-.528 0-1.056.132-1.65.132-1.056.594-2.112 1.254-2.97.264-.33.594-.594.99-.792.33-.198.726-.198 1.056 0 .396.33.66.858.726 1.386.132.726.132 1.518 0 2.31-.264 1.584-.726 3.102-1.386 4.488-.462-.132-.924-.33-1.386-.594zm60.88-4.026c-1.452 1.914-3.234 3.564-5.214 4.95-1.914 1.452-4.092 2.508-6.402 3.036-.528.132-1.122.198-1.65.132-.462-.066-.924-.264-1.32-.594-.264-.33-.462-.858-.396-1.32 0-.528.066-1.122.198-1.65.528-2.31 1.518-4.554 2.244-6.93.198-.594.33-1.254.462-1.848.132-.726.132-1.518-.066-2.244-.132-.396-.396-.858-.792-1.122-.198-.132-.396-.264-.594-.33s-.396-.132-.66-.132c-.396-.066-.792-.066-1.188 0-.33.066-.66.198-1.056.33-1.188.528-2.31 1.32-3.234 2.244-.924.858-1.782 1.782-2.574 2.772-1.584 1.98-3.036 3.96-4.29 6.138-.132.132-.198.33-.33.462.462-2.508 1.056-4.95 1.782-7.392.264-.858 2.904-8.976 6.138-16.5 1.386-3.432 3.102-6.666 5.016-9.834.66-.924 1.32-1.782 2.112-2.574.264-.198.462-.396.66-.528l.264-.198c.066-.066.132-.066.198-.132.066-.132.132-.198.198-.33.198-.33.33-.66.33-1.056 0-.264-.066-.462-.264-.66-.132-.198-.396-.264-.66-.264-.198 0-.462 0-.66.066s-.33.132-.462.198l-.066.066-.132.066c-.462.33-.924.792-1.32 1.254-.792.924-1.452 1.914-1.98 2.904-1.584 2.97-2.97 6.006-4.092 9.108-2.508 6.996-4.686 14.784-5.742 18.282-.264.924-1.518 4.422-2.706 7.788-.594 1.65-1.122 3.234-1.518 4.488l-.594 1.98v.066c-.066.264-.132 1.584.924 1.716.66.066 1.188-.264 1.452-.858.132-.132.198-.264.264-.462h.066v-.066c.858-2.244 1.914-4.356 3.102-6.468 1.122-2.046 2.442-4.092 3.894-6.006.726-.924 1.452-1.782 2.31-2.64.726-.792 1.65-1.518 2.64-2.046.396-.198.858-.264 1.32-.264.462.066.528.132.66.462.132.462.198.99.066 1.452-.066.594-.198 1.122-.33 1.716-.594 2.31-1.518 4.554-1.98 7.062-.132.66-.198 1.32-.198 1.98 0 .726.264 1.518.792 2.046s1.254.792 1.98.858c.66 0 1.32-.066 1.98-.198 2.442-.66 4.686-1.848 6.6-3.432 1.98-1.518 3.762-3.3 5.214-5.28zm38.629.132c-.132-.066-.264-.066-.264-.066-1.056 1.518-2.244 2.904-3.564 4.158-1.32 1.32-2.706 2.508-4.224 3.564-1.452 1.056-3.036 1.914-4.752 2.574-.792.33-1.65.594-2.508.792l-1.32.264-.66.066-.66.066h-1.32c-.462 0-.924 0-1.32-.066-.858-.066-1.716-.198-2.574-.528-1.518-.396-2.772-1.518-3.366-3.036-.528-1.584-.594-3.234-.264-4.884.264-1.188.528-2.376.924-3.564.066-.132.132-.198.132-.198v-.066c.066-.132.066-.264.066-.396.132-.33.198-.594.33-.924v-.066c.132-.594-.264-1.188-.858-1.32-.396-.132-.858-.132-1.254.132 0-.198-.132-.396-.198-.528-.132-.198-.198-.33-.33-.528-.198-.264-.396-.396-.594-.594-1.056-.858-2.508-1.188-3.828-.99-1.65.33-3.168 1.188-4.29 2.31-1.254 1.32-2.244 2.772-3.036 4.356s-1.518 3.3-1.98 5.016c-.264.858-.462 1.782-.462 2.64-.132.924.066 1.848.396 2.64.396.858 1.122 1.386 2.046 1.65.132 0 .396.066.594.066h.264c.132 0 .198 0 .264-.066.198 0 .396 0 .594-.066l.462-.198c1.056-.396 2.046-.99 2.97-1.716l.858-.726c.396-.33.858-.792 1.386-1.254 1.188-1.188 2.244-2.442 3.168-3.762 0 1.32.264 2.64.726 3.828.462.99 1.122 1.914 1.98 2.574s1.782 1.122 2.772 1.386 1.98.396 2.97.462h1.452l1.452-.132.726-.066.66-.132 1.452-.33c.924-.264 1.782-.594 2.706-.99 1.716-.792 3.3-1.716 4.818-2.904s2.904-2.442 4.158-3.828 2.376-2.838 3.432-4.422c0-.066-.066-.132-.132-.198zm-28.644-.066c-.264.792-.66 1.782-1.122 2.904-.528 1.254-1.188 2.508-1.914 3.63-.858 1.386-1.98 2.64-3.234 3.696-.462.33-.99.726-1.518.99s-.99.462-1.584.594c-.594.198-1.254.132-1.848-.066-.66-.33-1.122-.924-1.254-1.584-.198-.858-.198-1.65 0-2.508.462-1.782 1.122-3.564 2.046-5.148.792-1.65 1.914-3.168 3.168-4.422.99-1.056 2.31-1.716 3.696-1.98.792-.132 1.584.132 2.112.726.132.198.264.396.264.594v.066c.066 0 .066.066.066.132.066.066.132.132.198.264.198.33.528.594.924.726.132.066.264.066.396.066-.132.33-.264.792-.396 1.32zm49.831-.198h-1.122-1.65c-1.584-.066-3.102.066-4.686.198-.924.132-1.914.33-2.838.66-.99.396-1.914.924-2.772 1.584-.858.726-1.584 1.584-2.244 2.508-.594.924-1.188 1.848-1.782 2.772-.66.858-1.254 1.782-1.914 2.64-.132.198-.33.396-.462.594-.132.132-.264.33-.462.462 0 .066-.066.066-.198.066-.066 0-.132 0-.198-.066s-.066-.132-.132-.198c-.066-.198-.132-.396-.132-.594-.132-.396-.198-.858-.264-1.386-.066-.924-.066-1.848-.066-2.772.132-2.706.594-5.412 1.32-8.052.33-.99.594-2.046.792-2.97s.462-1.848.066-2.178c-.462-.264-1.188.33-1.782 1.122-.66.99-1.122 2.112-1.452 3.234-.66 2.838-1.056 5.808-.99 8.778 0 1.056.066 2.112.198 3.102.066.594.198 1.188.396 1.716 0 .132.066.33.132.462l.132.198c0 .132.066.198.132.33.066.198.198.396.396.528.066.066.132.198.198.264l.264.198c.396.198.858.264 1.254.132.462-.132.858-.396 1.122-.726.264-.198.462-.462.66-.726s.33-.462.528-.726c.594-.924 1.188-1.914 1.782-2.904.594-.924 1.188-1.98 1.782-2.838.528-.858 1.188-1.65 1.98-2.31 1.518-1.188 3.3-1.914 5.148-2.112 1.518-.198 3.036-.33 4.554-.396l1.584-.066h.594.132.066c.066 0 .132-.132.132-.198v-.066c0-.132-.066-.264-.198-.264zm26.818.264c-.066-.066-.198-.132-.198-.132-4.62 3.564-9.174 7.128-14.256 9.768-2.574 1.254-5.214 2.244-8.052 2.046-1.32-.066-2.64-.396-3.828-.99-1.056-.66-1.782-1.782-1.98-2.97-.198-1.32-.066-2.706.264-3.96.396-1.32.99-2.508 1.848-3.63.792-1.056 1.716-2.046 2.838-2.838.99-.792 2.244-1.386 3.498-1.65.528-.132 1.122-.132 1.716 0 .264.066.462.132.66.264.132.066.264.198.33.33.132.462.132.924 0 1.386-.198.528-.462.99-.858 1.32-.924.924-2.046 1.65-3.234 2.112-1.056.528-2.31.726-3.498.594h-.066-.066c-.66-.066-1.32.264-1.584.924-.264.594.264 1.452 1.254 1.584h.132c1.65.198 3.366-.132 4.884-.858.66-.396 1.386-.726 1.98-1.188.726-.462 1.32-.99 1.914-1.584.594-.66 1.056-1.452 1.32-2.376s.198-1.98-.264-2.838c-.264-.528-.66-.924-1.122-1.254-.396-.198-.858-.396-1.386-.462-.858-.198-1.716-.132-2.574.066-1.518.396-2.97 1.122-4.224 2.112-1.188.924-2.244 2.046-3.102 3.366-1.848 2.508-2.64 5.742-2.112 8.844.132.792.462 1.584.924 2.244s1.056 1.254 1.848 1.65c1.386.726 2.904 1.056 4.488.99.726.066 1.518 0 2.244-.066l1.122-.198 1.056-.33c1.452-.462 2.772-1.056 4.092-1.782 5.148-2.838 9.57-6.6 14.058-10.23.066-.066 0-.132-.066-.264z"/><path d="m486.283 194.262c-.198-.264-.594-.396-.924-.198h-.066v.066c-.33.198-.99.792-1.98 1.518-.528.33-1.188.66-1.848 1.056l-.528.33-.528.198c-.396.198-.792.33-1.188.528-.264.132-.594.198-.924.33l-1.848.528c-1.782.396-3.63.594-5.478.594-.066 0-.198 0-.33 0-.264-.594-.528-1.254-.792-1.914-.528-1.386-.858-2.838-.99-4.29-.066-.66 0-1.386.132-2.046.066-.462.33-.858.792-1.122.396-.198.924-.264 1.386-.198s.99.264 1.386.462c.594.264 1.056.726 1.386 1.32.066.132.132.33.132.528s.132.33.198.462c.264.264.528.528.924.66s.858 0 1.122-.396c.198-.264.264-.594.264-.924v-.066-.132c-.066-.132-.066-.33-.132-.594-.132-.33-.33-.66-.528-.99-.594-.858-1.452-1.518-2.442-1.848-1.254-.594-2.706-.66-4.026-.198-.198.066-.396.132-.594.264-.132.132-.33.264-.528.396-.132.198-.33.33-.462.528-.066.198-.198.396-.264.594-.264.726-.396 1.518-.33 2.31.066 1.518.396 2.97.99 4.356.33.924.792 1.848 1.254 2.772-1.254-.132-2.442-.396-3.63-.792-.726-.264-1.452-.594-2.112-.924h-.066c0-.066-.066-.066-.066-.066-.198-.132-.462-.198-.66-.198-.462 0-.858.198-1.056.594-.132.198-.198.528-.198.792l.066.066v.066c.396 1.518 1.188 2.97 2.31 4.092.858.924 1.848 1.716 2.838 2.376.594.396 1.188.726 1.848.99.66.396 1.386.594 2.178.66h.264c.132 0 .264 0 .396-.066.264-.066.462-.198.594-.396s.264-.462.33-.726c.066-.462.066-.858 0-1.254-.132-1.122-.462-2.244-.924-3.234-.198-.396-.396-.792-.594-1.188.198-.066.396-.066.66-.066l.66-.066.66-.132 1.32-.198 1.188-.264c.792-.198 1.518-.396 2.178-.66l.924-.33.66-.264c.198-.066.792-.264 1.452-.462.66-.264 1.452-.594 2.244-.924s1.518-.66 2.112-.924l.924-.462c.132-.066.594-.462.264-.924zm-14.586 9.174c.396.99.528 2.046.132 2.574-.066.198-.264.264-.462.33-.132 0-.264 0-.396 0-.792-.132-1.518-.462-2.178-.924-1.056-.726-2.046-1.65-2.772-2.706-.726-.924-1.254-1.914-1.518-3.036-.066-.198-.132-.462-.132-.66.33.132.726.264 1.122.396 1.452.33 2.97.528 4.488.528.066.066.066.132.132.198.66 1.056 1.188 2.112 1.584 3.3zm35.919-9.306c-1.056 1.122-2.31 2.046-3.63 2.838-1.914 1.056-3.96 1.782-6.138 2.112-1.32.132-2.706.132-4.026-.198.726-1.452 1.32-2.904 1.716-4.488.264-.858.33-1.716.33-2.574.066-.858-.264-1.716-.858-2.376-.33-.33-.792-.528-1.188-.66h-.066c.066-.726-.198-1.254-.66-1.254h-.066c-1.386.198-2.706.792-3.762 1.716-.99.792-1.914 1.716-2.64 2.772-1.452 1.98-2.574 4.224-3.3 6.6-.33 1.122-.594 2.376-.66 3.63-.066.594-.066 1.254.066 1.848.132.726.396 1.32.792 1.848.462.594 1.188.924 1.848.924.66.066 1.32 0 1.914-.264 1.122-.462 2.178-1.254 2.97-2.178 1.056-1.122 1.98-2.442 2.772-3.828 0-.132.066-.198.132-.264h.066c1.65.066 3.234-.066 4.752-.528 2.178-.528 4.29-1.32 6.204-2.442 1.386-.792 2.64-1.782 3.762-2.97zm-15.048 6.204c-.726 1.386-1.584 2.64-2.64 3.762-.792.858-1.782 1.452-2.838 1.848-1.056.264-2.244.198-2.772-.594-.528-.924-.66-1.98-.462-3.036.198-1.122.462-2.178.924-3.234.792-2.112 1.98-4.092 3.432-5.808.066-.066.066-.132.132-.132-.066.198-.132.462-.198.726-.396 1.65 0 3.432 1.122 4.752.528.528 1.188.99 1.914 1.254.462.198.99.264 1.452.396 0 0 0 .066-.066.066zm-.594-2.178c-.33-.264-.726-.594-.924-.924-.264-.396-.396-.792-.462-1.254-.066-.528 0-1.056.132-1.65.132-1.056.594-2.112 1.254-2.97.264-.33.594-.594.99-.792.33-.198.726-.198 1.056 0 .396.33.66.858.726 1.386.132.726.132 1.518 0 2.31-.264 1.584-.726 3.102-1.386 4.488-.462-.132-.924-.33-1.386-.594zm47.337-3.894c-.066-.066-.132-.066-.198-.066-.132.066-.264.132-.33.264-1.848 1.65-3.762 3.234-5.742 4.752-1.122.726-2.244 1.452-3.498 2.112-1.122.66-2.376.99-3.696 1.122-.594 0-1.122-.198-1.584-.528-.33-.396-.528-.924-.528-1.452 0-1.32.198-2.574.66-3.828.066-.462.264-1.056.396-1.518l.132-.792c.066-.066.066-.198.066-.33v-.264c0-.396-.132-.726-.33-.99-.198-.132-.396-.198-.594-.198-.132 0-.33 0-.462 0-.99.33-1.782.858-2.442 1.65l-.33.33-.198.198-.396.396c-.264.264-.462.528-.726.792-.792.924-1.518 1.914-2.178 2.904.462-1.518.858-3.102 1.188-4.686.198-.792.33-1.584.396-2.442.066-.396.066-.792.066-1.254-.066-.198-.066-.462-.132-.66 0-.132-.066-.264-.132-.396 0-.198-.066-.33-.132-.462-.132-.198-.396-.462-.594-.594-.132-.066-.264-.132-.396-.132-.198-.066-.33-.066-.462-.066-.33.066-.594.132-.858.198-.264.132-.462.264-.66.396-.726.462-1.32 1.056-1.914 1.716-2.112 2.442-4.092 5.082-5.808 7.788-.396.528-.726 1.056-1.056 1.584 1.254-3.036 2.376-6.27 2.772-7.458.132-.462.132-.924.066-1.32-.066-.462-.396-.858-.792-.99-.462-.132-.924.066-1.188.462-.264.33-.462.792-.528 1.188-.462 2.64-1.122 5.214-1.848 7.788-.462 1.584-.924 3.168-1.386 4.752-.462.66-.924 1.32-1.386 1.914l-.066.066c-.198.264 0 .792.396 1.254 0 0 .066.066.132.066l.066.066c.396.462 1.056.462 1.518.066.99-1.452 1.782-2.838 2.574-4.224l2.442-4.158c1.518-2.706 3.3-5.346 5.214-7.854.462-.594.99-1.122 1.584-1.584.132-.132.264-.198.396-.264.066-.066.132-.066.264-.132.198 0 .396.066.462.264.066.132.132.198.132.33.066.132.066.33.132.462v1.122c0 .792-.066 1.584-.198 2.376-.396 2.31-.924 4.554-1.584 6.798-.396.726-.792 1.452-1.188 2.178v.066c-.198.396.198.924.858 1.188s1.254.198 1.452-.132c1.056-2.442 2.376-4.752 3.96-6.93.198-.264.396-.528.66-.792l.264-.33.132-.198.066-.066c.132-.132.264-.33.462-.462.066-.066.198-.198.33-.132 0 .132.066.198 0 .33l-.132.792c-.33 1.386-.462 2.838-.396 4.29.066.858.462 1.65 1.056 2.178.726.462 1.518.726 2.31.594.396 0 .792-.066 1.122-.132s.726-.198 1.056-.33c.66-.264 1.254-.594 1.848-.99 1.188-.726 2.376-1.518 3.432-2.376 1.98-1.452 3.894-3.036 5.742-4.752.132-.066.198-.198.264-.33.066-.066.066-.132 0-.198zm26.701 0c-.066-.066-.198-.132-.198-.132-4.62 3.564-9.174 7.128-14.256 9.768-2.574 1.254-5.214 2.244-8.052 2.046-1.32-.066-2.64-.396-3.828-.99-1.056-.66-1.782-1.782-1.98-2.97-.198-1.32-.066-2.706.264-3.96.396-1.32.99-2.508 1.848-3.63.792-1.056 1.716-2.046 2.838-2.838.99-.792 2.244-1.386 3.498-1.65.528-.132 1.122-.132 1.716 0 .264.066.462.132.66.264.132.066.264.198.33.33.132.462.132.924 0 1.386-.198.528-.462.99-.858 1.32-.924.924-2.046 1.65-3.234 2.112-1.056.528-2.31.726-3.498.594h-.066-.066c-.66-.066-1.32.264-1.584.924-.264.594.264 1.452 1.254 1.584h.132c1.65.198 3.366-.132 4.884-.858.66-.396 1.386-.726 1.98-1.188.726-.462 1.32-.99 1.914-1.584.594-.66 1.056-1.452 1.32-2.376s.198-1.98-.264-2.838c-.264-.528-.66-.924-1.122-1.254-.396-.198-.858-.396-1.386-.462-.858-.198-1.716-.132-2.574.066-1.518.396-2.97 1.122-4.224 2.112-1.188.924-2.244 2.046-3.102 3.366-1.848 2.508-2.64 5.742-2.112 8.844.132.792.462 1.584.924 2.244s1.056 1.254 1.848 1.65c1.386.726 2.904 1.056 4.488.99.726.066 1.518 0 2.244-.066l1.122-.198 1.056-.33c1.452-.462 2.772-1.056 4.092-1.782 5.148-2.838 9.57-6.6 14.058-10.23.066-.066 0-.132-.066-.264zm37.254 0c-.198-.264-.594-.396-.924-.198h-.066v.066c-.33.198-.99.792-1.98 1.518-.528.33-1.188.66-1.848 1.056l-.528.33-.528.198c-.396.198-.792.33-1.188.528-.264.132-.594.198-.924.33l-1.848.528c-1.782.396-3.63.594-5.478.594-.066 0-.198 0-.33 0-.264-.594-.528-1.254-.792-1.914-.528-1.386-.858-2.838-.99-4.29-.066-.66 0-1.386.132-2.046.066-.462.33-.858.792-1.122.396-.198.924-.264 1.386-.198s.99.264 1.386.462c.594.264 1.056.726 1.386 1.32.066.132.132.33.132.528s.132.33.198.462c.264.264.528.528.924.66s.858 0 1.122-.396c.198-.264.264-.594.264-.924v-.066-.132c-.066-.132-.066-.33-.132-.594-.132-.33-.33-.66-.528-.99-.594-.858-1.452-1.518-2.442-1.848-1.254-.594-2.706-.66-4.026-.198-.198.066-.396.132-.594.264-.132.132-.33.264-.528.396-.132.198-.33.33-.462.528-.066.198-.198.396-.264.594-.264.726-.396 1.518-.33 2.31.066 1.518.396 2.97.99 4.356.33.924.792 1.848 1.254 2.772-1.254-.132-2.442-.396-3.63-.792-.726-.264-1.452-.594-2.112-.924h-.066c0-.066-.066-.066-.066-.066-.198-.132-.462-.198-.66-.198-.462 0-.858.198-1.056.594-.132.198-.198.528-.198.792l.066.066v.066c.396 1.518 1.188 2.97 2.31 4.092.858.924 1.848 1.716 2.838 2.376.594.396 1.188.726 1.848.99.66.396 1.386.594 2.178.66h.264c.132 0 .264 0 .396-.066.264-.066.462-.198.594-.396s.264-.462.33-.726c.066-.462.066-.858 0-1.254-.132-1.122-.462-2.244-.924-3.234-.198-.396-.396-.792-.594-1.188.198-.066.396-.066.66-.066l.66-.066.66-.132 1.32-.198 1.188-.264c.792-.198 1.518-.396 2.178-.66l.924-.33.66-.264c.198-.066.792-.264 1.452-.462.66-.264 1.452-.594 2.244-.924s1.518-.66 2.112-.924l.924-.462c.132-.066.594-.462.264-.924zm-14.586 9.174c.396.99.528 2.046.132 2.574-.066.198-.264.264-.462.33-.132 0-.264 0-.396 0-.792-.132-1.518-.462-2.178-.924-1.056-.726-2.046-1.65-2.772-2.706-.726-.924-1.254-1.914-1.518-3.036-.066-.198-.132-.462-.132-.66.33.132.726.264 1.122.396 1.452.33 2.97.528 4.488.528.066.066.066.132.132.198.66 1.056 1.188 2.112 1.584 3.3zm45.555-9.174c0-.066-.132-.132-.198-.132l-1.32.66c-.726.33-1.452.66-2.178.924l-.396.198c-.33.132-.726.264-1.056.33l-.396.132c-.132.066-.264.066-.462.132-1.584.462-3.234.462-4.818-.066.462-.792.858-1.65 1.188-2.508.198-.528.264-1.056.198-1.584s-.264-1.056-.66-1.452c-.792-.726-1.98-.924-2.97-.396-.462.198-.924.594-1.188 1.056-.198.198-.264.462-.396.726-.066.198-.132.462-.198.726-.264.99-.066 2.112.528 2.97.132.198.264.396.462.528.132.132.33.264.528.396.396.264.792.396 1.188.528h.198v.066c-.132.132-.198.33-.33.528-.264.396-.528.792-.792 1.254l.396.198c.33-.396.594-.858.858-1.32.066-.066.066-.132.132-.198.066-.132.132-.264.264-.396.66.066 1.386.066 2.046 0 1.254-.066 2.508-.33 3.696-.66l1.254-.396.594-.198.264-.132.33-.132c.66-.264 1.254-.528 1.914-.792.462-.264.924-.528 1.32-.792.066-.066.066-.132 0-.198zm-11.55 1.782c-.198-.198-.396-.396-.594-.594-.066-.066-.132-.198-.132-.264-.066-.132-.132-.198-.132-.33-.066-.396-.066-.858 0-1.32.066-.132.132-.264.132-.396.066-.132.066-.198.132-.33s.132-.264.198-.396c.264-.264.594-.396.924-.33.198.066.396.264.462.528.132.33.198.726.132 1.122-.132.858-.396 1.716-.858 2.442-.066-.066-.132-.066-.264-.132zm-3.564 5.742c-.726.792-1.452 1.518-2.31 2.178-.726.726-1.65 1.254-2.574 1.65-.396.132-.792.198-1.188.132-.396-.132-.726-.396-.924-.66-.396-.858-.594-1.782-.528-2.706.066-.99.198-2.046.462-3.036.462-2.046 1.122-4.092 1.914-6.072.066-.33-.33-.726-.99-.99s-1.32-.198-1.386.132h-.066c-.462 1.65-.858 3.234-1.188 4.95-1.122 1.782-2.31 3.498-3.63 5.148-.726.858-1.518 1.716-2.376 2.442-.198.132-.396.33-.66.462-.066.066-.198.132-.33.198-.066.066-.066.066-.132.066-.066.066-.066.066-.132.066-.132.066-.264.066-.396 0-.132 0-.264-.132-.264-.264-.066-.066-.066-.198-.066-.264-.066-.198-.066-.33-.066-.528 0-.33-.066-.726 0-1.056 0-.396 0-.726.066-1.122 0-.396.066-.726.132-1.122.198-1.518.462-2.97.792-4.488.726-2.904 1.716-5.742 3.102-8.382.198-.33-.198-.858-.792-1.254-.594-.33-1.254-.33-1.452.066-1.32 2.97-2.244 6.006-2.772 9.174-.264 1.584-.462 3.168-.528 4.686-.066.396-.066.792-.066 1.188-.066.462 0 .858 0 1.254s.066.792.066 1.188c0 .264.066.462.132.66.066.264.198.594.264.792.198.396.594.66.99.792.528.066 1.056 0 1.518-.264.066-.066.132-.066.264-.132s.264-.198.396-.264c.198-.198.462-.396.66-.594.858-.858 1.65-1.782 2.31-2.772.99-1.32 1.914-2.772 2.706-4.224v.198c-.198 1.122-.264 2.244-.264 3.432 0 1.254.396 2.508 1.122 3.564.462.528 1.056.924 1.782 1.056.66.066 1.386 0 1.98-.33 1.056-.462 1.98-1.188 2.772-1.98s1.518-1.65 2.244-2.508c.66-.924 1.188-1.848 1.848-2.772l-.396-.198c-.66.792-1.32 1.65-2.046 2.508zm41.766-7.524c-.066-.066-.198-.132-.198-.132-4.62 3.564-9.174 7.128-14.256 9.768-2.574 1.254-5.214 2.244-8.052 2.046-1.32-.066-2.64-.396-3.828-.99-1.056-.66-1.782-1.782-1.98-2.97-.198-1.32-.066-2.706.264-3.96.396-1.32.99-2.508 1.848-3.63.792-1.056 1.716-2.046 2.838-2.838.99-.792 2.244-1.386 3.498-1.65.528-.132 1.122-.132 1.716 0 .264.066.462.132.66.264.132.066.264.198.33.33.132.462.132.924 0 1.386-.198.528-.462.99-.858 1.32-.924.924-2.046 1.65-3.234 2.112-1.056.528-2.31.726-3.498.594h-.066-.066c-.66-.066-1.32.264-1.584.924-.264.594.264 1.452 1.254 1.584h.132c1.65.198 3.366-.132 4.884-.858.66-.396 1.386-.726 1.98-1.188.726-.462 1.32-.99 1.914-1.584.594-.66 1.056-1.452 1.32-2.376s.198-1.98-.264-2.838c-.264-.528-.66-.924-1.122-1.254-.396-.198-.858-.396-1.386-.462-.858-.198-1.716-.132-2.574.066-1.518.396-2.97 1.122-4.224 2.112-1.188.924-2.244 2.046-3.102 3.366-1.848 2.508-2.64 5.742-2.112 8.844.132.792.462 1.584.924 2.244s1.056 1.254 1.848 1.65c1.386.726 2.904 1.056 4.488.99.726.066 1.518 0 2.244-.066l1.122-.198 1.056-.33c1.452-.462 2.772-1.056 4.092-1.782 5.148-2.838 9.57-6.6 14.058-10.23.066-.066 0-.132-.066-.264zm26.812 0c-.066-.066-.198-.132-.198-.132-4.62 3.564-9.174 7.128-14.256 9.768-2.574 1.254-5.214 2.244-8.052 2.046-1.32-.066-2.64-.396-3.828-.99-1.056-.66-1.782-1.782-1.98-2.97-.198-1.32-.066-2.706.264-3.96.396-1.32.99-2.508 1.848-3.63.792-1.056 1.716-2.046 2.838-2.838.99-.792 2.244-1.386 3.498-1.65.528-.132 1.122-.132 1.716 0 .264.066.462.132.66.264.132.066.264.198.33.33.132.462.132.924 0 1.386-.198.528-.462.99-.858 1.32-.924.924-2.046 1.65-3.234 2.112-1.056.528-2.31.726-3.498.594h-.066-.066c-.66-.066-1.32.264-1.584.924-.264.594.264 1.452 1.254 1.584h.132c1.65.198 3.366-.132 4.884-.858.66-.396 1.386-.726 1.98-1.188.726-.462 1.32-.99 1.914-1.584.594-.66 1.056-1.452 1.32-2.376s.198-1.98-.264-2.838c-.264-.528-.66-.924-1.122-1.254-.396-.198-.858-.396-1.386-.462-.858-.198-1.716-.132-2.574.066-1.518.396-2.97 1.122-4.224 2.112-1.188.924-2.244 2.046-3.102 3.366-1.848 2.508-2.64 5.742-2.112 8.844.132.792.462 1.584.924 2.244s1.056 1.254 1.848 1.65c1.386.726 2.904 1.056 4.488.99.726.066 1.518 0 2.244-.066l1.122-.198 1.056-.33c1.452-.462 2.772-1.056 4.092-1.782 5.148-2.838 9.57-6.6 14.058-10.23.066-.066 0-.132-.066-.264zm27.671-22.242c0-.132-.132-.198-.264-.198l-2.046.264-3.366.396c-2.574.264-5.808.594-9.042.792-1.65.066-3.366.132-5.016.198.66-1.716 1.386-3.366 2.178-5.016.726-1.386 1.452-2.772 2.244-4.092.396-.66.858-1.254 1.32-1.848.396-.528.924-.99 1.452-1.386l.066-.066c.264-.198.396-.396.528-.66.132-.33.264-.594.264-.924 0-.396-.264-.726-.66-.858-.528-.132-1.122 0-1.518.33h-.066l-.066.066c-.792.528-1.386 1.188-1.98 1.98-.462.66-.99 1.386-1.386 2.112-.858 1.386-1.584 2.838-2.244 4.356-.924 1.98-1.716 3.96-2.442 6.006-.66 0-1.32 0-1.914 0-1.188-.066-2.244-.132-3.168-.198.066 0 .132-.066.198-.066s.132-.066.132-.066c.066-.066.132-.132.066-.198v-.066c-.066-.132-.198-.198-.33-.132-.99 0-1.914-.198-2.838-.528-.528-.198-1.056-.264-1.65-.33-.462-.066-.858 0-1.254.198-.462.198-.792.528-1.056.99-.066.132-.066.264-.066.396 0 0 0 .066-.066.066-.132.462.462.924 1.056 1.254.792.396 1.65.594 2.508.66 2.178.132 4.29.198 6.468.066h1.188c-.132.33-.264.66-.396.99-1.056 3.036-1.98 6.072-2.904 9.174-.99 3.036-1.716 6.204-2.244 9.372-.264 1.65-.33 3.3-.264 4.95 0 1.716.528 3.432 1.518 4.884.528.726 1.254 1.254 2.046 1.65.858.33 1.716.528 2.574.528 1.65 0 3.3-.264 4.884-.792 3.102-1.122 5.874-2.838 8.25-5.148 2.31-2.244 4.224-4.884 5.676-7.722l-.396-.264c-1.518 2.838-3.432 5.346-5.808 7.458-2.31 2.112-5.016 3.762-8.052 4.752-1.452.462-2.97.66-4.488.594-1.452 0-2.838-.66-3.696-1.782-.792-1.32-1.188-2.772-1.122-4.224-.066-1.584.066-3.102.396-4.62.528-3.102 1.386-6.138 2.376-9.108 1.056-3.036 2.046-6.072 3.234-9.042.198-.594.462-1.254.66-1.848 1.98-.132 4.092-.396 6.204-.66 3.3-.396 6.534-.924 9.108-1.386l3.366-.594 1.122-.264.462-.066.132-.066h.066c.066 0 .132-.132.132-.198zm14.546 22.242c-.198-.264-.594-.396-.924-.198h-.066v.066c-.33.198-.99.792-1.98 1.518-.528.33-1.188.66-1.848 1.056l-.528.33-.528.198c-.396.198-.792.33-1.188.528-.264.132-.594.198-.924.33l-1.848.528c-1.782.396-3.63.594-5.478.594-.066 0-.198 0-.33 0-.264-.594-.528-1.254-.792-1.914-.528-1.386-.858-2.838-.99-4.29-.066-.66 0-1.386.132-2.046.066-.462.33-.858.792-1.122.396-.198.924-.264 1.386-.198s.99.264 1.386.462c.594.264 1.056.726 1.386 1.32.066.132.132.33.132.528s.132.33.198.462c.264.264.528.528.924.66s.858 0 1.122-.396c.198-.264.264-.594.264-.924v-.066-.132c-.066-.132-.066-.33-.132-.594-.132-.33-.33-.66-.528-.99-.594-.858-1.452-1.518-2.442-1.848-1.254-.594-2.706-.66-4.026-.198-.198.066-.396.132-.594.264-.132.132-.33.264-.528.396-.132.198-.33.33-.462.528-.066.198-.198.396-.264.594-.264.726-.396 1.518-.33 2.31.066 1.518.396 2.97.99 4.356.33.924.792 1.848 1.254 2.772-1.254-.132-2.442-.396-3.63-.792-.726-.264-1.452-.594-2.112-.924h-.066c0-.066-.066-.066-.066-.066-.198-.132-.462-.198-.66-.198-.462 0-.858.198-1.056.594-.132.198-.198.528-.198.792l.066.066v.066c.396 1.518 1.188 2.97 2.31 4.092.858.924 1.848 1.716 2.838 2.376.594.396 1.188.726 1.848.99.66.396 1.386.594 2.178.66h.264c.132 0 .264 0 .396-.066.264-.066.462-.198.594-.396s.264-.462.33-.726c.066-.462.066-.858 0-1.254-.132-1.122-.462-2.244-.924-3.234-.198-.396-.396-.792-.594-1.188.198-.066.396-.066.66-.066l.66-.066.66-.132 1.32-.198 1.188-.264c.792-.198 1.518-.396 2.178-.66l.924-.33.66-.264c.198-.066.792-.264 1.452-.462.66-.264 1.452-.594 2.244-.924s1.518-.66 2.112-.924l.924-.462c.132-.066.594-.462.264-.924zm-14.586 9.174c.396.99.528 2.046.132 2.574-.066.198-.264.264-.462.33-.132 0-.264 0-.396 0-.792-.132-1.518-.462-2.178-.924-1.056-.726-2.046-1.65-2.772-2.706-.726-.924-1.254-1.914-1.518-3.036-.066-.198-.132-.462-.132-.66.33.132.726.264 1.122.396 1.452.33 2.97.528 4.488.528.066.066.066.132.132.198.66 1.056 1.188 2.112 1.584 3.3zm17.967 3.036c1.056 0 1.98-.858 1.98-1.98s-.924-1.98-1.98-1.98c-1.122 0-2.046.858-2.046 1.98s.924 1.98 2.046 1.98zm15.114-51.084v-.132c-.066-.066.066.066-.198-.396-.198-.396-.594-.594-.99-.594h-.066c-.198 0-.396.066-.528.198-.066 0-.132 0-.132.066h-.066l-.132.132c-.066.066-.132.132-.198.198s-.132.132-.198.264c-.33.462-.594.99-.858 1.518-.198.396-.396.858-.528 1.32v.066h-.066c-.066.33-.066.66.066.99.066.33.264.66.594.726-.396 1.848-.924 3.828-1.386 5.94-1.716 6.798-3.63 14.256-4.62 17.622-.528 1.716-5.016 13.332-5.016 13.332v.066c-.066.264-.198 1.452.792 1.782.99.264 1.518-.792 1.65-1.056v-.132c.726-4.686 1.716-9.306 3.036-13.86.198-.858 2.772-8.58 5.148-16.038 1.254-3.762 2.442-7.458 3.3-10.23l.264-1.056.066-.264.066-.198v-.066-.066z"/></g></svg>