<svg width="752" height="220" viewBox="0 0 752 220" fill="none" xmlns="http://www.w3.org/2000/svg">
<g opacity="0.2">
<path d="M15.286 11.586C14.23 11.454 13.834 12.576 13.768 12.84V12.906L13.702 13.038C13.702 13.368 13.372 15.216 12.91 17.856C12.382 20.496 11.656 23.994 10.798 27.624C9.214 34.95 7.168 42.936 6.112 46.5C5.848 47.424 4.528 50.988 3.142 54.288C2.482 55.938 1.822 57.522 1.294 58.644L0.7 60.03C0.568 60.36 0.436 60.558 0.436 60.558V60.624C0.37 60.888 0.106 62.076 1.03 62.472C2.02 62.934 2.68 61.812 2.812 61.548V61.482L2.878 61.416C3.076 60.624 3.538 58.776 4.132 56.136C4.726 53.496 5.518 50.196 6.508 46.632C6.838 45.708 9.478 37.458 11.854 29.406C13.042 25.38 14.23 21.42 15.022 18.45C15.418 16.932 15.748 15.678 15.946 14.82C16.144 13.896 16.276 13.434 16.276 13.434V13.368C16.342 13.038 16.342 11.784 15.286 11.586ZM44.656 12.708C44.656 12.312 44.524 11.916 44.26 11.652C44.062 11.454 43.864 11.322 43.534 11.256C43.468 11.19 43.336 11.256 43.27 11.388C43.204 11.388 43.204 11.52 43.204 11.586C43.072 11.586 42.94 11.652 42.808 11.652C42.478 11.85 42.148 12.048 41.818 12.312V12.378L41.752 12.444C41.092 13.17 39.244 16.206 37 19.902C34.756 23.598 32.116 28.02 29.608 31.452C28.948 32.376 28.156 33.366 27.298 34.422C26.44 35.478 25.45 36.534 24.394 37.458C23.998 37.788 23.602 38.052 23.14 38.25C22.744 38.382 22.348 38.316 22.15 37.986C21.49 37.26 21.094 36.336 20.83 35.346C20.302 33.3 19.906 31.188 19.708 29.076C19.246 24.852 19.048 20.496 18.982 16.206V16.14C18.916 15.81 18.652 14.424 17.596 14.424C16.54 14.49 16.408 15.942 16.408 16.272V16.338C16.408 16.338 16.408 16.404 16.408 16.47C16.474 16.866 16.606 18.648 16.936 21.288C17.266 23.862 17.662 27.228 18.454 30.858C18.784 32.64 19.312 34.488 19.972 36.204C20.236 37.128 20.83 37.986 21.49 38.712C21.952 39.108 22.546 39.306 23.074 39.174C23.602 39.042 23.998 38.778 24.394 38.448C25.582 37.326 26.704 36.138 27.694 34.818C28.552 33.63 29.344 32.574 29.938 31.716L34.69 25.248L39.178 19.506C39.97 18.516 40.762 17.526 41.554 16.536C41.422 17.328 41.29 18.12 41.092 18.846C40.696 21.024 40.234 23.136 39.772 25.248L36.934 37.986C36.076 42.21 35.02 46.434 34.294 50.79C33.568 55.08 33.106 59.436 32.908 63.792H33.37C33.7 59.502 34.36 55.212 35.284 50.922C36.142 46.698 37.33 42.54 38.452 38.316L41.752 25.71C42.346 23.598 42.874 21.486 43.336 19.374C43.6 18.318 43.864 17.262 44.062 16.14C44.326 15.018 44.524 13.896 44.656 12.774V12.708ZM66.091 50.13C64.045 53.034 61.603 55.608 58.897 57.852C57.511 58.974 56.059 59.898 54.475 60.624C52.957 61.35 51.307 61.68 49.591 61.68C47.941 61.68 46.291 61.218 45.301 60.162C44.311 59.106 44.113 57.522 44.377 55.938C44.707 54.222 45.169 52.572 45.829 50.988C46.423 49.338 47.149 47.754 47.875 46.17L47.941 46.104C48.139 45.642 47.743 45.048 47.149 44.784C46.621 44.454 45.961 44.586 45.565 45.048V45.114C44.839 46.83 44.245 48.48 43.651 50.262C43.057 51.978 42.661 53.826 42.397 55.608C42.265 56.664 42.331 57.654 42.529 58.644C42.727 59.7 43.255 60.624 44.047 61.416C44.773 62.076 45.697 62.604 46.753 62.868C47.677 63.132 48.667 63.264 49.591 63.198C51.505 63.132 53.353 62.604 55.003 61.746C56.653 60.888 58.171 59.832 59.557 58.578C62.197 56.202 64.507 53.43 66.487 50.394L66.091 50.13ZM45.037 39.636C47.413 39.9 49.723 39.306 51.637 37.92C51.835 37.788 51.901 37.59 51.901 37.392C51.835 36.996 51.703 36.666 51.373 36.468C51.175 36.204 50.845 36.006 50.515 35.94C50.317 35.874 50.119 35.94 49.987 36.072C48.799 37.656 47.017 38.778 45.037 39.174H44.971C44.839 39.174 44.773 39.24 44.773 39.306C44.773 39.372 44.773 39.372 44.773 39.438C44.773 39.57 44.905 39.636 45.037 39.636ZM103.993 49.668C102.343 52.638 100.231 55.344 97.6566 57.588C95.6766 59.37 93.3666 60.69 90.8586 61.548C88.8786 62.142 86.7006 62.076 84.7206 61.284C82.9386 60.624 82.2126 58.974 81.7506 57.456C81.4206 56.004 81.2886 54.552 81.2886 53.034C81.3546 52.572 81.3546 52.11 81.3546 51.582C81.9486 50.658 82.4766 49.668 83.0046 48.678C84.1926 46.302 85.3806 43.926 86.4366 41.484C87.8886 38.316 89.2746 35.214 90.5286 31.98C91.5846 29.208 92.5086 26.766 93.2346 24.456C93.9606 22.344 94.4226 20.232 94.7526 17.988C94.7526 17.46 94.7526 16.932 94.6866 16.47C94.6206 15.81 94.2246 15.282 93.6306 15.084C93.0366 14.952 92.4426 15.018 91.9806 15.348C91.5186 15.546 91.1886 15.876 90.8586 16.206C89.7366 17.328 88.7466 18.648 87.9546 20.034C86.5686 22.41 85.3806 24.918 84.3906 27.492C83.2686 30.264 82.3446 33.102 81.6186 36.006C81.0246 38.184 80.6286 40.164 80.3646 42.012C78.3846 41.946 76.4046 42.276 74.4906 43.002C73.1706 43.464 71.9166 44.124 70.7286 44.916C70.1346 45.312 69.6066 45.774 69.0786 46.236C68.5506 46.698 68.0226 47.094 67.5606 47.622C65.6466 49.668 64.1946 52.11 63.2706 54.75C62.8086 56.07 62.5446 57.522 62.5446 58.974C62.5446 59.7 62.6766 60.492 63.0066 61.218C63.3366 62.01 63.9306 62.604 64.7226 63C65.4486 63.264 66.2406 63.33 67.0326 63.264L67.5606 63.198L68.0886 63.066C68.4186 63 68.8146 62.934 69.1446 62.868C70.4646 62.472 71.7186 61.812 72.9066 61.086C75.1506 59.502 77.1306 57.654 78.7806 55.476C79.1766 55.014 79.5066 54.486 79.9026 53.958C80.0346 55.278 80.2986 56.532 80.6946 57.786C80.8266 58.248 81.0246 58.644 81.2226 59.04L81.5526 59.634L81.9486 60.228C82.0806 60.426 82.2786 60.624 82.4766 60.822C82.6086 61.02 82.8066 61.152 83.0046 61.284C83.2686 61.416 83.4666 61.614 83.7306 61.746C83.9286 61.812 84.1926 61.944 84.3906 62.01C86.5686 62.802 88.8786 62.802 91.0566 62.076C93.6306 61.152 95.9406 59.766 97.9866 57.984C100.561 55.674 102.739 52.902 104.389 49.866L103.993 49.668ZM82.2126 45.114C82.2126 45.048 82.2126 44.916 82.2126 44.85C82.2786 44.85 82.3446 44.85 82.3446 44.85L82.4106 44.916H82.4766C83.1366 45.048 83.7966 44.718 84.0606 44.124C84.1926 43.794 84.1926 43.398 83.9946 43.068C83.7966 42.738 83.5326 42.54 83.1366 42.408H83.0706C82.9386 42.408 82.8726 42.342 82.7406 42.342C83.1366 40.56 83.5326 38.712 84.0606 36.6C84.9186 33.432 85.6446 30.792 86.4366 28.284C87.2286 25.71 88.2186 23.202 89.3406 20.76C89.9346 19.374 90.7266 18.12 91.6506 16.998C91.9146 16.668 92.1786 16.404 92.4426 16.206C92.7066 16.074 92.9706 15.942 93.3006 16.008C93.5646 16.074 93.8286 16.338 93.8286 16.668C93.8946 17.064 93.9606 17.526 93.9606 17.988C93.7626 20.1 93.3666 22.212 92.7066 24.258C91.9806 26.568 91.1226 29.076 90.0666 31.782C88.8126 35.016 87.4926 38.184 86.0406 41.286C84.8526 43.662 83.6646 46.038 82.3446 48.348C82.0806 48.81 81.8166 49.338 81.4866 49.8C81.6846 48.216 81.9486 46.698 82.2126 45.114ZM79.9686 44.784C79.7046 47.358 79.6386 49.932 79.7706 52.506C79.2426 53.298 78.6486 54.09 77.9886 54.882C76.3386 56.862 74.4246 58.578 72.2466 60.03C71.1246 60.69 70.0026 61.218 68.7486 61.482C68.4846 61.614 68.1546 61.68 67.8246 61.68L67.4286 61.746L66.9666 61.812C66.3726 61.878 65.8446 61.812 65.3826 61.614C64.5246 61.218 64.1286 60.096 64.1946 58.908C64.2606 57.72 64.4586 56.466 64.9206 55.344C65.8446 52.968 67.2306 50.856 69.0126 49.074C69.4746 48.612 69.9366 48.216 70.3986 47.82C70.9266 47.424 71.3886 47.028 71.9826 46.764C72.9726 46.038 74.0946 45.51 75.2826 45.114C76.8006 44.586 78.3846 44.388 80.0346 44.454C80.0346 44.586 79.9686 44.718 79.9686 44.784ZM125.921 50.262C125.855 50.196 125.789 50.196 125.723 50.262C125.657 50.328 125.591 50.394 125.525 50.526C124.667 51.978 123.677 53.364 122.489 54.552C121.037 56.004 119.453 57.258 117.671 58.182C116.813 58.644 115.889 58.908 114.899 58.974C114.503 59.04 114.107 58.842 113.843 58.578C113.513 58.314 113.381 57.918 113.315 57.456C113.249 56.532 113.381 55.608 113.711 54.684C113.975 53.76 114.371 52.77 114.701 51.846C115.097 50.922 115.493 49.932 115.889 48.942C116.021 48.48 116.219 47.952 116.285 47.424C116.483 46.83 116.483 46.17 116.351 45.576C116.153 44.718 115.493 44.124 114.701 43.992C114.041 43.926 113.381 44.058 112.787 44.322C111.731 44.718 110.741 45.312 109.949 46.038C108.299 47.424 106.847 49.008 105.593 50.724C105.461 50.922 105.329 51.12 105.131 51.318C105.659 49.998 105.989 48.876 106.187 48.282C106.319 47.82 106.319 47.358 106.187 46.962C106.121 46.5 105.791 46.104 105.395 46.038C104.933 45.972 104.537 46.104 104.273 46.5C104.009 46.83 103.811 47.226 103.745 47.622C103.283 50.196 102.755 52.704 102.029 55.146C101.831 55.806 101.633 56.466 101.501 57.126C100.709 58.512 99.9166 59.964 99.1906 61.416V61.482C98.9926 62.076 99.2566 62.67 99.7846 62.934C99.7846 62.934 99.7846 62.934 99.8506 62.934H99.9166C100.445 63.264 101.171 63.066 101.501 62.538V62.472C103.085 58.776 104.999 55.212 107.243 51.912C108.365 50.262 109.619 48.744 111.071 47.358C111.731 46.764 112.523 46.236 113.381 45.84C113.711 45.642 114.041 45.576 114.437 45.576C114.503 45.576 114.635 45.642 114.701 45.708C114.833 45.708 114.833 45.84 114.899 45.972C114.965 46.302 114.965 46.764 114.899 47.16C114.833 47.622 114.701 48.084 114.569 48.546C114.239 49.47 113.909 50.46 113.579 51.384C113.183 52.374 112.853 53.364 112.589 54.354C112.259 55.41 112.193 56.532 112.325 57.654C112.457 58.248 112.721 58.842 113.183 59.238C113.645 59.7 114.239 59.898 114.899 59.832C116.021 59.7 117.011 59.37 118.001 58.842C119.783 57.786 121.433 56.466 122.819 54.882C124.007 53.628 125.063 52.242 125.921 50.724C125.987 50.658 125.987 50.526 126.053 50.46C126.053 50.394 125.987 50.328 125.921 50.262ZM147.044 50.13C144.998 53.034 142.556 55.608 139.85 57.852C138.464 58.974 137.012 59.898 135.428 60.624C133.91 61.35 132.26 61.68 130.544 61.68C128.894 61.68 127.244 61.218 126.254 60.162C125.264 59.106 125.066 57.522 125.33 55.938C125.66 54.222 126.122 52.572 126.782 50.988C127.376 49.338 128.102 47.754 128.828 46.17L128.894 46.104C129.092 45.642 128.696 45.048 128.102 44.784C127.574 44.454 126.914 44.586 126.518 45.048V45.114C125.792 46.83 125.198 48.48 124.604 50.262C124.01 51.978 123.614 53.826 123.35 55.608C123.218 56.664 123.284 57.654 123.482 58.644C123.68 59.7 124.208 60.624 125 61.416C125.726 62.076 126.65 62.604 127.706 62.868C128.63 63.132 129.62 63.264 130.544 63.198C132.458 63.132 134.306 62.604 135.956 61.746C137.606 60.888 139.124 59.832 140.51 58.578C143.15 56.202 145.46 53.43 147.44 50.394L147.044 50.13ZM125.99 39.636C128.366 39.9 130.676 39.306 132.59 37.92C132.788 37.788 132.854 37.59 132.854 37.392C132.788 36.996 132.656 36.666 132.326 36.468C132.128 36.204 131.798 36.006 131.468 35.94C131.27 35.874 131.072 35.94 130.94 36.072C129.752 37.656 127.97 38.778 125.99 39.174H125.924C125.792 39.174 125.726 39.24 125.726 39.306C125.726 39.372 125.726 39.372 125.726 39.438C125.726 39.57 125.858 39.636 125.99 39.636ZM169.898 49.668C166.4 50.196 163.034 51.516 160.13 53.496C160.394 52.044 160.46 50.592 160.592 49.14V49.074C160.526 48.48 159.932 48.018 159.338 48.084C158.81 48.084 158.348 48.282 158.084 48.744C158.084 48.744 158.018 48.81 157.952 48.81C157.688 49.074 157.424 49.338 157.028 49.734C156.368 50.394 155.51 51.186 154.52 52.044C153.464 53.034 152.276 53.892 151.088 54.684C150.428 55.08 149.768 55.476 149.042 55.74C148.448 55.938 147.722 56.004 147.062 55.872C146.93 55.872 146.798 55.806 146.666 55.674L146.468 55.608C146.402 55.542 146.402 55.542 146.336 55.476C146.204 55.278 146.138 55.08 146.138 54.816C146.204 54.09 146.336 53.43 146.666 52.77C147.194 51.45 147.986 50.262 148.91 49.14C149.636 48.282 150.494 47.49 151.418 46.83C152.012 46.434 152.672 46.104 153.332 45.972C153.794 45.906 154.322 45.906 154.85 46.038C155.378 46.104 156.038 46.5 156.434 46.236C156.83 45.972 156.764 45.18 156.17 44.52C155.774 44.058 155.312 43.794 154.718 43.596C154.19 43.398 153.53 43.398 152.936 43.53C151.946 43.794 151.022 44.19 150.164 44.85C149.042 45.708 148.118 46.698 147.26 47.886C146.27 49.206 145.478 50.658 144.95 52.242C144.62 53.166 144.488 54.156 144.554 55.146C144.62 55.74 144.95 56.334 145.412 56.73C145.874 57.06 146.402 57.258 146.93 57.324C147.92 57.456 148.91 57.258 149.768 56.796C150.56 56.466 151.286 56.004 152.012 55.476C153.2 54.552 154.322 53.562 155.378 52.44C156.302 51.45 157.094 50.592 157.688 49.932L158.018 49.602C158.018 51.186 157.886 52.836 157.622 54.42C157.622 54.816 157.49 55.212 157.424 55.608C156.368 56.466 155.378 57.39 154.454 58.446C153.332 59.634 152.276 60.888 151.286 62.208C150.164 63.66 149.108 65.244 148.25 66.894C147.326 68.544 146.666 70.392 146.402 72.24C146.336 72.768 146.402 73.296 146.468 73.824C146.534 74.088 146.6 74.352 146.732 74.55C146.864 74.814 147.062 75.078 147.26 75.276C147.392 75.408 147.524 75.474 147.656 75.54C147.788 75.672 147.92 75.738 148.052 75.738C148.316 75.87 148.646 75.936 148.976 75.87C149.57 75.804 150.098 75.54 150.56 75.21C151.286 74.616 152.012 73.89 152.54 73.098C153.134 72.306 153.662 71.514 154.124 70.722C155.114 69.072 155.906 67.356 156.566 65.574C157.292 63.858 157.886 62.076 158.414 60.294C158.678 59.37 158.942 58.446 159.206 57.588C159.47 56.664 159.734 55.806 159.932 54.816C159.932 54.75 159.932 54.684 159.932 54.552C162.968 52.572 166.4 51.318 169.964 50.988H170.03C170.294 50.856 170.492 50.592 170.426 50.262C170.426 50.13 170.426 49.998 170.294 49.866C170.228 49.734 170.03 49.668 169.898 49.668ZM157.094 57.06C156.896 57.984 156.698 58.842 156.5 59.766C156.038 61.482 155.51 63.264 154.916 64.98C154.388 66.696 153.662 68.346 152.804 69.93C152.408 70.722 151.946 71.514 151.418 72.24C150.956 72.966 150.428 73.626 149.768 74.22C149.504 74.484 149.174 74.616 148.844 74.682C148.712 74.748 148.58 74.748 148.382 74.682C148.316 74.682 148.25 74.616 148.184 74.55C148.118 74.55 148.052 74.55 147.986 74.484C147.524 73.89 147.26 73.098 147.392 72.306C147.59 70.524 148.118 68.808 148.91 67.224C149.702 65.508 150.626 63.924 151.616 62.472C152.606 61.152 153.662 59.898 154.85 58.71C155.576 57.984 156.368 57.258 157.226 56.598C157.16 56.73 157.16 56.862 157.094 57.06ZM196.673 50.13C195.221 52.044 193.439 53.694 191.459 55.08C189.545 56.532 187.367 57.588 185.057 58.116C184.529 58.248 183.935 58.314 183.407 58.248C182.945 58.182 182.483 57.984 182.087 57.654C181.823 57.324 181.625 56.796 181.691 56.334C181.691 55.806 181.757 55.212 181.889 54.684C182.417 52.374 183.407 50.13 184.133 47.754C184.331 47.16 184.463 46.5 184.595 45.906C184.727 45.18 184.727 44.388 184.529 43.662C184.397 43.266 184.133 42.804 183.737 42.54C183.539 42.408 183.341 42.276 183.143 42.21C182.945 42.144 182.747 42.078 182.483 42.078C182.087 42.012 181.691 42.012 181.295 42.078C180.965 42.144 180.635 42.276 180.239 42.408C179.051 42.936 177.929 43.728 177.005 44.652C176.081 45.51 175.223 46.434 174.431 47.424C172.847 49.404 171.395 51.384 170.141 53.562C170.009 53.694 169.943 53.892 169.811 54.024C170.273 51.516 170.867 49.074 171.593 46.632C171.857 45.774 174.497 37.656 177.731 30.132C179.117 26.7 180.833 23.466 182.747 20.298C183.407 19.374 184.067 18.516 184.859 17.724C185.123 17.526 185.321 17.328 185.519 17.196L185.783 16.998C185.849 16.932 185.915 16.932 185.981 16.866C186.047 16.734 186.113 16.668 186.179 16.536C186.377 16.206 186.509 15.876 186.509 15.48C186.509 15.216 186.443 15.018 186.245 14.82C186.113 14.622 185.849 14.556 185.585 14.556C185.387 14.556 185.123 14.556 184.925 14.622C184.727 14.688 184.595 14.754 184.463 14.82L184.397 14.886L184.265 14.952C183.803 15.282 183.341 15.744 182.945 16.206C182.153 17.13 181.493 18.12 180.965 19.11C179.381 22.08 177.995 25.116 176.873 28.218C174.365 35.214 172.187 43.002 171.131 46.5C170.867 47.424 169.613 50.922 168.425 54.288C167.831 55.938 167.303 57.522 166.907 58.776L166.313 60.756V60.822C166.247 61.086 166.181 62.406 167.237 62.538C167.897 62.604 168.425 62.274 168.689 61.68C168.821 61.548 168.887 61.416 168.953 61.218H169.019V61.152C169.877 58.908 170.933 56.796 172.121 54.684C173.243 52.638 174.563 50.592 176.015 48.678C176.741 47.754 177.467 46.896 178.325 46.038C179.051 45.246 179.975 44.52 180.965 43.992C181.361 43.794 181.823 43.728 182.285 43.728C182.747 43.794 182.813 43.86 182.945 44.19C183.077 44.652 183.143 45.18 183.011 45.642C182.945 46.236 182.813 46.764 182.681 47.358C182.087 49.668 181.163 51.912 180.701 54.42C180.569 55.08 180.503 55.74 180.503 56.4C180.503 57.126 180.767 57.918 181.295 58.446C181.823 58.974 182.549 59.238 183.275 59.304C183.935 59.304 184.595 59.238 185.255 59.106C187.697 58.446 189.941 57.258 191.855 55.674C193.835 54.156 195.617 52.374 197.069 50.394L196.673 50.13ZM224.61 28.02C224.61 27.888 224.478 27.822 224.346 27.822L222.3 28.086L218.934 28.482C216.36 28.746 213.126 29.076 209.892 29.274C208.242 29.34 206.526 29.406 204.876 29.472C205.536 27.756 206.262 26.106 207.054 24.456C207.78 23.07 208.506 21.684 209.298 20.364C209.694 19.704 210.156 19.11 210.618 18.516C211.014 17.988 211.542 17.526 212.07 17.13L212.136 17.064C212.4 16.866 212.532 16.668 212.664 16.404C212.796 16.074 212.928 15.81 212.928 15.48C212.928 15.084 212.664 14.754 212.268 14.622C211.74 14.49 211.146 14.622 210.75 14.952H210.684L210.618 15.018C209.826 15.546 209.232 16.206 208.638 16.998C208.176 17.658 207.648 18.384 207.252 19.11C206.394 20.496 205.668 21.948 205.008 23.466C204.084 25.446 203.292 27.426 202.566 29.472C201.906 29.472 201.246 29.472 200.652 29.472C199.464 29.406 198.408 29.34 197.484 29.274C197.55 29.274 197.616 29.208 197.682 29.208C197.748 29.208 197.814 29.142 197.814 29.142C197.88 29.076 197.946 29.01 197.88 28.944V28.878C197.814 28.746 197.682 28.68 197.55 28.746C196.56 28.746 195.636 28.548 194.712 28.218C194.184 28.02 193.656 27.954 193.062 27.888C192.6 27.822 192.204 27.888 191.808 28.086C191.346 28.284 191.016 28.614 190.752 29.076C190.686 29.208 190.686 29.34 190.686 29.472C190.686 29.472 190.686 29.538 190.62 29.538C190.488 30 191.082 30.462 191.676 30.792C192.468 31.188 193.326 31.386 194.184 31.452C196.362 31.584 198.474 31.65 200.652 31.518C201.048 31.518 201.444 31.518 201.84 31.518C201.708 31.848 201.576 32.178 201.444 32.508C200.388 35.544 199.464 38.58 198.54 41.682C197.55 44.718 196.824 47.886 196.296 51.054C196.032 52.704 195.966 54.354 196.032 56.004C196.032 57.72 196.56 59.436 197.55 60.888C198.078 61.614 198.804 62.142 199.596 62.538C200.454 62.868 201.312 63.066 202.17 63.066C203.82 63.066 205.47 62.802 207.054 62.274C210.156 61.152 212.928 59.436 215.304 57.126C217.614 54.882 219.528 52.242 220.98 49.404L220.584 49.14C219.066 51.978 217.152 54.486 214.776 56.598C212.466 58.71 209.76 60.36 206.724 61.35C205.272 61.812 203.754 62.01 202.236 61.944C200.784 61.944 199.398 61.284 198.54 60.162C197.748 58.842 197.352 57.39 197.418 55.938C197.352 54.354 197.484 52.836 197.814 51.318C198.342 48.216 199.2 45.18 200.19 42.21C201.246 39.174 202.236 36.138 203.424 33.168C203.622 32.574 203.886 31.914 204.084 31.32C206.064 31.188 208.176 30.924 210.288 30.66C213.588 30.264 216.822 29.736 219.396 29.274L222.762 28.68L223.884 28.416L224.346 28.35L224.478 28.284H224.544C224.61 28.284 224.676 28.152 224.676 28.086L224.61 28.02ZM249.452 17.064C249.32 16.206 248.924 15.414 248.33 14.754C247.802 14.16 247.142 13.632 246.35 13.236C244.964 12.51 243.38 12.048 241.796 11.784C238.76 11.322 235.592 11.454 232.556 12.114C229.85 12.642 227.342 13.764 225.164 15.546C224.306 16.272 223.514 17.13 222.986 18.186C222.524 18.978 222.194 19.836 221.996 20.694C221.864 21.288 221.864 21.882 221.864 22.476V23.07V23.202C221.93 23.664 222.062 24.126 222.326 24.588C222.656 25.05 223.052 25.446 223.58 25.248C224.042 25.05 224.306 24.588 224.306 24.126C224.372 23.73 224.438 23.334 224.372 22.938V22.806C224.306 22.146 224.372 21.42 224.504 20.826C224.768 19.44 225.494 18.186 226.55 17.196C229.124 14.688 234.206 12.972 239.552 13.104C240.872 13.104 242.192 13.236 243.512 13.5C244.766 13.764 245.954 14.292 247.01 15.084C248 15.81 248.528 16.998 248.396 18.186C248.33 18.78 248.132 19.374 247.868 19.902C247.604 20.43 247.274 21.024 246.944 21.552C244.304 25.908 241.928 29.538 240.476 31.848C240.08 32.442 239.156 33.894 237.968 35.808C236.648 37.986 235.394 40.164 234.338 42.474C233.216 44.85 232.226 47.16 231.566 48.942L230.774 51.054L230.444 51.846V51.912V51.978C230.312 52.374 229.982 54.156 231.038 54.486C232.028 54.75 232.754 53.1 232.886 52.704V52.638L232.952 52.506C233.216 51.384 233.744 48.678 234.932 44.982C236.318 40.494 238.298 36.138 240.872 32.112C241.202 31.518 243.182 28.614 245.954 24.588C246.614 23.598 247.34 22.476 248.066 21.354C249.056 20.1 249.518 18.582 249.452 17.064ZM229.718 62.472C230.84 62.472 231.698 61.614 231.698 60.492C231.698 59.37 230.84 58.512 229.718 58.512C228.596 58.512 227.738 59.37 227.738 60.492C227.738 61.614 228.596 62.472 229.718 62.472ZM245.465 59.04C244.277 59.106 243.287 59.898 242.891 61.02C242.693 61.482 242.759 62.01 243.089 62.406C243.353 62.802 243.815 63.066 244.343 63C245.531 62.934 246.521 62.142 246.917 61.02C247.049 60.558 247.049 60.03 246.719 59.634C246.455 59.238 245.993 59.04 245.465 59.04ZM256.293 59.04C255.105 59.106 254.115 59.898 253.719 61.02C253.521 61.482 253.587 62.01 253.917 62.406C254.181 62.802 254.643 63.066 255.171 63C256.359 62.934 257.349 62.142 257.745 61.02C257.877 60.558 257.877 60.03 257.547 59.634C257.283 59.238 256.821 59.04 256.293 59.04Z" fill="#E9D6D6"/>
<path d="M161.212 95.728C160.552 95.53 159.826 95.53 159.166 95.596C157.252 95.794 154.48 96.124 153.16 96.256L151.972 96.388L150.388 96.652C149.266 96.784 148.012 97.048 147.022 97.246C146.758 97.246 146.428 97.378 146.098 97.444C145.768 97.576 145.438 97.774 145.108 97.972C144.844 98.104 144.646 98.302 144.382 98.5C144.184 98.698 144.052 98.896 143.854 99.16C143.656 99.424 143.59 99.82 143.59 100.216C143.722 100.678 144.25 100.678 144.844 100.612C145.504 100.48 146.23 100.282 146.89 99.952C147.088 99.82 147.352 99.754 147.55 99.688C148.87 99.028 150.19 98.566 151.576 98.236C149.266 106.222 146.956 114.208 144.646 122.194C142.468 130.114 140.224 138.034 138.376 146.02C135.208 145.888 132.106 145.954 130.918 146.02C130.456 146.02 129.994 146.152 129.598 146.416C129.202 146.614 128.938 147.01 128.938 147.472C129.07 147.934 129.4 148.264 129.796 148.396C130.192 148.528 130.654 148.594 131.116 148.462C133.756 148.066 136.462 147.736 139.168 147.538C140.554 147.472 141.874 147.406 143.26 147.406C144.58 147.406 145.966 147.472 147.286 147.67H147.418C147.484 147.67 147.55 147.67 147.616 147.604V147.472C147.616 147.34 147.55 147.274 147.484 147.208C146.494 146.944 145.504 146.68 144.448 146.548C143.062 146.35 141.28 146.218 139.498 146.086C139.3 146.086 139.102 146.086 138.904 146.02C141.082 138.166 143.59 130.378 146.098 122.656C148.804 114.406 151.576 106.222 154.348 97.972V97.906C154.348 97.906 154.348 97.84 154.414 97.84C156.064 97.774 157.78 97.84 159.43 98.104C159.694 98.104 159.892 98.17 160.156 98.17C160.618 98.236 161.014 98.236 161.476 98.17C161.806 98.17 162.136 98.104 162.466 98.038C162.928 97.906 163.456 97.642 163.39 97.18C163.39 96.652 162.334 95.926 161.212 95.728ZM184.843 113.02C184.843 112.888 184.711 112.822 184.579 112.822L182.533 113.086L179.167 113.482C176.593 113.746 173.359 114.076 170.125 114.274C168.475 114.34 166.759 114.406 165.109 114.472C165.769 112.756 166.495 111.106 167.287 109.456C168.013 108.07 168.739 106.684 169.531 105.364C169.927 104.704 170.389 104.11 170.851 103.516C171.247 102.988 171.775 102.526 172.303 102.13L172.369 102.064C172.633 101.866 172.765 101.668 172.897 101.404C173.029 101.074 173.161 100.81 173.161 100.48C173.161 100.084 172.897 99.754 172.501 99.622C171.973 99.49 171.379 99.622 170.983 99.952H170.917L170.851 100.018C170.059 100.546 169.465 101.206 168.871 101.998C168.409 102.658 167.881 103.384 167.485 104.11C166.627 105.496 165.901 106.948 165.241 108.466C164.317 110.446 163.525 112.426 162.799 114.472C162.139 114.472 161.479 114.472 160.885 114.472C159.697 114.406 158.641 114.34 157.717 114.274C157.783 114.274 157.849 114.208 157.915 114.208C157.981 114.208 158.047 114.142 158.047 114.142C158.113 114.076 158.179 114.01 158.113 113.944V113.878C158.047 113.746 157.915 113.68 157.783 113.746C156.793 113.746 155.869 113.548 154.945 113.218C154.417 113.02 153.889 112.954 153.295 112.888C152.833 112.822 152.437 112.888 152.041 113.086C151.579 113.284 151.249 113.614 150.985 114.076C150.919 114.208 150.919 114.34 150.919 114.472C150.919 114.472 150.919 114.538 150.853 114.538C150.721 115 151.315 115.462 151.909 115.792C152.701 116.188 153.559 116.386 154.417 116.452C156.595 116.584 158.707 116.65 160.885 116.518C161.281 116.518 161.677 116.518 162.073 116.518C161.941 116.848 161.809 117.178 161.677 117.508C160.621 120.544 159.697 123.58 158.773 126.682C157.783 129.718 157.057 132.886 156.529 136.054C156.265 137.704 156.199 139.354 156.265 141.004C156.265 142.72 156.793 144.436 157.783 145.888C158.311 146.614 159.037 147.142 159.829 147.538C160.687 147.868 161.545 148.066 162.403 148.066C164.053 148.066 165.703 147.802 167.287 147.274C170.389 146.152 173.161 144.436 175.537 142.126C177.847 139.882 179.761 137.242 181.213 134.404L180.817 134.14C179.299 136.978 177.385 139.486 175.009 141.598C172.699 143.71 169.993 145.36 166.957 146.35C165.505 146.812 163.987 147.01 162.469 146.944C161.017 146.944 159.631 146.284 158.773 145.162C157.981 143.842 157.585 142.39 157.651 140.938C157.585 139.354 157.717 137.836 158.047 136.318C158.575 133.216 159.433 130.18 160.423 127.21C161.479 124.174 162.469 121.138 163.657 118.168C163.855 117.574 164.119 116.914 164.317 116.32C166.297 116.188 168.409 115.924 170.521 115.66C173.821 115.264 177.055 114.736 179.629 114.274L182.995 113.68L184.117 113.416L184.579 113.35L184.711 113.284H184.777C184.843 113.284 184.909 113.152 184.909 113.086L184.843 113.02ZM178.129 101.932C176.941 101.998 175.951 102.79 175.555 103.912C175.291 104.638 175.555 105.364 176.215 105.76C175.687 106.354 175.027 106.882 174.367 107.278L174.235 107.344C174.169 107.344 174.103 107.476 174.169 107.542V107.608C174.169 107.74 174.301 107.806 174.433 107.74H174.499C175.423 107.674 176.347 107.344 177.139 106.882C177.997 106.354 178.657 105.628 179.119 104.77C179.317 104.506 179.449 104.242 179.515 103.912C179.713 103.45 179.647 102.922 179.383 102.526C179.119 102.13 178.657 101.932 178.129 101.932ZM203.578 135.262C203.38 134.998 202.984 134.866 202.654 135.064H202.588V135.13C202.258 135.328 201.598 135.922 200.608 136.648C200.08 136.978 199.42 137.308 198.76 137.704L198.232 138.034L197.704 138.232C197.308 138.43 196.912 138.562 196.516 138.76C196.252 138.892 195.922 138.958 195.592 139.09L193.744 139.618C191.962 140.014 190.114 140.212 188.266 140.212C188.2 140.212 188.068 140.212 187.936 140.212C187.672 139.618 187.408 138.958 187.144 138.298C186.616 136.912 186.286 135.46 186.154 134.008C186.088 133.348 186.154 132.622 186.286 131.962C186.352 131.5 186.616 131.104 187.078 130.84C187.474 130.642 188.002 130.576 188.464 130.642C188.926 130.708 189.454 130.906 189.85 131.104C190.444 131.368 190.906 131.83 191.236 132.424C191.302 132.556 191.368 132.754 191.368 132.952C191.368 133.15 191.5 133.282 191.566 133.414C191.83 133.678 192.094 133.942 192.49 134.074C192.886 134.206 193.348 134.074 193.612 133.678C193.81 133.414 193.876 133.084 193.876 132.754V132.688V132.556C193.81 132.424 193.81 132.226 193.744 131.962C193.612 131.632 193.414 131.302 193.216 130.972C192.622 130.114 191.764 129.454 190.774 129.124C189.52 128.53 188.068 128.464 186.748 128.926C186.55 128.992 186.352 129.058 186.154 129.19C186.022 129.322 185.824 129.454 185.626 129.586C185.494 129.784 185.296 129.916 185.164 130.114C185.098 130.312 184.966 130.51 184.9 130.708C184.636 131.434 184.504 132.226 184.57 133.018C184.636 134.536 184.966 135.988 185.56 137.374C185.89 138.298 186.352 139.222 186.814 140.146C185.56 140.014 184.372 139.75 183.184 139.354C182.458 139.09 181.732 138.76 181.072 138.43H181.006C181.006 138.364 180.94 138.364 180.94 138.364C180.742 138.232 180.478 138.166 180.28 138.166C179.818 138.166 179.422 138.364 179.224 138.76C179.092 138.958 179.026 139.288 179.026 139.552L179.092 139.618V139.684C179.488 141.202 180.28 142.654 181.402 143.776C182.26 144.7 183.25 145.492 184.24 146.152C184.834 146.548 185.428 146.878 186.088 147.142C186.748 147.538 187.474 147.736 188.266 147.802H188.53C188.662 147.802 188.794 147.802 188.926 147.736C189.19 147.67 189.388 147.538 189.52 147.34C189.652 147.142 189.784 146.878 189.85 146.614C189.916 146.152 189.916 145.756 189.85 145.36C189.718 144.238 189.388 143.116 188.926 142.126C188.728 141.73 188.53 141.334 188.332 140.938C188.53 140.872 188.728 140.872 188.992 140.872L189.652 140.806L190.312 140.674L191.632 140.476L192.82 140.212C193.612 140.014 194.338 139.816 194.998 139.552L195.922 139.222L196.582 138.958C196.78 138.892 197.374 138.694 198.034 138.496C198.694 138.232 199.486 137.902 200.278 137.572C201.07 137.242 201.796 136.912 202.39 136.648L203.314 136.186C203.446 136.12 203.908 135.724 203.578 135.262ZM188.992 144.436C189.388 145.426 189.52 146.482 189.124 147.01C189.058 147.208 188.86 147.274 188.662 147.34C188.53 147.34 188.398 147.34 188.266 147.34C187.474 147.208 186.748 146.878 186.088 146.416C185.032 145.69 184.042 144.766 183.316 143.71C182.59 142.786 182.062 141.796 181.798 140.674C181.732 140.476 181.666 140.212 181.666 140.014C181.996 140.146 182.392 140.278 182.788 140.41C184.24 140.74 185.758 140.938 187.276 140.938C187.342 141.004 187.342 141.07 187.408 141.136C188.068 142.192 188.596 143.248 188.992 144.436ZM250.005 113.02C250.005 112.888 249.873 112.822 249.741 112.822L247.695 113.086L244.329 113.482C241.755 113.746 238.521 114.076 235.287 114.274C233.637 114.34 231.921 114.406 230.271 114.472C230.931 112.756 231.657 111.106 232.449 109.456C233.175 108.07 233.901 106.684 234.693 105.364C235.089 104.704 235.551 104.11 236.013 103.516C236.409 102.988 236.937 102.526 237.465 102.13L237.531 102.064C237.795 101.866 237.927 101.668 238.059 101.404C238.191 101.074 238.323 100.81 238.323 100.48C238.323 100.084 238.059 99.754 237.663 99.622C237.135 99.49 236.541 99.622 236.145 99.952H236.079L236.013 100.018C235.221 100.546 234.627 101.206 234.033 101.998C233.571 102.658 233.043 103.384 232.647 104.11C231.789 105.496 231.063 106.948 230.403 108.466C229.479 110.446 228.687 112.426 227.961 114.472C227.301 114.472 226.641 114.472 226.047 114.472C224.859 114.406 223.803 114.34 222.879 114.274C222.945 114.274 223.011 114.208 223.077 114.208C223.143 114.208 223.209 114.142 223.209 114.142C223.275 114.076 223.341 114.01 223.275 113.944V113.878C223.209 113.746 223.077 113.68 222.945 113.746C221.955 113.746 221.031 113.548 220.107 113.218C219.579 113.02 219.051 112.954 218.457 112.888C217.995 112.822 217.599 112.888 217.203 113.086C216.741 113.284 216.411 113.614 216.147 114.076C216.081 114.208 216.081 114.34 216.081 114.472C216.081 114.472 216.081 114.538 216.015 114.538C215.883 115 216.477 115.462 217.071 115.792C217.863 116.188 218.721 116.386 219.579 116.452C221.757 116.584 223.869 116.65 226.047 116.518C226.443 116.518 226.839 116.518 227.235 116.518C227.103 116.848 226.971 117.178 226.839 117.508C225.783 120.544 224.859 123.58 223.935 126.682C222.945 129.718 222.219 132.886 221.691 136.054C221.427 137.704 221.361 139.354 221.427 141.004C221.427 142.72 221.955 144.436 222.945 145.888C223.473 146.614 224.199 147.142 224.991 147.538C225.849 147.868 226.707 148.066 227.565 148.066C229.215 148.066 230.865 147.802 232.449 147.274C235.551 146.152 238.323 144.436 240.699 142.126C243.009 139.882 244.923 137.242 246.375 134.404L245.979 134.14C244.461 136.978 242.547 139.486 240.171 141.598C237.861 143.71 235.155 145.36 232.119 146.35C230.667 146.812 229.149 147.01 227.631 146.944C226.179 146.944 224.793 146.284 223.935 145.162C223.143 143.842 222.747 142.39 222.813 140.938C222.747 139.354 222.879 137.836 223.209 136.318C223.737 133.216 224.595 130.18 225.585 127.21C226.641 124.174 227.631 121.138 228.819 118.168C229.017 117.574 229.281 116.914 229.479 116.32C231.459 116.188 233.571 115.924 235.683 115.66C238.983 115.264 242.217 114.736 244.791 114.274L248.157 113.68L249.279 113.416L249.741 113.35L249.873 113.284H249.939C250.005 113.284 250.071 113.152 250.071 113.086L250.005 113.02ZM266.927 135.13C264.881 138.034 262.439 140.608 259.733 142.852C258.347 143.974 256.895 144.898 255.311 145.624C253.793 146.35 252.143 146.68 250.427 146.68C248.777 146.68 247.127 146.218 246.137 145.162C245.147 144.106 244.949 142.522 245.213 140.938C245.543 139.222 246.005 137.572 246.665 135.988C247.259 134.338 247.985 132.754 248.711 131.17L248.777 131.104C248.975 130.642 248.579 130.048 247.985 129.784C247.457 129.454 246.797 129.586 246.401 130.048V130.114C245.675 131.83 245.081 133.48 244.487 135.262C243.893 136.978 243.497 138.826 243.233 140.608C243.101 141.664 243.167 142.654 243.365 143.644C243.563 144.7 244.091 145.624 244.883 146.416C245.609 147.076 246.533 147.604 247.589 147.868C248.513 148.132 249.503 148.264 250.427 148.198C252.341 148.132 254.189 147.604 255.839 146.746C257.489 145.888 259.007 144.832 260.393 143.578C263.033 141.202 265.343 138.43 267.323 135.394L266.927 135.13ZM245.873 124.636C248.249 124.9 250.559 124.306 252.473 122.92C252.671 122.788 252.737 122.59 252.737 122.392C252.671 121.996 252.539 121.666 252.209 121.468C252.011 121.204 251.681 121.006 251.351 120.94C251.153 120.874 250.955 120.94 250.823 121.072C249.635 122.656 247.853 123.778 245.873 124.174H245.807C245.675 124.174 245.609 124.24 245.609 124.306C245.609 124.372 245.609 124.372 245.609 124.438C245.609 124.57 245.741 124.636 245.873 124.636ZM298.823 135.262C298.757 135.196 298.691 135.196 298.625 135.196C298.493 135.262 298.361 135.328 298.295 135.46C296.447 137.11 294.533 138.694 292.553 140.212C291.431 140.938 290.309 141.664 289.055 142.324C287.933 142.984 286.679 143.314 285.359 143.446C284.765 143.446 284.237 143.248 283.775 142.918C283.445 142.522 283.247 141.994 283.247 141.466C283.247 140.146 283.445 138.892 283.907 137.638C283.973 137.176 284.171 136.582 284.303 136.12L284.435 135.328C284.501 135.262 284.501 135.13 284.501 134.998V134.734C284.501 134.338 284.369 134.008 284.171 133.744C283.973 133.612 283.775 133.546 283.577 133.546C283.445 133.546 283.247 133.546 283.115 133.546C282.125 133.876 281.333 134.404 280.673 135.196L280.343 135.526L280.145 135.724L279.749 136.12C279.485 136.384 279.287 136.648 279.023 136.912C278.231 137.836 277.505 138.826 276.845 139.816C277.307 138.298 277.703 136.714 278.033 135.13C278.231 134.338 278.363 133.546 278.429 132.688C278.495 132.292 278.495 131.896 278.495 131.434C278.429 131.236 278.429 130.972 278.363 130.774C278.363 130.642 278.297 130.51 278.231 130.378C278.231 130.18 278.165 130.048 278.099 129.916C277.967 129.718 277.703 129.454 277.505 129.322C277.373 129.256 277.241 129.19 277.109 129.19C276.911 129.124 276.779 129.124 276.647 129.124C276.317 129.19 276.053 129.256 275.789 129.322C275.525 129.454 275.327 129.586 275.129 129.718C274.403 130.18 273.809 130.774 273.215 131.434C271.103 133.876 269.123 136.516 267.407 139.222C267.011 139.75 266.681 140.278 266.351 140.806C267.605 137.77 268.727 134.536 269.123 133.348C269.255 132.886 269.255 132.424 269.189 132.028C269.123 131.566 268.793 131.17 268.397 131.038C267.935 130.906 267.473 131.104 267.209 131.5C266.945 131.83 266.747 132.292 266.681 132.688C266.219 135.328 265.559 137.902 264.833 140.476C264.371 142.06 263.909 143.644 263.447 145.228C262.985 145.888 262.523 146.548 262.061 147.142L261.995 147.208C261.797 147.472 261.995 148 262.391 148.462C262.391 148.462 262.457 148.528 262.523 148.528L262.589 148.594C262.985 149.056 263.645 149.056 264.107 148.66C265.097 147.208 265.889 145.822 266.681 144.436L269.123 140.278C270.641 137.572 272.423 134.932 274.337 132.424C274.799 131.83 275.327 131.302 275.921 130.84C276.053 130.708 276.185 130.642 276.317 130.576C276.383 130.51 276.449 130.51 276.581 130.444C276.779 130.444 276.977 130.51 277.043 130.708C277.109 130.84 277.175 130.906 277.175 131.038C277.241 131.17 277.241 131.368 277.307 131.5C277.307 131.896 277.307 132.292 277.307 132.622C277.307 133.414 277.241 134.206 277.109 134.998C276.713 137.308 276.185 139.552 275.525 141.796C275.129 142.522 274.733 143.248 274.337 143.974V144.04C274.139 144.436 274.535 144.964 275.195 145.228C275.855 145.492 276.449 145.426 276.647 145.096C277.703 142.654 279.023 140.344 280.607 138.166C280.805 137.902 281.003 137.638 281.267 137.374L281.531 137.044L281.663 136.846L281.729 136.78C281.861 136.648 281.993 136.45 282.191 136.318C282.257 136.252 282.389 136.12 282.521 136.186C282.521 136.318 282.587 136.384 282.521 136.516L282.389 137.308C282.059 138.694 281.927 140.146 281.993 141.598C282.059 142.456 282.455 143.248 283.049 143.776C283.775 144.238 284.567 144.502 285.359 144.37C285.755 144.37 286.151 144.304 286.481 144.238C286.811 144.172 287.207 144.04 287.537 143.908C288.197 143.644 288.791 143.314 289.385 142.918C290.573 142.192 291.761 141.4 292.817 140.542C294.797 139.09 296.711 137.506 298.559 135.79C298.691 135.724 298.757 135.592 298.823 135.46C298.889 135.394 298.889 135.328 298.823 135.262ZM325.524 135.262C325.458 135.196 325.326 135.13 325.326 135.13C320.706 138.694 316.152 142.258 311.07 144.898C308.496 146.152 305.856 147.142 303.018 146.944C301.698 146.878 300.378 146.548 299.19 145.954C298.134 145.294 297.408 144.172 297.21 142.984C297.012 141.664 297.144 140.278 297.474 139.024C297.87 137.704 298.464 136.516 299.322 135.394C300.114 134.338 301.038 133.348 302.16 132.556C303.15 131.764 304.404 131.17 305.658 130.906C306.186 130.774 306.78 130.774 307.374 130.906C307.638 130.972 307.836 131.038 308.034 131.17C308.166 131.236 308.298 131.368 308.364 131.5C308.496 131.962 308.496 132.424 308.364 132.886C308.166 133.414 307.902 133.876 307.506 134.206C306.582 135.13 305.46 135.856 304.272 136.318C303.216 136.846 301.962 137.044 300.774 136.912H300.708H300.642C299.982 136.846 299.322 137.176 299.058 137.836C298.794 138.43 299.322 139.288 300.312 139.42H300.444C302.094 139.618 303.81 139.288 305.328 138.562C305.988 138.166 306.714 137.836 307.308 137.374C308.034 136.912 308.628 136.384 309.222 135.79C309.816 135.13 310.278 134.338 310.542 133.414C310.806 132.49 310.74 131.434 310.278 130.576C310.014 130.048 309.618 129.652 309.156 129.322C308.76 129.124 308.298 128.926 307.77 128.86C306.912 128.662 306.054 128.728 305.196 128.926C303.678 129.322 302.226 130.048 300.972 131.038C299.784 131.962 298.728 133.084 297.87 134.404C296.022 136.912 295.23 140.146 295.758 143.248C295.89 144.04 296.22 144.832 296.682 145.492C297.144 146.152 297.738 146.746 298.53 147.142C299.916 147.868 301.434 148.198 303.018 148.132C303.744 148.198 304.536 148.132 305.262 148.066L306.384 147.868L307.44 147.538C308.892 147.076 310.212 146.482 311.532 145.756C316.68 142.918 321.102 139.156 325.59 135.526C325.656 135.46 325.59 135.394 325.524 135.262ZM371.886 113.02C371.886 112.888 371.754 112.822 371.622 112.822L369.576 113.086L366.21 113.482C363.636 113.746 360.402 114.076 357.168 114.274C355.518 114.34 353.802 114.406 352.152 114.472C352.812 112.756 353.538 111.106 354.33 109.456C355.056 108.07 355.782 106.684 356.574 105.364C356.97 104.704 357.432 104.11 357.894 103.516C358.29 102.988 358.818 102.526 359.346 102.13L359.412 102.064C359.676 101.866 359.808 101.668 359.94 101.404C360.072 101.074 360.204 100.81 360.204 100.48C360.204 100.084 359.94 99.754 359.544 99.622C359.016 99.49 358.422 99.622 358.026 99.952H357.96L357.894 100.018C357.102 100.546 356.508 101.206 355.914 101.998C355.452 102.658 354.924 103.384 354.528 104.11C353.67 105.496 352.944 106.948 352.284 108.466C351.36 110.446 350.568 112.426 349.842 114.472C349.182 114.472 348.522 114.472 347.928 114.472C346.74 114.406 345.684 114.34 344.76 114.274C344.826 114.274 344.892 114.208 344.958 114.208C345.024 114.208 345.09 114.142 345.09 114.142C345.156 114.076 345.222 114.01 345.156 113.944V113.878C345.09 113.746 344.958 113.68 344.826 113.746C343.836 113.746 342.912 113.548 341.988 113.218C341.46 113.02 340.932 112.954 340.338 112.888C339.876 112.822 339.48 112.888 339.084 113.086C338.622 113.284 338.292 113.614 338.028 114.076C337.962 114.208 337.962 114.34 337.962 114.472C337.962 114.472 337.962 114.538 337.896 114.538C337.764 115 338.358 115.462 338.952 115.792C339.744 116.188 340.602 116.386 341.46 116.452C343.638 116.584 345.75 116.65 347.928 116.518C348.324 116.518 348.72 116.518 349.116 116.518C348.984 116.848 348.852 117.178 348.72 117.508C347.664 120.544 346.74 123.58 345.816 126.682C344.826 129.718 344.1 132.886 343.572 136.054C343.308 137.704 343.242 139.354 343.308 141.004C343.308 142.72 343.836 144.436 344.826 145.888C345.354 146.614 346.08 147.142 346.872 147.538C347.73 147.868 348.588 148.066 349.446 148.066C351.096 148.066 352.746 147.802 354.33 147.274C357.432 146.152 360.204 144.436 362.58 142.126C364.89 139.882 366.804 137.242 368.256 134.404L367.86 134.14C366.342 136.978 364.428 139.486 362.052 141.598C359.742 143.71 357.036 145.36 354 146.35C352.548 146.812 351.03 147.01 349.512 146.944C348.06 146.944 346.674 146.284 345.816 145.162C345.024 143.842 344.628 142.39 344.694 140.938C344.628 139.354 344.76 137.836 345.09 136.318C345.618 133.216 346.476 130.18 347.466 127.21C348.522 124.174 349.512 121.138 350.7 118.168C350.898 117.574 351.162 116.914 351.36 116.32C353.34 116.188 355.452 115.924 357.564 115.66C360.864 115.264 364.098 114.736 366.672 114.274L370.038 113.68L371.16 113.416L371.622 113.35L371.754 113.284H371.82C371.886 113.284 371.952 113.152 371.952 113.086L371.886 113.02ZM389.138 135.13C388.082 136.252 386.828 137.176 385.508 137.968C383.594 139.024 381.548 139.75 379.37 140.08C378.05 140.212 376.664 140.212 375.344 139.882C376.07 138.43 376.664 136.978 377.06 135.394C377.324 134.536 377.39 133.678 377.39 132.82C377.456 131.962 377.126 131.104 376.532 130.444C376.202 130.114 375.74 129.916 375.344 129.784H375.278C375.344 129.058 375.08 128.53 374.618 128.53H374.552C373.166 128.728 371.846 129.322 370.79 130.246C369.8 131.038 368.876 131.962 368.15 133.018C366.698 134.998 365.576 137.242 364.85 139.618C364.52 140.74 364.256 141.994 364.19 143.248C364.124 143.842 364.124 144.502 364.256 145.096C364.388 145.822 364.652 146.416 365.048 146.944C365.51 147.538 366.236 147.868 366.896 147.868C367.556 147.934 368.216 147.868 368.81 147.604C369.932 147.142 370.988 146.35 371.78 145.426C372.836 144.304 373.76 142.984 374.552 141.598C374.552 141.466 374.618 141.4 374.684 141.334H374.75C376.4 141.4 377.984 141.268 379.502 140.806C381.68 140.278 383.792 139.486 385.706 138.364C387.092 137.572 388.346 136.582 389.468 135.394L389.138 135.13ZM374.09 141.334C373.364 142.72 372.506 143.974 371.45 145.096C370.658 145.954 369.668 146.548 368.612 146.944C367.556 147.208 366.368 147.142 365.84 146.35C365.312 145.426 365.18 144.37 365.378 143.314C365.576 142.192 365.84 141.136 366.302 140.08C367.094 137.968 368.282 135.988 369.734 134.272C369.8 134.206 369.8 134.14 369.866 134.14C369.8 134.338 369.734 134.602 369.668 134.866C369.272 136.516 369.668 138.298 370.79 139.618C371.318 140.146 371.978 140.608 372.704 140.872C373.166 141.07 373.694 141.136 374.156 141.268C374.156 141.268 374.156 141.334 374.09 141.334ZM373.496 139.156C373.166 138.892 372.77 138.562 372.572 138.232C372.308 137.836 372.176 137.44 372.11 136.978C372.044 136.45 372.11 135.922 372.242 135.328C372.374 134.272 372.836 133.216 373.496 132.358C373.76 132.028 374.09 131.764 374.486 131.566C374.816 131.368 375.212 131.368 375.542 131.566C375.938 131.896 376.202 132.424 376.268 132.952C376.4 133.678 376.4 134.47 376.268 135.262C376.004 136.846 375.542 138.364 374.882 139.75C374.42 139.618 373.958 139.42 373.496 139.156ZM434.376 135.13C432.924 137.044 431.142 138.694 429.162 140.08C427.248 141.532 425.07 142.588 422.76 143.116C422.232 143.248 421.638 143.314 421.11 143.248C420.648 143.182 420.186 142.984 419.79 142.654C419.526 142.324 419.328 141.796 419.394 141.334C419.394 140.806 419.46 140.212 419.592 139.684C420.12 137.374 421.11 135.13 421.836 132.754C422.034 132.16 422.166 131.5 422.298 130.906C422.43 130.18 422.43 129.388 422.232 128.662C422.1 128.266 421.836 127.804 421.44 127.54C421.242 127.408 421.044 127.276 420.846 127.21C420.648 127.144 420.45 127.078 420.186 127.078C419.79 127.012 419.394 127.012 418.998 127.078C418.668 127.144 418.338 127.276 417.942 127.408C416.754 127.936 415.632 128.728 414.708 129.652C413.784 130.51 412.926 131.434 412.134 132.424C410.55 134.404 409.098 136.384 407.844 138.562C407.712 138.694 407.646 138.892 407.514 139.024C407.976 136.516 408.57 134.074 409.296 131.632C409.56 130.774 412.2 122.656 415.434 115.132C416.82 111.7 418.536 108.466 420.45 105.298C421.11 104.374 421.77 103.516 422.562 102.724C422.826 102.526 423.024 102.328 423.222 102.196L423.486 101.998C423.552 101.932 423.618 101.932 423.684 101.866C423.75 101.734 423.816 101.668 423.882 101.536C424.08 101.206 424.212 100.876 424.212 100.48C424.212 100.216 424.146 100.018 423.948 99.82C423.816 99.622 423.552 99.556 423.288 99.556C423.09 99.556 422.826 99.556 422.628 99.622C422.43 99.688 422.298 99.754 422.166 99.82L422.1 99.886L421.968 99.952C421.506 100.282 421.044 100.744 420.648 101.206C419.856 102.13 419.196 103.12 418.668 104.11C417.084 107.08 415.698 110.116 414.576 113.218C412.068 120.214 409.89 128.002 408.834 131.5C408.57 132.424 407.316 135.922 406.128 139.288C405.534 140.938 405.006 142.522 404.61 143.776L404.016 145.756V145.822C403.95 146.086 403.884 147.406 404.94 147.538C405.6 147.604 406.128 147.274 406.392 146.68C406.524 146.548 406.59 146.416 406.656 146.218H406.722V146.152C407.58 143.908 408.636 141.796 409.824 139.684C410.946 137.638 412.266 135.592 413.718 133.678C414.444 132.754 415.17 131.896 416.028 131.038C416.754 130.246 417.678 129.52 418.668 128.992C419.064 128.794 419.526 128.728 419.988 128.728C420.45 128.794 420.516 128.86 420.648 129.19C420.78 129.652 420.846 130.18 420.714 130.642C420.648 131.236 420.516 131.764 420.384 132.358C419.79 134.668 418.866 136.912 418.404 139.42C418.272 140.08 418.206 140.74 418.206 141.4C418.206 142.126 418.47 142.918 418.998 143.446C419.526 143.974 420.252 144.238 420.978 144.304C421.638 144.304 422.298 144.238 422.958 144.106C425.4 143.446 427.644 142.258 429.558 140.674C431.538 139.156 433.32 137.374 434.772 135.394L434.376 135.13ZM473.005 135.262C472.873 135.196 472.741 135.196 472.741 135.196C471.685 136.714 470.497 138.1 469.177 139.354C467.857 140.674 466.471 141.862 464.953 142.918C463.501 143.974 461.917 144.832 460.201 145.492C459.409 145.822 458.551 146.086 457.693 146.284L456.373 146.548L455.713 146.614L455.053 146.68H453.733C453.271 146.68 452.809 146.68 452.413 146.614C451.555 146.548 450.697 146.416 449.839 146.086C448.321 145.69 447.067 144.568 446.473 143.05C445.945 141.466 445.879 139.816 446.209 138.166C446.473 136.978 446.737 135.79 447.133 134.602C447.199 134.47 447.265 134.404 447.265 134.404V134.338C447.331 134.206 447.331 134.074 447.331 133.942C447.463 133.612 447.529 133.348 447.661 133.018V132.952C447.793 132.358 447.397 131.764 446.803 131.632C446.407 131.5 445.945 131.5 445.549 131.764C445.549 131.566 445.417 131.368 445.351 131.236C445.219 131.038 445.153 130.906 445.021 130.708C444.823 130.444 444.625 130.312 444.427 130.114C443.371 129.256 441.919 128.926 440.599 129.124C438.949 129.454 437.431 130.312 436.309 131.434C435.055 132.754 434.065 134.206 433.273 135.79C432.481 137.374 431.755 139.09 431.293 140.806C431.029 141.664 430.831 142.588 430.831 143.446C430.699 144.37 430.897 145.294 431.227 146.086C431.623 146.944 432.349 147.472 433.273 147.736C433.405 147.736 433.669 147.802 433.867 147.802H434.131C434.263 147.802 434.329 147.802 434.395 147.736C434.593 147.736 434.791 147.736 434.989 147.67L435.451 147.472C436.507 147.076 437.497 146.482 438.421 145.756L439.279 145.03C439.675 144.7 440.137 144.238 440.665 143.776C441.853 142.588 442.909 141.334 443.833 140.014C443.833 141.334 444.097 142.654 444.559 143.842C445.021 144.832 445.681 145.756 446.539 146.416C447.397 147.076 448.321 147.538 449.311 147.802C450.301 148.066 451.291 148.198 452.281 148.264C452.743 148.264 453.205 148.264 453.733 148.264L455.185 148.132L455.911 148.066L456.571 147.934L458.023 147.604C458.947 147.34 459.805 147.01 460.729 146.614C462.445 145.822 464.029 144.898 465.547 143.71C467.065 142.522 468.451 141.268 469.705 139.882C470.959 138.496 472.081 137.044 473.137 135.46C473.137 135.394 473.071 135.328 473.005 135.262ZM444.361 135.196C444.097 135.988 443.701 136.978 443.239 138.1C442.711 139.354 442.051 140.608 441.325 141.73C440.467 143.116 439.345 144.37 438.091 145.426C437.629 145.756 437.101 146.152 436.573 146.416C436.045 146.68 435.583 146.878 434.989 147.01C434.395 147.208 433.735 147.142 433.141 146.944C432.481 146.614 432.019 146.02 431.887 145.36C431.689 144.502 431.689 143.71 431.887 142.852C432.349 141.07 433.009 139.288 433.933 137.704C434.725 136.054 435.847 134.536 437.101 133.282C438.091 132.226 439.411 131.566 440.797 131.302C441.589 131.17 442.381 131.434 442.909 132.028C443.041 132.226 443.173 132.424 443.173 132.622V132.688C443.239 132.688 443.239 132.754 443.239 132.82C443.305 132.886 443.371 132.952 443.437 133.084C443.635 133.414 443.965 133.678 444.361 133.81C444.493 133.876 444.625 133.876 444.757 133.876C444.625 134.206 444.493 134.668 444.361 135.196ZM494.192 134.998H493.07H491.42C489.836 134.932 488.318 135.064 486.734 135.196C485.81 135.328 484.82 135.526 483.896 135.856C482.906 136.252 481.982 136.78 481.124 137.44C480.266 138.166 479.54 139.024 478.88 139.948C478.286 140.872 477.692 141.796 477.098 142.72C476.438 143.578 475.844 144.502 475.184 145.36C475.052 145.558 474.854 145.756 474.722 145.954C474.59 146.086 474.458 146.284 474.26 146.416C474.26 146.482 474.194 146.482 474.062 146.482C473.996 146.482 473.93 146.482 473.864 146.416C473.798 146.35 473.798 146.284 473.732 146.218C473.666 146.02 473.6 145.822 473.6 145.624C473.468 145.228 473.402 144.766 473.336 144.238C473.27 143.314 473.27 142.39 473.27 141.466C473.402 138.76 473.864 136.054 474.59 133.414C474.92 132.424 475.184 131.368 475.382 130.444C475.58 129.52 475.844 128.596 475.448 128.266C474.986 128.002 474.26 128.596 473.666 129.388C473.006 130.378 472.544 131.5 472.214 132.622C471.554 135.46 471.158 138.43 471.224 141.4C471.224 142.456 471.29 143.512 471.422 144.502C471.488 145.096 471.62 145.69 471.818 146.218C471.818 146.35 471.884 146.548 471.95 146.68L472.082 146.878C472.082 147.01 472.148 147.076 472.214 147.208C472.28 147.406 472.412 147.604 472.61 147.736C472.676 147.802 472.742 147.934 472.808 148L473.072 148.198C473.468 148.396 473.93 148.462 474.326 148.33C474.788 148.198 475.184 147.934 475.448 147.604C475.712 147.406 475.91 147.142 476.108 146.878C476.306 146.614 476.438 146.416 476.636 146.152C477.23 145.228 477.824 144.238 478.418 143.248C479.012 142.324 479.606 141.268 480.2 140.41C480.728 139.552 481.388 138.76 482.18 138.1C483.698 136.912 485.48 136.186 487.328 135.988C488.846 135.79 490.364 135.658 491.882 135.592L493.466 135.526H494.06H494.192H494.258C494.324 135.526 494.39 135.394 494.39 135.328V135.262C494.39 135.13 494.324 134.998 494.192 134.998ZM521.01 135.262C520.944 135.196 520.812 135.13 520.812 135.13C516.192 138.694 511.638 142.258 506.556 144.898C503.982 146.152 501.342 147.142 498.504 146.944C497.184 146.878 495.864 146.548 494.676 145.954C493.62 145.294 492.894 144.172 492.696 142.984C492.498 141.664 492.63 140.278 492.96 139.024C493.356 137.704 493.95 136.516 494.808 135.394C495.6 134.338 496.524 133.348 497.646 132.556C498.636 131.764 499.89 131.17 501.144 130.906C501.672 130.774 502.266 130.774 502.86 130.906C503.124 130.972 503.322 131.038 503.52 131.17C503.652 131.236 503.784 131.368 503.85 131.5C503.982 131.962 503.982 132.424 503.85 132.886C503.652 133.414 503.388 133.876 502.992 134.206C502.068 135.13 500.946 135.856 499.758 136.318C498.702 136.846 497.448 137.044 496.26 136.912H496.194H496.128C495.468 136.846 494.808 137.176 494.544 137.836C494.28 138.43 494.808 139.288 495.798 139.42H495.93C497.58 139.618 499.296 139.288 500.814 138.562C501.474 138.166 502.2 137.836 502.794 137.374C503.52 136.912 504.114 136.384 504.708 135.79C505.302 135.13 505.764 134.338 506.028 133.414C506.292 132.49 506.226 131.434 505.764 130.576C505.5 130.048 505.104 129.652 504.642 129.322C504.246 129.124 503.784 128.926 503.256 128.86C502.398 128.662 501.54 128.728 500.682 128.926C499.164 129.322 497.712 130.048 496.458 131.038C495.27 131.962 494.214 133.084 493.356 134.404C491.508 136.912 490.716 140.146 491.244 143.248C491.376 144.04 491.706 144.832 492.168 145.492C492.63 146.152 493.224 146.746 494.016 147.142C495.402 147.868 496.92 148.198 498.504 148.132C499.23 148.198 500.022 148.132 500.748 148.066L501.87 147.868L502.926 147.538C504.378 147.076 505.698 146.482 507.018 145.756C512.166 142.918 516.588 139.156 521.076 135.526C521.142 135.46 521.076 135.394 521.01 135.262Z" fill="#E9D6D6"/>
<path d="M486.283 194.262C486.085 193.998 485.689 193.866 485.359 194.064H485.293V194.13C484.963 194.328 484.303 194.922 483.313 195.648C482.785 195.978 482.125 196.308 481.465 196.704L480.937 197.034L480.409 197.232C480.013 197.43 479.617 197.562 479.221 197.76C478.957 197.892 478.627 197.958 478.297 198.09L476.449 198.618C474.667 199.014 472.819 199.212 470.971 199.212C470.905 199.212 470.773 199.212 470.641 199.212C470.377 198.618 470.113 197.958 469.849 197.298C469.321 195.912 468.991 194.46 468.859 193.008C468.793 192.348 468.859 191.622 468.991 190.962C469.057 190.5 469.321 190.104 469.783 189.84C470.179 189.642 470.707 189.576 471.169 189.642C471.631 189.708 472.159 189.906 472.555 190.104C473.149 190.368 473.611 190.83 473.941 191.424C474.007 191.556 474.073 191.754 474.073 191.952C474.073 192.15 474.205 192.282 474.271 192.414C474.535 192.678 474.799 192.942 475.195 193.074C475.591 193.206 476.053 193.074 476.317 192.678C476.515 192.414 476.581 192.084 476.581 191.754V191.688V191.556C476.515 191.424 476.515 191.226 476.449 190.962C476.317 190.632 476.119 190.302 475.921 189.972C475.327 189.114 474.469 188.454 473.479 188.124C472.225 187.53 470.773 187.464 469.453 187.926C469.255 187.992 469.057 188.058 468.859 188.19C468.727 188.322 468.529 188.454 468.331 188.586C468.199 188.784 468.001 188.916 467.869 189.114C467.803 189.312 467.671 189.51 467.605 189.708C467.341 190.434 467.209 191.226 467.275 192.018C467.341 193.536 467.671 194.988 468.265 196.374C468.595 197.298 469.057 198.222 469.519 199.146C468.265 199.014 467.077 198.75 465.889 198.354C465.163 198.09 464.437 197.76 463.777 197.43H463.711C463.711 197.364 463.645 197.364 463.645 197.364C463.447 197.232 463.183 197.166 462.985 197.166C462.523 197.166 462.127 197.364 461.929 197.76C461.797 197.958 461.731 198.288 461.731 198.552L461.797 198.618V198.684C462.193 200.202 462.985 201.654 464.107 202.776C464.965 203.7 465.955 204.492 466.945 205.152C467.539 205.548 468.133 205.878 468.793 206.142C469.453 206.538 470.179 206.736 470.971 206.802H471.235C471.367 206.802 471.499 206.802 471.631 206.736C471.895 206.67 472.093 206.538 472.225 206.34C472.357 206.142 472.489 205.878 472.555 205.614C472.621 205.152 472.621 204.756 472.555 204.36C472.423 203.238 472.093 202.116 471.631 201.126C471.433 200.73 471.235 200.334 471.037 199.938C471.235 199.872 471.433 199.872 471.697 199.872L472.357 199.806L473.017 199.674L474.337 199.476L475.525 199.212C476.317 199.014 477.043 198.816 477.703 198.552L478.627 198.222L479.287 197.958C479.485 197.892 480.079 197.694 480.739 197.496C481.399 197.232 482.191 196.902 482.983 196.572C483.775 196.242 484.501 195.912 485.095 195.648L486.019 195.186C486.151 195.12 486.613 194.724 486.283 194.262ZM471.697 203.436C472.093 204.426 472.225 205.482 471.829 206.01C471.763 206.208 471.565 206.274 471.367 206.34C471.235 206.34 471.103 206.34 470.971 206.34C470.179 206.208 469.453 205.878 468.793 205.416C467.737 204.69 466.747 203.766 466.021 202.71C465.295 201.786 464.767 200.796 464.503 199.674C464.437 199.476 464.371 199.212 464.371 199.014C464.701 199.146 465.097 199.278 465.493 199.41C466.945 199.74 468.463 199.938 469.981 199.938C470.047 200.004 470.047 200.07 470.113 200.136C470.773 201.192 471.301 202.248 471.697 203.436ZM507.616 194.13C506.56 195.252 505.306 196.176 503.986 196.968C502.072 198.024 500.026 198.75 497.848 199.08C496.528 199.212 495.142 199.212 493.822 198.882C494.548 197.43 495.142 195.978 495.538 194.394C495.802 193.536 495.868 192.678 495.868 191.82C495.934 190.962 495.604 190.104 495.01 189.444C494.68 189.114 494.218 188.916 493.822 188.784H493.756C493.822 188.058 493.558 187.53 493.096 187.53H493.03C491.644 187.728 490.324 188.322 489.268 189.246C488.278 190.038 487.354 190.962 486.628 192.018C485.176 193.998 484.054 196.242 483.328 198.618C482.998 199.74 482.734 200.994 482.668 202.248C482.602 202.842 482.602 203.502 482.734 204.096C482.866 204.822 483.13 205.416 483.526 205.944C483.988 206.538 484.714 206.868 485.374 206.868C486.034 206.934 486.694 206.868 487.288 206.604C488.41 206.142 489.466 205.35 490.258 204.426C491.314 203.304 492.238 201.984 493.03 200.598C493.03 200.466 493.096 200.4 493.162 200.334H493.228C494.878 200.4 496.462 200.268 497.98 199.806C500.158 199.278 502.27 198.486 504.184 197.364C505.57 196.572 506.824 195.582 507.946 194.394L507.616 194.13ZM492.568 200.334C491.842 201.72 490.984 202.974 489.928 204.096C489.136 204.954 488.146 205.548 487.09 205.944C486.034 206.208 484.846 206.142 484.318 205.35C483.79 204.426 483.658 203.37 483.856 202.314C484.054 201.192 484.318 200.136 484.78 199.08C485.572 196.968 486.76 194.988 488.212 193.272C488.278 193.206 488.278 193.14 488.344 193.14C488.278 193.338 488.212 193.602 488.146 193.866C487.75 195.516 488.146 197.298 489.268 198.618C489.796 199.146 490.456 199.608 491.182 199.872C491.644 200.07 492.172 200.136 492.634 200.268C492.634 200.268 492.634 200.334 492.568 200.334ZM491.974 198.156C491.644 197.892 491.248 197.562 491.05 197.232C490.786 196.836 490.654 196.44 490.588 195.978C490.522 195.45 490.588 194.922 490.72 194.328C490.852 193.272 491.314 192.216 491.974 191.358C492.238 191.028 492.568 190.764 492.964 190.566C493.294 190.368 493.69 190.368 494.02 190.566C494.416 190.896 494.68 191.424 494.746 191.952C494.878 192.678 494.878 193.47 494.746 194.262C494.482 195.846 494.02 197.364 493.36 198.75C492.898 198.618 492.436 198.42 491.974 198.156ZM539.311 194.262C539.245 194.196 539.179 194.196 539.113 194.196C538.981 194.262 538.849 194.328 538.783 194.46C536.935 196.11 535.021 197.694 533.041 199.212C531.919 199.938 530.797 200.664 529.543 201.324C528.421 201.984 527.167 202.314 525.847 202.446C525.253 202.446 524.725 202.248 524.263 201.918C523.933 201.522 523.735 200.994 523.735 200.466C523.735 199.146 523.933 197.892 524.395 196.638C524.461 196.176 524.659 195.582 524.791 195.12L524.923 194.328C524.989 194.262 524.989 194.13 524.989 193.998V193.734C524.989 193.338 524.857 193.008 524.659 192.744C524.461 192.612 524.263 192.546 524.065 192.546C523.933 192.546 523.735 192.546 523.603 192.546C522.613 192.876 521.821 193.404 521.161 194.196L520.831 194.526L520.633 194.724L520.237 195.12C519.973 195.384 519.775 195.648 519.511 195.912C518.719 196.836 517.993 197.826 517.333 198.816C517.795 197.298 518.191 195.714 518.521 194.13C518.719 193.338 518.851 192.546 518.917 191.688C518.983 191.292 518.983 190.896 518.983 190.434C518.917 190.236 518.917 189.972 518.851 189.774C518.851 189.642 518.785 189.51 518.719 189.378C518.719 189.18 518.653 189.048 518.587 188.916C518.455 188.718 518.191 188.454 517.993 188.322C517.861 188.256 517.729 188.19 517.597 188.19C517.399 188.124 517.267 188.124 517.135 188.124C516.805 188.19 516.541 188.256 516.277 188.322C516.013 188.454 515.815 188.586 515.617 188.718C514.891 189.18 514.297 189.774 513.703 190.434C511.591 192.876 509.611 195.516 507.895 198.222C507.499 198.75 507.169 199.278 506.839 199.806C508.093 196.77 509.215 193.536 509.611 192.348C509.743 191.886 509.743 191.424 509.677 191.028C509.611 190.566 509.281 190.17 508.885 190.038C508.423 189.906 507.961 190.104 507.697 190.5C507.433 190.83 507.235 191.292 507.169 191.688C506.707 194.328 506.047 196.902 505.321 199.476C504.859 201.06 504.397 202.644 503.935 204.228C503.473 204.888 503.011 205.548 502.549 206.142L502.483 206.208C502.285 206.472 502.483 207 502.879 207.462C502.879 207.462 502.945 207.528 503.011 207.528L503.077 207.594C503.473 208.056 504.133 208.056 504.595 207.66C505.585 206.208 506.377 204.822 507.169 203.436L509.611 199.278C511.129 196.572 512.911 193.932 514.825 191.424C515.287 190.83 515.815 190.302 516.409 189.84C516.541 189.708 516.673 189.642 516.805 189.576C516.871 189.51 516.937 189.51 517.069 189.444C517.267 189.444 517.465 189.51 517.531 189.708C517.597 189.84 517.663 189.906 517.663 190.038C517.729 190.17 517.729 190.368 517.795 190.5C517.795 190.896 517.795 191.292 517.795 191.622C517.795 192.414 517.729 193.206 517.597 193.998C517.201 196.308 516.673 198.552 516.013 200.796C515.617 201.522 515.221 202.248 514.825 202.974V203.04C514.627 203.436 515.023 203.964 515.683 204.228C516.343 204.492 516.937 204.426 517.135 204.096C518.191 201.654 519.511 199.344 521.095 197.166C521.293 196.902 521.491 196.638 521.755 196.374L522.019 196.044L522.151 195.846L522.217 195.78C522.349 195.648 522.481 195.45 522.679 195.318C522.745 195.252 522.877 195.12 523.009 195.186C523.009 195.318 523.075 195.384 523.009 195.516L522.877 196.308C522.547 197.694 522.415 199.146 522.481 200.598C522.547 201.456 522.943 202.248 523.537 202.776C524.263 203.238 525.055 203.502 525.847 203.37C526.243 203.37 526.639 203.304 526.969 203.238C527.299 203.172 527.695 203.04 528.025 202.908C528.685 202.644 529.279 202.314 529.873 201.918C531.061 201.192 532.249 200.4 533.305 199.542C535.285 198.09 537.199 196.506 539.047 194.79C539.179 194.724 539.245 194.592 539.311 194.46C539.377 194.394 539.377 194.328 539.311 194.262ZM566.012 194.262C565.946 194.196 565.814 194.13 565.814 194.13C561.194 197.694 556.64 201.258 551.558 203.898C548.984 205.152 546.344 206.142 543.506 205.944C542.186 205.878 540.866 205.548 539.678 204.954C538.622 204.294 537.896 203.172 537.698 201.984C537.5 200.664 537.632 199.278 537.962 198.024C538.358 196.704 538.952 195.516 539.81 194.394C540.602 193.338 541.526 192.348 542.648 191.556C543.638 190.764 544.892 190.17 546.146 189.906C546.674 189.774 547.268 189.774 547.862 189.906C548.126 189.972 548.324 190.038 548.522 190.17C548.654 190.236 548.786 190.368 548.852 190.5C548.984 190.962 548.984 191.424 548.852 191.886C548.654 192.414 548.39 192.876 547.994 193.206C547.07 194.13 545.948 194.856 544.76 195.318C543.704 195.846 542.45 196.044 541.262 195.912H541.196H541.13C540.47 195.846 539.81 196.176 539.546 196.836C539.282 197.43 539.81 198.288 540.8 198.42H540.932C542.582 198.618 544.298 198.288 545.816 197.562C546.476 197.166 547.202 196.836 547.796 196.374C548.522 195.912 549.116 195.384 549.71 194.79C550.304 194.13 550.766 193.338 551.03 192.414C551.294 191.49 551.228 190.434 550.766 189.576C550.502 189.048 550.106 188.652 549.644 188.322C549.248 188.124 548.786 187.926 548.258 187.86C547.4 187.662 546.542 187.728 545.684 187.926C544.166 188.322 542.714 189.048 541.46 190.038C540.272 190.962 539.216 192.084 538.358 193.404C536.51 195.912 535.718 199.146 536.246 202.248C536.378 203.04 536.708 203.832 537.17 204.492C537.632 205.152 538.226 205.746 539.018 206.142C540.404 206.868 541.922 207.198 543.506 207.132C544.232 207.198 545.024 207.132 545.75 207.066L546.872 206.868L547.928 206.538C549.38 206.076 550.7 205.482 552.02 204.756C557.168 201.918 561.59 198.156 566.078 194.526C566.144 194.46 566.078 194.394 566.012 194.262ZM603.266 194.262C603.068 193.998 602.672 193.866 602.342 194.064H602.276V194.13C601.946 194.328 601.286 194.922 600.296 195.648C599.768 195.978 599.108 196.308 598.448 196.704L597.92 197.034L597.392 197.232C596.996 197.43 596.6 197.562 596.204 197.76C595.94 197.892 595.61 197.958 595.28 198.09L593.432 198.618C591.65 199.014 589.802 199.212 587.954 199.212C587.888 199.212 587.756 199.212 587.624 199.212C587.36 198.618 587.096 197.958 586.832 197.298C586.304 195.912 585.974 194.46 585.842 193.008C585.776 192.348 585.842 191.622 585.974 190.962C586.04 190.5 586.304 190.104 586.766 189.84C587.162 189.642 587.69 189.576 588.152 189.642C588.614 189.708 589.142 189.906 589.538 190.104C590.132 190.368 590.594 190.83 590.924 191.424C590.99 191.556 591.056 191.754 591.056 191.952C591.056 192.15 591.188 192.282 591.254 192.414C591.518 192.678 591.782 192.942 592.178 193.074C592.574 193.206 593.036 193.074 593.3 192.678C593.498 192.414 593.564 192.084 593.564 191.754V191.688V191.556C593.498 191.424 593.498 191.226 593.432 190.962C593.3 190.632 593.102 190.302 592.904 189.972C592.31 189.114 591.452 188.454 590.462 188.124C589.208 187.53 587.756 187.464 586.436 187.926C586.238 187.992 586.04 188.058 585.842 188.19C585.71 188.322 585.512 188.454 585.314 188.586C585.182 188.784 584.984 188.916 584.852 189.114C584.786 189.312 584.654 189.51 584.588 189.708C584.324 190.434 584.192 191.226 584.258 192.018C584.324 193.536 584.654 194.988 585.248 196.374C585.578 197.298 586.04 198.222 586.502 199.146C585.248 199.014 584.06 198.75 582.872 198.354C582.146 198.09 581.42 197.76 580.76 197.43H580.694C580.694 197.364 580.628 197.364 580.628 197.364C580.43 197.232 580.166 197.166 579.968 197.166C579.506 197.166 579.11 197.364 578.912 197.76C578.78 197.958 578.714 198.288 578.714 198.552L578.78 198.618V198.684C579.176 200.202 579.968 201.654 581.09 202.776C581.948 203.7 582.938 204.492 583.928 205.152C584.522 205.548 585.116 205.878 585.776 206.142C586.436 206.538 587.162 206.736 587.954 206.802H588.218C588.35 206.802 588.482 206.802 588.614 206.736C588.878 206.67 589.076 206.538 589.208 206.34C589.34 206.142 589.472 205.878 589.538 205.614C589.604 205.152 589.604 204.756 589.538 204.36C589.406 203.238 589.076 202.116 588.614 201.126C588.416 200.73 588.218 200.334 588.02 199.938C588.218 199.872 588.416 199.872 588.68 199.872L589.34 199.806L590 199.674L591.32 199.476L592.508 199.212C593.3 199.014 594.026 198.816 594.686 198.552L595.61 198.222L596.27 197.958C596.468 197.892 597.062 197.694 597.722 197.496C598.382 197.232 599.174 196.902 599.966 196.572C600.758 196.242 601.484 195.912 602.078 195.648L603.002 195.186C603.134 195.12 603.596 194.724 603.266 194.262ZM588.68 203.436C589.076 204.426 589.208 205.482 588.812 206.01C588.746 206.208 588.548 206.274 588.35 206.34C588.218 206.34 588.086 206.34 587.954 206.34C587.162 206.208 586.436 205.878 585.776 205.416C584.72 204.69 583.73 203.766 583.004 202.71C582.278 201.786 581.75 200.796 581.486 199.674C581.42 199.476 581.354 199.212 581.354 199.014C581.684 199.146 582.08 199.278 582.476 199.41C583.928 199.74 585.446 199.938 586.964 199.938C587.03 200.004 587.03 200.07 587.096 200.136C587.756 201.192 588.284 202.248 588.68 203.436ZM634.235 194.262C634.235 194.196 634.103 194.13 634.037 194.13L632.717 194.79C631.991 195.12 631.265 195.45 630.539 195.714L630.143 195.912C629.813 196.044 629.417 196.176 629.087 196.242L628.691 196.374C628.559 196.44 628.427 196.44 628.229 196.506C626.645 196.968 624.995 196.968 623.411 196.44C623.873 195.648 624.269 194.79 624.599 193.932C624.797 193.404 624.863 192.876 624.797 192.348C624.731 191.82 624.533 191.292 624.137 190.896C623.345 190.17 622.157 189.972 621.167 190.5C620.705 190.698 620.243 191.094 619.979 191.556C619.781 191.754 619.715 192.018 619.583 192.282C619.517 192.48 619.451 192.744 619.385 193.008C619.121 193.998 619.319 195.12 619.913 195.978C620.045 196.176 620.177 196.374 620.375 196.506C620.507 196.638 620.705 196.77 620.903 196.902C621.299 197.166 621.695 197.298 622.091 197.43C622.157 197.43 622.223 197.43 622.289 197.43V197.496C622.157 197.628 622.091 197.826 621.959 198.024C621.695 198.42 621.431 198.816 621.167 199.278L621.563 199.476C621.893 199.08 622.157 198.618 622.421 198.156C622.487 198.09 622.487 198.024 622.553 197.958C622.619 197.826 622.685 197.694 622.817 197.562C623.477 197.628 624.203 197.628 624.863 197.562C626.117 197.496 627.371 197.232 628.559 196.902L629.813 196.506L630.407 196.308L630.671 196.176L631.001 196.044C631.661 195.78 632.255 195.516 632.915 195.252C633.377 194.988 633.839 194.724 634.235 194.46C634.301 194.394 634.301 194.328 634.235 194.262ZM622.685 196.044C622.487 195.846 622.289 195.648 622.091 195.45C622.025 195.384 621.959 195.252 621.959 195.186C621.893 195.054 621.827 194.988 621.827 194.856C621.761 194.46 621.761 193.998 621.827 193.536C621.893 193.404 621.959 193.272 621.959 193.14C622.025 193.008 622.025 192.942 622.091 192.81C622.157 192.678 622.223 192.546 622.289 192.414C622.553 192.15 622.883 192.018 623.213 192.084C623.411 192.15 623.609 192.348 623.675 192.612C623.807 192.942 623.873 193.338 623.807 193.734C623.675 194.592 623.411 195.45 622.949 196.176C622.883 196.11 622.817 196.11 622.685 196.044ZM619.121 201.786C618.395 202.578 617.669 203.304 616.811 203.964C616.085 204.69 615.161 205.218 614.237 205.614C613.841 205.746 613.445 205.812 613.049 205.746C612.653 205.614 612.323 205.35 612.125 205.086C611.729 204.228 611.531 203.304 611.597 202.38C611.663 201.39 611.795 200.334 612.059 199.344C612.521 197.298 613.181 195.252 613.973 193.272C614.039 192.942 613.643 192.546 612.983 192.282C612.323 192.018 611.663 192.084 611.597 192.414H611.531C611.069 194.064 610.673 195.648 610.343 197.364C609.221 199.146 608.033 200.862 606.713 202.512C605.987 203.37 605.195 204.228 604.337 204.954C604.139 205.086 603.941 205.284 603.677 205.416C603.611 205.482 603.479 205.548 603.347 205.614C603.281 205.68 603.281 205.68 603.215 205.68C603.149 205.746 603.149 205.746 603.083 205.746C602.951 205.812 602.819 205.812 602.687 205.746C602.555 205.746 602.423 205.614 602.423 205.482C602.357 205.416 602.357 205.284 602.357 205.218C602.291 205.02 602.291 204.888 602.291 204.69C602.291 204.36 602.225 203.964 602.291 203.634C602.291 203.238 602.291 202.908 602.357 202.512C602.357 202.116 602.423 201.786 602.489 201.39C602.687 199.872 602.951 198.42 603.281 196.902C604.007 193.998 604.997 191.16 606.383 188.52C606.581 188.19 606.185 187.662 605.591 187.266C604.997 186.936 604.337 186.936 604.139 187.332C602.819 190.302 601.895 193.338 601.367 196.506C601.103 198.09 600.905 199.674 600.839 201.192C600.773 201.588 600.773 201.984 600.773 202.38C600.707 202.842 600.773 203.238 600.773 203.634C600.773 204.03 600.839 204.426 600.839 204.822C600.839 205.086 600.905 205.284 600.971 205.482C601.037 205.746 601.169 206.076 601.235 206.274C601.433 206.67 601.829 206.934 602.225 207.066C602.753 207.132 603.281 207.066 603.743 206.802C603.809 206.736 603.875 206.736 604.007 206.67C604.139 206.604 604.271 206.472 604.403 206.406C604.601 206.208 604.865 206.01 605.063 205.812C605.921 204.954 606.713 204.03 607.373 203.04C608.363 201.72 609.287 200.268 610.079 198.816C610.079 198.882 610.079 198.948 610.079 199.014C609.881 200.136 609.815 201.258 609.815 202.446C609.815 203.7 610.211 204.954 610.937 206.01C611.399 206.538 611.993 206.934 612.719 207.066C613.379 207.132 614.105 207.066 614.699 206.736C615.755 206.274 616.679 205.548 617.471 204.756C618.263 203.964 618.989 203.106 619.715 202.248C620.375 201.324 620.903 200.4 621.563 199.476L621.167 199.278C620.507 200.07 619.847 200.928 619.121 201.786ZM660.887 194.262C660.821 194.196 660.689 194.13 660.689 194.13C656.069 197.694 651.515 201.258 646.433 203.898C643.859 205.152 641.219 206.142 638.381 205.944C637.061 205.878 635.741 205.548 634.553 204.954C633.497 204.294 632.771 203.172 632.573 201.984C632.375 200.664 632.507 199.278 632.837 198.024C633.233 196.704 633.827 195.516 634.685 194.394C635.477 193.338 636.401 192.348 637.523 191.556C638.513 190.764 639.767 190.17 641.021 189.906C641.549 189.774 642.143 189.774 642.737 189.906C643.001 189.972 643.199 190.038 643.397 190.17C643.529 190.236 643.661 190.368 643.727 190.5C643.859 190.962 643.859 191.424 643.727 191.886C643.529 192.414 643.265 192.876 642.869 193.206C641.945 194.13 640.823 194.856 639.635 195.318C638.579 195.846 637.325 196.044 636.137 195.912H636.071H636.005C635.345 195.846 634.685 196.176 634.421 196.836C634.157 197.43 634.685 198.288 635.675 198.42H635.807C637.457 198.618 639.173 198.288 640.691 197.562C641.351 197.166 642.077 196.836 642.671 196.374C643.397 195.912 643.991 195.384 644.585 194.79C645.179 194.13 645.641 193.338 645.905 192.414C646.169 191.49 646.103 190.434 645.641 189.576C645.377 189.048 644.981 188.652 644.519 188.322C644.123 188.124 643.661 187.926 643.133 187.86C642.275 187.662 641.417 187.728 640.559 187.926C639.041 188.322 637.589 189.048 636.335 190.038C635.147 190.962 634.091 192.084 633.233 193.404C631.385 195.912 630.593 199.146 631.121 202.248C631.253 203.04 631.583 203.832 632.045 204.492C632.507 205.152 633.101 205.746 633.893 206.142C635.279 206.868 636.797 207.198 638.381 207.132C639.107 207.198 639.899 207.132 640.625 207.066L641.747 206.868L642.803 206.538C644.255 206.076 645.575 205.482 646.895 204.756C652.043 201.918 656.465 198.156 660.953 194.526C661.019 194.46 660.953 194.394 660.887 194.262ZM687.699 194.262C687.633 194.196 687.501 194.13 687.501 194.13C682.881 197.694 678.327 201.258 673.245 203.898C670.671 205.152 668.031 206.142 665.193 205.944C663.873 205.878 662.553 205.548 661.365 204.954C660.309 204.294 659.583 203.172 659.385 201.984C659.187 200.664 659.319 199.278 659.649 198.024C660.045 196.704 660.639 195.516 661.497 194.394C662.289 193.338 663.213 192.348 664.335 191.556C665.325 190.764 666.579 190.17 667.833 189.906C668.361 189.774 668.955 189.774 669.549 189.906C669.813 189.972 670.011 190.038 670.209 190.17C670.341 190.236 670.473 190.368 670.539 190.5C670.671 190.962 670.671 191.424 670.539 191.886C670.341 192.414 670.077 192.876 669.681 193.206C668.757 194.13 667.635 194.856 666.447 195.318C665.391 195.846 664.137 196.044 662.949 195.912H662.883H662.817C662.157 195.846 661.497 196.176 661.233 196.836C660.969 197.43 661.497 198.288 662.487 198.42H662.619C664.269 198.618 665.985 198.288 667.503 197.562C668.163 197.166 668.889 196.836 669.483 196.374C670.209 195.912 670.803 195.384 671.397 194.79C671.991 194.13 672.453 193.338 672.717 192.414C672.981 191.49 672.915 190.434 672.453 189.576C672.189 189.048 671.793 188.652 671.331 188.322C670.935 188.124 670.473 187.926 669.945 187.86C669.087 187.662 668.229 187.728 667.371 187.926C665.853 188.322 664.401 189.048 663.147 190.038C661.959 190.962 660.903 192.084 660.045 193.404C658.197 195.912 657.405 199.146 657.933 202.248C658.065 203.04 658.395 203.832 658.857 204.492C659.319 205.152 659.913 205.746 660.705 206.142C662.091 206.868 663.609 207.198 665.193 207.132C665.919 207.198 666.711 207.132 667.437 207.066L668.559 206.868L669.615 206.538C671.067 206.076 672.387 205.482 673.707 204.756C678.855 201.918 683.277 198.156 687.765 194.526C687.831 194.46 687.765 194.394 687.699 194.262ZM715.37 172.02C715.37 171.888 715.238 171.822 715.106 171.822L713.06 172.086L709.694 172.482C707.12 172.746 703.886 173.076 700.652 173.274C699.002 173.34 697.286 173.406 695.636 173.472C696.296 171.756 697.022 170.106 697.814 168.456C698.54 167.07 699.266 165.684 700.058 164.364C700.454 163.704 700.916 163.11 701.378 162.516C701.774 161.988 702.302 161.526 702.83 161.13L702.896 161.064C703.16 160.866 703.292 160.668 703.424 160.404C703.556 160.074 703.688 159.81 703.688 159.48C703.688 159.084 703.424 158.754 703.028 158.622C702.5 158.49 701.906 158.622 701.51 158.952H701.444L701.378 159.018C700.586 159.546 699.992 160.206 699.398 160.998C698.936 161.658 698.408 162.384 698.012 163.11C697.154 164.496 696.428 165.948 695.768 167.466C694.844 169.446 694.052 171.426 693.326 173.472C692.666 173.472 692.006 173.472 691.412 173.472C690.224 173.406 689.168 173.34 688.244 173.274C688.31 173.274 688.376 173.208 688.442 173.208C688.508 173.208 688.574 173.142 688.574 173.142C688.64 173.076 688.706 173.01 688.64 172.944V172.878C688.574 172.746 688.442 172.68 688.31 172.746C687.32 172.746 686.396 172.548 685.472 172.218C684.944 172.02 684.416 171.954 683.822 171.888C683.36 171.822 682.964 171.888 682.568 172.086C682.106 172.284 681.776 172.614 681.512 173.076C681.446 173.208 681.446 173.34 681.446 173.472C681.446 173.472 681.446 173.538 681.38 173.538C681.248 174 681.842 174.462 682.436 174.792C683.228 175.188 684.086 175.386 684.944 175.452C687.122 175.584 689.234 175.65 691.412 175.518C691.808 175.518 692.204 175.518 692.6 175.518C692.468 175.848 692.336 176.178 692.204 176.508C691.148 179.544 690.224 182.58 689.3 185.682C688.31 188.718 687.584 191.886 687.056 195.054C686.792 196.704 686.726 198.354 686.792 200.004C686.792 201.72 687.32 203.436 688.31 204.888C688.838 205.614 689.564 206.142 690.356 206.538C691.214 206.868 692.072 207.066 692.93 207.066C694.58 207.066 696.23 206.802 697.814 206.274C700.916 205.152 703.688 203.436 706.064 201.126C708.374 198.882 710.288 196.242 711.74 193.404L711.344 193.14C709.826 195.978 707.912 198.486 705.536 200.598C703.226 202.71 700.52 204.36 697.484 205.35C696.032 205.812 694.514 206.01 692.996 205.944C691.544 205.944 690.158 205.284 689.3 204.162C688.508 202.842 688.112 201.39 688.178 199.938C688.112 198.354 688.244 196.836 688.574 195.318C689.102 192.216 689.96 189.18 690.95 186.21C692.006 183.174 692.996 180.138 694.184 177.168C694.382 176.574 694.646 175.914 694.844 175.32C696.824 175.188 698.936 174.924 701.048 174.66C704.348 174.264 707.582 173.736 710.156 173.274L713.522 172.68L714.644 172.416L715.106 172.35L715.238 172.284H715.304C715.37 172.284 715.436 172.152 715.436 172.086L715.37 172.02ZM729.916 194.262C729.718 193.998 729.322 193.866 728.992 194.064H728.926V194.13C728.596 194.328 727.936 194.922 726.946 195.648C726.418 195.978 725.758 196.308 725.098 196.704L724.57 197.034L724.042 197.232C723.646 197.43 723.25 197.562 722.854 197.76C722.59 197.892 722.26 197.958 721.93 198.09L720.082 198.618C718.3 199.014 716.452 199.212 714.604 199.212C714.538 199.212 714.406 199.212 714.274 199.212C714.01 198.618 713.746 197.958 713.482 197.298C712.954 195.912 712.624 194.46 712.492 193.008C712.426 192.348 712.492 191.622 712.624 190.962C712.69 190.5 712.954 190.104 713.416 189.84C713.812 189.642 714.34 189.576 714.802 189.642C715.264 189.708 715.792 189.906 716.188 190.104C716.782 190.368 717.244 190.83 717.574 191.424C717.64 191.556 717.706 191.754 717.706 191.952C717.706 192.15 717.838 192.282 717.904 192.414C718.168 192.678 718.432 192.942 718.828 193.074C719.224 193.206 719.686 193.074 719.95 192.678C720.148 192.414 720.214 192.084 720.214 191.754V191.688V191.556C720.148 191.424 720.148 191.226 720.082 190.962C719.95 190.632 719.752 190.302 719.554 189.972C718.96 189.114 718.102 188.454 717.112 188.124C715.858 187.53 714.406 187.464 713.086 187.926C712.888 187.992 712.69 188.058 712.492 188.19C712.36 188.322 712.162 188.454 711.964 188.586C711.832 188.784 711.634 188.916 711.502 189.114C711.436 189.312 711.304 189.51 711.238 189.708C710.974 190.434 710.842 191.226 710.908 192.018C710.974 193.536 711.304 194.988 711.898 196.374C712.228 197.298 712.69 198.222 713.152 199.146C711.898 199.014 710.71 198.75 709.522 198.354C708.796 198.09 708.07 197.76 707.41 197.43H707.344C707.344 197.364 707.278 197.364 707.278 197.364C707.08 197.232 706.816 197.166 706.618 197.166C706.156 197.166 705.76 197.364 705.562 197.76C705.43 197.958 705.364 198.288 705.364 198.552L705.43 198.618V198.684C705.826 200.202 706.618 201.654 707.74 202.776C708.598 203.7 709.588 204.492 710.578 205.152C711.172 205.548 711.766 205.878 712.426 206.142C713.086 206.538 713.812 206.736 714.604 206.802H714.868C715 206.802 715.132 206.802 715.264 206.736C715.528 206.67 715.726 206.538 715.858 206.34C715.99 206.142 716.122 205.878 716.188 205.614C716.254 205.152 716.254 204.756 716.188 204.36C716.056 203.238 715.726 202.116 715.264 201.126C715.066 200.73 714.868 200.334 714.67 199.938C714.868 199.872 715.066 199.872 715.33 199.872L715.99 199.806L716.65 199.674L717.97 199.476L719.158 199.212C719.95 199.014 720.676 198.816 721.336 198.552L722.26 198.222L722.92 197.958C723.118 197.892 723.712 197.694 724.372 197.496C725.032 197.232 725.824 196.902 726.616 196.572C727.408 196.242 728.134 195.912 728.728 195.648L729.652 195.186C729.784 195.12 730.246 194.724 729.916 194.262ZM715.33 203.436C715.726 204.426 715.858 205.482 715.462 206.01C715.396 206.208 715.198 206.274 715 206.34C714.868 206.34 714.736 206.34 714.604 206.34C713.812 206.208 713.086 205.878 712.426 205.416C711.37 204.69 710.38 203.766 709.654 202.71C708.928 201.786 708.4 200.796 708.136 199.674C708.07 199.476 708.004 199.212 708.004 199.014C708.334 199.146 708.73 199.278 709.126 199.41C710.578 199.74 712.096 199.938 713.614 199.938C713.68 200.004 713.68 200.07 713.746 200.136C714.406 201.192 714.934 202.248 715.33 203.436ZM733.297 206.472C734.353 206.472 735.277 205.614 735.277 204.492C735.277 203.37 734.353 202.512 733.297 202.512C732.175 202.512 731.251 203.37 731.251 204.492C731.251 205.614 732.175 206.472 733.297 206.472ZM748.411 155.388V155.256C748.345 155.19 748.477 155.322 748.213 154.86C748.015 154.464 747.619 154.266 747.223 154.266H747.157C746.959 154.266 746.761 154.332 746.629 154.464C746.563 154.464 746.497 154.464 746.497 154.53H746.431L746.299 154.662C746.233 154.728 746.167 154.794 746.101 154.86C746.035 154.926 745.969 154.992 745.903 155.124C745.573 155.586 745.309 156.114 745.045 156.642C744.847 157.038 744.649 157.5 744.517 157.962V158.028H744.451C744.385 158.358 744.385 158.688 744.517 159.018C744.583 159.348 744.781 159.678 745.111 159.744C744.715 161.592 744.187 163.572 743.725 165.684C742.009 172.482 740.095 179.94 739.105 183.306C738.577 185.022 734.089 196.638 734.089 196.638V196.704C734.023 196.968 733.891 198.156 734.881 198.486C735.871 198.75 736.399 197.694 736.531 197.43V197.298C737.257 192.612 738.247 187.992 739.567 183.438C739.765 182.58 742.339 174.858 744.715 167.4C745.969 163.638 747.157 159.942 748.015 157.17L748.279 156.114L748.345 155.85L748.411 155.652V155.586V155.52V155.388Z" fill="#E9D6D6"/>
</g>
</svg>
