<svg width="859" height="162" viewBox="0 0 859 162" fill="none" xmlns="http://www.w3.org/2000/svg">
<g opacity="0.15">
<path d="M35.287 50.2643C35.287 50.1092 35.2095 49.9541 35.2095 49.9541C33.6581 49.7989 32.0292 49.7989 30.4778 49.7989C30.4778 47.5495 30.5554 45.2224 30.633 42.8954C31.0208 35.3713 31.7965 27.8473 33.0376 20.4008C33.6581 18.927 34.2011 17.5308 34.7441 15.9795L34.8216 15.9019C34.8992 15.514 35.1319 13.8851 33.8908 13.5749C32.7273 13.2646 32.0292 14.7384 31.8741 15.0486V15.1262V15.2813C31.7965 15.4365 31.7189 15.9795 31.4862 16.6776L30.633 19.47C29.9349 21.6419 28.9265 24.5119 27.6854 27.537C25.3584 33.3546 22.7211 39.017 19.7735 44.6019C18.5324 46.7738 16.9035 49.5662 15.1195 52.4362L14.6541 53.2119C13.3354 53.7549 12.0943 54.3754 10.9308 54.9959H10.8532C10.6205 55.2286 10.7757 55.8492 11.2411 56.5473C11.3962 56.8576 11.6289 57.1678 11.9392 57.4005C10.8532 58.9519 9.84486 60.4257 8.75892 61.977C7.20757 64.1489 5.57865 66.3984 3.94973 68.4151C4.10486 68.1824 4.26 67.8722 4.33757 67.6395C4.33757 67.6395 4.26 67.5619 4.10486 67.4843C4.0273 67.4068 3.87216 67.3292 3.87216 67.3292C3.32919 67.8722 2.39838 68.1049 1.54513 69.0357C1.1573 69.6562 0.924593 70.2768 0.924593 70.9749C1.00216 71.4403 1.07973 71.9057 1.1573 72.3711C1.1573 72.7589 1.31243 73.1468 1.54513 73.3795C2.39838 74.3103 3.71703 73.2243 4.0273 72.9141H4.10486L4.18243 72.7589L5.11324 71.4403L5.88892 70.3543L6.74216 68.9581L7.75054 67.4068L8.83649 65.5451C9.61216 64.3041 10.3878 62.9078 11.2411 61.5116C12.0943 59.9603 13.0251 58.2538 13.8784 56.6249C18.2997 53.91 23.2641 52.0484 28.3059 51.1951C28.3059 53.2895 28.2284 55.4613 28.2284 57.5557C28.2284 62.5976 28.6938 67.5619 29.6246 72.5262V72.6038C29.7022 72.9141 30.0124 73.2243 30.3227 73.3795C30.633 73.5346 31.0208 73.6122 31.4087 73.457C32.1068 73.3019 32.6497 72.6038 32.5722 71.9057V71.8281C31.4862 67.0965 30.8657 62.2873 30.633 57.4781C30.5554 55.3062 30.4778 53.0568 30.4778 50.8073C32.0292 50.6522 33.5805 50.497 35.2095 50.497C35.2095 50.4195 35.287 50.3419 35.287 50.2643ZM28.8489 42.7403C28.6162 45.1449 28.4611 47.5495 28.3835 49.9541C24.1949 50.2643 20.0062 51.1951 16.0503 52.6689C17.6016 49.7213 19.0754 47.0065 20.2389 44.8346L24.6603 36.8451C26.5219 33.5097 28.3835 30.0967 30.09 26.6838C30.5554 25.6754 31.0984 24.667 31.5638 23.6586C30.4003 29.9416 29.4695 36.3022 28.8489 42.7403ZM65.8741 59.0295C65.7965 58.9519 65.719 58.9519 65.6414 59.0295C65.5638 59.107 65.4863 59.1846 65.4087 59.3397C64.4003 61.0462 63.2368 62.6751 61.8406 64.0714C60.1341 65.7778 58.2725 67.2516 56.1782 68.3376C55.1698 68.8805 54.0838 69.1908 52.9203 69.2684C52.4549 69.3459 51.9895 69.1132 51.6792 68.803C51.2914 68.4927 51.1363 68.0273 51.0587 67.4843C50.9811 66.3984 51.1363 65.3124 51.5241 64.2265C51.8344 63.1405 52.2998 61.977 52.6876 60.8911C53.153 59.8051 53.6184 58.6416 54.0838 57.4781C54.239 56.9351 54.4717 56.3146 54.5492 55.6941C54.7819 54.9959 54.7819 54.2203 54.6268 53.5222C54.3941 52.5138 53.6184 51.8157 52.6876 51.6605C51.9119 51.583 51.1363 51.7381 50.4382 52.0484C49.1971 52.5138 48.0336 53.2119 47.1028 54.0651C45.1636 55.6941 43.4571 57.5557 41.9833 59.5724C41.8282 59.8051 41.673 60.0378 41.4403 60.2705C42.0609 58.7192 42.4487 57.4005 42.6814 56.7024C42.8365 56.1595 42.8365 55.6165 42.6814 55.1511C42.6038 54.6081 42.216 54.1427 41.7506 54.0651C41.2076 53.9876 40.7422 54.1427 40.4319 54.6081C40.1217 54.9959 39.889 55.4613 39.8114 55.9268C39.2684 58.9519 38.6479 61.8995 37.7946 64.7695C37.5619 65.5451 37.3292 66.3208 37.1741 67.0965C36.2433 68.7254 35.3125 70.4319 34.4592 72.1384V72.2159C34.2265 72.9141 34.5368 73.6122 35.1573 73.9224C35.1573 73.9224 35.1573 73.9224 35.2349 73.9224H35.3125C35.933 74.3103 36.7863 74.0776 37.1741 73.457V73.3795C39.0357 69.0357 41.2852 64.847 43.9225 60.9686C45.2411 59.0295 46.7149 57.2454 48.4214 55.6165C49.1971 54.9184 50.1279 54.2978 51.1363 53.8324C51.5241 53.5997 51.9119 53.5222 52.3773 53.5222C52.4549 53.5222 52.6101 53.5997 52.6876 53.6773C52.8428 53.6773 52.8428 53.8324 52.9203 53.9876C52.9979 54.3754 52.9979 54.9184 52.9203 55.3838C52.8428 55.9268 52.6876 56.4697 52.5325 57.0127C52.1446 58.0986 51.7568 59.2622 51.369 60.3481C50.9036 61.5116 50.5157 62.6751 50.2055 63.8386C49.8176 65.0797 49.74 66.3984 49.8952 67.717C50.0503 68.4151 50.3606 69.1132 50.9036 69.5786C51.4465 70.1216 52.1446 70.3543 52.9203 70.2768C54.239 70.1216 55.4025 69.7338 56.566 69.1132C58.6603 67.8722 60.5995 66.3208 62.2284 64.4592C63.6246 62.9854 64.8657 61.3565 65.8741 59.5724C65.9517 59.4949 65.9517 59.3397 66.0292 59.2622C66.0292 59.1846 65.9517 59.107 65.8741 59.0295ZM93.6475 58.3313C89.4589 58.9519 85.5029 60.5032 82.09 62.9078C82.3227 61.1238 82.4778 59.3397 82.4778 57.4781V57.4005C82.3227 56.7024 81.7021 56.237 80.9265 56.3146C80.2283 56.237 79.6078 56.78 79.4527 57.4781V57.5557C79.4527 57.7884 79.4527 58.0986 79.4527 58.3313C78.5994 59.2622 77.6686 60.0378 76.6602 60.8135C75.5743 61.7443 74.4108 62.52 73.1697 63.2957C71.9286 64.1489 70.5324 64.7695 69.0586 65.2349C68.4381 65.4676 67.74 65.5451 67.0419 65.5451C66.8092 65.4676 66.4989 65.39 66.2662 65.2349C66.1111 65.1573 65.9559 65.0022 65.8008 64.7695C65.5681 64.3041 65.4905 63.7611 65.4905 63.2181C65.5681 62.5976 65.7232 61.977 65.8783 61.3565C66.4989 59.4949 67.4297 57.7884 68.5932 56.237C69.0586 55.6165 69.4465 54.9959 69.6792 54.2978C69.9894 53.6773 70.2221 52.9016 69.8343 52.5138C69.4465 52.0484 68.7483 52.2035 68.0502 52.5913C67.3521 53.1343 66.654 53.7549 66.1886 54.5305C65.0251 56.3922 64.0943 58.4865 63.5513 60.6584C63.3186 61.5116 63.241 62.3649 63.241 63.1405C63.241 64.2265 63.5513 65.2349 64.1719 66.0881C64.87 66.9414 65.9559 67.4843 67.0419 67.4068C68.0502 67.4068 68.9811 67.1741 69.8343 66.7862C71.3856 66.1657 72.8594 65.2349 74.1781 64.2265C75.3416 63.2957 76.5051 62.3649 77.5911 61.3565C78.2892 60.6584 78.9873 59.9603 79.5302 59.4173C79.5302 60.8911 79.4527 62.4424 79.22 63.9162C79.1424 64.3816 79.0648 64.847 78.9873 65.3124C77.9789 66.1657 77.0481 67.0189 76.1173 67.9497C74.7986 69.2684 73.5575 70.6646 72.394 72.2159C70.9978 73.9224 69.6792 75.7841 68.5932 77.7232C67.4297 79.6624 66.654 81.8343 66.1111 84.0838C66.0335 84.6268 65.9559 85.2473 65.9559 85.8678C66.0335 86.4884 66.1886 87.1865 66.4989 87.7295C66.8092 88.4276 67.4297 88.893 68.1278 89.0481C68.9035 89.2032 69.6016 89.1257 70.2997 88.7378C71.3081 88.1173 72.2389 87.2641 72.937 86.2557C73.6351 85.4024 74.2556 84.4716 74.8762 83.4632C76.0397 81.5241 77.0481 79.4297 77.9013 77.3354C78.7546 75.2411 79.4527 73.1468 80.1508 70.9749C80.4611 69.8889 80.7713 68.803 81.0816 67.717C81.3143 66.6311 81.6246 65.6227 81.8573 64.3816C81.9348 64.3041 81.9348 64.2265 81.9348 64.0714C82.0124 64.0714 82.09 63.9938 82.09 63.9938C85.5805 61.6668 89.614 60.193 93.8027 59.8051C94.1129 59.8051 94.3456 59.4173 94.2681 59.0295C94.2681 58.6416 93.9578 58.3313 93.6475 58.3313ZM78.5994 67.0965C78.3667 68.1824 78.134 69.2684 77.8238 70.3543C76.8154 74.543 75.3416 78.6541 73.3248 82.61C72.8594 83.5408 72.2389 84.3941 71.6183 85.3249C71.0754 86.1781 70.3773 86.8762 69.524 87.4968C69.2138 87.7295 68.9035 87.807 68.5156 87.7295C68.1278 87.6519 67.8175 87.4192 67.5848 87.1089C67.197 86.1781 67.1194 85.1697 67.2746 84.2389C67.6624 82.1446 68.3605 80.0503 69.3689 78.1111C70.3773 76.1719 71.5408 74.3103 72.8594 72.5262C73.9454 71.0524 75.1865 69.6562 76.5051 68.4151C77.2032 67.717 77.9789 67.0189 78.7546 66.3984C78.677 66.6311 78.5994 66.8638 78.5994 67.0965ZM137.978 59.0295C137.745 58.7192 137.28 58.5641 136.892 58.7968H136.815V58.8743C136.427 59.107 135.651 59.8051 134.487 60.6584C133.867 61.0462 133.091 61.4341 132.316 61.8995L131.695 62.2873L131.075 62.52C130.609 62.7527 130.144 62.9078 129.678 63.1405C129.368 63.2957 128.98 63.3732 128.592 63.5284L126.42 64.1489C124.326 64.6143 122.154 64.847 119.982 64.847C119.905 64.847 119.75 64.847 119.595 64.847C119.284 64.1489 118.974 63.3732 118.664 62.5976C118.043 60.9686 117.655 59.2622 117.5 57.5557C117.423 56.78 117.5 55.9268 117.655 55.1511C117.733 54.6081 118.043 54.1427 118.586 53.8324C119.052 53.5997 119.672 53.5222 120.215 53.5997C120.758 53.6773 121.379 53.91 121.844 54.1427C122.542 54.453 123.085 54.9959 123.473 55.6941C123.55 55.8492 123.628 56.0819 123.628 56.3146C123.628 56.5473 123.783 56.7024 123.861 56.8576C124.171 57.1678 124.481 57.4781 124.947 57.6332C125.412 57.7884 125.955 57.6332 126.265 57.1678C126.498 56.8576 126.576 56.4697 126.576 56.0819V56.0043V55.8492C126.498 55.6941 126.498 55.4613 126.42 55.1511C126.265 54.7632 126.033 54.3754 125.8 53.9876C125.102 52.9792 124.093 52.2035 122.93 51.8157C121.456 51.1176 119.75 51.04 118.198 51.583C117.966 51.6605 117.733 51.7381 117.5 51.8932C117.345 52.0484 117.112 52.2035 116.88 52.3586C116.724 52.5913 116.492 52.7465 116.337 52.9792C116.259 53.2119 116.104 53.4446 116.026 53.6773C115.716 54.5305 115.561 55.4613 115.639 56.3922C115.716 58.1762 116.104 59.8827 116.802 61.5116C117.19 62.5976 117.733 63.6835 118.276 64.7695C116.802 64.6143 115.406 64.3041 114.01 63.8386C113.156 63.5284 112.303 63.1405 111.527 62.7527H111.45C111.45 62.6751 111.372 62.6751 111.372 62.6751C111.14 62.52 110.829 62.4424 110.597 62.4424C110.054 62.4424 109.588 62.6751 109.356 63.1405C109.2 63.3732 109.123 63.7611 109.123 64.0714L109.2 64.1489V64.2265C109.666 66.0105 110.597 67.717 111.915 69.0357C112.924 70.1216 114.087 71.0524 115.251 71.8281C115.949 72.2935 116.647 72.6814 117.423 72.9916C118.198 73.457 119.052 73.6897 119.982 73.7673H120.293C120.448 73.7673 120.603 73.7673 120.758 73.6897C121.068 73.6122 121.301 73.457 121.456 73.2243C121.611 72.9916 121.766 72.6814 121.844 72.3711C121.922 71.8281 121.922 71.3627 121.844 70.8973C121.689 69.5786 121.301 68.26 120.758 67.0965C120.525 66.6311 120.293 66.1657 120.06 65.7003C120.293 65.6227 120.525 65.6227 120.836 65.6227L121.611 65.5451L122.387 65.39L123.938 65.1573L125.335 64.847C126.265 64.6143 127.119 64.3816 127.894 64.0714L128.98 63.6835L129.756 63.3732C129.989 63.2957 130.687 63.063 131.462 62.8303C132.238 62.52 133.169 62.1322 134.1 61.7443C135.03 61.3565 135.884 60.9686 136.582 60.6584L137.668 60.1154C137.823 60.0378 138.366 59.5724 137.978 59.0295ZM120.836 69.8114C121.301 70.9749 121.456 72.2159 120.991 72.8365C120.913 73.0692 120.68 73.1468 120.448 73.2243C120.293 73.2243 120.137 73.2243 119.982 73.2243C119.052 73.0692 118.198 72.6814 117.423 72.1384C116.182 71.2851 115.018 70.1992 114.165 68.9581C113.312 67.8722 112.691 66.7086 112.381 65.39C112.303 65.1573 112.226 64.847 112.226 64.6143C112.613 64.7695 113.079 64.9246 113.544 65.0797C115.251 65.4676 117.035 65.7003 118.819 65.7003C118.896 65.7778 118.896 65.8554 118.974 65.933C119.75 67.1741 120.37 68.4151 120.836 69.8114ZM174.375 59.0295C174.375 58.9519 174.22 58.8743 174.142 58.8743L172.591 59.65C171.737 60.0378 170.884 60.4257 170.031 60.7359L169.566 60.9686C169.178 61.1238 168.712 61.2789 168.325 61.3565L167.859 61.5116C167.704 61.5892 167.549 61.5892 167.316 61.6668C165.455 62.2097 163.515 62.2097 161.654 61.5892C162.197 60.6584 162.662 59.65 163.05 58.6416C163.283 58.0211 163.36 57.4005 163.283 56.78C163.205 56.1595 162.972 55.5389 162.507 55.0735C161.576 54.2203 160.18 53.9876 159.016 54.6081C158.473 54.8408 157.93 55.3062 157.62 55.8492C157.387 56.0819 157.31 56.3922 157.155 56.7024C157.077 56.9351 157 57.2454 156.922 57.5557C156.612 58.7192 156.845 60.0378 157.543 61.0462C157.698 61.2789 157.853 61.5116 158.086 61.6668C158.241 61.8219 158.473 61.977 158.706 62.1322C159.172 62.4424 159.637 62.5976 160.102 62.7527C160.18 62.7527 160.257 62.7527 160.335 62.7527V62.8303C160.18 62.9854 160.102 63.2181 159.947 63.4508C159.637 63.9162 159.327 64.3816 159.016 64.9246L159.482 65.1573C159.87 64.6919 160.18 64.1489 160.49 63.6059C160.568 63.5284 160.568 63.4508 160.645 63.3732C160.723 63.2181 160.8 63.063 160.956 62.9078C161.731 62.9854 162.585 62.9854 163.36 62.9078C164.834 62.8303 166.308 62.52 167.704 62.1322L169.178 61.6668L169.876 61.4341L170.186 61.2789L170.574 61.1238C171.35 60.8135 172.048 60.5032 172.823 60.193C173.366 59.8827 173.909 59.5724 174.375 59.2622C174.452 59.1846 174.452 59.107 174.375 59.0295ZM160.8 61.1238C160.568 60.8911 160.335 60.6584 160.102 60.4257C160.025 60.3481 159.947 60.193 159.947 60.1154C159.87 59.9603 159.792 59.8827 159.792 59.7276C159.715 59.2622 159.715 58.7192 159.792 58.1762C159.87 58.0211 159.947 57.8659 159.947 57.7108C160.025 57.5557 160.025 57.4781 160.102 57.323C160.18 57.1678 160.257 57.0127 160.335 56.8576C160.645 56.5473 161.033 56.3922 161.421 56.4697C161.654 56.5473 161.886 56.78 161.964 57.0903C162.119 57.4781 162.197 57.9435 162.119 58.4089C161.964 59.4173 161.654 60.4257 161.111 61.2789C161.033 61.2013 160.956 61.2013 160.8 61.1238ZM156.612 67.8722C155.759 68.803 154.905 69.6562 153.897 70.4319C153.044 71.2851 151.958 71.9057 150.872 72.3711C150.406 72.5262 149.941 72.6038 149.476 72.5262C149.01 72.3711 148.622 72.0608 148.39 71.7505C147.924 70.7422 147.692 69.6562 147.769 68.5703C147.847 67.4068 148.002 66.1657 148.312 65.0022C148.855 62.5976 149.631 60.193 150.562 57.8659C150.639 57.4781 150.174 57.0127 149.398 56.7024C148.622 56.3922 147.847 56.4697 147.769 56.8576H147.692C147.149 58.7968 146.683 60.6584 146.295 62.6751C144.977 64.7695 143.58 66.7862 142.029 68.7254C141.176 69.7338 140.245 70.7422 139.237 71.5954C139.004 71.7505 138.771 71.9832 138.461 72.1384C138.383 72.2159 138.228 72.2935 138.073 72.3711C137.996 72.4486 137.996 72.4486 137.918 72.4486C137.84 72.5262 137.84 72.5262 137.763 72.5262C137.608 72.6038 137.453 72.6038 137.297 72.5262C137.142 72.5262 136.987 72.3711 136.987 72.2159C136.91 72.1384 136.91 71.9832 136.91 71.9057C136.832 71.673 136.832 71.5178 136.832 71.2851C136.832 70.8973 136.755 70.4319 136.832 70.0441C136.832 69.5786 136.832 69.1908 136.91 68.7254C136.91 68.26 136.987 67.8722 137.065 67.4068C137.297 65.6227 137.608 63.9162 137.996 62.1322C138.849 58.7192 140.012 55.3838 141.641 52.2811C141.874 51.8932 141.409 51.2727 140.71 50.8073C140.012 50.4195 139.237 50.4195 139.004 50.8849C137.453 54.3754 136.367 57.9435 135.746 61.6668C135.436 63.5284 135.203 65.39 135.126 67.1741C135.048 67.6395 135.048 68.1049 135.048 68.5703C134.97 69.1132 135.048 69.5786 135.048 70.0441C135.048 70.5095 135.126 70.9749 135.126 71.4403C135.126 71.7505 135.203 71.9832 135.281 72.2159C135.358 72.5262 135.513 72.9141 135.591 73.1468C135.824 73.6122 136.289 73.9224 136.755 74.0776C137.375 74.1551 137.996 74.0776 138.539 73.7673C138.616 73.6897 138.694 73.6897 138.849 73.6122C139.004 73.5346 139.159 73.3795 139.314 73.3019C139.547 73.0692 139.857 72.8365 140.09 72.6038C141.098 71.5954 142.029 70.5095 142.805 69.3459C143.968 67.7946 145.054 66.0881 145.985 64.3816C145.985 64.4592 145.985 64.5368 145.985 64.6143C145.752 65.933 145.675 67.2516 145.675 68.6478C145.675 70.1216 146.14 71.5954 146.993 72.8365C147.536 73.457 148.235 73.9224 149.088 74.0776C149.863 74.1551 150.717 74.0776 151.415 73.6897C152.656 73.1468 153.742 72.2935 154.673 71.3627C155.603 70.4319 156.457 69.4235 157.31 68.4151C158.086 67.3292 158.706 66.2432 159.482 65.1573L159.016 64.9246C158.241 65.8554 157.465 66.8638 156.612 67.8722ZM205.698 59.0295C205.621 58.9519 205.465 58.8743 205.465 58.8743C200.036 63.063 194.684 67.2516 188.711 70.3543C185.686 71.8281 182.583 72.9916 179.248 72.7589C177.696 72.6814 176.145 72.2935 174.749 71.5954C173.508 70.8197 172.654 69.5011 172.422 68.1049C172.189 66.5535 172.344 64.9246 172.732 63.4508C173.197 61.8995 173.895 60.5032 174.904 59.1846C175.835 57.9435 176.921 56.78 178.239 55.8492C179.403 54.9184 180.877 54.2203 182.35 53.91C182.971 53.7549 183.669 53.7549 184.367 53.91C184.677 53.9876 184.91 54.0651 185.143 54.2203C185.298 54.2978 185.453 54.453 185.531 54.6081C185.686 55.1511 185.686 55.6941 185.531 56.237C185.298 56.8576 184.988 57.4005 184.522 57.7884C183.436 58.8743 182.118 59.7276 180.721 60.2705C179.48 60.8911 178.007 61.1238 176.61 60.9686H176.533H176.455C175.679 60.8911 174.904 61.2789 174.594 62.0546C174.283 62.7527 174.904 63.7611 176.067 63.9162H176.222C178.162 64.1489 180.178 63.7611 181.962 62.9078C182.738 62.4424 183.591 62.0546 184.289 61.5116C185.143 60.9686 185.841 60.3481 186.539 59.65C187.237 58.8743 187.78 57.9435 188.09 56.8576C188.401 55.7716 188.323 54.5305 187.78 53.5222C187.47 52.9016 187.004 52.4362 186.461 52.0484C185.996 51.8157 185.453 51.583 184.832 51.5054C183.824 51.2727 182.816 51.3503 181.807 51.583C180.023 52.0484 178.317 52.9016 176.843 54.0651C175.447 55.1511 174.206 56.4697 173.197 58.0211C171.025 60.9686 170.095 64.7695 170.715 68.4151C170.87 69.3459 171.258 70.2768 171.801 71.0524C172.344 71.8281 173.042 72.5262 173.973 72.9916C175.602 73.8449 177.386 74.2327 179.248 74.1551C180.101 74.2327 181.032 74.1551 181.885 74.0776L183.204 73.8449L184.445 73.457C186.151 72.9141 187.702 72.2159 189.254 71.3627C195.304 68.0273 200.501 63.6059 205.776 59.3397C205.853 59.2622 205.776 59.1846 205.698 59.0295ZM237.21 59.0295C237.132 58.9519 236.977 58.8743 236.977 58.8743C231.548 63.063 226.195 67.2516 220.223 70.3543C217.198 71.8281 214.095 72.9916 210.759 72.7589C209.208 72.6814 207.657 72.2935 206.261 71.5954C205.019 70.8197 204.166 69.5011 203.933 68.1049C203.701 66.5535 203.856 64.9246 204.244 63.4508C204.709 61.8995 205.407 60.5032 206.416 59.1846C207.346 57.9435 208.432 56.78 209.751 55.8492C210.915 54.9184 212.388 54.2203 213.862 53.91C214.483 53.7549 215.181 53.7549 215.879 53.91C216.189 53.9876 216.422 54.0651 216.655 54.2203C216.81 54.2978 216.965 54.453 217.042 54.6081C217.198 55.1511 217.198 55.6941 217.042 56.237C216.81 56.8576 216.499 57.4005 216.034 57.7884C214.948 58.8743 213.629 59.7276 212.233 60.2705C210.992 60.8911 209.518 61.1238 208.122 60.9686H208.045H207.967C207.191 60.8911 206.416 61.2789 206.105 62.0546C205.795 62.7527 206.416 63.7611 207.579 63.9162H207.734C209.673 64.1489 211.69 63.7611 213.474 62.9078C214.25 62.4424 215.103 62.0546 215.801 61.5116C216.655 60.9686 217.353 60.3481 218.051 59.65C218.749 58.8743 219.292 57.9435 219.602 56.8576C219.912 55.7716 219.835 54.5305 219.292 53.5222C218.982 52.9016 218.516 52.4362 217.973 52.0484C217.508 51.8157 216.965 51.583 216.344 51.5054C215.336 51.2727 214.328 51.3503 213.319 51.583C211.535 52.0484 209.829 52.9016 208.355 54.0651C206.959 55.1511 205.718 56.4697 204.709 58.0211C202.537 60.9686 201.606 64.7695 202.227 68.4151C202.382 69.3459 202.77 70.2768 203.313 71.0524C203.856 71.8281 204.554 72.5262 205.485 72.9916C207.114 73.8449 208.898 74.2327 210.759 74.1551C211.613 74.2327 212.543 74.1551 213.397 74.0776L214.715 73.8449L215.956 73.457C217.663 72.9141 219.214 72.2159 220.766 71.3627C226.816 68.0273 232.013 63.6059 237.288 59.3397C237.365 59.2622 237.288 59.1846 237.21 59.0295ZM269.73 32.8892C269.73 32.7341 269.575 32.6565 269.42 32.6565L267.015 32.9668L263.059 33.4322C260.034 33.7424 256.233 34.1303 252.433 34.363C250.493 34.4405 248.477 34.5181 246.537 34.5957C247.313 32.5789 248.166 30.6397 249.097 28.7005C249.95 27.0716 250.804 25.4427 251.734 23.8913C252.2 23.1157 252.743 22.4176 253.286 21.7195C253.751 21.0989 254.372 20.5559 254.992 20.0905L255.07 20.013C255.38 19.7803 255.535 19.5476 255.69 19.2373C255.846 18.8495 256.001 18.5392 256.001 18.1513C256.001 17.6859 255.69 17.2981 255.225 17.143C254.605 16.9878 253.906 17.143 253.441 17.5308H253.363L253.286 17.6084C252.355 18.2289 251.657 19.0046 250.959 19.9354C250.416 20.7111 249.795 21.5643 249.33 22.4176C248.322 24.0465 247.468 25.753 246.693 27.537C245.607 29.8641 244.676 32.1911 243.823 34.5957C243.047 34.5957 242.271 34.5957 241.573 34.5957C240.177 34.5181 238.936 34.4405 237.85 34.363C237.927 34.363 238.005 34.2854 238.083 34.2854C238.16 34.2854 238.238 34.2078 238.238 34.2078C238.315 34.1303 238.393 34.0527 238.315 33.9751V33.8976C238.238 33.7424 238.083 33.6649 237.927 33.7424C236.764 33.7424 235.678 33.5097 234.592 33.1219C233.972 32.8892 233.351 32.8116 232.653 32.7341C232.11 32.6565 231.644 32.7341 231.179 32.9668C230.636 33.1995 230.248 33.5873 229.938 34.1303C229.86 34.2854 229.86 34.4405 229.86 34.5957C229.86 34.5957 229.86 34.6732 229.783 34.6732C229.628 35.2162 230.326 35.7592 231.024 36.147C231.955 36.6124 232.963 36.8451 233.972 36.9227C236.531 37.0778 239.013 37.1554 241.573 37.0003C242.039 37.0003 242.504 37.0003 242.969 37.0003C242.814 37.3881 242.659 37.7759 242.504 38.1638C241.263 41.7319 240.177 45.3 239.091 48.9457C237.927 52.5138 237.074 56.237 236.454 59.9603C236.143 61.8995 236.066 63.8386 236.143 65.7778C236.143 67.7946 236.764 69.8114 237.927 71.5178C238.548 72.3711 239.401 72.9916 240.332 73.457C241.34 73.8449 242.349 74.0776 243.357 74.0776C245.296 74.0776 247.236 73.7673 249.097 73.1468C252.743 71.8281 256.001 69.8114 258.793 67.0965C261.508 64.4592 263.757 61.3565 265.464 58.0211L264.999 57.7108C263.215 61.0462 260.965 63.9938 258.173 66.4759C255.458 68.9581 252.277 70.8973 248.709 72.0608C247.003 72.6038 245.219 72.8365 243.435 72.7589C241.728 72.7589 240.099 71.9832 239.091 70.6646C238.16 69.1132 237.695 67.4068 237.772 65.7003C237.695 63.8386 237.85 62.0546 238.238 60.2705C238.858 56.6249 239.867 53.0568 241.03 49.5662C242.271 45.9981 243.435 42.43 244.831 38.9395C245.064 38.2413 245.374 37.4657 245.607 36.7676C247.934 36.6124 250.416 36.3022 252.898 35.9919C256.776 35.5265 260.577 34.9059 263.602 34.363L267.558 33.6649L268.877 33.3546L269.42 33.277L269.575 33.1995H269.653C269.73 33.1995 269.808 33.0443 269.808 32.9668L269.73 32.8892ZM286.826 59.0295C286.593 58.7192 286.128 58.5641 285.74 58.7968H285.662V58.8743C285.275 59.107 284.499 59.8051 283.335 60.6584C282.715 61.0462 281.939 61.4341 281.164 61.8995L280.543 62.2873L279.922 62.52C279.457 62.7527 278.992 62.9078 278.526 63.1405C278.216 63.2957 277.828 63.3732 277.44 63.5284L275.268 64.1489C273.174 64.6143 271.002 64.847 268.83 64.847C268.753 64.847 268.598 64.847 268.442 64.847C268.132 64.1489 267.822 63.3732 267.512 62.5976C266.891 60.9686 266.503 59.2622 266.348 57.5557C266.271 56.78 266.348 55.9268 266.503 55.1511C266.581 54.6081 266.891 54.1427 267.434 53.8324C267.899 53.5997 268.52 53.5222 269.063 53.5997C269.606 53.6773 270.226 53.91 270.692 54.1427C271.39 54.453 271.933 54.9959 272.321 55.6941C272.398 55.8492 272.476 56.0819 272.476 56.3146C272.476 56.5473 272.631 56.7024 272.709 56.8576C273.019 57.1678 273.329 57.4781 273.795 57.6332C274.26 57.7884 274.803 57.6332 275.113 57.1678C275.346 56.8576 275.424 56.4697 275.424 56.0819V56.0043V55.8492C275.346 55.6941 275.346 55.4613 275.268 55.1511C275.113 54.7632 274.881 54.3754 274.648 53.9876C273.95 52.9792 272.941 52.2035 271.778 51.8157C270.304 51.1176 268.598 51.04 267.046 51.583C266.814 51.6605 266.581 51.7381 266.348 51.8932C266.193 52.0484 265.96 52.2035 265.728 52.3586C265.572 52.5913 265.34 52.7465 265.185 52.9792C265.107 53.2119 264.952 53.4446 264.874 53.6773C264.564 54.5305 264.409 55.4613 264.486 56.3922C264.564 58.1762 264.952 59.8827 265.65 61.5116C266.038 62.5976 266.581 63.6835 267.124 64.7695C265.65 64.6143 264.254 64.3041 262.858 63.8386C262.004 63.5284 261.151 63.1405 260.375 62.7527H260.298C260.298 62.6751 260.22 62.6751 260.22 62.6751C259.988 62.52 259.677 62.4424 259.445 62.4424C258.902 62.4424 258.436 62.6751 258.204 63.1405C258.048 63.3732 257.971 63.7611 257.971 64.0714L258.048 64.1489V64.2265C258.514 66.0105 259.445 67.717 260.763 69.0357C261.772 70.1216 262.935 71.0524 264.099 71.8281C264.797 72.2935 265.495 72.6814 266.271 72.9916C267.046 73.457 267.899 73.6897 268.83 73.7673H269.141C269.296 73.7673 269.451 73.7673 269.606 73.6897C269.916 73.6122 270.149 73.457 270.304 73.2243C270.459 72.9916 270.614 72.6814 270.692 72.3711C270.769 71.8281 270.769 71.3627 270.692 70.8973C270.537 69.5786 270.149 68.26 269.606 67.0965C269.373 66.6311 269.141 66.1657 268.908 65.7003C269.141 65.6227 269.373 65.6227 269.684 65.6227L270.459 65.5451L271.235 65.39L272.786 65.1573L274.182 64.847C275.113 64.6143 275.966 64.3816 276.742 64.0714L277.828 63.6835L278.604 63.3732C278.836 63.2957 279.535 63.063 280.31 62.8303C281.086 62.52 282.017 62.1322 282.948 61.7443C283.878 61.3565 284.732 60.9686 285.43 60.6584L286.516 60.1154C286.671 60.0378 287.214 59.5724 286.826 59.0295ZM269.684 69.8114C270.149 70.9749 270.304 72.2159 269.839 72.8365C269.761 73.0692 269.528 73.1468 269.296 73.2243C269.141 73.2243 268.985 73.2243 268.83 73.2243C267.899 73.0692 267.046 72.6814 266.271 72.1384C265.029 71.2851 263.866 70.1992 263.013 68.9581C262.159 67.8722 261.539 66.7086 261.229 65.39C261.151 65.1573 261.074 64.847 261.074 64.6143C261.461 64.7695 261.927 64.9246 262.392 65.0797C264.099 65.4676 265.883 65.7003 267.667 65.7003C267.744 65.7778 267.744 65.8554 267.822 65.933C268.598 67.1741 269.218 68.4151 269.684 69.8114Z" fill="#E9D6D6"/>
<path d="M260.941 130.331C256.752 130.952 252.796 132.503 249.384 134.908C249.616 133.124 249.771 131.34 249.771 129.478V129.401C249.616 128.702 248.996 128.237 248.22 128.315C247.522 128.237 246.901 128.78 246.746 129.478V129.556C246.746 129.788 246.746 130.099 246.746 130.331C245.893 131.262 244.962 132.038 243.954 132.814C242.868 133.744 241.704 134.52 240.463 135.296C239.222 136.149 237.826 136.769 236.352 137.235C235.732 137.468 235.034 137.545 234.335 137.545C234.103 137.468 233.792 137.39 233.56 137.235C233.405 137.157 233.249 137.002 233.094 136.769C232.862 136.304 232.784 135.761 232.784 135.218C232.862 134.598 233.017 133.977 233.172 133.356C233.792 131.495 234.723 129.788 235.887 128.237C236.352 127.616 236.74 126.996 236.973 126.298C237.283 125.677 237.516 124.902 237.128 124.514C236.74 124.048 236.042 124.204 235.344 124.591C234.646 125.134 233.948 125.755 233.482 126.531C232.319 128.392 231.388 130.486 230.845 132.658C230.612 133.512 230.535 134.365 230.535 135.141C230.535 136.226 230.845 137.235 231.465 138.088C232.164 138.941 233.249 139.484 234.335 139.407C235.344 139.407 236.275 139.174 237.128 138.786C238.679 138.166 240.153 137.235 241.472 136.226C242.635 135.296 243.799 134.365 244.885 133.356C245.583 132.658 246.281 131.96 246.824 131.417C246.824 132.891 246.746 134.442 246.514 135.916C246.436 136.382 246.358 136.847 246.281 137.312C245.272 138.166 244.342 139.019 243.411 139.95C242.092 141.268 240.851 142.665 239.688 144.216C238.291 145.922 236.973 147.784 235.887 149.723C234.723 151.662 233.948 153.834 233.405 156.084C233.327 156.627 233.249 157.247 233.249 157.868C233.327 158.488 233.482 159.186 233.792 159.729C234.103 160.428 234.723 160.893 235.421 161.048C236.197 161.203 236.895 161.126 237.593 160.738C238.602 160.117 239.532 159.264 240.231 158.256C240.929 157.402 241.549 156.472 242.17 155.463C243.333 153.524 244.342 151.43 245.195 149.335C246.048 147.241 246.746 145.147 247.444 142.975C247.755 141.889 248.065 140.803 248.375 139.717C248.608 138.631 248.918 137.623 249.151 136.382C249.228 136.304 249.228 136.226 249.228 136.071C249.306 136.071 249.384 135.994 249.384 135.994C252.874 133.667 256.908 132.193 261.096 131.805C261.406 131.805 261.639 131.417 261.562 131.029C261.562 130.642 261.251 130.331 260.941 130.331ZM245.893 139.096C245.66 140.182 245.428 141.268 245.117 142.354C244.109 146.543 242.635 150.654 240.618 154.61C240.153 155.541 239.532 156.394 238.912 157.325C238.369 158.178 237.671 158.876 236.818 159.497C236.507 159.729 236.197 159.807 235.809 159.729C235.421 159.652 235.111 159.419 234.878 159.109C234.491 158.178 234.413 157.17 234.568 156.239C234.956 154.145 235.654 152.05 236.662 150.111C237.671 148.172 238.834 146.31 240.153 144.526C241.239 143.052 242.48 141.656 243.799 140.415C244.497 139.717 245.272 139.019 246.048 138.398C245.971 138.631 245.893 138.864 245.893 139.096ZM286.484 130.874C285.243 132.193 283.77 133.279 282.218 134.21C279.969 135.451 277.564 136.304 275.004 136.692C273.453 136.847 271.824 136.847 270.273 136.459C271.126 134.753 271.824 133.046 272.29 131.185C272.6 130.176 272.677 129.168 272.677 128.159C272.755 127.151 272.367 126.143 271.669 125.367C271.281 124.979 270.738 124.746 270.273 124.591H270.195C270.273 123.738 269.963 123.118 269.42 123.118H269.342C267.713 123.35 266.162 124.048 264.921 125.134C263.757 126.065 262.671 127.151 261.818 128.392C260.111 130.719 258.793 133.356 257.94 136.149C257.552 137.468 257.241 138.941 257.164 140.415C257.086 141.113 257.086 141.889 257.241 142.587C257.397 143.44 257.707 144.138 258.172 144.759C258.715 145.457 259.569 145.845 260.344 145.845C261.12 145.922 261.896 145.845 262.594 145.535C263.912 144.992 265.153 144.061 266.084 142.975C267.325 141.656 268.411 140.105 269.342 138.476C269.342 138.321 269.42 138.243 269.497 138.166H269.575C271.514 138.243 273.376 138.088 275.16 137.545C277.719 136.925 280.201 135.994 282.451 134.675C284.08 133.744 285.554 132.581 286.872 131.185L286.484 130.874ZM268.799 138.166C267.946 139.795 266.937 141.268 265.696 142.587C264.766 143.595 263.602 144.294 262.361 144.759C261.12 145.069 259.724 144.992 259.103 144.061C258.483 142.975 258.327 141.734 258.56 140.493C258.793 139.174 259.103 137.933 259.646 136.692C260.577 134.21 261.973 131.883 263.68 129.866C263.757 129.788 263.757 129.711 263.835 129.711C263.757 129.944 263.68 130.254 263.602 130.564C263.137 132.503 263.602 134.598 264.921 136.149C265.541 136.769 266.317 137.312 267.17 137.623C267.713 137.855 268.334 137.933 268.877 138.088C268.877 138.088 268.877 138.166 268.799 138.166ZM268.101 135.606C267.713 135.296 267.248 134.908 267.015 134.52C266.705 134.055 266.55 133.589 266.472 133.046C266.394 132.426 266.472 131.805 266.627 131.107C266.782 129.866 267.325 128.625 268.101 127.616C268.411 127.229 268.799 126.918 269.264 126.686C269.652 126.453 270.118 126.453 270.506 126.686C270.971 127.074 271.281 127.694 271.359 128.315C271.514 129.168 271.514 130.099 271.359 131.029C271.049 132.891 270.506 134.675 269.73 136.304C269.187 136.149 268.644 135.916 268.101 135.606ZM320.631 130.719H320.554C320.476 130.642 320.321 130.642 320.166 130.797C319.157 132.581 317.839 134.21 316.287 135.606C313.805 137.933 310.703 139.407 307.29 139.795C306.902 139.872 306.436 139.872 305.971 139.872C305.583 139.795 305.118 139.795 304.73 139.717C304.342 139.639 303.954 139.484 303.566 139.407L303.101 139.096L302.946 139.019L302.791 138.941L302.558 138.786C301.317 138.011 300.541 136.692 300.386 135.296C300.308 134.055 300.464 132.736 300.774 131.495C301.007 130.642 301.317 129.788 301.705 128.935C302.015 128.159 302.325 127.306 302.48 126.453C302.635 125.6 302.713 124.669 302.248 124.359C301.782 124.048 301.084 124.514 300.464 125.134C299.843 125.91 299.3 126.841 298.99 127.772C298.68 128.78 298.369 129.788 298.137 130.797C298.059 131.107 297.981 131.495 297.981 131.883C296.973 133.589 295.965 135.218 294.879 136.769C293.715 138.476 292.552 140.105 291.233 141.579C290.535 142.354 289.837 143.052 289.139 143.673C288.363 144.216 287.51 144.681 286.967 144.604C286.734 144.526 286.424 144.371 286.269 144.138C286.191 143.983 286.114 143.828 286.036 143.673C285.958 143.518 285.881 143.285 285.881 143.13C285.726 142.199 285.648 141.268 285.726 140.338C285.881 138.398 286.191 136.382 286.734 134.52C287.2 132.581 287.742 130.642 288.363 128.702C288.984 126.841 289.759 124.979 290.535 123.195L290.612 123.118C290.768 122.652 290.38 122.032 289.682 121.566C289.449 121.334 289.061 121.256 288.751 121.256C288.363 121.334 288.053 121.566 287.82 121.876V121.954C287.044 123.893 286.346 125.91 285.803 127.927C285.26 129.944 284.717 131.96 284.33 133.977C283.942 136.071 283.709 138.166 283.631 140.26C283.631 141.424 283.709 142.509 284.019 143.595C284.097 143.906 284.174 144.216 284.33 144.449C284.485 144.759 284.64 145.069 284.872 145.302C285.105 145.612 285.415 145.845 285.726 146C286.036 146.155 286.424 146.31 286.734 146.31C287.122 146.388 287.51 146.31 287.82 146.233L288.285 146.078L288.751 145.922C289.216 145.612 289.682 145.302 290.147 144.914C290.923 144.138 291.621 143.363 292.319 142.587C293.56 140.881 294.801 139.174 295.81 137.39C296.508 136.304 297.206 135.141 297.826 133.977C297.826 134.52 297.904 135.063 297.981 135.606C298.137 136.614 298.524 137.623 299.145 138.476C299.765 139.407 300.541 140.105 301.55 140.648C301.782 140.725 302.015 140.881 302.17 140.958C302.48 141.113 302.713 141.191 303.023 141.268L303.799 141.501L304.575 141.579C305.661 141.734 306.747 141.656 307.755 141.501C309.694 141.113 311.556 140.415 313.262 139.329C314.736 138.476 316.132 137.312 317.296 136.071C317.839 135.451 318.227 134.83 318.692 134.365L319.7 132.814C320.011 132.348 320.166 131.96 320.398 131.65L320.631 131.185L320.709 131.029V130.952C320.786 130.874 320.709 130.797 320.631 130.719ZM374.205 131.029C374.128 130.952 374.05 130.874 373.973 130.874C369.164 134.598 364.354 138.321 359.157 141.268C357.839 142.044 356.52 142.665 355.124 143.285C353.805 143.828 352.409 144.294 350.935 144.526C350.237 144.604 349.539 144.681 348.841 144.681C348.065 144.681 347.367 144.681 346.591 144.526C345.273 144.449 343.954 143.983 342.791 143.208C340.696 141.656 340.541 138.476 341.239 135.839C341.627 134.442 342.17 133.201 342.946 131.96C343.721 130.797 344.652 129.711 345.738 128.78C346.747 127.849 347.91 127.151 349.151 126.531C349.461 126.375 349.772 126.298 350.082 126.22C350.392 126.065 350.703 125.988 351.013 125.988C351.323 125.91 351.633 125.91 351.944 125.91C352.254 125.91 352.487 125.91 352.797 125.988C353.262 126.065 353.573 126.22 353.883 126.531C353.96 126.686 354.038 126.841 354.038 127.074C354.038 127.306 354.038 127.539 354.038 127.772C353.728 128.858 353.107 129.866 352.099 130.564L352.021 130.642C351.556 131.107 351.401 131.883 351.711 132.581C351.866 132.969 352.254 133.279 352.719 133.356C353.185 133.434 353.573 133.279 353.96 132.969L354.038 132.891C354.736 132.271 355.357 131.572 355.822 130.874C356.055 130.486 356.287 130.021 356.52 129.556C356.675 129.09 356.753 128.625 356.83 128.159C356.908 127.616 356.908 127.074 356.83 126.531C356.675 125.988 356.443 125.445 356.132 124.979C355.434 124.048 354.426 123.505 353.34 123.35C352.874 123.273 352.409 123.195 351.944 123.273C351.478 123.273 351.013 123.273 350.547 123.428C350.16 123.505 349.694 123.583 349.306 123.738C348.918 123.893 348.531 124.048 348.143 124.204C346.669 124.979 345.273 125.91 344.109 127.074C342.946 128.159 341.86 129.401 341.007 130.797C340.231 132.193 339.61 133.744 339.223 135.373C338.835 136.925 338.835 138.631 339.067 140.26C339.378 141.966 340.308 143.595 341.782 144.604C343.178 145.535 344.807 146.078 346.436 146.155C347.212 146.233 347.988 146.233 348.841 146.233C349.617 146.233 350.392 146.155 351.168 145.922C352.719 145.612 354.193 145.147 355.667 144.449C357.063 143.828 358.382 143.13 359.7 142.277C364.975 139.096 369.629 135.141 374.283 131.34C374.361 131.262 374.283 131.185 374.205 131.029ZM419.214 131.029C419.059 130.952 418.904 130.952 418.904 130.952C417.663 132.736 416.267 134.365 414.715 135.839C413.164 137.39 411.535 138.786 409.751 140.027C408.044 141.268 406.183 142.277 404.166 143.052C403.235 143.44 402.227 143.751 401.218 143.983L399.667 144.294L398.891 144.371L398.116 144.449H396.564C396.021 144.449 395.478 144.449 395.013 144.371C394.005 144.294 392.996 144.138 391.988 143.751C390.204 143.285 388.73 141.966 388.032 140.182C387.411 138.321 387.334 136.382 387.722 134.442C388.032 133.046 388.342 131.65 388.808 130.254C388.885 130.099 388.963 130.021 388.963 130.021V129.944C389.04 129.788 389.04 129.633 389.04 129.478C389.195 129.09 389.273 128.78 389.428 128.392V128.315C389.583 127.616 389.118 126.918 388.42 126.763C387.954 126.608 387.411 126.608 386.946 126.918C386.946 126.686 386.791 126.453 386.713 126.298C386.558 126.065 386.481 125.91 386.325 125.677C386.093 125.367 385.86 125.212 385.627 124.979C384.386 123.971 382.68 123.583 381.128 123.816C379.189 124.204 377.405 125.212 376.087 126.531C374.613 128.082 373.449 129.788 372.518 131.65C371.588 133.512 370.734 135.528 370.191 137.545C369.881 138.554 369.648 139.639 369.648 140.648C369.493 141.734 369.726 142.82 370.114 143.751C370.579 144.759 371.432 145.379 372.518 145.69C372.674 145.69 372.984 145.767 373.217 145.767H373.527C373.682 145.767 373.759 145.767 373.837 145.69C374.07 145.69 374.302 145.69 374.535 145.612L375.078 145.379C376.319 144.914 377.483 144.216 378.569 143.363L379.577 142.509C380.042 142.122 380.585 141.579 381.206 141.036C382.602 139.639 383.843 138.166 384.929 136.614C384.929 138.166 385.239 139.717 385.782 141.113C386.325 142.277 387.101 143.363 388.109 144.138C389.118 144.914 390.204 145.457 391.367 145.767C392.531 146.078 393.694 146.233 394.858 146.31C395.401 146.31 395.944 146.31 396.564 146.31L398.271 146.155L399.124 146.078L399.9 145.922L401.606 145.535C402.692 145.224 403.701 144.836 404.787 144.371C406.803 143.44 408.665 142.354 410.449 140.958C412.233 139.562 413.862 138.088 415.336 136.459C416.809 134.83 418.128 133.124 419.369 131.262C419.369 131.185 419.292 131.107 419.214 131.029ZM385.55 130.952C385.239 131.883 384.774 133.046 384.231 134.365C383.611 135.839 382.835 137.312 381.982 138.631C380.973 140.26 379.655 141.734 378.181 142.975C377.638 143.363 377.017 143.828 376.397 144.138C375.776 144.449 375.233 144.681 374.535 144.836C373.837 145.069 373.061 144.992 372.363 144.759C371.588 144.371 371.045 143.673 370.889 142.897C370.657 141.889 370.657 140.958 370.889 139.95C371.432 137.855 372.208 135.761 373.294 133.899C374.225 131.96 375.544 130.176 377.017 128.702C378.181 127.461 379.732 126.686 381.361 126.375C382.292 126.22 383.223 126.531 383.843 127.229C383.998 127.461 384.154 127.694 384.154 127.927V128.004C384.231 128.004 384.231 128.082 384.231 128.159C384.309 128.237 384.386 128.315 384.464 128.47C384.697 128.858 385.084 129.168 385.55 129.323C385.705 129.401 385.86 129.401 386.015 129.401C385.86 129.788 385.705 130.331 385.55 130.952ZM444.812 131.029C444.734 130.952 444.657 130.952 444.579 131.029C444.502 131.107 444.424 131.185 444.347 131.34C443.338 133.046 442.175 134.675 440.778 136.071C439.072 137.778 437.21 139.252 435.116 140.338C434.108 140.881 433.022 141.191 431.858 141.268C431.393 141.346 430.927 141.113 430.617 140.803C430.229 140.493 430.074 140.027 429.997 139.484C429.919 138.398 430.074 137.312 430.462 136.226C430.772 135.141 431.238 133.977 431.625 132.891C432.091 131.805 432.556 130.642 433.022 129.478C433.177 128.935 433.41 128.315 433.487 127.694C433.72 126.996 433.72 126.22 433.565 125.522C433.332 124.514 432.556 123.816 431.625 123.661C430.85 123.583 430.074 123.738 429.376 124.048C428.135 124.514 426.971 125.212 426.041 126.065C424.101 127.694 422.395 129.556 420.921 131.572C420.766 131.805 420.611 132.038 420.378 132.271C420.999 130.719 421.387 129.401 421.619 128.702C421.774 128.159 421.774 127.616 421.619 127.151C421.542 126.608 421.154 126.143 420.688 126.065C420.145 125.988 419.68 126.143 419.37 126.608C419.06 126.996 418.827 127.461 418.749 127.927C418.206 130.952 417.586 133.899 416.733 136.769C416.5 137.545 416.267 138.321 416.112 139.096C415.181 140.725 414.25 142.432 413.397 144.138V144.216C413.164 144.914 413.475 145.612 414.095 145.922C414.095 145.922 414.095 145.922 414.173 145.922H414.25C414.871 146.31 415.724 146.078 416.112 145.457V145.379C417.974 141.036 420.223 136.847 422.86 132.969C424.179 131.029 425.653 129.245 427.359 127.616C428.135 126.918 429.066 126.298 430.074 125.832C430.462 125.6 430.85 125.522 431.315 125.522C431.393 125.522 431.548 125.6 431.625 125.677C431.781 125.677 431.781 125.832 431.858 125.988C431.936 126.375 431.936 126.918 431.858 127.384C431.781 127.927 431.625 128.47 431.47 129.013C431.083 130.099 430.695 131.262 430.307 132.348C429.841 133.512 429.454 134.675 429.143 135.839C428.755 137.08 428.678 138.398 428.833 139.717C428.988 140.415 429.298 141.113 429.841 141.579C430.384 142.122 431.083 142.354 431.858 142.277C433.177 142.122 434.34 141.734 435.504 141.113C437.598 139.872 439.537 138.321 441.166 136.459C442.563 134.985 443.804 133.356 444.812 131.572C444.89 131.495 444.89 131.34 444.967 131.262C444.967 131.185 444.89 131.107 444.812 131.029ZM498.509 131.029C498.431 130.952 498.276 130.874 498.276 130.874C492.846 135.063 487.494 139.252 481.521 142.354C478.496 143.828 475.394 144.992 472.058 144.759C470.507 144.681 468.955 144.294 467.559 143.595C466.318 142.82 465.465 141.501 465.232 140.105C465 138.554 465.155 136.925 465.543 135.451C466.008 133.899 466.706 132.503 467.714 131.185C468.645 129.944 469.731 128.78 471.05 127.849C472.213 126.918 473.687 126.22 475.161 125.91C475.781 125.755 476.48 125.755 477.178 125.91C477.488 125.988 477.721 126.065 477.953 126.22C478.108 126.298 478.264 126.453 478.341 126.608C478.496 127.151 478.496 127.694 478.341 128.237C478.108 128.858 477.798 129.401 477.333 129.788C476.247 130.874 474.928 131.728 473.532 132.271C472.291 132.891 470.817 133.124 469.421 132.969H469.343H469.266C468.49 132.891 467.714 133.279 467.404 134.055C467.094 134.753 467.714 135.761 468.878 135.916H469.033C470.972 136.149 472.989 135.761 474.773 134.908C475.549 134.442 476.402 134.055 477.1 133.512C477.953 132.969 478.651 132.348 479.35 131.65C480.048 130.874 480.591 129.944 480.901 128.858C481.211 127.772 481.134 126.531 480.591 125.522C480.28 124.902 479.815 124.436 479.272 124.048C478.807 123.816 478.264 123.583 477.643 123.505C476.635 123.273 475.626 123.35 474.618 123.583C472.834 124.048 471.127 124.902 469.654 126.065C468.257 127.151 467.016 128.47 466.008 130.021C463.836 132.969 462.905 136.769 463.526 140.415C463.681 141.346 464.069 142.277 464.612 143.052C465.155 143.828 465.853 144.526 466.784 144.992C468.413 145.845 470.197 146.233 472.058 146.155C472.911 146.233 473.842 146.155 474.695 146.078L476.014 145.845L477.255 145.457C478.962 144.914 480.513 144.216 482.064 143.363C488.115 140.027 493.312 135.606 498.586 131.34C498.664 131.262 498.586 131.185 498.509 131.029ZM523.272 130.719H521.954H520.014C518.153 130.642 516.369 130.797 514.507 130.952C513.421 131.107 512.258 131.34 511.172 131.728C510.008 132.193 508.922 132.814 507.914 133.589C506.905 134.442 506.052 135.451 505.277 136.537C504.578 137.623 503.88 138.709 503.182 139.795C502.407 140.803 501.708 141.889 500.933 142.897C500.778 143.13 500.545 143.363 500.39 143.595C500.235 143.751 500.079 143.983 499.847 144.138C499.847 144.216 499.769 144.216 499.614 144.216C499.537 144.216 499.459 144.216 499.381 144.138C499.304 144.061 499.304 143.983 499.226 143.906C499.149 143.673 499.071 143.44 499.071 143.208C498.916 142.742 498.838 142.199 498.761 141.579C498.683 140.493 498.683 139.407 498.683 138.321C498.838 135.141 499.381 131.96 500.235 128.858C500.622 127.694 500.933 126.453 501.165 125.367C501.398 124.281 501.708 123.195 501.243 122.807C500.7 122.497 499.847 123.195 499.149 124.126C498.373 125.289 497.83 126.608 497.442 127.927C496.667 131.262 496.201 134.753 496.279 138.243C496.279 139.484 496.356 140.725 496.511 141.889C496.589 142.587 496.744 143.285 496.977 143.906C496.977 144.061 497.054 144.294 497.132 144.449L497.287 144.681C497.287 144.836 497.365 144.914 497.442 145.069C497.52 145.302 497.675 145.535 497.908 145.69C497.985 145.767 498.063 145.922 498.14 146L498.451 146.233C498.916 146.465 499.459 146.543 499.924 146.388C500.467 146.233 500.933 145.922 501.243 145.535C501.553 145.302 501.786 144.992 502.019 144.681C502.251 144.371 502.407 144.138 502.639 143.828C503.337 142.742 504.035 141.579 504.734 140.415C505.432 139.329 506.13 138.088 506.828 137.08C507.448 136.071 508.224 135.141 509.155 134.365C510.939 132.969 513.033 132.115 515.205 131.883C516.989 131.65 518.773 131.495 520.557 131.417L522.419 131.34H523.117H523.272H523.35C523.427 131.34 523.505 131.185 523.505 131.107V131.029C523.505 130.874 523.427 130.719 523.272 130.719ZM554.791 131.029C554.713 130.952 554.558 130.874 554.558 130.874C549.128 135.063 543.776 139.252 537.803 142.354C534.778 143.828 531.676 144.992 528.34 144.759C526.789 144.681 525.237 144.294 523.841 143.595C522.6 142.82 521.747 141.501 521.514 140.105C521.281 138.554 521.437 136.925 521.824 135.451C522.29 133.899 522.988 132.503 523.996 131.185C524.927 129.944 526.013 128.78 527.332 127.849C528.495 126.918 529.969 126.22 531.443 125.91C532.063 125.755 532.761 125.755 533.46 125.91C533.77 125.988 534.003 126.065 534.235 126.22C534.39 126.298 534.546 126.453 534.623 126.608C534.778 127.151 534.778 127.694 534.623 128.237C534.39 128.858 534.08 129.401 533.615 129.788C532.529 130.874 531.21 131.728 529.814 132.271C528.573 132.891 527.099 133.124 525.703 132.969H525.625H525.548C524.772 132.891 523.996 133.279 523.686 134.055C523.376 134.753 523.996 135.761 525.16 135.916H525.315C527.254 136.149 529.271 135.761 531.055 134.908C531.831 134.442 532.684 134.055 533.382 133.512C534.235 132.969 534.933 132.348 535.631 131.65C536.33 130.874 536.873 129.944 537.183 128.858C537.493 127.772 537.416 126.531 536.873 125.522C536.562 124.902 536.097 124.436 535.554 124.048C535.089 123.816 534.546 123.583 533.925 123.505C532.917 123.273 531.908 123.35 530.9 123.583C529.116 124.048 527.409 124.902 525.936 126.065C524.539 127.151 523.298 128.47 522.29 130.021C520.118 132.969 519.187 136.769 519.808 140.415C519.963 141.346 520.351 142.277 520.894 143.052C521.437 143.828 522.135 144.526 523.066 144.992C524.694 145.845 526.479 146.233 528.34 146.155C529.193 146.233 530.124 146.155 530.977 146.078L532.296 145.845L533.537 145.457C535.244 144.914 536.795 144.216 538.346 143.363C544.397 140.027 549.594 135.606 554.868 131.34C554.946 131.262 554.868 131.185 554.791 131.029ZM589.017 131.107L588.94 131.029C588.94 130.952 588.785 130.874 588.707 130.952L587.621 131.495C587.311 131.65 587.078 131.728 586.768 131.805C586.458 131.96 586.147 132.038 585.76 132.115C584.053 132.503 582.269 132.581 580.563 132.426C575.908 131.883 571.565 129.866 568.074 126.686C567.686 126.22 567.221 125.755 566.911 125.289L566.6 124.902C566.445 124.746 566.29 124.514 566.135 124.281C565.98 124.126 565.825 123.971 565.592 123.893C565.359 123.893 565.127 123.893 564.971 124.048C564.739 124.126 564.506 124.281 564.273 124.436L563.808 124.746L563.032 125.289C562.489 125.677 561.946 126.065 561.481 126.453C559.619 128.004 557.913 129.711 556.439 131.572C556.129 131.96 555.818 132.348 555.508 132.736C556.206 130.952 556.672 129.478 556.904 128.702C557.06 128.159 557.06 127.694 556.982 127.151C556.904 126.608 556.517 126.22 555.974 126.065C555.431 125.988 554.965 126.22 554.655 126.608C554.345 126.996 554.112 127.461 554.034 127.927C553.569 130.952 552.871 133.899 552.018 136.769C551.785 137.7 551.475 138.631 551.242 139.562C551.164 139.717 551.087 139.872 551.009 140.027C550.389 141.113 549.923 142.277 549.613 143.518C549.38 144.216 549.303 144.992 549.303 145.767L549.38 145.845C549.38 145.922 549.458 146 549.535 146C549.923 146.155 550.544 145.379 551.087 144.526C551.785 143.44 552.405 142.277 552.871 141.113C554.267 138.166 555.896 135.373 557.835 132.736C559.231 130.874 560.783 129.09 562.567 127.539C563.032 127.151 563.498 126.763 564.041 126.375C564.273 126.22 564.506 125.988 564.816 125.832L564.971 125.677H565.049L565.204 125.522C565.359 125.445 565.359 125.6 565.437 125.677L565.98 126.375C566.523 126.841 566.911 127.384 567.454 127.849C571.254 131.029 576.064 132.969 581.028 133.201C582.89 133.279 584.674 133.046 586.38 132.503C587.001 132.271 587.621 132.038 588.164 131.728L588.785 131.417L588.94 131.34V131.262C589.017 131.262 589.017 131.262 589.017 131.185V131.107ZM643.29 104.889C643.29 104.734 643.135 104.656 642.98 104.656L640.575 104.967L636.619 105.432C633.594 105.742 629.793 106.13 625.992 106.363C624.053 106.441 622.036 106.518 620.097 106.596C620.873 104.579 621.726 102.64 622.657 100.701C623.51 99.0716 624.363 97.4427 625.294 95.8913C625.76 95.1157 626.303 94.4176 626.846 93.7195C627.311 93.0989 627.931 92.5559 628.552 92.0905L628.63 92.013C628.94 91.7803 629.095 91.5476 629.25 91.2373C629.405 90.8495 629.56 90.5392 629.56 90.1513C629.56 89.6859 629.25 89.2981 628.785 89.143C628.164 88.9878 627.466 89.143 627.001 89.5308H626.923L626.846 89.6084C625.915 90.2289 625.217 91.0046 624.518 91.9354C623.976 92.7111 623.355 93.5643 622.89 94.4176C621.881 96.0465 621.028 97.753 620.252 99.537C619.166 101.864 618.236 104.191 617.382 106.596C616.607 106.596 615.831 106.596 615.133 106.596C613.737 106.518 612.496 106.441 611.41 106.363C611.487 106.363 611.565 106.285 611.642 106.285C611.72 106.285 611.797 106.208 611.797 106.208C611.875 106.13 611.953 106.053 611.875 105.975V105.898C611.797 105.742 611.642 105.665 611.487 105.742C610.324 105.742 609.238 105.51 608.152 105.122C607.531 104.889 606.911 104.812 606.213 104.734C605.67 104.656 605.204 104.734 604.739 104.967C604.196 105.199 603.808 105.587 603.498 106.13C603.42 106.285 603.42 106.441 603.42 106.596C603.42 106.596 603.42 106.673 603.343 106.673C603.187 107.216 603.886 107.759 604.584 108.147C605.514 108.612 606.523 108.845 607.531 108.923C610.091 109.078 612.573 109.155 615.133 109C615.598 109 616.064 109 616.529 109C616.374 109.388 616.219 109.776 616.064 110.164C614.823 113.732 613.737 117.3 612.651 120.946C611.487 124.514 610.634 128.237 610.013 131.96C609.703 133.899 609.626 135.839 609.703 137.778C609.703 139.795 610.324 141.811 611.487 143.518C612.108 144.371 612.961 144.992 613.892 145.457C614.9 145.845 615.908 146.078 616.917 146.078C618.856 146.078 620.795 145.767 622.657 145.147C626.303 143.828 629.56 141.811 632.353 139.096C635.068 136.459 637.317 133.356 639.024 130.021L638.558 129.711C636.774 133.046 634.525 135.994 631.732 138.476C629.017 140.958 625.837 142.897 622.269 144.061C620.563 144.604 618.778 144.836 616.994 144.759C615.288 144.759 613.659 143.983 612.651 142.665C611.72 141.113 611.254 139.407 611.332 137.7C611.254 135.839 611.41 134.055 611.797 132.271C612.418 128.625 613.426 125.057 614.59 121.566C615.831 117.998 616.994 114.43 618.391 110.939C618.623 110.241 618.934 109.466 619.166 108.768C621.493 108.612 623.976 108.302 626.458 107.992C630.336 107.526 634.137 106.906 637.162 106.363L641.118 105.665L642.437 105.355L642.98 105.277L643.135 105.199H643.212C643.29 105.199 643.367 105.044 643.367 104.967L643.29 104.889ZM669.086 130.874C667.379 133.124 665.285 135.063 662.958 136.692C660.709 138.398 658.149 139.639 655.434 140.26C654.813 140.415 654.115 140.493 653.495 140.415C652.952 140.338 652.409 140.105 651.943 139.717C651.633 139.329 651.4 138.709 651.478 138.166C651.478 137.545 651.556 136.847 651.711 136.226C652.331 133.512 653.495 130.874 654.348 128.082C654.581 127.384 654.736 126.608 654.891 125.91C655.046 125.057 655.046 124.126 654.813 123.273C654.658 122.807 654.348 122.264 653.883 121.954C653.65 121.799 653.417 121.644 653.185 121.566C652.952 121.489 652.719 121.411 652.409 121.411C651.943 121.334 651.478 121.334 651.013 121.411C650.625 121.489 650.237 121.644 649.772 121.799C648.375 122.419 647.057 123.35 645.971 124.436C644.885 125.445 643.876 126.531 642.946 127.694C641.084 130.021 639.378 132.348 637.904 134.908C637.749 135.063 637.671 135.296 637.516 135.451C638.059 132.503 638.757 129.633 639.61 126.763C639.92 125.755 643.023 116.214 646.824 107.371C648.453 103.338 650.47 99.537 652.719 95.8138C653.495 94.7278 654.27 93.7195 655.201 92.7886C655.512 92.5559 655.744 92.3232 655.977 92.1681L656.287 91.9354C656.365 91.8578 656.442 91.8578 656.52 91.7803C656.598 91.6251 656.675 91.5476 656.753 91.3924C656.985 91.0046 657.14 90.6167 657.14 90.1513C657.14 89.8411 657.063 89.6084 656.83 89.3757C656.675 89.143 656.365 89.0654 656.055 89.0654C655.822 89.0654 655.512 89.0654 655.279 89.143C655.046 89.2205 654.891 89.2981 654.736 89.3757L654.658 89.4532L654.503 89.5308C653.96 89.9186 653.417 90.4616 652.952 91.0046C652.021 92.0905 651.245 93.254 650.625 94.4176C648.763 97.9081 647.134 101.476 645.816 105.122C642.868 113.344 640.308 122.497 639.067 126.608C638.757 127.694 637.283 131.805 635.887 135.761C635.189 137.7 634.568 139.562 634.103 141.036L633.405 143.363V143.44C633.327 143.751 633.25 145.302 634.491 145.457C635.266 145.535 635.887 145.147 636.197 144.449C636.352 144.294 636.43 144.138 636.508 143.906H636.585V143.828C637.593 141.191 638.835 138.709 640.231 136.226C641.549 133.822 643.101 131.417 644.807 129.168C645.66 128.082 646.514 127.074 647.522 126.065C648.375 125.134 649.461 124.281 650.625 123.661C651.09 123.428 651.633 123.35 652.176 123.35C652.719 123.428 652.797 123.505 652.952 123.893C653.107 124.436 653.185 125.057 653.029 125.6C652.952 126.298 652.797 126.918 652.642 127.616C651.943 130.331 650.858 132.969 650.315 135.916C650.159 136.692 650.082 137.468 650.082 138.243C650.082 139.096 650.392 140.027 651.013 140.648C651.633 141.268 652.486 141.579 653.34 141.656C654.115 141.656 654.891 141.579 655.667 141.424C658.537 140.648 661.174 139.252 663.423 137.39C665.75 135.606 667.845 133.512 669.551 131.185L669.086 130.874ZM694.008 130.874C691.604 134.287 688.734 137.312 685.553 139.95C683.924 141.268 682.218 142.354 680.356 143.208C678.572 144.061 676.633 144.449 674.616 144.449C672.677 144.449 670.738 143.906 669.574 142.665C668.411 141.424 668.178 139.562 668.488 137.7C668.876 135.684 669.419 133.744 670.195 131.883C670.893 129.944 671.746 128.082 672.599 126.22L672.677 126.143C672.91 125.6 672.444 124.902 671.746 124.591C671.126 124.204 670.35 124.359 669.885 124.902V124.979C669.031 126.996 668.333 128.935 667.635 131.029C666.937 133.046 666.472 135.218 666.161 137.312C666.006 138.554 666.084 139.717 666.316 140.881C666.549 142.122 667.17 143.208 668.101 144.138C668.954 144.914 670.04 145.535 671.281 145.845C672.367 146.155 673.53 146.31 674.616 146.233C676.866 146.155 679.038 145.535 680.977 144.526C682.916 143.518 684.7 142.277 686.329 140.803C689.432 138.011 692.146 134.753 694.474 131.185L694.008 130.874ZM669.264 118.541C672.056 118.851 674.771 118.153 677.021 116.524C677.254 116.369 677.331 116.136 677.331 115.904C677.254 115.438 677.098 115.051 676.711 114.818C676.478 114.508 676.09 114.275 675.702 114.197C675.469 114.12 675.237 114.197 675.082 114.352C673.685 116.214 671.591 117.533 669.264 117.998H669.186C669.031 117.998 668.954 118.076 668.954 118.153C668.954 118.231 668.954 118.231 668.954 118.308C668.954 118.464 669.109 118.541 669.264 118.541ZM719.859 131.029C719.781 130.952 719.704 130.952 719.626 131.029C719.548 131.107 719.471 131.185 719.393 131.34C718.385 133.046 717.221 134.675 715.825 136.071C714.119 137.778 712.257 139.252 710.163 140.338C709.154 140.881 708.068 141.191 706.905 141.268C706.44 141.346 705.974 141.113 705.664 140.803C705.276 140.493 705.121 140.027 705.043 139.484C704.966 138.398 705.121 137.312 705.509 136.226C705.819 135.141 706.284 133.977 706.672 132.891C707.138 131.805 707.603 130.642 708.068 129.478C708.224 128.935 708.456 128.315 708.534 127.694C708.767 126.996 708.767 126.22 708.611 125.522C708.379 124.514 707.603 123.816 706.672 123.661C705.897 123.583 705.121 123.738 704.423 124.048C703.182 124.514 702.018 125.212 701.087 126.065C699.148 127.694 697.442 129.556 695.968 131.572C695.813 131.805 695.658 132.038 695.425 132.271C696.045 130.719 696.433 129.401 696.666 128.702C696.821 128.159 696.821 127.616 696.666 127.151C696.588 126.608 696.201 126.143 695.735 126.065C695.192 125.988 694.727 126.143 694.417 126.608C694.106 126.996 693.874 127.461 693.796 127.927C693.253 130.952 692.633 133.899 691.779 136.769C691.547 137.545 691.314 138.321 691.159 139.096C690.228 140.725 689.297 142.432 688.444 144.138V144.216C688.211 144.914 688.521 145.612 689.142 145.922C689.142 145.922 689.142 145.922 689.22 145.922H689.297C689.918 146.31 690.771 146.078 691.159 145.457V145.379C693.02 141.036 695.27 136.847 697.907 132.969C699.226 131.029 700.7 129.245 702.406 127.616C703.182 126.918 704.113 126.298 705.121 125.832C705.509 125.6 705.897 125.522 706.362 125.522C706.44 125.522 706.595 125.6 706.672 125.677C706.827 125.677 706.827 125.832 706.905 125.988C706.983 126.375 706.983 126.918 706.905 127.384C706.827 127.927 706.672 128.47 706.517 129.013C706.129 130.099 705.741 131.262 705.354 132.348C704.888 133.512 704.5 134.675 704.19 135.839C703.802 137.08 703.725 138.398 703.88 139.717C704.035 140.415 704.345 141.113 704.888 141.579C705.431 142.122 706.129 142.354 706.905 142.277C708.224 142.122 709.387 141.734 710.551 141.113C712.645 139.872 714.584 138.321 716.213 136.459C717.609 134.985 718.85 133.356 719.859 131.572C719.936 131.495 719.936 131.34 720.014 131.262C720.014 131.185 719.936 131.107 719.859 131.029ZM753.217 131.107L753.139 131.029C753.062 130.952 752.829 130.952 752.752 131.107C751.511 132.736 750.114 134.287 748.641 135.684C746.469 137.7 743.521 140.105 740.186 141.191C738.557 141.734 736.85 141.811 735.144 141.501C733.67 141.113 732.274 140.415 731.188 139.329C729.559 137.855 728.163 135.994 727.154 134.055C726.922 133.512 726.611 133.046 726.301 132.581C726.922 132.038 727.62 131.495 728.318 130.952C730.257 129.401 732.196 128.004 734.291 126.763C735.299 126.143 736.307 125.522 737.393 125.057C738.402 124.514 739.41 124.204 740.496 123.971C740.651 123.893 741.116 123.583 741.116 122.342C741.194 121.954 741.116 121.644 740.806 121.334C740.574 121.101 740.186 120.946 739.875 121.023H739.798H739.72C738.789 121.411 737.859 121.876 737.005 122.419C735.376 123.428 733.903 124.514 732.506 125.755C730.102 127.849 727.697 130.331 725.913 132.115C725.836 132.038 725.758 131.883 725.681 131.805C725.138 131.185 724.439 130.564 723.896 130.797C723.354 131.029 723.354 131.805 723.509 132.658C723.586 133.124 723.741 133.667 723.896 134.132L721.337 136.769C720.561 137.468 719.785 138.243 719.01 139.019C719.553 134.908 720.484 130.797 721.647 126.763C721.957 125.755 725.06 116.214 728.861 107.371C730.49 103.338 732.506 99.537 734.756 95.8138C735.532 94.7278 736.307 93.7195 737.238 92.7886C737.548 92.5559 737.781 92.3232 738.014 92.1681L738.324 91.9354C738.402 91.8578 738.479 91.8578 738.557 91.7803C738.634 91.6251 738.712 91.5476 738.789 91.3924C739.022 91.0046 739.177 90.6167 739.177 90.1513C739.177 89.8411 739.1 89.6084 738.867 89.3757C738.712 89.143 738.402 89.0654 738.091 89.0654C737.859 89.0654 737.548 89.0654 737.316 89.143C737.083 89.2205 736.928 89.2981 736.773 89.3757L736.695 89.4532L736.54 89.5308C735.997 89.9186 735.454 90.4616 734.989 91.0046C734.058 92.0905 733.282 93.254 732.662 94.4176C730.8 97.9081 729.171 101.476 727.852 105.122C724.905 113.344 722.345 122.497 721.104 126.608C720.794 127.694 719.32 131.805 717.924 135.761C717.226 137.7 716.605 139.562 716.14 141.036L715.442 143.363V143.44C715.364 143.751 715.286 145.302 716.528 145.457C717.148 145.535 717.691 145.302 718.001 144.759C718.156 144.681 718.312 144.604 718.389 144.449L718.467 144.371C718.932 142.897 719.553 141.424 720.328 140.105C721.414 138.166 722.733 136.382 724.207 134.675C724.284 134.908 724.439 135.141 724.595 135.373C725.836 137.623 727.542 139.562 729.559 141.191C731.11 142.432 732.972 143.285 734.911 143.595C736.928 143.828 739.022 143.518 740.961 142.665C744.297 141.113 747.244 138.864 749.571 136.071C750.58 134.985 751.433 133.899 752.054 133.046C752.364 132.658 752.674 132.271 752.907 131.96L753.139 131.495L753.217 131.417L753.295 131.34C753.295 131.262 753.295 131.107 753.217 131.107ZM800.218 130.874C798.977 132.193 797.503 133.279 795.952 134.21C793.702 135.451 791.298 136.304 788.738 136.692C787.187 136.847 785.558 136.847 784.007 136.459C784.86 134.753 785.558 133.046 786.023 131.185C786.334 130.176 786.411 129.168 786.411 128.159C786.489 127.151 786.101 126.143 785.403 125.367C785.015 124.979 784.472 124.746 784.007 124.591H783.929C784.007 123.738 783.696 123.118 783.153 123.118H783.076C781.447 123.35 779.895 124.048 778.654 125.134C777.491 126.065 776.405 127.151 775.552 128.392C773.845 130.719 772.527 133.356 771.673 136.149C771.285 137.468 770.975 138.941 770.898 140.415C770.82 141.113 770.82 141.889 770.975 142.587C771.13 143.44 771.441 144.138 771.906 144.759C772.449 145.457 773.302 145.845 774.078 145.845C774.854 145.922 775.629 145.845 776.327 145.535C777.646 144.992 778.887 144.061 779.818 142.975C781.059 141.656 782.145 140.105 783.076 138.476C783.076 138.321 783.153 138.243 783.231 138.166H783.308C785.248 138.243 787.109 138.088 788.893 137.545C791.453 136.925 793.935 135.994 796.185 134.675C797.814 133.744 799.287 132.581 800.606 131.185L800.218 130.874ZM782.533 138.166C781.679 139.795 780.671 141.268 779.43 142.587C778.499 143.595 777.336 144.294 776.095 144.759C774.854 145.069 773.457 144.992 772.837 144.061C772.216 142.975 772.061 141.734 772.294 140.493C772.527 139.174 772.837 137.933 773.38 136.692C774.311 134.21 775.707 131.883 777.413 129.866C777.491 129.788 777.491 129.711 777.568 129.711C777.491 129.944 777.413 130.254 777.336 130.564C776.87 132.503 777.336 134.598 778.654 136.149C779.275 136.769 780.051 137.312 780.904 137.623C781.447 137.855 782.067 137.933 782.61 138.088C782.61 138.088 782.61 138.166 782.533 138.166ZM781.835 135.606C781.447 135.296 780.981 134.908 780.749 134.52C780.438 134.055 780.283 133.589 780.206 133.046C780.128 132.426 780.206 131.805 780.361 131.107C780.516 129.866 781.059 128.625 781.835 127.616C782.145 127.229 782.533 126.918 782.998 126.686C783.386 126.453 783.851 126.453 784.239 126.686C784.705 127.074 785.015 127.694 785.092 128.315C785.248 129.168 785.248 130.099 785.092 131.029C784.782 132.891 784.239 134.675 783.464 136.304C782.921 136.149 782.378 135.916 781.835 135.606ZM812.491 130.176C808.612 129.944 805.587 129.788 802.95 129.866C802.329 129.944 801.709 129.944 801.088 130.021C801.011 130.021 801.011 130.021 800.933 130.021C801.554 128.004 802.174 126.065 802.795 124.048C804.036 120.17 805.355 116.292 806.906 112.568C807.682 110.629 808.457 108.845 809.388 107.061C809.776 106.13 810.319 105.277 810.862 104.501C811.25 103.726 811.87 103.028 812.491 102.485V102.407C812.568 102.329 812.646 102.252 812.646 102.174C812.646 102.019 812.646 101.942 812.646 101.786C812.646 101.399 812.568 101.088 812.413 100.701C812.336 100.313 812.025 100.08 811.638 99.9249C811.482 99.8473 811.25 99.8473 811.095 99.9249C810.939 99.9249 810.707 100.002 810.552 100.158L810.474 100.235C809.698 101.011 808.923 101.942 808.38 103.028C807.837 103.958 807.371 104.889 806.906 105.898C806.053 107.759 805.355 109.698 804.656 111.715C803.26 115.594 802.174 119.549 801.088 123.505C800.468 125.832 799.925 128.159 799.304 130.486H799.227C797.831 131.029 797.986 132.736 798.606 133.667C797.52 138.321 796.667 142.975 796.046 147.629C795.659 149.878 795.426 152.128 795.348 154.377C795.348 155.231 795.348 156.161 795.426 157.092C795.426 157.945 795.659 158.799 796.046 159.574C796.124 159.807 796.279 159.962 796.434 160.117L796.667 160.35L796.977 160.505C797.21 160.583 797.443 160.66 797.675 160.66C797.831 160.66 798.063 160.66 798.296 160.66C798.994 160.505 799.692 160.195 800.313 159.729C801.243 158.876 802.019 157.868 802.562 156.782C803.105 155.929 803.571 154.998 803.958 153.989C804.734 152.361 805.277 150.576 805.742 148.792C805.975 147.862 806.13 146.931 806.208 146C806.208 145.457 806.208 144.992 806.285 144.449C806.285 143.906 806.208 143.363 806.208 142.742C806.053 140.648 805.432 138.554 804.269 136.769C803.726 135.916 803.105 135.218 802.329 134.598C801.631 133.977 800.856 133.434 800.235 132.969C800.235 132.891 800.158 132.891 800.158 132.814C800.235 132.348 800.39 131.805 800.545 131.34C800.778 131.262 801.088 131.185 801.321 131.107C801.864 130.952 802.485 130.874 803.028 130.797C806.208 130.486 809.311 130.486 812.413 130.719C814.663 130.874 816.912 131.029 819.084 131.262L819.162 130.797C816.912 130.486 814.663 130.331 812.491 130.176ZM800.778 136.149C801.243 136.769 801.709 137.39 802.019 138.088C802.717 139.639 803.105 141.346 803.183 142.975C803.26 143.518 803.26 143.983 803.26 144.449C803.26 144.914 803.26 145.379 803.26 145.845C803.26 146.698 803.26 147.551 803.105 148.405C802.95 150.111 802.717 151.74 802.329 153.446C802.097 154.377 801.786 155.308 801.399 156.239C801.011 157.247 800.39 158.178 799.692 159.031C799.227 159.419 798.684 159.729 798.141 159.885C797.52 160.117 796.9 159.807 796.589 159.264C796.279 158.566 796.046 157.79 795.969 157.015C795.891 156.161 795.891 155.231 795.891 154.377C795.969 152.128 796.202 149.956 796.589 147.706C797.365 143.363 798.373 139.096 799.537 134.83C800.002 135.373 800.39 135.761 800.778 136.149ZM822.827 145.379C824.068 145.379 825.154 144.371 825.154 143.052C825.154 141.734 824.068 140.725 822.827 140.725C821.509 140.725 820.423 141.734 820.423 143.052C820.423 144.371 821.509 145.379 822.827 145.379ZM840.59 85.3422V85.187C840.513 85.1095 840.668 85.2646 840.357 84.7216C840.125 84.2562 839.659 84.0235 839.194 84.0235H839.116C838.884 84.0235 838.651 84.1011 838.496 84.2562C838.418 84.2562 838.341 84.2562 838.341 84.3338H838.263L838.108 84.4889C838.03 84.5665 837.953 84.644 837.875 84.7216C837.798 84.7992 837.72 84.8767 837.643 85.0319C837.255 85.5749 836.945 86.1954 836.634 86.8159C836.402 87.2813 836.169 87.8243 836.014 88.3673V88.4449H835.936C835.859 88.8327 835.859 89.2205 836.014 89.6084C836.091 89.9962 836.324 90.384 836.712 90.4616C836.246 92.6335 835.626 94.9605 835.083 97.4427C833.066 105.432 830.817 114.197 829.653 118.153C829.033 120.17 823.758 133.822 823.758 133.822V133.899C823.68 134.21 823.525 135.606 824.689 135.994C825.852 136.304 826.473 135.063 826.628 134.753V134.598C827.481 129.09 828.645 123.661 830.196 118.308C830.429 117.3 833.454 108.225 836.246 99.4595C837.72 95.0381 839.116 90.6943 840.125 87.4365L840.435 86.1954L840.513 85.8851L840.59 85.6524V85.5749V85.4973V85.3422Z" fill="#E9D6D6"/>
</g>
</svg>
