<svg fill="none" height="447" viewBox="0 0 401 447" width="401" xmlns="http://www.w3.org/2000/svg" xmlns:xlink="http://www.w3.org/1999/xlink"><clipPath id="a"><path d="m0 0h401v447h-401z"/></clipPath><g clip-path="url(#a)" fill="#e9d6d6" opacity=".03"><path d="m323.149 270.663v-100.867h-.519c-2.79-13.863-16.414-24.617-35.942-32.391-8.369 14.447-23.809 38.481-37.433 44.959-7.716 2.93-15.955 4.231-24.199 3.822-15.76-.4-31.455-2.178-46.905-5.312l-3.309-.713 1.557-2.98c.908-1.749 20.242-39.323 38.342-52.927-11.367-.616-22.758-.616-34.125 0 3.599 5.328 5.529 11.605 5.545 18.031.016 6.427-1.883 12.713-5.455 18.059s-8.656 9.51-14.605 11.962c-5.949 2.453-12.494 3.083-18.802 1.81-6.309-1.273-12.095-4.39-16.624-8.956-4.529-4.567-7.595-10.375-8.809-16.686-1.213-6.312-.519-12.841 1.994-18.757 2.514-5.917 6.733-10.953 12.121-14.468 2.946-7.383 7.186-14.184 12.521-20.0823 13.044-16.0458 30.194-28.2682 49.63-35.3714 17.971-7.3205 28.741-13.6692 26.405-39.7118 0-.7126 0-1.2955 0-1.8786 7.975 5.9393 15.187 12.8364 21.474 20.536 12.787 14.1957 21.583 31.5176 25.497 50.2065 2.248 9.8567 2.402 20.0746.453 29.9946 7.396.972 13.494 2.073 16.738 2.721 2.284-11.917 2.107-24.1736-.518-36.0195-4.458-21.7023-14.625-41.8271-29.455-58.3044-20.63-23.32173-33.021-31.16025-42.753-26.949385-6.487 2.785655-9.277 9.911785-8.304 21.119185 1.427 15.4183-1.557 16.5845-15.894 22.4149-21.924 8.1846-41.287 22.0199-56.119 40.1001-15.959 18.7221-21.474 35.9541-16.413 51.1781-21.9286 7.58-37.5631 18.917-40.6122 33.881h-.4546v100.867c-47.684 17.75-77.851493 45.931-77.851493 78.193 0 32.261 30.297193 60.442 77.851493 78.192 7.5256 2.851 15.5057 5.377 23.8098 7.645 64.78 16.411 132.638 16.411 197.418 0 8.369-2.268 16.349-4.794 23.875-7.645 47.684-17.75 77.851-45.931 77.851-78.192 0-32.262-30.362-59.73-77.981-77.48zm-214.935-80.072c40.264 10.169 81.752 14.682 123.265 13.41 1.103 0 .454 1.296-3.179 1.815-14.477 1.939-29.057 3.021-43.662 3.239-26.569.606-53.005-3.925-77.851-13.346-.541-.289-.968-.753-1.213-1.315-.244-.562-.291-1.19-.133-1.782.157-.592.511-1.113 1.002-1.48.492-.367 1.093-.557 1.706-.541zm-6.488 22.415c14.468 1.62 30.297 6.479 29.778 19.435-1.687 45.348-6.487 53.316-1.687 66.985 1.557 4.276 12.197 16.585 18.75 7.645 12.975-17.945-6.487-56.361.519-70.354 9.018-17.168 35.163-4.146 39.445 2.656s.843 33.298 0 52.797c-.844 19.5-2.531 40.814 16.154 30.125 18.684-10.69-10.186-56.361 3.438-83.764 1.558-3.709 4.027-6.965 7.179-9.468 3.153-2.502 6.888-4.171 10.857-4.849h1.687c5.811-.238 11.509 1.651 16.024 5.312 14.273 10.948 10.9 51.826 9.083 64.782-.636 4.296-.636 8.661 0 12.957 1.103 7.644 4.606 16.52 14.791 11.92 16.998-7.579-4.476-30.772 1.687-80.719 1.687-13.799 17.777-26.626 22.123-30.513l1.103-.842 3.568-1.749c.976-.267 1.976-.44 2.985-.518v142.91c-.843 9.523-8.889 12.957-24.783 18.787-23.883 7.563-48.844 11.174-73.894 10.689-58.389-.648-98.547-14.965-98.742-29.411zm221.423 190.85c-7.798 3.26-15.768 6.093-23.875 8.486-64.564 18.052-132.853 18.052-197.418 0-8.0853-2.393-16.034-5.226-23.8097-8.486-33.3464-14.123-54.4312-33.687-54.4312-55.001 0-21.313 21.0848-40.878 54.4312-55v48.911c.1786 7.672 2.5034 15.142 6.711 21.564 4.2075 6.423 10.1302 11.542 17.0987 14.779 50.474 25.913 147.723 26.885 197.418 0 7.644-3.981 13.969-10.089 18.206-17.586 4.238-7.497 6.207-16.061 5.669-24.652v-43.275c33.281 14.122 54.366 33.687 54.366 55 0 21.314-21.149 41.137-54.366 55.26z"/><path d="m285.326 126.844h-.39-1.167-.39-1.427c-14.986-2.527-46.192-6.478-59.621-.324-14.662 6.996-32.893 38.869-38.926 49.882 7.915-3.498 24.524-10.819 41.132-18.269h.519c7.785-3.433 15.505-6.931 22.382-10.106l2.66-8.745 1.687.518-2.661 8.487 12.976 7.774-.909 1.425-12.975-7.839-19.463 8.746c5.864 1.926 11.516 4.444 16.869 7.514l-.779 1.491c-5.822-3.564-12.172-6.188-18.814-7.774l-41.391 18.333c12.975 2.397 48.397 7.839 62.8.972 14.402-6.867 34.124-40.684 39.639-50.919z"/><path d="m135.916 143.171c-.343-.068-.696-.068-1.038 0-2.076.842-2.66 4.535-1.232 7.903 1.427 3.369 4.476 5.442 6.487 4.6s2.66-4.6 1.232-7.968c-.433-1.165-1.164-2.196-2.12-2.992-.956-.795-2.103-1.327-3.329-1.543z"/><path d="m180.81 140.188s0-.648 0-.971c.032-.54.032-1.081 0-1.62.032-.366.032-.735 0-1.101 0-.454 0-.907 0-1.296l-.389-1.296c-.124-.357-.276-.703-.454-1.036-.145-.464-.318-.918-.52-1.361l-.453-.842c-.199-.473-.438-.928-.714-1.36-.112-.26-.266-.501-.454-.713-.265-.498-.569-.975-.909-1.425v-.453l-1.167-1.49c-2.436-2.893-5.452-5.245-8.853-6.904-3.402-1.659-7.113-2.589-10.896-2.729s-7.553.512-11.068 1.914-6.697 3.524-9.342 6.228c-1.829 1.936-3.379 4.116-4.606 6.479-.419.752-.788 1.531-1.103 2.332l-.779 2.203v.648c0 .647.001 1.23-.453 1.878v1.296c-.036.474-.036.951 0 1.425-.064.906-.064 1.815 0 2.721-.18 3.681.39 7.359 1.676 10.813 1.287 3.453 3.263 6.61 5.808 9.279 2.544 2.668 5.606 4.792 8.998 6.244 3.391 1.451 7.043 2.2 10.733 2.2s7.342-.749 10.734-2.2c3.392-1.452 6.453-3.576 8.998-6.244 2.545-2.669 4.52-5.826 5.807-9.279 1.286-3.454 1.857-7.132 1.677-10.813-2.141-.842-2.206-1.684-2.271-2.527zm-38.925 20.342c-.957.438-1.998.659-3.05.648-2.287-.201-4.467-1.052-6.284-2.453s-3.193-3.292-3.966-5.451c-.888-1.17-1.496-2.527-1.779-3.968-.283-1.44-.233-2.926.146-4.344.378-1.419 1.075-2.732 2.039-3.841.964-1.108 2.168-1.983 3.521-2.557s2.819-.832 4.288-.755c1.468.077 2.899.487 4.184 1.2s2.391 1.709 3.233 2.912c.842 1.204 1.397 2.583 1.625 4.033 1.436 2.419 1.859 5.305 1.179 8.033s-2.409 5.079-4.812 6.543z"/></g></svg>