<svg fill="none" height="574" viewBox="0 0 279 574" width="279" xmlns="http://www.w3.org/2000/svg" xmlns:xlink="http://www.w3.org/1999/xlink"><clipPath id="a"><path d="m0 0h279v574h-279z"/></clipPath><g clip-path="url(#a)" opacity=".03"><path d="m278.94 138.97c-1.888-42.7948-17.789-78.763-45.963-104.038-25.86-22.8124-59.155-35.246182-93.537-34.93103562-34.365-.31250438-67.6425 12.11303562-93.4934 34.90943562-28.1532 25.2749-44.03231 61.2432-45.9206334 104.0166v.604 7.129c0 9.289.1931244 26.571 0 29.617v.346c.008814 6.183 1.8324434 12.225 5.2417834 17.367 3.40933 5.143 8.25225 9.157 13.92045 11.537v176.212c0 8.021 3.1651 15.713 8.7989 21.385 5.6339 5.672 13.2751 8.858 21.2426 8.858h61.2843v131.775c0 8.022 3.166 15.714 8.799 21.386 5.634 5.672 13.275 8.858 21.243 8.858 7.967 0 15.609-3.186 21.243-8.858 5.633-5.672 8.798-13.364 8.798-21.386v-131.775h59.011c7.967 0 15.608-3.186 21.242-8.858s8.799-13.364 8.799-21.385v-176.19c5.681-2.241 10.56-6.151 14.005-11.221 3.444-5.07 5.293-11.066 5.308-17.208v-.605c0-1.296 0-8.403 0-15.273.042-15.273.042-20.911-.022-22.272zm-12.875 37.653c-.008 2.672-.587 5.311-1.698 7.737-1.11 2.427-2.727 4.584-4.739 6.326-1.231 1.042-2.604 1.9-4.077 2.549-.472.216-.945.411-1.438.584h-.15c-.451.151-.902.302-1.352.41h-.365l-1.202.259h-.708-.88-1.609c-2.4.05-4.785-.388-7.013-1.286-2.228-.899-4.253-2.24-5.956-3.943-1.702-1.704-3.046-3.735-3.951-5.973-.906-2.237-1.354-4.636-1.319-7.052v-8.641h-26.673v36.724c0 5.73-2.261 11.224-6.285 15.276-4.024 4.051-9.482 6.327-15.173 6.327s-11.149-2.276-15.173-6.327c-4.025-4.052-6.285-9.546-6.285-15.276v-36.724h-38.775v36.724c0 5.73-2.261 11.224-6.285 15.276-4.025 4.051-9.483 6.327-15.1737 6.327-5.6911 0-11.1491-2.276-15.1733-6.327-4.0242-4.052-6.2849-9.546-6.2849-15.276v-36.724h-28.8184v8.641c-.0057 4.868-1.9292 9.535-5.3485 12.978-3.4194 3.442-8.0554 5.378-12.891 5.384-.6009 0-1.2017 0-1.7811 0h-.6866l-1.03-.151-.8584-.216-.7725-.194-.9656-.325-.4935.087-1.03-.454-.4292-.216-1.0944-.583-.2789-.173c-.3863-.238-.7725-.497-1.1158-.756h-.1502c-.4078-.302-.794-.605-1.1588-.929-1.9729-1.719-3.5555-3.845-4.6403-6.235-1.0848-2.389-1.6465-4.985-1.647-7.612.1073-4.32-.1502-33.549-.1502-37.135 3.7338-84.3792 65.1258-126.5256 126.6033-126.5256 61.478 0 122.913 42.1896 126.604 126.5256 0 2.247-.15 33.679-.107 36.919zm-151.795-93.4524c0 1.38-.407 2.729-1.168 3.8764-.762 1.1475-1.845 2.042-3.111 2.5701s-2.66.6661-4.005.3968c-1.344-.2692-2.579-.9336-3.548-1.9094-.97-.9759-1.63-2.2191-1.897-3.5727-.268-1.3535-.13-2.7565.394-4.0315.525-1.2749 1.413-2.3647 2.553-3.1314s2.48-1.1759 3.851-1.1759c.912-.0028 1.815.1754 2.659.5248.843.3494 1.61.8628 2.255 1.511.646.6482 1.159 1.4186 1.508 2.2665.35.848.53 1.7572.53 2.6753zm66.241 13.5232c0 1.38-.406 2.729-1.168 3.8762-.762 1.148-1.844 2.042-3.11 2.57-1.267.528-2.661.666-4.005.397s-2.579-.934-3.549-1.909c-.969-.976-1.629-2.2195-1.897-3.573-.267-1.3535-.13-2.7565.395-4.0315.524-1.275 1.413-2.3647 2.552-3.1314 1.14-.7667 2.48-1.1761 3.851-1.1761.913-.0058 1.818.1708 2.662.5192.845.3484 1.613.8617 2.259 1.5105.647.6488 1.159 1.4201 1.508 2.2694.348.8493.526 1.7597.524 2.6787zm-60.083 20.1762c0 1.38-.406 2.729-1.168 3.877-.762 1.147-1.844 2.042-3.111 2.57-1.266.528-2.66.666-4.004.397-1.345-.269-2.58-.934-3.549-1.91s-1.629-2.219-1.897-3.572c-.267-1.354-.13-2.757.395-4.032.524-1.275 1.413-2.365 2.552-3.131 1.14-.767 2.48-1.176 3.851-1.176.912-.003 1.816.175 2.659.525.843.349 1.61.863 2.256 1.511s1.158 1.418 1.508 2.266.53 1.757.53 2.675zm52.079-60.6163c.004 2.1979-.639 4.3477-1.85 6.177-1.21 1.8293-2.932 3.2559-4.949 4.099-2.016.843-4.235 1.0648-6.377.6371-2.141-.4278-4.109-1.4858-5.652-3.04-1.544-1.5542-2.595-3.5345-3.02-5.6904-.425-2.156-.205-4.3903.633-6.4201.837-2.0298 2.254-3.7637 4.071-4.9822 1.818-1.2184 3.953-1.8668 6.136-1.8625 2.922 0 5.724 1.1669 7.792 3.2446 2.067 2.0777 3.232 4.8964 3.238 7.8375zm-46.972-16.2019c0 1.3801-.406 2.7293-1.168 3.8767-.761 1.1475-1.844 2.0417-3.11 2.5698-1.267.5281-2.661.6664-4.005.3971-1.344-.2692-2.579-.9336-3.549-1.9094-.969-.9759-1.629-2.2194-1.897-3.5729-.267-1.3536-.13-2.7565.395-4.0315.524-1.275 1.413-2.3645 2.553-3.1312 1.139-.7667 2.479-1.1761 3.85-1.1761 1.838 0 3.601.7351 4.901 2.0437 1.3 1.3085 2.03 3.0832 2.03 4.9338zm-45.0621 62.5822c.0042 2.197-.639 4.346-1.8484 6.175-1.2093 1.829-2.9304 3.256-4.9454 4.099-2.015.844-4.2334 1.067-6.3743.641s-4.1082-1.482-5.6529-3.034c-1.5446-1.552-2.5972-3.53-3.0246-5.685-.4273-2.154-.2101-4.388.6241-6.4182.8341-2.0302 2.2478-3.7656 4.0621-4.9866 1.8142-1.2211 3.9475-1.8728 6.1299-1.8728 1.4474-.0029 2.8811.2816 4.2192.8372 1.338.5557 2.554 1.3714 3.5785 2.4008 1.0245 1.0293 1.8373 2.252 2.3918 3.5979.5546 1.346.84 2.7887.84 4.2457zm130.1661 6.049c0 2.192-.646 4.335-1.856 6.157-1.209 1.822-2.928 3.243-4.94 4.082-2.011.838-4.225 1.058-6.36.63-2.135-.427-4.097-1.483-5.636-3.033-1.54-1.55-2.588-3.524-3.013-5.674s-.207-4.378.626-6.403 2.244-3.756 4.055-4.9733c1.81-1.2177 3.938-1.8678 6.115-1.8678 2.911.0115 5.697 1.1849 7.749 3.2621 2.052 2.078 3.201 4.89 3.195 7.82zm-.88-42.6649c0 3.0549-.9 6.0413-2.586 8.5814-1.686 2.54-4.082 4.5195-6.886 5.6886-2.803 1.169-5.888 1.4751-8.864.8792-2.976-.596-5.71-2.0673-7.856-4.2275-2.145-2.1601-3.607-4.9122-4.199-7.9084s-.288-6.1019.873-8.9242c1.162-2.8224 3.128-5.2345 5.651-6.9317s5.49-2.6033 8.524-2.6033c4.058.0172 7.944 1.6523 10.807 4.5471 2.864 2.8947 4.471 6.8135 4.471 10.8988zm30.857 60.8109c0 2.192-.646 4.335-1.855 6.157-1.21 1.823-2.929 3.243-4.941 4.082-2.011.838-4.225 1.058-6.36.63-2.135-.427-4.097-1.483-5.636-3.033-1.54-1.55-2.588-3.524-3.013-5.674-.425-2.149-.207-4.378.626-6.403.834-2.025 2.245-3.755 4.055-4.973s3.938-1.868 6.116-1.868c1.445 0 2.877.287 4.212.844 1.336.557 2.549 1.373 3.571 2.402 1.023 1.029 1.834 2.251 2.387 3.595.553 1.345.838 2.786.838 4.241zm-155.8515 8.252c-.982-.429-1.8697-1.049-2.6116-1.826-.742-.777-1.3234-1.694-1.7106-2.699s-.5725-2.077-.5451-3.154c.0273-1.077.2668-2.139.7044-3.122l9.0983-20.911c.4284-.987 1.0463-1.879 1.8184-2.624.772-.7453 1.6828-1.3295 2.68-1.719.9973-.3895 2.0611-.5764 3.1305-.5504 1.0693.0261 2.1229.2646 3.1002.7023.978.4335 1.862 1.0571 2.601 1.8341.739.778 1.318 1.695 1.705 2.698.386 1.003.573 2.073.548 3.149-.024 1.075-.259 2.136-.691 3.12l-9.1198 20.911c-.4261.986-1.042 1.878-1.8121 2.623-.77.745-1.679 1.329-2.6745 1.719-.9954.389-2.0577.576-3.1254.551-1.0678-.026-2.1199-.265-3.0957-.702zm-8.0039-50.3983c-.9914-.4191-1.8902-1.0324-2.6441-1.8043s-1.3477-1.687-1.7471-2.6921c-.3993-1.0051-.5962-2.0802-.5791-3.1626s.2478-2.1505.6787-3.1423l9.1197-20.9111c.4261-.9886 1.0428-1.8824 1.8144-2.6293.7716-.747 1.6828-1.3322 2.6808-1.722.9979-.3898 2.0628-.5763 3.1329-.5488 1.0701.0276 2.1242.2685 3.101.7091.9821.4289 1.8697 1.0499 2.6117 1.8267.7419.7768 1.3233 1.694 1.7106 2.6987.3872 1.0047.5725 2.0766.5451 3.1539-.0273 1.0773-.2668 2.1385-.7045 3.122l-9.0983 20.9113c-.4262.9833-1.0412 1.8719-1.8097 2.6151-.7685.7433-1.6752 1.3265-2.6682 1.716-.993.3894-2.0526.5775-3.118.5535-1.0654-.0241-2.1156-.2599-3.0903-.6938zm-28.4751 1.1017c-.982-.4289-1.8697-1.0498-2.6116-1.8266-.7419-.7769-1.3234-1.6941-1.7106-2.6988s-.5725-2.0766-.5451-3.1539c.0273-1.0773.2668-2.1385.7044-3.1219l3.4334-7.9066c.4283-.9867 1.0463-1.8783 1.8183-2.6236s1.6829-1.3296 2.6801-1.7191 2.0611-.5767 3.1304-.5506 2.123.2649 3.1003.7025c.9782.4335 1.862 1.057 2.6008 1.8346.7387.7776 1.318 1.694 1.7046 2.6971.3867 1.0032.5731 2.0734.5486 3.1492-.0244 1.0757-.2593 2.1361-.6911 3.1204l-3.4333 7.9066c-.4261.9886-1.0428 1.8821-1.8144 2.6291-.7716.7469-1.6828 1.3321-2.6808 1.7219-.998.3899-2.0628.5763-3.1329.5488s-2.1242-.2685-3.1011-.7091zm96.9265-3.8669c-1.634 1.4001-3.754 2.0909-5.894 1.9208-2.139-.1701-4.125-1.1869-5.521-2.8279l-14.721-17.2821c-.691-.8137-1.216-1.7569-1.545-2.7752s-.455-2.0919-.372-3.1594c.084-1.0674.376-2.1076.86-3.0613.483-.9537 1.149-1.8023 1.959-2.4967.807-.6987 1.743-1.2297 2.755-1.5625 1.012-.3327 2.079-.4603 3.14-.376s2.095.3791 3.043.8676c.947.4884 1.789 1.1608 2.477 1.9783l14.721 17.282c1.393 1.6431 2.083 3.775 1.918 5.9291-.165 2.154-1.171 4.1545-2.798 5.5633zm49.676 68.3075c-.948.484-1.982.776-3.042.857-1.06.082-2.125-.047-3.136-.38-1.01-.333-1.946-.863-2.752-1.561-.807-.697-1.469-1.547-1.949-2.502l-3.627-7.216c-.964-1.931-1.128-4.168-.456-6.221.671-2.054 2.124-3.755 4.04-4.731.948-.484 1.982-.776 3.042-.858s2.126.048 3.136.381 1.946.863 2.752 1.56c.807.697 1.469 1.548 1.949 2.503l3.627 7.215c.966 1.929 1.133 4.164.465 6.217-.667 2.053-2.115 3.755-4.027 4.736zm-142.5898-2.161c-.9481.485-1.9817.776-3.0418.858s-2.1258-.047-3.1362-.38-1.9457-.864-2.7524-1.561-1.4689-1.547-1.9489-2.502l-10.3-20.458c-.4811-.955-.7706-1.995-.8519-3.062-.0814-1.068.047-2.14.3779-3.158.3308-1.017.8575-1.959 1.5501-2.771.6925-.812 1.5373-1.478 2.486-1.962.9481-.484 1.9818-.776 3.0418-.857 1.0601-.082 2.1258.047 3.1362.38 1.0105.333 1.9457.863 2.7524 1.561.8067.697 1.469 1.547 1.9489 2.502l10.2356 20.371c.4871.949.7836 1.985.8725 3.05.089 1.064-.0315 2.135-.3544 3.153-.3229 1.017-.8418 1.96-1.5272 2.775s-1.5238 1.487-2.4671 1.975zm175.6788-48.3028-1.416.7128c-1.731.881-3.738 1.035-5.58.427-1.843-.607-3.371-1.9263-4.248-3.6671l-7.511-14.9491c-.875-1.7419-1.027-3.7623-.424-5.6174.604-1.8551 1.914-3.3932 3.643-4.2764l1.416-.7131c1.731-.881 3.737-1.0345 5.58-.4269s3.371 1.9265 4.248 3.6673l7.468 14.8625c.874 1.7351 1.033 3.7474.442 5.5997-.59 1.8524-1.883 3.3956-3.597 4.2944z" fill="#e9d6d6"/></g></svg>