<svg xmlns="http://www.w3.org/2000/svg" xmlns:xlink="http://www.w3.org/1999/xlink" viewBox="0 0 60 60"><defs><clipPath id="a"><rect x="10.8" y="2" width="38.4" height="56" style="fill:none"/></clipPath></defs><rect width="60" height="60" style="fill:none"/><g style="clip-path:url(#a)"><path d="M36.69,8.26c-1.18-.84-2.3-1.61-3.2-2.29C31.9,4.71,28.86,2.36,28.7,2.26A1.2,1.2,0,0,0,28.13,2a1.28,1.28,0,0,0-.61.06,1.36,1.36,0,0,0-.5.36,1.31,1.31,0,0,0-.26.56,10.75,10.75,0,0,1-1.82,4c-1,1.13-2.29,2.43-3.71,3.79C15.81,16,8.43,23.2,11.44,32.36A12,12,0,0,0,13.33,36a1.13,1.13,0,0,0-.47.42,1.22,1.22,0,0,0-.17.61V56.85a1.18,1.18,0,0,0,.09.46,1.22,1.22,0,0,0,.26.38,1.18,1.18,0,0,0,.8.31h0l30.39-1.37a1.16,1.16,0,0,0,1.1-1.16V35.63a1.19,1.19,0,0,0-.35-.84h0a14.85,14.85,0,0,0,4.08-8.87C50.21,17.74,42.07,12,36.69,8.26Zm6.4,46.11L15,55.64V50.8L31.16,50a.84.84,0,0,0,.56-.28.82.82,0,0,0,.22-.59.84.84,0,0,0-.86-.8l-16,.83V44.29l11.35-.58,2.29-.11,2.48-.13a.73.73,0,0,0,.36,0,.88.88,0,0,0,.32-.16,1,1,0,0,0,.22-.28.86.86,0,0,0,.07-.36.84.84,0,0,0-.07-.35.88.88,0,0,0-.22-.28.74.74,0,0,0-.32-.16.73.73,0,0,0-.36,0L27,42.07l-2.38.13-9.45.48V38.24h.44l4.8-.23h2.64L35,37.47l7.54-.34h.76Zm3.55-28.79a11.68,11.68,0,0,1-5.42,9L37,34.8C31,31.69,31.19,24.49,31.3,19.18a29,29,0,0,0,0-3.73.84.84,0,0,0-.31-.56.81.81,0,0,0-1.15.14.8.8,0,0,0-.17.61,29.19,29.19,0,0,1,0,3.5c-.11,4.85-.27,11.79,4.51,15.79l-12.44.57c-1.14-3-1.15-7.09,1.6-12.27s3.2-5.94,3.47-9.07a.84.84,0,0,0-.18-.61.8.8,0,0,0-1.14-.12.83.83,0,0,0-.31.55c-.29,2.79-.59,3.44-3.2,8.46a18.64,18.64,0,0,0-2.59,9.44,12.29,12.29,0,0,0,.69,3.7l-3.52.16a9.29,9.29,0,0,1-2.67-4.17c-2.56-7.68,3.93-14,9.16-19a54.23,54.23,0,0,0,3.87-4,11,11,0,0,0,1.82-3.22c.93.72,2.15,1.61,3,2.35a23.93,23.93,0,0,1,2.42,6.38c.84,3.32,1.6,6.46,6.83,11.62a.78.78,0,0,0,.57.24.8.8,0,0,0,.58-.24.85.85,0,0,0,0-1.18c-4.8-4.84-5.57-7.63-6.4-10.84A28.2,28.2,0,0,0,34.58,9.8l.74.51c4.88,3.43,11.45,8.08,11.45,14.14a8.78,8.78,0,0,1-.11,1.15Z" style="fill:#e9d6d6"/></g></svg>