<svg xmlns="http://www.w3.org/2000/svg" xmlns:xlink="http://www.w3.org/1999/xlink" viewBox="0 0 60 60"><defs><clipPath id="a"><rect x="5.6" y="8.4" width="48.8" height="43.2" style="fill:none"/></clipPath></defs><rect width="60" height="60" style="fill:none"/><g style="clip-path:url(#a)"><path d="M28.78,9.39,6.39,31.54a.44.44,0,0,0-.13.24.39.39,0,0,0,0,.26.42.42,0,0,0,.16.21.5.5,0,0,0,.26.08H9.27a1.57,1.57,0,0,1,1.57,1.57V49.6a1.59,1.59,0,0,0,1.57,1.58H22.55a1.73,1.73,0,0,0,.6-.12,1.5,1.5,0,0,0,.51-.35A1.47,1.47,0,0,0,24,50.2a1.53,1.53,0,0,0,.12-.6V40.28a1.59,1.59,0,0,1,1.57-1.58H35a1.59,1.59,0,0,1,1.57,1.58V49.6a1.59,1.59,0,0,0,1.57,1.58H48a1.59,1.59,0,0,0,1.57-1.58V33.9a1.57,1.57,0,0,1,1.58-1.57h2.56a.44.44,0,0,0,.25-.08.39.39,0,0,0,.17-.21.46.46,0,0,0,0-.26.51.51,0,0,0-.13-.24L31.62,9.39a2,2,0,0,0-2.84,0Z" style="fill:#e9d6d6"/></g></svg>