<svg viewBox="0 0 60 60" xmlns="http://www.w3.org/2000/svg"><path d="m0 0h60v60h-60z" fill="none"/><g fill="#e9d6d6"><path d="m45.11 35.82v-12.45h-.06c-.34-1.72-2-3-4.43-4-1 1.78-2.94 4.75-4.61 5.55a7.45 7.45 0 0 1 -3 .47 32.41 32.41 0 0 1 -5.79-.66l-.4-.08.19-.37c.11-.21 2.49-4.85 4.73-6.54-1.4-.06-2.82 0-4.21 0a4 4 0 1 1 -5.5-1.1 8.15 8.15 0 0 1 1.54-2.49 14 14 0 0 1 6.13-4.29c2.21-.86 3.54-1.69 3.3-4.86a1.85 1.85 0 0 1 0-.23 15.85 15.85 0 0 1 2.65 2.53 13.45 13.45 0 0 1 3.14 6.21 8.93 8.93 0 0 1 .06 3.7c.91.12 1.66.26 2.06.34a11 11 0 0 0 -.12-4.55 15.58 15.58 0 0 0 -3.63-7.18c-2.55-2.82-4.08-3.82-5.27-3.29-.81.35-1.15 1.22-1 2.61.17 1.9-.2 2.05-2 2.77a16.31 16.31 0 0 0 -6.89 4.95c-2 2.32-2.65 4.44-2 6.32-2.71.94-4.64 2.34-5 4.19h-.06v12.45c-5.94 2.18-9.66 5.68-9.66 9.66s3.72 7.46 9.61 9.66c.93.35 1.91.66 2.94.94a46.84 46.84 0 0 0 12.17 1.52 46.84 46.84 0 0 0 12.17-1.52c1-.28 2-.59 2.94-.94 5.88-2.2 9.61-5.68 9.61-9.66s-3.72-7.48-9.61-9.66zm-26.5-9.89a54.68 54.68 0 0 0 15.17 1.66c.14 0 0 .16-.39.22a44 44 0 0 1 -5.38.41 25.69 25.69 0 0 1 -9.63-1.65.34.34 0 0 1 .23-.64zm-.78 2.78c1.78.2 3.73.78 3.67 2.38-.21 5.64-.84 6.58-.21 8.27.2.53 1.5 2 2.31 1 1.61-2.22-.84-7 .07-8.7 1.11-2.11 4.34-.51 4.86.33s.11 4.12 0 6.52-.31 5 2 3.73-1.25-7 .42-10.35a3 3 0 0 1 2.23-1.77h.21a3 3 0 0 1 2 .66c1.76 1.35 1.35 6.42 1.12 8a5.5 5.5 0 0 0 0 1.62c.14.94.57 2 1.83 1.47 2.1-.94-.55-3.8.21-10 .21-1.7 2.19-3.29 2.73-3.77l.13-.1.45-.22a2.25 2.25 0 0 1 .36-.06v17.62c-.1 1.17-1.09 1.63-3.05 2.32a28.57 28.57 0 0 1 -9.17 1.34c-7.19-.09-12.15-1.85-12.17-3.63zm27.28 23.56a26.54 26.54 0 0 1 -2.94 1 42.66 42.66 0 0 1 -12.17 1.73 42.66 42.66 0 0 1 -12.17-1.68 26.54 26.54 0 0 1 -2.94-1c-4.11-1.74-6.71-4.16-6.71-6.79s2.6-5 6.71-6.79v6a5.08 5.08 0 0 0 2.94 4.49c6.22 3.18 18.21 3.32 24.34 0a5.5 5.5 0 0 0 2.94-5.23v-5.31c4.11 1.74 6.71 4.16 6.71 6.79s-2.6 5.05-6.71 6.79z"/><path d="m40.46 18.06h-.05-.14-.05l-.22-.06c-1.84-.32-5.7-.84-7.35 0-1.81.86-4.06 4.76-4.82 6.16 1-.43 3-1.33 5.08-2.26h.06l2.76-1.25.33-1.08.2.06-.26.97 1.6 1-.11.18-1.62-1-2.4 1.09a11.49 11.49 0 0 1 2.09.92l-.1.19a7.88 7.88 0 0 0 -2.32-1l-5.14 2.29c1.62.29 6 1 7.74.11s4.21-5 4.89-6.29z"/><path d="m22 20.08a.23.23 0 0 0 -.12 0c-.26.11-.33.57-.16 1s.56.67.81.56.33-.56.16-1a.89.89 0 0 0 -.69-.56z"/><path d="m27.57 19.71a.5.5 0 0 0 0-.12.75.75 0 0 0 0-.2v-.14a.94.94 0 0 0 0-.16c0-.05 0-.1-.05-.15v-.14l-.07-.16a1.17 1.17 0 0 1 -.05-.11l-.09-.17a.22.22 0 0 1 -.05-.08l-.26-.18v-.05l-.14-.19a3.39 3.39 0 0 0 -2.56-1.19 3.34 3.34 0 0 0 -2.39 1 3.27 3.27 0 0 0 -.57.77c-.05.1-.1.19-.14.29s0 0 0 0-.07.18-.1.27 0 .06 0 .09a1.55 1.55 0 0 0 -.06.23v.16a1 1 0 0 0 0 .17v.34a3.36 3.36 0 0 0 6.72 0c-.17-.07-.18-.18-.19-.28zm-4.76 2.51a.84.84 0 0 1 -.38.08 1.48 1.48 0 0 1 -1.26-1 1.33 1.33 0 0 1 .49-1.81 1.34 1.34 0 0 1 1.64.9 1.32 1.32 0 0 1 -.49 1.83z"/></g></svg>