<svg xmlns="http://www.w3.org/2000/svg" xmlns:xlink="http://www.w3.org/1999/xlink" viewBox="0 0 60 60"><defs><clipPath id="a"><rect x="20.5" y="14" width="19" height="32" style="fill:none"/></clipPath></defs><rect width="60" height="60" style="fill:none"/><g style="clip-path:url(#a)"><path d="M39.49,30v-.26a3.38,3.38,0,0,0-1.09-2.25l0,0L26.53,15.08a3.44,3.44,0,0,0-1.11-.78,3.4,3.4,0,0,0-1.33-.3H24a3.58,3.58,0,0,0-1.91.56,3.39,3.39,0,0,0-.63,5.21L31.23,30,21.45,40.23a3.35,3.35,0,0,0-.72,1.13,3.31,3.31,0,0,0-.22,1.32,3.46,3.46,0,0,0,2.25,3.1A3.59,3.59,0,0,0,24.1,46a3.79,3.79,0,0,0,1.33-.3,3.6,3.6,0,0,0,1.11-.78l11.85-12.4,0,0a3.36,3.36,0,0,0,1.08-2.23v-.09C39.5,30.11,39.49,30,39.49,30Z" style="fill:#e9d6d6"/></g></svg>