<svg viewBox="0 0 60 60" xmlns="http://www.w3.org/2000/svg" xmlns:xlink="http://www.w3.org/1999/xlink"><clipPath id="a"><path d="m15.39 0h29.21v60h-29.21z"/></clipPath><path d="m0 0h60v60h-60z" fill="none"/><g clip-path="url(#a)"><path d="m44.6 14.53a15.07 15.07 0 0 0 -4.81-10.88 15 15 0 0 0 -19.58 0 15.06 15.06 0 0 0 -4.81 10.87v.81 3.1a3.27 3.27 0 0 0 .6 1.85 3.21 3.21 0 0 0 1.45 1.2v18.42a3.21 3.21 0 0 0 .92 2.24 3.15 3.15 0 0 0 2.23.92h6.4v13.78a3.15 3.15 0 0 0 .92 2.23 3.11 3.11 0 0 0 4.44 0 3.16 3.16 0 0 0 .93-2.23v-13.78h6.17a3.14 3.14 0 0 0 3.15-3.16v-18.41a3.27 3.27 0 0 0 1.47-1.18 3.18 3.18 0 0 0 .55-1.8v-1.66c-.02-1.59-.02-2.18-.03-2.32zm-1.35 3.93a2 2 0 0 1 -.67 1.47 1.94 1.94 0 0 1 -.43.27l-.15.06h-.14-.12-.34a2 2 0 0 1 -.73-.13 2 2 0 0 1 -1-1 2.11 2.11 0 0 1 -.14-.74v-.9h-2.89v3.84a2.25 2.25 0 0 1 -.64 1.67 2.21 2.21 0 0 1 -3.17 0 2.25 2.25 0 0 1 -.66-1.59v-3.89h-4.08v3.84a2.25 2.25 0 0 1 -.66 1.64 2.24 2.24 0 0 1 -3.83-1.59v-3.89h-3v.9a1.91 1.91 0 0 1 -1.91 1.92h-.39-.09-.08-.1-.03l-.11-.05-.12-.06-.2-.23-.12-.1a2 2 0 0 1 -.49-.65 2 2 0 0 1 -.17-.8c0-.45 0-3.5 0-3.88.36-8.79 6.78-13.19 13.21-13.19s12.88 4.41 13.26 13.22v3.86zm-15.89-9.77a.73.73 0 0 1 -.12.41.79.79 0 0 1 -.33.27.73.73 0 0 1 -1-.53.79.79 0 0 1 0-.43.76.76 0 0 1 .27-.32.73.73 0 0 1 .4-.13.67.67 0 0 1 .28.06.78.78 0 0 1 .24.16.87.87 0 0 1 .16.23.92.92 0 0 1 .05.28zm6.93 1.42a.72.72 0 0 1 -.12.4.7.7 0 0 1 -.32.27.72.72 0 0 1 -.79-.16.62.62 0 0 1 -.2-.37.72.72 0 0 1 .71-.87.92.92 0 0 1 .28 0 .63.63 0 0 1 .23.16.78.78 0 0 1 .16.24.67.67 0 0 1 .06.28zm-6.29 2.11a.72.72 0 0 1 -.12.4.7.7 0 0 1 -.32.27.68.68 0 0 1 -.42 0 .82.82 0 0 1 -.38-.2.66.66 0 0 1 -.19-.37.67.67 0 0 1 0-.42.71.71 0 0 1 .26-.33.73.73 0 0 1 .41-.12.92.92 0 0 1 .28 0 .87.87 0 0 1 .23.16.78.78 0 0 1 .16.24.67.67 0 0 1 .06.28zm5.46-6.34a1.18 1.18 0 0 1 -.2.65 1 1 0 0 1 -.52.42 1.07 1.07 0 0 1 -.66.07 1.11 1.11 0 0 1 -.6-.32 1.13 1.13 0 0 1 -.31-.59 1.17 1.17 0 0 1 .06-.67 1.15 1.15 0 0 1 .43-.52 1.13 1.13 0 0 1 .64-.2 1.16 1.16 0 0 1 1.16 1.16zm-4.92-1.69a.72.72 0 0 1 -.45.67.67.67 0 0 1 -.42 0 .73.73 0 0 1 -.53-1 .73.73 0 0 1 .27-.33.72.72 0 0 1 .4-.12.73.73 0 0 1 .52.21.76.76 0 0 1 .21.52zm-4.72 6.54a1.2 1.2 0 0 1 -.19.64 1.14 1.14 0 0 1 -.52.43 1.18 1.18 0 0 1 -.67.07 1.18 1.18 0 0 1 -.91-.91 1.18 1.18 0 0 1 .07-.67 1.09 1.09 0 0 1 .4-.52 1.16 1.16 0 0 1 .65-.2 1.12 1.12 0 0 1 .44.09 1.17 1.17 0 0 1 .62.62 1.2 1.2 0 0 1 .09.45zm13.63.63a1.19 1.19 0 0 1 -.71 1.07 1.19 1.19 0 0 1 -.67.07 1.22 1.22 0 0 1 -.59-.32 1.13 1.13 0 0 1 -.31-.59 1.09 1.09 0 0 1 .06-.67 1.15 1.15 0 0 1 .43-.52 1.1 1.1 0 0 1 .64-.2 1.14 1.14 0 0 1 1.14 1.16zm-.09-4.46a1.69 1.69 0 0 1 -.27.9 1.63 1.63 0 0 1 -.73.59 1.53 1.53 0 0 1 -.92.09 1.57 1.57 0 0 1 -.83-.48 1.68 1.68 0 0 1 -.44-.82 1.64 1.64 0 0 1 .69-1.66 1.56 1.56 0 0 1 .89-.27 1.6 1.6 0 0 1 1.6 1.61zm3.23 6.36a1.19 1.19 0 0 1 -.71 1.07 1.11 1.11 0 0 1 -.67.06 1.13 1.13 0 0 1 -.59-.31 1.25 1.25 0 0 1 -.32-.6 1.18 1.18 0 0 1 .49-1.19 1.23 1.23 0 0 1 .64-.19 1.13 1.13 0 0 1 .45.09 1.27 1.27 0 0 1 .37.25 1.15 1.15 0 0 1 .25.37 1.17 1.17 0 0 1 .09.45zm-16.32.86a.74.74 0 0 1 -.27-.19.84.84 0 0 1 -.18-.28 1 1 0 0 1 -.06-.33.88.88 0 0 1 .07-.33l1-2.18a.77.77 0 0 1 .19-.28.75.75 0 0 1 .28-.18.87.87 0 0 1 .32-.06.89.89 0 0 1 .33.08.83.83 0 0 1 .27.19.84.84 0 0 1 .18.28 1 1 0 0 1 .06.33 1 1 0 0 1 -.07.33l-1 2.18a.87.87 0 0 1 -.19.28 1.34 1.34 0 0 1 -.28.18.91.91 0 0 1 -.65 0zm-.84-5.27a.87.87 0 0 1 -.28-.19.9.9 0 0 1 -.15-.28.92.92 0 0 1 -.06-.33 1 1 0 0 1 .06-.33l1-2.18a.77.77 0 0 1 .19-.28.75.75 0 0 1 .28-.18.79.79 0 0 1 .65 0 .74.74 0 0 1 .27.19.84.84 0 0 1 .18.28 1 1 0 0 1 .06.33.93.93 0 0 1 -.07.33l-1 2.18a.77.77 0 0 1 -.19.28.9.9 0 0 1 -.28.18.7.7 0 0 1 -.32.05.78.78 0 0 1 -.33-.07zm-3 .12a.86.86 0 0 1 -.43-1.13l.37-.84a1 1 0 0 1 .19-.27.86.86 0 0 1 .61-.24 1 1 0 0 1 .33.07.86.86 0 0 1 .27.2.75.75 0 0 1 .18.28.79.79 0 0 1 0 .65l-.36.83a.74.74 0 0 1 -.19.27.75.75 0 0 1 -.3.21.84.84 0 0 1 -.65 0zm10.17-.41a.82.82 0 0 1 -.62.2.84.84 0 0 1 -.58-.29l-1.54-1.81a.75.75 0 0 1 -.16-.29.93.93 0 0 1 0-.33.9.9 0 0 1 .09-.32.75.75 0 0 1 .21-.26.78.78 0 0 1 .28-.16.75.75 0 0 1 .33 0 .9.9 0 0 1 .32.09.75.75 0 0 1 .26.21l1.54 1.8a.83.83 0 0 1 .2.62.8.8 0 0 1 -.29.58zm5.2 7.14a.9.9 0 0 1 -.32.09.75.75 0 0 1 -.33 0 .92.92 0 0 1 -.29-.16.86.86 0 0 1 -.2-.26l-.38-.76a.84.84 0 0 1 .38-1.14.8.8 0 0 1 .31-.09.72.72 0 0 1 .33 0 .75.75 0 0 1 .29.16.82.82 0 0 1 .2.26l.38.76a.82.82 0 0 1 0 .65.85.85 0 0 1 -.42.49zm-14.93-.22a.9.9 0 0 1 -.32.09.93.93 0 0 1 -.33 0 .81.81 0 0 1 -.28-.17.75.75 0 0 1 -.21-.26l-1.08-2.14a.85.85 0 0 1 -.09-.32 1.24 1.24 0 0 1 0-.33 1 1 0 0 1 .17-.29.86.86 0 0 1 .26-.2.85.85 0 0 1 .31-.09.72.72 0 0 1 .33 0 .75.75 0 0 1 .29.16.82.82 0 0 1 .2.26l1.08 2.13a.85.85 0 0 1 .05.65.86.86 0 0 1 -.42.5zm18.39-5.05-.14.07a.81.81 0 0 1 -.59.05.77.77 0 0 1 -.44-.39l-.79-1.56a.77.77 0 0 1 .34-1l.15-.08a.73.73 0 0 1 .58 0 .75.75 0 0 1 .44.38l.79 1.55a.81.81 0 0 1 0 .59.75.75 0 0 1 -.37.45z" fill="#e9d6d6"/></g></svg>