<svg xmlns="http://www.w3.org/2000/svg" xmlns:xlink="http://www.w3.org/1999/xlink" viewBox="0 0 60 60"><defs><clipPath id="a"><rect x="20.5" y="14" width="19" height="32" style="fill:none"/></clipPath></defs><rect width="60" height="60" style="fill:none"/><g style="clip-path:url(#a)"><path d="M20.5,30.17v.09a3.36,3.36,0,0,0,1.08,2.23l0,0,11.85,12.4a3.6,3.6,0,0,0,1.11.78,3.79,3.79,0,0,0,1.33.3,3.59,3.59,0,0,0,1.34-.22,3.4,3.4,0,0,0,2.25-3.1,3.31,3.31,0,0,0-.22-1.32,3.35,3.35,0,0,0-.72-1.13L28.77,30l9.79-10.23a3.41,3.41,0,0,0-.63-5.21A3.58,3.58,0,0,0,36,14h-.11a3.4,3.4,0,0,0-1.33.3,3.44,3.44,0,0,0-1.11.78L21.62,27.46l0,0a3.38,3.38,0,0,0-1.09,2.25V30C20.51,30,20.5,30.11,20.5,30.17Z" style="fill:#e9d6d6"/></g></svg>