<svg viewBox="0 0 60 60" xmlns="http://www.w3.org/2000/svg" xmlns:xlink="http://www.w3.org/1999/xlink"><clipPath id="a"><path d="m8.8 14h42.4v32h-42.4z"/></clipPath><path d="m0 0h60v60h-60z" fill="none"/><g clip-path="url(#a)" fill="#e9d6d6"><path d="m50.32 20.21h-40.64a.85.85 0 0 1 -.59-.2.83.83 0 0 1 -.29-.55v-3.77a.88.88 0 0 1 .25-.54.8.8 0 0 1 .55-.22 224.43 224.43 0 0 1 40.82 0 .83.83 0 0 1 .78.76v3.77a.83.83 0 0 1 -.29.55.85.85 0 0 1 -.59.2z"/><path d="m50.32 39.79h-40.64a.85.85 0 0 0 -.59.2.83.83 0 0 0 -.29.55v3.77a.88.88 0 0 0 .25.54.8.8 0 0 0 .55.22 224.43 224.43 0 0 0 40.82 0 .83.83 0 0 0 .78-.76v-3.77a.83.83 0 0 0 -.29-.55.85.85 0 0 0 -.59-.2z"/><path d="m50.38 27.4h-40.76a.82.82 0 0 0 -.82.82v3.56a.82.82 0 0 0 .82.82h40.76a.82.82 0 0 0 .82-.82v-3.56a.82.82 0 0 0 -.82-.82z"/></g></svg>