<svg viewBox="0 0 60 60" xmlns="http://www.w3.org/2000/svg" xmlns:xlink="http://www.w3.org/1999/xlink"><clipPath id="a"><path d="m20.5 14h19v32h-19z"/></clipPath><path d="m0 0h60v60h-60z" fill="none"/><g clip-path="url(#a)"><path d="m39.49 30v-.26a3.38 3.38 0 0 0 -1.09-2.25l-11.87-12.41a3.44 3.44 0 0 0 -1.11-.78 3.4 3.4 0 0 0 -1.33-.3h-.09a3.58 3.58 0 0 0 -1.91.56 3.39 3.39 0 0 0 -.63 5.21l9.77 10.23-9.78 10.23a3.35 3.35 0 0 0 -.72 1.13 3.31 3.31 0 0 0 -.22 1.32 3.46 3.46 0 0 0 2.25 3.1 3.59 3.59 0 0 0 1.34.22 3.79 3.79 0 0 0 1.33-.3 3.6 3.6 0 0 0 1.11-.78l11.85-12.4a3.36 3.36 0 0 0 1.08-2.23v-.09c.03-.09.02-.2.02-.2z" fill="#e9d6d6"/></g></svg>