<svg xmlns="http://www.w3.org/2000/svg" viewBox="0 0 60 60"><rect width="60" height="60" style="fill:none"/><path d="M45.11,35.82V23.37h-.06c-.34-1.72-2-3-4.43-4-1,1.78-2.94,4.75-4.61,5.55a7.45,7.45,0,0,1-3,.47,32.41,32.41,0,0,1-5.79-.66l-.4-.08.19-.37c.11-.21,2.49-4.85,4.73-6.54-1.4-.06-2.82,0-4.21,0a4,4,0,1,1-5.5-1.1,8.15,8.15,0,0,1,1.54-2.49A14,14,0,0,1,29.7,9.86C31.91,9,33.24,8.17,33,5a1.85,1.85,0,0,1,0-.23,15.85,15.85,0,0,1,2.65,2.53,13.45,13.45,0,0,1,3.14,6.21,8.93,8.93,0,0,1,.06,3.7c.91.12,1.66.26,2.06.34A11,11,0,0,0,40.79,13a15.58,15.58,0,0,0-3.63-7.18C34.61,3,33.08,2,31.89,2.53c-.81.35-1.15,1.22-1,2.61.17,1.9-.2,2.05-2,2.77A16.31,16.31,0,0,0,22,12.86c-2,2.32-2.65,4.44-2,6.32-2.71.94-4.64,2.34-5,4.19h-.06V35.82C9,38,5.28,41.5,5.28,45.48S9,52.94,14.89,55.14c.93.35,1.91.66,2.94.94A46.84,46.84,0,0,0,30,57.6a46.84,46.84,0,0,0,12.17-1.52c1-.28,2-.59,2.94-.94,5.88-2.2,9.61-5.68,9.61-9.66S51,38,45.11,35.82Zm-26.5-9.89a54.68,54.68,0,0,0,15.17,1.66c.14,0,0,.16-.39.22a44,44,0,0,1-5.38.41,25.69,25.69,0,0,1-9.63-1.65A.34.34,0,0,1,18.61,25.93Zm-.78,2.78c1.78.2,3.73.78,3.67,2.38-.21,5.64-.84,6.58-.21,8.27.2.53,1.5,2,2.31,1,1.61-2.22-.84-7,.07-8.7,1.11-2.11,4.34-.51,4.86.33s.11,4.12,0,6.52-.31,5,2,3.73-1.25-7,.42-10.35a3,3,0,0,1,2.23-1.77l.21,0a3,3,0,0,1,2,.66c1.76,1.35,1.35,6.42,1.12,8a5.5,5.5,0,0,0,0,1.62c.14.94.57,2,1.83,1.47,2.1-.94-.55-3.8.21-10,.21-1.7,2.19-3.29,2.73-3.77l.13-.1.45-.22a2.25,2.25,0,0,1,.36-.06V45.34c-.1,1.17-1.09,1.63-3.05,2.32A28.57,28.57,0,0,1,30,49c-7.19-.09-12.15-1.85-12.17-3.63ZM45.11,52.27a26.54,26.54,0,0,1-2.94,1A42.66,42.66,0,0,1,30,55a42.66,42.66,0,0,1-12.17-1.68,26.54,26.54,0,0,1-2.94-1c-4.11-1.74-6.71-4.16-6.71-6.79s2.6-5,6.71-6.79v6a5.08,5.08,0,0,0,2.94,4.49c6.22,3.18,18.21,3.32,24.34,0A5.5,5.5,0,0,0,45.11,44V38.69c4.11,1.74,6.71,4.16,6.71,6.79S49.22,50.53,45.11,52.27Z" style="fill:#e9d6d6"/><path d="M40.46,18.06h-.05l-.14,0h-.05L40,18h0c-1.84-.32-5.7-.84-7.35,0-1.81.86-4.06,4.76-4.82,6.16,1-.43,3-1.33,5.08-2.26l.06,0,2.76-1.25.33-1.08.2.06L36,20.6l1.6,1-.11.18-1.62-1-2.4,1.09a11.49,11.49,0,0,1,2.09.92l-.1.19a7.88,7.88,0,0,0-2.32-1L28,24.27c1.62.29,6,1,7.74.11s4.21-5,4.89-6.29Z" style="fill:#e9d6d6"/><path d="M22,20.08a.23.23,0,0,0-.12,0c-.26.11-.33.57-.16,1s.56.67.81.56.33-.56.16-1A.89.89,0,0,0,22,20.08Z" style="fill:#e9d6d6"/><path d="M27.57,19.71a.5.5,0,0,0,0-.12.75.75,0,0,0,0-.2l0-.14a.94.94,0,0,0,0-.16c0-.05,0-.1-.05-.15l0-.14-.07-.16a1.17,1.17,0,0,1-.05-.11l-.09-.17a.22.22,0,0,1-.05-.08L27,18.1l0-.05-.14-.19h0a3.39,3.39,0,0,0-2.56-1.19,3.34,3.34,0,0,0-2.39,1h0a3.27,3.27,0,0,0-.57.77h0c-.05.1-.1.19-.14.29s0,0,0,0-.07.18-.1.27,0,.06,0,.09a1.55,1.55,0,0,0-.06.23l0,.16a1,1,0,0,0,0,.17c0,.11,0,.23,0,.34a3.36,3.36,0,0,0,6.72,0C27.59,19.92,27.58,19.81,27.57,19.71Zm-4.76,2.51a.84.84,0,0,1-.38.08,1.48,1.48,0,0,1-1.26-1,1.33,1.33,0,0,1,.49-1.81,1.34,1.34,0,0,1,1.64.9h0A1.32,1.32,0,0,1,22.81,22.22Z" style="fill:#e9d6d6"/></svg>