<svg viewBox="0 0 60 60" xmlns="http://www.w3.org/2000/svg" xmlns:xlink="http://www.w3.org/1999/xlink"><clipPath id="a"><path d="m20.5 14h19v32h-19z"/></clipPath><path d="m0 0h60v60h-60z" fill="none"/><g clip-path="url(#a)"><path d="m20.5 30.17v.09a3.36 3.36 0 0 0 1.08 2.23l11.85 12.4a3.6 3.6 0 0 0 1.11.78 3.79 3.79 0 0 0 1.33.3 3.59 3.59 0 0 0 1.34-.22 3.4 3.4 0 0 0 2.25-3.1 3.31 3.31 0 0 0 -.22-1.32 3.35 3.35 0 0 0 -.72-1.13l-9.75-10.2 9.79-10.23a3.41 3.41 0 0 0 -.63-5.21 3.58 3.58 0 0 0 -1.93-.56h-.11a3.4 3.4 0 0 0 -1.33.3 3.44 3.44 0 0 0 -1.11.78l-11.83 12.38a3.38 3.38 0 0 0 -1.09 2.25v.29c-.02 0-.03.11-.03.17z" fill="#e9d6d6"/></g></svg>