<svg viewBox="0 0 60 60" xmlns="http://www.w3.org/2000/svg" xmlns:xlink="http://www.w3.org/1999/xlink"><clipPath id="a"><path d="m10.8 2h38.4v56h-38.4z"/></clipPath><path d="m0 0h60v60h-60z" fill="none"/><g clip-path="url(#a)"><path d="m36.69 8.26c-1.18-.84-2.3-1.61-3.2-2.29-1.59-1.26-4.63-3.61-4.79-3.71a1.2 1.2 0 0 0 -.57-.26 1.28 1.28 0 0 0 -.61.06 1.36 1.36 0 0 0 -.5.36 1.31 1.31 0 0 0 -.26.56 10.75 10.75 0 0 1 -1.82 4c-1 1.13-2.29 2.43-3.71 3.79-5.42 5.23-12.8 12.43-9.79 21.59a12 12 0 0 0 1.89 3.64 1.13 1.13 0 0 0 -.47.42 1.22 1.22 0 0 0 -.17.61v19.82a1.18 1.18 0 0 0 .09.46 1.22 1.22 0 0 0 .26.38 1.18 1.18 0 0 0 .8.31l30.39-1.37a1.16 1.16 0 0 0 1.1-1.16v-19.84a1.19 1.19 0 0 0 -.35-.84 14.85 14.85 0 0 0 4.08-8.87c1.15-8.18-6.99-13.92-12.37-17.66zm6.4 46.11-28.09 1.27v-4.84l16.16-.8a.84.84 0 0 0 .56-.28.82.82 0 0 0 .22-.59.84.84 0 0 0 -.86-.8l-16 .83v-4.87l11.35-.58 2.29-.11 2.48-.13a.73.73 0 0 0 .36 0 .88.88 0 0 0 .32-.16 1 1 0 0 0 .22-.28.86.86 0 0 0 .07-.36.84.84 0 0 0 -.07-.35.88.88 0 0 0 -.22-.28.74.74 0 0 0 -.32-.16.73.73 0 0 0 -.36 0l-4.2.19-2.38.13-9.45.48v-4.44h.44l4.8-.23h2.64l11.95-.54 7.54-.34h.76zm3.55-28.79a11.68 11.68 0 0 1 -5.42 9l-4.22.22c-6-3.11-5.81-10.31-5.7-15.62a29 29 0 0 0 0-3.73.84.84 0 0 0 -.31-.56.81.81 0 0 0 -1.15.14.8.8 0 0 0 -.17.61 29.19 29.19 0 0 1 0 3.5c-.11 4.85-.27 11.79 4.51 15.79l-12.44.57c-1.14-3-1.15-7.09 1.6-12.27s3.2-5.94 3.47-9.07a.84.84 0 0 0 -.18-.61.8.8 0 0 0 -1.14-.12.83.83 0 0 0 -.31.55c-.29 2.79-.59 3.44-3.2 8.46a18.64 18.64 0 0 0 -2.59 9.44 12.29 12.29 0 0 0 .69 3.7l-3.52.16a9.29 9.29 0 0 1 -2.67-4.17c-2.56-7.68 3.93-14 9.16-19a54.23 54.23 0 0 0 3.87-4 11 11 0 0 0 1.82-3.22c.93.72 2.15 1.61 3 2.35a23.93 23.93 0 0 1 2.42 6.38c.84 3.32 1.6 6.46 6.83 11.62a.78.78 0 0 0 .57.24.8.8 0 0 0 .58-.24.85.85 0 0 0 0-1.18c-4.8-4.84-5.57-7.63-6.4-10.84a28.2 28.2 0 0 0 -1.16-3.88l.74.51c4.88 3.43 11.45 8.08 11.45 14.14a8.78 8.78 0 0 1 -.11 1.15z" fill="#e9d6d6"/></g></svg>