<svg viewBox="0 0 60 60" xmlns="http://www.w3.org/2000/svg" xmlns:xlink="http://www.w3.org/1999/xlink"><clipPath id="a"><path d="m5.6 8.4h48.8v43.2h-48.8z"/></clipPath><path d="m0 0h60v60h-60z" fill="none"/><g clip-path="url(#a)"><path d="m28.78 9.39-22.39 22.15a.44.44 0 0 0 -.13.24.39.39 0 0 0 0 .26.42.42 0 0 0 .16.21.5.5 0 0 0 .26.08h2.59a1.57 1.57 0 0 1 1.57 1.57v15.7a1.59 1.59 0 0 0 1.57 1.58h10.14a1.73 1.73 0 0 0 .6-.12 1.5 1.5 0 0 0 .51-.35 1.47 1.47 0 0 0 .34-.51 1.53 1.53 0 0 0 .12-.6v-9.32a1.59 1.59 0 0 1 1.57-1.58h9.31a1.59 1.59 0 0 1 1.57 1.58v9.32a1.59 1.59 0 0 0 1.57 1.58h9.86a1.59 1.59 0 0 0 1.57-1.58v-15.7a1.57 1.57 0 0 1 1.58-1.57h2.56a.44.44 0 0 0 .25-.08.39.39 0 0 0 .17-.21.46.46 0 0 0 0-.26.51.51 0 0 0 -.13-.24l-22.38-22.15a2 2 0 0 0 -2.84 0z" fill="#e9d6d6"/></g></svg>