<svg fill="none" height="157" viewBox="0 0 551 157" width="551" xmlns="http://www.w3.org/2000/svg"><g fill="#e9d6d6"><path d="m11.832 15.5889h-6.53805l-.71094 1.625c-.33854.7955-.50781 1.4515-.50781 1.9677 0 .4401.09733.821.29199 1.1426.20312.3132.49935.5755.88867.7871.39779.2032.91829.3682 1.56152.4951v.3936h-6.588864v-.3809c.795574-.2708 1.476884-.7448 2.043944-1.4218.57552-.6771 1.18066-1.7308 1.81543-3.1612l5.61133-12.69528h.33008l6.1064 13.72368c.017.0084.0297.0338.0381.0761.017.0339.0339.072.0508.1143.0254.0423.0508.0889.0762.1396l.5586 1.1553c.3047.6178.6517 1.0833 1.041 1.3965.3893.3131.876.5332 1.46.6601v.3936h-8.0997v-.3936c.6856-.0507 1.1765-.1311 1.4727-.2412.6094-.2285.9141-.6263.9141-1.1933 0-.2793-.1355-.7364-.4063-1.3711zm-.2412-.5332-3.05955-6.89359-3.00879 6.89359zm-2.79295-7.43949 4.88765 11.00679.127.2793c.2624.5671.3936.9818.3936 1.2442 0 .3639-.2074.7659-.6221 1.206h3.3515c-.3808-.3554-.7109-.7617-.9902-1.2187-.2793-.4655-.6051-1.1087-.9775-1.9297l-5.44632-12.25098zm-4.44336 13.73629c-.28776-.347-.49088-.6559-.60937-.9267-.11849-.2793-.17774-.5798-.17774-.9014 0-.1439.00423-.2581.0127-.3428-.26237.5079-.52051.9183-.77442 1.2315-.2539.3047-.59668.6178-1.02832.9394zm23.70721-.5332c-1.041.8802-2.1582 1.3203-3.3515 1.3203-.9564 0-1.7224-.2454-2.2979-.7363-.5671-.4993-.8506-1.151-.8506-1.9551 0-1.1425.5586-2.0397 1.6758-2.6914s2.7253-1.0198 4.8242-1.1045v-.3554-.1778c0-.6601-.0296-1.1976-.0888-1.6123-.0593-.4231-.1439-.7405-.254-.9521-.1269-.2455-.3089-.4401-.5459-.584-.2285-.1523-.4781-.2285-.749-.2285-.3978 0-.7109.1312-.9394.3935-.2285.2539-.3724.6517-.4317 1.1934-.0677.5332-.1777.8971-.33 1.0918-.1524.1862-.4148.2793-.7872.2793-.2877 0-.5289-.1016-.7236-.3047s-.292-.4655-.292-.7871c0-.4316.1566-.821.4697-1.168.3132-.3554.7448-.6347 1.295-.8379.5586-.2031 1.1679-.3046 1.8281-.3046.8548 0 1.6038.1735 2.2471.5205.6432.3385 1.1214.8125 1.4345 1.4218.1693.3132.2878.6644.3555 1.0537.0762.3894.1143.9268.1143 1.6123v3.6563c0 .7025.1015 1.2018.3046 1.498.2116.2963.6052.4952 1.1807.5967v.3428h-4.0879zm0-.5586v-4.2021c-.8209.1269-1.5277.3385-2.1201.6348-.584.2962-1.0326.6728-1.3457 1.1298-.3132.4571-.4697.9607-.4697 1.5108 0 .5586.165 1.0241.4951 1.3965.3385.3639.7617.5459 1.2695.5459.6263 0 1.35-.3386 2.1709-1.0157zm.4317 1.1807h1.8789l-.292-.2285s-.0085-.0042-.0254-.0127c-.0085-.0169-.0169-.0254-.0254-.0254l-.165-.1269c-.127-.127-.1905-.2878-.1905-.4825v-.2539l-.0127-.1269v-4.3164c0-1.1765-.1354-2.0567-.4062-2.6407-.3809-.7786-.9776-1.278-1.7901-1.498.5417.3809.8591.986.9522 1.8154.0508.5078.0762 1.2949.0762 2.3613zm-3.2247.3428c-1.4388-.2962-2.1582-1.0834-2.1582-2.3613 0-.8295.3344-1.5404 1.003-2.1329.2962-.2623.8675-.5966 1.7138-1.0029-1.024.1947-1.8196.4613-2.3867.7998-.9648.5925-1.4472 1.3753-1.4472 2.3486 0 .7025.2539 1.2738.7617 1.7139.5163.4317 1.1806.6475 1.9931.6475.1947 0 .3682-.0043.5205-.0127zm0-10.0293c-.5924.1523-1.0706.402-1.4345.749-.3555.3385-.5332.7194-.5332 1.1426 0 .1608.0381.2877.1142.3808.0762.0931.1778.1397.3047.1397.1185 0 .2074-.0339.2666-.1016.0593-.0761.11-.2243.1524-.4443.0931-.474.2116-.8294.3554-1.0664.1524-.2455.4105-.5121.7744-.7998z"/><path d="m61.6982 22v-.3936c.8972-.1523 1.5531-.5035 1.9678-1.0537.3132-.4147.4697-1.2229.4697-2.4248v-9.58493c0-.7194-.0423-1.26107-.1269-1.625-.0846-.3724-.2412-.68555-.4697-.93945-.4063-.47396-1.0199-.77865-1.8409-.91407v-.39355l.2032.01269 1.5234.10157c.5417.03385 1.0749.05078 1.5996.05078.4401 0 .9606-.01693 1.5615-.05078.6009-.04232 1.058-.08041 1.3711-.11426l1.2823-.13965c.457-.05078.9309-.07617 1.4218-.07617.8718 0 1.6589.10156 2.3614.30469.7109.20312 1.316.49511 1.8154.87597.4993.3724.8844.8252 1.1553 1.3584.2708.52474.4062 1.10872.4062 1.75195 0 .9987-.3174 1.83661-.9521 2.51371-.6263.677-1.5404 1.1679-2.7422 1.4726.9987.1016 1.8789.3682 2.6406.7998.7617.4317 1.3457.9987 1.752 1.7012.4147.694.622 1.4769.622 2.3486 0 .711-.1354 1.35-.4062 1.917-.2709.5586-.6729 1.0495-1.2061 1.4727-.5332.4147-1.1764.7278-1.9297.9394-.7532.2116-1.5784.3174-2.4756.3174-.4654 0-1.1383-.0381-2.0185-.1142-1.2865-.1016-2.1667-.1651-2.6406-.1905-.7702-.0423-1.4727-.0634-2.1075-.0634-.4993 0-1.0579.0169-1.6757.0507l-1.3077.0762zm5.3448-9.3564h2.0566c1.2188 0 2.1497-.2455 2.793-.7364.4401-.3216.7913-.7575 1.0537-1.3076.2624-.5586.3935-1.14257.3935-1.75194 0-.73633-.1565-1.39649-.4697-1.98047-.3131-.58399-.749-1.04102-1.3076-1.3711-.5586-.33007-1.1849-.49511-1.8789-.49511-.5501 0-1.0241.10156-1.4219.30468-.3978.20313-.7067.49512-.9267.87598-.1947.38086-.292.986-.292 1.81543zm0 .4951v5.3447c0 1.1003.2496 1.8789.749 2.3359.5078.4486 1.3669.6729 2.5771.6729 1.3796 0 2.4291-.3936 3.1485-1.1807.7109-.7786 1.0664-1.7477 1.0664-2.9072 0-.4909-.0635-.9437-.1904-1.3584-.1185-.4232-.3005-.8083-.5459-1.1553-.237-.347-.5248-.6432-.8633-.8886-.3386-.254-.7237-.4444-1.1553-.5713-.584-.1947-1.4557-.292-2.6152-.292zm5.459 8.4043c.7955-.127 1.4938-.3682 2.0947-.7237.6009-.3639 1.0622-.8209 1.3838-1.3711.33-.5501.4951-1.1595.4951-1.8281 0-.9564-.3174-1.8069-.9522-2.5517-.6347-.7448-1.5234-1.3077-2.666-1.6885 1.4727.9564 2.209 2.3021 2.209 4.0371 0 1.9805-.8548 3.3558-2.5644 4.126zm-.584-9.1407c1.041-.3046 1.8408-.7786 2.3994-1.4218.567-.6433.8506-1.41344.8506-2.31058 0-.9056-.2836-1.66308-.8506-2.27246-.5671-.61784-1.405-1.06217-2.5137-1.33301 1.3457.94792 2.0186 2.18783 2.0186 3.71973 0 1.62502-.6348 2.83102-1.9043 3.61812zm-8.4297 8.9248c.6686-.0846 1.2272-.1269 1.6758-.1269.4062 0 .9352.0338 1.5869.1016l.3047.0253-.4444-.3427c-.2877-.2116-.4739-.3809-.5586-.5078-.0761-.127-.1142-.3174-.1142-.5713v-.419c0-.0761-.0043-.1269-.0127-.1523 0-.0254 0-.0466 0-.0635v-11.87011c0-.02539 0-.05078 0-.07617.0084-.02539.0127-.07194.0127-.13965v-.41895c0-.17773.0127-.31738.0381-.41894.0338-.10156.0931-.19466.1777-.2793.0846-.0931.237-.22005.457-.38086l.6729-.50781-.4571.03809c-.6516.05924-1.2229.08886-1.7138.08886-.5586 0-1.1765-.04655-1.8535-.13964l.6728.5205c.2962.22006.4824.39356.5586.52051.0762.11849.1143.30469.1143.55859v.41895.21582 11.87011.2158.419c0 .2539-.0381.4443-.1143.5713-.0762.1185-.2624.2877-.5586.5078zm19.9113-8.4296c.6517-.5502 1.2526-.9437 1.8027-1.1807.5586-.237 1.1807-.3555 1.8663-.3555.7278 0 1.388.127 1.9804.3809.6009.2454 1.1257.5967 1.5742 1.0537.4571.4486.8083.9733 1.0538 1.5742.2539.5925.3808 1.2526.3808 1.9805 0 .7956-.1439 1.5446-.4316 2.2471-.2793.694-.6771 1.3203-1.1934 1.8789s-1.1172.9944-1.8027 1.3076c-.6771.3131-1.3796.4697-2.1074.4697-1.2103 0-2.3444-.4697-3.4024-1.4092l-1.9424 1.1553h-.3808v-14.70117c0-.70248-.1058-1.20606-.3174-1.51074-.2116-.30469-.6009-.49935-1.168-.58399v-.2793l4.0879-.46972zm0 7.249c.5925.5417 1.1172.931 1.5742 1.168.4571.2285.8972.3427 1.3203.3427.6094 0 1.1426-.1904 1.5996-.5713.4655-.3893.821-.9394 1.0665-1.6504.2539-.7109.3808-1.5488.3808-2.5136 0-.7279-.0719-1.3923-.2158-1.9932-.1354-.6094-.3385-1.1383-.6094-1.5869-.2624-.457-.5797-.8083-.9521-1.0537-.364-.2455-.7617-.3682-1.1934-.3682-.4655 0-.9352.1439-1.4092.4317-.4739.2793-.9944.7236-1.5615 1.333zm4.0879-8.3662c.804.5247 1.388 1.1891 1.752 1.9931.3639.8041.5459 1.8409.5459 3.1104 0 1.0156-.1228 1.8662-.3682 2.5517-.237.6856-.6475 1.3204-1.2315 1.9043.5756-.2793 1.0707-.6559 1.4854-1.1298.4232-.474.7448-1.0284.9648-1.6631.2286-.6348.3428-1.3076.3428-2.0186 0-.8209-.1481-1.5657-.4443-2.2344-.2878-.6686-.6983-1.2229-1.2315-1.663-.5247-.4401-1.1299-.7237-1.8154-.8506zm-6.2461 9.5849 1.168-.7363v-15.64062l-2.0821.22852.4952.35547c.0084 0 .0254.01269.0507.03808l.1651.12695c.0846.05925.1396.14812.165.26661.0254.11002.0381.30892.0381.59668z"/><path d="m137.021 4.86133 1.486 4.53222h-.432c-.415-.80403-.85-1.49381-1.307-2.06933-.449-.57552-.923-1.04102-1.422-1.39649-.491-.36393-1.016-.63053-1.575-.7998-.558-.16927-1.189-.25391-1.891-.25391-.999 0-1.93.19043-2.793.57129s-1.612.9183-2.247 1.61231-1.13 1.51497-1.486 2.46289c-.347.94789-.52 1.96779-.52 3.05959 0 1.6504.326 3.1569.978 4.5195.651 1.3542 1.544 2.4206 2.678 3.1992 1.143.7702 2.408 1.1553 3.796 1.1553.957 0 1.849-.1862 2.679-.5586.838-.3724 1.583-.9098 2.234-1.6123.652-.7025 1.219-1.5869 1.701-2.6533h.521c-.711 1.8789-1.782 3.305-3.212 4.2783-1.43.9648-3.178 1.4473-5.243 1.4473-2.412 0-4.41-.6517-5.992-1.9551-.677-.5671-1.249-1.2103-1.714-1.9297-.457-.7194-.809-1.5065-1.054-2.3613-.245-.8633-.368-1.7477-.368-2.6533 0-1.6843.423-3.2247 1.269-4.62114.855-1.39648 2.027-2.49251 3.517-3.28808 1.498-.80404 3.153-1.20606 4.964-1.20606.762 0 1.765.11003 3.009.33008.863.16081 1.489.24121 1.879.24121.169 0 .351-.01693.545-.05078zm-6.538 17.06247c-1.074-.2962-2.048-.7194-2.92-1.2695-.871-.5501-1.599-1.2061-2.183-1.9678s-1.028-1.625-1.333-2.5898c-.296-.9733-.444-2.0313-.444-3.1738 0-.8464.076-1.6081.228-2.2852.152-.67709.398-1.32032.736-1.92969.347-.61784.783-1.18913 1.308-1.71387s1.164-1.04102 1.917-1.54883c-.889.39779-1.672.87175-2.349 1.42188-.677.54166-1.248 1.15527-1.714 1.84082-.465.67708-.816 1.42189-1.053 2.23439-.237.804-.356 1.6461-.356 2.5264 0 .9479.136 1.8535.407 2.7167.27.8633.655 1.6547 1.155 2.3741.499.7194 1.104 1.3287 1.815 1.8281.711.4909 1.443.859 2.197 1.1045.761.237 1.625.3808 2.589.4316zm20.724-2.4883.292.3555c-.558.6263-1.075 1.1214-1.549 1.4854-.465.3554-.939.6093-1.421.7617-.483.1523-1.037.2285-1.664.2285-.99 0-1.874-.2116-2.653-.6348-.779-.4316-1.388-1.0367-1.828-1.8154-.44-.7871-.66-1.6631-.66-2.6279 0-.7871.148-1.5446.444-2.2725.296-.7278.703-1.3584 1.219-1.8916s1.13-.9479 1.841-1.2441c.719-.3047 1.468-.4571 2.247-.4571.719 0 1.392.1355 2.018.4063.627.2624 1.122.6178 1.486 1.0664.372.4486.558.9395.558 1.4727 0 .347-.105.6432-.317.8886-.203.237-.461.3555-.774.3555-.458 0-.8-.2201-1.029-.6602-.101-.1946-.182-.5797-.241-1.1552-.068-.5671-.178-.9733-.33-1.2188-.136-.2285-.33-.4062-.584-.5332-.254-.1354-.542-.2031-.863-.2031-.584 0-1.101.2031-1.549.6094-.449.4062-.796.9733-1.041 1.7011-.237.7279-.356 1.5743-.356 2.5391 0 .9564.14 1.8112.419 2.5644.28.7448.669 1.3204 1.168 1.7266.508.3978 1.096.5967 1.765.5967.381 0 .749-.0677 1.104-.2031.356-.1439.724-.3682 1.105-.6729.389-.3131.787-.7025 1.193-1.168zm-4.392 2.4883c-2.311-.6009-3.466-2.319-3.466-5.1543 0-1.0664.152-1.955.457-2.666.313-.7109.859-1.3965 1.638-2.0566-2.176 1.1172-3.263 2.8226-3.263 5.1162 0 .8971.199 1.7096.597 2.4375.397.7194.947 1.2864 1.65 1.7012.711.4062 1.506.6136 2.387.622zm2.158-9.8769c.245.3216.402.5924.47.8125.076.2116.148.5797.215 1.1045.068.4485.14.7405.216.8759.085.1355.216.2032.394.2032.279 0 .419-.2032.419-.6094 0-.8379-.572-1.6335-1.714-2.3867z"/><path d="m181.698 22 .038-.3936c.914-.1523 1.579-.5035 1.993-1.0537.322-.4062.483-1.2145.483-2.4248v-9.58493c0-.72787-.042-1.26953-.127-1.625-.076-.36393-.233-.67708-.47-.93945-.423-.47396-1.049-.77865-1.879-.91407v-.39355c.322.01693.487.02539.495.02539l1.486.07617c.482.02539.998.03809 1.549.03809.99 0 2.065-.05078 3.224-.15235 1.075-.08463 1.871-.12695 2.387-.12695 1.354 0 2.581.21159 3.682.63477 1.1.41471 2.052 1.01139 2.856 1.79003.813.77865 1.439 1.70541 1.879 2.78028s.66 2.25557.66 3.54197c0 1.2949-.228 2.4925-.685 3.5928-.449 1.0918-1.096 2.027-1.943 2.8057-.838.7701-1.841 1.3626-3.009 1.7773-1.159.4147-2.454.6221-3.884.6221-.525 0-1.363-.0508-2.514-.1524-.813-.0761-1.604-.1142-2.374-.1142-.542 0-1.143.0169-1.803.0508l-1.726.1269c-.093 0-.199.0042-.318.0127zm5.485-14.21875-.026 9.81345c0 1.0918.098 1.8832.292 2.3741.186.457.5.8124.94 1.0664.448.2454.986.3681 1.612.3681.973 0 1.87-.1989 2.691-.5967.821-.4062 1.537-.9817 2.146-1.7265.618-.7533 1.087-1.6419 1.409-2.666s.482-2.1244.482-3.3008c0-1.5488-.287-2.9369-.863-4.16408-.567-1.22721-1.362-2.18783-2.387-2.88184-1.015-.70247-2.149-1.05371-3.402-1.05371-.99 0-1.722.22429-2.196.67285-.466.44011-.698 1.13835-.698 2.09473zm-3.669 13.57125c.736-.0761 1.4-.1142 1.993-.1142.592 0 1.164.0296 1.714.0888l-.495-.3427c-.254-.1693-.432-.3301-.534-.4824-.093-.1524-.139-.3513-.139-.5967-.009-.1439-.013-.2836-.013-.419v-.2158-11.87011-.21582c0-.13542.004-.27506.013-.41895 0-.2539.038-.44433.114-.57128.085-.12696.271-.29623.559-.50782l.672-.49511c-.744.0677-1.388.10156-1.929.10156-.508 0-1.143-.02962-1.905-.08887l-.228-.01269.673.49511c.271.1862.448.35124.533.49512.093.13542.14.33008.14.58398v.22852c.008.06771.012.13119.012.19043v.21582 11.87011.2158c0 .0508-.004.1101-.012.1778v.2412c0 .2623-.038.457-.115.584-.076.1184-.262.2835-.558.4951zm8.544.0635c.973-.2285 1.811-.5459 2.513-.9521.703-.4063 1.363-.9479 1.981-1.625 1.396-1.5743 2.094-3.4405 2.094-5.5987 0-1.2949-.245-2.4967-.736-3.60543s-1.197-2.04818-2.12-2.81836c-.914-.77865-1.972-1.33301-3.174-1.66309.457.22005.885.46973 1.282.74902.407.27084.762.57129 1.067.90137.313.33008.584.66862.812 1.01563.974 1.48112 1.46 3.24156 1.46 5.28126 0 1.0833-.135 2.1201-.406 3.1103-.271.9903-.66 1.8536-1.168 2.5899-.432.6347-.931 1.1553-1.498 1.5615-.559.3978-1.261.749-2.107 1.0537zm19.378-.7109-.051.0381c-1.143 1.0071-2.357 1.5107-3.644 1.5107-.922 0-1.764-.2158-2.526-.6475-.762-.4401-1.363-1.0452-1.803-1.8154-.431-.7786-.647-1.6292-.647-2.5517 0-1.0241.25-1.989.749-2.8946.508-.9056 1.189-1.6292 2.044-2.1709.855-.5416 1.764-.8125 2.729-.8125 1.109 0 2.159.3978 3.149 1.1934v-5.25587c0-.70248-.106-1.20606-.318-1.51074-.211-.30469-.601-.49935-1.168-.58399v-.2793l4.076-.46972v15.10742c0 .7025.105 1.2018.317 1.498.22.2963.614.4952 1.181.5967v.3428h-4.088zm0-7.4268-.102-.0888c-.55-.474-1.049-.821-1.498-1.0411-.44-.22-.872-.33-1.295-.33-.601 0-1.134.1989-1.599.5966-.466.3894-.826.948-1.08 1.6758-.253.7194-.38 1.57-.38 2.5518 0 .9394.122 1.7816.368 2.5263.245.7448.592 1.3288 1.041 1.752.457.4147.982.6221 1.574.6221.923 0 1.913-.5798 2.971-1.7393zm-4.367 8.5947c-.517-.3046-.898-.5628-1.143-.7744s-.487-.5035-.724-.8759c-.575-.9226-.863-2.0059-.863-3.25 0-1.0326.157-1.9128.47-2.6407.313-.7278.855-1.4769 1.625-2.247-1.067.6178-1.875 1.3668-2.425 2.247-.542.8718-.813 1.8451-.813 2.92 0 1.1595.339 2.1497 1.016 2.9707.686.8209 1.638 1.3711 2.857 1.6503zm4.798-.4316h1.879l-.292-.2285c-.017-.0085-.034-.0212-.05-.0381l-.166-.1269c-.126-.127-.19-.2878-.19-.4825l-.013-.2539v-.1269-15.19632l-2.082.22852.495.35547c.009 0 .026.01269.051.03808l.165.12695c.085.05925.14.13965.165.24122.026.09309.038.30045.038.62207z"/><path d="m260.146 4.6709.482 4.72265h-.406c-.44-1.45572-1.096-2.52636-1.968-3.21191-.863-.69401-1.989-1.04102-3.377-1.04102h-.711c-1.109 0-1.896.21583-2.361.64747-.457.42317-.686 1.13411-.686 2.13281v4.3164h1.689c1.278 0 2.209-.1989 2.793-.5967.584-.4062.986-1.1341 1.206-2.18357h.381v6.42387h-.381c-.17-.8464-.398-1.4896-.686-1.9297-.279-.4486-.677-.7617-1.193-.9395-.508-.1862-1.202-.2793-2.082-.2793h-1.727v5.4971c0 .8379.076 1.4811.229 1.9297.16.4401.436.749.825.9267.398.1778.952.2666 1.663.2666h1.168c1.151 0 2.243-.3554 3.275-1.0664 1.143-.7955 2.264-1.9043 3.365-3.3261l.101-.1397h.444l-1.498 5.1797h-14.993v-.3936c.914-.1523 1.579-.5035 1.993-1.0537.322-.4062.483-1.2145.483-2.4248v-9.58493c0-.77018-.042-1.32878-.127-1.67578-.085-.34701-.241-.64323-.47-.88867-.423-.47396-1.049-.77865-1.879-.91407v-.39355zm-.953.46972h-1.828c.474.19467.855.40626 1.143.63477.288.22852.609.57975.965 1.05371zm-2.92 6.55078c-.237.2201-.423.3724-.558.457-.127.0762-.398.1947-.813.3555.474.1354.931.4105 1.371.8252zm3.517 9.6611.711-2.3613c-.305.3386-.609.6475-.914.9268-.296.2708-.635.5289-1.016.7744-.372.2454-.753.4655-1.142.6601zm-12.314 0h3.707l-.495-.3681c-.288-.2116-.474-.3809-.559-.5078-.076-.127-.114-.3174-.114-.5713 0-.1354-.005-.2243-.013-.2666 0-.0508 0-.1016 0-.1524v-.2158-11.87011-.21582c0-.05078 0-.10156 0-.15234.008-.05078.013-.13965.013-.26661 0-.2539.042-.44856.127-.58398.093-.14388.275-.30892.546-.49512l.723-.5332h-4.164l.724.5332c.287.21159.469.38086.546.50782.084.12695.127.31738.127.57128.008.14389.012.28353.012.41895v.21582 11.87011.2158c0 .1354-.004.2751-.012.419 0 .2623-.039.457-.115.584-.076.1184-.262.2835-.558.4951zm19.454-5.2685v.2793c0 1.0071.148 1.8916.444 2.6533.296.7533.715 1.3372 1.257 1.752.55.4147 1.193.622 1.93.622.389 0 .778-.0635 1.168-.1904.397-.1354.787-.3259 1.168-.5713.389-.2454.825-.5924 1.307-1.041l.254.3428c-.872.8463-1.701 1.4515-2.488 1.8154-.779.3639-1.65.5459-2.615.5459-1.007 0-1.913-.2201-2.717-.6602-.796-.4401-1.414-1.0621-1.854-1.8662-.44-.804-.66-1.7096-.66-2.7168 0-1.0579.241-2.027.724-2.9072.491-.8802 1.155-1.57 1.993-2.0693.846-.4994 1.79-.7491 2.831-.7491.889 0 1.701.182 2.438.5459.744.364 1.324.876 1.739 1.5362.44.6771.685 1.57.736 2.6787zm0-.4444h5.065c-.008-1.1425-.122-1.9635-.342-2.4628-.195-.4571-.474-.8083-.838-1.0538-.364-.2539-.771-.3808-1.219-.3808-1.625 0-2.514 1.2991-2.666 3.8974zm2.971 6.2715c-.601-.0761-1.084-.1904-1.448-.3427-.364-.1524-.719-.3894-1.066-.711-.516-.4739-.918-1.096-1.206-1.8662-.288-.7786-.432-1.625-.432-2.5391 0-.6347.059-1.2187.178-1.7519.127-.5332.317-1.0114.571-1.4346.263-.4232.614-.8252 1.054-1.206-.965.5247-1.705 1.2187-2.222 2.082-.516.8633-.774 1.8281-.774 2.8945 0 .9141.207 1.7478.622 2.501.415.7448.99 1.3288 1.726 1.752.745.4231 1.566.6347 2.463.6347.204 0 .381-.0042.534-.0127zm3.63-6.2715c-.025-.6263-.139-1.1933-.342-1.7011s-.487-.9352-.851-1.2823c-.355-.3554-.779-.6093-1.269-.7617.49.3894.842.8506 1.053 1.3838.22.5332.33 1.2018.33 2.0059 0 .1354-.004.2539-.012.3554z"/><path d="m318.777 4.6709.495 4.72265h-.393c-.313-.99023-.707-1.79427-1.181-2.4121-.474-.61784-1.053-1.07487-1.739-1.3711-.686-.30469-1.498-.45703-2.438-.45703h-.355c-1.109 0-1.896.20736-2.361.62207-.457.40625-.686 1.12142-.686 2.14551v4.3164h1.257c1.278 0 2.209-.1989 2.793-.5967.584-.4062.986-1.1341 1.206-2.18357h.381v6.76657h-.381c-.169-.9563-.398-1.6757-.686-2.1582-.287-.4909-.685-.8336-1.193-1.0283-.499-.2031-1.21-.3047-2.133-.3047h-1.244v5.3955c0 .7533.051 1.3076.152 1.6631.102.347.297.6517.584.9141.508.457 1.266.7575 2.273.9013v.3936h-8.43v-.3936c.914-.1523 1.579-.5035 1.993-1.0537.322-.4062.483-1.2145.483-2.4248v-9.58493c0-.77018-.042-1.32878-.127-1.67578-.085-.34701-.241-.64323-.47-.88867-.423-.47396-1.049-.77865-1.879-.91407v-.39355zm-.939.46972h-1.816c.491.21159.881.43165 1.168.66016.288.22852.597.57129.927 1.02832zm-3.034 6.55078c-.195.1947-.381.3428-.559.4443-.169.1016-.44.2243-.812.3682.482.1439.939.419 1.371.8252zm-8.328 9.6611h3.707l-.495-.3681c-.288-.2116-.474-.3809-.559-.5078-.076-.127-.114-.3174-.114-.5713 0-.1354-.005-.2243-.013-.2666 0-.0508 0-.1016 0-.1524v-.2158-11.87011-.21582c0-.05078 0-.10156 0-.15234.008-.05078.013-.13965.013-.26661 0-.2539.042-.44856.127-.58398.093-.14388.275-.30892.546-.49512l.723-.5332h-4.164l.724.5332c.296.21159.482.37663.558.49512s.115.31315.115.58398c.008.14389.012.28353.012.41895v.21582 11.87011.2158c0 .1354-.004.2751-.012.419 0 .2623-.039.457-.115.584-.076.1184-.262.2835-.558.4951zm18.921-9.75h2.716v.3936h-2.716v7.5664c0 .457.05.8294.152 1.1172.11.2877.292.5078.546.6601.254.1439.605.2497 1.054.3174v.3428h-5.84v-.3428c.584-.1015.977-.3004 1.18-.5967.212-.2962.318-.7955.318-1.498v-7.5664h-1.092v-.3936h1.092v-1.1552c0-.93949.042-1.70544.127-2.29789.084-.60091.224-1.11295.419-1.53613.321-.68555.795-1.22298 1.422-1.6123.626-.39779 1.324-.59668 2.094-.59668.593 0 1.139.12695 1.638.38086.508.2539.901.60091 1.181 1.04101.287.44011.431.92253.431 1.44727 0 .40625-.11.73209-.33.97754-.211.23698-.486.35547-.825.35547-.33 0-.597-.11849-.8-.35547s-.304-.55437-.304-.95215l.025-.62207v-.24121c0-1.04948-.326-1.57422-.978-1.57422-.38 0-.694.19466-.939.58398-.245.38086-.402.92253-.47 1.625-.067.63477-.101 1.62923-.101 2.98339zm-2.819 9.8389h2.539l-.304-.2285c-.017-.0169-.034-.0296-.051-.0381l-.152-.1269c-.127-.1185-.191-.2793-.191-.4825l-.013-.2539v-.1269-9.9658c0-.78716.022-1.4854.064-2.09478.051-.61784.135-1.13411.254-1.54882.127-.42318.296-.76596.508-1.02832.211-.27084.469-.51205.774-.72364-.542.19466-.994.43587-1.358.72364-.356.28776-.639.65169-.851 1.09179-.203.43164-.347.96061-.432 1.58692-.084.61783-.127 1.40071-.127 2.34861v9.6104c0 .347-.016.5628-.05.6474-.026.0847-.123.1989-.292.3428-.017.0169-.03.0254-.038.0254 0 0-.005.0042-.013.0127zm5.117-16.55468c.211.15234.363.3597.457.62207.093.25391.139.60514.139 1.05371 0 .21159-.004.43164-.012.66016v.07617.01269.02539c0 .53321.173.79981.52.79981.339 0 .508-.26237.508-.78711 0-.59245-.148-1.11296-.445-1.56152-.296-.45704-.685-.75749-1.167-.90137z"/><path d="m373.072 4.88672 1.46 4.58301h-.381c-.863-1.63347-1.785-2.81413-2.767-3.542-.982-.72786-2.15-1.09179-3.504-1.09179-.99 0-1.934.20735-2.831.62207-.889.41471-1.672 1.01562-2.349 1.80273-1.244 1.43034-1.866 3.24156-1.866 5.43356 0 1.6758.322 3.1908.965 4.545.643 1.3541 1.532 2.4163 2.666 3.1865s2.391 1.1553 3.77 1.1553c.855 0 1.617-.1397 2.286-.419.668-.2878 1.142-.6728 1.421-1.1553.263-.4485.394-1.1764.394-2.1836v-.4316c0-.7448-.055-1.3034-.165-1.6758-.102-.3724-.288-.6898-.559-.9521-.516-.4825-1.273-.766-2.272-.8506v-.3936h7.82v.3936c-.677.1523-1.185.5036-1.523 1.0537-.237.4232-.356 1.2314-.356 2.4248v2.3105l.775 1.168c-.119-.0084-.254-.0127-.407-.0127-.651 0-1.278.055-1.878.1651-.601.11-1.38.3173-2.336.622-.914.2963-1.697.4951-2.349.5967-.643.11-1.329.165-2.057.165-2.759 0-4.921-.7701-6.487-2.3105-.855-.8548-1.523-1.8577-2.006-3.0088-.474-1.1595-.711-2.3444-.711-3.5547 0-1.2526.246-2.4417.737-3.56736.49-1.12565 1.172-2.11165 2.043-2.958.872-.84636 1.888-1.50651 3.047-1.98047 1.16-.48242 2.387-.72364 3.682-.72364.736 0 1.621.08041 2.653.24122.153.01692.33.04654.534.08886.211.03386.609.10157 1.193.20313.305.05924.554.08886.749.08886.034 0 .093-.00423.178-.01269.084-.00846.177-.0127.279-.0127.059 0 .11-.00423.152-.01269zm-1.688 9.08988.749.5586c.288.2115.47.3808.546.5078.084.1269.127.3174.127.5713v.2285c.008.0677.012.1312.012.1904v.2158 1.9297c0 .6856-.076 1.2145-.228 1.5869-.144.3724-.428.7702-.851 1.1934.804-.3301 1.613-.5459 2.425-.6475v-4.0625-.2158c0-.1354.004-.2751.013-.4189 0-.2539.042-.4486.127-.584.093-.1439.275-.3089.546-.4951l.749-.5586zm-5.523 7.9726c-.948-.3301-1.718-.6771-2.31-1.041-.593-.3639-1.155-.8379-1.689-1.4219-.719-.8209-1.273-1.7646-1.663-2.831-.381-1.0664-.571-2.1879-.571-3.3643 0-1.0071.14-1.9931.419-2.958.279-.96484.685-1.81542 1.219-2.55175.567-.8125 1.46-1.65039 2.678-2.51367-1.21.58398-2.238 1.29069-3.085 2.12012-.838.82942-1.472 1.76464-1.904 2.8057-.423 1.041-.635 2.1582-.635 3.3515 0 1.4727.313 2.8226.94 4.0498.635 1.2272 1.527 2.2217 2.678 2.9834 1.152.7617 2.459 1.2188 3.923 1.3711zm16.243-3.1865c-.322.3216-.538.5671-.648.7363-.101.1608-.152.347-.152.5586 0 .3893.271.6221.812.6983.271.0338.669.0507 1.194.0507h2.412c1.295 0 2.217.1312 2.767.3936.381.1862.711.4359.991.749.279.3047.491.6559.634 1.0537.153.3978.229.8252.229 1.2823 0 .9225-.258 1.7434-.774 2.4628-.517.7279-1.249 1.2907-2.197 1.6885-.939.3978-2.001.5967-3.186.5967-1.6 0-2.891-.3131-3.872-.9394-.982-.6264-1.473-1.4473-1.473-2.4629 0-.5332.135-1.0157.406-1.4473.271-.4232.724-.8718 1.359-1.3457-.297-.2793-.504-.5332-.622-.7617-.11-.2201-.165-.474-.165-.7617 0-.2793.042-.5333.127-.7618.093-.2285.262-.4824.507-.7617.254-.2793.618-.6305 1.092-1.0537l.203-.1777c-.719-.4147-1.248-.8845-1.587-1.4092-.33-.5247-.495-1.1341-.495-1.8281 0-.7364.191-1.4008.571-1.9932.381-.5924.915-1.0622 1.6-1.4092.694-.347 1.507-.5459 2.438-.5967.194-.8548.474-1.46838.837-1.84078.373-.37239.872-.55859 1.499-.55859.372 0 .727.07617 1.066.22851.347.14388.622.33855.825.58399s.305.50777.305.78707c0 .2709-.089.4994-.267.6856-.169.1777-.381.2666-.635.2666-.194 0-.385-.0593-.571-.1777-.186-.1185-.33-.2667-.431-.4444l-.191-.3681c-.211-.4063-.495-.60942-.85-.60942-.593 0-.978.48242-1.156 1.44722.669.0254 1.278.1439 1.828.3555.559.2116 1.041.4909 1.448.8379.414.3385.732.7448.952 1.2188.22.4654.33.969.33 1.5107 0 .7194-.216 1.4007-.648 2.0439-.423.6433-.99 1.1511-1.701 1.5235s-1.485.5586-2.323.5586c-.762 0-1.591-.2032-2.488-.6094zm4.608-3.5674c0-1.0918-.195-1.9466-.584-2.5644-.389-.6179-.918-.9268-1.587-.9268-.702 0-1.265.3301-1.688.9902-.415.6602-.622 1.5404-.622 2.6407 0 1.0664.203 1.9212.609 2.5644.415.6432.961.9649 1.638.9649.694 0 1.24-.3301 1.637-.9903.398-.6601.597-1.553.597-2.6787zm-5.586 7.9854c-.745.6517-1.117 1.3795-1.117 2.1836 0 .5924.182 1.1256.546 1.5996.372.4824.889.8548 1.549 1.1172.668.2708 1.422.4062 2.259.4062.652 0 1.266-.0889 1.841-.2666.584-.1777 1.088-.4232 1.511-.7363.432-.3047.762-.6602.99-1.0664.237-.3978.356-.8295.356-1.295 0-.5332-.174-.9563-.521-1.2695-.338-.3047-.804-.4612-1.396-.4697l-.978-.0381h-.317-2.476c-.414 0-.8-.0127-1.155-.0381-.389-.0084-.753-.0508-1.092-.1269zm8.011 3.0976c.398-.567.597-1.1299.597-1.6885 0-.7278-.208-1.3372-.622-1.8281-.314-.3724-.682-.6305-1.105-.7744-.415-.1523-.986-.2285-1.714-.2285l-1.752-.0127-1.447-.0127c-.626 0-1.117-.0339-1.473-.1016-.355-.0761-.601-.1989-.736-.3681-.135-.1693-.203-.4147-.203-.7364 0-.1438.051-.347.152-.6093-.254.2793-.423.5078-.508.6855-.076.1777-.114.3936-.114.6475 0 .3301.076.6178.229.8633.16.2454.393.4358.698.5712.186.0762.444.127.774.1524s.872.0381 1.625.0381l1.689.0127c1.083 0 1.836.0254 2.26.0761.431.0508.77.1609 1.015.3301.618.3978.927.9691.927 1.7139 0 .3385-.097.7617-.292 1.2695zm-3.212-7.6299c.745-.3385 1.308-.7828 1.688-1.333.381-.5586.572-1.2103.572-1.955 0-.7956-.208-1.4981-.622-2.1075-.407-.6178-.948-1.0579-1.625-1.3203.423.3809.723.8252.901 1.333s.267 1.1384.267 1.8916c0 .8125-.093 1.4854-.28 2.0186-.177.5332-.478 1.0241-.901 1.4726zm-3.428-.0761c-.905-.8125-1.358-1.8874-1.358-3.2246 0-1.4388.592-2.6026 1.777-3.4913-.872.254-1.561.6941-2.069 1.3204s-.762 1.3457-.762 2.1582c0 .6855.208 1.3076.622 1.8662.415.5501 1.012 1.0071 1.79 1.3711zm3.504-9.07718c.288.10156.508.22005.66.35547.153.13541.297.33431.432.59671.144.2285.254.3851.33.4697.085.0762.186.1142.305.1142.237 0 .355-.1227.355-.3681 0-.1947-.084-.3851-.254-.5713-.161-.1862-.372-.33854-.634-.45703-.263-.11849-.534-.17774-.813-.17774-.085 0-.212.0127-.381.03809z"/><path d="m419.698 22v-.3936c.914-.1523 1.579-.5035 1.993-1.0537.322-.4062.483-1.2145.483-2.4248v-9.58493c0-.77018-.042-1.32878-.127-1.67578-.085-.34701-.241-.64323-.47-.88867-.423-.47396-1.049-.77865-1.879-.91407v-.39355h7.909v.39355c-.914.15235-1.582.50358-2.005 1.05371-.17.22006-.292.51628-.369.88868-.076.36393-.114.87597-.114 1.53613v4.24023h8.925v-4.24023c0-.77018-.042-1.32878-.127-1.67578-.085-.34701-.241-.64323-.47-.88867-.423-.47396-1.049-.77865-1.879-.91407v-.39355h7.91v.39355c-.915.15235-1.583.50358-2.006 1.05371-.17.22006-.292.51628-.368.88868-.077.36393-.115.87597-.115 1.53613v9.58493c0 .7194.043 1.2653.127 1.6377.093.364.254.6729.483.9268.423.4739 1.049.7786 1.879.914v.3936h-7.91v-.3936c.914-.1523 1.579-.5035 1.994-1.0537.321-.4062.482-1.2145.482-2.4248v-4.7607h-8.925v4.7607c0 .7194.042 1.2653.127 1.6377.093.364.254.6729.483.9268.423.4739 1.049.7786 1.878.914v.3936zm1.778-.6475h3.707l-.495-.3681c-.288-.2116-.474-.3809-.559-.5078-.076-.127-.114-.3174-.114-.5713 0-.1354-.005-.2243-.013-.2666 0-.0508 0-.1016 0-.1524v-.2158-11.87011-.21582c0-.05078 0-.10156 0-.15234.008-.05078.013-.13965.013-.26661 0-.2539.038-.44433.114-.57128.085-.12696.271-.29623.559-.50782l.723-.5332h-4.164l.724.5332c.287.21159.469.38086.546.50782.084.12695.127.31738.127.57128.008.14389.012.28353.012.41895v.21582 11.87011.2158c0 .1354-.004.2751-.012.419 0 .2623-.039.457-.115.584-.076.1184-.262.2835-.558.4951zm11.87 0h3.707l-.495-.3681c-.288-.2116-.474-.3809-.559-.5078-.076-.127-.114-.3174-.114-.5713 0-.2455-.004-.3851-.013-.419v-.2158-11.87011-.21582c.009-.04232.013-.18197.013-.41895 0-.2539.038-.44433.114-.57128.085-.12696.271-.29623.559-.50782l.723-.5332h-4.164l.724.5332c.288.21159.47.38086.546.50782.084.12695.127.31738.127.57128.008.14389.012.28353.012.41895v.21582 11.87011.2158c0 .1354-.004.2751-.012.419 0 .2623-.038.457-.115.584-.076.1184-.262.2835-.558.4951zm12.878-7.3886c.525-.6179 1.028-1.1257 1.511-1.5235.482-.4062.947-.694 1.396-.8633.449-.1692.935-.2539 1.46-.2539.643 0 1.24.1524 1.79.4571.559.3047.986.7151 1.282 1.2314.339.5755.508 1.3542.508 2.336v4.2148c0 .7025.102 1.2018.305 1.498.211.2963.605.4952 1.18.5967v.3428h-5.573v-.3428c.576-.1015.965-.3004 1.168-.5967.212-.2962.318-.7955.318-1.498v-4.291c0-.9225-.06-1.5615-.178-1.917-.127-.3893-.33-.6898-.61-.9014-.279-.22-.613-.3301-1.002-.3301-.542 0-1.071.182-1.587.5459-.508.364-1.164 1.0199-1.968 1.9678v4.9258c0 .7025.101 1.2018.305 1.498.211.2963.605.4952 1.18.5967v.3428h-5.573v-.3428c.575-.1015.969-.2962 1.181-.584.211-.2962.317-.7998.317-1.5107v-12.26367c0-.71094-.11-1.21452-.33-1.51074-.212-.30469-.601-.49935-1.168-.58399v-.2793l4.088-.46972zm5.129 7.4775h2.526l-.292-.2285s-.008-.0042-.025-.0127c-.009-.0169-.017-.0254-.026-.0254l-.165-.1269c-.127-.127-.19-.2878-.19-.4825v-.2539l-.013-.1269v-4.8496c0-.6433-.042-1.1511-.127-1.5235-.084-.3724-.228-.6982-.431-.9775-.525-.711-1.206-1.0664-2.044-1.0664-.085 0-.28.0169-.584.0508.524.0761.931.2327 1.218.4697.288.2285.491.5755.61 1.041.127.4655.19 1.1087.19 1.9297v4.9258c0 .347-.017.5628-.051.6474-.025.0847-.122.1989-.292.3428-.017.0169-.029.0254-.038.0254 0 0-.004.0042-.012.0127zm-7.948 0h2.54l-.305-.2285c-.017-.0169-.034-.0296-.051-.0381l-.165-.1269c-.118-.1185-.182-.2793-.19-.4825v-.2539-15.32322l-2.082.22852.495.35547c.008 0 .025.01269.05.03808l.165.12695c.085.05925.14.14812.166.26661.025.11002.038.30892.038.59668v13.58401c0 .347-.017.5628-.051.6474-.034.0847-.136.1989-.305.3428 0 0-.008.0042-.025.0127-.009.0085-.013.0169-.013.0254z"/><path d="m485.698 22v-.3936c.914-.1523 1.579-.5035 1.993-1.0537.322-.4062.483-1.2145.483-2.4248v-9.58493c0-.77018-.042-1.32878-.127-1.67578-.085-.34701-.241-.64323-.47-.88867-.423-.47396-1.049-.77865-1.879-.91407v-.39355h7.909v.39355c-.914.15235-1.582.50358-2.005 1.05371-.17.22006-.292.51628-.369.88868-.076.36393-.114.87597-.114 1.53613v9.58493c0 .7194.042 1.2653.127 1.6377.093.364.254.6729.483.9268.423.4739 1.049.7786 1.878.914v.3936zm1.778-.6475h3.707l-.495-.3681c-.288-.2116-.474-.3809-.559-.5078-.076-.127-.114-.3174-.114-.5713 0-.1354-.005-.2243-.013-.2666 0-.0508 0-.1016 0-.1524v-.2158-11.87011-.21582c0-.05078 0-.10156 0-.15234.008-.05078.013-.13965.013-.26661 0-.2539.038-.44433.114-.57128.085-.12696.271-.29623.559-.50782l.723-.5332h-4.164l.724.5332c.296.21159.482.37663.558.49512s.115.31315.115.58398c.008.14389.012.28353.012.41895v.21582 11.87011.2158c0 .1354-.004.2751-.012.419 0 .2623-.039.457-.115.584-.076.1184-.262.2835-.558.4951zm8.803.6475v-.3428c.575-.1015.969-.2962 1.18-.584.212-.2962.318-.7998.318-1.5107v-5.332c0-.711-.11-1.2145-.331-1.5108-.211-.3047-.6-.4993-1.167-.584v-.2793l4.087-.4697v8.1758c0 .7025.102 1.2018.305 1.498.212.2963.605.4952 1.181.5967v.3428zm1.155-14.0791c0-.42318.144-.78288.431-1.0791.288-.29623.648-.44434 1.08-.44434.431 0 .791.14811 1.079.44434.287.29622.431.65592.431 1.0791 0 .43164-.144.79134-.431 1.0791-.288.28776-.648.43164-1.079.43164-.432 0-.792-.14388-1.08-.43164-.287-.28776-.431-.64746-.431-1.0791zm.114 13.5205h2.539l-.305-.2285c-.017-.0169-.033-.0296-.05-.0381l-.165-.1269c-.119-.1185-.182-.2793-.191-.4825v-.2539-.1269-8.2647l-2.082.2285.495.3555c.009 0 .026.0127.051.0381l.165.1269c.085.0593.14.1482.165.2666.026.1101.038.309.038.5967v6.6524c0 .347-.017.5628-.051.6474-.033.0847-.135.1989-.304.3428 0 0-.009.0042-.026.0127-.008.0085-.012.0169-.012.0254zm1.333-14.70117c-.296.01693-.554.14388-.774.38086-.212.22852-.318.49512-.318.79981s.11.57552.33.8125.474.35547.762.35547c.186 0 .279-.09733.279-.29199.009-.15235.013-.46127.013-.92676 0-.44857-.004-.73633-.013-.86328-.008-.16927-.101-.25814-.279-.26661z"/><path d="m541.753 4.6709v.39355c-.88.15235-1.524.50358-1.93 1.05371-.169.22852-.288.51628-.355.86329-.068.347-.102.86751-.102 1.56152v8.39163c0 1.3795-.224 2.4502-.673 3.2119-.414.7025-.964 1.2441-1.65 1.625-.686.3808-1.452.5713-2.298.5713-.694 0-1.333-.127-1.917-.3809-.575-.2539-1.028-.6009-1.358-1.041-.33-.4486-.495-.9395-.495-1.4727 0-.4908.139-.8971.419-1.2187.287-.3301.655-.4951 1.104-.4951.406 0 .749.1312 1.028.3935.28.2539.419.5798.419.9776 0 .1692-.025.3893-.076.6601l-.063.2793c-.06.2285-.089.4232-.089.584 0 .3301.106.5925.317.7871.212.1947.478.292.8.292.22 0 .432-.055.635-.165.211-.1101.385-.2709.52-.4825.144-.22.241-.457.292-.7109.093-.4486.14-1.1172.14-2.0058v-9.80083c0-.75326-.051-1.30762-.152-1.66309-.094-.35547-.28-.66015-.559-.91406-.491-.46549-1.227-.76595-2.209-.90137v-.39355zm-6.259.48242.724.5332c.33.23698.525.42318.584.5586.059.12695.089.4401.089.93945v.34277 10.43556c0 .7956-.03 1.4346-.089 1.917-.051.4739-.153.8463-.305 1.1172-.152.2623-.377.5036-.673.7236.897-.3724 1.524-.9395 1.879-1.7012.356-.7617.533-1.9.533-3.415v-9.20411c0-.02539 0-.05078 0-.07617.009-.02539.013-.07194.013-.13965v-.41895c.017-.2539.063-.44433.14-.57128.076-.12696.258-.29623.546-.50782l.723-.5332zm-1.879 16.63088c-.296-.2116-.525-.402-.685-.5713-.153-.1693-.258-.347-.318-.5332-.059-.1862-.089-.4147-.089-.6856 0-.2285.022-.4401.064-.6347.034-.2539.051-.3893.051-.4063 0-.1777-.051-.3216-.153-.4316-.093-.11-.22-.1651-.381-.1651-.203 0-.368.1016-.495.3047-.118.1947-.177.4486-.177.7618 0 .5585.194 1.0494.584 1.4726.397.4232.931.7194 1.599.8887zm14.694-10.3975v11.1084c0 .474-.013.9268-.038 1.3584-.043.8802-.14 1.5912-.292 2.1328-.153.5502-.39 1.0114-.711 1.3838-.356.4147-.792.7363-1.308.9649-.516.2369-1.045.3554-1.587.3554-.567 0-1.083-.1142-1.549-.3427-.474-.2201-.846-.529-1.117-.9268-.271-.3893-.406-.8294-.406-1.3203 0-.2708.047-.5121.14-.7236.093-.2032.232-.364.419-.4825.177-.11.385-.165.622-.165.33 0 .592.1058.787.3174.194.22.292.5163.292.8886 0 .1609-.004.2836-.013.3682-.017.3386-.025.5501-.025.6348 0 .3554.067.639.203.8506.135.2116.326.3173.571.3173.559 0 .948-.4189 1.168-1.2568.161-.5586.241-1.6885.241-3.3896v-.4317-8.7978c0-.7025-.106-1.2061-.317-1.5108-.212-.3047-.601-.4993-1.168-.584v-.2793zm-3.161-3.4658c0-.42318.144-.78288.431-1.0791.288-.29623.648-.44434 1.079-.44434.432 0 .792.14811 1.08.44434.287.29622.431.65592.431 1.0791 0 .43164-.144.79134-.431 1.0791-.288.28776-.648.43164-1.08.43164-.431 0-.791-.14388-1.079-.43164-.287-.28776-.431-.64746-.431-1.0791zm.076 4.2275.508.3555c.008 0 .012.0042.012.0127.009 0 .021.0085.038.0254l.165.1269c.077.0508.127.127.153.2286.025.1015.038.3131.038.6347l.013 9.0772v.3301 1.4726c-.009 1.1764-.098 2.027-.267 2.5518-.169.5332-.487.9648-.952 1.2949.567-.1862.99-.402 1.269-.6475.28-.237.517-.6051.711-1.1045.153-.3639.258-.8548.318-1.4726.059-.6179.089-1.4854.089-2.6026v-10.5117zm-1.816 16.085c-.27-.2454-.457-.4909-.558-.7363-.11-.237-.165-.5586-.165-.9649 0-.2031.004-.347.012-.4316.017-.2201.026-.3513.026-.3936 0-.1438-.038-.2623-.114-.3554-.077-.0931-.182-.1397-.318-.1397-.152 0-.283.0804-.393.2412-.11.1693-.165.3724-.165.6094 0 .4486.148.8675.444 1.2568.296.3894.707.694 1.231.9141zm3.466-19.43652v-1.75196c0-.20312-.093-.30469-.279-.30469-.288 0-.542.11849-.762.35547s-.33.51205-.33.8252c0 .30469.11.57552.33.8125s.474.35547.762.35547c.186 0 .279-.09733.279-.29199z"/><path d="m8.4043 71.6943-2.28516 2.209v3.2246c0 .7279.04232 1.2696.12695 1.625.0931.3555.26661.6729.52051.9522.44857.4655 1.11719.7659 2.00586.9013v.3936h-8.074218v-.3936c.914058-.1523 1.578448-.5035 1.993168-1.0537.32161-.4062.48242-1.2145.48242-2.4248v-9.5849c0-.7702-.04232-1.3288-.12695-1.6758-.08464-.347-.24122-.6432-.46973-.8887-.42318-.4739-1.04948-.7786-1.878908-.914v-.3936h7.909178v.3936c-.91406.1523-1.58268.5035-2.00586 1.0537-.16927.22-.29199.5162-.36816.8886-.07617.364-.11426.876-.11426 1.5362v5.6748l4.98926-4.8623c.6178-.5925 1.0452-1.0791 1.2822-1.46.2455-.3809.3682-.7532.3682-1.1172 0-.4824-.1735-.876-.5205-1.1806-.347-.3047-.8083-.4825-1.3838-.5332v-.3936h7.0205v.3682c-1.4473.4062-3.0934 1.4895-4.9385 3.25l-1.2314 1.1806-.2793.2666-.8506.8506 5.2178 7.8457c.0508.0677.0931.127.1269.1778.0423.0507.0847.11.127.1777l.9775 1.3584c.4232.5078.8337.8717 1.2315 1.0918.4062.2116.8802.3343 1.4218.3681v.3936h-8.2519v-.3936c.6686-.0338 1.1299-.1311 1.3838-.2919.2623-.1609.3935-.4317.3935-.8125 0-.2286-.0508-.4613-.1523-.6983-.1016-.2454-.3005-.584-.5967-1.0156zm.35547-.3427 4.01173 6.0302c.4062.6263.6728 1.0707.7998 1.333.1269.254.1904.4825.1904.6856 0 .3301-.165.6475-.4951.9521h3.6689c-.457-.3216-.8167-.6517-1.0791-.9902l-.749-.9648c-.2539-.3386-.3808-.5079-.3808-.5079l-4.9766-7.5156zm4.37983-5.2432c.7533-.7363 1.5319-1.3923 2.336-1.9678h-3.1358c.5671.4401.8506.9564.8506 1.5489 0 .0423-.0169.1819-.0508.4189zm-10.66401 14.2441h3.70703l-.49512-.3681c-.28776-.2116-.47396-.3809-.55859-.5078-.07618-.127-.11426-.3174-.11426-.5713 0-.1354-.00423-.2243-.0127-.2666 0-.0508 0-.1016 0-.1524v-.2158-11.8701-.2158c0-.0508 0-.1016 0-.1524.00847-.0508.0127-.1396.0127-.2666 0-.2539.04232-.4485.12695-.584.0931-.1438.27507-.3089.5459-.4951l.72363-.5332h-4.16406l.72363.5332c.29623.2116.48242.3767.5586.4951.07617.1185.11425.3132.11425.584.00847.1439.0127.2836.0127.419v.2158 11.8701.2158c0 .1354-.00423.2751-.0127.419 0 .2623-.03808.457-.11425.584-.07618.1184-.26237.2835-.5586.4951zm23.47871-4.1894 3.6436-3.1231c.5839-.5078.8759-.931.8759-1.2695 0-.4909-.4528-.7659-1.3584-.8252v-.3428h4.8877v.3428c-.5078.0508-1.0241.2158-1.5488.4951-.5163.2793-1.1087.711-1.7773 1.295-.1016.0846-.1736.1481-.2159.1904-.0423.0338-.0719.055-.0888.0635l-1.3584 1.1425 3.2119 4.3291.2412.3301c.4739.6263.9014 1.0833 1.2822 1.3711.3893.2793.821.4443 1.2949.4951v.3428h-6.6142v-.3428c.9056-.0592 1.3584-.3258 1.3584-.7998 0-.2708-.1693-.639-.5078-1.1045l-.2032-.2793-1.9804-2.7295-1.1426.9776v1.8408c0 .7025.1016 1.2018.3047 1.498.2116.2963.6051.4952 1.1806.5967v.3428h-5.5732v-.3428c.5755-.1015.9691-.2962 1.1807-.584.2116-.2962.3174-.7998.3174-1.5107v-12.2637c0-.7109-.1101-1.2145-.3301-1.5107-.2116-.3047-.6009-.4994-1.168-.584v-.2793l4.0879-.4697zm-2.8184 4.2783h2.5391l-.3047-.2285c-.0169-.0169-.0338-.0296-.0508-.0381l-.165-.1269c-.1185-.1185-.182-.2793-.1904-.4825v-.2539-.1269-15.1963l-2.0821.2285.4951.3555c.0085 0 .0254.0127.0508.0381l.1651.1269c.0846.0592.1396.1481.165.2666.0254.11.0381.3089.0381.5967v13.584c0 .347-.0169.5628-.0508.6474-.0338.0847-.1354.1989-.3047.3428 0 0-.0084.0042-.0254.0127-.0084.0085-.0127.0169-.0127.0254zm9.7246-.0254c-.5078-.2793-1.0494-.8125-1.625-1.5996l-2.9834-4.0752-.8378.7236 2.1455 2.9327c.4316.6009.6474 1.0706.6474 1.4091 0 .2116-.0931.4148-.2793.6094zm-2.0439-8.3662c.3639-.3639.7871-.7152 1.2695-1.0537h-1.6757c.3046.2454.457.4951.457.749 0 .0339-.0169.1354-.0508.3047z"/><path d="m71.8613 63.6709v.3936c-1.0156.1523-1.7477.4993-2.1963 1.041-.2031.2454-.347.5501-.4316.914-.0762.364-.1143.8718-.1143 1.5235v9.6865c0 .6348.0339 1.1341.1016 1.498.0762.364.2074.6644.3936.9014.3808.4824 1.1045.7236 2.1709.7236h.2666c.567 0 1.1214-.0846 1.663-.2539.5417-.1777 1.0918-.457 1.6504-.8379.5671-.3893 1.1384-.8759 1.7139-1.4599.584-.584 1.1807-1.2738 1.79-2.0694h.3936l-1.5234 5.2686h-14.0411v-.3936c.9141-.1523 1.5785-.5035 1.9932-1.0537.3216-.4062.4824-1.2145.4824-2.4248v-9.5849c0-.7702-.0423-1.3288-.1269-1.6758-.0847-.347-.2412-.6432-.4698-.8887-.4231-.4739-1.0494-.7786-1.8789-.914v-.3936zm4.9766 16.6816.6855-2.3613c-.8294.9902-1.8154 1.7774-2.958 2.3613zm-11.3623 0h3.707l-.4951-.3681c-.2878-.2116-.474-.3809-.5586-.5078-.0762-.127-.1143-.3174-.1143-.5713 0-.1354-.0042-.2243-.0126-.2666 0-.0508 0-.1016 0-.1524v-.2158-11.8701-.2158c0-.0508 0-.1016 0-.1524.0084-.0508.0126-.1396.0126-.2666 0-.2539.0424-.4485.127-.584.0931-.1438.2751-.3089.5459-.4951l.7236-.5332h-4.1513l.7109.5332c.2962.2116.4824.3767.5586.4951.0762.1185.1143.3132.1143.584.0084.1439.0126.2836.0126.419v.2158 11.8701.2158c0 .1354-.0042.2751-.0126.419 0 .2623-.0381.457-.1143.584-.0762.1184-.2624.2835-.5586.4951zm15.3029.6475v-.3428c.5755-.1015.9691-.2962 1.1807-.584.2116-.2962.3174-.7998.3174-1.5107v-12.2637c0-.7109-.1101-1.2145-.3301-1.5107-.2116-.3047-.6009-.4994-1.168-.584v-.2793l4.0879-.4697v15.1074c0 .7025.1016 1.2018.3047 1.498.2116.2963.6051.4952 1.1807.5967v.3428zm1.2695-.5586h2.5391l-.3047-.2285c-.0169-.0169-.0338-.0296-.0508-.0381l-.165-.1269c-.1185-.1185-.182-.2793-.1904-.4825v-.2539-.1269-15.1963l-2.0821.2285.4952.3555c.0084 0 .0253.0127.0507.0381l.1651.1269c.0846.0592.1396.1481.165.2666.0254.11.0381.3089.0381.5967v13.584c0 .347-.0169.5628-.0508.6474-.0338.0847-.1354.1989-.3047.3428 0 0-.0084.0042-.0254.0127-.0084.0085-.0127.0169-.0127.0254z"/><path d="m127.327 80.2256h-.305l-6.931-13.7998-.749 8.5947c-.043.474-.064.9225-.064 1.3457 0 1.2357.25 2.1878.749 2.8565.508.6686 1.325 1.1298 2.451 1.3837v.3936h-6.932v-.3936c.618-.22 1.164-.5501 1.638-.9902.474-.4486.837-.9691 1.091-1.5615.271-.6517.47-1.6885.597-3.1104l.8-9.1533c-.322-.6009-.69-1.0325-1.105-1.2949-.414-.2624-.939-.4063-1.574-.4316v-.3936h6.145c-.034.0846-.055.1396-.064.165-.161.3894-.241.694-.241.9141 0 .4062.216 1.041.647 1.9043l4.914 9.75 4.062-9.4834c.322-.7617.482-1.3415.482-1.7393 0-.4062-.169-.9098-.507-1.5107h6.106v.3936c-.846.1184-1.46.3681-1.841.749-.381.3724-.571.9225-.571 1.6504 0 .2285.013.4443.038.6474l.038.3174 1.067 9.4199c.017.127.029.237.038.3301.017.0931.059.3597.127.7998.127.821.376 1.4304.749 1.8281.38.3978.964.6644 1.752.7998v.3936h-8.075v-.3936c.889-.22 1.541-.5078 1.955-.8632.424-.364.635-.821.635-1.3711 0-.2116-.029-.5586-.089-1.041l-1.244-10.8418zm6.322.1269h3.898l-.66-.5332c-.288-.2285-.478-.7236-.572-1.4853l-1.396-12.124c-.017-.2201-.025-.3724-.025-.4571 0-.1946.042-.3597.127-.4951.084-.1439.258-.3216.52-.5332l.724-.5713h-2.946l1.6 14.0029.051.2793c.017.2032.025.3555.025.4571 0 .2116-.042.3766-.127.4951-.076.1185-.254.2793-.533.4824zm-6.512-.8632.698-1.6504-5.84-11.6289c-.288-.601-.432-1.0368-.432-1.3077 0-.2623.068-.512.204-.749h-2.92c.474.3386.829.6983 1.066 1.0791.322.4824.597.9606.825 1.4346zm-7.249.8632c-.407-.4401-.686-.7998-.838-1.0791-.144-.2877-.254-.6517-.33-1.0918-.203.5079-.428.9141-.673 1.2188-.246.3047-.597.6221-1.054.9521zm34.193-6.9316c.034.2962.051.6051.051.9268v4.2148c0 .7025.106 1.2018.317 1.498.22.2963.614.4952 1.181.5967v.3428h-5.573v-.3428c.575-.1015.965-.3004 1.168-.5967.211-.2962.317-.7955.317-1.498v-4.291c0-.9225-.059-1.5615-.178-1.917-.11-.3809-.304-.6813-.584-.9014-.279-.22-.605-.3301-.977-.3301-.533 0-1.041.1693-1.524.5079-.482.3385-1.062.9267-1.739 1.7646v5.167c0 .7025.102 1.2018.305 1.498.212.2963.605.4952 1.181.5967v.3428h-5.574v-.3428c.576-.1015.969-.2962 1.181-.584.212-.2962.317-.7998.317-1.5107v-5.332c0-.711-.11-1.2145-.33-1.5108-.211-.3047-.601-.4993-1.168-.584v-.2793l4.088-.4697v2.3867c.686-.8548 1.346-1.4726 1.981-1.8535.643-.3893 1.337-.584 2.082-.584.863 0 1.582.2243 2.158.6729.584.4401.986 1.0706 1.206 1.8916.533-.6432.99-1.1384 1.371-1.4854.796-.7194 1.718-1.0791 2.768-1.0791.651 0 1.248.1481 1.79.4444.55.2877.977.6982 1.282 1.2314.33.5671.495 1.3457.495 2.336v4.2148c0 .7025.102 1.2018.305 1.498.211.2963.605.4952 1.18.5967v.3428h-5.573v-.3428c.584-.1015.978-.3004 1.181-.5967.211-.2962.317-.7955.317-1.498v-4.291c0-.931-.059-1.57-.178-1.917-.11-.3893-.304-.6898-.584-.9014-.27-.22-.588-.3301-.952-.3301-.533 0-1.058.182-1.574.5459-.508.3555-1.079.9395-1.714 1.752zm-2.767 7.0205h2.539l-.292-.2285c-.017-.0085-.034-.0212-.051-.0381l-.165-.1269c-.127-.127-.191-.2878-.191-.4825l-.012-.2539v-.1269-4.8496c-.009-1.168-.195-2.0059-.559-2.5137-.237-.3386-.541-.6009-.914-.7871-.372-.1947-.77-.292-1.193-.292-.051 0-.093.0042-.127.0127-.026 0-.076.0042-.153.0127-.067 0-.139.0042-.215.0127.761.11 1.282.4147 1.561.914.288.4909.432 1.3457.432 2.5645v4.9258c0 .347-.017.5628-.051.6474-.025.0847-.123.1989-.292.3428-.017.0169-.03.0254-.038.0254 0 0-.004.0042-.013.0127zm-7.592 0h2.539l-.305-.2285c-.017-.0169-.034-.0296-.051-.0381l-.165-.1269c-.118-.1185-.182-.2793-.19-.4825v-.2539-.1269-8.2647l-2.082.2285.495.3555c.009 0 .025.0127.051.0381l.165.1269c.085.0593.14.1482.165.2666.025.1101.038.309.038.5967v6.6524c0 .347-.017.5628-.051.6474-.034.0847-.135.1989-.304.3428 0 0-.009.0042-.026.0127-.008.0085-.013.0169-.013.0254zm15.133 0h2.539l-.305-.2285c0-.0085-.004-.0169-.013-.0254-.008-.0085-.017-.0127-.025-.0127l-.165-.1269c-.127-.1185-.19-.2793-.19-.4825l-.013-.2539v-.1269l-.013-4.8496c0-.6433-.038-1.1468-.114-1.5108-.076-.3639-.22-.6982-.432-1.0029-.525-.7109-1.223-1.0664-2.095-1.0664-.067 0-.236.0084-.507.0254.761.11 1.282.4147 1.561.914.288.4909.432 1.3457.432 2.5645v4.9258c0 .347-.017.5628-.051.6474-.025.0847-.123.1989-.292.3428-.017.0169-.03.0254-.038.0254 0 0-.004.0042-.013.0127z"/><path d="m210.243 81.4062h-.381l-13.939-14.8408.013 8.5186c0 .9479.055 1.7096.165 2.2851.11.5756.287 1.0707.533 1.4854.575.931 1.511 1.515 2.805 1.7519v.3936h-6.639v-.3936c1.142-.4231 1.904-1.2229 2.285-2.3994.135-.3893.228-.8167.279-1.2822.051-.474.076-1.0706.076-1.79v-9.0899c-.66-.6771-1.168-1.1426-1.523-1.3965s-.762-.4485-1.219-.5839v-.3936h4.926c.203.3555.423.6771.66.9648.051.0424.14.1439.267.3047.135.1608.224.2666.266.3174.144.1608.216.2412.216.2412l10.728 11.4639v-8.7344c0-.8887-.115-1.6165-.343-2.1836-.22-.5755-.571-1.0198-1.054-1.333-.474-.3131-1.104-.529-1.891-.6474v-.3936h6.055v.3936c-.905.2454-1.515.6516-1.828 1.2187-.304.5671-.457 1.5488-.457 2.9453zm-.482-.7998v-1.9931l-11.908-12.7207c-.542-.5671-.978-1.1468-1.308-1.7393h-2.59c.618.3724 1.248.9056 1.892 1.5996zm-1.549-16.4531c.406.2031.715.4105.927.6221.211.2116.419.5205.622.9267.152-.4062.279-.6982.381-.8759.101-.1778.27-.402.507-.6729zm-11.439 16.1992c-.338-.3724-.596-.694-.774-.9648-.169-.2793-.33-.6221-.482-1.0283-.161.4316-.335.7913-.521 1.0791-.186.2793-.457.584-.812.914zm22.451-7.3886c.525-.6179 1.028-1.1257 1.511-1.5235.482-.4062.947-.694 1.396-.8633.449-.1692.935-.2539 1.46-.2539.643 0 1.24.1524 1.79.4571.559.3047.986.7151 1.282 1.2314.339.5755.508 1.3542.508 2.336v4.2148c0 .7025.102 1.2018.305 1.498.211.2963.605.4952 1.18.5967v.3428h-5.573v-.3428c.576-.1015.965-.3004 1.168-.5967.212-.2962.318-.7955.318-1.498v-4.291c0-.9225-.06-1.5615-.178-1.917-.127-.3893-.33-.6898-.61-.9014-.279-.22-.613-.3301-1.002-.3301-.542 0-1.071.182-1.587.5459-.508.364-1.164 1.0199-1.968 1.9678v4.9258c0 .7025.101 1.2018.305 1.498.211.2963.605.4952 1.18.5967v.3428h-5.573v-.3428c.575-.1015.969-.2962 1.181-.584.211-.2962.317-.7998.317-1.5107v-5.332c0-.711-.11-1.2145-.33-1.5108-.212-.3047-.601-.4993-1.168-.584v-.2793l4.088-.4697zm5.129 7.4775h2.526l-.292-.2285s-.008-.0042-.025-.0127c-.009-.0169-.017-.0254-.026-.0254l-.165-.1269c-.127-.127-.19-.2878-.19-.4825v-.2539l-.013-.1269v-4.8496c0-.6433-.042-1.1511-.127-1.5235-.084-.3724-.228-.6982-.431-.9775-.525-.711-1.206-1.0664-2.044-1.0664-.085 0-.28.0169-.584.0508.524.0761.931.2327 1.218.4697.288.2285.491.5755.61 1.041.127.4655.19 1.1087.19 1.9297v4.9258c0 .347-.017.5628-.051.6474-.025.0847-.122.1989-.292.3428-.017.0169-.029.0254-.038.0254 0 0-.004.0042-.012.0127zm-7.948 0h2.54l-.305-.2285c-.017-.0169-.034-.0296-.051-.0381l-.165-.1269c-.118-.1185-.182-.2793-.19-.4825v-.2539-2.6025-1.3203-4.4688l-2.082.2285.495.3555c.008 0 .025.0127.05.0381l.165.1269c.085.0593.14.1482.166.2666.025.1101.038.309.038.5967v6.6524c0 .347-.017.5628-.051.6474-.034.0847-.136.1989-.305.3428 0 0-.008.0042-.025.0127-.009.0085-.013.0169-.013.0254z"/><path d="m258.838 72.3545c0-1.2272.237-2.3994.711-3.5166s1.13-2.0947 1.968-2.9326c.846-.8464 1.819-1.4981 2.92-1.9551 1.108-.4655 2.276-.6982 3.503-.6982 1.642 0 3.157.4104 4.545 1.2314 1.397.8125 2.501 1.917 3.314 3.3135.821 1.3965 1.231 2.9157 1.231 4.5576 0 1.2187-.232 2.3825-.698 3.4912-.457 1.1003-1.109 2.0736-1.955 2.9199-.846.8464-1.815 1.5065-2.907 1.9805-1.092.4655-2.256.6982-3.491.6982-1.668 0-3.204-.4062-4.609-1.2187-1.396-.8125-2.501-1.9128-3.313-3.3008-.813-1.3965-1.219-2.9199-1.219-4.5703zm3.199-.0889c0 1.2442.14 2.3994.419 3.4658.279 1.058.677 1.9636 1.193 2.7168.525.7448 1.151 1.3161 1.879 1.7139.737.3978 1.549.5967 2.438.5967 1.447 0 2.712-.5755 3.796-1.7266.66-.7109 1.168-1.6419 1.523-2.7929.364-1.1595.546-2.4883.546-3.9864 0-1.3034-.14-2.4798-.419-3.5293-.271-1.0494-.664-1.9424-1.181-2.6787-.507-.7363-1.125-1.3034-1.853-1.7011-.719-.3978-1.532-.5967-2.438-.5967-.897 0-1.709.2031-2.437.6093-.719.3978-1.337.9734-1.854 1.7266-.516.7448-.914 1.6504-1.193 2.7168-.279 1.0579-.419 2.2132-.419 3.4658zm2.069 7.8965c-.753-.5586-1.379-1.2145-1.878-1.9678-.491-.7617-.864-1.6419-1.118-2.6406-.245-.9987-.368-2.0947-.368-3.2881 0-1.7604.267-3.2584.8-4.4941.542-1.2442 1.396-2.3063 2.564-3.1865-1.007.5332-1.87 1.1933-2.589 1.9804-.711.7871-1.257 1.6716-1.638 2.6534-.372.9733-.559 2.0143-.559 3.123 0 1.1003.187 2.1455.559 3.1357.381.9818.927 1.8705 1.638 2.6661.719.7955 1.582 1.4684 2.589 2.0185zm6.97.0127c3.098-1.7858 4.647-4.3926 4.647-7.8203 0-1.1003-.174-2.1497-.521-3.1484-.338-1.0072-.825-1.9001-1.46-2.6788-.626-.7871-1.362-1.4134-2.209-1.8789 1.854 1.625 2.78 4.1556 2.78 7.5918 0 1.0072-.093 1.972-.279 2.8946-.178.914-.427 1.7138-.749 2.3994-.161.347-.334.6559-.52.9267-.187.2709-.415.5459-.686.8252-.271.2709-.605.5671-1.003.8887zm8.765-4.3799c0-.9817.262-1.8916.787-2.7295.533-.8463 1.248-1.5107 2.146-1.9931.905-.4909 1.895-.7364 2.97-.7364.804 0 1.562.1397 2.273.419.711.2708 1.337.6601 1.879 1.168.541.4993.96 1.0875 1.257 1.7646.304.6686.457 1.3711.457 2.1074 0 .9733-.263 1.8832-.788 2.7295-.516.8464-1.227 1.515-2.132 2.0059-.897.4824-1.875.7236-2.933.7236-1.075 0-2.065-.2412-2.971-.7236-.905-.4824-1.625-1.1426-2.158-1.9805-.525-.8463-.787-1.7646-.787-2.7549zm2.78-.0761c0 .7363.072 1.4134.216 2.0312.152.6178.368 1.1468.648 1.5869.279.4317.609.766.99 1.0029.389.237.812.3555 1.269.3555.449 0 .868-.1185 1.257-.3555.389-.2454.72-.5797.99-1.0029.271-.4316.479-.9606.622-1.5869.153-.6263.229-1.3034.229-2.0312 0-.9734-.131-1.8366-.394-2.5899-.253-.7532-.617-1.3372-1.091-1.7519-.466-.4148-1.008-.6221-1.625-.6221-.94 0-1.693.457-2.26 1.3711-.567.914-.851 2.1116-.851 3.5928zm.978 4.8115c-.406-.3216-.686-.5586-.838-.711-.144-.1608-.301-.3724-.47-.6347-.541-.8802-.812-2.0144-.812-3.4024 0-2.3021.783-3.9186 2.348-4.8496-.711.2624-1.337.6432-1.879 1.1426-.533.4993-.947 1.0664-1.244 1.7012-.287.6347-.431 1.3076-.431 2.0185 0 .694.144 1.3627.431 2.0059.288.6432.69 1.1976 1.206 1.6631.28.2285.504.3978.673.5078s.508.2962 1.016.5586zm3.428.2031c1.117-.4909 1.967-1.1595 2.551-2.0059.593-.8548.889-1.8323.889-2.9326 0-1.1256-.288-2.1286-.863-3.0088-.567-.8802-1.325-1.5022-2.273-1.8662 1.295.9479 1.943 2.5602 1.943 4.8369 0 1.1511-.165 2.1117-.495 2.8819-.322.7702-.838 1.4176-1.549 1.9424z"/><path d="m327.119 72.6465v4.4814c0 .7533.051 1.3034.152 1.6504.102.3386.297.6475.584.9268.525.4739 1.283.7744 2.273.9013v.3936h-8.43v-.3936c.914-.1523 1.579-.5035 1.993-1.0537.322-.4062.483-1.2145.483-2.4248v-9.5849c0-.7702-.042-1.3288-.127-1.6758s-.241-.6432-.47-.8887c-.406-.4486-1.032-.7532-1.879-.914v-.3936c.127.0085.233.0127.318.0127l1.117.0635c.448.0254.969.0381 1.561.0381.94 0 1.79-.0381 2.552-.1143l1.777-.1523c.576-.0508 1.126-.0762 1.651-.0762 1.972 0 3.516.402 4.634 1.206 1.125.7956 1.688 1.8959 1.688 3.3008 0 .8294-.211 1.5954-.635 2.2979-.423.7024-.998 1.2441-1.726 1.625-1.024.5162-2.569.7744-4.634.7744h-.521zm0-.5459h2.082c1.346 0 2.37-.2158 3.072-.6475.525-.3216.931-.7871 1.219-1.3965.296-.6093.445-1.2991.445-2.0693 0-1.2272-.369-2.2047-1.105-2.9326s-1.718-1.0918-2.945-1.0918c-.601 0-1.109.0931-1.524.2793-.406.1862-.706.457-.901.8125-.229.4062-.343 1.0537-.343 1.9424zm4.951-.0381c1.202-.3216 2.116-.8379 2.742-1.5488.635-.7194.953-1.5912.953-2.6153 0-.6432-.148-1.2272-.445-1.7519-.296-.5248-.715-.9606-1.257-1.3076-.541-.347-1.193-.5925-1.955-.7364 1.532.8041 2.298 2.0905 2.298 3.8594 0 .9649-.194 1.7858-.584 2.4629-.389.6771-.973 1.223-1.752 1.6377zm-8.594 8.29h3.707l-.495-.3681c-.288-.2116-.474-.3809-.559-.5078-.076-.127-.114-.3174-.114-.5713 0-.1354-.005-.2243-.013-.2666 0-.0508 0-.1016 0-.1524v-.2158-11.8701-.2158c0-.0508 0-.1016 0-.1524.008-.0508.013-.1396.013-.2666 0-.237.034-.4189.101-.5459.076-.1269.237-.2835.483-.4697l.089-.0635.71-.5459-.457.0254c-.77.0508-1.464.0762-2.082.0762-.38 0-.901-.0127-1.561-.0381l.673.4824c.279.1862.461.3513.546.4951.084.1355.127.3301.127.584.008.1439.012.2836.012.419v.2158 11.8701.2158c0 .1354-.004.2751-.012.419 0 .2623-.039.457-.115.584-.076.1184-.262.2835-.558.4951zm19.809-8.4677c.618-.5248 1.215-.9099 1.79-1.1553.584-.2455 1.206-.3682 1.867-.3682.719 0 1.375.127 1.967.3809.601.2454 1.126.5967 1.575 1.0537.457.4486.808.9733 1.053 1.5742.254.5925.381 1.2526.381 1.9805 0 .7956-.144 1.5488-.431 2.2598-.288.7024-.694 1.333-1.219 1.8916-.525.5585-1.117.9902-1.778 1.2949-.66.3047-1.362.457-2.107.457-1.066 0-2.099-.3851-3.098-1.1553v4.875c0 .4655.051.8379.153 1.1172.11.2878.292.5036.546.6475.253.1523.605.2624 1.053.3301v.3427h-5.84v-.3427c.584-.1016.978-.3005 1.181-.5967.212-.2962.318-.7956.318-1.4981v-11.7431c0-.7025-.106-1.2019-.318-1.4981-.211-.3047-.605-.5036-1.181-.5967v-.2793l4.088-.4697zm0 7.2871.077.0635c.541.4824 1.036.8421 1.485 1.0791.448.2285.889.3427 1.32.3427.61 0 1.143-.1904 1.6-.5713.457-.3808.808-.931 1.054-1.6504.253-.7194.38-1.5572.38-2.5136 0-.7279-.072-1.3923-.215-1.9932-.136-.6094-.339-1.1383-.61-1.5869-.262-.457-.58-.8083-.952-1.0537-.364-.2455-.762-.3682-1.193-.3682-.432 0-.919.1608-1.46.4824-.534.3132-1.029.7364-1.486 1.2696zm-2.818 7.6806h2.539l-.305-.2285c.017 0 0-.0127-.05-.0381l-.153-.1269c-.127-.1185-.19-.2793-.19-.4824l-.013-.2539v-.127-14.6758l-2.082.2285.495.3555c.009 0 .026.0127.051.0381l.165.1269c.085.0593.14.1397.165.2413.025.0931.038.3004.038.622v13.0635c0 .347-.017.5628-.051.6475-.025.0846-.122.1989-.292.3427-.025.0254-.042.0381-.05.0381zm6.995-16.0722c.804.5247 1.384 1.1933 1.739 2.0058.364.8041.546 1.8366.546 3.0977 0 1.0156-.122 1.8704-.368 2.5644-.245.6941-.652 1.3246-1.219 1.8916.567-.2623 1.058-.6347 1.473-1.1171.423-.4825.745-1.0326.965-1.6504.228-.6179.343-1.295.343-2.0313 0-1.2441-.322-2.3021-.965-3.1738-.635-.8802-1.473-1.4092-2.514-1.5869z"/><path d="m387.335 80.708c-1.117-.4824-2.086-1.1426-2.907-1.9805-.821-.8463-1.46-1.8239-1.917-2.9326-.449-1.1172-.673-2.264-.673-3.4404 0-1.2272.237-2.3994.711-3.5166s1.13-2.0947 1.968-2.9326c.846-.8464 1.819-1.4981 2.92-1.9551 1.108-.4655 2.276-.6982 3.503-.6982 1.642 0 3.157.4104 4.545 1.2314 1.397.8125 2.501 1.917 3.314 3.3135.821 1.3965 1.231 2.9157 1.231 4.5576 0 1.2272-.232 2.3952-.698 3.5039-.457 1.1003-1.109 2.0736-1.955 2.9199-.846.8464-1.828 1.5023-2.945 1.9678-1.109.4655-2.281.6982-3.517.6982-.347 0-.669-.0169-.965-.0507l.076.038c.322.1608.572.2878.749.3809l1.067.5713c1.125.5924 2.006.9987 2.64 1.2187.635.2286 1.228.3428 1.778.3428.516 0 .977-.0931 1.384-.2793.406-.1777.782-.4655 1.129-.8633.347-.3893.678-.8929.991-1.5107l.355.1269c-.321 1.2103-.698 2.1921-1.13 2.9454-.423.7617-.931 1.3245-1.523 1.6884-.584.3724-1.257.5586-2.019.5586-.711 0-1.434-.1819-2.171-.5459-.727-.3554-1.646-.9775-2.755-1.8662l-1.129-.9013c-.627-.5163-1.13-.8803-1.511-1.0918-.373-.2032-.715-.3047-1.028-.3047-.364 0-.703.1015-1.016.3047-.305.2115-.648.567-1.028 1.0664l-.305-.2286c.939-1.4726 1.883-2.2513 2.831-2.3359zm-2.298-8.4424c0 1.2442.14 2.3994.419 3.4658.279 1.058.677 1.9636 1.193 2.7168.525.7448 1.151 1.3161 1.879 1.7139.737.3978 1.549.5967 2.438.5967 1.447 0 2.712-.5755 3.796-1.7266.66-.7109 1.168-1.6419 1.523-2.7929.364-1.1595.546-2.4883.546-3.9864 0-1.3034-.14-2.4798-.419-3.5293-.271-1.0494-.664-1.9424-1.181-2.6787-.507-.7363-1.125-1.3034-1.853-1.7011-.719-.3978-1.532-.5967-2.438-.5967-.897 0-1.709.2031-2.437.6093-.719.3978-1.337.9734-1.854 1.7266-.516.7448-.914 1.6504-1.193 2.7168-.279 1.0579-.419 2.2132-.419 3.4658zm2.069 7.8965c-.753-.5586-1.379-1.2145-1.878-1.9678-.491-.7617-.864-1.6419-1.118-2.6406-.245-.9987-.368-2.0947-.368-3.2881 0-1.7604.267-3.2584.8-4.4941.542-1.2442 1.396-2.3063 2.564-3.1865-1.007.5332-1.87 1.1933-2.589 1.9804-.711.7871-1.257 1.6716-1.638 2.6534-.372.9733-.559 2.0143-.559 3.123 0 1.1003.187 2.1455.559 3.1357.381.9818.927 1.8705 1.638 2.6661.719.7955 1.582 1.4684 2.589 2.0185zm6.97.0127c3.098-1.7858 4.647-4.3926 4.647-7.8203 0-1.1003-.174-2.1497-.521-3.1484-.338-1.0072-.825-1.9001-1.46-2.6788-.626-.7871-1.362-1.4134-2.209-1.8789 1.854 1.625 2.78 4.1556 2.78 7.5918 0 1.0072-.093 1.972-.279 2.8946-.178.914-.427 1.7138-.749 2.3994-.161.347-.334.6559-.52.9267-.187.2709-.415.5459-.686.8252-.271.2709-.605.5671-1.003.8887zm5.167 2.7041c-.897 1.0749-1.887 1.6123-2.971 1.6123-1.294 0-3.165-.7152-5.611-2.1455-1.066-.6178-1.71-.9691-1.93-1.0537-.363-.1524-.689-.2285-.977-.2285-.271 0-.516.0423-.736.1269-.212.0931-.466.2497-.762.4698.33-.127.597-.1905.8-.1905.296 0 .613.0847.952.2539.347.1693.948.5502 1.803 1.1426.804.5501 1.417.9564 1.84 1.2188.424.2623.864.5162 1.321.7617.998.5163 1.904.7744 2.716.7744.754 0 1.431-.237 2.032-.7109.609-.4655 1.117-1.1426 1.523-2.0313zm12.269-3.1103-.076.0507c-1.134.9564-2.319 1.4346-3.555 1.4346-.922 0-1.765-.2158-2.526-.6475-.762-.4401-1.363-1.0452-1.803-1.8154-.432-.7786-.648-1.6292-.648-2.5517 0-1.0241.25-1.989.75-2.8946.507-.9056 1.189-1.6292 2.043-2.1709.855-.5416 1.765-.8125 2.73-.8125 1.176 0 2.289.4486 3.339 1.3457l1.968-1.3203h.368v14.5869c0 .7025.101 1.2019.304 1.4981.212.2962.606.4951 1.181.5967v.3427h-5.827v-.3427c.677-.1016 1.138-.3005 1.384-.5967.245-.2878.368-.7871.368-1.4981zm0-7.5538-.038-.038c-.533-.4655-1.028-.8083-1.486-1.0284-.457-.22-.892-.33-1.307-.33-.601 0-1.134.1989-1.6.5966-.465.3894-.825.948-1.079 1.6758-.254.7194-.381 1.57-.381 2.5518 0 .931.127 1.7773.381 2.539.254.7533.61 1.3373 1.067 1.752.457.4062.969.6094 1.536.6094.457 0 .939-.1481 1.447-.4444.508-.3047.994-.7151 1.46-1.2314zm-.229 14.6377h2.539l-.304-.2285c.017 0 0-.0127-.051-.0381l-.165-.1269c-.119-.1185-.182-.2793-.19-.4824v-.2539-.127-14.2695l-1.168.7617v13.5078c0 .347-.017.5628-.051.6475-.034.0846-.136.1989-.305.3427-.008.0254-.021.0381-.038.0381zm-4.075-5.9795c-.321-.1777-.592-.347-.812-.5078-.212-.1608-.398-.3216-.559-.4824-.152-.1693-.313-.3893-.482-.6601-.584-.9226-.876-2.0144-.876-3.2754 0-.6687.067-1.2696.203-1.8028.144-.5416.368-1.0579.673-1.5488.304-.4993.711-1.0029 1.218-1.5107-2.149 1.2864-3.224 3.0045-3.224 5.1543 0 .7871.152 1.498.457 2.1328.313.6347.753 1.1637 1.32 1.5869.576.4147 1.27.7194 2.082.914z"/><path d="m450.119 71.9102v5.2177c0 .7279.042 1.2696.127 1.625.093.3555.267.6729.521.9522.448.4655 1.117.7659 2.005.9013v.3936h-8.074v-.3936c.914-.1523 1.579-.5035 1.993-1.0537.322-.4062.483-1.2145.483-2.4248v-9.5849c0-.7702-.042-1.3288-.127-1.6758s-.241-.6432-.47-.8887c-.406-.4486-1.032-.7532-1.879-.914v-.3936c.119.0085.225.0127.318.0127l1.117.0635c.448.0254.969.0381 1.561.0381.94 0 1.79-.0381 2.552-.1143l1.777-.1523c.559-.0508 1.109-.0762 1.651-.0762.999 0 1.891.1015 2.679.3047.787.2031 1.451.4951 1.993.8759.541.3809.96.8506 1.257 1.4092.296.5502.444 1.168.444 1.8535 0 1.1426-.394 2.0355-1.181 2.6788-.778.6347-1.934 1.0071-3.466 1.1171.948.3724 1.748.8845 2.4 1.5362.66.6432 1.443 1.6969 2.348 3.1611 1.025 1.6419 1.833 2.7845 2.425 3.4277.593.6433 1.249 1.1003 1.968 1.3711v.3555c-.923-.0169-1.71-.1016-2.361-.2539-.644-.1523-1.287-.4232-1.93-.8125-.804-.4994-1.562-1.1722-2.272-2.0186-.711-.8463-1.333-1.8154-1.867-2.9072l-.673-1.4092c-.321-.6601-.605-1.1383-.85-1.4345-.246-.3047-.538-.5121-.876-.6221-.339-.11-.8-.165-1.384-.165zm0-.5079h2.273c1.311 0 2.255-.1481 2.831-.4443.516-.2624.918-.6686 1.206-1.2187.296-.5586.444-1.1976.444-1.917 0-.7448-.173-1.4134-.52-2.0059-.339-.5924-.817-1.0495-1.435-1.3711-.609-.3301-1.308-.4951-2.095-.4951-1.168 0-1.955.3639-2.361 1.0918-.229.4147-.343 1.0664-.343 1.9551zm4.951.0508c.567-.1269 1.084-.3089 1.549-.5459.474-.237.863-.5078 1.168-.8125s.538-.6517.698-1.041c.17-.3893.254-.7956.254-1.2187 0-.9226-.33-1.7266-.99-2.4121-.66-.6856-1.532-1.1257-2.615-1.3204.482.2624.888.5756 1.219.9395.33.3639.579.7786.749 1.2441.169.4571.253.9522.253 1.4854 0 .9225-.181 1.68-.545 2.2724-.364.584-.944 1.0538-1.74 1.4092zm8.011 9.5596c-.449-.2454-.812-.4697-1.092-.6729-.279-.2031-.605-.4866-.977-.8505-.44-.474-.787-.8845-1.041-1.2315-.246-.347-.656-.9945-1.232-1.9424-.541-.9056-1.032-1.6377-1.472-2.1963-.432-.5586-.868-1.0071-1.308-1.3457-.44-.3385-.927-.6178-1.46-.8379.339.3471.618.6898.838 1.0284.118.1862.33.5797.635 1.1806.093.1778.182.3513.266.5205.093.1693.182.347.267.5332.905 1.7689 1.879 3.1146 2.92 4.0372 1.041.914 2.26 1.5065 3.656 1.7773zm-16.605-.6602h3.707l-.495-.3681c-.288-.2116-.474-.3809-.559-.5078-.076-.127-.114-.3174-.114-.5713 0-.1354-.005-.2243-.013-.2666 0-.0508 0-.1016 0-.1524v-.2158-11.8701-.2158c0-.0508 0-.1016 0-.1524.008-.0508.013-.1396.013-.2666 0-.237.034-.4189.101-.5459.076-.1269.237-.2835.483-.4697l.089-.0635.71-.5459-.457.0254c-.77.0508-1.464.0762-2.082.0762-.38 0-.901-.0127-1.561-.0381l.673.4824c.279.1862.461.3513.546.4951.084.1355.127.3301.127.584.008.1439.012.2836.012.419v.2158 11.8701.2158c0 .1354-.004.2751-.012.419 0 .2623-.039.457-.115.584-.076.1184-.262.2835-.558.4951zm24.011-7.4902c.491-.9479.931-1.6081 1.321-1.9805.398-.3808.855-.5713 1.371-.5713.643 0 1.181.254 1.612.7618.432.5078.648 1.1383.648 1.8916 0 .4824-.102.8548-.305 1.1172-.195.2623-.474.3935-.838.3935-.313 0-.567-.1058-.762-.3174-.194-.2116-.292-.4824-.292-.8125 0-.1523.022-.3216.064-.5078l.114-.4824c.068-.2962.102-.5586.102-.7871s-.064-.4063-.191-.5332c-.118-.1354-.279-.2031-.482-.2031-.237 0-.47.0931-.698.2793-.229.1777-.474.4697-.737.8759-.254.3978-.563.9564-.927 1.6758v4.9004c0 .7025.123 1.2018.369 1.498.254.2963.715.4952 1.383.5967v.3428h-5.839v-.3428c.575-.1015.969-.2962 1.18-.584.212-.2962.318-.7998.318-1.5107v-5.332c0-.711-.11-1.2145-.33-1.5108-.212-.3047-.601-.4993-1.168-.584v-.2793l4.087-.4697zm-2.818 7.5791h2.539l-.304-.2285c-.017-.0169-.034-.0296-.051-.0381l-.165-.1269c-.119-.1185-.182-.2793-.191-.4825v-.2539-.1269-8.2647l-2.082.2285.495.3555c.009 0 .026.0127.051.0381l.165.1269c.085.0593.14.1482.165.2666.026.1101.038.309.038.5967v6.6524c0 .347-.017.5628-.05.6474-.034.0847-.136.1989-.305.3428 0 0-.009.0042-.026.0127-.008.0085-.012.0169-.012.0254zm5.916-9.5723c.195.2624.292.5459.292.8506 0 .2624-.046.584-.14.9649-.084.3639-.126.6051-.126.7236 0 .3555.143.5332.431.5332.364 0 .546-.3428.546-1.0283 0-.8718-.334-1.5531-1.003-2.044z"/><path d="m514.88 64.0645.736 4.2275h-.431c-.229-.7617-.453-1.3626-.673-1.8027s-.466-.8083-.737-1.1045c-.431-.4825-.952-.8591-1.561-1.1299-.601-.2709-1.232-.4063-1.892-.4063-.931 0-1.692.2539-2.285.7618-.592.4993-.889 1.1468-.889 1.9423 0 .8718.386 1.5954 1.156 2.1709.397.2878.821.5459 1.269.7744.457.2201 1.168.5332 2.133.9395.66.2624 1.219.4993 1.676.7109s.825.4021 1.104.5713c.28.1693.559.364.838.584 1.177.9479 1.765 2.1878 1.765 3.7197 0 1.0072-.275 1.917-.825 2.7295s-1.312 1.4515-2.285 1.917c-.974.4571-2.053.6856-3.238.6856-.821 0-1.769-.1228-2.844-.3682-.634-.1523-1.468-.4232-2.501-.8125l-.355-.1269-.381-4.8116h.381c.372 1.2949.973 2.4502 1.803 3.4658 1.092 1.3288 2.391 1.9932 3.897 1.9932.77 0 1.452-.1439 2.044-.4316.601-.2963 1.071-.6983 1.409-1.2061.339-.5163.508-1.1045.508-1.7646 0-.584-.131-1.1088-.393-1.5742-.263-.474-.69-.9183-1.283-1.3331-.592-.4231-1.405-.8548-2.437-1.2949-1.498-.6517-2.408-1.0664-2.73-1.2441-.617-.347-1.13-.7237-1.536-1.1299-.406-.4063-.706-.8464-.901-1.3203-.195-.474-.292-.9818-.292-1.5235 0-.8378.22-1.6038.66-2.2978.449-.694 1.058-1.2399 1.828-1.6377.779-.3978 1.638-.5967 2.577-.5967.593 0 1.253.0974 1.981.292l.762.2031c.567.1524 1.172.2286 1.815.2286zm-.965 15.8691c1.397-1.0072 2.095-2.2175 2.095-3.6309 0-.5586-.119-1.1002-.356-1.625-.228-.5332-.558-.986-.99-1.3584-.626-.567-1.731-1.1806-3.313-1.8408-1.312-.5586-2.167-.9352-2.565-1.1299-.389-.1946-.787-.457-1.193-.7871-.847-.6771-1.27-1.5319-1.27-2.5644 0-.3047.034-.5798.102-.8252.068-.2539.169-.4951.304-.7237.136-.2369.36-.5501.673-.9394-1.21.8717-1.815 1.9593-1.815 3.2627 0 1.2526.491 2.2428 1.473 2.9707.516.3893 1.108.7363 1.777 1.041.085.0423.736.3301 1.955.8633 1.473.6347 2.488 1.2103 3.047 1.7265.889.821 1.333 1.7901 1.333 2.9073 0 .5416-.102 1.0241-.305 1.4472-.194.4148-.512.8168-.952 1.2061zm-8.468-.4951c.559.3216 1.27.6305 2.133.9267-.567-.5078-.999-.9267-1.295-1.2568-.288-.3301-.618-.7956-.99-1.3965zm20.953-8.4805.533 2.9453h-.343c-.254-.9648-.656-1.7223-1.206-2.2724-.542-.5586-1.168-.8379-1.879-.8379-.423 0-.779.1269-1.066.3808-.28.2455-.419.5502-.419.9141 0 .3385.11.6178.33.8379.228.2116.736.5332 1.523.9648 1.287.7025 2.184 1.2569 2.692 1.6631.804.6178 1.206 1.4219 1.206 2.4121 0 .4994-.098.9479-.292 1.3457-.195.3978-.483.7448-.864 1.041-.38.2963-.833.5205-1.358.6729-.525.1608-1.096.2412-1.714.2412-1.024 0-2.251-.2327-3.681-.6982l-.305-3.8594h.305c.761 2.6321 1.946 3.9482 3.554 3.9482.567 0 1.033-.1692 1.397-.5078.372-.3385.558-.7829.558-1.333 0-.5586-.216-1.0072-.647-1.3457-.254-.2031-.88-.5797-1.879-1.1299-.999-.5501-1.684-.9818-2.057-1.2949-.601-.4994-.901-1.1341-.901-1.9043 0-.8294.322-1.5023.965-2.0186.651-.5247 1.489-.7871 2.513-.7871.813 0 1.824.2074 3.035.6221zm-1.994 9.8262c.762-.1016 1.359-.3682 1.79-.7998.432-.4317.648-.9818.648-1.6504 0-.6602-.245-1.2442-.736-1.752-.424-.4485-1.24-.9902-2.451-1.625-.998-.5416-1.671-.9775-2.018-1.3076-.339-.3301-.508-.7109-.508-1.1426 0-.6517.368-1.2314 1.105-1.7392-.618.2031-1.096.5078-1.435.914-.33.4063-.495.876-.495 1.4092 0 .6263.22 1.1384.66 1.5362.339.3131 1.02.7574 2.044 1.333 1.109.6009 1.815 1.041 2.12 1.3203.449.4062.673.914.673 1.5234 0 .9564-.466 1.6165-1.397 1.9805zm-4.176-.5459.228.0762c.33.1269.711.2412 1.143.3427l.279.0635c-.398-.2624-.724-.5247-.977-.7871-.254-.2708-.521-.6305-.8-1.0791z"/><path d="m17.1387 122.671.3935 4.723h-.4062c-.2539-.872-.6009-1.625-1.041-2.26-.4317-.635-.9395-1.122-1.5235-1.46-.5755-.347-1.1806-.521-1.8154-.521-.4994 0-.9352.106-1.3076.318-.364.203-.6348.486-.8125.85-.1693.347-.2539.906-.2539 1.676v10.131c0 .753.0508 1.308.1523 1.663.1016.347.2962.652.584.914.5163.466 1.2695.766 2.2598.901v.394h-8.95023v-.394c1.10026-.152 1.9043-.499 2.41211-1.041.22851-.245.38509-.545.46972-.901.08464-.355.12696-.867.12696-1.536v-10.131c0-.838-.11426-1.447-.34278-1.828-.17773-.313-.44433-.559-.7998-.736-.35547-.187-.76595-.28-1.23145-.28-.95638 0-1.83235.381-2.62793 1.143-.7871.753-1.37532 1.786-1.764644 3.098h-.393554l.393554-4.723zm-.9649.47h-1.8408c.4486.186.8252.402 1.1299.647.3047.237.6221.584.9521 1.041zm-9.45798 16.212h3.71968l-.49507-.369c-.30469-.228-.49512-.402-.57129-.52-.07617-.119-.11426-.305-.11426-.559v-.419c0-.067-.00423-.114-.01269-.139 0-.026 0-.051 0-.076v-11.871c0-.025 0-.05 0-.076.00846-.025.01269-.072.01269-.139v-.419c0-.254.04655-.449.13965-.584.0931-.144.27507-.309.5459-.495l.72367-.534h-3.91019l.59668.534c.21158.186.35546.359.43164.52.07617.152.11425.339.11425.559v.419c.00847.076.0127.148.0127.215v11.871c0 .067-.00423.139-.0127.215v.419c0 .254-.04231.445-.12695.572-.07617.127-.25814.296-.5459.507zm-5.63672-16.212-.177733 1.866c.363933-.533.672853-.923.926753-1.168.25391-.246.58399-.478.99024-.698zm22.0949 6.842v6.729c0 .66.0381 1.193.1143 1.6.0846.397.2116.689.3808.876.1778.186.4105.279.6983.279.5163 0 1.151-.305 1.9043-.914l.1904.304c-.567.491-1.0833.847-1.5488 1.067s-.9437.33-1.4346.33c-.9479 0-1.6715-.313-2.1709-.94-.4909-.634-.7363-1.553-.7363-2.754v-6.615h-1.168v-.304c.6348-.085 1.1891-.314 1.6631-.686s.8548-.884 1.1426-1.536c.2962-.66.5078-1.468.6347-2.425h.3174v4.609h2.7803v.38zm-1.0029-1.637c-.2962.491-.6856.876-1.168 1.155v6.475.292c0 .482.0212.909.0635 1.282.0423.364.1058.656.1904.876.0931.22.2285.436.4063.647.4739.55 1.0875.825 1.8408.825.1354 0 .2539-.004.3555-.012-.3724-.085-.6644-.195-.876-.33-.2031-.136-.3639-.33-.4824-.584-.1185-.263-.2032-.618-.2539-1.067-.0508-.448-.0762-1.003-.0762-1.663v-.355z"/><path d="m63.6201 122.671v.393c-.9818.153-1.6927.5-2.1328 1.041-.2031.263-.3428.572-.4189.927-.0677.356-.1016.859-.1016 1.511v7.008.444c.0085 1.676.4274 2.975 1.2568 3.898.4486.499 1.0199.892 1.7139 1.18.694.28 1.4176.419 2.1709.419 1.1003 0 2.0482-.275 2.8437-.825.8041-.55 1.4092-1.325 1.8155-2.323.3216-.796.4824-1.896.4824-3.301v-5.903c0-1.439-.3301-2.472-.9902-3.098-.5502-.525-1.2399-.851-2.0694-.978v-.393h5.9034v.393c-.5671.153-1.0241.381-1.3711.686-.3386.305-.584.707-.7364 1.206-.1523.499-.2285 1.126-.2285 1.879v6.195c0 1.033-.0635 1.862-.1904 2.489-.127.626-.3343 1.197-.6221 1.713-.3808.678-.8717 1.253-1.4726 1.727-.5925.474-1.278.834-2.0567 1.079-.7786.246-1.6165.368-2.5137.368-.9563 0-1.8365-.135-2.6406-.406-.7956-.279-1.4938-.677-2.0947-1.193-.6009-.525-1.0791-1.156-1.4346-1.892-.4739-.99-.7109-2.412-.7109-4.266v-6.106c0-.728-.0423-1.27-.127-1.625-.0761-.364-.2327-.677-.4697-.939-.4232-.474-1.0495-.779-1.8789-.915v-.393zm8.5059.482h-2.2344c.3301.187.5924.381.7871.584.2031.203.3893.474.5586.813.2285-.55.5247-1.016.8887-1.397zm-15.0821 0 .7745.534c.2623.169.4401.33.5332.482.0931.144.1396.343.1396.597 0 .237.0042.376.0127.419v.215 7.097c0 .601.0508 1.333.1523 2.196.1947 1.642.8379 2.937 1.9297 3.885 1.1003.948 2.501 1.426 4.2022 1.435-1.7181-.364-3.0088-1.126-3.8721-2.285-.3978-.525-.6771-1.126-.8379-1.803-.1523-.686-.2285-1.579-.2285-2.679v-7.846-.215-.419c.0085-.254.055-.453.1397-.597.0931-.144.275-.305.5459-.482l.7744-.534zm28.1887 14.6c-.7194.897-1.4092 1.545-2.0693 1.942-.6602.39-1.3753.584-2.1455.584-.6771 0-1.2865-.148-1.8282-.444-.5332-.305-.9521-.719-1.2568-1.244-.3131-.542-.4697-1.32-.4697-2.336v-4.025c0-.702-.1058-1.206-.3174-1.51-.2116-.305-.6009-.5-1.168-.584v-.28l4.0879-.469v6.944c0 .931.0593 1.57.1778 1.917.1269.389.3258.694.5966.914.2793.212.6009.317.9649.317.5078 0 1.0029-.16 1.4853-.482.4909-.322 1.0707-.876 1.7393-1.663l.2031-.241v-4.863c0-.702-.1058-1.206-.3174-1.51-.2116-.305-.6009-.5-1.1679-.584v-.28l4.0879-.469v8.175c0 .703.1015 1.202.3046 1.499.2116.296.6052.495 1.1807.596v.343h-4.0879zm.4317 1.688h1.8789l-.292-.228s-.0085-.004-.0254-.013c-.0085-.017-.0169-.025-.0254-.025l-.165-.127c-.127-.127-.1905-.288-.1905-.483v-.253l-.0127-.127v-8.265l-2.082.228.5078.356c.0085 0 .0127.004.0127.013.0085 0 .0212.008.0381.025l.165.127c.0762.051.127.127.1524.228.0254.102.0381.314.0381.635zm-6.6016-9.534-2.082.241.5078.356c.0084 0 .0127.004.0127.013.0084 0 .0211.008.0381.025l.165.127c.0762.051.1269.127.1523.228.0254.102.0381.314.0381.635v4.736c0 .6.055 1.1.1651 1.498.11.389.2877.74.5332 1.053.3131.364.6517.644 1.0156.838.3724.195.7321.292 1.0791.292.0254 0 .1481-.008.3682-.025-.5079-.076-.9056-.237-1.1934-.483-.2793-.253-.4824-.622-.6094-1.104-.1269-.491-.1904-1.155-.1904-1.993z"/><path d="m129.007 136.61 3.973-9.153c.339-.787.508-1.443.508-1.968 0-.651-.228-1.172-.685-1.561-.449-.398-1.134-.686-2.057-.864v-.393h6.589v.381c-.55.194-1.037.469-1.46.825-.423.347-.821.812-1.193 1.396-.364.576-.771 1.363-1.219 2.362l-5.637 12.784h-.279l-6.145-13.813c-.558-1.286-1.041-2.154-1.447-2.602-.406-.457-.982-.77-1.726-.94v-.393h8.251v.393l-.279.013c-.812.068-1.384.212-1.714.432s-.495.571-.495 1.053c0 .373.11.809.33 1.308zm-.622 1.422-5.205-11.984c-.246-.559-.368-1.045-.368-1.46 0-.254.055-.483.165-.686.11-.211.321-.452.634-.723h-3.884c.524.414.96.931 1.307 1.549.195.355.36.668.495.939.136.271.258.537.368.8l5.79 13.152zm4.024-14.879c.508.313.868.618 1.079.914.22.297.347.669.381 1.118.229-.474.461-.859.698-1.156.237-.296.551-.588.94-.876zm12.129 17.05h-.292l-4.24-8.201-.19-.33c-.263-.474-.466-.808-.61-1.003-.135-.203-.279-.36-.431-.47-.161-.11-.398-.216-.711-.317v-.279h5.966v.342c-.558.034-.943.119-1.155.254-.203.136-.304.351-.304.648 0 .279.131.681.393 1.206l2.514 5.052 2.59-5.636c.16-.364.241-.631.241-.8 0-.432-.343-.664-1.029-.698l-.292-.026v-.342h3.212v.342c-.355.026-.651.144-.888.356-.237.203-.47.546-.699 1.028l-.152.343zm.483-1.955-3.136-6.068c-.279-.559-.419-.995-.419-1.308 0-.398.182-.69.546-.876h-2.933c.373.288.758.8 1.156 1.536l.304.597.14.254 3.732 7.147z"/><path d="m194.146 122.671h.38l5.18 13.508 3.453-8.722c.313-.787.47-1.447.47-1.98 0-1.262-.973-2.066-2.92-2.413v-.393h6.754v.381c-.55.194-1.054.482-1.511.863-.448.381-.859.876-1.231 1.485-.373.601-.741 1.346-1.105 2.235l-5.078 12.784h-.343l-5.116-13.47-4.875 13.47h-.33l-5.484-13.813c-.339-.846-.652-1.498-.94-1.955-.279-.465-.592-.816-.939-1.053-.339-.237-.766-.415-1.282-.534v-.393h8.226v.393c-.728.043-1.248.119-1.561.229-.618.203-.927.601-.927 1.193 0 .364.106.826.317 1.384l3.974 10.372zm-.115 1.701-.685 1.917 5.078 13.317.698-1.802zm-5.357 13.444-4.52-11.768c-.245-.669-.368-1.172-.368-1.511 0-.271.068-.508.203-.711.136-.203.373-.427.711-.673h-3.986c.313.254.58.521.8.8.228.279.44.609.634.99.204.381.432.889.686 1.524l5.205 13.152zm13.825-14.663c.533.263.91.542 1.13.838.228.288.377.682.444 1.181.423-.83.965-1.502 1.625-2.019zm17.525 17.114h-.292l-3.098-7.008-2.653 7.008h-.305l-3.529-8.075c-.339-.778-.644-1.324-.914-1.637-.271-.322-.622-.525-1.054-.61v-.342h5.929v.342c-.542.026-.919.102-1.13.229-.203.127-.305.351-.305.673 0 .203.055.444.165.723l2.069 5.218 2.717-7.312h.216l3.199 7.236 2.006-4.926c.203-.499.305-.863.305-1.092 0-.27-.102-.457-.305-.558-.203-.11-.567-.174-1.092-.191v-.342h3.326v.342c-.27.009-.507.076-.71.203-.195.119-.381.322-.559.61-.169.279-.364.69-.584 1.231zm-.14-.762.622-1.473-3.06-6.919-.596 1.562zm-6.043.063.571-1.485-2.564-6.005-.102-.241c-.152-.372-.228-.677-.228-.914 0-.398.216-.703.647-.914h-2.983c.186.144.351.304.495.482.152.178.283.368.394.571.11.204.258.517.444.94l.139.317z"/><path d="m262.125 132.154-2.983 4.037c-.483.661-.724 1.236-.724 1.727 0 .99.859 1.553 2.577 1.688v.394h-6.678v-.381c.483-.118.936-.33 1.359-.635.33-.245.69-.546 1.079-.901.398-.364.719-.686.965-.965l.723-.85.153-.178 3.224-4.367-3.047-4.596c-.008-.025-.033-.068-.076-.127-.042-.068-.11-.161-.203-.279l-.736-1.054c-.61-.88-1.139-1.511-1.587-1.892-.449-.389-.94-.626-1.473-.711v-.393h8.049v.393c-.745.026-1.261.127-1.549.305-.288.169-.431.461-.431.876 0 .398.198.897.596 1.498l2.387 3.656 2.311-2.92c.719-.905 1.079-1.599 1.079-2.082 0-.787-.682-1.231-2.044-1.333v-.393h6.093v.381c-.448.084-.897.258-1.345.52-.44.254-.906.61-1.397 1.067-.474.44-.931.914-1.371 1.422-.186.203-.338.376-.457.52l-2.577 3.237 4.342 6.399c.821 1.193 1.494 2.031 2.018 2.513.534.483 1.096.775 1.689.876v.394h-8.201v-.394c.55-.042.969-.101 1.256-.177.288-.085.496-.203.623-.356.135-.161.203-.376.203-.647 0-.356-.161-.775-.483-1.257zm7.49 7.199c-.313-.271-.563-.5-.749-.686s-.431-.474-.736-.863c-.686-.94-1.092-1.507-1.219-1.701l-6.284-9.42c-.711-1.058-1.066-1.841-1.066-2.349 0-.449.224-.842.672-1.181h-4.113c.389.271.72.559.99.864.28.304.686.846 1.219 1.625l.787 1.129c.22.322.33.483.33.483l6.45 9.686c.143.212.275.466.393.762.119.296.178.529.178.698 0 .263-.119.58-.356.953zm-11.261 0c-.287-.381-.431-.766-.431-1.156 0-.118.025-.343.076-.673-.516.618-1.202 1.228-2.057 1.829zm8.456-16.212c.524.33.787.727.787 1.193 0 .093-.03.258-.089.495.541-.643 1.151-1.206 1.828-1.688zm11.964 12.327-2.057 2.729c-.254.33-.381.605-.381.825 0 .407.313.614.94.623l.215.012v.343h-3.516v-.343c.355-.051.668-.152.939-.304.28-.161.572-.411.876-.749l.47-.521c.102-.127.178-.216.228-.267l2.044-2.704-1.929-2.831-.165-.241c-.517-.762-.927-1.286-1.232-1.574-.304-.288-.635-.461-.99-.521v-.342h5.624v.342c-.415.009-.698.055-.851.14-.152.085-.228.233-.228.444 0 .178.055.356.165.533l.152.254.064.127 1.206 1.816 1.638-2.095c.228-.296.342-.533.342-.711 0-.186-.076-.317-.228-.393-.153-.077-.411-.115-.775-.115v-.342h3.187v.342c-.483.068-.872.203-1.168.407-.288.194-.677.6-1.168 1.218l-1.6 2.032 2.831 4.126c.466.668.834 1.125 1.105 1.371.279.237.635.423 1.066.558v.343h-5.814v-.343c.448-.008.77-.055.965-.139.194-.094.292-.246.292-.457 0-.178-.11-.432-.33-.762zm4.951 3.986c-.271-.211-.512-.44-.724-.685-.211-.246-.486-.614-.825-1.105l-3.872-5.662-.127-.178c-.339-.508-.508-.905-.508-1.193 0-.279.157-.495.47-.648h-2.882c.313.22.576.474.787.762.373.491.686.935.94 1.333l.177.267 3.923 5.814c.246.39.368.677.368.863 0 .136-.046.28-.139.432z"/><path d="m324.651 131.329v4.799c0 .736.047 1.282.14 1.638.102.355.288.668.559.939.49.466 1.201.766 2.132.901v.394h-8.594v-.394c1.041-.152 1.794-.499 2.259-1.041.212-.237.356-.524.432-.863.085-.347.127-.872.127-1.574v-4.253l-3.872-5.611-.14-.191c-.736-1.1-1.354-1.862-1.853-2.285-.491-.423-1.029-.664-1.612-.724v-.393h8.036v.393l-.267.013c-.66.034-1.113.136-1.358.305-.246.161-.369.436-.369.825 0 .381.178.829.534 1.346l3.656 5.23 2.945-3.618c.643-.804.965-1.532.965-2.184 0-.592-.22-1.049-.66-1.371-.432-.33-1.054-.512-1.866-.546v-.393h6.804v.393c-.431.11-.837.28-1.218.508-.373.22-.741.5-1.105.838-.355.339-.753.783-1.193 1.333l-.8 1.003-.19.229zm4.152-6.386c.601-.728 1.24-1.341 1.917-1.84h-3.111c.432.203.737.444.914.723.187.279.28.652.28 1.117zm-7.795 14.41h3.707l-.495-.369c-.288-.211-.474-.38-.559-.507-.076-.127-.114-.318-.114-.572 0-.135-.004-.224-.013-.266 0-.051 0-.102 0-.153v-.215-5.942l-3.758-5.357c-.491-.72-.736-1.299-.736-1.74 0-.237.064-.444.19-.622.127-.186.326-.359.597-.52h-4.202c.381.228.736.533 1.066.914.339.372.826 1.016 1.46 1.93l.203.292 3.834 5.56v5.485.215c0 .136-.004.275-.012.419 0 .263-.038.457-.114.584-.077.119-.263.284-.559.495zm18.337.431-3.733-7.693-.126-.267c-.347-.719-.648-1.206-.902-1.46-.245-.254-.558-.393-.939-.419v-.342h5.611v.342c-.44.051-.753.14-.939.267-.187.127-.28.322-.28.584 0 .211.106.542.318.99l2.259 4.875 1.981-4.811c.22-.542.33-.948.33-1.219 0-.229-.093-.394-.279-.495-.186-.102-.504-.165-.952-.191v-.342h3.148v.342c-.423.093-.724.212-.901.356-.17.144-.356.44-.559.888l-.228.496c-.017.05-.034.088-.051.114-.009.017-.021.051-.038.101l-3.911 9.522c-.177.44-.372.821-.583 1.142-.204.331-.424.559-.661.686-.228.135-.486.203-.774.203-.508 0-.944-.207-1.308-.622-.364-.406-.546-.914-.546-1.523 0-.424.106-.766.318-1.029.22-.254.508-.381.863-.381.288 0 .508.077.66.229.161.152.254.372.28.66l.038.444c.033.517.203.775.507.775.187 0 .36-.11.521-.33.161-.212.347-.584.559-1.117zm-1.346 3.06h-.114c-.449 0-.779-.123-.99-.368-.203-.246-.305-.631-.305-1.156l.013-.355c0-.305-.14-.457-.419-.457-.339 0-.508.266-.508.8 0 .507.144.935.432 1.282.296.347.656.52 1.079.52.245 0 .516-.089.812-.266zm2.197-4.837-2.971-6.17c-.186-.398-.279-.724-.279-.978 0-.364.169-.656.507-.876h-2.818c.237.153.432.33.584.534.161.203.338.503.533.901l3.872 7.998z"/><path d="m386.939 140h-13.52v-.406l10.423-16.441h-2.146c-1.726 0-3.085.33-4.075.991-.982.651-1.803 1.764-2.463 3.338h-.47l.991-4.811h11.679v.393l-10.372 16.289h3.009c1.227 0 2.311-.144 3.25-.432.948-.288 1.684-.694 2.209-1.219.787-.787 1.422-1.908 1.904-3.364h.508zm-11.26-.647 10.27-16.212h-1.523l-10.271 16.212zm10.346 0 .407-2.07c-.398.559-.834 1.003-1.308 1.333s-1.054.576-1.739.737zm-9.915-16.187-.431 1.815c.313-.457.618-.816.914-1.079.304-.27.685-.516 1.142-.736zm22.717 16.834h-9.064v-.546l6.335-9.509h-1.435c-1.066 0-1.896.242-2.488.724-.584.482-1.075 1.337-1.473 2.564h-.33l.978-3.63h7.807v.279l-6.385 9.547h1.675c1.346 0 2.358-.275 3.035-.825.685-.551 1.193-1.49 1.523-2.819h.343zm-7.211-.571 6.297-9.471h-1.358l-6.31 9.471zm6.538.038.178-1.194c-.262.347-.499.601-.711.762-.203.153-.499.296-.888.432z"/></g></svg>