<svg fill="none" height="24" viewBox="0 0 176 24" width="176" xmlns="http://www.w3.org/2000/svg"><path d="m21.128 23-.032-16.32-8.096 13.6h-1.472l-8.096-13.504v16.224h-3.072v-22.400002h2.624l9.344 15.744002 9.216-15.744002h2.624l.032 22.400002zm16.6105.192c-1.6853 0-3.2-.3733-4.544-1.12s-2.4-1.7707-3.168-3.072c-.7467-1.3227-1.12-2.816-1.12-4.48s.3733-3.1467 1.12-4.448c.768-1.32267 1.824-2.34667 3.168-3.072 1.344-.74667 2.8587-1.12 4.544-1.12s3.1893.37333 4.512 1.12c1.344.72533 2.3893 1.74933 3.136 3.072.768 1.3013 1.152 2.784 1.152 4.448s-.384 3.1573-1.152 4.48c-.7467 1.3013-1.792 2.3253-3.136 3.072-1.3227.7467-2.8267 1.12-4.512 1.12zm0-2.688c1.088 0 2.0587-.2453 2.912-.736.8747-.512 1.5573-1.216 2.048-2.112.4907-.9173.736-1.9627.736-3.136s-.2453-2.208-.736-3.104c-.4907-.9173-1.1733-1.62133-2.048-2.112-.8533-.49067-1.824-.736-2.912-.736s-2.0693.24533-2.944.736c-.8533.49067-1.536 1.1947-2.048 2.112-.4907.896-.736 1.9307-.736 3.104s.2453 2.2187.736 3.136c.512.896 1.1947 1.6 2.048 2.112.8747.4907 1.856.736 2.944.736zm22.1045-14.624c2.1547 0 3.8613.62933 5.12 1.888 1.28 1.23733 1.92 3.0613 1.92 5.472v9.76h-3.072v-9.408c0-1.6427-.3947-2.88-1.184-3.712s-1.92-1.248-3.392-1.248c-1.664 0-2.976.49067-3.936 1.472-.96.96-1.44 2.3467-1.44 4.16v8.736h-3.072v-16.96h2.944v2.56c.6187-.87467 1.4507-1.54667 2.496-2.016 1.0667-.46933 2.272-.704 3.616-.704zm22.2613 16.128c-.448.384-1.0027.6827-1.664.896-.6614.192-1.344.288-2.048.288-1.7067 0-3.0294-.4587-3.968-1.376-.9387-.9173-1.408-2.2293-1.408-3.936v-9.312h-2.88v-2.528h2.88v-3.712h3.072v3.712h4.864v2.528h-4.864v9.184c0 .9173.224 1.6213.672 2.112.4693.4907 1.1306.736 1.984.736.9386 0 1.7386-.2667 2.4-.8zm8.578 1.184c-1.3867 0-2.72-.1813-4-.544-1.28-.384-2.2827-.864-3.008-1.44l1.28-2.432c.7466.5333 1.6533.96 2.72 1.28 1.0666.32 2.144.48 3.2319.48 2.6881 0 4.0321-.768 4.0321-2.304 0-.512-.1814-.9173-.544-1.216-.3627-.2987-.8214-.512-1.376-.64-.5334-.1493-1.3014-.3093-2.304-.48-1.3654-.2133-2.4854-.4587-3.36-.736-.8534-.2773-1.5894-.7467-2.208-1.408-.6187-.6613-.928-1.5893-.928-2.784 0-1.536.64-2.76267 1.92-3.68 1.28-.93867 2.9973-1.408 5.152-1.408 1.1306 0 2.2613.13867 3.392.416 1.1306.27733 2.0586.65067 2.784 1.12l-1.312 2.432c-1.3867-.896-3.0187-1.344-4.896-1.344-1.3014 0-2.2934.21333-2.976.64-.6827.42667-1.024.992-1.024 1.696 0 .5547.192.992.576 1.312s.8533.5547 1.408.704c.576.1493 1.376.32 2.4.512 1.3653.2347 2.464.4907 3.296.768.8533.256 1.5786.704 2.176 1.344.5973.64.896 1.536.896 2.688 0 1.536-.6614 2.7627-1.984 3.68-1.3014.896-3.0827 1.344-5.344 1.344zm26.4957-8.576c0 .2347-.022.544-.064.928h-13.76c.192 1.4933.842 2.6987 1.952 3.616 1.13.896 2.528 1.344 4.192 1.344 2.026 0 3.658-.6827 4.896-2.048l1.696 1.984c-.768.896-1.728 1.5787-2.88 2.048-1.131.4693-2.4.704-3.808.704-1.792 0-3.382-.3627-4.768-1.088-1.387-.7467-2.464-1.7813-3.232-3.104-.747-1.3227-1.12-2.816-1.12-4.48 0-1.6427.362-3.1253 1.088-4.448.746-1.32267 1.76-2.34667 3.04-3.072 1.301-.74667 2.762-1.12 4.384-1.12 1.621 0 3.061.37333 4.32 1.12 1.28.72533 2.272 1.74933 2.976 3.072.725 1.3227 1.088 2.8373 1.088 4.544zm-8.384-6.144c-1.472 0-2.71.448-3.712 1.344-.982.896-1.558 2.0693-1.728 3.52h10.88c-.171-1.4293-.758-2.592-1.76-3.488-.982-.91733-2.208-1.376-3.68-1.376zm15.593.416c.534-.98133 1.323-1.728 2.368-2.24 1.046-.512 2.315-.768 3.808-.768v2.976c-.17-.02133-.405-.032-.704-.032-1.664 0-2.976.50133-3.936 1.504-.938.9813-1.408 2.3893-1.408 4.224v8.448h-3.072v-16.96h2.944zm12.907 0c.533-.98133 1.322-1.728 2.367-2.24 1.046-.512 2.315-.768 3.809-.768v2.976c-.171-.02133-.406-.032-.704-.032-1.664 0-2.976.50133-3.936 1.504-.939.9813-1.408 2.3893-1.408 4.224v8.448h-3.072v-16.96h2.944zm16.107-3.008c2.346 0 4.138.576 5.376 1.728 1.258 1.152 1.888 2.8693 1.888 5.152v10.24h-2.912v-2.24c-.512.7893-1.248 1.3973-2.208 1.824-.939.4053-2.059.608-3.36.608-1.899 0-3.424-.4587-4.576-1.376-1.131-.9173-1.696-2.1227-1.696-3.616s.544-2.688 1.632-3.584c1.088-.9173 2.816-1.376 5.184-1.376h4.864v-.608c0-1.3227-.384-2.336-1.152-3.04s-1.899-1.056-3.392-1.056c-1.003 0-1.984.17067-2.944.512-.96.32-1.771.75733-2.432 1.312l-1.28-2.304c.874-.704 1.92-1.23733 3.136-1.6 1.216-.384 2.506-.576 3.872-.576zm-.704 14.944c1.173 0 2.186-.256 3.04-.768.853-.5333 1.472-1.28 1.856-2.24v-2.368h-4.736c-2.603 0-3.904.8747-3.904 2.624 0 .8533.33 1.5253.992 2.016.661.4907 1.578.736 2.752.736zm23.189 1.184c-.448.384-1.003.6827-1.664.896-.662.192-1.344.288-2.048.288-1.707 0-3.03-.4587-3.968-1.376-.939-.9173-1.408-2.2293-1.408-3.936v-9.312h-2.88v-2.528h2.88v-3.712h3.072v3.712h4.864v2.528h-4.864v9.184c0 .9173.224 1.6213.672 2.112.469.4907 1.13.736 1.984.736.938 0 1.738-.2667 2.4-.8z" fill="#f9b64c"/></svg>