<svg width="543" height="103" viewBox="0 0 543 103" fill="none" xmlns="http://www.w3.org/2000/svg">
<path d="M10.918 16.85H4.222L2.836 20H0.982L6.688 7.4H8.47L14.194 20H12.304L10.918 16.85ZM10.288 15.41L7.57 9.236L4.852 15.41H10.288ZM20.1956 10.37C21.5156 10.37 22.5236 10.694 23.2196 11.342C23.9276 11.99 24.2816 12.956 24.2816 14.24V20H22.6436V18.74C22.3556 19.184 21.9416 19.526 21.4016 19.766C20.8736 19.994 20.2436 20.108 19.5116 20.108C18.4436 20.108 17.5856 19.85 16.9376 19.334C16.3016 18.818 15.9836 18.14 15.9836 17.3C15.9836 16.46 16.2896 15.788 16.9016 15.284C17.5136 14.768 18.4856 14.51 19.8176 14.51H22.5536V14.168C22.5536 13.424 22.3376 12.854 21.9056 12.458C21.4736 12.062 20.8376 11.864 19.9976 11.864C19.4336 11.864 18.8816 11.96 18.3416 12.152C17.8016 12.332 17.3456 12.578 16.9736 12.89L16.2536 11.594C16.7456 11.198 17.3336 10.898 18.0176 10.694C18.7016 10.478 19.4276 10.37 20.1956 10.37ZM19.7996 18.776C20.4596 18.776 21.0296 18.632 21.5096 18.344C21.9896 18.044 22.3376 17.624 22.5536 17.084V15.752H19.8896C18.4256 15.752 17.6936 16.244 17.6936 17.228C17.6936 17.708 17.8796 18.086 18.2516 18.362C18.6236 18.638 19.1396 18.776 19.7996 18.776Z" fill="#E9D6D6"/>
<path d="M60.368 13.466C61.1 13.67 61.676 14.042 62.096 14.582C62.516 15.11 62.726 15.782 62.726 16.598C62.726 17.69 62.312 18.53 61.484 19.118C60.668 19.706 59.474 20 57.902 20H51.89V7.4H57.542C58.982 7.4 60.092 7.688 60.872 8.264C61.664 8.84 62.06 9.638 62.06 10.658C62.06 11.318 61.904 11.888 61.592 12.368C61.292 12.848 60.884 13.214 60.368 13.466ZM53.69 8.858V12.89H57.38C58.304 12.89 59.012 12.722 59.504 12.386C60.008 12.038 60.26 11.534 60.26 10.874C60.26 10.214 60.008 9.716 59.504 9.38C59.012 9.032 58.304 8.858 57.38 8.858H53.69ZM57.83 18.542C58.85 18.542 59.618 18.374 60.134 18.038C60.65 17.702 60.908 17.174 60.908 16.454C60.908 15.05 59.882 14.348 57.83 14.348H53.69V18.542H57.83ZM71.219 10.37C72.143 10.37 72.971 10.574 73.703 10.982C74.435 11.39 75.005 11.96 75.413 12.692C75.833 13.424 76.043 14.27 76.043 15.23C76.043 16.19 75.833 17.042 75.413 17.786C75.005 18.518 74.435 19.088 73.703 19.496C72.971 19.904 72.143 20.108 71.219 20.108C70.511 20.108 69.863 19.97 69.275 19.694C68.687 19.418 68.201 19.016 67.817 18.488V20H66.161V6.644H67.889V11.9C68.273 11.396 68.753 11.018 69.329 10.766C69.905 10.502 70.535 10.37 71.219 10.37ZM71.075 18.596C71.687 18.596 72.233 18.458 72.713 18.182C73.205 17.894 73.589 17.498 73.865 16.994C74.153 16.478 74.297 15.89 74.297 15.23C74.297 14.57 74.153 13.988 73.865 13.484C73.589 12.968 73.205 12.572 72.713 12.296C72.233 12.02 71.687 11.882 71.075 11.882C70.475 11.882 69.929 12.02 69.437 12.296C68.945 12.572 68.561 12.968 68.285 13.484C68.009 13.988 67.871 14.57 67.871 15.23C67.871 15.89 68.009 16.478 68.285 16.994C68.561 17.498 68.945 17.894 69.437 18.182C69.929 18.458 70.475 18.596 71.075 18.596Z" fill="#E9D6D6"/>
<path d="M108.524 20.144C107.264 20.144 106.124 19.868 105.104 19.316C104.096 18.752 103.304 17.984 102.728 17.012C102.152 16.028 101.864 14.924 101.864 13.7C101.864 12.476 102.152 11.378 102.728 10.406C103.304 9.422 104.102 8.654 105.122 8.102C106.142 7.538 107.282 7.256 108.542 7.256C109.526 7.256 110.426 7.424 111.242 7.76C112.058 8.084 112.754 8.57 113.33 9.218L112.16 10.352C111.212 9.356 110.03 8.858 108.614 8.858C107.678 8.858 106.832 9.068 106.076 9.488C105.32 9.908 104.726 10.49 104.294 11.234C103.874 11.966 103.664 12.788 103.664 13.7C103.664 14.612 103.874 15.44 104.294 16.184C104.726 16.916 105.32 17.492 106.076 17.912C106.832 18.332 107.678 18.542 108.614 18.542C110.018 18.542 111.2 18.038 112.16 17.03L113.33 18.164C112.754 18.812 112.052 19.304 111.224 19.64C110.408 19.976 109.508 20.144 108.524 20.144ZM120.3 20.108C119.328 20.108 118.458 19.898 117.69 19.478C116.934 19.058 116.34 18.482 115.908 17.75C115.476 17.006 115.26 16.166 115.26 15.23C115.26 14.294 115.476 13.46 115.908 12.728C116.34 11.984 116.934 11.408 117.69 11C118.458 10.58 119.328 10.37 120.3 10.37C121.164 10.37 121.932 10.544 122.604 10.892C123.288 11.24 123.816 11.744 124.188 12.404L122.874 13.25C122.574 12.794 122.202 12.452 121.758 12.224C121.314 11.996 120.822 11.882 120.282 11.882C119.658 11.882 119.094 12.02 118.59 12.296C118.098 12.572 117.708 12.968 117.42 13.484C117.144 13.988 117.006 14.57 117.006 15.23C117.006 15.902 117.144 16.496 117.42 17.012C117.708 17.516 118.098 17.906 118.59 18.182C119.094 18.458 119.658 18.596 120.282 18.596C120.822 18.596 121.314 18.482 121.758 18.254C122.202 18.026 122.574 17.684 122.874 17.228L124.188 18.056C123.816 18.716 123.288 19.226 122.604 19.586C121.932 19.934 121.164 20.108 120.3 20.108Z" fill="#E9D6D6"/>
<path d="M150.89 7.4H156.2C157.532 7.4 158.714 7.664 159.746 8.192C160.778 8.72 161.576 9.464 162.14 10.424C162.716 11.372 163.004 12.464 163.004 13.7C163.004 14.936 162.716 16.034 162.14 16.994C161.576 17.942 160.778 18.68 159.746 19.208C158.714 19.736 157.532 20 156.2 20H150.89V7.4ZM156.092 18.434C157.112 18.434 158.006 18.236 158.774 17.84C159.554 17.444 160.154 16.892 160.574 16.184C160.994 15.464 161.204 14.636 161.204 13.7C161.204 12.764 160.994 11.942 160.574 11.234C160.154 10.514 159.554 9.956 158.774 9.56C158.006 9.164 157.112 8.966 156.092 8.966H152.69V18.434H156.092ZM175.409 6.644V20H173.753V18.488C173.369 19.016 172.883 19.418 172.295 19.694C171.707 19.97 171.059 20.108 170.351 20.108C169.427 20.108 168.599 19.904 167.867 19.496C167.135 19.088 166.559 18.518 166.139 17.786C165.731 17.042 165.527 16.19 165.527 15.23C165.527 14.27 165.731 13.424 166.139 12.692C166.559 11.96 167.135 11.39 167.867 10.982C168.599 10.574 169.427 10.37 170.351 10.37C171.035 10.37 171.665 10.502 172.241 10.766C172.817 11.018 173.297 11.396 173.681 11.9V6.644H175.409ZM170.495 18.596C171.095 18.596 171.641 18.458 172.133 18.182C172.625 17.894 173.009 17.498 173.285 16.994C173.561 16.478 173.699 15.89 173.699 15.23C173.699 14.57 173.561 13.988 173.285 13.484C173.009 12.968 172.625 12.572 172.133 12.296C171.641 12.02 171.095 11.882 170.495 11.882C169.883 11.882 169.331 12.02 168.839 12.296C168.359 12.572 167.975 12.968 167.687 13.484C167.411 13.988 167.273 14.57 167.273 15.23C167.273 15.89 167.411 16.478 167.687 16.994C167.975 17.498 168.359 17.894 168.839 18.182C169.331 18.458 169.883 18.596 170.495 18.596Z" fill="#E9D6D6"/>
<path d="M213.034 18.434V20H203.89V7.4H212.782V8.966H205.69V12.836H212.008V14.366H205.69V18.434H213.034ZM225.096 15.284C225.096 15.416 225.084 15.59 225.06 15.806H217.32C217.428 16.646 217.794 17.324 218.418 17.84C219.054 18.344 219.84 18.596 220.776 18.596C221.916 18.596 222.834 18.212 223.53 17.444L224.484 18.56C224.052 19.064 223.512 19.448 222.864 19.712C222.228 19.976 221.514 20.108 220.722 20.108C219.714 20.108 218.82 19.904 218.04 19.496C217.26 19.076 216.654 18.494 216.222 17.75C215.802 17.006 215.592 16.166 215.592 15.23C215.592 14.306 215.796 13.472 216.204 12.728C216.624 11.984 217.194 11.408 217.914 11C218.646 10.58 219.468 10.37 220.38 10.37C221.292 10.37 222.102 10.58 222.81 11C223.53 11.408 224.088 11.984 224.484 12.728C224.892 13.472 225.096 14.324 225.096 15.284ZM220.38 11.828C219.552 11.828 218.856 12.08 218.292 12.584C217.74 13.088 217.416 13.748 217.32 14.564H223.44C223.344 13.76 223.014 13.106 222.45 12.602C221.898 12.086 221.208 11.828 220.38 11.828Z" fill="#E9D6D6"/>
<path d="M253.69 8.966V13.358H260.008V14.906H253.69V20H251.89V7.4H260.782V8.966H253.69ZM267.456 7.958C266.424 7.958 265.908 8.516 265.908 9.632V10.46H268.68V11.882H265.944V20H264.216V11.882H262.596V10.46H264.216V9.614C264.216 8.666 264.492 7.916 265.044 7.364C265.596 6.812 266.37 6.536 267.366 6.536C267.75 6.536 268.11 6.584 268.446 6.68C268.782 6.776 269.07 6.914 269.31 7.094L268.788 8.408C268.392 8.108 267.948 7.958 267.456 7.958Z" fill="#E9D6D6"/>
<path d="M303.62 13.628H305.348V18.542C304.724 19.058 303.998 19.454 303.17 19.73C302.342 20.006 301.478 20.144 300.578 20.144C299.306 20.144 298.16 19.868 297.14 19.316C296.12 18.752 295.316 17.984 294.728 17.012C294.152 16.028 293.864 14.924 293.864 13.7C293.864 12.476 294.152 11.372 294.728 10.388C295.316 9.404 296.12 8.636 297.14 8.084C298.172 7.532 299.33 7.256 300.614 7.256C301.622 7.256 302.534 7.424 303.35 7.76C304.178 8.084 304.88 8.564 305.456 9.2L304.34 10.316C303.332 9.344 302.114 8.858 300.686 8.858C299.726 8.858 298.862 9.068 298.094 9.488C297.338 9.896 296.744 10.472 296.312 11.216C295.88 11.948 295.664 12.776 295.664 13.7C295.664 14.612 295.88 15.44 296.312 16.184C296.744 16.916 297.338 17.492 298.094 17.912C298.862 18.332 299.72 18.542 300.668 18.542C301.796 18.542 302.78 18.272 303.62 17.732V13.628ZM318.568 10.46V18.704C318.568 20.372 318.154 21.602 317.326 22.394C316.498 23.198 315.262 23.6 313.618 23.6C312.718 23.6 311.86 23.474 311.044 23.222C310.228 22.982 309.568 22.634 309.064 22.178L309.892 20.846C310.336 21.23 310.882 21.53 311.53 21.746C312.19 21.974 312.868 22.088 313.564 22.088C314.68 22.088 315.502 21.824 316.03 21.296C316.57 20.768 316.84 19.964 316.84 18.884V18.128C316.432 18.62 315.928 18.992 315.328 19.244C314.74 19.484 314.098 19.604 313.402 19.604C312.49 19.604 311.662 19.412 310.918 19.028C310.186 18.632 309.61 18.086 309.19 17.39C308.77 16.682 308.56 15.878 308.56 14.978C308.56 14.078 308.77 13.28 309.19 12.584C309.61 11.876 310.186 11.33 310.918 10.946C311.662 10.562 312.49 10.37 313.402 10.37C314.122 10.37 314.788 10.502 315.4 10.766C316.024 11.03 316.534 11.42 316.93 11.936V10.46H318.568ZM313.6 18.092C314.224 18.092 314.782 17.96 315.274 17.696C315.778 17.432 316.168 17.066 316.444 16.598C316.732 16.118 316.876 15.578 316.876 14.978C316.876 14.054 316.57 13.31 315.958 12.746C315.346 12.17 314.56 11.882 313.6 11.882C312.628 11.882 311.836 12.17 311.224 12.746C310.612 13.31 310.306 14.054 310.306 14.978C310.306 15.578 310.444 16.118 310.72 16.598C311.008 17.066 311.398 17.432 311.89 17.696C312.394 17.96 312.964 18.092 313.6 18.092Z" fill="#E9D6D6"/>
<path d="M357.726 7.4V20H355.926V14.384H348.69V20H346.89V7.4H348.69V12.818H355.926V7.4H357.726ZM367.239 10.37C368.451 10.37 369.411 10.724 370.119 11.432C370.839 12.128 371.199 13.154 371.199 14.51V20H369.471V14.708C369.471 13.784 369.249 13.088 368.805 12.62C368.361 12.152 367.725 11.918 366.897 11.918C365.961 11.918 365.223 12.194 364.683 12.746C364.143 13.286 363.873 14.066 363.873 15.086V20H362.145V6.644H363.873V11.81C364.233 11.354 364.701 11 365.277 10.748C365.865 10.496 366.519 10.37 367.239 10.37Z" fill="#E9D6D6"/>
<path d="M398.89 7.4H400.69V20H398.89V7.4ZM405.11 10.46H406.838V20H405.11V10.46ZM405.974 8.624C405.638 8.624 405.356 8.516 405.128 8.3C404.912 8.084 404.804 7.82 404.804 7.508C404.804 7.196 404.912 6.932 405.128 6.716C405.356 6.488 405.638 6.374 405.974 6.374C406.31 6.374 406.586 6.482 406.802 6.698C407.03 6.902 407.144 7.16 407.144 7.472C407.144 7.796 407.03 8.072 406.802 8.3C406.586 8.516 406.31 8.624 405.974 8.624Z" fill="#E9D6D6"/>
<path d="M436.51 20.144C435.754 20.144 435.052 19.988 434.404 19.676C433.756 19.352 433.234 18.902 432.838 18.326L433.882 17.102C434.578 18.098 435.454 18.596 436.51 18.596C437.218 18.596 437.752 18.38 438.112 17.948C438.484 17.516 438.67 16.88 438.67 16.04V8.966H434.116V7.4H440.452V15.95C440.452 17.342 440.116 18.392 439.444 19.1C438.784 19.796 437.806 20.144 436.51 20.144ZM443.455 23.6C443.035 23.6 442.645 23.552 442.285 23.456C441.925 23.36 441.625 23.216 441.385 23.024L441.943 21.692C442.303 21.992 442.771 22.142 443.347 22.142C443.803 22.142 444.151 21.998 444.391 21.71C444.643 21.434 444.769 21.02 444.769 20.468V10.46H446.497V20.432C446.497 21.416 446.233 22.19 445.705 22.754C445.177 23.318 444.427 23.6 443.455 23.6ZM445.633 8.624C445.297 8.624 445.015 8.516 444.787 8.3C444.571 8.084 444.463 7.82 444.463 7.508C444.463 7.196 444.571 6.932 444.787 6.716C445.015 6.488 445.297 6.374 445.633 6.374C445.969 6.374 446.245 6.482 446.461 6.698C446.689 6.902 446.803 7.16 446.803 7.472C446.803 7.796 446.689 8.072 446.461 8.3C446.245 8.516 445.969 8.624 445.633 8.624Z" fill="#E9D6D6"/>
<path d="M478.994 14.402L476.69 16.742V20H474.89V7.4H476.69V14.438L483.53 7.4H485.582L480.2 13.07L485.924 20H483.818L478.994 14.402ZM492.183 15.554L490.203 17.39V20H488.475V6.644H490.203V15.212L495.405 10.46H497.493L493.479 14.402L497.89 20H495.766L492.183 15.554Z" fill="#E9D6D6"/>
<path d="M523.89 7.4H525.69V18.434H532.512V20H523.89V7.4ZM535.225 6.644H536.953V20H535.225V6.644Z" fill="#E9D6D6"/>
<path d="M14.572 58L14.554 48.82L10 56.47H9.172L4.618 48.874V58H2.89V45.4H4.366L9.622 54.256L14.806 45.4H16.282L16.3 58H14.572ZM32.6634 48.37C33.8634 48.37 34.8114 48.718 35.5074 49.414C36.2154 50.11 36.5694 51.142 36.5694 52.51V58H34.8414V52.708C34.8414 51.784 34.6254 51.088 34.1934 50.62C33.7734 50.152 33.1674 49.918 32.3754 49.918C31.4994 49.918 30.8034 50.194 30.2874 50.746C29.7714 51.286 29.5134 52.066 29.5134 53.086V58H27.7854V52.708C27.7854 51.784 27.5694 51.088 27.1374 50.62C26.7174 50.152 26.1114 49.918 25.3194 49.918C24.4434 49.918 23.7474 50.194 23.2314 50.746C22.7154 51.286 22.4574 52.066 22.4574 53.086V58H20.7294V48.46H22.3854V49.882C22.7334 49.39 23.1894 49.018 23.7534 48.766C24.3174 48.502 24.9594 48.37 25.6794 48.37C26.4234 48.37 27.0834 48.52 27.6594 48.82C28.2354 49.12 28.6794 49.558 28.9914 50.134C29.3514 49.582 29.8494 49.15 30.4854 48.838C31.1334 48.526 31.8594 48.37 32.6634 48.37Z" fill="#E9D6D6"/>
<path d="M75.726 45.4V58H74.25L66.69 48.604V58H64.89V45.4H66.366L73.926 54.796V45.4H75.726ZM85.2394 48.37C86.4514 48.37 87.4114 48.724 88.1194 49.432C88.8394 50.128 89.1994 51.154 89.1994 52.51V58H87.4714V52.708C87.4714 51.784 87.2494 51.088 86.8054 50.62C86.3614 50.152 85.7254 49.918 84.8974 49.918C83.9614 49.918 83.2234 50.194 82.6834 50.746C82.1434 51.286 81.8734 52.066 81.8734 53.086V58H80.1454V48.46H81.8014V49.9C82.1494 49.408 82.6174 49.03 83.2054 48.766C83.8054 48.502 84.4834 48.37 85.2394 48.37Z" fill="#E9D6D6"/>
<path d="M122.578 58.144C121.306 58.144 120.16 57.868 119.14 57.316C118.12 56.752 117.316 55.978 116.728 54.994C116.152 54.01 115.864 52.912 115.864 51.7C115.864 50.488 116.152 49.39 116.728 48.406C117.316 47.422 118.12 46.654 119.14 46.102C120.16 45.538 121.306 45.256 122.578 45.256C123.838 45.256 124.978 45.538 125.998 46.102C127.018 46.654 127.816 47.422 128.392 48.406C128.968 49.378 129.256 50.476 129.256 51.7C129.256 52.924 128.968 54.028 128.392 55.012C127.816 55.984 127.018 56.752 125.998 57.316C124.978 57.868 123.838 58.144 122.578 58.144ZM122.578 56.542C123.502 56.542 124.33 56.332 125.062 55.912C125.806 55.492 126.388 54.916 126.808 54.184C127.24 53.44 127.456 52.612 127.456 51.7C127.456 50.788 127.24 49.966 126.808 49.234C126.388 48.49 125.806 47.908 125.062 47.488C124.33 47.068 123.502 46.858 122.578 46.858C121.654 46.858 120.814 47.068 120.058 47.488C119.314 47.908 118.726 48.49 118.294 49.234C117.874 49.966 117.664 50.788 117.664 51.7C117.664 52.612 117.874 53.44 118.294 54.184C118.726 54.916 119.314 55.492 120.058 55.912C120.814 56.332 121.654 56.542 122.578 56.542ZM136.741 58.108C135.793 58.108 134.941 57.898 134.185 57.478C133.429 57.058 132.835 56.482 132.403 55.75C131.983 55.006 131.773 54.166 131.773 53.23C131.773 52.294 131.983 51.46 132.403 50.728C132.835 49.984 133.429 49.408 134.185 49C134.941 48.58 135.793 48.37 136.741 48.37C137.689 48.37 138.535 48.58 139.279 49C140.035 49.408 140.623 49.984 141.043 50.728C141.475 51.46 141.691 52.294 141.691 53.23C141.691 54.166 141.475 55.006 141.043 55.75C140.623 56.482 140.035 57.058 139.279 57.478C138.535 57.898 137.689 58.108 136.741 58.108ZM136.741 56.596C137.353 56.596 137.899 56.458 138.379 56.182C138.871 55.894 139.255 55.498 139.531 54.994C139.807 54.478 139.945 53.89 139.945 53.23C139.945 52.57 139.807 51.988 139.531 51.484C139.255 50.968 138.871 50.572 138.379 50.296C137.899 50.02 137.353 49.882 136.741 49.882C136.129 49.882 135.577 50.02 135.085 50.296C134.605 50.572 134.221 50.968 133.933 51.484C133.657 51.988 133.519 52.57 133.519 53.23C133.519 53.89 133.657 54.478 133.933 54.994C134.221 55.498 134.605 55.894 135.085 56.182C135.577 56.458 136.129 56.596 136.741 56.596Z" fill="#E9D6D6"/>
<path d="M173.804 45.4C175.436 45.4 176.72 45.79 177.656 46.57C178.592 47.35 179.06 48.424 179.06 49.792C179.06 51.16 178.592 52.234 177.656 53.014C176.72 53.794 175.436 54.184 173.804 54.184H170.69V58H168.89V45.4H173.804ZM173.75 52.618C174.89 52.618 175.76 52.378 176.36 51.898C176.96 51.406 177.26 50.704 177.26 49.792C177.26 48.88 176.96 48.184 176.36 47.704C175.76 47.212 174.89 46.966 173.75 46.966H170.69V52.618H173.75ZM187.252 48.37C188.176 48.37 189.004 48.574 189.736 48.982C190.468 49.39 191.038 49.96 191.446 50.692C191.866 51.424 192.076 52.27 192.076 53.23C192.076 54.19 191.866 55.042 191.446 55.786C191.038 56.518 190.468 57.088 189.736 57.496C189.004 57.904 188.176 58.108 187.252 58.108C186.568 58.108 185.938 57.976 185.362 57.712C184.798 57.448 184.318 57.064 183.922 56.56V61.492H182.194V48.46H183.85V49.972C184.234 49.444 184.72 49.048 185.308 48.784C185.896 48.508 186.544 48.37 187.252 48.37ZM187.108 56.596C187.72 56.596 188.266 56.458 188.746 56.182C189.238 55.894 189.622 55.498 189.898 54.994C190.186 54.478 190.33 53.89 190.33 53.23C190.33 52.57 190.186 51.988 189.898 51.484C189.622 50.968 189.238 50.572 188.746 50.296C188.266 50.02 187.72 49.882 187.108 49.882C186.508 49.882 185.962 50.026 185.47 50.314C184.99 50.59 184.606 50.98 184.318 51.484C184.042 51.988 183.904 52.57 183.904 53.23C183.904 53.89 184.042 54.478 184.318 54.994C184.594 55.498 184.978 55.894 185.47 56.182C185.962 56.458 186.508 56.596 187.108 56.596Z" fill="#E9D6D6"/>
<path d="M231.868 59.152C231.46 59.632 230.986 59.998 230.446 60.25C229.906 60.502 229.324 60.628 228.7 60.628C227.908 60.628 227.164 60.436 226.468 60.052C225.784 59.68 224.998 59.038 224.11 58.126C222.922 58.066 221.848 57.748 220.888 57.172C219.94 56.596 219.196 55.834 218.656 54.886C218.128 53.926 217.864 52.864 217.864 51.7C217.864 50.488 218.152 49.39 218.728 48.406C219.316 47.422 220.12 46.654 221.14 46.102C222.16 45.538 223.306 45.256 224.578 45.256C225.838 45.256 226.978 45.538 227.998 46.102C229.018 46.654 229.816 47.422 230.392 48.406C230.968 49.378 231.256 50.476 231.256 51.7C231.256 52.732 231.046 53.68 230.626 54.544C230.218 55.408 229.636 56.134 228.88 56.722C228.136 57.31 227.278 57.718 226.306 57.946C226.726 58.39 227.128 58.708 227.512 58.9C227.908 59.104 228.31 59.206 228.718 59.206C229.606 59.206 230.374 58.846 231.022 58.126L231.868 59.152ZM219.664 51.7C219.664 52.612 219.874 53.44 220.294 54.184C220.726 54.916 221.314 55.492 222.058 55.912C222.814 56.332 223.654 56.542 224.578 56.542C225.49 56.542 226.318 56.332 227.062 55.912C227.806 55.492 228.388 54.916 228.808 54.184C229.24 53.44 229.456 52.612 229.456 51.7C229.456 50.788 229.24 49.966 228.808 49.234C228.388 48.49 227.806 47.908 227.062 47.488C226.318 47.068 225.49 46.858 224.578 46.858C223.654 46.858 222.814 47.068 222.058 47.488C221.314 47.908 220.726 48.49 220.294 49.234C219.874 49.966 219.664 50.788 219.664 51.7ZM243.655 48.46V61.492H241.927V56.56C241.531 57.064 241.045 57.448 240.469 57.712C239.905 57.976 239.281 58.108 238.597 58.108C237.673 58.108 236.845 57.904 236.113 57.496C235.381 57.088 234.805 56.518 234.385 55.786C233.977 55.042 233.773 54.19 233.773 53.23C233.773 52.27 233.977 51.424 234.385 50.692C234.805 49.96 235.381 49.39 236.113 48.982C236.845 48.574 237.673 48.37 238.597 48.37C239.305 48.37 239.953 48.508 240.541 48.784C241.129 49.048 241.615 49.444 241.999 49.972V48.46H243.655ZM238.741 56.596C239.341 56.596 239.887 56.458 240.379 56.182C240.871 55.894 241.255 55.498 241.531 54.994C241.807 54.478 241.945 53.89 241.945 53.23C241.945 52.57 241.801 51.988 241.513 51.484C241.237 50.98 240.853 50.59 240.361 50.314C239.881 50.026 239.341 49.882 238.741 49.882C238.129 49.882 237.577 50.02 237.085 50.296C236.605 50.572 236.221 50.968 235.933 51.484C235.657 51.988 235.519 52.57 235.519 53.23C235.519 53.89 235.657 54.478 235.933 54.994C236.221 55.498 236.605 55.894 237.085 56.182C237.577 56.458 238.129 56.596 238.741 56.596Z" fill="#E9D6D6"/>
<path d="M280.314 58L277.596 54.13C277.26 54.154 276.996 54.166 276.804 54.166H273.69V58H271.89V45.4H276.804C278.436 45.4 279.72 45.79 280.656 46.57C281.592 47.35 282.06 48.424 282.06 49.792C282.06 50.764 281.82 51.592 281.34 52.276C280.86 52.96 280.176 53.458 279.288 53.77L282.276 58H280.314ZM276.75 52.636C277.89 52.636 278.76 52.39 279.36 51.898C279.96 51.406 280.26 50.704 280.26 49.792C280.26 48.88 279.96 48.184 279.36 47.704C278.76 47.212 277.89 46.966 276.75 46.966H273.69V52.636H276.75ZM287.272 50.062C287.572 49.51 288.016 49.09 288.604 48.802C289.192 48.514 289.906 48.37 290.746 48.37V50.044C290.65 50.032 290.518 50.026 290.35 50.026C289.414 50.026 288.676 50.308 288.136 50.872C287.608 51.424 287.344 52.216 287.344 53.248V58H285.616V48.46H287.272V50.062Z" fill="#E9D6D6"/>
<path d="M321.562 58.144C320.614 58.144 319.696 58 318.808 57.712C317.932 57.412 317.242 57.028 316.738 56.56L317.404 55.156C317.884 55.588 318.496 55.942 319.24 56.218C319.996 56.482 320.77 56.614 321.562 56.614C322.606 56.614 323.386 56.44 323.902 56.092C324.418 55.732 324.676 55.258 324.676 54.67C324.676 54.238 324.532 53.89 324.244 53.626C323.968 53.35 323.62 53.14 323.2 52.996C322.792 52.852 322.21 52.69 321.454 52.51C320.506 52.282 319.738 52.054 319.15 51.826C318.574 51.598 318.076 51.25 317.656 50.782C317.248 50.302 317.044 49.66 317.044 48.856C317.044 48.184 317.218 47.578 317.566 47.038C317.926 46.498 318.466 46.066 319.186 45.742C319.906 45.418 320.8 45.256 321.868 45.256C322.612 45.256 323.344 45.352 324.064 45.544C324.784 45.736 325.402 46.012 325.918 46.372L325.324 47.812C324.796 47.476 324.232 47.224 323.632 47.056C323.032 46.876 322.444 46.786 321.868 46.786C320.848 46.786 320.08 46.972 319.564 47.344C319.06 47.716 318.808 48.196 318.808 48.784C318.808 49.216 318.952 49.57 319.24 49.846C319.528 50.11 319.882 50.32 320.302 50.476C320.734 50.62 321.316 50.776 322.048 50.944C322.996 51.172 323.758 51.4 324.334 51.628C324.91 51.856 325.402 52.204 325.81 52.672C326.23 53.14 326.44 53.77 326.44 54.562C326.44 55.222 326.26 55.828 325.9 56.38C325.54 56.92 324.994 57.352 324.262 57.676C323.53 57.988 322.63 58.144 321.562 58.144ZM332.454 58.108C331.674 58.108 330.924 58.006 330.204 57.802C329.484 57.586 328.92 57.316 328.512 56.992L329.232 55.624C329.652 55.924 330.162 56.164 330.762 56.344C331.362 56.524 331.968 56.614 332.58 56.614C334.092 56.614 334.848 56.182 334.848 55.318C334.848 55.03 334.746 54.802 334.542 54.634C334.338 54.466 334.08 54.346 333.768 54.274C333.468 54.19 333.036 54.1 332.472 54.004C331.704 53.884 331.074 53.746 330.582 53.59C330.102 53.434 329.688 53.17 329.34 52.798C328.992 52.426 328.818 51.904 328.818 51.232C328.818 50.368 329.178 49.678 329.898 49.162C330.618 48.634 331.584 48.37 332.796 48.37C333.432 48.37 334.068 48.448 334.704 48.604C335.34 48.76 335.862 48.97 336.27 49.234L335.532 50.602C334.752 50.098 333.834 49.846 332.778 49.846C332.046 49.846 331.488 49.966 331.104 50.206C330.72 50.446 330.528 50.764 330.528 51.16C330.528 51.472 330.636 51.718 330.852 51.898C331.068 52.078 331.332 52.21 331.644 52.294C331.968 52.378 332.418 52.474 332.994 52.582C333.762 52.714 334.38 52.858 334.848 53.014C335.328 53.158 335.736 53.41 336.072 53.77C336.408 54.13 336.576 54.634 336.576 55.282C336.576 56.146 336.204 56.836 335.46 57.352C334.728 57.856 333.726 58.108 332.454 58.108Z" fill="#E9D6D6"/>
<path d="M366.392 46.966H362.072V45.4H372.494V46.966H368.174V58H366.392V46.966ZM380.519 57.442C380.267 57.658 379.955 57.826 379.583 57.946C379.211 58.054 378.827 58.108 378.431 58.108C377.471 58.108 376.727 57.85 376.199 57.334C375.671 56.818 375.407 56.08 375.407 55.12V49.882H373.787V48.46H375.407V46.372H377.135V48.46H379.871V49.882H377.135V55.048C377.135 55.564 377.261 55.96 377.513 56.236C377.777 56.512 378.149 56.65 378.629 56.65C379.157 56.65 379.607 56.5 379.979 56.2L380.519 57.442Z" fill="#E9D6D6"/>
<path d="M412.11 58.144C410.43 58.144 409.122 57.664 408.186 56.704C407.25 55.744 406.782 54.364 406.782 52.564V45.4H408.582V52.492C408.582 55.192 409.764 56.542 412.128 56.542C413.28 56.542 414.162 56.212 414.774 55.552C415.386 54.88 415.692 53.86 415.692 52.492V45.4H417.438V52.564C417.438 54.376 416.97 55.762 416.034 56.722C415.098 57.67 413.79 58.144 412.11 58.144ZM430.668 48.46V58H429.03V56.56C428.682 57.052 428.22 57.436 427.644 57.712C427.08 57.976 426.462 58.108 425.79 58.108C424.518 58.108 423.516 57.76 422.784 57.064C422.052 56.356 421.686 55.318 421.686 53.95V48.46H423.414V53.752C423.414 54.676 423.636 55.378 424.08 55.858C424.524 56.326 425.16 56.56 425.988 56.56C426.9 56.56 427.62 56.284 428.148 55.732C428.676 55.18 428.94 54.4 428.94 53.392V48.46H430.668Z" fill="#E9D6D6"/>
<path d="M469.834 45.4L464.308 58H462.526L456.982 45.4H458.926L463.462 55.75L468.034 45.4H469.834ZM480.496 48.46L476.32 58H474.556L470.38 48.46H472.18L475.456 56.11L478.804 48.46H480.496Z" fill="#E9D6D6"/>
<path d="M524.692 45.4L520.48 58H518.59L515.152 47.938L511.714 58H509.788L505.576 45.4H507.43L510.832 55.642L514.378 45.4H516.034L519.508 55.696L522.982 45.4H524.692ZM541.943 48.46L538.379 58H536.723L533.969 50.764L531.179 58H529.523L525.977 48.46H527.615L530.387 56.056L533.267 48.46H534.725L537.551 56.092L540.395 48.46H541.943Z" fill="#E9D6D6"/>
<path d="M10.81 96L7.03 90.798L3.304 96H1.234L5.968 89.538L1.522 83.4H3.574L7.102 88.242L10.594 83.4H12.556L8.11 89.484L12.88 96H10.81ZM21.0478 96L18.2938 92.346L15.5038 96H13.5778L17.3398 91.122L13.7578 86.46H15.6838L18.3118 89.898L20.9218 86.46H22.8118L19.2118 91.122L23.0098 96H21.0478Z" fill="#E9D6D6"/>
<path d="M54.714 91.644V96H52.932V91.608L47.928 83.4H49.854L53.886 90.042L57.936 83.4H59.718L54.714 91.644ZM69.8784 86.46L65.2524 96.954C64.8444 97.926 64.3644 98.61 63.8124 99.006C63.2724 99.402 62.6184 99.6 61.8504 99.6C61.3824 99.6 60.9264 99.522 60.4824 99.366C60.0504 99.222 59.6904 99.006 59.4024 98.718L60.1404 97.422C60.6324 97.89 61.2024 98.124 61.8504 98.124C62.2704 98.124 62.6184 98.01 62.8944 97.782C63.1824 97.566 63.4404 97.188 63.6684 96.648L63.9744 95.982L59.7624 86.46H61.5624L64.8924 94.092L68.1864 86.46H69.8784Z" fill="#E9D6D6"/>
<path d="M105.304 94.434V96H94.774V94.776L102.694 84.966H94.9V83.4H105.07V84.624L97.186 94.434H105.304ZM115.442 94.578V96H107.45V94.884L113.084 87.882H107.558V86.46H115.298V87.594L109.664 94.578H115.442Z" fill="#E9D6D6"/>
</svg>
