<svg fill="none" height="103" viewBox="0 0 543 103" width="543" xmlns="http://www.w3.org/2000/svg"><g fill="#e9d6d6"><path d="m10.918 16.85h-6.696l-1.386 3.15h-1.854l5.706-12.6h1.782l5.724 12.6h-1.89zm-.63-1.44-2.718-6.174-2.718 6.174zm9.9076-5.04c1.32 0 2.328.324 3.024.972.708.648 1.062 1.614 1.062 2.898v5.76h-1.638v-1.26c-.288.444-.702.786-1.242 1.026-.528.228-1.158.342-1.89.342-1.068 0-1.926-.258-2.574-.774-.636-.516-.954-1.194-.954-2.034s.306-1.512.918-2.016c.612-.516 1.584-.774 2.916-.774h2.736v-.342c0-.744-.216-1.314-.648-1.71s-1.068-.594-1.908-.594c-.564 0-1.116.096-1.656.288-.54.18-.996.426-1.368.738l-.72-1.296c.492-.396 1.08-.696 1.764-.9.684-.216 1.41-.324 2.178-.324zm-.396 8.406c.66 0 1.23-.144 1.71-.432.48-.3.828-.72 1.044-1.26v-1.332h-2.664c-1.464 0-2.196.492-2.196 1.476 0 .48.186.858.558 1.134s.888.414 1.548.414z"/><path d="m60.368 13.466c.732.204 1.308.576 1.728 1.116.42.528.63 1.2.63 2.016 0 1.092-.414 1.932-1.242 2.52-.816.588-2.01.882-3.582.882h-6.012v-12.6h5.652c1.44 0 2.55.288 3.33.864.792.576 1.188 1.374 1.188 2.394 0 .66-.156 1.23-.468 1.71-.3.48-.708.846-1.224 1.098zm-6.678-4.608v4.032h3.69c.924 0 1.632-.168 2.124-.504.504-.348.756-.852.756-1.512s-.252-1.158-.756-1.494c-.492-.348-1.2-.522-2.124-.522zm4.14 9.684c1.02 0 1.788-.168 2.304-.504s.774-.864.774-1.584c0-1.404-1.026-2.106-3.078-2.106h-4.14v4.194zm13.389-8.172c.924 0 1.752.204 2.484.612s1.302.978 1.71 1.71c.42.732.63 1.578.63 2.538s-.21 1.812-.63 2.556c-.408.732-.978 1.302-1.71 1.71s-1.56.612-2.484.612c-.708 0-1.356-.138-1.944-.414s-1.074-.678-1.458-1.206v1.512h-1.656v-13.356h1.728v5.256c.384-.504.864-.882 1.44-1.134.576-.264 1.206-.396 1.89-.396zm-.144 8.226c.612 0 1.158-.138 1.638-.414.492-.288.876-.684 1.152-1.188.288-.516.432-1.104.432-1.764s-.144-1.242-.432-1.746c-.276-.516-.66-.912-1.152-1.188-.48-.276-1.026-.414-1.638-.414-.6 0-1.146.138-1.638.414s-.876.672-1.152 1.188c-.276.504-.414 1.086-.414 1.746s.138 1.248.414 1.764c.276.504.66.9 1.152 1.188.492.276 1.038.414 1.638.414z"/><path d="m108.524 20.144c-1.26 0-2.4-.276-3.42-.828-1.008-.564-1.8-1.332-2.376-2.304-.576-.984-.864-2.088-.864-3.312s.288-2.322.864-3.294c.576-.984 1.374-1.752 2.394-2.304 1.02-.564 2.16-.846 3.42-.846.984 0 1.884.168 2.7.504.816.324 1.512.81 2.088 1.458l-1.17 1.134c-.948-.996-2.13-1.494-3.546-1.494-.936 0-1.782.21-2.538.63s-1.35 1.002-1.782 1.746c-.42.732-.63 1.554-.63 2.466s.21 1.74.63 2.484c.432.732 1.026 1.308 1.782 1.728s1.602.63 2.538.63c1.404 0 2.586-.504 3.546-1.512l1.17 1.134c-.576.648-1.278 1.14-2.106 1.476-.816.336-1.716.504-2.7.504zm11.776-.036c-.972 0-1.842-.21-2.61-.63-.756-.42-1.35-.996-1.782-1.728-.432-.744-.648-1.584-.648-2.52s.216-1.77.648-2.502c.432-.744 1.026-1.32 1.782-1.728.768-.42 1.638-.63 2.61-.63.864 0 1.632.174 2.304.522.684.348 1.212.852 1.584 1.512l-1.314.846c-.3-.456-.672-.798-1.116-1.026s-.936-.342-1.476-.342c-.624 0-1.188.138-1.692.414-.492.276-.882.672-1.17 1.188-.276.504-.414 1.086-.414 1.746 0 .672.138 1.266.414 1.782.288.504.678.894 1.17 1.17.504.276 1.068.414 1.692.414.54 0 1.032-.114 1.476-.342s.816-.57 1.116-1.026l1.314.828c-.372.66-.9 1.17-1.584 1.53-.672.348-1.44.522-2.304.522z"/><path d="m150.89 7.4h5.31c1.332 0 2.514.264 3.546.792s1.83 1.272 2.394 2.232c.576.948.864 2.04.864 3.276s-.288 2.334-.864 3.294c-.564.948-1.362 1.686-2.394 2.214s-2.214.792-3.546.792h-5.31zm5.202 11.034c1.02 0 1.914-.198 2.682-.594.78-.396 1.38-.948 1.8-1.656.42-.72.63-1.548.63-2.484s-.21-1.758-.63-2.466c-.42-.72-1.02-1.278-1.8-1.674-.768-.396-1.662-.594-2.682-.594h-3.402v9.468zm19.317-11.79v13.356h-1.656v-1.512c-.384.528-.87.93-1.458 1.206s-1.236.414-1.944.414c-.924 0-1.752-.204-2.484-.612s-1.308-.978-1.728-1.71c-.408-.744-.612-1.596-.612-2.556s.204-1.806.612-2.538c.42-.732.996-1.302 1.728-1.71s1.56-.612 2.484-.612c.684 0 1.314.132 1.89.396.576.252 1.056.63 1.44 1.134v-5.256zm-4.914 11.952c.6 0 1.146-.138 1.638-.414.492-.288.876-.684 1.152-1.188.276-.516.414-1.104.414-1.764s-.138-1.242-.414-1.746c-.276-.516-.66-.912-1.152-1.188s-1.038-.414-1.638-.414c-.612 0-1.164.138-1.656.414-.48.276-.864.672-1.152 1.188-.276.504-.414 1.086-.414 1.746s.138 1.248.414 1.764c.288.504.672.9 1.152 1.188.492.276 1.044.414 1.656.414z"/><path d="m213.034 18.434v1.566h-9.144v-12.6h8.892v1.566h-7.092v3.87h6.318v1.53h-6.318v4.068zm12.062-3.15c0 .132-.012.306-.036.522h-7.74c.108.84.474 1.518 1.098 2.034.636.504 1.422.756 2.358.756 1.14 0 2.058-.384 2.754-1.152l.954 1.116c-.432.504-.972.888-1.62 1.152-.636.264-1.35.396-2.142.396-1.008 0-1.902-.204-2.682-.612-.78-.42-1.386-1.002-1.818-1.746-.42-.744-.63-1.584-.63-2.52 0-.924.204-1.758.612-2.502.42-.744.99-1.32 1.71-1.728.732-.42 1.554-.63 2.466-.63s1.722.21 2.43.63c.72.408 1.278.984 1.674 1.728.408.744.612 1.596.612 2.556zm-4.716-3.456c-.828 0-1.524.252-2.088.756-.552.504-.876 1.164-.972 1.98h6.12c-.096-.804-.426-1.458-.99-1.962-.552-.516-1.242-.774-2.07-.774z"/><path d="m253.69 8.966v4.392h6.318v1.548h-6.318v5.094h-1.8v-12.6h8.892v1.566zm13.766-1.008c-1.032 0-1.548.558-1.548 1.674v.828h2.772v1.422h-2.736v8.118h-1.728v-8.118h-1.62v-1.422h1.62v-.846c0-.948.276-1.698.828-2.25s1.326-.828 2.322-.828c.384 0 .744.048 1.08.144s.624.234.864.414l-.522 1.314c-.396-.3-.84-.45-1.332-.45z"/><path d="m303.62 13.628h1.728v4.914c-.624.516-1.35.912-2.178 1.188s-1.692.414-2.592.414c-1.272 0-2.418-.276-3.438-.828-1.02-.564-1.824-1.332-2.412-2.304-.576-.984-.864-2.088-.864-3.312s.288-2.328.864-3.312c.588-.984 1.392-1.752 2.412-2.304 1.032-.552 2.19-.828 3.474-.828 1.008 0 1.92.168 2.736.504.828.324 1.53.804 2.106 1.44l-1.116 1.116c-1.008-.972-2.226-1.458-3.654-1.458-.96 0-1.824.21-2.592.63-.756.408-1.35.984-1.782 1.728-.432.732-.648 1.56-.648 2.484 0 .912.216 1.74.648 2.484.432.732 1.026 1.308 1.782 1.728.768.42 1.626.63 2.574.63 1.128 0 2.112-.27 2.952-.81zm14.948-3.168v8.244c0 1.668-.414 2.898-1.242 3.69-.828.804-2.064 1.206-3.708 1.206-.9 0-1.758-.126-2.574-.378-.816-.24-1.476-.588-1.98-1.044l.828-1.332c.444.384.99.684 1.638.9.66.228 1.338.342 2.034.342 1.116 0 1.938-.264 2.466-.792.54-.528.81-1.332.81-2.412v-.756c-.408.492-.912.864-1.512 1.116-.588.24-1.23.36-1.926.36-.912 0-1.74-.192-2.484-.576-.732-.396-1.308-.942-1.728-1.638-.42-.708-.63-1.512-.63-2.412s.21-1.698.63-2.394c.42-.708.996-1.254 1.728-1.638.744-.384 1.572-.576 2.484-.576.72 0 1.386.132 1.998.396.624.264 1.134.654 1.53 1.17v-1.476zm-4.968 7.632c.624 0 1.182-.132 1.674-.396.504-.264.894-.63 1.17-1.098.288-.48.432-1.02.432-1.62 0-.924-.306-1.668-.918-2.232-.612-.576-1.398-.864-2.358-.864-.972 0-1.764.288-2.376.864-.612.564-.918 1.308-.918 2.232 0 .6.138 1.14.414 1.62.288.468.678.834 1.17 1.098.504.264 1.074.396 1.71.396z"/><path d="m357.726 7.4v12.6h-1.8v-5.616h-7.236v5.616h-1.8v-12.6h1.8v5.418h7.236v-5.418zm9.513 2.97c1.212 0 2.172.354 2.88 1.062.72.696 1.08 1.722 1.08 3.078v5.49h-1.728v-5.292c0-.924-.222-1.62-.666-2.088s-1.08-.702-1.908-.702c-.936 0-1.674.276-2.214.828-.54.54-.81 1.32-.81 2.34v4.914h-1.728v-13.356h1.728v5.166c.36-.456.828-.81 1.404-1.062.588-.252 1.242-.378 1.962-.378z"/><path d="m398.89 7.4h1.8v12.6h-1.8zm6.22 3.06h1.728v9.54h-1.728zm.864-1.836c-.336 0-.618-.108-.846-.324-.216-.216-.324-.48-.324-.792s.108-.576.324-.792c.228-.228.51-.342.846-.342s.612.108.828.324c.228.204.342.462.342.774 0 .324-.114.6-.342.828-.216.216-.492.324-.828.324z"/><path d="m436.51 20.144c-.756 0-1.458-.156-2.106-.468-.648-.324-1.17-.774-1.566-1.35l1.044-1.224c.696.996 1.572 1.494 2.628 1.494.708 0 1.242-.216 1.602-.648.372-.432.558-1.068.558-1.908v-7.074h-4.554v-1.566h6.336v8.55c0 1.392-.336 2.442-1.008 3.15-.66.696-1.638 1.044-2.934 1.044zm6.945 3.456c-.42 0-.81-.048-1.17-.144s-.66-.24-.9-.432l.558-1.332c.36.3.828.45 1.404.45.456 0 .804-.144 1.044-.432.252-.276.378-.69.378-1.242v-10.008h1.728v9.972c0 .984-.264 1.758-.792 2.322s-1.278.846-2.25.846zm2.178-14.976c-.336 0-.618-.108-.846-.324-.216-.216-.324-.48-.324-.792s.108-.576.324-.792c.228-.228.51-.342.846-.342s.612.108.828.324c.228.204.342.462.342.774 0 .324-.114.6-.342.828-.216.216-.492.324-.828.324z"/><path d="m478.994 14.402-2.304 2.34v3.258h-1.8v-12.6h1.8v7.038l6.84-7.038h2.052l-5.382 5.67 5.724 6.93h-2.106zm13.189 1.152-1.98 1.836v2.61h-1.728v-13.356h1.728v8.568l5.202-4.752h2.088l-4.014 3.942 4.411 5.598h-2.124z"/><path d="m523.89 7.4h1.8v11.034h6.822v1.566h-8.622zm11.335-.756h1.728v13.356h-1.728z"/><path d="m14.572 58-.018-9.18-4.554 7.65h-.828l-4.554-7.596v9.126h-1.728v-12.6h1.476l5.256 8.856 5.184-8.856h1.476l.018 12.6zm18.0914-9.63c1.2 0 2.148.348 2.844 1.044.708.696 1.062 1.728 1.062 3.096v5.49h-1.728v-5.292c0-.924-.216-1.62-.648-2.088-.42-.468-1.026-.702-1.818-.702-.876 0-1.572.276-2.088.828-.516.54-.774 1.32-.774 2.34v4.914h-1.728v-5.292c0-.924-.216-1.62-.648-2.088-.42-.468-1.026-.702-1.818-.702-.876 0-1.572.276-2.088.828-.516.54-.774 1.32-.774 2.34v4.914h-1.728v-9.54h1.656v1.422c.348-.492.804-.864 1.368-1.116.564-.264 1.206-.396 1.926-.396.744 0 1.404.15 1.98.45s1.02.738 1.332 1.314c.36-.552.858-.984 1.494-1.296.648-.312 1.374-.468 2.178-.468z"/><path d="m75.726 45.4v12.6h-1.476l-7.56-9.396v9.396h-1.8v-12.6h1.476l7.56 9.396v-9.396zm9.5134 2.97c1.212 0 2.172.354 2.88 1.062.72.696 1.08 1.722 1.08 3.078v5.49h-1.728v-5.292c0-.924-.222-1.62-.666-2.088s-1.08-.702-1.908-.702c-.936 0-1.674.276-2.214.828-.54.54-.81 1.32-.81 2.34v4.914h-1.728v-9.54h1.656v1.44c.348-.492.816-.87 1.404-1.134.6-.264 1.278-.396 2.034-.396z"/><path d="m122.578 58.144c-1.272 0-2.418-.276-3.438-.828-1.02-.564-1.824-1.338-2.412-2.322-.576-.984-.864-2.082-.864-3.294s.288-2.31.864-3.294c.588-.984 1.392-1.752 2.412-2.304 1.02-.564 2.166-.846 3.438-.846 1.26 0 2.4.282 3.42.846 1.02.552 1.818 1.32 2.394 2.304.576.972.864 2.07.864 3.294s-.288 2.328-.864 3.312c-.576.972-1.374 1.74-2.394 2.304-1.02.552-2.16.828-3.42.828zm0-1.602c.924 0 1.752-.21 2.484-.63.744-.42 1.326-.996 1.746-1.728.432-.744.648-1.572.648-2.484s-.216-1.734-.648-2.466c-.42-.744-1.002-1.326-1.746-1.746-.732-.42-1.56-.63-2.484-.63s-1.764.21-2.52.63c-.744.42-1.332 1.002-1.764 1.746-.42.732-.63 1.554-.63 2.466s.21 1.74.63 2.484c.432.732 1.02 1.308 1.764 1.728.756.42 1.596.63 2.52.63zm14.163 1.566c-.948 0-1.8-.21-2.556-.63s-1.35-.996-1.782-1.728c-.42-.744-.63-1.584-.63-2.52s.21-1.77.63-2.502c.432-.744 1.026-1.32 1.782-1.728.756-.42 1.608-.63 2.556-.63s1.794.21 2.538.63c.756.408 1.344.984 1.764 1.728.432.732.648 1.566.648 2.502s-.216 1.776-.648 2.52c-.42.732-1.008 1.308-1.764 1.728-.744.42-1.59.63-2.538.63zm0-1.512c.612 0 1.158-.138 1.638-.414.492-.288.876-.684 1.152-1.188.276-.516.414-1.104.414-1.764s-.138-1.242-.414-1.746c-.276-.516-.66-.912-1.152-1.188-.48-.276-1.026-.414-1.638-.414s-1.164.138-1.656.414c-.48.276-.864.672-1.152 1.188-.276.504-.414 1.086-.414 1.746s.138 1.248.414 1.764c.288.504.672.9 1.152 1.188.492.276 1.044.414 1.656.414z"/><path d="m173.804 45.4c1.632 0 2.916.39 3.852 1.17s1.404 1.854 1.404 3.222-.468 2.442-1.404 3.222-2.22 1.17-3.852 1.17h-3.114v3.816h-1.8v-12.6zm-.054 7.218c1.14 0 2.01-.24 2.61-.72.6-.492.9-1.194.9-2.106s-.3-1.608-.9-2.088c-.6-.492-1.47-.738-2.61-.738h-3.06v5.652zm13.502-4.248c.924 0 1.752.204 2.484.612s1.302.978 1.71 1.71c.42.732.63 1.578.63 2.538s-.21 1.812-.63 2.556c-.408.732-.978 1.302-1.71 1.71s-1.56.612-2.484.612c-.684 0-1.314-.132-1.89-.396-.564-.264-1.044-.648-1.44-1.152v4.932h-1.728v-13.032h1.656v1.512c.384-.528.87-.924 1.458-1.188.588-.276 1.236-.414 1.944-.414zm-.144 8.226c.612 0 1.158-.138 1.638-.414.492-.288.876-.684 1.152-1.188.288-.516.432-1.104.432-1.764s-.144-1.242-.432-1.746c-.276-.516-.66-.912-1.152-1.188-.48-.276-1.026-.414-1.638-.414-.6 0-1.146.144-1.638.432-.48.276-.864.666-1.152 1.17-.276.504-.414 1.086-.414 1.746s.138 1.248.414 1.764c.276.504.66.9 1.152 1.188.492.276 1.038.414 1.638.414z"/><path d="m231.868 59.152c-.408.48-.882.846-1.422 1.098s-1.122.378-1.746.378c-.792 0-1.536-.192-2.232-.576-.684-.372-1.47-1.014-2.358-1.926-1.188-.06-2.262-.378-3.222-.954-.948-.576-1.692-1.338-2.232-2.286-.528-.96-.792-2.022-.792-3.186 0-1.212.288-2.31.864-3.294.588-.984 1.392-1.752 2.412-2.304 1.02-.564 2.166-.846 3.438-.846 1.26 0 2.4.282 3.42.846 1.02.552 1.818 1.32 2.394 2.304.576.972.864 2.07.864 3.294 0 1.032-.21 1.98-.63 2.844-.408.864-.99 1.59-1.746 2.178-.744.588-1.602.996-2.574 1.224.42.444.822.762 1.206.954.396.204.798.306 1.206.306.888 0 1.656-.36 2.304-1.08zm-12.204-7.452c0 .912.21 1.74.63 2.484.432.732 1.02 1.308 1.764 1.728.756.42 1.596.63 2.52.63.912 0 1.74-.21 2.484-.63s1.326-.996 1.746-1.728c.432-.744.648-1.572.648-2.484s-.216-1.734-.648-2.466c-.42-.744-1.002-1.326-1.746-1.746s-1.572-.63-2.484-.63c-.924 0-1.764.21-2.52.63-.744.42-1.332 1.002-1.764 1.746-.42.732-.63 1.554-.63 2.466zm23.991-3.24v13.032h-1.728v-4.932c-.396.504-.882.888-1.458 1.152-.564.264-1.188.396-1.872.396-.924 0-1.752-.204-2.484-.612s-1.308-.978-1.728-1.71c-.408-.744-.612-1.596-.612-2.556s.204-1.806.612-2.538c.42-.732.996-1.302 1.728-1.71s1.56-.612 2.484-.612c.708 0 1.356.138 1.944.414.588.264 1.074.66 1.458 1.188v-1.512zm-4.914 8.136c.6 0 1.146-.138 1.638-.414.492-.288.876-.684 1.152-1.188.276-.516.414-1.104.414-1.764s-.144-1.242-.432-1.746c-.276-.504-.66-.894-1.152-1.17-.48-.288-1.02-.432-1.62-.432-.612 0-1.164.138-1.656.414-.48.276-.864.672-1.152 1.188-.276.504-.414 1.086-.414 1.746s.138 1.248.414 1.764c.288.504.672.9 1.152 1.188.492.276 1.044.414 1.656.414z"/><path d="m280.314 58-2.718-3.87c-.336.024-.6.036-.792.036h-3.114v3.834h-1.8v-12.6h4.914c1.632 0 2.916.39 3.852 1.17s1.404 1.854 1.404 3.222c0 .972-.24 1.8-.72 2.484s-1.164 1.182-2.052 1.494l2.988 4.23zm-3.564-5.364c1.14 0 2.01-.246 2.61-.738s.9-1.194.9-2.106-.3-1.608-.9-2.088c-.6-.492-1.47-.738-2.61-.738h-3.06v5.67zm10.522-2.574c.3-.552.744-.972 1.332-1.26s1.302-.432 2.142-.432v1.674c-.096-.012-.228-.018-.396-.018-.936 0-1.674.282-2.214.846-.528.552-.792 1.344-.792 2.376v4.752h-1.728v-9.54h1.656z"/><path d="m321.562 58.144c-.948 0-1.866-.144-2.754-.432-.876-.3-1.566-.684-2.07-1.152l.666-1.404c.48.432 1.092.786 1.836 1.062.756.264 1.53.396 2.322.396 1.044 0 1.824-.174 2.34-.522.516-.36.774-.834.774-1.422 0-.432-.144-.78-.432-1.044-.276-.276-.624-.486-1.044-.63-.408-.144-.99-.306-1.746-.486-.948-.228-1.716-.456-2.304-.684-.576-.228-1.074-.576-1.494-1.044-.408-.48-.612-1.122-.612-1.926 0-.672.174-1.278.522-1.818.36-.54.9-.972 1.62-1.296s1.614-.486 2.682-.486c.744 0 1.476.096 2.196.288s1.338.468 1.854.828l-.594 1.44c-.528-.336-1.092-.588-1.692-.756-.6-.18-1.188-.27-1.764-.27-1.02 0-1.788.186-2.304.558-.504.372-.756.852-.756 1.44 0 .432.144.786.432 1.062.288.264.642.474 1.062.63.432.144 1.014.3 1.746.468.948.228 1.71.456 2.286.684s1.068.576 1.476 1.044c.42.468.63 1.098.63 1.89 0 .66-.18 1.266-.54 1.818-.36.54-.906.972-1.638 1.296-.732.312-1.632.468-2.7.468zm10.892-.036c-.78 0-1.53-.102-2.25-.306-.72-.216-1.284-.486-1.692-.81l.72-1.368c.42.3.93.54 1.53.72s1.206.27 1.818.27c1.512 0 2.268-.432 2.268-1.296 0-.288-.102-.516-.306-.684s-.462-.288-.774-.36c-.3-.084-.732-.174-1.296-.27-.768-.12-1.398-.258-1.89-.414-.48-.156-.894-.42-1.242-.792s-.522-.894-.522-1.566c0-.864.36-1.554 1.08-2.07.72-.528 1.686-.792 2.898-.792.636 0 1.272.078 1.908.234s1.158.366 1.566.63l-.738 1.368c-.78-.504-1.698-.756-2.754-.756-.732 0-1.29.12-1.674.36s-.576.558-.576.954c0 .312.108.558.324.738s.48.312.792.396c.324.084.774.18 1.35.288.768.132 1.386.276 1.854.432.48.144.888.396 1.224.756s.504.864.504 1.512c0 .864-.372 1.554-1.116 2.07-.732.504-1.734.756-3.006.756z"/><path d="m366.392 46.966h-4.32v-1.566h10.422v1.566h-4.32v11.034h-1.782zm14.127 10.476c-.252.216-.564.384-.936.504-.372.108-.756.162-1.152.162-.96 0-1.704-.258-2.232-.774s-.792-1.254-.792-2.214v-5.238h-1.62v-1.422h1.62v-2.088h1.728v2.088h2.736v1.422h-2.736v5.166c0 .516.126.912.378 1.188.264.276.636.414 1.116.414.528 0 .978-.15 1.35-.45z"/><path d="m412.11 58.144c-1.68 0-2.988-.48-3.924-1.44s-1.404-2.34-1.404-4.14v-7.164h1.8v7.092c0 2.7 1.182 4.05 3.546 4.05 1.152 0 2.034-.33 2.646-.99.612-.672.918-1.692.918-3.06v-7.092h1.746v7.164c0 1.812-.468 3.198-1.404 4.158-.936.948-2.244 1.422-3.924 1.422zm18.558-9.684v9.54h-1.638v-1.44c-.348.492-.81.876-1.386 1.152-.564.264-1.182.396-1.854.396-1.272 0-2.274-.348-3.006-1.044-.732-.708-1.098-1.746-1.098-3.114v-5.49h1.728v5.292c0 .924.222 1.626.666 2.106.444.468 1.08.702 1.908.702.912 0 1.632-.276 2.16-.828s.792-1.332.792-2.34v-4.932z"/><path d="m469.834 45.4-5.526 12.6h-1.782l-5.544-12.6h1.944l4.536 10.35 4.572-10.35zm10.662 3.06-4.176 9.54h-1.764l-4.176-9.54h1.8l3.276 7.65 3.348-7.65z"/><path d="m524.692 45.4-4.212 12.6h-1.89l-3.438-10.062-3.438 10.062h-1.926l-4.212-12.6h1.854l3.402 10.242 3.546-10.242h1.656l3.474 10.296 3.474-10.296zm17.251 3.06-3.564 9.54h-1.656l-2.754-7.236-2.79 7.236h-1.656l-3.546-9.54h1.638l2.772 7.596 2.88-7.596h1.458l2.826 7.632 2.844-7.632z"/><path d="m10.81 96-3.78-5.202-3.726 5.202h-2.07l4.734-6.462-4.446-6.138h2.052l3.528 4.842 3.492-4.842h1.962l-4.446 6.084 4.77 6.516zm10.2378 0-2.754-3.654-2.79 3.654h-1.926l3.762-4.878-3.582-4.662h1.926l2.628 3.438 2.61-3.438h1.89l-3.6 4.662 3.798 4.878z"/><path d="m54.714 91.644v4.356h-1.782v-4.392l-5.004-8.208h1.926l4.032 6.642 4.05-6.642h1.782zm15.1644-5.184-4.626 10.494c-.408.972-.888 1.656-1.44 2.052-.54.396-1.194.594-1.962.594-.468 0-.924-.078-1.368-.234-.432-.144-.792-.36-1.08-.648l.738-1.296c.492.468 1.062.702 1.71.702.42 0 .768-.114 1.044-.342.288-.216.546-.594.774-1.134l.306-.666-4.212-9.522h1.8l3.33 7.632 3.294-7.632z"/><path d="m105.304 94.434v1.566h-10.53v-1.224l7.92-9.81h-7.794v-1.566h10.17v1.224l-7.884 9.81zm10.138.144v1.422h-7.992v-1.116l5.634-7.002h-5.526v-1.422h7.74v1.134l-5.634 6.984z"/></g></svg>