<svg width="422" height="81" viewBox="0 0 422 81" fill="none" xmlns="http://www.w3.org/2000/svg">
<path d="M33.1504 3.28516L35.5293 16.9434H34.1348C33.3965 14.4824 32.6719 12.541 31.9609 11.1191C31.25 9.69727 30.457 8.50781 29.582 7.55078C28.1875 5.99219 26.5059 4.77539 24.5371 3.90039C22.5957 3.02539 20.5586 2.58789 18.4258 2.58789C15.418 2.58789 12.957 3.4082 11.043 5.04883C9.12891 6.66211 8.17188 8.75391 8.17188 11.3242C8.17188 14.1406 9.41602 16.4785 11.9043 18.3379C13.1895 19.2676 14.5566 20.1016 16.0059 20.8398C17.4824 21.5508 19.7793 22.5625 22.8965 23.875C25.0293 24.7227 26.834 25.4883 28.3105 26.1719C29.7871 26.8555 30.9766 27.4707 31.8789 28.0176C32.7812 28.5645 33.6836 29.1934 34.5859 29.9043C38.3867 32.9668 40.2871 36.9727 40.2871 41.9219C40.2871 45.1758 39.3984 48.1152 37.6211 50.7402C35.8438 53.3652 33.3828 55.4297 30.2383 56.9336C27.0938 58.4102 23.6074 59.1484 19.7793 59.1484C17.127 59.1484 14.0645 58.752 10.5918 57.959C8.54102 57.4668 5.84766 56.5918 2.51172 55.334L1.36328 54.9238L0.132812 39.3789H1.36328C2.56641 43.5625 4.50781 47.2949 7.1875 50.5762C10.7148 54.8691 14.9121 57.0156 19.7793 57.0156C22.2676 57.0156 24.4688 56.5508 26.3828 55.6211C28.3242 54.6641 29.8418 53.3652 30.9355 51.7246C32.0293 50.0566 32.5762 48.1562 32.5762 46.0234C32.5762 44.1367 32.1523 42.4414 31.3047 40.9375C30.457 39.4062 29.0762 37.9707 27.1621 36.6309C25.248 35.2637 22.623 33.8691 19.2871 32.4473C14.4473 30.3418 11.5078 29.002 10.4688 28.4277C8.47266 27.3066 6.81836 26.0898 5.50586 24.7773C4.19336 23.4648 3.22266 22.043 2.59375 20.5117C1.96484 18.9805 1.65039 17.3398 1.65039 15.5898C1.65039 12.8828 2.36133 10.4082 3.7832 8.16602C5.23242 5.92383 7.20117 4.16016 9.68945 2.875C12.2051 1.58984 14.9805 0.947266 18.0156 0.947266C19.9297 0.947266 22.0625 1.26172 24.4141 1.89062L26.875 2.54688C28.707 3.03906 30.6621 3.28516 32.7402 3.28516H33.1504ZM30.0332 54.5547C34.5449 51.3008 36.8008 47.3906 36.8008 42.8242C36.8008 41.0195 36.418 39.2695 35.6523 37.5742C34.9141 35.8516 33.8477 34.3887 32.4531 33.1855C30.4297 31.3535 26.8613 29.3711 21.748 27.2383C17.5098 25.4336 14.748 24.2168 13.4629 23.5879C12.2051 22.959 10.9199 22.1113 9.60742 21.0449C6.87305 18.8574 5.50586 16.0957 5.50586 12.7598C5.50586 11.7754 5.61523 10.8867 5.83398 10.0938C6.05273 9.27344 6.38086 8.49414 6.81836 7.75586C7.25586 6.99023 7.98047 5.97852 8.99219 4.7207C5.08203 7.53711 3.12695 11.0508 3.12695 15.2617C3.12695 19.3086 4.71289 22.5078 7.88477 24.8594C9.55273 26.1172 11.4668 27.2383 13.627 28.2227C13.9004 28.3594 16.0059 29.2891 19.9434 31.0117C24.7012 33.0625 27.9824 34.9219 29.7871 36.5898C32.6582 39.2422 34.0938 42.373 34.0938 45.9824C34.0938 47.7324 33.7656 49.291 33.1094 50.6582C32.4805 51.998 31.4551 53.2969 30.0332 54.5547ZM2.67578 52.9551C4.48047 53.9941 6.77734 54.9922 9.56641 55.9492C7.73438 54.3086 6.33984 52.9551 5.38281 51.8887C4.45312 50.8223 3.38672 49.3184 2.18359 47.377L2.67578 52.9551ZM77.6113 58.8613H76.668L66.6602 36.2207L58.0879 58.8613H57.1035L45.7012 32.7754C44.6074 30.2598 43.623 28.4961 42.748 27.4844C41.873 26.4453 40.7383 25.7891 39.3438 25.5156V24.4082H58.498V25.5156C56.748 25.5977 55.5312 25.8438 54.8477 26.2539C54.1914 26.6641 53.8633 27.3887 53.8633 28.4277C53.8633 29.084 54.041 29.8633 54.3965 30.7656L61.082 47.623L69.8594 23.998H70.5566L80.8926 47.377L87.373 31.4629C88.0293 29.8496 88.3574 28.6738 88.3574 27.9355C88.3574 27.0605 88.0293 26.459 87.373 26.1309C86.7168 25.7754 85.541 25.5703 83.8457 25.5156V24.4082H94.5918V25.5156C93.7168 25.543 92.9512 25.7617 92.2949 26.1719C91.666 26.5547 91.0645 27.2109 90.4902 28.1406C89.9434 29.043 89.3145 30.3691 88.6035 32.1191L77.6113 58.8613ZM77.1602 56.4004L79.1699 51.6426L69.2852 29.2891L67.3574 34.334L77.1602 56.4004ZM57.6367 56.6055L59.4824 51.8066L51.1973 32.4062L50.8691 31.627C50.377 30.4238 50.1309 29.4395 50.1309 28.6738C50.1309 27.3887 50.8281 26.4043 52.2227 25.7207H42.584C43.1855 26.1855 43.7188 26.7051 44.1836 27.2793C44.6758 27.8535 45.0996 28.4688 45.4551 29.125C45.8105 29.7812 46.2891 30.793 46.8906 32.1602L47.3418 33.1855L57.6367 56.6055ZM105.502 38.8867V39.7891C105.502 43.043 105.98 45.9004 106.938 48.3613C107.895 50.7949 109.248 52.6816 110.998 54.0215C112.775 55.3613 114.854 56.0312 117.232 56.0312C118.49 56.0312 119.748 55.8262 121.006 55.416C122.291 54.9785 123.549 54.3633 124.779 53.5703C126.037 52.7773 127.445 51.6562 129.004 50.207L129.824 51.3145C127.008 54.0488 124.328 56.0039 121.785 57.1797C119.27 58.3555 116.453 58.9434 113.336 58.9434C110.082 58.9434 107.156 58.2324 104.559 56.8105C101.988 55.3887 99.9922 53.3789 98.5703 50.7812C97.1484 48.1836 96.4375 45.2578 96.4375 42.0039C96.4375 38.5859 97.2168 35.4551 98.7754 32.6113C100.361 29.7676 102.508 27.5391 105.215 25.9258C107.949 24.3125 110.998 23.5059 114.361 23.5059C117.232 23.5059 119.857 24.0938 122.236 25.2695C124.643 26.4453 126.516 28.0996 127.855 30.2324C129.277 32.4199 130.07 35.3047 130.234 38.8867H105.502ZM105.502 37.4512H121.867C121.84 33.7598 121.471 31.1074 120.76 29.4941C120.131 28.0176 119.229 26.8828 118.053 26.0898C116.877 25.2695 115.564 24.8594 114.115 24.8594C108.865 24.8594 105.994 29.0566 105.502 37.4512ZM115.1 57.7129C113.158 57.4668 111.6 57.0977 110.424 56.6055C109.248 56.1133 108.1 55.3477 106.979 54.3086C105.311 52.7773 104.012 50.7676 103.082 48.2793C102.152 45.7637 101.688 43.0293 101.688 40.0762C101.688 38.0254 101.879 36.1387 102.262 34.416C102.672 32.6934 103.287 31.1484 104.107 29.7812C104.955 28.4141 106.09 27.1152 107.512 25.8848C104.395 27.5801 102.002 29.8223 100.334 32.6113C98.666 35.4004 97.832 38.5176 97.832 41.9629C97.832 44.916 98.502 47.6094 99.8418 50.043C101.182 52.4492 103.041 54.3359 105.42 55.7031C107.826 57.0703 110.479 57.7539 113.377 57.7539C114.033 57.7539 114.607 57.7402 115.1 57.7129ZM126.83 37.4512C126.748 35.4277 126.379 33.5957 125.723 31.9551C125.066 30.3145 124.15 28.9336 122.975 27.8125C121.826 26.6641 120.459 25.8438 118.873 25.3516C120.459 26.6094 121.594 28.0996 122.277 29.8223C122.988 31.5449 123.344 33.7051 123.344 36.3027C123.344 36.7402 123.33 37.123 123.303 37.4512H126.83ZM143.482 38.8867V39.7891C143.482 43.043 143.961 45.9004 144.918 48.3613C145.875 50.7949 147.229 52.6816 148.979 54.0215C150.756 55.3613 152.834 56.0312 155.213 56.0312C156.471 56.0312 157.729 55.8262 158.986 55.416C160.271 54.9785 161.529 54.3633 162.76 53.5703C164.018 52.7773 165.426 51.6562 166.984 50.207L167.805 51.3145C164.988 54.0488 162.309 56.0039 159.766 57.1797C157.25 58.3555 154.434 58.9434 151.316 58.9434C148.062 58.9434 145.137 58.2324 142.539 56.8105C139.969 55.3887 137.973 53.3789 136.551 50.7812C135.129 48.1836 134.418 45.2578 134.418 42.0039C134.418 38.5859 135.197 35.4551 136.756 32.6113C138.342 29.7676 140.488 27.5391 143.195 25.9258C145.93 24.3125 148.979 23.5059 152.342 23.5059C155.213 23.5059 157.838 24.0938 160.217 25.2695C162.623 26.4453 164.496 28.0996 165.836 30.2324C167.258 32.4199 168.051 35.3047 168.215 38.8867H143.482ZM143.482 37.4512H159.848C159.82 33.7598 159.451 31.1074 158.74 29.4941C158.111 28.0176 157.209 26.8828 156.033 26.0898C154.857 25.2695 153.545 24.8594 152.096 24.8594C146.846 24.8594 143.975 29.0566 143.482 37.4512ZM153.08 57.7129C151.139 57.4668 149.58 57.0977 148.404 56.6055C147.229 56.1133 146.08 55.3477 144.959 54.3086C143.291 52.7773 141.992 50.7676 141.062 48.2793C140.133 45.7637 139.668 43.0293 139.668 40.0762C139.668 38.0254 139.859 36.1387 140.242 34.416C140.652 32.6934 141.268 31.1484 142.088 29.7812C142.936 28.4141 144.07 27.1152 145.492 25.8848C142.375 27.5801 139.982 29.8223 138.314 32.6113C136.646 35.4004 135.812 38.5176 135.812 41.9629C135.812 44.916 136.482 47.6094 137.822 50.043C139.162 52.4492 141.021 54.3359 143.4 55.7031C145.807 57.0703 148.459 57.7539 151.357 57.7539C152.014 57.7539 152.588 57.7402 153.08 57.7129ZM164.811 37.4512C164.729 35.4277 164.359 33.5957 163.703 31.9551C163.047 30.3145 162.131 28.9336 160.955 27.8125C159.807 26.6641 158.439 25.8438 156.854 25.3516C158.439 26.6094 159.574 28.0996 160.258 29.8223C160.969 31.5449 161.324 33.7051 161.324 36.3027C161.324 36.7402 161.311 37.123 161.283 37.4512H164.811ZM183.432 25.6387V47.377C183.432 49.5098 183.555 51.2324 183.801 52.5449C184.074 53.8301 184.484 54.7734 185.031 55.375C185.605 55.9766 186.357 56.2773 187.287 56.2773C188.955 56.2773 191.006 55.293 193.439 53.3242L194.055 54.3086C192.223 55.8945 190.555 57.043 189.051 57.7539C187.547 58.4648 186.002 58.8203 184.416 58.8203C181.354 58.8203 179.016 57.8086 177.402 55.7852C175.816 53.7344 175.023 50.7676 175.023 46.8848V25.5156H171.25V24.5312C173.301 24.2578 175.092 23.5195 176.623 22.3164C178.154 21.1133 179.385 19.459 180.314 17.3535C181.271 15.2207 181.955 12.6094 182.365 9.51953H183.391V24.4082H192.373V25.6387H183.432ZM180.191 20.3477C179.234 21.9336 177.977 23.1777 176.418 24.0801V44.998V45.9414C176.418 47.5 176.486 48.8809 176.623 50.084C176.76 51.2598 176.965 52.2031 177.238 52.9141C177.539 53.625 177.977 54.3223 178.551 55.0059C180.082 56.7832 182.064 57.6719 184.498 57.6719C184.936 57.6719 185.318 57.6582 185.646 57.6309C184.443 57.3574 183.5 57.002 182.816 56.5645C182.16 56.127 181.641 55.498 181.258 54.6777C180.875 53.8301 180.602 52.6816 180.438 51.2324C180.273 49.7832 180.191 47.9922 180.191 45.8594V44.7109V20.3477ZM280.229 59.3125H278.998L233.963 11.3652L234.004 38.8867C234.004 41.9492 234.182 44.4102 234.537 46.2695C234.893 48.1289 235.467 49.7285 236.26 51.0684C238.119 54.0762 241.141 55.9629 245.324 56.7285V58H223.873V56.7285C227.564 55.3613 230.025 52.7773 231.256 48.9766C231.693 47.7188 231.994 46.3379 232.158 44.834C232.322 43.3027 232.404 41.375 232.404 39.0508V9.68359C230.271 7.49609 228.631 5.99219 227.482 5.17188C226.334 4.35156 225.021 3.72266 223.545 3.28516V2.01367H239.459C240.115 3.16211 240.826 4.20117 241.592 5.13086C241.756 5.26758 242.043 5.5957 242.453 6.11523C242.891 6.63477 243.178 6.97656 243.314 7.14062C243.779 7.66016 244.012 7.91992 244.012 7.91992L278.67 44.957V16.7383C278.67 13.8672 278.301 11.5156 277.562 9.68359C276.852 7.82422 275.717 6.38867 274.158 5.37695C272.627 4.36523 270.59 3.66797 268.047 3.28516V2.01367H287.611V3.28516C284.686 4.07812 282.717 5.39062 281.705 7.22266C280.721 9.05469 280.229 12.2266 280.229 16.7383V59.3125ZM278.67 56.7285V50.2891L240.197 9.19141C238.447 7.35937 237.039 5.48633 235.973 3.57227H227.605C229.602 4.77539 231.639 6.49805 233.717 8.74023L278.67 56.7285ZM273.666 3.57227C274.979 4.22852 275.977 4.89844 276.66 5.58203C277.344 6.26563 278.014 7.26367 278.67 8.57617C279.162 7.26367 279.572 6.32031 279.9 5.74609C280.229 5.17188 280.775 4.44727 281.541 3.57227H273.666ZM236.711 55.9082C235.617 54.7051 234.783 53.666 234.209 52.791C233.662 51.8887 233.143 50.7812 232.65 49.4688C232.131 50.8633 231.57 52.0254 230.969 52.9551C230.367 53.8574 229.492 54.8418 228.344 55.9082H236.711ZM291.836 58V56.8926C293.695 56.5645 294.967 55.9355 295.65 55.0059C296.334 54.0488 296.676 52.4219 296.676 50.125V32.8984C296.676 30.6016 296.32 28.9746 295.609 28.0176C294.926 27.0332 293.668 26.4043 291.836 26.1309V25.2285L305.043 23.7109V50.125C305.043 52.3945 305.371 54.0078 306.027 54.9648C306.711 55.9219 307.982 56.5645 309.842 56.8926V58H291.836ZM295.568 12.5137C295.568 11.1465 296.033 9.98437 296.963 9.02734C297.893 8.07031 299.055 7.5918 300.449 7.5918C301.844 7.5918 303.006 8.07031 303.936 9.02734C304.865 9.98437 305.33 11.1465 305.33 12.5137C305.33 13.9082 304.865 15.0703 303.936 16C303.006 16.9297 301.844 17.3945 300.449 17.3945C299.055 17.3945 297.893 16.9297 296.963 16C296.033 15.0703 295.568 13.9082 295.568 12.5137ZM295.938 56.1953H304.141L303.156 55.457C303.102 55.4023 303.047 55.3613 302.992 55.334L302.459 54.9238C302.076 54.541 301.871 54.0215 301.844 53.3652V52.5449V52.1348V25.4336L295.117 26.1719L296.717 27.3203C296.744 27.3203 296.799 27.3613 296.881 27.4434L297.414 27.8535C297.688 28.0449 297.865 28.332 297.947 28.7148C298.029 29.0703 298.07 29.7129 298.07 30.6426V52.1348C298.07 53.2559 298.016 53.9531 297.906 54.2266C297.797 54.5 297.469 54.8691 296.922 55.334C296.922 55.334 296.895 55.3477 296.84 55.375C296.812 55.4023 296.799 55.4297 296.799 55.457L295.938 56.1953ZM300.244 8.69922C299.287 8.75391 298.453 9.16406 297.742 9.92969C297.059 10.668 296.717 11.5293 296.717 12.5137C296.717 13.498 297.072 14.373 297.783 15.1387C298.494 15.9043 299.314 16.2871 300.244 16.2871C300.846 16.2871 301.146 15.9727 301.146 15.3438C301.174 14.8516 301.188 13.8535 301.188 12.3496C301.188 10.9004 301.174 9.9707 301.146 9.56055C301.119 9.01367 300.818 8.72656 300.244 8.69922ZM322.885 47.541C321.846 48.5801 321.148 49.373 320.793 49.9199C320.465 50.4395 320.301 51.041 320.301 51.7246C320.301 52.9824 321.176 53.7344 322.926 53.9805C323.801 54.0898 325.086 54.1445 326.781 54.1445H334.574C338.758 54.1445 341.738 54.5684 343.516 55.416C344.746 56.0176 345.812 56.8242 346.715 57.8359C347.617 58.8203 348.301 59.9551 348.766 61.2402C349.258 62.5254 349.504 63.9062 349.504 65.3828C349.504 68.3633 348.67 71.0156 347.002 73.3398C345.334 75.6914 342.969 77.5098 339.906 78.7949C336.871 80.0801 333.439 80.7227 329.611 80.7227C324.443 80.7227 320.273 79.7109 317.102 77.6875C313.93 75.6641 312.344 73.0117 312.344 69.7305C312.344 68.0078 312.781 66.4492 313.656 65.0547C314.531 63.6875 315.994 62.2383 318.045 60.707C317.088 59.8047 316.418 58.9844 316.035 58.2461C315.68 57.5352 315.502 56.7148 315.502 55.7852C315.502 54.8828 315.639 54.0625 315.912 53.3242C316.213 52.5859 316.76 51.7656 317.553 50.8633C318.373 49.9609 319.549 48.8262 321.08 47.459L321.736 46.8848C319.412 45.5449 317.703 44.0273 316.609 42.332C315.543 40.6367 315.01 38.668 315.01 36.4258C315.01 34.0469 315.625 31.9004 316.855 29.9863C318.086 28.0723 319.809 26.5547 322.023 25.4336C324.266 24.3125 326.891 23.6699 329.898 23.5059C330.527 20.7441 331.43 18.7617 332.605 17.5586C333.809 16.3555 335.422 15.7539 337.445 15.7539C338.648 15.7539 339.797 16 340.891 16.4922C342.012 16.957 342.9 17.5859 343.557 18.3789C344.213 19.1719 344.541 20.0195 344.541 20.9219C344.541 21.7969 344.254 22.5352 343.68 23.1367C343.133 23.7109 342.449 23.998 341.629 23.998C341 23.998 340.385 23.8066 339.783 23.4238C339.182 23.041 338.717 22.5625 338.389 21.9883L337.773 20.7988C337.09 19.4863 336.174 18.8301 335.025 18.8301C333.111 18.8301 331.867 20.3887 331.293 23.5059C333.453 23.5879 335.422 23.9707 337.199 24.6543C339.004 25.3379 340.562 26.2402 341.875 27.3613C343.215 28.4551 344.24 29.7676 344.951 31.2988C345.662 32.8027 346.018 34.4297 346.018 36.1797C346.018 38.5039 345.32 40.7051 343.926 42.7832C342.559 44.8613 340.727 46.502 338.43 47.7051C336.133 48.9082 333.631 49.5098 330.924 49.5098C328.463 49.5098 325.783 48.8535 322.885 47.541ZM337.773 36.0156C337.773 32.4883 337.145 29.7266 335.887 27.7305C334.629 25.7344 332.92 24.7363 330.76 24.7363C328.49 24.7363 326.672 25.8027 325.305 27.9355C323.965 30.0684 323.295 32.9121 323.295 36.4668C323.295 39.9121 323.951 42.6738 325.264 44.752C326.604 46.8301 328.367 47.8691 330.555 47.8691C332.797 47.8691 334.561 46.8027 335.846 44.6699C337.131 42.5371 337.773 39.6523 337.773 36.0156ZM319.727 61.8145C317.32 63.9199 316.117 66.2715 316.117 68.8691C316.117 70.7832 316.705 72.5059 317.881 74.0371C319.084 75.5957 320.752 76.7988 322.885 77.6465C325.045 78.5215 327.479 78.959 330.186 78.959C332.291 78.959 334.273 78.6719 336.133 78.0977C338.02 77.5234 339.646 76.7305 341.014 75.7188C342.408 74.7344 343.475 73.5859 344.213 72.2734C344.979 70.9883 345.361 69.5938 345.361 68.0898C345.361 66.3672 344.801 65 343.68 63.9883C342.586 63.0039 341.082 62.498 339.168 62.4707L336.01 62.3477H334.984H326.986C325.646 62.3477 324.402 62.3066 323.254 62.2246C321.996 62.1973 320.82 62.0605 319.727 61.8145ZM345.607 71.8223C346.893 69.9902 347.535 68.1719 347.535 66.3672C347.535 64.0156 346.865 62.0469 345.525 60.4609C344.514 59.2578 343.324 58.4238 341.957 57.959C340.617 57.4668 338.771 57.2207 336.42 57.2207L330.76 57.1797L326.084 57.1387C324.061 57.1387 322.475 57.0293 321.326 56.8105C320.178 56.5645 319.385 56.168 318.947 55.6211C318.51 55.0742 318.291 54.2812 318.291 53.2422C318.291 52.7773 318.455 52.1211 318.783 51.2734C317.963 52.1758 317.416 52.9141 317.143 53.4883C316.896 54.0625 316.773 54.7598 316.773 55.5801C316.773 56.6465 317.02 57.5762 317.512 58.3691C318.031 59.1621 318.783 59.7773 319.768 60.2148C320.369 60.4609 321.203 60.625 322.27 60.707C323.336 60.7891 325.086 60.8301 327.52 60.8301L332.975 60.8711C336.475 60.8711 338.908 60.9531 340.275 61.1172C341.67 61.2812 342.764 61.6367 343.557 62.1836C345.553 63.4688 346.551 65.3145 346.551 67.7207C346.551 68.8145 346.236 70.1816 345.607 71.8223ZM335.23 47.1719C337.637 46.0781 339.455 44.6426 340.686 42.8652C341.916 41.0605 342.531 38.9551 342.531 36.5488C342.531 33.9785 341.861 31.709 340.521 29.7402C339.209 27.7441 337.459 26.3223 335.271 25.4746C336.639 26.7051 337.609 28.1406 338.184 29.7812C338.758 31.4219 339.045 33.459 339.045 35.8926C339.045 38.5176 338.744 40.6914 338.143 42.4141C337.568 44.1367 336.598 45.7227 335.23 47.1719ZM324.156 46.9258C321.23 44.3008 319.768 40.8281 319.768 36.5078C319.768 31.8594 321.682 28.0996 325.51 25.2285C322.693 26.0488 320.465 27.4707 318.824 29.4941C317.184 31.5176 316.363 33.8418 316.363 36.4668C316.363 38.6816 317.033 40.6914 318.373 42.4961C319.713 44.2734 321.641 45.75 324.156 46.9258ZM335.477 17.5996C336.406 17.9277 337.117 18.3105 337.609 18.748C338.102 19.1855 338.566 19.8281 339.004 20.6758C339.469 21.4141 339.824 21.9199 340.07 22.1934C340.344 22.4395 340.672 22.5625 341.055 22.5625C341.82 22.5625 342.203 22.166 342.203 21.373C342.203 20.7441 341.93 20.1289 341.383 19.5273C340.863 18.9258 340.18 18.4336 339.332 18.0508C338.484 17.668 337.609 17.4766 336.707 17.4766C336.434 17.4766 336.023 17.5176 335.477 17.5996ZM365.172 32.0371C366.867 30.041 368.494 28.4004 370.053 27.1152C371.611 25.8027 373.115 24.873 374.564 24.3262C376.014 23.7793 377.586 23.5059 379.281 23.5059C381.359 23.5059 383.287 23.998 385.064 24.9824C386.869 25.9668 388.25 27.293 389.207 28.9609C390.301 30.8203 390.848 33.3359 390.848 36.5078V50.125C390.848 52.3945 391.176 54.0078 391.832 54.9648C392.516 55.9219 393.787 56.5645 395.646 56.8926V58H377.641V56.8926C379.5 56.5645 380.758 55.9219 381.414 54.9648C382.098 54.0078 382.439 52.3945 382.439 50.125V36.2617C382.439 33.2812 382.248 31.2168 381.865 30.0684C381.455 28.8105 380.799 27.8398 379.896 27.1562C378.994 26.4453 377.914 26.0898 376.656 26.0898C374.906 26.0898 373.197 26.6777 371.529 27.8535C369.889 29.0293 367.77 31.1484 365.172 34.2109V50.125C365.172 52.3945 365.5 54.0078 366.156 54.9648C366.84 55.9219 368.111 56.5645 369.971 56.8926V58H351.965V56.8926C353.824 56.5645 355.096 55.9355 355.779 55.0059C356.463 54.0488 356.805 52.4219 356.805 50.125V10.5039C356.805 8.20703 356.449 6.58008 355.738 5.62305C355.055 4.63867 353.797 4.00977 351.965 3.73633V2.83398L365.172 1.31641V32.0371ZM381.742 56.1953H389.904L388.961 55.457C388.961 55.457 388.934 55.4434 388.879 55.416C388.852 55.3613 388.824 55.334 388.797 55.334L388.264 54.9238C387.854 54.5137 387.648 53.9941 387.648 53.3652V52.5449L387.607 52.1348V36.4668C387.607 34.3887 387.471 32.748 387.197 31.5449C386.924 30.3418 386.459 29.2891 385.803 28.3867C384.107 26.0898 381.906 24.9414 379.199 24.9414C378.926 24.9414 378.297 24.9961 377.312 25.1055C379.008 25.3516 380.32 25.8574 381.25 26.623C382.18 27.3613 382.836 28.4824 383.219 29.9863C383.629 31.4902 383.834 33.5684 383.834 36.2207V52.1348C383.834 53.2559 383.779 53.9531 383.67 54.2266C383.588 54.5 383.273 54.8691 382.727 55.334C382.672 55.3887 382.631 55.416 382.604 55.416C382.604 55.416 382.59 55.4297 382.562 55.457L381.742 56.1953ZM356.066 56.1953H364.27L363.285 55.457C363.23 55.4023 363.176 55.3613 363.121 55.334L362.588 54.9238C362.205 54.541 362 54.0215 361.973 53.3652V52.5449V3.03906L355.246 3.77734L356.846 4.92578C356.873 4.92578 356.928 4.9668 357.01 5.04883L357.543 5.45898C357.816 5.65039 357.994 5.9375 358.076 6.32031C358.158 6.67578 358.199 7.31836 358.199 8.24805V52.1348C358.199 53.2559 358.145 53.9531 358.035 54.2266C357.926 54.5 357.598 54.8691 357.051 55.334C357.051 55.334 357.023 55.3477 356.969 55.375C356.941 55.4023 356.928 55.4297 356.928 55.457L356.066 56.1953ZM410.412 25.6387V47.377C410.412 49.5098 410.535 51.2324 410.781 52.5449C411.055 53.8301 411.465 54.7734 412.012 55.375C412.586 55.9766 413.338 56.2773 414.268 56.2773C415.936 56.2773 417.986 55.293 420.42 53.3242L421.035 54.3086C419.203 55.8945 417.535 57.043 416.031 57.7539C414.527 58.4648 412.982 58.8203 411.396 58.8203C408.334 58.8203 405.996 57.8086 404.383 55.7852C402.797 53.7344 402.004 50.7676 402.004 46.8848V25.5156H398.23V24.5312C400.281 24.2578 402.072 23.5195 403.604 22.3164C405.135 21.1133 406.365 19.459 407.295 17.3535C408.252 15.2207 408.936 12.6094 409.346 9.51953H410.371V24.4082H419.354V25.6387H410.412ZM407.172 20.3477C406.215 21.9336 404.957 23.1777 403.398 24.0801V44.998V45.9414C403.398 47.5 403.467 48.8809 403.604 50.084C403.74 51.2598 403.945 52.2031 404.219 52.9141C404.52 53.625 404.957 54.3223 405.531 55.0059C407.062 56.7832 409.045 57.6719 411.479 57.6719C411.916 57.6719 412.299 57.6582 412.627 57.6309C411.424 57.3574 410.48 57.002 409.797 56.5645C409.141 56.127 408.621 55.498 408.238 54.6777C407.855 53.8301 407.582 52.6816 407.418 51.2324C407.254 49.7832 407.172 47.9922 407.172 45.8594V44.7109V20.3477Z" fill="black"/>
</svg>
