<svg fill="none" height="81" viewBox="0 0 422 81" width="422" xmlns="http://www.w3.org/2000/svg"><path d="m33.1504 3.28516 2.3789 13.65824h-1.3945c-.7383-2.461-1.4629-4.4024-2.1739-5.8243-.7109-1.42183-1.5039-2.61129-2.3789-3.56832-1.3945-1.55859-3.0761-2.77539-5.0449-3.65039-1.9414-.875-3.9785-1.3125-6.1113-1.3125-3.0078 0-5.4688.82031-7.3828 2.46094-1.91409 1.61328-2.87112 3.70508-2.87112 6.27537 0 2.8164 1.24414 5.1543 3.73242 7.0137 1.2852.9297 2.6523 1.7637 4.1016 2.5019 1.4765.711 3.7734 1.7227 6.8906 3.0352 2.1328.8477 3.9375 1.6133 5.414 2.2969 1.4766.6836 2.6661 1.2988 3.5684 1.8457s1.8047 1.1758 2.707 1.8867c3.8008 3.0625 5.7012 7.0684 5.7012 12.0176 0 3.2539-.8887 6.1933-2.666 8.8183s-4.2383 4.6895-7.3828 6.1934c-3.1445 1.4766-6.6309 2.2148-10.459 2.2148-2.6523 0-5.7148-.3964-9.1875-1.1894-2.05078-.4922-4.74414-1.3672-8.08008-2.625l-1.14844-.4102-1.230468-15.5449h1.230468c1.20313 4.1836 3.14453 7.916 5.82422 11.1973 3.5273 4.2929 7.7246 6.4394 12.5918 6.4394 2.4883 0 4.6895-.4648 6.6035-1.3945 1.9414-.957 3.459-2.2559 4.5527-3.8965 1.0938-1.668 1.6407-3.5684 1.6407-5.7012 0-1.8867-.4239-3.582-1.2715-5.0859-.8477-1.5313-2.2285-2.9668-4.1426-4.3066-1.9141-1.3672-4.5391-2.7618-7.875-4.1836-4.8398-2.1055-7.7793-3.4453-8.8183-4.0196-1.99614-1.1211-3.65044-2.3379-4.96294-3.6504s-2.2832-2.7343-2.91211-4.2656c-.62891-1.5312-.94336-3.1719-.94336-4.9219 0-2.707.71094-5.1816 2.13281-7.42378 1.44922-2.24219 3.41797-4.00586 5.90625-5.29102 2.51565-1.28516 5.29105-1.927734 8.32615-1.927734 1.9141 0 4.0469.314454 6.3985.943354l2.4609.65626c1.832.49218 3.7871.73828 5.8652.73828zm-3.1172 51.26954c4.5117-3.2539 6.7676-7.1641 6.7676-11.7305 0-1.8047-.3828-3.5547-1.1485-5.25-.7382-1.7226-1.8046-3.1855-3.1992-4.3887-2.0234-1.832-5.5918-3.8144-10.7051-5.9472-4.2382-1.8047-7-3.0215-8.2851-3.6504-1.2578-.6289-2.543-1.4766-3.85548-2.543-2.73437-2.1875-4.10156-4.9492-4.10156-8.2851 0-.9844.10937-1.8731.32812-2.666.21875-.82036.54688-1.59966.98438-2.33794.4375-.76563 1.16211-1.77734 2.17383-3.03516-3.91016 2.81641-5.86524 6.3301-5.86524 10.541 0 4.0469 1.58594 7.2461 4.75782 9.5977 1.66796 1.2578 3.58203 2.3789 5.74223 3.3633.2734.1367 2.3789 1.0664 6.3164 2.789 4.7578 2.0508 8.039 3.9102 9.8437 5.5781 2.8711 2.6524 4.3067 5.7832 4.3067 9.3926 0 1.75-.3282 3.3086-.9844 4.6758-.6289 1.3398-1.6543 2.6387-3.0762 3.8965zm-27.35742-1.5996c1.80469 1.039 4.10156 2.0371 6.89063 2.9941-1.83203-1.6406-3.22657-2.9941-4.1836-4.0605-.92969-1.0664-1.99609-2.5703-3.19922-4.5117zm74.93552 5.9062h-.9433l-10.0078-22.6406-8.5723 22.6406h-.9844l-11.4023-26.0859c-1.0938-2.5156-2.0782-4.2793-2.9532-5.291-.875-1.0391-2.0097-1.6953-3.4042-1.9688v-1.1074h19.1542v1.1074c-1.75.0821-2.9668.3282-3.6503.7383-.6563.4102-.9844 1.1348-.9844 2.1738 0 .6563.1777 1.4356.5332 2.3379l6.6855 16.8574 8.7774-23.625h.6972l10.336 23.379 6.4804-15.9141c.6563-1.6133.9844-2.7891.9844-3.5274 0-.875-.3281-1.4765-.9844-1.8046-.6562-.3555-1.832-.5606-3.5273-.6153v-1.1074h10.7461v1.1074c-.875.0274-1.6406.2461-2.2969.6563-.6289.3828-1.2304 1.039-1.8047 1.9687-.5468.9024-1.1757 2.2285-1.8867 3.9785zm-.4511-2.4609 2.0097-4.7578-9.8847-22.3535-1.9278 5.0449zm-19.5235.2051 1.8457-4.7989-8.2851-19.4004-.3282-.7792c-.4921-1.2032-.7382-2.1875-.7382-2.9532 0-1.2851.6972-2.2695 2.0918-2.9531h-9.6387c.6015.4648 1.1348.9844 1.5996 1.5586.4922.5742.916 1.1895 1.2715 1.8457.3554.6562.834 1.668 1.4355 3.0352l.4512 1.0253zm47.8653-17.7188v.9024c0 3.2539.478 6.1113 1.436 8.5722.957 2.4336 2.31 4.3203 4.06 5.6602 1.777 1.3398 3.856 2.0097 6.234 2.0097 1.258 0 2.516-.205 3.774-.6152 1.285-.4375 2.543-1.0527 3.773-1.8457 1.258-.793 2.666-1.9141 4.225-3.3633l.82 1.1075c-2.816 2.7343-5.496 4.6894-8.039 5.8652-2.515 1.1758-5.332 1.7637-8.449 1.7637-3.254 0-6.18-.711-8.777-2.1329-2.571-1.4218-4.5668-3.4316-5.9887-6.0293-1.4219-2.5976-2.1328-5.5234-2.1328-8.7773 0-3.418.7793-6.5488 2.3379-9.3926 1.5856-2.8437 3.7326-5.0722 6.4396-6.6855 2.734-1.6133 5.783-2.4199 9.146-2.4199 2.871 0 5.496.5879 7.875 1.7636 2.407 1.1758 4.28 2.8301 5.619 4.9629 1.422 2.1875 2.215 5.0723 2.379 8.6543zm0-1.4355h16.365c-.027-3.6914-.396-6.3438-1.107-7.9571-.629-1.4765-1.531-2.6113-2.707-3.4043-1.176-.8203-2.489-1.2304-3.938-1.2304-5.25 0-8.121 4.1972-8.613 12.5918zm9.598 20.2617c-1.942-.2461-3.5-.6152-4.676-1.1074s-2.324-1.2578-3.445-2.2969c-1.668-1.5313-2.967-3.541-3.897-6.0293-.93-2.5156-1.394-5.25-1.394-8.2031 0-2.0508.191-3.9375.574-5.6602.41-1.7226 1.025-3.2676 1.845-4.6348.848-1.3671 1.983-2.666 3.405-3.8964-3.117 1.6953-5.51 3.9375-7.178 6.7265-1.668 2.7891-2.502 5.9063-2.502 9.3516 0 2.9531.67 5.6465 2.0098 8.0801 1.3402 2.4062 3.1992 4.2929 5.5782 5.6601 2.406 1.3672 5.059 2.0508 7.957 2.0508.656 0 1.23-.0137 1.723-.041zm11.73-20.2617c-.082-2.0235-.451-3.8555-1.107-5.4961-.657-1.6406-1.573-3.0215-2.748-4.1426-1.149-1.1484-2.516-1.9687-4.102-2.4609 1.586 1.2578 2.721 2.748 3.404 4.4707.711 1.7226 1.067 3.8828 1.067 6.4804 0 .4375-.014.8203-.041 1.1485zm16.652 1.4355v.9024c0 3.2539.479 6.1113 1.436 8.5722.957 2.4336 2.311 4.3203 4.061 5.6602 1.777 1.3398 3.855 2.0097 6.234 2.0097 1.258 0 2.516-.205 3.773-.6152 1.285-.4375 2.543-1.0527 3.774-1.8457 1.258-.793 2.666-1.9141 4.224-3.3633l.821 1.1075c-2.817 2.7343-5.496 4.6894-8.039 5.8652-2.516 1.1758-5.332 1.7637-8.45 1.7637-3.254 0-6.179-.711-8.777-2.1329-2.57-1.4218-4.566-3.4316-5.988-6.0293-1.422-2.5976-2.133-5.5234-2.133-8.7773 0-3.418.779-6.5488 2.338-9.3926 1.586-2.8437 3.732-5.0722 6.439-6.6855 2.735-1.6133 5.784-2.4199 9.147-2.4199 2.871 0 5.496.5879 7.875 1.7636 2.406 1.1758 4.279 2.8301 5.619 4.9629 1.422 2.1875 2.215 5.0723 2.379 8.6543zm0-1.4355h16.366c-.028-3.6914-.397-6.3438-1.108-7.9571-.629-1.4765-1.531-2.6113-2.707-3.4043-1.176-.8203-2.488-1.2304-3.937-1.2304-5.25 0-8.121 4.1972-8.614 12.5918zm9.598 20.2617c-1.941-.2461-3.5-.6152-4.676-1.1074-1.175-.4922-2.324-1.2578-3.445-2.2969-1.668-1.5313-2.967-3.541-3.897-6.0293-.929-2.5156-1.394-5.25-1.394-8.2031 0-2.0508.191-3.9375.574-5.6602.41-1.7226 1.026-3.2676 1.846-4.6348.848-1.3671 1.982-2.666 3.404-3.8964-3.117 1.6953-5.51 3.9375-7.178 6.7265-1.668 2.7891-2.502 5.9063-2.502 9.3516 0 2.9531.67 5.6465 2.01 8.0801 1.34 2.4062 3.199 4.2929 5.578 5.6601 2.407 1.3672 5.059 2.0508 7.957 2.0508.657 0 1.231-.0137 1.723-.041zm11.731-20.2617c-.082-2.0235-.452-3.8555-1.108-5.4961s-1.572-3.0215-2.748-4.1426c-1.148-1.1484-2.516-1.9687-4.101-2.4609 1.585 1.2578 2.72 2.748 3.404 4.4707.711 1.7226 1.066 3.8828 1.066 6.4804 0 .4375-.013.8203-.041 1.1485zm18.621-11.8125v21.7383c0 2.1328.123 3.8554.369 5.1679.273 1.2852.683 2.2285 1.23 2.8301.574.6016 1.326.9023 2.256.9023 1.668 0 3.719-.9843 6.152-2.9531l.616.9844c-1.832 1.5859-3.5 2.7344-5.004 3.4453s-3.049 1.0664-4.635 1.0664c-3.062 0-5.4-1.0117-7.014-3.0351-1.586-2.0508-2.379-5.0176-2.379-8.9004v-21.3692h-3.773v-.9844c2.051-.2734 3.842-1.0117 5.373-2.2148s2.762-2.8574 3.691-4.9629c.957-2.1328 1.641-4.7441 2.051-7.83397h1.026v14.88867h8.982v1.2305zm-3.241-5.291c-.957 1.5859-2.214 2.83-3.773 3.7324v20.9179.9434c0 1.5586.068 2.9395.205 4.1426.137 1.1758.342 2.1191.615 2.8301.301.7109.739 1.4082 1.313 2.0918 1.531 1.7773 3.513 2.666 5.947 2.666.438 0 .82-.0137 1.148-.041-1.203-.2735-2.146-.6289-2.83-1.0664-.656-.4375-1.175-1.0665-1.558-1.8868-.383-.8476-.656-1.9961-.82-3.4453-.165-1.4492-.247-3.2402-.247-5.373v-1.1485zm100.038 38.9648h-1.231l-45.035-47.9473.041 27.5215c0 3.0625.178 5.5235.533 7.3828.356 1.8594.93 3.459 1.723 4.7989 1.859 3.0078 4.881 4.8945 9.064 5.6601v1.2715h-21.451v-1.2715c3.691-1.3672 6.152-3.9512 7.383-7.7519.437-1.2578.738-2.6387.902-4.1426.164-1.5313.246-3.459.246-5.7832v-29.36721c-2.133-2.1875-3.773-3.6914-4.922-4.51171-1.148-.82032-2.461-1.44922-3.937-1.88672v-1.27149h15.914c.656 1.14844 1.367 2.1875 2.133 3.11719.164.13672.451.46484.861.98437.438.51954.725.86133.861 1.02539.465.51954.698.7793.698.7793l34.658 37.03708v-28.2187c0-2.8711-.369-5.2227-1.108-7.05471-.71-1.85937-1.845-3.29492-3.404-4.30664-1.531-1.01172-3.568-1.70898-6.111-2.09179v-1.27149h19.564v1.27149c-2.925.79296-4.894 2.10546-5.906 3.9375-.984 1.83203-1.476 5.00394-1.476 9.51564zm-1.559-2.584v-6.4394l-38.473-41.09769c-1.75-1.83204-3.158-3.70508-4.224-5.61914h-8.368c1.997 1.20312 4.034 2.92578 6.112 5.16796zm-5.004-53.15623c1.313.65625 2.311 1.32617 2.994 2.00976.684.6836 1.354 1.68164 2.01 2.99414.492-1.3125.902-2.25586 1.23-2.83008.329-.57421.875-1.29882 1.641-2.17382zm-36.955 52.33593c-1.094-1.2031-1.928-2.2422-2.502-3.1172-.547-.9023-1.066-2.0098-1.559-3.3222-.519 1.3945-1.08 2.5566-1.681 3.4863-.602.9023-1.477 1.8867-2.625 2.9531zm55.125 2.0918v-1.1074c1.859-.3281 3.131-.9571 3.814-1.8867.684-.9571 1.026-2.584 1.026-4.8809v-17.2266c0-2.2968-.356-3.9238-1.067-4.8808-.683-.9844-1.941-1.6133-3.773-1.8867v-.9024l13.207-1.5176v26.4141c0 2.2695.328 3.8828.984 4.8398.684.9571 1.955 1.5997 3.815 1.9278v1.1074zm3.732-45.4863c0-1.3672.465-2.52933 1.395-3.48636s2.092-1.43554 3.486-1.43554c1.395 0 2.557.47851 3.487 1.43554.929.95703 1.394 2.11916 1.394 3.48636 0 1.3945-.465 2.5566-1.394 3.4863-.93.9297-2.092 1.3945-3.487 1.3945-1.394 0-2.556-.4648-3.486-1.3945s-1.395-2.0918-1.395-3.4863zm.37 43.6816h8.203l-.985-.7383c-.054-.0547-.109-.0957-.164-.123l-.533-.4102c-.383-.3828-.588-.9023-.615-1.5586v-.8203-.4101-26.7012l-6.727.7383 1.6 1.1484c.027 0 .082.041.164.1231l.533.4101c.274.1914.451.4785.533.8613.082.3555.123.9981.123 1.9278v21.4922c0 1.1211-.054 1.8183-.164 2.0918-.109.2734-.437.6425-.984 1.1074 0 0-.027.0137-.082.041-.028.0273-.041.0547-.041.082zm4.306-47.49608c-.957.05469-1.791.46484-2.502 1.23047-.683.73831-1.025 1.59961-1.025 2.58401 0 .9843.355 1.8593 1.066 2.625.711.7656 1.531 1.1484 2.461 1.1484.602 0 .902-.3144.902-.9433.028-.4922.042-1.4903.042-2.9942 0-1.4492-.014-2.3789-.042-2.78905-.027-.54688-.328-.83399-.902-.86133zm22.641 38.84178c-1.039 1.0391-1.737 1.832-2.092 2.3789-.328.5196-.492 1.1211-.492 1.8047 0 1.2578.875 2.0098 2.625 2.2559.875.1093 2.16.164 3.855.164h7.793c4.184 0 7.164.4239 8.942 1.2715 1.23.6016 2.296 1.4082 3.199 2.4199.902.9844 1.586 2.1192 2.051 3.4043.492 1.2852.738 2.666.738 4.1426 0 2.9805-.834 5.6328-2.502 7.957-1.668 2.3516-4.033 4.17-7.096 5.4551-3.035 1.2852-6.467 1.9278-10.295 1.9278-5.168 0-9.338-1.0118-12.509-3.0352-3.172-2.0234-4.758-4.6758-4.758-7.957 0-1.7227.437-3.2813 1.312-4.6758.875-1.3672 2.338-2.8164 4.389-4.3477-.957-.9023-1.627-1.7226-2.01-2.4609-.355-.7109-.533-1.5313-.533-2.4609 0-.9024.137-1.7227.41-2.461.301-.7383.848-1.5586 1.641-2.4609.82-.9024 1.996-2.0371 3.527-3.4043l.656-.5742c-2.324-1.3399-4.033-2.8575-5.127-4.5528-1.066-1.6953-1.599-3.664-1.599-5.9062 0-2.3789.615-4.5254 1.845-6.4395 1.231-1.914 2.954-3.4316 5.168-4.5527 2.243-1.1211 4.868-1.7637 7.875-1.9277.629-2.7618 1.532-4.7442 2.707-5.9473 1.204-1.2031 2.817-1.8047 4.84-1.8047 1.203 0 2.352.2461 3.446.7383 1.121.4648 2.009 1.0937 2.666 1.8867.656.793.984 1.6406.984 2.543 0 .875-.287 1.6133-.861 2.2148-.547.5742-1.231.8613-2.051.8613-.629 0-1.244-.1914-1.846-.5742-.601-.3828-1.066-.8613-1.394-1.4355l-.616-1.1895c-.683-1.3125-1.599-1.9687-2.748-1.9687-1.914 0-3.158 1.5586-3.732 4.6758 2.16.082 4.129.4648 5.906 1.1484 1.805.6836 3.363 1.5859 4.676 2.707 1.34 1.0938 2.365 2.4063 3.076 3.9375.711 1.5039 1.067 3.1309 1.067 4.8809 0 2.3242-.698 4.5254-2.092 6.6035-1.367 2.0781-3.199 3.7188-5.496 4.9219s-4.799 1.8047-7.506 1.8047c-2.461 0-5.141-.6563-8.039-1.9688zm14.888-11.5254c0-3.5273-.628-6.289-1.886-8.2851s-2.967-2.9942-5.127-2.9942c-2.27 0-4.088 1.0664-5.455 3.1992-1.34 2.1329-2.01 4.9766-2.01 8.5313 0 3.4453.656 6.207 1.969 8.2852 1.34 2.0781 3.103 3.1171 5.291 3.1171 2.242 0 4.006-1.0664 5.291-3.1992s1.927-5.0176 1.927-8.6543zm-18.046 25.7989c-2.407 2.1054-3.61 4.457-3.61 7.0546 0 1.9141.588 3.6368 1.764 5.168 1.203 1.5586 2.871 2.7617 5.004 3.6094 2.16.875 4.594 1.3125 7.301 1.3125 2.105 0 4.087-.2871 5.947-.8613 1.887-.5743 3.513-1.3672 4.881-2.3789 1.394-.9844 2.461-2.1329 3.199-3.4454.766-1.2851 1.148-2.6796 1.148-4.1836 0-1.7226-.56-3.0898-1.681-4.1015-1.094-.9844-2.598-1.4903-4.512-1.5176l-3.158-.123h-1.026-7.998c-1.34 0-2.584-.0411-3.732-.1231-1.258-.0273-2.434-.1641-3.527-.4101zm25.88 10.0078c1.286-1.8321 1.928-3.6504 1.928-5.4551 0-2.3516-.67-4.3203-2.01-5.9063-1.011-1.2031-2.201-2.0371-3.568-2.5019-1.34-.4922-3.186-.7383-5.537-.7383l-5.66-.041-4.676-.041c-2.023 0-3.609-.1094-4.758-.3282-1.148-.246-1.941-.6425-2.379-1.1894-.437-.5469-.656-1.3399-.656-2.3789 0-.4649.164-1.1211.492-1.9688-.82.9024-1.367 1.6407-1.64 2.2149-.247.5742-.37 1.2715-.37 2.0918 0 1.0664.247 1.9961.739 2.789.519.793 1.271 1.4082 2.256 1.8457.601.2461 1.435.4102 2.502.4922 1.066.0821 2.816.1231 5.25.1231l5.455.041c3.5 0 5.933.082 7.3.2461 1.395.164 2.489.5195 3.282 1.0664 1.996 1.2852 2.994 3.1309 2.994 5.5371 0 1.0938-.315 2.4609-.944 4.1016zm-10.377-24.6504c2.407-1.0938 4.225-2.5293 5.456-4.3067 1.23-1.8047 1.845-3.9101 1.845-6.3164 0-2.5703-.67-4.8398-2.01-6.8086-1.312-1.9961-3.062-3.4179-5.25-4.2656 1.368 1.2305 2.338 2.666 2.913 4.3066.574 1.6407.861 3.6778.861 6.1114 0 2.625-.301 4.7988-.902 6.5215-.575 1.7226-1.545 3.3086-2.913 4.7578zm-11.074-.2461c-2.926-2.625-4.388-6.0977-4.388-10.418 0-4.6484 1.914-8.4082 5.742-11.2793-2.817.8203-5.045 2.2422-6.686 4.2656-1.64 2.0235-2.461 4.3477-2.461 6.9727 0 2.2148.67 4.2246 2.01 6.0293 1.34 1.7773 3.268 3.2539 5.783 4.4297zm11.321-29.3262c.929.3281 1.64.7109 2.132 1.1484.493.4375.957 1.0801 1.395 1.9278.465.7383.82 1.2441 1.066 1.5176.274.2461.602.3691.985.3691.765 0 1.148-.3965 1.148-1.1895 0-.6289-.273-1.2441-.82-1.8457-.52-.6015-1.203-1.0937-2.051-1.4765s-1.723-.5742-2.625-.5742c-.273 0-.684.041-1.23.123zm29.695 14.4375c1.695-1.9961 3.322-3.6367 4.881-4.9219 1.558-1.3125 3.062-2.2422 4.511-2.789 1.45-.5469 3.022-.8203 4.717-.8203 2.078 0 4.006.4921 5.783 1.4765 1.805.9844 3.186 2.3106 4.143 3.9785 1.094 1.8594 1.641 4.375 1.641 7.5469v13.6172c0 2.2695.328 3.8828.984 4.8398.684.9571 1.955 1.5997 3.814 1.9278v1.1074h-18.005v-1.1074c1.859-.3281 3.117-.9707 3.773-1.9278.684-.957 1.025-2.5703 1.025-4.8398v-13.8633c0-2.9805-.191-5.0449-.574-6.1933-.41-1.2579-1.066-2.2286-1.969-2.9122-.902-.7109-1.982-1.0664-3.24-1.0664-1.75 0-3.459.5879-5.127 1.7637-1.64 1.1758-3.759 3.2949-6.357 6.3574v15.9141c0 2.2695.328 3.8828.984 4.8398.684.9571 1.955 1.5997 3.815 1.9278v1.1074h-18.006v-1.1074c1.859-.3281 3.131-.9571 3.814-1.8867.684-.9571 1.026-2.584 1.026-4.8809v-39.6211c0-2.29687-.356-3.92382-1.067-4.88085-.683-.98438-1.941-1.61328-3.773-1.88672v-.90235l13.207-1.51757zm16.57 24.1582h8.162l-.943-.7383s-.027-.0136-.082-.041c-.027-.0547-.055-.082-.082-.082l-.533-.4102c-.41-.4101-.616-.9297-.616-1.5586v-.8203l-.041-.4101v-15.668c0-2.0781-.136-3.7188-.41-4.9219-.273-1.2031-.738-2.2558-1.394-3.1582-1.696-2.2969-3.897-3.4453-6.604-3.4453-.273 0-.902.0547-1.887.1641 1.696.2461 3.008.7519 3.938 1.5175.93.7383 1.586 1.8594 1.969 3.3633.41 1.5039.615 3.5821.615 6.2344v15.9141c0 1.1211-.055 1.8183-.164 2.0918-.082.2734-.397.6425-.943 1.1074-.055.0547-.096.082-.123.082 0 0-.014.0137-.042.041zm-25.676 0h8.204l-.985-.7383c-.055-.0547-.109-.0957-.164-.123l-.533-.4102c-.383-.3828-.588-.9023-.615-1.5586v-.8203-49.50584l-6.727.73828 1.6 1.14844c.027 0 .082.04102.164.12305l.533.41015c.273.19141.451.47852.533.86133.082.35547.123.99805.123 1.92774v43.88675c0 1.1211-.054 1.8183-.164 2.0918-.109.2734-.437.6425-.984 1.1074 0 0-.028.0137-.082.041-.028.0273-.041.0547-.041.082zm54.346-30.5566v21.7383c0 2.1328.123 3.8554.369 5.1679.274 1.2852.684 2.2285 1.231 2.8301.574.6016 1.326.9023 2.256.9023 1.668 0 3.718-.9843 6.152-2.9531l.615.9844c-1.832 1.5859-3.5 2.7344-5.004 3.4453s-3.049 1.0664-4.635 1.0664c-3.062 0-5.4-1.0117-7.013-3.0351-1.586-2.0508-2.379-5.0176-2.379-8.9004v-21.3692h-3.774v-.9844c2.051-.2734 3.842-1.0117 5.374-2.2148 1.531-1.2031 2.761-2.8574 3.691-4.9629.957-2.1328 1.641-4.7441 2.051-7.83397h1.025v14.88867h8.983v1.2305zm-3.24-5.291c-.957 1.5859-2.215 2.83-3.774 3.7324v20.9179.9434c0 1.5586.069 2.9395.206 4.1426.136 1.1758.341 2.1191.615 2.8301.301.7109.738 1.4082 1.312 2.0918 1.531 1.7773 3.514 2.666 5.948 2.666.437 0 .82-.0137 1.148-.041-1.203-.2735-2.147-.6289-2.83-1.0664-.656-.4375-1.176-1.0665-1.559-1.8868-.383-.8476-.656-1.9961-.82-3.4453s-.246-3.2402-.246-5.373v-1.1485z" fill="#000"/></svg>